<svg xmlns="http://www.w3.org/2000/svg" xmlns:xlink="http://www.w3.org/1999/xlink" width="307" height="321" viewBox="0 0 307 321">
  <defs>
    <clipPath id="clip-_1-path">
      <rect width="307" height="321"/>
    </clipPath>
  </defs>
  <g id="_1-path" data-name="1-path" clip-path="url(#clip-_1-path)">
    <path id="Trazado_7196" data-name="Trazado 7196" d="M45,0H262a45,45,0,0,1,45,45V276a45,45,0,0,1-45,45H45A45,45,0,0,1,0,276V45A45,45,0,0,1,45,0Z" fill="#50abed" opacity="0.8"/>
    <path id="Trazado_7200" data-name="Trazado 7200" d="M-83.408-4.522h.064l2.03-11.118h2.288L-82.237,0h-2.009l-2.729-11.1h-.064L-89.778,0h-2.009L-95-15.641h2.3l2.041,11.1h.064l2.632-11.1h1.9ZM-73.536.226a4.059,4.059,0,0,1-3.4-1.59A6.569,6.569,0,0,1-78.166-5.5V-6A6.819,6.819,0,0,1-76.941-10.2a3.815,3.815,0,0,1,3.2-1.638,3.522,3.522,0,0,1,3.024,1.407,6.239,6.239,0,0,1,1.037,3.781v1.225h-6.306a5.739,5.739,0,0,0,.639,2.89,2.113,2.113,0,0,0,1.96,1.106,4.08,4.08,0,0,0,1.59-.285,4.065,4.065,0,0,0,1.246-.833l.709,1.354a4.633,4.633,0,0,1-1.531,1.01A5.439,5.439,0,0,1-73.536.226Zm-.2-10.388a1.709,1.709,0,0,0-1.5.875,5.216,5.216,0,0,0-.7,2.315h4.114v-.247a4.255,4.255,0,0,0-.467-2.127A1.552,1.552,0,0,0-73.74-10.162ZM-60.3-11.623l.118,1.493A3.542,3.542,0,0,1-59-11.392a3.029,3.029,0,0,1,1.638-.446,2.636,2.636,0,0,1,1.579.478A2.972,2.972,0,0,1-54.758-9.9a3.785,3.785,0,0,1,1.187-1.423,2.865,2.865,0,0,1,1.692-.51,2.667,2.667,0,0,1,2.31,1.225,6.642,6.642,0,0,1,.849,3.749V0H-51.75V-6.864a4.582,4.582,0,0,0-.312-2.03,1.024,1.024,0,0,0-.956-.559,1.359,1.359,0,0,0-.838.274,2.048,2.048,0,0,0-.6.757q.011.269.027.462t.016.387V0h-3.019V-6.864a4.59,4.59,0,0,0-.312-2.02,1.03,1.03,0,0,0-.967-.569,1.449,1.449,0,0,0-.79.22,1.9,1.9,0,0,0-.6.618V0h-3.029V-11.623Zm19.658,9.969A3.746,3.746,0,0,1-41.8-.263,2.715,2.715,0,0,1-43.4.226a2.866,2.866,0,0,1-2.465-1.257,6.748,6.748,0,0,1-.9-3.889v-6.7h3.029V-4.9a5.222,5.222,0,0,0,.306,2.154,1.013,1.013,0,0,0,.961.6,2.04,2.04,0,0,0,.924-.2,1.851,1.851,0,0,0,.677-.585v-8.69h3.04V0H-40.31ZM-30.7-3.029a1.154,1.154,0,0,0-.4-.881A6.529,6.529,0,0,0-32.629-4.8a8.133,8.133,0,0,1-2.664-1.493,2.771,2.771,0,0,1-.892-2.127,3.109,3.109,0,0,1,1.133-2.417,4.375,4.375,0,0,1,3-1A4.523,4.523,0,0,1-28.929-10.8a3.194,3.194,0,0,1,1.112,2.616l-.021.064H-30.76A1.964,1.964,0,0,0-31.083-9.3a1.127,1.127,0,0,0-.978-.446,1.234,1.234,0,0,0-.886.344,1.115,1.115,0,0,0-.36.838,1.063,1.063,0,0,0,.354.833,7.39,7.39,0,0,0,1.547.875,7.518,7.518,0,0,1,2.734,1.488,2.924,2.924,0,0,1,.9,2.218A2.967,2.967,0,0,1-28.961-.72a4.879,4.879,0,0,1-3.131.945A4.386,4.386,0,0,1-35.3-.935a3.412,3.412,0,0,1-1.128-2.632l.032-.064h2.75A1.887,1.887,0,0,0-33.2-2.272a1.633,1.633,0,0,0,1.182.414,1.387,1.387,0,0,0,.983-.317A1.114,1.114,0,0,0-30.7-3.029Zm8.035-11.483v2.89h1.579v2.159h-1.579v5.919a1.926,1.926,0,0,0,.215,1.053.68.68,0,0,0,.591.312,1.931,1.931,0,0,0,.354-.027,3.166,3.166,0,0,0,.344-.091l.236,2.234a5.318,5.318,0,0,1-.822.22,5.085,5.085,0,0,1-.886.07,2.857,2.857,0,0,1-2.272-.9,4.257,4.257,0,0,1-.79-2.847v-5.94H-27.1v-2.159h1.407v-2.89Zm12.4,13.084a1.716,1.716,0,0,0,1.348-.623,2.479,2.479,0,0,0,.542-1.687h1.966l.021.064A3.591,3.591,0,0,1-7.493-.9,3.814,3.814,0,0,1-10.264.226a3.839,3.839,0,0,1-3.319-1.638A7.023,7.023,0,0,1-14.754-5.6V-6a7.053,7.053,0,0,1,1.171-4.184,3.831,3.831,0,0,1,3.319-1.649,3.682,3.682,0,0,1,2.831,1.176A4.2,4.2,0,0,1-6.375-7.605l-.021.054H-8.374a3.157,3.157,0,0,0-.521-1.885,1.611,1.611,0,0,0-1.37-.725A1.829,1.829,0,0,0-12.031-8.98,7.14,7.14,0,0,0-12.574-6V-5.6a7.218,7.218,0,0,0,.537,3A1.827,1.827,0,0,0-10.264-1.429ZM-4.786-5.94a6.946,6.946,0,0,1,1.225-4.243A3.955,3.955,0,0,1-.2-11.838a3.969,3.969,0,0,1,3.368,1.654A6.924,6.924,0,0,1,4.4-5.94v.29A6.893,6.893,0,0,1,3.174-1.413,3.958,3.958,0,0,1-.177.226,3.99,3.99,0,0,1-3.561-1.413,6.893,6.893,0,0,1-4.786-5.65Zm2.191.29A6.747,6.747,0,0,0-2-2.61,1.933,1.933,0,0,0-.177-1.429,1.91,1.91,0,0,0,1.611-2.616a6.754,6.754,0,0,0,.6-3.035v-.29a6.716,6.716,0,0,0-.6-3.024,1.927,1.927,0,0,0-1.8-1.2A1.917,1.917,0,0,0-2-8.964a6.768,6.768,0,0,0-.6,3.024ZM8.459-11.623l.129,1.729a3.927,3.927,0,0,1,1.246-1.434,2.971,2.971,0,0,1,1.708-.51A2.856,2.856,0,0,1,13.954-10.7a5.87,5.87,0,0,1,.865,3.545V0H12.638V-7.144a4.345,4.345,0,0,0-.457-2.32,1.553,1.553,0,0,0-1.38-.677,2.127,2.127,0,0,0-1.289.392,2.745,2.745,0,0,0-.859,1.08V0H6.461V-11.623Zm11.655-2.89v2.89H21.93v1.558H20.115v6.918a2.269,2.269,0,0,0,.274,1.284.851.851,0,0,0,.725.381,1.751,1.751,0,0,0,.344-.032q.161-.032.376-.1l.226,1.5a3.424,3.424,0,0,1-.693.242,3.379,3.379,0,0,1-.79.091,2.441,2.441,0,0,1-1.955-.811,3.877,3.877,0,0,1-.7-2.562v-6.918H16.387v-1.558h1.536v-2.89ZM26.238,0H24.046V-11.623h2.191Zm0-14.674H24.046v-2.084h2.191Zm4.641,3.051.129,1.729a3.927,3.927,0,0,1,1.246-1.434,2.971,2.971,0,0,1,1.708-.51A2.856,2.856,0,0,1,36.373-10.7a5.87,5.87,0,0,1,.865,3.545V0H35.057V-7.144a4.345,4.345,0,0,0-.457-2.32,1.553,1.553,0,0,0-1.38-.677,2.127,2.127,0,0,0-1.289.392,2.745,2.745,0,0,0-.859,1.08V0H28.88V-11.623ZM45.982-1.7a3.741,3.741,0,0,1-1.2,1.423,2.934,2.934,0,0,1-1.7.5,2.926,2.926,0,0,1-2.5-1.235,6.54,6.54,0,0,1-.9-3.835v-6.778h2.191v6.8a5.657,5.657,0,0,0,.43,2.616,1.413,1.413,0,0,0,1.311.747,2.413,2.413,0,0,0,1.37-.376,2.523,2.523,0,0,0,.886-1.074v-8.712h2.191V0H46.2ZM50.118-5.94a6.946,6.946,0,0,1,1.225-4.243A3.955,3.955,0,0,1,54.7-11.838a3.969,3.969,0,0,1,3.368,1.654A6.924,6.924,0,0,1,59.3-5.94v.29a6.893,6.893,0,0,1-1.225,4.238A3.958,3.958,0,0,1,54.726.226a3.99,3.99,0,0,1-3.384-1.638A6.893,6.893,0,0,1,50.118-5.65Zm2.191.29a6.747,6.747,0,0,0,.6,3.04,1.933,1.933,0,0,0,1.821,1.182,1.91,1.91,0,0,0,1.789-1.187,6.754,6.754,0,0,0,.6-3.035v-.29a6.716,6.716,0,0,0-.6-3.024,1.927,1.927,0,0,0-1.8-1.2,1.917,1.917,0,0,0-1.8,1.2,6.768,6.768,0,0,0-.6,3.024ZM67.638-1.7a3.741,3.741,0,0,1-1.2,1.423,2.934,2.934,0,0,1-1.7.5,2.926,2.926,0,0,1-2.5-1.235,6.54,6.54,0,0,1-.9-3.835v-6.778h2.191v6.8a5.657,5.657,0,0,0,.43,2.616,1.413,1.413,0,0,0,1.311.747,2.413,2.413,0,0,0,1.37-.376,2.523,2.523,0,0,0,.886-1.074v-8.712h2.191V0H67.853ZM77.725-2.933a1.548,1.548,0,0,0-.451-1.133,6.038,6.038,0,0,0-1.729-1.026,8.671,8.671,0,0,1-2.686-1.472A2.611,2.611,0,0,1,71.967-8.6a2.935,2.935,0,0,1,1.08-2.288,4.109,4.109,0,0,1,2.809-.945,4.032,4.032,0,0,1,2.89,1.037A3.189,3.189,0,0,1,79.8-8.293l-.021.064H77.671a2.174,2.174,0,0,0-.489-1.423,1.625,1.625,0,0,0-1.327-.6,1.764,1.764,0,0,0-1.305.467,1.494,1.494,0,0,0-.467,1.09,1.373,1.373,0,0,0,.4,1.047,7.118,7.118,0,0,0,1.724.983,7.941,7.941,0,0,1,2.745,1.493,2.774,2.774,0,0,1,.918,2.127A2.9,2.9,0,0,1,78.762-.682a4.466,4.466,0,0,1-2.917.908,4.23,4.23,0,0,1-3.078-1.09A3.267,3.267,0,0,1,71.7-3.416l.021-.064h2.03a2.123,2.123,0,0,0,.639,1.627,2.238,2.238,0,0,0,1.488.5A1.942,1.942,0,0,0,77.236-1.8,1.467,1.467,0,0,0,77.725-2.933ZM84.235,0H82.043V-16.758h2.191Zm5.973-4.007.172.784h.064l2.277-8.4h2.4L90.959,1.8a6.205,6.205,0,0,1-1.106,2.041,2.51,2.51,0,0,1-2.041.849,3.125,3.125,0,0,1-.58-.059q-.312-.059-.612-.134l.247-1.611q.107.021.317.043t.328.021a1.179,1.179,0,0,0,1.021-.542,4.373,4.373,0,0,0,.591-1.284l.4-1.2L85.857-11.623h2.385ZM-97.233,27q-.14-.526-.22-.94a5.921,5.921,0,0,1-.1-.822,4.268,4.268,0,0,1-1.219,1.423,2.812,2.812,0,0,1-1.724.564,3.052,3.052,0,0,1-2.39-.924,3.632,3.632,0,0,1-.833-2.524,3.166,3.166,0,0,1,1.155-2.589,4.943,4.943,0,0,1,3.217-.945h1.783V19.051a2.608,2.608,0,0,0-.473-1.66,1.626,1.626,0,0,0-1.354-.6,1.619,1.619,0,0,0-1.262.516,1.892,1.892,0,0,0-.467,1.321l-2.084.011-.021-.064a2.954,2.954,0,0,1,1.053-2.385,4.137,4.137,0,0,1,2.922-1.031,3.915,3.915,0,0,1,2.8,1.015,3.792,3.792,0,0,1,1.074,2.9v5.393a9.546,9.546,0,0,0,.086,1.294A8.243,8.243,0,0,0-95.02,27Zm-2.814-1.45A2.448,2.448,0,0,0-98.468,25a2.562,2.562,0,0,0,.9-1.337V21.6h-1.815a2.005,2.005,0,0,0-1.579.639,2.237,2.237,0,0,0-.569,1.542,2,2,0,0,0,.387,1.289A1.323,1.323,0,0,0-100.047,25.55Zm9.5,1.45h-2.191V15.377h2.191Zm0-14.674h-2.191V10.242h2.191Zm4.662,3.051.118,1.579a3.615,3.615,0,0,1,1.23-1.327,3.2,3.2,0,0,1,1.735-.467,2.714,2.714,0,0,1,1.676.532,3.18,3.18,0,0,1,1.063,1.617,3.969,3.969,0,0,1,1.23-1.579,2.956,2.956,0,0,1,1.81-.569,2.753,2.753,0,0,1,2.379,1.23,6.547,6.547,0,0,1,.865,3.744V27h-2.191V20.125a5.134,5.134,0,0,0-.451-2.541,1.48,1.48,0,0,0-1.343-.725,1.641,1.641,0,0,0-1.262.559,3.4,3.4,0,0,0-.747,1.472q.011.193.021.4t.011.424V27h-2.181V20.125a5.055,5.055,0,0,0-.462-2.508,1.481,1.481,0,0,0-1.343-.757,1.893,1.893,0,0,0-1.2.387,2.55,2.55,0,0,0-.773,1.063V27H-87.9V15.377ZM-65.7,27V16.935h-1.536V15.377H-65.7V13.884a4.161,4.161,0,0,1,.9-2.857,3.18,3.18,0,0,1,2.508-1.01,3.838,3.838,0,0,1,.661.059q.338.059.736.167l-.2,1.6a3.8,3.8,0,0,0-.43-.086,3.506,3.506,0,0,0-.494-.032,1.262,1.262,0,0,0-1.112.559,2.827,2.827,0,0,0-.381,1.6v1.493H-61.6v1.558h-1.923V27Zm5.371-5.94a6.946,6.946,0,0,1,1.225-4.243,3.955,3.955,0,0,1,3.362-1.654,3.969,3.969,0,0,1,3.368,1.654,6.924,6.924,0,0,1,1.23,4.243v.29a6.893,6.893,0,0,1-1.225,4.238,3.958,3.958,0,0,1-3.352,1.638,3.99,3.99,0,0,1-3.384-1.638,6.893,6.893,0,0,1-1.225-4.238Zm2.191.29a6.747,6.747,0,0,0,.6,3.04,1.933,1.933,0,0,0,1.821,1.182,1.91,1.91,0,0,0,1.789-1.187,6.754,6.754,0,0,0,.6-3.035v-.29a6.716,6.716,0,0,0-.6-3.024,1.927,1.927,0,0,0-1.8-1.2,1.917,1.917,0,0,0-1.8,1.2,6.768,6.768,0,0,0-.6,3.024Zm14.062-4.157-.945-.054a1.64,1.64,0,0,0-1.144.414,2.649,2.649,0,0,0-.7,1.166V27h-2.191V15.377h2.009l.15,1.719a3.733,3.733,0,0,1,.988-1.423,2.08,2.08,0,0,1,1.386-.51,1.836,1.836,0,0,1,.381.038,2.1,2.1,0,0,1,.317.091Zm10.817,10.033a4.059,4.059,0,0,1-3.4-1.59,6.569,6.569,0,0,1-1.23-4.136V21A6.819,6.819,0,0,1-36.668,16.8a3.815,3.815,0,0,1,3.2-1.638,3.522,3.522,0,0,1,3.024,1.407,6.239,6.239,0,0,1,1.037,3.781v1.225h-6.306a5.739,5.739,0,0,0,.639,2.89,2.113,2.113,0,0,0,1.96,1.106,4.08,4.08,0,0,0,1.59-.285,4.065,4.065,0,0,0,1.246-.833l.709,1.354a4.633,4.633,0,0,1-1.531,1.01A5.439,5.439,0,0,1-33.263,27.226Zm-.2-10.388a1.709,1.709,0,0,0-1.5.875,5.216,5.216,0,0,0-.7,2.315h4.114v-.247a4.255,4.255,0,0,0-.467-2.127A1.552,1.552,0,0,0-33.467,16.838Zm9.561,2.782h.064l1.869-4.243h2.514l-3.147,5.736L-19.352,27h-2.492l-1.966-4.383h-.064L-25.83,27h-2.492l3.233-5.887-3.137-5.736h2.471Zm9.99,5.951a1.716,1.716,0,0,0,1.348-.623,2.48,2.48,0,0,0,.542-1.687h1.966l.021.064A3.591,3.591,0,0,1-11.145,26.1a3.814,3.814,0,0,1-2.771,1.128,3.839,3.839,0,0,1-3.319-1.638A7.023,7.023,0,0,1-18.407,21.4V21a7.053,7.053,0,0,1,1.171-4.184,3.831,3.831,0,0,1,3.319-1.649,3.682,3.682,0,0,1,2.831,1.176,4.2,4.2,0,0,1,1.058,3.056l-.021.054h-1.977a3.157,3.157,0,0,0-.521-1.885,1.611,1.611,0,0,0-1.37-.725,1.829,1.829,0,0,0-1.767,1.182A7.14,7.14,0,0,0-16.226,21V21.4a7.218,7.218,0,0,0,.537,3A1.827,1.827,0,0,0-13.917,25.571ZM-3.8,27.226a4.059,4.059,0,0,1-3.4-1.59A6.569,6.569,0,0,1-8.427,21.5V21A6.819,6.819,0,0,1-7.2,16.8,3.815,3.815,0,0,1-4,15.162,3.522,3.522,0,0,1-.978,16.569,6.239,6.239,0,0,1,.059,20.351v1.225H-6.247a5.739,5.739,0,0,0,.639,2.89,2.113,2.113,0,0,0,1.96,1.106,4.08,4.08,0,0,0,1.59-.285,4.065,4.065,0,0,0,1.246-.833L-.1,25.808a4.633,4.633,0,0,1-1.531,1.01A5.439,5.439,0,0,1-3.8,27.226ZM-4,16.838a1.709,1.709,0,0,0-1.5.875,5.216,5.216,0,0,0-.7,2.315h4.114v-.247a4.255,4.255,0,0,0-.467-2.127A1.552,1.552,0,0,0-4,16.838ZM4.356,27H2.165V10.242H4.356Zm5,0H7.16V10.242H9.351Zm6.864.226a4.059,4.059,0,0,1-3.4-1.59,6.569,6.569,0,0,1-1.23-4.136V21A6.819,6.819,0,0,1,12.81,16.8a3.815,3.815,0,0,1,3.2-1.638,3.522,3.522,0,0,1,3.024,1.407,6.239,6.239,0,0,1,1.037,3.781v1.225H13.766a5.739,5.739,0,0,0,.639,2.89,2.113,2.113,0,0,0,1.96,1.106A3.807,3.807,0,0,0,19.2,24.454l.709,1.354a4.633,4.633,0,0,1-1.531,1.01A5.439,5.439,0,0,1,16.215,27.226Zm-.2-10.388a1.709,1.709,0,0,0-1.5.875,5.216,5.216,0,0,0-.7,2.315h4.114v-.247a4.255,4.255,0,0,0-.467-2.127A1.552,1.552,0,0,0,16.011,16.838Zm8-1.461.129,1.729a3.927,3.927,0,0,1,1.246-1.434,2.971,2.971,0,0,1,1.708-.51A2.856,2.856,0,0,1,29.509,16.3a5.87,5.87,0,0,1,.865,3.545V27H28.193V19.856a4.345,4.345,0,0,0-.457-2.32,1.553,1.553,0,0,0-1.38-.677,2.127,2.127,0,0,0-1.289.392,2.745,2.745,0,0,0-.859,1.08V27H22.016V15.377ZM36.9,25.571a1.716,1.716,0,0,0,1.348-.623,2.48,2.48,0,0,0,.542-1.687h1.966l.021.064A3.591,3.591,0,0,1,39.676,26.1a4.086,4.086,0,0,1-6.091-.51A7.023,7.023,0,0,1,32.415,21.4V21a7.053,7.053,0,0,1,1.171-4.184A3.831,3.831,0,0,1,36.9,15.162a3.682,3.682,0,0,1,2.831,1.176,4.2,4.2,0,0,1,1.058,3.056l-.021.054H38.8a3.157,3.157,0,0,0-.521-1.885,1.611,1.611,0,0,0-1.37-.725,1.829,1.829,0,0,0-1.767,1.182A7.14,7.14,0,0,0,34.6,21V21.4a7.218,7.218,0,0,0,.537,3A1.827,1.827,0,0,0,36.9,25.571Zm10.119,1.654a4.059,4.059,0,0,1-3.4-1.59,6.569,6.569,0,0,1-1.23-4.136V21A6.819,6.819,0,0,1,43.619,16.8a3.815,3.815,0,0,1,3.2-1.638,3.522,3.522,0,0,1,3.024,1.407,6.239,6.239,0,0,1,1.037,3.781v1.225H44.575a5.739,5.739,0,0,0,.639,2.89,2.113,2.113,0,0,0,1.96,1.106,3.807,3.807,0,0,0,2.836-1.117l.709,1.354a4.633,4.633,0,0,1-1.531,1.01A5.439,5.439,0,0,1,47.024,27.226Zm-.2-10.388a1.709,1.709,0,0,0-1.5.875,5.216,5.216,0,0,0-.7,2.315h4.114v-.247a4.255,4.255,0,0,0-.467-2.127A1.552,1.552,0,0,0,46.82,16.838ZM60.011,27H57.82V15.377h2.191Zm0-14.674H57.82V10.242h2.191Zm4.641,3.051.129,1.729a3.927,3.927,0,0,1,1.246-1.434,2.971,2.971,0,0,1,1.708-.51A2.856,2.856,0,0,1,70.146,16.3a5.87,5.87,0,0,1,.865,3.545V27H68.831V19.856a4.345,4.345,0,0,0-.457-2.32,1.553,1.553,0,0,0-1.38-.677,2.127,2.127,0,0,0-1.289.392,2.745,2.745,0,0,0-.859,1.08V27H62.654V15.377Zm16.489-2.89v2.89h1.815v1.558H81.141v6.918a2.269,2.269,0,0,0,.274,1.284.851.851,0,0,0,.725.381,1.751,1.751,0,0,0,.344-.032q.161-.032.376-.1l.226,1.5a3.424,3.424,0,0,1-.693.242,3.379,3.379,0,0,1-.79.091,2.441,2.441,0,0,1-1.955-.811,3.877,3.877,0,0,1-.7-2.562V16.935H77.414V15.377H78.95v-2.89Zm5.951,4.447a3.852,3.852,0,0,1,1.214-1.305,2.9,2.9,0,0,1,1.611-.467,2.942,2.942,0,0,1,2.471,1.16,5.835,5.835,0,0,1,.892,3.566V27H91.088V19.867a4.348,4.348,0,0,0-.462-2.3,1.527,1.527,0,0,0-1.364-.7,2.263,2.263,0,0,0-1.294.365,2.64,2.64,0,0,0-.875,1.021V27H84.9V10.242h2.191ZM99.961,27.226a4.059,4.059,0,0,1-3.4-1.59,6.569,6.569,0,0,1-1.23-4.136V21A6.819,6.819,0,0,1,96.556,16.8a3.815,3.815,0,0,1,3.2-1.638,3.522,3.522,0,0,1,3.024,1.407,6.239,6.239,0,0,1,1.037,3.781v1.225H97.512a5.739,5.739,0,0,0,.639,2.89,2.113,2.113,0,0,0,1.96,1.106,3.807,3.807,0,0,0,2.836-1.117l.709,1.354a4.633,4.633,0,0,1-1.531,1.01A5.439,5.439,0,0,1,99.961,27.226Zm-.2-10.388a1.709,1.709,0,0,0-1.5.875,5.216,5.216,0,0,0-.7,2.315h4.114v-.247a4.255,4.255,0,0,0-.467-2.127A1.552,1.552,0,0,0,99.757,16.838ZM-77.94,48.554a7.36,7.36,0,0,1-1.026,4.125,3.25,3.25,0,0,1-2.863,1.547,3.288,3.288,0,0,1-1.52-.338,3.09,3.09,0,0,1-1.123-.994v5.575h-2.191V42.377H-84.8l.2,1.4a3.421,3.421,0,0,1,1.16-1.2,3.045,3.045,0,0,1,1.6-.414,3.2,3.2,0,0,1,2.874,1.687,8.554,8.554,0,0,1,1.026,4.479Zm-2.191-.226a7.739,7.739,0,0,0-.575-3.223,1.843,1.843,0,0,0-1.724-1.246,1.918,1.918,0,0,0-1.235.4,2.794,2.794,0,0,0-.806,1.09v5.854a2.443,2.443,0,0,0,.806,1.01,2.115,2.115,0,0,0,1.246.354,1.835,1.835,0,0,0,1.719-1.1,6.366,6.366,0,0,0,.569-2.922ZM-69.8,54q-.14-.526-.22-.94a5.921,5.921,0,0,1-.1-.822,4.268,4.268,0,0,1-1.219,1.423,2.812,2.812,0,0,1-1.724.564,3.052,3.052,0,0,1-2.39-.924,3.632,3.632,0,0,1-.833-2.524,3.166,3.166,0,0,1,1.155-2.589,4.943,4.943,0,0,1,3.217-.945h1.783V46.051a2.608,2.608,0,0,0-.473-1.66,1.626,1.626,0,0,0-1.354-.6,1.619,1.619,0,0,0-1.262.516,1.892,1.892,0,0,0-.467,1.321l-2.084.011-.021-.064a2.954,2.954,0,0,1,1.053-2.385,4.137,4.137,0,0,1,2.922-1.031,3.915,3.915,0,0,1,2.8,1.015,3.792,3.792,0,0,1,1.074,2.9v5.393a9.546,9.546,0,0,0,.086,1.294A8.243,8.243,0,0,0-67.584,54Zm-2.814-1.45A2.448,2.448,0,0,0-71.033,52a2.562,2.562,0,0,0,.9-1.337V48.6h-1.815a2.006,2.006,0,0,0-1.579.639,2.237,2.237,0,0,0-.569,1.542,2,2,0,0,0,.387,1.289A1.323,1.323,0,0,0-72.612,52.55Zm11.2.021a1.716,1.716,0,0,0,1.348-.623,2.48,2.48,0,0,0,.542-1.687h1.966l.021.064A3.591,3.591,0,0,1-58.636,53.1a3.814,3.814,0,0,1-2.771,1.128,3.839,3.839,0,0,1-3.319-1.638A7.023,7.023,0,0,1-65.9,48.4V48a7.053,7.053,0,0,1,1.171-4.184,3.831,3.831,0,0,1,3.319-1.649,3.682,3.682,0,0,1,2.831,1.176,4.2,4.2,0,0,1,1.058,3.056l-.021.054h-1.977a3.157,3.157,0,0,0-.521-1.885,1.611,1.611,0,0,0-1.37-.725,1.829,1.829,0,0,0-1.767,1.182A7.14,7.14,0,0,0-63.717,48V48.4a7.218,7.218,0,0,0,.537,3A1.827,1.827,0,0,0-61.408,52.571Zm8.927-3.9H-53.3V54h-2.181V37.242H-53.3v9.765h.763l2.793-4.63h2.567l-3.556,5.285L-46.788,54h-2.546ZM-39.429,54q-.14-.526-.22-.94a5.922,5.922,0,0,1-.1-.822,4.268,4.268,0,0,1-1.219,1.423,2.812,2.812,0,0,1-1.724.564,3.052,3.052,0,0,1-2.39-.924,3.632,3.632,0,0,1-.833-2.524,3.166,3.166,0,0,1,1.155-2.589,4.943,4.943,0,0,1,3.217-.945h1.783V46.051a2.608,2.608,0,0,0-.473-1.66,1.626,1.626,0,0,0-1.354-.6,1.619,1.619,0,0,0-1.262.516,1.892,1.892,0,0,0-.467,1.321l-2.084.011-.021-.064a2.954,2.954,0,0,1,1.053-2.385,4.137,4.137,0,0,1,2.922-1.031,3.915,3.915,0,0,1,2.8,1.015,3.792,3.792,0,0,1,1.074,2.9v5.393a9.546,9.546,0,0,0,.086,1.294A8.243,8.243,0,0,0-37.216,54Zm-2.814-1.45A2.448,2.448,0,0,0-40.665,52a2.562,2.562,0,0,0,.9-1.337V48.6h-1.815a2.006,2.006,0,0,0-1.579.639,2.237,2.237,0,0,0-.569,1.542,2,2,0,0,0,.387,1.289A1.323,1.323,0,0,0-42.244,52.55Zm6.8-4.222a8.59,8.59,0,0,1,1.021-4.479,3.2,3.2,0,0,1,2.879-1.687,2.936,2.936,0,0,1,1.6.435,3.545,3.545,0,0,1,1.166,1.241l.2-1.461h1.826V54.021a4.733,4.733,0,0,1-1.192,3.454,4.488,4.488,0,0,1-3.362,1.219,6.145,6.145,0,0,1-1.584-.226,6.364,6.364,0,0,1-1.52-.612l.354-1.633a5.576,5.576,0,0,0,1.284.521,5.494,5.494,0,0,0,1.445.188,2.172,2.172,0,0,0,1.8-.725,3.477,3.477,0,0,0,.58-2.2V52.861a3.19,3.19,0,0,1-1.123,1.021,3.158,3.158,0,0,1-1.5.344,3.234,3.234,0,0,1-2.857-1.552,7.4,7.4,0,0,1-1.021-4.12Zm2.191.226a6.579,6.579,0,0,0,.537,2.911,1.788,1.788,0,0,0,1.708,1.074,2.034,2.034,0,0,0,1.241-.376,2.635,2.635,0,0,0,.822-1.063V45.385a2.879,2.879,0,0,0-.822-1.117A1.907,1.907,0,0,0-31,43.859,1.8,1.8,0,0,0-32.7,45.1a8.066,8.066,0,0,0-.548,3.228ZM-21.919,54h-2.191V42.377h2.191Zm0-14.674h-2.191V37.242h2.191Zm4.641,3.051.129,1.729A3.927,3.927,0,0,1-15.9,42.672a2.971,2.971,0,0,1,1.708-.51A2.856,2.856,0,0,1-11.784,43.3a5.87,5.87,0,0,1,.865,3.545V54H-13.1V46.856a4.345,4.345,0,0,0-.457-2.32,1.553,1.553,0,0,0-1.38-.677,2.127,2.127,0,0,0-1.289.392,2.745,2.745,0,0,0-.859,1.08V54h-2.191V42.377Zm8.486,5.951a8.59,8.59,0,0,1,1.021-4.479,3.2,3.2,0,0,1,2.879-1.687,2.936,2.936,0,0,1,1.6.435,3.545,3.545,0,0,1,1.166,1.241l.2-1.461H-.1V54.021a4.733,4.733,0,0,1-1.192,3.454,4.488,4.488,0,0,1-3.362,1.219,6.145,6.145,0,0,1-1.584-.226,6.364,6.364,0,0,1-1.52-.612l.354-1.633a5.576,5.576,0,0,0,1.284.521,5.494,5.494,0,0,0,1.445.188,2.172,2.172,0,0,0,1.8-.725,3.477,3.477,0,0,0,.58-2.2V52.861a3.19,3.19,0,0,1-1.123,1.021,3.158,3.158,0,0,1-1.5.344,3.234,3.234,0,0,1-2.857-1.552,7.4,7.4,0,0,1-1.021-4.12Zm2.191.226a6.579,6.579,0,0,0,.537,2.911,1.788,1.788,0,0,0,1.708,1.074,2.034,2.034,0,0,0,1.241-.376A2.635,2.635,0,0,0-2.293,51.1V45.385a2.879,2.879,0,0,0-.822-1.117,1.907,1.907,0,0,0-1.23-.408A1.8,1.8,0,0,0-6.053,45.1,8.066,8.066,0,0,0-6.6,48.328Zm22.569,0a7.421,7.421,0,0,1-1.015,4.125,3.243,3.243,0,0,1-2.874,1.547,3.131,3.131,0,0,1-1.649-.424,3.31,3.31,0,0,1-1.166-1.241L9.029,54H7.235V37.242H9.426v6.392a3.341,3.341,0,0,1,1.117-1.09,2.978,2.978,0,0,1,1.525-.381,3.2,3.2,0,0,1,2.884,1.681,8.621,8.621,0,0,1,1.015,4.485Zm-2.191-.226a8.187,8.187,0,0,0-.537-3.244,1.793,1.793,0,0,0-1.719-1.225,1.9,1.9,0,0,0-1.278.44,2.994,2.994,0,0,0-.816,1.192v5.5a2.6,2.6,0,0,0,.811,1.144,2.07,2.07,0,0,0,1.305.4,1.779,1.779,0,0,0,1.7-1.069,6.63,6.63,0,0,0,.532-2.917ZM24.315,52.3a3.741,3.741,0,0,1-1.2,1.423,3.146,3.146,0,0,1-4.2-.736,6.54,6.54,0,0,1-.9-3.835V42.377H20.2v6.8a5.657,5.657,0,0,0,.43,2.616,1.413,1.413,0,0,0,1.311.747,2.413,2.413,0,0,0,1.37-.376,2.523,2.523,0,0,0,.886-1.074V42.377h2.191V54H24.53ZM34.4,51.067a1.548,1.548,0,0,0-.451-1.133,6.038,6.038,0,0,0-1.729-1.026,8.671,8.671,0,0,1-2.686-1.472,2.611,2.611,0,0,1-.892-2.041,2.935,2.935,0,0,1,1.08-2.288,4.109,4.109,0,0,1,2.809-.945,4.032,4.032,0,0,1,2.89,1.037,3.189,3.189,0,0,1,1.053,2.508l-.021.064H34.348a2.174,2.174,0,0,0-.489-1.423,1.625,1.625,0,0,0-1.327-.6,1.764,1.764,0,0,0-1.305.467,1.494,1.494,0,0,0-.467,1.09,1.373,1.373,0,0,0,.4,1.047,7.118,7.118,0,0,0,1.724.983,7.941,7.941,0,0,1,2.745,1.493,2.774,2.774,0,0,1,.918,2.127,2.9,2.9,0,0,1-1.112,2.358,4.466,4.466,0,0,1-2.917.908,4.23,4.23,0,0,1-3.078-1.09,3.267,3.267,0,0,1-1.069-2.551l.021-.064h2.03a2.123,2.123,0,0,0,.639,1.627,2.238,2.238,0,0,0,1.488.5,1.942,1.942,0,0,0,1.359-.446A1.467,1.467,0,0,0,34.4,51.067ZM40.912,54H38.72V42.377h2.191Zm0-14.674H38.72V37.242h2.191Zm4.641,3.051.129,1.729a3.927,3.927,0,0,1,1.246-1.434,2.971,2.971,0,0,1,1.708-.51A2.856,2.856,0,0,1,51.047,43.3a5.87,5.87,0,0,1,.865,3.545V54H49.731V46.856a4.345,4.345,0,0,0-.457-2.32,1.553,1.553,0,0,0-1.38-.677,2.127,2.127,0,0,0-1.289.392,2.745,2.745,0,0,0-.859,1.08V54H43.554V42.377ZM58.6,54.226a4.059,4.059,0,0,1-3.4-1.59,6.569,6.569,0,0,1-1.23-4.136V48A6.819,6.819,0,0,1,55.2,43.8a3.815,3.815,0,0,1,3.2-1.638,3.522,3.522,0,0,1,3.024,1.407,6.239,6.239,0,0,1,1.037,3.781v1.225H56.155a5.739,5.739,0,0,0,.639,2.89,2.113,2.113,0,0,0,1.96,1.106,3.807,3.807,0,0,0,2.836-1.117l.709,1.354a4.633,4.633,0,0,1-1.531,1.01A5.439,5.439,0,0,1,58.6,54.226Zm-.2-10.388a1.709,1.709,0,0,0-1.5.875,5.216,5.216,0,0,0-.7,2.315h4.114v-.247a4.255,4.255,0,0,0-.467-2.127A1.552,1.552,0,0,0,58.4,43.838Zm11.537,7.229a1.548,1.548,0,0,0-.451-1.133,6.038,6.038,0,0,0-1.729-1.026,8.671,8.671,0,0,1-2.686-1.472,2.611,2.611,0,0,1-.892-2.041,2.935,2.935,0,0,1,1.08-2.288,4.109,4.109,0,0,1,2.809-.945,4.032,4.032,0,0,1,2.89,1.037,3.189,3.189,0,0,1,1.053,2.508l-.021.064H69.883a2.174,2.174,0,0,0-.489-1.423,1.625,1.625,0,0,0-1.327-.6,1.764,1.764,0,0,0-1.305.467,1.494,1.494,0,0,0-.467,1.09,1.373,1.373,0,0,0,.4,1.047,7.118,7.118,0,0,0,1.724.983,7.941,7.941,0,0,1,2.745,1.493,2.774,2.774,0,0,1,.918,2.127,2.9,2.9,0,0,1-1.112,2.358,4.466,4.466,0,0,1-2.917.908,4.23,4.23,0,0,1-3.078-1.09,3.267,3.267,0,0,1-1.069-2.551l.021-.064h2.03a2.123,2.123,0,0,0,.639,1.627,2.238,2.238,0,0,0,1.488.5,1.942,1.942,0,0,0,1.359-.446A1.467,1.467,0,0,0,69.937,51.067Zm9.689,0a1.548,1.548,0,0,0-.451-1.133,6.038,6.038,0,0,0-1.729-1.026,8.671,8.671,0,0,1-2.686-1.472,2.611,2.611,0,0,1-.892-2.041,2.935,2.935,0,0,1,1.08-2.288,4.109,4.109,0,0,1,2.809-.945,4.032,4.032,0,0,1,2.89,1.037A3.189,3.189,0,0,1,81.7,45.707l-.021.064H79.573a2.174,2.174,0,0,0-.489-1.423,1.625,1.625,0,0,0-1.327-.6,1.764,1.764,0,0,0-1.305.467,1.494,1.494,0,0,0-.467,1.09,1.373,1.373,0,0,0,.4,1.047,7.118,7.118,0,0,0,1.724.983,7.941,7.941,0,0,1,2.745,1.493,2.774,2.774,0,0,1,.918,2.127,2.9,2.9,0,0,1-1.112,2.358,4.466,4.466,0,0,1-2.917.908,4.23,4.23,0,0,1-3.078-1.09A3.267,3.267,0,0,1,73.6,50.584l.021-.064h2.03a2.123,2.123,0,0,0,.639,1.627,2.238,2.238,0,0,0,1.488.5,1.942,1.942,0,0,0,1.359-.446A1.467,1.467,0,0,0,79.626,51.067ZM86.233,54h-2.2V51.819h2.2Z" transform="translate(148 178)" fill="#fff"/>
    <path id="Trazado_7207" data-name="Trazado 7207" d="M4.944,0H-1.965V-29.565l-6.494.171v-5.3l13.4-1.367Z" transform="translate(153 102)" fill="#fff"/>
  </g>
</svg>
