<svg xmlns="http://www.w3.org/2000/svg" xmlns:xlink="http://www.w3.org/1999/xlink" width="562" height="738" viewBox="0 0 562 738">
  <defs>
    <filter id="Trazado_7211" x="0.361" y="0" width="562" height="738" filterUnits="userSpaceOnUse">
      <feOffset dy="20" input="SourceAlpha"/>
      <feGaussianBlur stdDeviation="23" result="blur"/>
      <feFlood flood-color="#010101" flood-opacity="0.129"/>
      <feComposite operator="in" in2="blur"/>
      <feComposite in="SourceGraphic"/>
    </filter>
    <filter id="Rect치ngulo_2851" x="158.521" y="50" width="245.315" height="245.459" filterUnits="userSpaceOnUse">
      <feOffset dy="9" input="SourceAlpha"/>
      <feGaussianBlur stdDeviation="15" result="blur-2"/>
      <feFlood flood-color="#010101" flood-opacity="0.122"/>
      <feComposite operator="in" in2="blur-2"/>
      <feComposite in="SourceGraphic"/>
    </filter>
    <clipPath id="clip-Environment-path">
      <rect width="562" height="738"/>
    </clipPath>
  </defs>
  <g id="Environment-path" clip-path="url(#clip-Environment-path)">
    <g transform="matrix(1, 0, 0, 1, 0, 0)" filter="url(#Trazado_7211)">
      <path id="Trazado_7211-2" data-name="Trazado 7211" d="M74,0H350a74,74,0,0,1,74,74V526a74,74,0,0,1-74,74H74A74,74,0,0,1,0,526V74A74,74,0,0,1,74,0Z" transform="translate(69.36 49)" fill="#fff"/>
    </g>
    <path id="Trazado_7213" data-name="Trazado 7213" d="M-86.994-13.187H-96.12v8.675h10.931V0H-101.9V-29.859H-85.23v4.532H-96.12V-17.7h9.126Zm10.4-9,.246,3.1a7.54,7.54,0,0,1,2.307-2.584A5.313,5.313,0,0,1-71-22.6a5.2,5.2,0,0,1,4.44,2.2q1.61,2.2,1.61,6.921V0h-5.783V-13.474a7.481,7.481,0,0,0-.6-3.538,1.987,1.987,0,0,0-1.835-1.036A3.36,3.36,0,0,0-74.9-17.6a3.913,3.913,0,0,0-1.3,1.271V0H-81.99V-22.189ZM-54.038-8.2l.267,1.682h.123l.308-1.682,2.707-13.986h6.05L-50.9,0h-5.64l-6.337-22.189h6.091ZM-36.3,0h-5.783V-22.189H-36.3Zm0-27.583h-5.783v-4.409H-36.3Zm14.479,10.4-1.969-.062a2.509,2.509,0,0,0-1.61.513,3.243,3.243,0,0,0-.995,1.436V0h-5.763V-22.189h5.394l.226,3.138a6.83,6.83,0,0,1,1.63-2.615A3.245,3.245,0,0,1-22.62-22.6a3.36,3.36,0,0,1,.718.072q.328.072.677.174Zm1.6,5.886a13.119,13.119,0,0,1,2.389-8.152A7.944,7.944,0,0,1-11.115-22.6a8.006,8.006,0,0,1,6.727,3.148A13,13,0,0,1-1.969-11.3v.472A12.951,12.951,0,0,1-4.378-2.7a7.977,7.977,0,0,1-6.7,3.127,8.023,8.023,0,0,1-6.747-3.117,12.98,12.98,0,0,1-2.4-8.142Zm5.763.472a12.931,12.931,0,0,0,.769,4.922,2.669,2.669,0,0,0,2.615,1.825A2.636,2.636,0,0,0-8.531-5.906a12.778,12.778,0,0,0,.779-4.922V-11.3a12.887,12.887,0,0,0-.779-4.912,2.664,2.664,0,0,0-2.584-1.856A2.647,2.647,0,0,0-13.689-16.2a13.058,13.058,0,0,0-.769,4.9ZM6.46-22.189l.246,3.1a7.54,7.54,0,0,1,2.307-2.584,5.313,5.313,0,0,1,3.045-.923,5.2,5.2,0,0,1,4.44,2.2q1.61,2.2,1.61,6.921V0H12.325V-13.474a7.481,7.481,0,0,0-.6-3.538,1.987,1.987,0,0,0-1.835-1.036,3.36,3.36,0,0,0-1.733.451,3.913,3.913,0,0,0-1.3,1.271V0H1.066V-22.189Zm20.774,0,.226,2.851a6.762,6.762,0,0,1,2.266-2.41,5.783,5.783,0,0,1,3.127-.851,5.033,5.033,0,0,1,3.015.913,5.674,5.674,0,0,1,1.948,2.779,7.226,7.226,0,0,1,2.266-2.717,5.47,5.47,0,0,1,3.23-.974,5.092,5.092,0,0,1,4.409,2.338q1.62,2.338,1.62,7.157V0H43.559V-13.1a8.747,8.747,0,0,0-.595-3.876,1.955,1.955,0,0,0-1.825-1.066,2.6,2.6,0,0,0-1.6.523,3.91,3.91,0,0,0-1.148,1.446q.021.513.051.882t.031.738V0H32.71V-13.1a8.763,8.763,0,0,0-.595-3.855,1.966,1.966,0,0,0-1.846-1.087,2.766,2.766,0,0,0-1.507.42,3.623,3.623,0,0,0-1.138,1.179V0H21.841V-22.189ZM61.708.431A8.211,8.211,0,0,1,54.9-2.6a12.148,12.148,0,0,1-2.42-7.813v-.841a13.447,13.447,0,0,1,2.328-8.183A7.666,7.666,0,0,1,61.359-22.6a7.163,7.163,0,0,1,6.009,2.687,11.587,11.587,0,0,1,2.092,7.3v3.158h-11.2A7.794,7.794,0,0,0,59.38-5.537a3.362,3.362,0,0,0,3,1.456,8.926,8.926,0,0,0,2.881-.4,11.7,11.7,0,0,0,2.492-1.261l1.5,3.609A9.588,9.588,0,0,1,66.045-.308,12.538,12.538,0,0,1,61.708.431Zm-.349-18.5A2.316,2.316,0,0,0,59.2-16.786a8.868,8.868,0,0,0-.892,3.517h5.5v-.513a7.192,7.192,0,0,0-.564-3.158A1.941,1.941,0,0,0,61.359-18.067Zm16.365-4.122.246,3.1a7.54,7.54,0,0,1,2.307-2.584,5.313,5.313,0,0,1,3.045-.923,5.2,5.2,0,0,1,4.44,2.2q1.61,2.2,1.61,6.921V0H83.59V-13.474a7.481,7.481,0,0,0-.6-3.538,1.987,1.987,0,0,0-1.835-1.036,3.36,3.36,0,0,0-1.733.451,3.913,3.913,0,0,0-1.3,1.271V0H72.331V-22.189Zm22.148-5.517v5.517h3.015v4.122H99.873v11.3a3.678,3.678,0,0,0,.41,2.01,1.3,1.3,0,0,0,1.128.595,3.685,3.685,0,0,0,.677-.051,6.044,6.044,0,0,0,.656-.174L103.2-.123a10.152,10.152,0,0,1-1.569.42,9.708,9.708,0,0,1-1.692.133A5.455,5.455,0,0,1,95.6-1.292Q94.09-3.015,94.09-6.727V-18.067H91.4v-4.122H94.09v-5.517Z" transform="translate(279 304)" fill="#88c645"/>
    <path id="Trazado_7212" data-name="Trazado 7212" d="M-146.924-15.869h-4.712V0h-2.49V-15.869H-158.8v-1.9h11.877Zm.146,9.119a7.893,7.893,0,0,1,1.392-4.822,4.5,4.5,0,0,1,3.821-1.88,4.511,4.511,0,0,1,3.827,1.88,7.869,7.869,0,0,1,1.4,4.822v.33a7.833,7.833,0,0,1-1.392,4.816A4.5,4.5,0,0,1-141.541.256a4.534,4.534,0,0,1-3.845-1.862,7.833,7.833,0,0,1-1.392-4.816Zm2.49.33a7.667,7.667,0,0,0,.677,3.455,2.2,2.2,0,0,0,2.069,1.343,2.17,2.17,0,0,0,2.032-1.349,7.675,7.675,0,0,0,.677-3.448v-.33a7.632,7.632,0,0,0-.684-3.436,2.19,2.19,0,0,0-2.051-1.361,2.178,2.178,0,0,0-2.045,1.361,7.691,7.691,0,0,0-.677,3.436Zm25.72.232A8.364,8.364,0,0,1-119.733-1.5,3.693,3.693,0,0,1-122.986.256a3.737,3.737,0,0,1-1.727-.385,3.512,3.512,0,0,1-1.276-1.129V5.078h-2.49V-13.208h2.112l.232,1.587a3.887,3.887,0,0,1,1.318-1.361,3.46,3.46,0,0,1,1.819-.47,3.637,3.637,0,0,1,3.265,1.917,9.72,9.72,0,0,1,1.166,5.09Zm-2.49-.256a8.8,8.8,0,0,0-.653-3.662,2.1,2.1,0,0,0-1.959-1.416,2.18,2.18,0,0,0-1.4.458,3.176,3.176,0,0,0-.916,1.239v6.653a2.776,2.776,0,0,0,.916,1.147,2.4,2.4,0,0,0,1.416.4A2.085,2.085,0,0,0-121.7-2.869a7.234,7.234,0,0,0,.647-3.32Zm10.547-4.7-1.074-.061a1.863,1.863,0,0,0-1.3.47,3.011,3.011,0,0,0-.8,1.324V0h-2.49V-13.208h2.283l.171,1.953a4.243,4.243,0,0,1,1.123-1.617,2.363,2.363,0,0,1,1.575-.58,2.087,2.087,0,0,1,.433.043,2.385,2.385,0,0,1,.36.1Zm6.567,11.4a4.613,4.613,0,0,1-3.864-1.807,7.464,7.464,0,0,1-1.4-4.7v-.574a7.748,7.748,0,0,1,1.392-4.767,4.335,4.335,0,0,1,3.638-1.862,4,4,0,0,1,3.436,1.6,7.089,7.089,0,0,1,1.178,4.3v1.392h-7.166A6.522,6.522,0,0,0-106-2.881a2.4,2.4,0,0,0,2.228,1.257,4.636,4.636,0,0,0,1.807-.323,4.62,4.62,0,0,0,1.416-.946l.806,1.538a5.264,5.264,0,0,1-1.74,1.147A6.181,6.181,0,0,1-103.943.256Zm-.232-11.8a1.943,1.943,0,0,0-1.709.995,5.927,5.927,0,0,0-.793,2.631H-102V-8.2a4.835,4.835,0,0,0-.531-2.417A1.763,1.763,0,0,0-104.175-11.548ZM-93.6-3.967-93.4-2.93h.073l.22-1.038,2.307-9.241h2.563L-92.261,0H-94.47l-4.053-13.208h2.588ZM-81.848.256A4.613,4.613,0,0,1-85.712-1.55a7.464,7.464,0,0,1-1.4-4.7v-.574a7.748,7.748,0,0,1,1.392-4.767,4.335,4.335,0,0,1,3.638-1.862,4,4,0,0,1,3.436,1.6,7.089,7.089,0,0,1,1.178,4.3v1.392h-7.166a6.522,6.522,0,0,0,.726,3.284,2.4,2.4,0,0,0,2.228,1.257,4.636,4.636,0,0,0,1.807-.323,4.62,4.62,0,0,0,1.416-.946l.806,1.538a5.264,5.264,0,0,1-1.74,1.147A6.181,6.181,0,0,1-81.848.256Zm-.232-11.8a1.943,1.943,0,0,0-1.709.995,5.927,5.927,0,0,0-.793,2.631h4.675V-8.2a4.835,4.835,0,0,0-.531-2.417A1.763,1.763,0,0,0-82.08-11.548Zm9.094-1.66.146,1.965a4.462,4.462,0,0,1,1.416-1.63,3.376,3.376,0,0,1,1.941-.58,3.245,3.245,0,0,1,2.74,1.294,6.67,6.67,0,0,1,.983,4.028V0h-2.478V-8.118a4.937,4.937,0,0,0-.519-2.637,1.764,1.764,0,0,0-1.569-.769,2.417,2.417,0,0,0-1.465.446,3.119,3.119,0,0,0-.977,1.227V0h-2.49V-13.208Zm13.245-3.284v3.284h2.063v1.77h-2.063v7.861a2.579,2.579,0,0,0,.311,1.459.967.967,0,0,0,.824.433,1.99,1.99,0,0,0,.391-.037q.183-.037.427-.11l.256,1.709a3.891,3.891,0,0,1-.787.275,3.84,3.84,0,0,1-.9.1,2.774,2.774,0,0,1-2.222-.922,4.406,4.406,0,0,1-.793-2.911v-7.861h-1.746v-1.77h1.746v-3.284Zm6.763,16.2-1.587,3.6h-1.587l.732-3.687V-2.637h2.441Zm10.364-12.915.134,1.794a4.108,4.108,0,0,1,1.4-1.508,3.638,3.638,0,0,1,1.971-.531,3.085,3.085,0,0,1,1.9.6A3.614,3.614,0,0,1-36-11.011a4.51,4.51,0,0,1,1.4-1.794,3.359,3.359,0,0,1,2.057-.647,3.128,3.128,0,0,1,2.7,1.4A7.44,7.44,0,0,1-28.857-7.8V0h-2.49V-7.812A5.834,5.834,0,0,0-31.86-10.7a1.682,1.682,0,0,0-1.526-.824,1.865,1.865,0,0,0-1.434.635,3.869,3.869,0,0,0-.848,1.672q.012.22.024.458t.012.482V0H-38.11V-7.812a5.744,5.744,0,0,0-.525-2.85,1.683,1.683,0,0,0-1.526-.861,2.151,2.151,0,0,0-1.367.439,2.9,2.9,0,0,0-.879,1.208V0H-44.9V-13.208ZM-23.352,0h-2.49V-13.208h2.49Zm0-16.675h-2.49v-2.368h2.49Zm5.273,3.467.146,1.965a4.462,4.462,0,0,1,1.416-1.63,3.376,3.376,0,0,1,1.941-.58,3.245,3.245,0,0,1,2.74,1.294,6.67,6.67,0,0,1,.983,4.028V0H-13.33V-8.118a4.937,4.937,0,0,0-.519-2.637,1.764,1.764,0,0,0-1.569-.769,2.417,2.417,0,0,0-1.465.446,3.119,3.119,0,0,0-.977,1.227V0h-2.49V-13.208ZM-5.371,0h-2.49V-13.208h2.49Zm0-16.675h-2.49v-2.368h2.49Zm5.3,3.467.134,1.794a4.108,4.108,0,0,1,1.4-1.508,3.638,3.638,0,0,1,1.971-.531,3.085,3.085,0,0,1,1.9.6,3.614,3.614,0,0,1,1.208,1.837,4.51,4.51,0,0,1,1.4-1.794A3.359,3.359,0,0,1,10-13.452a3.128,3.128,0,0,1,2.7,1.4A7.44,7.44,0,0,1,13.684-7.8V0h-2.49V-7.812a5.834,5.834,0,0,0-.513-2.887,1.682,1.682,0,0,0-1.526-.824,1.865,1.865,0,0,0-1.434.635,3.869,3.869,0,0,0-.848,1.672q.012.22.024.458t.012.482V0H4.431V-7.812a5.744,5.744,0,0,0-.525-2.85,1.683,1.683,0,0,0-1.526-.861,2.151,2.151,0,0,0-1.367.439A2.9,2.9,0,0,0,.134-9.875V0h-2.49V-13.208ZM19.189,0H16.7V-13.208h2.49Zm0-16.675H16.7v-2.368h2.49ZM24.536-1.88h6.433V0H21.753V-1.562l6.091-9.729H21.887v-1.917h8.8v1.538ZM37.817.256A4.613,4.613,0,0,1,33.954-1.55a7.464,7.464,0,0,1-1.4-4.7v-.574a7.748,7.748,0,0,1,1.392-4.767,4.335,4.335,0,0,1,3.638-1.862,4,4,0,0,1,3.436,1.6,7.089,7.089,0,0,1,1.178,4.3v1.392H35.034a6.522,6.522,0,0,0,.726,3.284,2.4,2.4,0,0,0,2.228,1.257,4.636,4.636,0,0,0,1.807-.323,4.62,4.62,0,0,0,1.416-.946l.806,1.538a5.264,5.264,0,0,1-1.74,1.147A6.181,6.181,0,0,1,37.817.256Zm-.232-11.8a1.943,1.943,0,0,0-1.709.995,5.927,5.927,0,0,0-.793,2.631h4.675V-8.2a4.835,4.835,0,0,0-.531-2.417A1.763,1.763,0,0,0,37.585-11.548ZM56.787,0q-.159-.6-.25-1.068A6.729,6.729,0,0,1,56.421-2,4.85,4.85,0,0,1,55.035-.385a3.2,3.2,0,0,1-1.959.641A3.468,3.468,0,0,1,50.36-.793a4.127,4.127,0,0,1-.946-2.869A3.6,3.6,0,0,1,50.726-6.6a5.617,5.617,0,0,1,3.656-1.074h2.026V-9.033a2.964,2.964,0,0,0-.537-1.886,1.848,1.848,0,0,0-1.538-.677,1.84,1.84,0,0,0-1.434.586,2.15,2.15,0,0,0-.531,1.5L50-9.5l-.024-.073a3.356,3.356,0,0,1,1.2-2.71,4.7,4.7,0,0,1,3.32-1.172A4.449,4.449,0,0,1,57.678-12.3,4.309,4.309,0,0,1,58.9-9.009v6.128A10.847,10.847,0,0,0,59-1.41,9.367,9.367,0,0,0,59.3,0Zm-3.2-1.648a2.782,2.782,0,0,0,1.794-.629A2.911,2.911,0,0,0,56.409-3.8V-6.14H54.346a2.279,2.279,0,0,0-1.794.726A2.542,2.542,0,0,0,51.9-3.662,2.277,2.277,0,0,0,52.344-2.2,1.5,1.5,0,0,0,53.589-1.648Zm10.388-11.56.146,1.965a4.462,4.462,0,0,1,1.416-1.63,3.376,3.376,0,0,1,1.941-.58,3.245,3.245,0,0,1,2.74,1.294A6.67,6.67,0,0,1,71.2-8.13V0H68.726V-8.118a4.937,4.937,0,0,0-.519-2.637,1.764,1.764,0,0,0-1.569-.769,2.417,2.417,0,0,0-1.465.446A3.119,3.119,0,0,0,64.2-9.851V0h-2.49V-13.208Zm9.595,6.763a9.762,9.762,0,0,1,1.16-5.09,3.623,3.623,0,0,1,3.259-1.917,3.362,3.362,0,0,1,1.685.421,3.823,3.823,0,0,1,1.282,1.215v-7.227h2.478V0H81.384l-.256-1.587A3.917,3.917,0,0,1,79.785-.214a3.5,3.5,0,0,1-1.819.47,3.661,3.661,0,0,1-3.241-1.764,8.439,8.439,0,0,1-1.154-4.681Zm2.466.256a7.356,7.356,0,0,0,.623,3.3A2.047,2.047,0,0,0,78.6-1.66a2.266,2.266,0,0,0,1.41-.439,3.163,3.163,0,0,0,.946-1.245v-6.4a3.5,3.5,0,0,0-.952-1.3,2.121,2.121,0,0,0-1.392-.482,2.057,2.057,0,0,0-1.947,1.41,9.087,9.087,0,0,0-.629,3.668ZM96.423-1.624a1.95,1.95,0,0,0,1.532-.708,2.818,2.818,0,0,0,.616-1.917h2.234l.024.073a4.081,4.081,0,0,1-1.257,3.149A4.334,4.334,0,0,1,96.423.256a4.362,4.362,0,0,1-3.772-1.862A7.981,7.981,0,0,1,91.321-6.36v-.464a8.015,8.015,0,0,1,1.331-4.755,4.353,4.353,0,0,1,3.772-1.874,4.185,4.185,0,0,1,3.217,1.337,4.778,4.778,0,0,1,1.2,3.473l-.024.061H98.572a3.587,3.587,0,0,0-.592-2.142,1.831,1.831,0,0,0-1.556-.824,2.079,2.079,0,0,0-2.008,1.343A8.114,8.114,0,0,0,93.8-6.824v.464a8.2,8.2,0,0,0,.61,3.406A2.076,2.076,0,0,0,96.423-1.624Zm6.226-5.127a7.893,7.893,0,0,1,1.392-4.822,4.5,4.5,0,0,1,3.821-1.88,4.511,4.511,0,0,1,3.827,1.88,7.869,7.869,0,0,1,1.4,4.822v.33a7.833,7.833,0,0,1-1.392,4.816A4.5,4.5,0,0,1,107.886.256a4.534,4.534,0,0,1-3.845-1.862,7.833,7.833,0,0,1-1.392-4.816Zm2.49.33a7.667,7.667,0,0,0,.677,3.455,2.2,2.2,0,0,0,2.069,1.343,2.17,2.17,0,0,0,2.032-1.349,7.675,7.675,0,0,0,.677-3.448v-.33a7.632,7.632,0,0,0-.684-3.436,2.19,2.19,0,0,0-2.051-1.361,2.178,2.178,0,0,0-2.045,1.361,7.691,7.691,0,0,0-.677,3.436ZM117.7-13.208l.146,1.965a4.462,4.462,0,0,1,1.416-1.63,3.376,3.376,0,0,1,1.941-.58,3.245,3.245,0,0,1,2.74,1.294,6.67,6.67,0,0,1,.983,4.028V0h-2.478V-8.118a4.937,4.937,0,0,0-.519-2.637,1.764,1.764,0,0,0-1.569-.769,2.417,2.417,0,0,0-1.465.446,3.119,3.119,0,0,0-.977,1.227V0h-2.49V-13.208Zm13.245-3.284v3.284h2.063v1.77h-2.063v7.861a2.579,2.579,0,0,0,.311,1.459.967.967,0,0,0,.824.433,1.99,1.99,0,0,0,.391-.037q.183-.037.427-.11l.256,1.709a3.891,3.891,0,0,1-.787.275,3.84,3.84,0,0,1-.9.1,2.774,2.774,0,0,1-2.222-.922,4.406,4.406,0,0,1-.793-2.911v-7.861h-1.746v-1.77h1.746v-3.284Zm9.973,5.347-1.074-.061a1.864,1.864,0,0,0-1.3.47,3.011,3.011,0,0,0-.8,1.324V0h-2.49V-13.208h2.283l.171,1.953a4.243,4.243,0,0,1,1.123-1.617,2.363,2.363,0,0,1,1.575-.58,2.087,2.087,0,0,1,.433.043,2.385,2.385,0,0,1,.36.1ZM142.2-6.75a7.893,7.893,0,0,1,1.392-4.822,4.5,4.5,0,0,1,3.821-1.88,4.511,4.511,0,0,1,3.827,1.88,7.869,7.869,0,0,1,1.4,4.822v.33a7.833,7.833,0,0,1-1.392,4.816A4.5,4.5,0,0,1,147.437.256a4.534,4.534,0,0,1-3.845-1.862A7.833,7.833,0,0,1,142.2-6.421Zm2.49.33a7.667,7.667,0,0,0,.677,3.455,2.2,2.2,0,0,0,2.069,1.343,2.17,2.17,0,0,0,2.032-1.349,7.675,7.675,0,0,0,.677-3.448v-.33a7.632,7.632,0,0,0-.684-3.436,2.19,2.19,0,0,0-2.051-1.361,2.178,2.178,0,0,0-2.045,1.361,7.691,7.691,0,0,0-.677,3.436ZM157.654,0h-2.49V-19.043h2.49ZM-116.974,13.508v3.284h2.063v1.77h-2.063v7.861a2.579,2.579,0,0,0,.311,1.459.967.967,0,0,0,.824.433,1.99,1.99,0,0,0,.391-.037q.183-.037.427-.11l.256,1.709a3.891,3.891,0,0,1-.787.275,3.84,3.84,0,0,1-.9.1,2.774,2.774,0,0,1-2.222-.922,4.406,4.406,0,0,1-.793-2.911V18.562h-1.746v-1.77h1.746V13.508Zm6.763,5.054a4.377,4.377,0,0,1,1.379-1.483A3.29,3.29,0,0,1-107,16.548a3.343,3.343,0,0,1,2.808,1.318,6.63,6.63,0,0,1,1.013,4.053V30h-2.49V21.895a4.941,4.941,0,0,0-.525-2.618,1.735,1.735,0,0,0-1.55-.8,2.571,2.571,0,0,0-1.471.415,3,3,0,0,0-.995,1.16V30h-2.49V10.957h2.49Zm14.624,11.694a4.613,4.613,0,0,1-3.864-1.807,7.464,7.464,0,0,1-1.4-4.7v-.574a7.748,7.748,0,0,1,1.392-4.767,4.335,4.335,0,0,1,3.638-1.862,4,4,0,0,1,3.436,1.6,7.089,7.089,0,0,1,1.178,4.3v1.392H-98.37a6.522,6.522,0,0,0,.726,3.284,2.4,2.4,0,0,0,2.228,1.257,4.636,4.636,0,0,0,1.807-.323,4.62,4.62,0,0,0,1.416-.946l.806,1.538a5.264,5.264,0,0,1-1.74,1.147A6.181,6.181,0,0,1-95.587,30.256Zm-.232-11.8a1.943,1.943,0,0,0-1.709.995,5.927,5.927,0,0,0-.793,2.631h4.675V21.8a4.835,4.835,0,0,0-.531-2.417A1.763,1.763,0,0,0-95.819,18.452Zm18.005.4-1.074-.061a1.863,1.863,0,0,0-1.3.47,3.011,3.011,0,0,0-.8,1.324V30h-2.49V16.792H-81.2l.171,1.953A4.243,4.243,0,0,1-79.9,17.128a2.363,2.363,0,0,1,1.575-.58,2.087,2.087,0,0,1,.433.043,2.385,2.385,0,0,1,.36.1ZM-73.138,30h-2.49V16.792h2.49Zm0-16.675h-2.49V10.957h2.49Zm9.29,13.342a1.759,1.759,0,0,0-.513-1.288,6.861,6.861,0,0,0-1.965-1.166,9.854,9.854,0,0,1-3.052-1.672,2.967,2.967,0,0,1-1.013-2.319,3.335,3.335,0,0,1,1.227-2.6,4.669,4.669,0,0,1,3.192-1.074,4.582,4.582,0,0,1,3.284,1.178,3.624,3.624,0,0,1,1.2,2.85l-.024.073H-63.91a2.47,2.47,0,0,0-.555-1.617,1.846,1.846,0,0,0-1.508-.677,2,2,0,0,0-1.483.531,1.7,1.7,0,0,0-.531,1.239,1.56,1.56,0,0,0,.458,1.19,8.089,8.089,0,0,0,1.959,1.117,9.023,9.023,0,0,1,3.119,1.7,3.153,3.153,0,0,1,1.044,2.417,3.3,3.3,0,0,1-1.263,2.679,5.075,5.075,0,0,1-3.314,1.031,4.807,4.807,0,0,1-3.5-1.239,3.713,3.713,0,0,1-1.215-2.9l.024-.073h2.307a2.413,2.413,0,0,0,.726,1.849,2.543,2.543,0,0,0,1.691.568,2.207,2.207,0,0,0,1.544-.507A1.667,1.667,0,0,0-63.849,26.667Zm8.167-2.722h-.928V30h-2.478V10.957h2.478v11.1h.867l3.174-5.261h2.917L-53.693,22.8l4.48,7.2h-2.893Zm12.964-.7a7.893,7.893,0,0,1,1.392-4.822,4.5,4.5,0,0,1,3.821-1.88,4.511,4.511,0,0,1,3.827,1.88,7.869,7.869,0,0,1,1.4,4.822v.33a7.833,7.833,0,0,1-1.392,4.816,4.5,4.5,0,0,1-3.809,1.862,4.534,4.534,0,0,1-3.845-1.862,7.833,7.833,0,0,1-1.392-4.816Zm2.49.33a7.667,7.667,0,0,0,.677,3.455,2.2,2.2,0,0,0,2.069,1.343,2.17,2.17,0,0,0,2.032-1.349,7.675,7.675,0,0,0,.677-3.448v-.33a7.632,7.632,0,0,0-.684-3.436,2.19,2.19,0,0,0-2.051-1.361,2.178,2.178,0,0,0-2.045,1.361,7.691,7.691,0,0,0-.677,3.436ZM-29.083,30V18.562h-1.746v-1.77h1.746V15.1a4.728,4.728,0,0,1,1.019-3.247,3.614,3.614,0,0,1,2.85-1.147,4.361,4.361,0,0,1,.751.067q.385.067.836.189l-.232,1.819a4.318,4.318,0,0,0-.488-.1,3.984,3.984,0,0,0-.562-.037,1.434,1.434,0,0,0-1.263.635,3.212,3.212,0,0,0-.433,1.819v1.7h2.185v1.77h-2.185V30Zm16.87.256a4.613,4.613,0,0,1-3.864-1.807,7.464,7.464,0,0,1-1.4-4.7v-.574a7.748,7.748,0,0,1,1.392-4.767,4.335,4.335,0,0,1,3.638-1.862,4,4,0,0,1,3.436,1.6,7.089,7.089,0,0,1,1.178,4.3v1.392H-15a6.522,6.522,0,0,0,.726,3.284,2.4,2.4,0,0,0,2.228,1.257,4.636,4.636,0,0,0,1.807-.323,4.62,4.62,0,0,0,1.416-.946l.806,1.538a5.264,5.264,0,0,1-1.74,1.147A6.181,6.181,0,0,1-12.213,30.256Zm-.232-11.8a1.943,1.943,0,0,0-1.709.995,5.927,5.927,0,0,0-.793,2.631h4.675V21.8A4.835,4.835,0,0,0-10.8,19.38,1.763,1.763,0,0,0-12.445,18.452Zm9.094-1.66.146,1.965a4.462,4.462,0,0,1,1.416-1.63,3.376,3.376,0,0,1,1.941-.58,3.245,3.245,0,0,1,2.74,1.294,6.67,6.67,0,0,1,.983,4.028V30H1.4V21.882a4.937,4.937,0,0,0-.519-2.637A1.764,1.764,0,0,0-.69,18.477a2.417,2.417,0,0,0-1.465.446,3.119,3.119,0,0,0-.977,1.227V30h-2.49V16.792Zm13.94,9.241L10.8,27.07h.073l.22-1.038L13.4,16.792h2.563L11.932,30H9.723L5.67,16.792H8.258ZM20.38,30h-2.49V16.792h2.49Zm0-16.675h-2.49V10.957h2.49Zm8.691,5.53L28,18.794a1.864,1.864,0,0,0-1.3.47,3.011,3.011,0,0,0-.8,1.324V30h-2.49V16.792H25.69l.171,1.953a4.243,4.243,0,0,1,1.123-1.617,2.363,2.363,0,0,1,1.575-.58,2.087,2.087,0,0,1,.433.043,2.385,2.385,0,0,1,.36.1Zm1.282,4.395a7.893,7.893,0,0,1,1.392-4.822,4.829,4.829,0,0,1,7.648,0,7.869,7.869,0,0,1,1.4,4.822v.33A7.833,7.833,0,0,1,39.4,28.395a4.864,4.864,0,0,1-7.654,0,7.833,7.833,0,0,1-1.392-4.816Zm2.49.33a7.667,7.667,0,0,0,.677,3.455,2.2,2.2,0,0,0,2.069,1.343,2.17,2.17,0,0,0,2.032-1.349,7.675,7.675,0,0,0,.677-3.448v-.33a7.632,7.632,0,0,0-.684-3.436,2.221,2.221,0,0,0-4.1,0,7.691,7.691,0,0,0-.677,3.436ZM45.4,16.792l.146,1.965a4.462,4.462,0,0,1,1.416-1.63,3.376,3.376,0,0,1,1.941-.58,3.245,3.245,0,0,1,2.74,1.294,6.67,6.67,0,0,1,.983,4.028V30H50.153V21.882a4.937,4.937,0,0,0-.519-2.637,1.764,1.764,0,0,0-1.569-.769,2.417,2.417,0,0,0-1.465.446,3.119,3.119,0,0,0-.977,1.227V30h-2.49V16.792Zm12.329,0,.134,1.794a4.108,4.108,0,0,1,1.4-1.508,3.638,3.638,0,0,1,1.971-.531,3.085,3.085,0,0,1,1.9.6,3.614,3.614,0,0,1,1.208,1.837,4.51,4.51,0,0,1,1.4-1.794,3.359,3.359,0,0,1,2.057-.647,3.128,3.128,0,0,1,2.7,1.4A7.44,7.44,0,0,1,71.49,22.2V30H69V22.188a5.834,5.834,0,0,0-.513-2.887,1.682,1.682,0,0,0-1.526-.824,1.865,1.865,0,0,0-1.434.635,3.869,3.869,0,0,0-.848,1.672q.012.22.024.458t.012.482V30H62.238V22.188a5.744,5.744,0,0,0-.525-2.85,1.683,1.683,0,0,0-1.526-.861,2.151,2.151,0,0,0-1.367.439,2.9,2.9,0,0,0-.879,1.208V30H55.45V16.792ZM79.12,30.256a4.613,4.613,0,0,1-3.864-1.807,7.464,7.464,0,0,1-1.4-4.7v-.574a7.748,7.748,0,0,1,1.392-4.767,4.335,4.335,0,0,1,3.638-1.862,4,4,0,0,1,3.436,1.6,7.089,7.089,0,0,1,1.178,4.3v1.392H76.337a6.522,6.522,0,0,0,.726,3.284,2.4,2.4,0,0,0,2.228,1.257,4.327,4.327,0,0,0,3.223-1.27l.806,1.538a5.264,5.264,0,0,1-1.74,1.147A6.181,6.181,0,0,1,79.12,30.256Zm-.232-11.8a1.943,1.943,0,0,0-1.709.995,5.927,5.927,0,0,0-.793,2.631h4.675V21.8a4.835,4.835,0,0,0-.531-2.417A1.763,1.763,0,0,0,78.888,18.452Zm9.094-1.66.146,1.965a4.462,4.462,0,0,1,1.416-1.63,3.376,3.376,0,0,1,1.941-.58,3.245,3.245,0,0,1,2.74,1.294,6.67,6.67,0,0,1,.983,4.028V30H92.731V21.882a4.937,4.937,0,0,0-.519-2.637,1.764,1.764,0,0,0-1.569-.769,2.417,2.417,0,0,0-1.465.446,3.119,3.119,0,0,0-.977,1.227V30h-2.49V16.792Zm13.245-3.284v3.284h2.063v1.77h-2.063v7.861a2.579,2.579,0,0,0,.311,1.459.967.967,0,0,0,.824.433,1.99,1.99,0,0,0,.391-.037q.183-.037.427-.11l.256,1.709a3.891,3.891,0,0,1-.787.275,3.84,3.84,0,0,1-.9.1,2.774,2.774,0,0,1-2.222-.922,4.406,4.406,0,0,1-.793-2.911V18.562H96.991v-1.77h1.746V13.508ZM112.4,30q-.159-.6-.25-1.068A6.729,6.729,0,0,1,112.03,28a4.85,4.85,0,0,1-1.385,1.617,3.2,3.2,0,0,1-1.959.641,3.468,3.468,0,0,1-2.716-1.05,4.127,4.127,0,0,1-.946-2.869,3.6,3.6,0,0,1,1.312-2.942,5.617,5.617,0,0,1,3.656-1.074h2.026V20.967a2.964,2.964,0,0,0-.537-1.886,2.067,2.067,0,0,0-2.972-.092,2.15,2.15,0,0,0-.531,1.5l-2.368.012-.024-.073a3.356,3.356,0,0,1,1.2-2.71,4.7,4.7,0,0,1,3.32-1.172,4.449,4.449,0,0,1,3.186,1.154,4.309,4.309,0,0,1,1.221,3.29v6.128a10.848,10.848,0,0,0,.1,1.471,9.367,9.367,0,0,0,.305,1.41Zm-3.2-1.648a2.782,2.782,0,0,0,1.794-.629,2.911,2.911,0,0,0,1.025-1.52V23.86h-2.063a2.279,2.279,0,0,0-1.794.726,2.542,2.542,0,0,0-.647,1.752,2.277,2.277,0,0,0,.439,1.465A1.5,1.5,0,0,0,109.2,28.352ZM119.989,30H117.5V10.957h2.49ZM-140.894,48.562a4.377,4.377,0,0,1,1.379-1.483,3.29,3.29,0,0,1,1.831-.531,3.343,3.343,0,0,1,2.808,1.318,6.63,6.63,0,0,1,1.013,4.053V60h-2.49V51.895a4.941,4.941,0,0,0-.525-2.618,1.735,1.735,0,0,0-1.55-.8,2.571,2.571,0,0,0-1.471.415,3,3,0,0,0-.995,1.16V60h-2.49V40.957h2.49ZM-124.182,60q-.159-.6-.25-1.068a6.729,6.729,0,0,1-.116-.934,4.85,4.85,0,0,1-1.385,1.617,3.2,3.2,0,0,1-1.959.641,3.468,3.468,0,0,1-2.716-1.05,4.127,4.127,0,0,1-.946-2.869,3.6,3.6,0,0,1,1.312-2.942,5.617,5.617,0,0,1,3.656-1.074h2.026V50.967a2.964,2.964,0,0,0-.537-1.886,1.848,1.848,0,0,0-1.538-.677,1.84,1.84,0,0,0-1.434.586,2.15,2.15,0,0,0-.531,1.5l-2.368.012-.024-.073a3.356,3.356,0,0,1,1.2-2.71,4.7,4.7,0,0,1,3.32-1.172,4.449,4.449,0,0,1,3.186,1.154,4.309,4.309,0,0,1,1.221,3.29v6.128a10.848,10.848,0,0,0,.1,1.471,9.367,9.367,0,0,0,.305,1.41Zm-3.2-1.648a2.782,2.782,0,0,0,1.794-.629,2.911,2.911,0,0,0,1.025-1.52V53.86h-2.063a2.279,2.279,0,0,0-1.794.726,2.542,2.542,0,0,0-.647,1.752,2.277,2.277,0,0,0,.439,1.465A1.5,1.5,0,0,0-127.38,58.352Zm10.461-.232h6.433V60H-119.7V58.438l6.091-9.729h-5.957V46.792h8.8V48.33ZM-101.355,60q-.159-.6-.25-1.068a6.729,6.729,0,0,1-.116-.934,4.85,4.85,0,0,1-1.385,1.617,3.2,3.2,0,0,1-1.959.641,3.468,3.468,0,0,1-2.716-1.05,4.127,4.127,0,0,1-.946-2.869,3.6,3.6,0,0,1,1.312-2.942,5.617,5.617,0,0,1,3.656-1.074h2.026V50.967a2.964,2.964,0,0,0-.537-1.886,1.848,1.848,0,0,0-1.538-.677,1.84,1.84,0,0,0-1.434.586,2.15,2.15,0,0,0-.531,1.5l-2.368.012-.024-.073a3.356,3.356,0,0,1,1.2-2.71,4.7,4.7,0,0,1,3.32-1.172,4.449,4.449,0,0,1,3.186,1.154,4.309,4.309,0,0,1,1.221,3.29v6.128a10.848,10.848,0,0,0,.1,1.471A9.367,9.367,0,0,0-98.84,60Zm-3.2-1.648a2.782,2.782,0,0,0,1.794-.629,2.911,2.911,0,0,0,1.025-1.52V53.86H-103.8a2.279,2.279,0,0,0-1.794.726,2.542,2.542,0,0,0-.647,1.752A2.277,2.277,0,0,0-105.8,57.8,1.5,1.5,0,0,0-104.553,58.352Zm13.806-9.5-1.074-.061a1.863,1.863,0,0,0-1.3.47,3.011,3.011,0,0,0-.8,1.324V60h-2.49V46.792h2.283l.171,1.953a4.243,4.243,0,0,1,1.123-1.617,2.363,2.363,0,0,1,1.575-.58,2.087,2.087,0,0,1,.433.043,2.385,2.385,0,0,1,.36.1Zm1.331,4.7a9.762,9.762,0,0,1,1.16-5.09A3.623,3.623,0,0,1-85,46.548a3.362,3.362,0,0,1,1.685.421,3.823,3.823,0,0,1,1.282,1.215V40.957h2.478V60H-81.6l-.256-1.587A3.917,3.917,0,0,1-83.2,59.786a3.5,3.5,0,0,1-1.819.47,3.661,3.661,0,0,1-3.241-1.764,8.439,8.439,0,0,1-1.154-4.681Zm2.466.256a7.356,7.356,0,0,0,.623,3.3,2.047,2.047,0,0,0,1.941,1.227,2.266,2.266,0,0,0,1.41-.439,3.163,3.163,0,0,0,.946-1.245v-6.4a3.5,3.5,0,0,0-.952-1.3,2.121,2.121,0,0,0-1.392-.482,2.057,2.057,0,0,0-1.947,1.41,9.087,9.087,0,0,0-.629,3.668Zm16.565,2.856A1.759,1.759,0,0,0-70.9,55.38a6.861,6.861,0,0,0-1.965-1.166,9.854,9.854,0,0,1-3.052-1.672,2.967,2.967,0,0,1-1.013-2.319,3.335,3.335,0,0,1,1.227-2.6,4.669,4.669,0,0,1,3.192-1.074,4.582,4.582,0,0,1,3.284,1.178,3.624,3.624,0,0,1,1.2,2.85l-.024.073h-2.393A2.47,2.47,0,0,0-71,49.032a1.846,1.846,0,0,0-1.508-.677,2,2,0,0,0-1.483.531,1.7,1.7,0,0,0-.531,1.239,1.56,1.56,0,0,0,.458,1.19,8.089,8.089,0,0,0,1.959,1.117,9.024,9.024,0,0,1,3.119,1.7,3.153,3.153,0,0,1,1.044,2.417,3.3,3.3,0,0,1-1.263,2.679,5.075,5.075,0,0,1-3.314,1.031,4.807,4.807,0,0,1-3.5-1.239,3.713,3.713,0,0,1-1.215-2.9l.024-.073H-74.9a2.413,2.413,0,0,0,.726,1.849,2.543,2.543,0,0,0,1.691.568,2.207,2.207,0,0,0,1.544-.507A1.667,1.667,0,0,0-70.386,56.667ZM-53.284,60q-.159-.6-.25-1.068A6.729,6.729,0,0,1-53.65,58a4.85,4.85,0,0,1-1.385,1.617,3.2,3.2,0,0,1-1.959.641,3.468,3.468,0,0,1-2.716-1.05,4.127,4.127,0,0,1-.946-2.869A3.6,3.6,0,0,1-59.344,53.4a5.617,5.617,0,0,1,3.656-1.074h2.026V50.967a2.964,2.964,0,0,0-.537-1.886,1.848,1.848,0,0,0-1.538-.677,1.84,1.84,0,0,0-1.434.586,2.15,2.15,0,0,0-.531,1.5l-2.368.012-.024-.073a3.356,3.356,0,0,1,1.2-2.71,4.7,4.7,0,0,1,3.32-1.172A4.449,4.449,0,0,1-52.393,47.7a4.309,4.309,0,0,1,1.221,3.29v6.128a10.847,10.847,0,0,0,.1,1.471A9.367,9.367,0,0,0-50.769,60Zm-3.2-1.648a2.782,2.782,0,0,0,1.794-.629,2.911,2.911,0,0,0,1.025-1.52V53.86h-2.063a2.279,2.279,0,0,0-1.794.726,2.542,2.542,0,0,0-.647,1.752,2.277,2.277,0,0,0,.439,1.465A1.5,1.5,0,0,0-56.482,58.352Zm10.388-11.56.146,1.965a4.462,4.462,0,0,1,1.416-1.63,3.376,3.376,0,0,1,1.941-.58,3.245,3.245,0,0,1,2.74,1.294,6.67,6.67,0,0,1,.983,4.028V60h-2.478V51.882a4.937,4.937,0,0,0-.519-2.637,1.764,1.764,0,0,0-1.569-.769,2.417,2.417,0,0,0-1.465.446,3.119,3.119,0,0,0-.977,1.227V60h-2.49V46.792Zm9.595,6.763a9.762,9.762,0,0,1,1.16-5.09,3.623,3.623,0,0,1,3.259-1.917,3.361,3.361,0,0,1,1.685.421,3.823,3.823,0,0,1,1.282,1.215V40.957h2.478V60h-2.051l-.256-1.587a3.917,3.917,0,0,1-1.343,1.373,3.5,3.5,0,0,1-1.819.47,3.661,3.661,0,0,1-3.241-1.764A8.439,8.439,0,0,1-36.5,53.811Zm2.466.256a7.356,7.356,0,0,0,.623,3.3A2.047,2.047,0,0,0-31.47,58.34a2.266,2.266,0,0,0,1.41-.439,3.163,3.163,0,0,0,.946-1.245v-6.4a3.5,3.5,0,0,0-.952-1.3,2.121,2.121,0,0,0-1.392-.482,2.057,2.057,0,0,0-1.947,1.41,9.087,9.087,0,0,0-.629,3.668Zm25.708,0A8.364,8.364,0,0,1-9.491,58.5a3.693,3.693,0,0,1-3.253,1.758,3.737,3.737,0,0,1-1.727-.385,3.512,3.512,0,0,1-1.276-1.129v6.335h-2.49V46.792h2.112l.232,1.587a3.887,3.887,0,0,1,1.318-1.361,3.46,3.46,0,0,1,1.819-.47,3.637,3.637,0,0,1,3.265,1.917,9.72,9.72,0,0,1,1.166,5.09Zm-2.49-.256a8.8,8.8,0,0,0-.653-3.662,2.1,2.1,0,0,0-1.959-1.416,2.18,2.18,0,0,0-1.4.458,3.175,3.175,0,0,0-.916,1.239v6.653a2.776,2.776,0,0,0,.916,1.147,2.4,2.4,0,0,0,1.416.4,2.085,2.085,0,0,0,1.953-1.245,7.234,7.234,0,0,0,.647-3.32Zm10.547-4.7-1.074-.061a1.863,1.863,0,0,0-1.3.47,3.011,3.011,0,0,0-.8,1.324V60h-2.49V46.792H-3.65l.171,1.953a4.243,4.243,0,0,1,1.123-1.617,2.363,2.363,0,0,1,1.575-.58,2.087,2.087,0,0,1,.433.043,2.385,2.385,0,0,1,.36.1ZM1.013,53.25A7.893,7.893,0,0,1,2.4,48.428a4.5,4.5,0,0,1,3.821-1.88,4.511,4.511,0,0,1,3.827,1.88,7.869,7.869,0,0,1,1.4,4.822v.33a7.833,7.833,0,0,1-1.392,4.816A4.5,4.5,0,0,1,6.25,60.256,4.534,4.534,0,0,1,2.4,58.395a7.833,7.833,0,0,1-1.392-4.816Zm2.49.33a7.667,7.667,0,0,0,.677,3.455A2.2,2.2,0,0,0,6.25,58.376a2.17,2.17,0,0,0,2.032-1.349,7.675,7.675,0,0,0,.677-3.448v-.33a7.632,7.632,0,0,0-.684-3.436,2.221,2.221,0,0,0-4.1,0A7.691,7.691,0,0,0,3.5,53.25Zm12.585-6.787.134,1.794a4.108,4.108,0,0,1,1.4-1.508,3.638,3.638,0,0,1,1.971-.531,3.085,3.085,0,0,1,1.9.6,3.614,3.614,0,0,1,1.208,1.837,4.51,4.51,0,0,1,1.4-1.794,3.359,3.359,0,0,1,2.057-.647,3.128,3.128,0,0,1,2.7,1.4,7.44,7.44,0,0,1,.983,4.254V60h-2.49V52.188a5.834,5.834,0,0,0-.513-2.887,1.682,1.682,0,0,0-1.526-.824,1.865,1.865,0,0,0-1.434.635,3.868,3.868,0,0,0-.848,1.672q.012.22.024.458t.012.482V60H20.593V52.188a5.744,5.744,0,0,0-.525-2.85,1.683,1.683,0,0,0-1.526-.861,2.151,2.151,0,0,0-1.367.439,2.9,2.9,0,0,0-.879,1.208V60h-2.49V46.792ZM32.2,53.25a7.893,7.893,0,0,1,1.392-4.822,4.829,4.829,0,0,1,7.648,0,7.869,7.869,0,0,1,1.4,4.822v.33a7.833,7.833,0,0,1-1.392,4.816,4.864,4.864,0,0,1-7.654,0A7.833,7.833,0,0,1,32.2,53.579Zm2.49.33a7.667,7.667,0,0,0,.677,3.455,2.2,2.2,0,0,0,2.069,1.343,2.17,2.17,0,0,0,2.032-1.349,7.675,7.675,0,0,0,.677-3.448v-.33a7.632,7.632,0,0,0-.684-3.436,2.221,2.221,0,0,0-4.1,0,7.691,7.691,0,0,0-.677,3.436Zm13.5-10.071v3.284h2.063v1.77H48.193v7.861a2.579,2.579,0,0,0,.311,1.459.967.967,0,0,0,.824.433,1.99,1.99,0,0,0,.391-.037q.183-.037.427-.11l.256,1.709a3.891,3.891,0,0,1-.787.275,3.84,3.84,0,0,1-.9.1,2.774,2.774,0,0,1-2.222-.922,4.406,4.406,0,0,1-.793-2.911V48.562H43.958v-1.77H45.7V43.508Zm9.082,16.748a4.613,4.613,0,0,1-3.864-1.807,7.464,7.464,0,0,1-1.4-4.7v-.574a7.748,7.748,0,0,1,1.392-4.767,4.335,4.335,0,0,1,3.638-1.862,4,4,0,0,1,3.436,1.6,7.089,7.089,0,0,1,1.178,4.3v1.392H54.492a6.522,6.522,0,0,0,.726,3.284,2.4,2.4,0,0,0,2.228,1.257,4.327,4.327,0,0,0,3.223-1.27l.806,1.538a5.264,5.264,0,0,1-1.74,1.147A6.181,6.181,0,0,1,57.275,60.256Zm-.232-11.8a1.943,1.943,0,0,0-1.709.995,5.927,5.927,0,0,0-.793,2.631h4.675V51.8a4.835,4.835,0,0,0-.531-2.417A1.763,1.763,0,0,0,57.043,48.452Zm15.527-4.944v3.284h2.063v1.77H72.571v7.861a2.579,2.579,0,0,0,.311,1.459.967.967,0,0,0,.824.433,1.99,1.99,0,0,0,.391-.037q.183-.037.427-.11l.256,1.709a3.891,3.891,0,0,1-.787.275,3.84,3.84,0,0,1-.9.1,2.774,2.774,0,0,1-2.222-.922,4.406,4.406,0,0,1-.793-2.911V48.562H68.335v-1.77h1.746V43.508Zm6.763,5.054a4.377,4.377,0,0,1,1.379-1.483,3.29,3.29,0,0,1,1.831-.531,3.343,3.343,0,0,1,2.808,1.318,6.63,6.63,0,0,1,1.013,4.053V60h-2.49V51.895a4.941,4.941,0,0,0-.525-2.618,1.735,1.735,0,0,0-1.55-.8,2.571,2.571,0,0,0-1.471.415,3,3,0,0,0-.995,1.16V60h-2.49V40.957h2.49ZM93.958,60.256a4.613,4.613,0,0,1-3.864-1.807,7.464,7.464,0,0,1-1.4-4.7v-.574a7.748,7.748,0,0,1,1.392-4.767,4.335,4.335,0,0,1,3.638-1.862,4,4,0,0,1,3.436,1.6,7.089,7.089,0,0,1,1.178,4.3v1.392H91.174a6.522,6.522,0,0,0,.726,3.284,2.4,2.4,0,0,0,2.228,1.257,4.327,4.327,0,0,0,3.223-1.27l.806,1.538a5.264,5.264,0,0,1-1.74,1.147A6.181,6.181,0,0,1,93.958,60.256Zm-.232-11.8a1.943,1.943,0,0,0-1.709.995,5.927,5.927,0,0,0-.793,2.631H95.9V51.8a4.835,4.835,0,0,0-.531-2.417A1.763,1.763,0,0,0,93.726,48.452Zm21.057,5.481h2.063v1.892h-2.063V60h-2.5V55.825h-6.775l-.073-1.392,6.763-12.207h2.588Zm-6.9,0h4.395V45.657l-.073-.024-.33.757Zm13.806-1.587V60h-2.478V42.239h5.237a5.583,5.583,0,0,1,3.961,1.306,4.879,4.879,0,0,1,1.4,3.748,4.5,4.5,0,0,1-.653,2.435,4.3,4.3,0,0,1-1.874,1.617,3.4,3.4,0,0,1,1.971,1.538,5.363,5.363,0,0,1,.6,2.661v1.55a6.97,6.97,0,0,0,.159,1.526,2.139,2.139,0,0,0,.562,1.1V60h-2.551a2.114,2.114,0,0,1-.543-1.227,11.066,11.066,0,0,1-.128-1.7v-1.5a3.682,3.682,0,0,0-.69-2.356,2.306,2.306,0,0,0-1.91-.867Zm0-1.892h2.637a2.911,2.911,0,0,0,2.271-.812,3.317,3.317,0,0,0,.732-2.3,3.555,3.555,0,0,0-.714-2.368,2.683,2.683,0,0,0-2.167-.842h-2.759Zm19.531,5.078a2.92,2.92,0,0,0-.7-2.008,6.1,6.1,0,0,0-2.454-1.434,10.072,10.072,0,0,1-3.845-2.014,4.243,4.243,0,0,1-1.343-3.284,4.491,4.491,0,0,1,1.483-3.461,5.4,5.4,0,0,1,3.8-1.361,5.3,5.3,0,0,1,3.955,1.514,5.03,5.03,0,0,1,1.44,3.8l-.024.073h-2.38a3.737,3.737,0,0,0-.83-2.527,2.743,2.743,0,0,0-2.185-.964,2.573,2.573,0,0,0-2.045.83,3.038,3.038,0,0,0-.726,2.075,2.576,2.576,0,0,0,.769,1.917,7.416,7.416,0,0,0,2.588,1.428,9.106,9.106,0,0,1,3.7,2.075,4.516,4.516,0,0,1,1.27,3.32,4.335,4.335,0,0,1-1.5,3.461,5.8,5.8,0,0,1-3.925,1.288,6.317,6.317,0,0,1-4.077-1.392,4.669,4.669,0,0,1-1.672-3.992l.024-.073h2.393a3.512,3.512,0,0,0,.958,2.7,3.354,3.354,0,0,0,2.374.891,2.933,2.933,0,0,0,2.161-.775A2.8,2.8,0,0,0,141.223,55.532ZM-112.958,86.667a1.759,1.759,0,0,0-.513-1.288,6.861,6.861,0,0,0-1.965-1.166,9.854,9.854,0,0,1-3.052-1.672,2.967,2.967,0,0,1-1.013-2.319,3.335,3.335,0,0,1,1.227-2.6,4.669,4.669,0,0,1,3.192-1.074,4.582,4.582,0,0,1,3.284,1.178,3.624,3.624,0,0,1,1.2,2.85l-.024.073h-2.393a2.47,2.47,0,0,0-.555-1.617,1.846,1.846,0,0,0-1.508-.677,2,2,0,0,0-1.483.531,1.7,1.7,0,0,0-.531,1.239,1.56,1.56,0,0,0,.458,1.19,8.089,8.089,0,0,0,1.959,1.117,9.023,9.023,0,0,1,3.119,1.7,3.153,3.153,0,0,1,1.044,2.417,3.3,3.3,0,0,1-1.263,2.679,5.076,5.076,0,0,1-3.314,1.031,4.807,4.807,0,0,1-3.5-1.239,3.713,3.713,0,0,1-1.215-2.9l.024-.073h2.307a2.413,2.413,0,0,0,.726,1.849,2.543,2.543,0,0,0,1.691.568,2.207,2.207,0,0,0,1.544-.507A1.667,1.667,0,0,0-112.958,86.667Zm7.935-13.159v3.284h2.063v1.77h-2.063v7.861a2.579,2.579,0,0,0,.311,1.459.967.967,0,0,0,.824.433,1.99,1.99,0,0,0,.391-.037q.183-.037.427-.11l.256,1.709a3.891,3.891,0,0,1-.787.275,3.84,3.84,0,0,1-.9.1,2.774,2.774,0,0,1-2.222-.922,4.406,4.406,0,0,1-.793-2.911V78.562h-1.746v-1.77h1.746V73.508Zm9.973,5.347-1.074-.061a1.863,1.863,0,0,0-1.3.47,3.011,3.011,0,0,0-.8,1.324V90h-2.49V76.792h2.283l.171,1.953a4.243,4.243,0,0,1,1.123-1.617,2.363,2.363,0,0,1,1.575-.58,2.087,2.087,0,0,1,.433.043,2.385,2.385,0,0,1,.36.1ZM-86.163,90q-.159-.6-.25-1.068A6.729,6.729,0,0,1-86.53,88a4.85,4.85,0,0,1-1.385,1.617,3.2,3.2,0,0,1-1.959.641,3.468,3.468,0,0,1-2.716-1.05,4.127,4.127,0,0,1-.946-2.869A3.6,3.6,0,0,1-92.224,83.4a5.617,5.617,0,0,1,3.656-1.074h2.026V80.967a2.964,2.964,0,0,0-.537-1.886,1.848,1.848,0,0,0-1.538-.677,1.84,1.84,0,0,0-1.434.586,2.15,2.15,0,0,0-.531,1.5l-2.368.012-.024-.073a3.356,3.356,0,0,1,1.2-2.71,4.7,4.7,0,0,1,3.32-1.172A4.449,4.449,0,0,1-85.272,77.7a4.309,4.309,0,0,1,1.221,3.29v6.128a10.848,10.848,0,0,0,.1,1.471A9.367,9.367,0,0,0-83.649,90Zm-3.2-1.648a2.782,2.782,0,0,0,1.794-.629,2.911,2.911,0,0,0,1.025-1.52V83.86H-88.6a2.279,2.279,0,0,0-1.794.726,2.542,2.542,0,0,0-.647,1.752,2.277,2.277,0,0,0,.439,1.465A1.5,1.5,0,0,0-89.362,88.352Zm11.328-14.844v3.284h2.063v1.77h-2.063v7.861a2.579,2.579,0,0,0,.311,1.459.967.967,0,0,0,.824.433,1.99,1.99,0,0,0,.391-.037q.183-.037.427-.11l.256,1.709a3.891,3.891,0,0,1-.787.275,3.84,3.84,0,0,1-.9.1,2.774,2.774,0,0,1-2.222-.922,4.406,4.406,0,0,1-.793-2.911V78.562h-1.746v-1.77h1.746V73.508Zm9.082,16.748a4.613,4.613,0,0,1-3.864-1.807,7.464,7.464,0,0,1-1.4-4.7v-.574a7.748,7.748,0,0,1,1.392-4.767,4.335,4.335,0,0,1,3.638-1.862,4,4,0,0,1,3.436,1.6,7.089,7.089,0,0,1,1.178,4.3v1.392h-7.166a6.522,6.522,0,0,0,.726,3.284,2.4,2.4,0,0,0,2.228,1.257,4.636,4.636,0,0,0,1.807-.323,4.62,4.62,0,0,0,1.416-.946l.806,1.538a5.264,5.264,0,0,1-1.74,1.147A6.181,6.181,0,0,1-68.951,90.256Zm-.232-11.8a1.943,1.943,0,0,0-1.709.995,5.927,5.927,0,0,0-.793,2.631h4.675V81.8a4.835,4.835,0,0,0-.531-2.417A1.763,1.763,0,0,0-69.183,78.452Zm6.433,5.1a9.762,9.762,0,0,1,1.16-5.09,3.633,3.633,0,0,1,3.271-1.917,3.337,3.337,0,0,1,1.813.494,4.029,4.029,0,0,1,1.324,1.41l.232-1.66h2.075V90.024a5.379,5.379,0,0,1-1.355,3.925,5.1,5.1,0,0,1-3.821,1.385,6.983,6.983,0,0,1-1.8-.256,7.232,7.232,0,0,1-1.727-.7l.4-1.855a6.336,6.336,0,0,0,1.459.592,6.243,6.243,0,0,0,1.642.214,2.468,2.468,0,0,0,2.051-.824,3.951,3.951,0,0,0,.659-2.5V88.706a3.625,3.625,0,0,1-1.276,1.16,3.588,3.588,0,0,1-1.7.391,3.675,3.675,0,0,1-3.247-1.764,8.4,8.4,0,0,1-1.16-4.681Zm2.49.256a7.476,7.476,0,0,0,.61,3.308,2.032,2.032,0,0,0,1.941,1.221,2.311,2.311,0,0,0,1.41-.427,3,3,0,0,0,.934-1.208V80.21a3.272,3.272,0,0,0-.934-1.27,2.168,2.168,0,0,0-1.4-.464,2.046,2.046,0,0,0-1.941,1.41,9.166,9.166,0,0,0-.623,3.668Zm13.989,1.636.2.891H-46l2.588-9.546h2.722l-4.724,15.259a7.051,7.051,0,0,1-1.257,2.319,2.852,2.852,0,0,1-2.319.964,3.551,3.551,0,0,1-.659-.067q-.354-.067-.7-.153l.281-1.831q.122.024.36.049t.372.024a1.34,1.34,0,0,0,1.16-.616,4.97,4.97,0,0,0,.671-1.459l.452-1.367-4.163-13.123h2.71ZM-33.514,82.8A18.758,18.758,0,0,1-31.9,74.735a10.025,10.025,0,0,1,3.522-4.547h.073l.452,1.318a9.916,9.916,0,0,0-2.4,4.2,21.873,21.873,0,0,0-1.013,7.068v.244a21.76,21.76,0,0,0,1.013,7.056,10.59,10.59,0,0,0,2.4,4.26l-.452,1.245h-.073a9.951,9.951,0,0,1-3.528-4.5,18.688,18.688,0,0,1-1.611-8.081Zm10.144-.452V90h-2.478V72.239h5.237a5.583,5.583,0,0,1,3.961,1.306,4.879,4.879,0,0,1,1.4,3.748,4.5,4.5,0,0,1-.653,2.435,4.3,4.3,0,0,1-1.874,1.617,3.4,3.4,0,0,1,1.971,1.538,5.363,5.363,0,0,1,.6,2.661v1.55a6.969,6.969,0,0,0,.159,1.526,2.139,2.139,0,0,0,.562,1.1V90h-2.551a2.114,2.114,0,0,1-.543-1.227,11.066,11.066,0,0,1-.128-1.7v-1.5a3.682,3.682,0,0,0-.69-2.356,2.306,2.306,0,0,0-1.91-.867Zm0-1.892h2.637a2.911,2.911,0,0,0,2.271-.812,3.317,3.317,0,0,0,.732-2.3,3.555,3.555,0,0,0-.714-2.368,2.683,2.683,0,0,0-2.167-.842H-23.37Zm15.93,9.8A4.613,4.613,0,0,1-11.3,88.45a7.464,7.464,0,0,1-1.4-4.7v-.574a7.748,7.748,0,0,1,1.392-4.767,4.335,4.335,0,0,1,3.638-1.862,4,4,0,0,1,3.436,1.6,7.089,7.089,0,0,1,1.178,4.3v1.392h-7.166A6.522,6.522,0,0,0-9.5,87.119a2.4,2.4,0,0,0,2.228,1.257,4.636,4.636,0,0,0,1.807-.323,4.62,4.62,0,0,0,1.416-.946l.806,1.538a5.264,5.264,0,0,1-1.74,1.147A6.181,6.181,0,0,1-7.44,90.256Zm-.232-11.8a1.943,1.943,0,0,0-1.709.995,5.927,5.927,0,0,0-.793,2.631H-5.5V81.8A4.835,4.835,0,0,0-6.03,79.38,1.763,1.763,0,0,0-7.672,78.452Zm6.384,5.1a9.762,9.762,0,0,1,1.16-5.09,3.623,3.623,0,0,1,3.259-1.917,3.361,3.361,0,0,1,1.685.421A3.823,3.823,0,0,1,6.1,78.184V70.957H8.575V90H6.525l-.256-1.587a3.917,3.917,0,0,1-1.343,1.373,3.5,3.5,0,0,1-1.819.47A3.661,3.661,0,0,1-.134,88.492a8.439,8.439,0,0,1-1.154-4.681Zm2.466.256a7.356,7.356,0,0,0,.623,3.3A2.047,2.047,0,0,0,3.741,88.34a2.266,2.266,0,0,0,1.41-.439A3.163,3.163,0,0,0,6.1,86.655v-6.4a3.5,3.5,0,0,0-.952-1.3,2.121,2.121,0,0,0-1.392-.482,2.057,2.057,0,0,0-1.947,1.41,9.087,9.087,0,0,0-.629,3.668Zm17.407,4.26a4.251,4.251,0,0,1-1.367,1.617,3.334,3.334,0,0,1-1.929.568,3.325,3.325,0,0,1-2.844-1.4,7.432,7.432,0,0,1-1.025-4.358v-7.7h2.49v7.727a6.429,6.429,0,0,0,.488,2.972,1.606,1.606,0,0,0,1.489.848,2.742,2.742,0,0,0,1.556-.427,2.867,2.867,0,0,0,1.007-1.221v-9.9h2.49V90H18.829Zm9.79.305a1.95,1.95,0,0,0,1.532-.708,2.818,2.818,0,0,0,.616-1.917h2.234l.024.073a4.081,4.081,0,0,1-1.257,3.149,4.643,4.643,0,0,1-6.921-.58,7.981,7.981,0,0,1-1.331-4.755v-.464A8.015,8.015,0,0,1,24.6,78.422a4.353,4.353,0,0,1,3.772-1.874,4.185,4.185,0,0,1,3.217,1.337,4.778,4.778,0,0,1,1.2,3.473l-.024.061H30.524a3.587,3.587,0,0,0-.592-2.142,1.831,1.831,0,0,0-1.556-.824,2.079,2.079,0,0,0-2.008,1.343,8.114,8.114,0,0,0-.616,3.381v.464a8.2,8.2,0,0,0,.61,3.406A2.076,2.076,0,0,0,28.375,88.376Zm11.5,1.88a4.613,4.613,0,0,1-3.864-1.807,7.464,7.464,0,0,1-1.4-4.7v-.574A7.748,7.748,0,0,1,36,78.409a4.335,4.335,0,0,1,3.638-1.862,4,4,0,0,1,3.436,1.6,7.089,7.089,0,0,1,1.178,4.3v1.392H37.091a6.522,6.522,0,0,0,.726,3.284,2.4,2.4,0,0,0,2.228,1.257,4.327,4.327,0,0,0,3.223-1.27l.806,1.538a5.264,5.264,0,0,1-1.74,1.147A6.181,6.181,0,0,1,39.874,90.256Zm-.232-11.8a1.943,1.943,0,0,0-1.709.995,5.927,5.927,0,0,0-.793,2.631h4.675V81.8a4.835,4.835,0,0,0-.531-2.417A1.763,1.763,0,0,0,39.642,78.452Zm9.3,11.255-1.587,3.6H45.77l.732-3.687V87.363h2.441Zm10.828-7.361V90H57.294V72.239h5.237a5.583,5.583,0,0,1,3.961,1.306,4.879,4.879,0,0,1,1.4,3.748,4.5,4.5,0,0,1-.653,2.435,4.3,4.3,0,0,1-1.874,1.617,3.4,3.4,0,0,1,1.971,1.538,5.363,5.363,0,0,1,.6,2.661v1.55a6.969,6.969,0,0,0,.159,1.526,2.139,2.139,0,0,0,.562,1.1V90H66.107a2.114,2.114,0,0,1-.543-1.227,11.066,11.066,0,0,1-.128-1.7v-1.5a3.682,3.682,0,0,0-.69-2.356,2.306,2.306,0,0,0-1.91-.867Zm0-1.892h2.637a2.911,2.911,0,0,0,2.271-.812,3.317,3.317,0,0,0,.732-2.3,3.555,3.555,0,0,0-.714-2.368,2.683,2.683,0,0,0-2.167-.842H59.772Zm15.93,9.8a4.613,4.613,0,0,1-3.864-1.807,7.464,7.464,0,0,1-1.4-4.7v-.574a7.748,7.748,0,0,1,1.392-4.767,4.335,4.335,0,0,1,3.638-1.862,4,4,0,0,1,3.436,1.6,7.089,7.089,0,0,1,1.178,4.3v1.392H72.919a6.522,6.522,0,0,0,.726,3.284,2.4,2.4,0,0,0,2.228,1.257,4.327,4.327,0,0,0,3.223-1.27l.806,1.538a5.264,5.264,0,0,1-1.74,1.147A6.181,6.181,0,0,1,75.7,90.256Zm-.232-11.8a1.943,1.943,0,0,0-1.709.995,5.927,5.927,0,0,0-.793,2.631h4.675V81.8a4.835,4.835,0,0,0-.531-2.417A1.763,1.763,0,0,0,75.47,78.452Zm13.953,9.619a4.251,4.251,0,0,1-1.367,1.617,3.575,3.575,0,0,1-4.773-.836,7.432,7.432,0,0,1-1.025-4.358v-7.7h2.49v7.727a6.429,6.429,0,0,0,.488,2.972,1.606,1.606,0,0,0,1.489.848,2.742,2.742,0,0,0,1.556-.427,2.867,2.867,0,0,0,1.007-1.221v-9.9h2.49V90H89.667Zm11.462-1.4a1.759,1.759,0,0,0-.513-1.288,6.861,6.861,0,0,0-1.965-1.166,9.854,9.854,0,0,1-3.052-1.672,2.967,2.967,0,0,1-1.013-2.319,3.335,3.335,0,0,1,1.227-2.6,4.669,4.669,0,0,1,3.192-1.074,4.582,4.582,0,0,1,3.284,1.178,3.624,3.624,0,0,1,1.2,2.85l-.024.073h-2.393a2.47,2.47,0,0,0-.555-1.617,1.846,1.846,0,0,0-1.508-.677,2,2,0,0,0-1.483.531,1.7,1.7,0,0,0-.531,1.239,1.56,1.56,0,0,0,.458,1.19,8.089,8.089,0,0,0,1.959,1.117,9.023,9.023,0,0,1,3.119,1.7,3.153,3.153,0,0,1,1.044,2.417,3.3,3.3,0,0,1-1.263,2.679,5.076,5.076,0,0,1-3.314,1.031,4.807,4.807,0,0,1-3.5-1.239,3.713,3.713,0,0,1-1.215-2.9l.024-.073h2.307a2.413,2.413,0,0,0,.726,1.849,2.543,2.543,0,0,0,1.691.568,2.207,2.207,0,0,0,1.544-.507A1.667,1.667,0,0,0,100.885,86.667Zm9.521,3.589a4.613,4.613,0,0,1-3.864-1.807,7.464,7.464,0,0,1-1.4-4.7v-.574a7.748,7.748,0,0,1,1.392-4.767,4.335,4.335,0,0,1,3.638-1.862,4,4,0,0,1,3.436,1.6,7.089,7.089,0,0,1,1.178,4.3v1.392h-7.166a6.522,6.522,0,0,0,.726,3.284,2.4,2.4,0,0,0,2.228,1.257,4.327,4.327,0,0,0,3.223-1.27l.806,1.538a5.264,5.264,0,0,1-1.74,1.147A6.181,6.181,0,0,1,110.406,90.256Zm-.232-11.8a1.943,1.943,0,0,0-1.709.995,5.927,5.927,0,0,0-.793,2.631h4.675V81.8a4.835,4.835,0,0,0-.531-2.417A1.763,1.763,0,0,0,110.175,78.452Zm9.3,11.255-1.587,3.6H116.3l.732-3.687V87.363h2.441Zm-227.435,22.639V120h-2.478V102.239h5.237a5.583,5.583,0,0,1,3.961,1.306,4.879,4.879,0,0,1,1.4,3.748,4.5,4.5,0,0,1-.653,2.435,4.3,4.3,0,0,1-1.874,1.617,3.4,3.4,0,0,1,1.971,1.538,5.363,5.363,0,0,1,.6,2.661v1.55a6.969,6.969,0,0,0,.159,1.526,2.139,2.139,0,0,0,.562,1.1V120h-2.551a2.114,2.114,0,0,1-.543-1.227,11.066,11.066,0,0,1-.128-1.7v-1.5a3.682,3.682,0,0,0-.69-2.356,2.306,2.306,0,0,0-1.91-.867Zm0-1.892h2.637a2.911,2.911,0,0,0,2.271-.812,3.317,3.317,0,0,0,.732-2.3,3.555,3.555,0,0,0-.714-2.368,2.683,2.683,0,0,0-2.167-.842h-2.759Zm15.93,9.8a4.613,4.613,0,0,1-3.864-1.807,7.464,7.464,0,0,1-1.4-4.7v-.574a7.748,7.748,0,0,1,1.392-4.767,4.335,4.335,0,0,1,3.638-1.862,4,4,0,0,1,3.436,1.6,7.089,7.089,0,0,1,1.178,4.3v1.392h-7.166a6.522,6.522,0,0,0,.726,3.284,2.4,2.4,0,0,0,2.228,1.257,4.636,4.636,0,0,0,1.807-.323,4.62,4.62,0,0,0,1.416-.946l.806,1.538a5.264,5.264,0,0,1-1.74,1.147A6.181,6.181,0,0,1-92.029,120.256Zm-.232-11.8a1.943,1.943,0,0,0-1.709.995,5.927,5.927,0,0,0-.793,2.631h4.675V111.8a4.835,4.835,0,0,0-.531-2.417A1.763,1.763,0,0,0-92.261,108.452Zm11.438,9.924a1.95,1.95,0,0,0,1.532-.708,2.818,2.818,0,0,0,.616-1.917h2.234l.024.073a4.081,4.081,0,0,1-1.257,3.149,4.334,4.334,0,0,1-3.149,1.282,4.362,4.362,0,0,1-3.772-1.862,7.981,7.981,0,0,1-1.331-4.755v-.464a8.015,8.015,0,0,1,1.331-4.755,4.353,4.353,0,0,1,3.772-1.874,4.185,4.185,0,0,1,3.217,1.337,4.778,4.778,0,0,1,1.2,3.473l-.024.061h-2.246a3.587,3.587,0,0,0-.592-2.142,1.831,1.831,0,0,0-1.556-.824,2.079,2.079,0,0,0-2.008,1.343,8.114,8.114,0,0,0-.616,3.381v.464a8.2,8.2,0,0,0,.61,3.406A2.076,2.076,0,0,0-80.823,118.376Zm10.486-2.93.2.891h.073l2.588-9.546h2.722l-4.724,15.259a7.052,7.052,0,0,1-1.257,2.319,2.852,2.852,0,0,1-2.319.964,3.551,3.551,0,0,1-.659-.067q-.354-.067-.7-.153l.281-1.831q.122.024.36.049t.372.024a1.34,1.34,0,0,0,1.16-.616,4.97,4.97,0,0,0,.671-1.459l.452-1.367-4.163-13.123h2.71Zm11.694,2.93a1.95,1.95,0,0,0,1.532-.708,2.818,2.818,0,0,0,.616-1.917h2.234l.024.073a4.081,4.081,0,0,1-1.257,3.149,4.334,4.334,0,0,1-3.149,1.282,4.362,4.362,0,0,1-3.772-1.862,7.981,7.981,0,0,1-1.331-4.755v-.464a8.015,8.015,0,0,1,1.331-4.755,4.353,4.353,0,0,1,3.772-1.874,4.185,4.185,0,0,1,3.217,1.337,4.778,4.778,0,0,1,1.2,3.473l-.024.061h-2.246a3.587,3.587,0,0,0-.592-2.142,1.831,1.831,0,0,0-1.556-.824,2.079,2.079,0,0,0-2.008,1.343,8.114,8.114,0,0,0-.616,3.381v.464a8.2,8.2,0,0,0,.61,3.406A2.076,2.076,0,0,0-58.643,118.376ZM-49.268,120h-2.49V100.957h2.49Zm7.8.256a4.613,4.613,0,0,1-3.864-1.807,7.464,7.464,0,0,1-1.4-4.7v-.574a7.748,7.748,0,0,1,1.392-4.767,4.335,4.335,0,0,1,3.638-1.862,4,4,0,0,1,3.436,1.6,7.089,7.089,0,0,1,1.178,4.3v1.392H-44.25a6.522,6.522,0,0,0,.726,3.284,2.4,2.4,0,0,0,2.228,1.257,4.636,4.636,0,0,0,1.807-.323,4.62,4.62,0,0,0,1.416-.946l.806,1.538a5.264,5.264,0,0,1-1.74,1.147A6.181,6.181,0,0,1-41.467,120.256Zm-.232-11.8a1.943,1.943,0,0,0-1.709.995,5.927,5.927,0,0,0-.793,2.631h4.675V111.8a4.835,4.835,0,0,0-.531-2.417A1.763,1.763,0,0,0-41.7,108.452Zm9.3,11.255-1.587,3.6h-1.587l.732-3.687v-2.258H-32.4Zm14.954.293q-.159-.6-.25-1.068A6.729,6.729,0,0,1-17.81,118a4.85,4.85,0,0,1-1.385,1.617,3.2,3.2,0,0,1-1.959.641,3.468,3.468,0,0,1-2.716-1.05,4.127,4.127,0,0,1-.946-2.869A3.6,3.6,0,0,1-23.5,113.4a5.617,5.617,0,0,1,3.656-1.074h2.026v-1.355a2.964,2.964,0,0,0-.537-1.886A1.848,1.848,0,0,0-19.9,108.4a1.84,1.84,0,0,0-1.434.586,2.15,2.15,0,0,0-.531,1.5l-2.368.012-.024-.073a3.356,3.356,0,0,1,1.2-2.71,4.7,4.7,0,0,1,3.32-1.172,4.449,4.449,0,0,1,3.186,1.154,4.309,4.309,0,0,1,1.221,3.29v6.128a10.847,10.847,0,0,0,.1,1.471,9.367,9.367,0,0,0,.305,1.41Zm-3.2-1.648a2.782,2.782,0,0,0,1.794-.629,2.911,2.911,0,0,0,1.025-1.52V113.86h-2.063a2.279,2.279,0,0,0-1.794.726,2.542,2.542,0,0,0-.647,1.752,2.277,2.277,0,0,0,.439,1.465A1.5,1.5,0,0,0-20.642,118.352Zm10.388-11.56.146,1.965a4.462,4.462,0,0,1,1.416-1.63,3.376,3.376,0,0,1,1.941-.58,3.245,3.245,0,0,1,2.74,1.294,6.67,6.67,0,0,1,.983,4.028V120H-5.505v-8.118a4.937,4.937,0,0,0-.519-2.637,1.764,1.764,0,0,0-1.569-.769,2.417,2.417,0,0,0-1.465.446,3.119,3.119,0,0,0-.977,1.227V120h-2.49V106.792Zm9.595,6.763a9.762,9.762,0,0,1,1.16-5.09,3.623,3.623,0,0,1,3.259-1.917,3.361,3.361,0,0,1,1.685.421,3.823,3.823,0,0,1,1.282,1.215v-7.227H9.2V120H7.153L6.9,118.413a3.917,3.917,0,0,1-1.343,1.373,3.5,3.5,0,0,1-1.819.47,3.661,3.661,0,0,1-3.241-1.764,8.439,8.439,0,0,1-1.154-4.681Zm2.466.256a7.356,7.356,0,0,0,.623,3.3A2.047,2.047,0,0,0,4.37,118.34a2.266,2.266,0,0,0,1.41-.439,3.163,3.163,0,0,0,.946-1.245v-6.4a3.5,3.5,0,0,0-.952-1.3,2.121,2.121,0,0,0-1.392-.482,2.057,2.057,0,0,0-1.947,1.41,9.087,9.087,0,0,0-.629,3.668Zm18.53-1.465V120H17.859V102.239H23.1a5.583,5.583,0,0,1,3.961,1.306,4.879,4.879,0,0,1,1.4,3.748,4.5,4.5,0,0,1-.653,2.435,4.3,4.3,0,0,1-1.874,1.617,3.4,3.4,0,0,1,1.971,1.538,5.363,5.363,0,0,1,.6,2.661v1.55a6.969,6.969,0,0,0,.159,1.526,2.139,2.139,0,0,0,.562,1.1V120H26.672a2.114,2.114,0,0,1-.543-1.227,11.066,11.066,0,0,1-.128-1.7v-1.5a3.682,3.682,0,0,0-.69-2.356,2.306,2.306,0,0,0-1.91-.867Zm0-1.892h2.637a2.911,2.911,0,0,0,2.271-.812,3.317,3.317,0,0,0,.732-2.3,3.555,3.555,0,0,0-.714-2.368,2.683,2.683,0,0,0-2.167-.842H20.337Zm15.93,9.8A4.613,4.613,0,0,1,32.4,118.45a7.464,7.464,0,0,1-1.4-4.7v-.574a7.748,7.748,0,0,1,1.392-4.767,4.335,4.335,0,0,1,3.638-1.862,4,4,0,0,1,3.436,1.6,7.089,7.089,0,0,1,1.178,4.3v1.392H33.484a6.522,6.522,0,0,0,.726,3.284,2.4,2.4,0,0,0,2.228,1.257,4.327,4.327,0,0,0,3.223-1.27l.806,1.538a5.264,5.264,0,0,1-1.74,1.147A6.181,6.181,0,0,1,36.267,120.256Zm-.232-11.8a1.943,1.943,0,0,0-1.709.995,5.927,5.927,0,0,0-.793,2.631h4.675V111.8a4.835,4.835,0,0,0-.531-2.417A1.763,1.763,0,0,0,36.035,108.452ZM43.713,120V108.562H41.968v-1.77h1.746v-1.7a4.728,4.728,0,0,1,1.019-3.247,3.614,3.614,0,0,1,2.85-1.147,4.361,4.361,0,0,1,.751.067q.385.067.836.189l-.232,1.819a4.318,4.318,0,0,0-.488-.1,3.984,3.984,0,0,0-.562-.037,1.434,1.434,0,0,0-1.263.635,3.212,3.212,0,0,0-.433,1.819v1.7h2.185v1.77H46.191V120Zm6.1-6.75a7.893,7.893,0,0,1,1.392-4.822,4.829,4.829,0,0,1,7.648,0,7.869,7.869,0,0,1,1.4,4.822v.33a7.833,7.833,0,0,1-1.392,4.816,4.864,4.864,0,0,1-7.654,0,7.833,7.833,0,0,1-1.392-4.816Zm2.49.33a7.667,7.667,0,0,0,.677,3.455,2.2,2.2,0,0,0,2.069,1.343,2.17,2.17,0,0,0,2.032-1.349,7.675,7.675,0,0,0,.677-3.448v-.33a7.632,7.632,0,0,0-.684-3.436,2.221,2.221,0,0,0-4.1,0,7.691,7.691,0,0,0-.677,3.436Zm15.979-4.724-1.074-.061a1.863,1.863,0,0,0-1.3.47,3.011,3.011,0,0,0-.8,1.324V120h-2.49V106.792H64.9l.171,1.953a4.243,4.243,0,0,1,1.123-1.617,2.363,2.363,0,0,1,1.575-.58,2.087,2.087,0,0,1,.433.043,2.385,2.385,0,0,1,.36.1Zm6.567,11.4a4.613,4.613,0,0,1-3.864-1.807,7.464,7.464,0,0,1-1.4-4.7v-.574a7.748,7.748,0,0,1,1.392-4.767,4.335,4.335,0,0,1,3.638-1.862,4,4,0,0,1,3.436,1.6,7.089,7.089,0,0,1,1.178,4.3v1.392H72.07a6.522,6.522,0,0,0,.726,3.284,2.4,2.4,0,0,0,2.228,1.257,4.327,4.327,0,0,0,3.223-1.27l.806,1.538a5.264,5.264,0,0,1-1.74,1.147A6.181,6.181,0,0,1,74.854,120.256Zm-.232-11.8a1.943,1.943,0,0,0-1.709.995,5.927,5.927,0,0,0-.793,2.631h4.675V111.8a4.835,4.835,0,0,0-.531-2.417A1.763,1.763,0,0,0,74.622,108.452Zm13.11,8.215a1.759,1.759,0,0,0-.513-1.288,6.861,6.861,0,0,0-1.965-1.166,9.854,9.854,0,0,1-3.052-1.672,2.967,2.967,0,0,1-1.013-2.319,3.335,3.335,0,0,1,1.227-2.6,4.669,4.669,0,0,1,3.192-1.074,4.582,4.582,0,0,1,3.284,1.178,3.624,3.624,0,0,1,1.2,2.85l-.024.073H87.671a2.47,2.47,0,0,0-.555-1.617,1.846,1.846,0,0,0-1.508-.677,2,2,0,0,0-1.483.531,1.7,1.7,0,0,0-.531,1.239,1.56,1.56,0,0,0,.458,1.19,8.089,8.089,0,0,0,1.959,1.117,9.023,9.023,0,0,1,3.119,1.7,3.153,3.153,0,0,1,1.044,2.417,3.3,3.3,0,0,1-1.263,2.679,5.076,5.076,0,0,1-3.314,1.031,4.807,4.807,0,0,1-3.5-1.239,3.713,3.713,0,0,1-1.215-2.9l.024-.073h2.307a2.413,2.413,0,0,0,.726,1.849,2.543,2.543,0,0,0,1.691.568,2.207,2.207,0,0,0,1.544-.507A1.667,1.667,0,0,0,87.732,116.667Zm7.935-13.159v3.284h2.063v1.77H95.667v7.861a2.579,2.579,0,0,0,.311,1.459.967.967,0,0,0,.824.433,1.99,1.99,0,0,0,.391-.037q.183-.037.427-.11l.256,1.709a3.891,3.891,0,0,1-.787.275,3.84,3.84,0,0,1-.9.1,2.774,2.774,0,0,1-2.222-.922,4.406,4.406,0,0,1-.793-2.911v-7.861H91.431v-1.77h1.746v-3.284Zm8.923,9.485a18.429,18.429,0,0,1-1.642,8.057,10.069,10.069,0,0,1-3.571,4.529H99.3l-.476-1.245a10.139,10.139,0,0,0,2.411-4.218,21.725,21.725,0,0,0,1.031-7.1v-.244a21.312,21.312,0,0,0-1.056-7.074,10.956,10.956,0,0,0-2.386-4.266l.476-1.245h.073q1.917,1.1,3.564,4.559a18.531,18.531,0,0,1,1.648,8.051ZM110.205,120h-2.5v-2.478h2.5Z" transform="translate(279 390)" fill="#5e5b5c"/>
    <g transform="matrix(1, 0, 0, 1, 0, 0)" filter="url(#Rect치ngulo_2851)">
      <rect id="Rect치ngulo_2851-2" data-name="Rect치ngulo 2851" width="155.315" height="155.459" rx="77.658" transform="translate(203.52 86)" fill="#88c645"/>
    </g>
    <path id="Trazado_6211" data-name="Trazado 6211" d="M3532.426,4683.495a1.631,1.631,0,0,0-.817-1.014h0a1.626,1.626,0,0,0-2.2.677l0,.006c0,.044-8.231,16.012-33.5,18.794a32.159,32.159,0,0,0-9.55,2.549,26.535,26.535,0,0,0-12.736,11.669,27.417,27.417,0,0,0-3.132,15.977,26.846,26.846,0,0,0,3.932,11.327c-4.489,3.223-18.724,14.36-20.007,26.314a1.625,1.625,0,1,0,3.231.342c1.176-10.672,14.531-21.02,18.7-24.018a28.754,28.754,0,0,0,20.518,10.169,34.7,34.7,0,0,0,15.805-2.692,36.258,36.258,0,0,0,13.93-10.35C3536.231,4731.577,3540.818,4711.965,3532.426,4683.495Zm-55.146,58.376h0a23.343,23.343,0,0,1-1.634-3.051,23.729,23.729,0,0,1-1.885-7.021,24.161,24.161,0,0,1,2.693-14.091,23.336,23.336,0,0,1,11.22-10.258,28.849,28.849,0,0,1,8.6-2.253c16.677-1.795,26.487-9.218,31.549-14.6a68.855,68.855,0,0,1-14.99,26.361l-.988-9.945a1.624,1.624,0,0,0-3.243.183,1.257,1.257,0,0,0,.012.131l1.266,12.781C3502.331,4727.761,3491.838,4735.455,3477.281,4741.871Zm46.807-.709v.009a32.988,32.988,0,0,1-12.673,9.46,31.391,31.391,0,0,1-14.36,2.405,25.68,25.68,0,0,1-17.816-8.5,122.488,122.488,0,0,0,15.491-8.23l14.262,2.692a1.624,1.624,0,0,0,.584-3.194l-10.959-2.075a94.717,94.717,0,0,0,14.065-11.82,1.6,1.6,0,0,0,.215-.224c11.327-11.795,16.146-23.461,18.157-30.642C3536.6,4714.7,3532.354,4731.163,3524.087,4741.162Z" transform="translate(-3214.177 -4558.867)" fill="#fff"/>
  </g>
</svg>
