<svg xmlns="http://www.w3.org/2000/svg" xmlns:xlink="http://www.w3.org/1999/xlink" width="160" height="190" viewBox="0 0 160 190">
  <defs>
    <clipPath id="clip-CajillasPlegadizasEN">
      <rect width="160" height="190"/>
    </clipPath>
  </defs>
  <g id="CajillasPlegadizasEN" clip-path="url(#clip-CajillasPlegadizasEN)">
    <g id="Grupo_1632" data-name="Grupo 1632">
      <g id="Grupo_1631" data-name="Grupo 1631">
        <g id="Grupo_1629" data-name="Grupo 1629">
          <path id="Trazado_9389" data-name="Trazado 9389" d="M14,0H114a14,14,0,0,1,14,14V141a14,14,0,0,1-14,14H14A14,14,0,0,1,0,141V14A14,14,0,0,1,14,0Z" transform="translate(16 18)" fill="none" opacity="0.93"/>
          <path id="Trazado_9431" data-name="Trazado 9431" d="M-34.084-4.136h-3.377V0h-1.948V-9.953h5.92V-8.4h-3.972v2.714h3.377Zm1.121-.014a3.677,3.677,0,0,1,.79-2.437,2.721,2.721,0,0,1,2.211-.947,2.731,2.731,0,0,1,2.215.947,3.667,3.667,0,0,1,.793,2.437v.916a3.647,3.647,0,0,1-.793,2.44,2.736,2.736,0,0,1-2.208.937,2.742,2.742,0,0,1-2.218-.937,3.658,3.658,0,0,1-.79-2.44Zm1.935.913a3.087,3.087,0,0,0,.239,1.342.852.852,0,0,0,.834.486.842.842,0,0,0,.817-.49A3.053,3.053,0,0,0-28.9-3.236v-.917a3.062,3.062,0,0,0-.243-1.332.846.846,0,0,0-.824-.5.845.845,0,0,0-.824.5,3.066,3.066,0,0,0-.243,1.328ZM-23.9,0H-25.84V-10.664H-23.9ZM-22.8-3.657a5.4,5.4,0,0,1,.643-2.81,2.01,2.01,0,0,1,1.812-1.066,1.508,1.508,0,0,1,.779.205,2.045,2.045,0,0,1,.622.588v-3.924h1.941V0H-18.7l-.13-.807a2.174,2.174,0,0,1-.667.708,1.57,1.57,0,0,1-.865.243,2.027,2.027,0,0,1-1.808-1A4.879,4.879,0,0,1-22.8-3.514Zm1.941.144a4.189,4.189,0,0,0,.229,1.55.794.794,0,0,0,.776.555.975.975,0,0,0,.526-.141,1.161,1.161,0,0,0,.383-.408V-5.33a1.37,1.37,0,0,0-.383-.48.825.825,0,0,0-.513-.171.822.822,0,0,0-.779.638,4.9,4.9,0,0,0-.239,1.687ZM-13.713,0h-1.941V-7.4h1.941Zm0-9.181h-1.941v-1.483h1.941ZM-10.582-7.4l.082,1.019a2.465,2.465,0,0,1,.755-.851,1.72,1.72,0,0,1,.988-.3A1.713,1.713,0,0,1-7.3-6.822a3.765,3.765,0,0,1,.53,2.235V0H-8.723V-4.592A1.984,1.984,0,0,0-8.938-5.67.754.754,0,0,0-9.6-5.981a.885.885,0,0,0-.479.137,1.166,1.166,0,0,0-.369.376V0h-1.941V-7.4ZM-5.817-4.04a4.467,4.467,0,0,1,.646-2.529A2.069,2.069,0,0,1-3.35-7.533a1.534,1.534,0,0,1,.868.25,2.2,2.2,0,0,1,.656.714L-1.7-7.4H-.014V-.144A3.085,3.085,0,0,1-.858,2.15a3.141,3.141,0,0,1-2.314.837A3.725,3.725,0,0,1-4.19,2.833a4.679,4.679,0,0,1-1-.414l.342-1.5a3.477,3.477,0,0,0,.793.328,3.334,3.334,0,0,0,.875.109A1.109,1.109,0,0,0-2.263.974,1.773,1.773,0,0,0-1.955-.15V-.574a1.884,1.884,0,0,1-.622.537,1.679,1.679,0,0,1-.786.181,2.1,2.1,0,0,1-1.812-.9,4,4,0,0,1-.643-2.375Zm1.941.913a2.819,2.819,0,0,0,.232,1.263.807.807,0,0,0,.779.455,1.1,1.1,0,0,0,.53-.123,1.012,1.012,0,0,0,.379-.363V-5.4a1.194,1.194,0,0,0-.373-.424.909.909,0,0,0-.523-.151.811.811,0,0,0-.786.531,3.465,3.465,0,0,0-.239,1.407Zm14.547-.079.021.041A3.421,3.421,0,0,1,9.912-.69,3.077,3.077,0,0,1,7.574.144,3.288,3.288,0,0,1,5.106-.8a3.685,3.685,0,0,1-.923-2.683V-6.46a3.777,3.777,0,0,1,.892-2.683A3.115,3.115,0,0,1,7.465-10.1a3.163,3.163,0,0,1,2.4.848A3.591,3.591,0,0,1,10.7-6.74l-.021.041H8.8a2.323,2.323,0,0,0-.267-1.413,1.228,1.228,0,0,0-1.073-.432,1.141,1.141,0,0,0-1,.513,2.788,2.788,0,0,0-.349,1.553v2.99a2.674,2.674,0,0,0,.373,1.567,1.263,1.263,0,0,0,1.09.513,1.1,1.1,0,0,0,.981-.407A2.43,2.43,0,0,0,8.8-3.206ZM15.347,0A3.319,3.319,0,0,1,15.2-.4a3.293,3.293,0,0,1-.1-.444,2.312,2.312,0,0,1-.667.721,1.572,1.572,0,0,1-.913.27,1.891,1.891,0,0,1-1.466-.6,2.288,2.288,0,0,1-.55-1.606,2.105,2.105,0,0,1,.7-1.688,3.121,3.121,0,0,1,2.082-.6h.731v-.6a1.487,1.487,0,0,0-.195-.831.657.657,0,0,0-.584-.291.563.563,0,0,0-.492.232,1.168,1.168,0,0,0-.164.677L11.7-5.175l-.021-.041A2.027,2.027,0,0,1,12.4-6.856a2.828,2.828,0,0,1,1.972-.677,2.639,2.639,0,0,1,1.876.673,2.5,2.5,0,0,1,.721,1.917v2.994A6.479,6.479,0,0,0,17.042-.93a5.549,5.549,0,0,0,.232.93ZM14.082-1.319a1,1,0,0,0,.543-.157,1.167,1.167,0,0,0,.393-.4V-3.24h-.731a.707.707,0,0,0-.643.308,1.413,1.413,0,0,0-.2.779.99.99,0,0,0,.171.6A.547.547,0,0,0,14.082-1.319ZM21.69-5.626l-.731-.021a.829.829,0,0,0-.509.15.956.956,0,0,0-.311.424V0H18.2V-7.4h1.812l.075.991.034.014a2.017,2.017,0,0,1,.5-.837,1.039,1.039,0,0,1,.742-.3,1.727,1.727,0,0,1,.277.024,1.881,1.881,0,0,1,.256.058ZM25.2-9.235V-7.4h1.025v1.408H25.2v3.712a1.208,1.208,0,0,0,.13.646.406.406,0,0,0,.355.195,2.235,2.235,0,0,0,.3-.017,2.2,2.2,0,0,0,.273-.058l.15,1.477A3.871,3.871,0,0,1,25.826.1a4.425,4.425,0,0,1-.636.041,1.783,1.783,0,0,1-1.432-.578,2.788,2.788,0,0,1-.5-1.835V-5.988h-.875V-7.4h.875V-9.235Zm1.75,5.086a3.677,3.677,0,0,1,.79-2.437,2.721,2.721,0,0,1,2.211-.947,2.731,2.731,0,0,1,2.215.947,3.667,3.667,0,0,1,.793,2.437v.916a3.647,3.647,0,0,1-.793,2.44,2.736,2.736,0,0,1-2.208.937,2.742,2.742,0,0,1-2.218-.937,3.658,3.658,0,0,1-.79-2.44Zm1.935.913a3.087,3.087,0,0,0,.239,1.342.852.852,0,0,0,.834.486.842.842,0,0,0,.817-.49,3.053,3.053,0,0,0,.243-1.338v-.917a3.062,3.062,0,0,0-.243-1.332.846.846,0,0,0-.824-.5.845.845,0,0,0-.824.5,3.066,3.066,0,0,0-.243,1.328ZM35.766-7.4l.082,1.019a2.465,2.465,0,0,1,.755-.851,1.72,1.72,0,0,1,.988-.3,1.713,1.713,0,0,1,1.453.711,3.765,3.765,0,0,1,.53,2.235V0H37.625V-4.592A1.984,1.984,0,0,0,37.41-5.67a.754.754,0,0,0-.667-.311.885.885,0,0,0-.479.137,1.166,1.166,0,0,0-.369.376V0H33.954V-7.4Z" transform="translate(80 156)" fill="#5e5b5c"/>
        </g>
        <g id="sandwich" transform="translate(35.174 65.948)">
          <path id="Trazado_9417" data-name="Trazado 9417" d="M189.216,172a1.458,1.458,0,1,0,0,2.915h18.31a1.458,1.458,0,1,0,0-2.915Zm0,0" transform="translate(-153.545 -140.659)" fill="#5e5b5c"/>
          <path id="Trazado_9418" data-name="Trazado 9418" d="M88.194,16.217h-4.06l-5.022-11.1A8.734,8.734,0,0,0,71.14,0H18.512A8.734,8.734,0,0,0,10.54,5.121l-5.022,11.1H1.458a1.458,1.458,0,0,0,0,2.915H5.349L11,41.527a8.712,8.712,0,0,0,8.481,6.579H70.169a8.711,8.711,0,0,0,8.481-6.579L84.3,19.133h3.891a1.458,1.458,0,1,0,0-2.915Zm-75-9.9a5.814,5.814,0,0,1,5.315-3.4H71.14a5.814,5.814,0,0,1,5.315,3.4l4.48,9.9H53.473a1.458,1.458,0,0,0-1.458,1.458,7.214,7.214,0,1,1-14.428,0,1.458,1.458,0,0,0-1.458-1.458H8.717ZM75.822,40.813a5.8,5.8,0,0,1-5.654,4.378H19.483a5.8,5.8,0,0,1-5.654-4.377L8.355,19.133H34.771a10.132,10.132,0,0,0,20.06,0H81.3Zm0,0" transform="translate(0 0)" fill="#5e5b5c"/>
          <path id="Trazado_9419" data-name="Trazado 9419" d="M147.758,206.458a1.458,1.458,0,0,0,1.458,1.458H182.1a1.458,1.458,0,0,0,0-2.915H149.216A1.458,1.458,0,0,0,147.758,206.458Zm0,0" transform="translate(-120.834 -167.645)" fill="#5e5b5c"/>
        </g>
      </g>
    </g>
  </g>
</svg>
