<svg xmlns="http://www.w3.org/2000/svg" xmlns:xlink="http://www.w3.org/1999/xlink" width="160" height="190" viewBox="0 0 160 190">
  <defs>
    <clipPath id="clip-Linea-VialEN">
      <rect width="160" height="190"/>
    </clipPath>
  </defs>
  <g id="Linea-VialEN" clip-path="url(#clip-Linea-VialEN)">
    <g id="Grupo_1534" data-name="Grupo 1534" transform="translate(-3738 -12.66)">
      <rect id="Rectángulo_2914" data-name="Rectángulo 2914" width="128" height="155" rx="14" transform="translate(3754 30.66)" fill="none" opacity="0.93"/>
      <g id="cone" transform="translate(3718.2 73.695)">
        <g id="Grupo_802" data-name="Grupo 802" transform="translate(75.8 -1)">
          <path id="Trazado_5991" data-name="Trazado 5991" d="M118.426,57.331h-.208l-2.562-11.056a.838.838,0,0,0-.035-.386l-2.58-11.217a1.154,1.154,0,0,0-.17-.416l-2.393-10.328a.839.839,0,0,0-.017-.473l-2.58-11.217a1.133,1.133,0,0,0-.225-.491L105.3,1.58A3.367,3.367,0,0,0,102.049-1H96.664a3.367,3.367,0,0,0-3.253,2.58L80.495,57.331h-.208a4.487,4.487,0,1,0,0,8.974h38.139a4.487,4.487,0,0,0,0-8.974Zm-5.384-12.339H85.7l.87-3.788L87.8,36.018H111.02l.095.409ZM92.963,13.583h12.859l1.418,6.119.642,2.855H90.854l.656-2.855ZM90.338,24.8h18.082l2.079,8.974H88.277Zm5.2-22.659a1.092,1.092,0,0,1,1.122-.9h5.384a1.092,1.092,0,0,1,1.122.9l2.131,9.2H93.43ZM85.186,47.235h28.433l2.339,10.1H82.867Zm33.241,16.826H80.287a2.244,2.244,0,1,1,0-4.487h38.139a2.244,2.244,0,0,1,0,4.487Z" transform="translate(-75.8 1)" fill="#5e5b5c"/>
        </g>
      </g>
      <path id="Trazado_9461" data-name="Trazado 9461" d="M-52.682-3.675V0h-1.8V-9.236h3.015a3.03,3.03,0,0,1,2.142.72,2.6,2.6,0,0,1,.778,2,2.325,2.325,0,0,1-.324,1.247,2.272,2.272,0,0,1-.946.835,1.769,1.769,0,0,1,1.025.8,2.817,2.817,0,0,1,.314,1.4v.654a4.084,4.084,0,0,0,.089.816,1.118,1.118,0,0,0,.311.632V0h-1.866a1.042,1.042,0,0,1-.279-.66,7.517,7.517,0,0,1-.057-.933v-.628a1.773,1.773,0,0,0-.282-1.073.947.947,0,0,0-.809-.381Zm0-1.441h1.206a1.038,1.038,0,0,0,.838-.336,1.44,1.44,0,0,0,.286-.958,1.624,1.624,0,0,0-.286-1.009.982.982,0,0,0-.832-.375h-1.212Zm5.237,1.263a3.415,3.415,0,0,1,.733-2.263A2.526,2.526,0,0,1-44.659-7a2.536,2.536,0,0,1,2.057.879,3.4,3.4,0,0,1,.736,2.263V-3A3.387,3.387,0,0,1-42.6-.736a2.541,2.541,0,0,1-2.05.87,2.546,2.546,0,0,1-2.06-.87A3.4,3.4,0,0,1-47.446-3Zm1.8.848a2.867,2.867,0,0,0,.222,1.246.791.791,0,0,0,.774.451.782.782,0,0,0,.759-.455,2.835,2.835,0,0,0,.225-1.243v-.852a2.843,2.843,0,0,0-.225-1.237.785.785,0,0,0-.765-.461.785.785,0,0,0-.765.464,2.847,2.847,0,0,0-.225,1.233ZM-37.569,0a3.082,3.082,0,0,1-.136-.375A3.057,3.057,0,0,1-37.8-.787a2.147,2.147,0,0,1-.619.67,1.46,1.46,0,0,1-.847.251,1.756,1.756,0,0,1-1.362-.559,2.124,2.124,0,0,1-.511-1.492,1.955,1.955,0,0,1,.651-1.568,2.9,2.9,0,0,1,1.933-.559h.679V-4.6a1.381,1.381,0,0,0-.181-.771.61.61,0,0,0-.543-.27.523.523,0,0,0-.457.216,1.085,1.085,0,0,0-.152.628l-1.746-.006-.019-.038a1.883,1.883,0,0,1,.663-1.523A2.626,2.626,0,0,1-38.476-7a2.451,2.451,0,0,1,1.742.625,2.317,2.317,0,0,1,.67,1.781v2.78a6.016,6.016,0,0,0,.07.946A5.153,5.153,0,0,0-35.779,0Zm-1.174-1.225a.929.929,0,0,0,.5-.146,1.084,1.084,0,0,0,.365-.375V-3.009h-.679a.657.657,0,0,0-.6.286A1.312,1.312,0,0,0-39.333-2a.919.919,0,0,0,.159.559A.507.507,0,0,0-38.743-1.225Zm3.58-2.171A5.013,5.013,0,0,1-34.566-6,1.867,1.867,0,0,1-32.884-7a1.4,1.4,0,0,1,.724.19,1.9,1.9,0,0,1,.578.546V-9.9h1.8V0h-1.568l-.121-.749a2.019,2.019,0,0,1-.619.657,1.458,1.458,0,0,1-.8.225A1.882,1.882,0,0,1-34.569-.8a4.531,4.531,0,0,1-.594-2.466Zm1.8.134a3.889,3.889,0,0,0,.213,1.439.737.737,0,0,0,.72.516.9.9,0,0,0,.489-.131,1.078,1.078,0,0,0,.355-.379V-4.949a1.272,1.272,0,0,0-.355-.446.766.766,0,0,0-.476-.159.764.764,0,0,0-.724.592A4.553,4.553,0,0,0-33.36-3.4Zm11.826.85a1.239,1.239,0,0,0-.279-.854,2.844,2.844,0,0,0-.984-.619,6.5,6.5,0,0,1-2.161-1.139,2.262,2.262,0,0,1-.72-1.787,2.318,2.318,0,0,1,.838-1.85A3.182,3.182,0,0,1-22.7-9.375a2.96,2.96,0,0,1,2.146.8,2.594,2.594,0,0,1,.8,2.009l-.013.038h-1.752a1.588,1.588,0,0,0-.317-1.028,1.084,1.084,0,0,0-.9-.394,1.087,1.087,0,0,0-.841.327,1.166,1.166,0,0,0-.3.822.956.956,0,0,0,.336.752,4.741,4.741,0,0,0,1.168.657A4.916,4.916,0,0,1-20.4-4.269a2.533,2.533,0,0,1,.663,1.844,2.333,2.333,0,0,1-.8,1.879,3.175,3.175,0,0,1-2.126.679,3.561,3.561,0,0,1-2.288-.771,2.584,2.584,0,0,1-.936-2.212l.013-.038h1.758a1.734,1.734,0,0,0,.362,1.231,1.453,1.453,0,0,0,1.092.375,1.088,1.088,0,0,0,.847-.3A1.183,1.183,0,0,0-21.534-2.412ZM-15.371,0a3.082,3.082,0,0,1-.136-.375A3.057,3.057,0,0,1-15.6-.787a2.147,2.147,0,0,1-.619.67,1.46,1.46,0,0,1-.847.251,1.756,1.756,0,0,1-1.362-.559,2.124,2.124,0,0,1-.511-1.492,1.955,1.955,0,0,1,.651-1.568,2.9,2.9,0,0,1,1.933-.559h.679V-4.6a1.381,1.381,0,0,0-.181-.771.61.61,0,0,0-.543-.27.523.523,0,0,0-.457.216,1.085,1.085,0,0,0-.152.628l-1.746-.006-.019-.038a1.883,1.883,0,0,1,.663-1.523A2.626,2.626,0,0,1-16.279-7a2.451,2.451,0,0,1,1.742.625,2.317,2.317,0,0,1,.67,1.781v2.78a6.016,6.016,0,0,0,.07.946A5.153,5.153,0,0,0-13.581,0Zm-1.174-1.225a.929.929,0,0,0,.5-.146,1.084,1.084,0,0,0,.365-.375V-3.009h-.679a.657.657,0,0,0-.6.286A1.312,1.312,0,0,0-17.135-2a.919.919,0,0,0,.159.559A.507.507,0,0,0-16.545-1.225ZM-12.318,0V-5.561h-.844V-6.868h.844V-7.63a2.478,2.478,0,0,1,.6-1.781,2.206,2.206,0,0,1,1.676-.625A2.566,2.566,0,0,1-9.626-10q.209.035.482.1L-9.3-8.531q-.127-.025-.244-.044a1.748,1.748,0,0,0-.276-.019.6.6,0,0,0-.521.249,1.211,1.211,0,0,0-.178.71v.767h1.1v1.308h-1.1V0ZM-6.1.133A2.623,2.623,0,0,1-8.154-.717a3.1,3.1,0,0,1-.762-2.146v-.965a3.545,3.545,0,0,1,.708-2.279A2.365,2.365,0,0,1-6.249-7a2.276,2.276,0,0,1,1.866.806,3.366,3.366,0,0,1,.66,2.2v1.1h-3.4v.025a1.9,1.9,0,0,0,.308,1.117,1.061,1.061,0,0,0,.93.438,2.482,2.482,0,0,0,.825-.114A4.341,4.341,0,0,0-4.3-1.8l.457,1.149a2.723,2.723,0,0,1-.949.565A3.694,3.694,0,0,1-6.1.133Zm-.152-5.687a.67.67,0,0,0-.635.4,2.564,2.564,0,0,0-.229,1.065h1.619v-.255a1.831,1.831,0,0,0-.178-.889A.612.612,0,0,0-6.249-5.554ZM-.67-8.576v1.708H.282v1.308H-.67v3.447a1.122,1.122,0,0,0,.121.6.377.377,0,0,0,.33.181A2.076,2.076,0,0,0,.06-1.349,2.043,2.043,0,0,0,.314-1.4L.454-.032A3.6,3.6,0,0,1-.092.1a4.109,4.109,0,0,1-.59.038A1.656,1.656,0,0,1-2.012-.4a2.589,2.589,0,0,1-.46-1.7V-5.561h-.812V-6.868h.813V-8.576ZM3.507-2.818l.013.07,1-4.12h1.93l-2.317,7.9a3.749,3.749,0,0,1-.7,1.241,1.672,1.672,0,0,1-1.33.5,1.825,1.825,0,0,1-.394-.038Q1.546,2.7,1.26,2.622l.209-1.346.156.029a.535.535,0,0,0,.1.01.79.79,0,0,0,.594-.206A1.2,1.2,0,0,0,2.612.565L2.771.057.746-6.868H2.682Zm8.334-.5V0H10.032V-9.242h3.212a2.914,2.914,0,0,1,2.184.818,2.935,2.935,0,0,1,.8,2.143,2.926,2.926,0,0,1-.8,2.146,2.922,2.922,0,0,1-2.18.815Zm0-1.441h1.4a1.017,1.017,0,0,0,.882-.426,1.814,1.814,0,0,0,.3-1.081,1.884,1.884,0,0,0-.3-1.1,1.008,1.008,0,0,0-.885-.436h-1.4Zm8.671-.463-.679-.019a.769.769,0,0,0-.473.14.887.887,0,0,0-.289.394V0h-1.8V-6.868h1.682l.07.92.032.013a1.873,1.873,0,0,1,.46-.778A.965.965,0,0,1,20.2-7a1.6,1.6,0,0,1,.257.022,1.746,1.746,0,0,1,.238.054Zm.571,1.371a3.415,3.415,0,0,1,.733-2.263A2.526,2.526,0,0,1,23.87-7a2.536,2.536,0,0,1,2.057.879,3.4,3.4,0,0,1,.736,2.263V-3a3.387,3.387,0,0,1-.736,2.266,2.541,2.541,0,0,1-2.05.87,2.546,2.546,0,0,1-2.06-.87A3.4,3.4,0,0,1,21.084-3Zm1.8.848A2.867,2.867,0,0,0,23.1-1.759a.791.791,0,0,0,.774.451.782.782,0,0,0,.759-.455,2.835,2.835,0,0,0,.225-1.243v-.852a2.843,2.843,0,0,0-.225-1.237.785.785,0,0,0-.765-.461.785.785,0,0,0-.765.464,2.847,2.847,0,0,0-.225,1.233ZM27.374-3.4A5.013,5.013,0,0,1,27.971-6,1.867,1.867,0,0,1,29.653-7a1.4,1.4,0,0,1,.724.19,1.9,1.9,0,0,1,.578.546V-9.9h1.8V0H31.189l-.121-.749a2.019,2.019,0,0,1-.619.657,1.458,1.458,0,0,1-.8.225A1.882,1.882,0,0,1,27.968-.8a4.531,4.531,0,0,1-.594-2.466Zm1.8.134a3.89,3.89,0,0,0,.213,1.439.737.737,0,0,0,.72.516.9.9,0,0,0,.489-.131,1.078,1.078,0,0,0,.355-.379V-4.949A1.272,1.272,0,0,0,30.6-5.4a.766.766,0,0,0-.476-.159.764.764,0,0,0-.724.592A4.553,4.553,0,0,0,29.177-3.4ZM37.416-.793A2.027,2.027,0,0,1,36.74-.1a1.712,1.712,0,0,1-.9.238,1.691,1.691,0,0,1-1.438-.7,3.621,3.621,0,0,1-.517-2.155V-6.868h1.8V-2.7a2.361,2.361,0,0,0,.178,1.061.567.567,0,0,0,.527.33,1.169,1.169,0,0,0,.524-.111,1.05,1.05,0,0,0,.384-.327V-6.868h1.809V0H37.524Zm5.338-.514a.63.63,0,0,0,.555-.273,1.387,1.387,0,0,0,.187-.787h1.638l.019.038a2.353,2.353,0,0,1-.663,1.771,2.335,2.335,0,0,1-1.736.692,2.5,2.5,0,0,1-2.047-.87,3.426,3.426,0,0,1-.714-2.247v-.882a3.465,3.465,0,0,1,.711-2.25A2.469,2.469,0,0,1,42.742-7a2.288,2.288,0,0,1,1.774.717,2.69,2.69,0,0,1,.638,1.936l-.013.032H43.5a1.876,1.876,0,0,0-.187-.9.609.609,0,0,0-.568-.341A.743.743,0,0,0,42-5.1a3.072,3.072,0,0,0-.2,1.227v.884A3.036,3.036,0,0,0,42-1.753.755.755,0,0,0,42.755-1.308Zm5.415-7.268v1.708h.952v1.308h-.952v3.447a1.122,1.122,0,0,0,.121.6.377.377,0,0,0,.33.181,2.076,2.076,0,0,0,.279-.016,2.043,2.043,0,0,0,.254-.054l.14,1.371A3.6,3.6,0,0,1,48.747.1a4.109,4.109,0,0,1-.59.038A1.656,1.656,0,0,1,46.827-.4a2.589,2.589,0,0,1-.46-1.7V-5.561h-.812V-6.868h.813V-8.576ZM53.127-1.8a.667.667,0,0,0-.229-.5,3.847,3.847,0,0,0-.876-.524A4.619,4.619,0,0,1,50.47-3.7a1.667,1.667,0,0,1-.517-1.27A1.854,1.854,0,0,1,50.616-6.4,2.533,2.533,0,0,1,52.371-7a2.626,2.626,0,0,1,1.822.609,1.922,1.922,0,0,1,.654,1.555l-.019.038H53.089a1.176,1.176,0,0,0-.178-.686.621.621,0,0,0-.546-.254.685.685,0,0,0-.5.2.638.638,0,0,0-.2.476.638.638,0,0,0,.2.492,4.091,4.091,0,0,0,.882.511,4.278,4.278,0,0,1,1.6.873,1.76,1.76,0,0,1,.521,1.323,1.756,1.756,0,0,1-.7,1.435A2.849,2.849,0,0,1,52.34.133a2.539,2.539,0,0,1-1.879-.692A2.043,2.043,0,0,1,49.8-2.12l.013-.038h1.65a1.12,1.12,0,0,0,.254.787.9.9,0,0,0,.667.241.781.781,0,0,0,.552-.178A.636.636,0,0,0,53.127-1.8Z" transform="translate(3818 167.66)" fill="#5e5b5c"/>
    </g>
  </g>
</svg>
