<svg xmlns="http://www.w3.org/2000/svg" xmlns:xlink="http://www.w3.org/1999/xlink" width="403" height="501" viewBox="0 0 403 501">
  <defs>
    <filter id="Trazado_7247" x="0" y="0" width="402.257" height="500.34" filterUnits="userSpaceOnUse">
      <feOffset dy="20" input="SourceAlpha"/>
      <feGaussianBlur stdDeviation="23" result="blur"/>
      <feFlood flood-color="#010101" flood-opacity="0.129"/>
      <feComposite operator="in" in2="blur"/>
      <feComposite in="SourceGraphic"/>
    </filter>
    <filter id="Trazado_7250" x="81" y="33.66" width="240.168" height="240.306" filterUnits="userSpaceOnUse">
      <feOffset dy="9" input="SourceAlpha"/>
      <feGaussianBlur stdDeviation="15" result="blur-2"/>
      <feFlood flood-color="#010101" flood-opacity="0.122"/>
      <feComposite operator="in" in2="blur-2"/>
      <feComposite in="SourceGraphic"/>
    </filter>
    <clipPath id="clip-Recycle-path">
      <rect width="403" height="501"/>
    </clipPath>
  </defs>
  <g id="Recycle-path" clip-path="url(#clip-Recycle-path)">
    <g transform="matrix(1, 0, 0, 1, 0, 0)" filter="url(#Trazado_7247)">
      <g id="Trazado_7247-2" data-name="Trazado 7247" transform="translate(69 49)" fill="#fff" opacity="0.7">
        <path d="M 225.2564697265625 361.8403625488281 L 39.00000762939453 361.8403625488281 C 33.80232620239258 361.8403625488281 28.76037216186523 360.8224792480469 24.01423454284668 358.8150329589844 C 19.42973518371582 356.8759460449219 15.3123254776001 354.0998840332031 11.77641677856445 350.5639343261719 C 8.240462303161621 347.0280151367188 5.46441650390625 342.9106140136719 3.525325775146484 338.3261108398438 C 1.517871260643005 333.5799865722656 0.5000075697898865 328.5380249023438 0.5000075697898865 323.3403625488281 L 0.5000075697898865 38.99998474121094 C 0.5000075697898865 33.80230331420898 1.517871260643005 28.76034736633301 3.525325775146484 24.01421165466309 C 5.46441650390625 19.42971229553223 8.240462303161621 15.3123025894165 11.77641677856445 11.77639293670654 C 15.3123254776001 8.240438461303711 19.42973518371582 5.464393138885498 24.01423454284668 3.525302410125732 C 28.76037216186523 1.517847776412964 33.80232620239258 0.4999842047691345 39.00000762939453 0.4999842047691345 L 225.2564697265625 0.4999842047691345 C 230.4541473388672 0.4999842047691345 235.49609375 1.517847776412964 240.2422790527344 3.525302410125732 C 244.8267364501953 5.464393138885498 248.9441375732422 8.240438461303711 252.4801025390625 11.77639293670654 C 256.0160217285156 15.3123025894165 258.7920532226563 19.42971229553223 260.7311401367188 24.01421165466309 C 262.7385864257813 28.76034736633301 263.7564697265625 33.80230331420898 263.7564697265625 38.99998474121094 L 263.7564697265625 323.3403625488281 C 263.7564697265625 328.5380249023438 262.7385864257813 333.5799865722656 260.7311401367188 338.3261108398438 C 258.7920532226563 342.9106140136719 256.0160217285156 347.0280151367188 252.4801025390625 350.5639343261719 C 248.9441375732422 354.0998840332031 244.8267364501953 356.8759460449219 240.2422790527344 358.8150329589844 C 235.49609375 360.8224792480469 230.4541473388672 361.8403625488281 225.2564697265625 361.8403625488281 Z" stroke="none"/>
        <path d="M 39 0.999969482421875 C 33.86959838867188 0.999969482421875 28.8931884765625 2.00457763671875 24.20901489257813 3.985809326171875 C 19.68409729003906 5.899658203125 15.62010192871094 8.6397705078125 12.12991333007813 12.12994384765625 C 8.639785766601563 15.6201171875 5.899688720703125 19.68408203125 3.98583984375 24.208984375 C 2.004608154296875 28.89315795898438 1 33.86956787109375 1 38.99996948242188 L 1 323.34033203125 C 1 328.4707641601563 2.004608154296875 333.4471740722656 3.98583984375 338.13134765625 C 5.899688720703125 342.65625 8.639785766601563 346.72021484375 12.12991333007813 350.2103881835938 C 15.62010192871094 353.7005615234375 19.68409729003906 356.440673828125 24.20901489257813 358.3545227050781 C 28.8931884765625 360.3357543945313 33.86959838867188 361.3403625488281 39 361.3403625488281 L 225.2564697265625 361.3403625488281 C 230.3868713378906 361.3403625488281 235.36328125 360.3357543945313 240.0474548339844 358.3545227050781 C 244.5723724365234 356.440673828125 248.6363220214844 353.7005615234375 252.1265106201172 350.2103881835938 C 255.6166839599609 346.72021484375 258.3567810058594 342.65625 260.2706298828125 338.13134765625 C 262.2518615722656 333.4471740722656 263.2564697265625 328.4707641601563 263.2564697265625 323.34033203125 L 263.2564697265625 38.99996948242188 C 263.2564697265625 33.86956787109375 262.2518615722656 28.89315795898438 260.2706298828125 24.208984375 C 258.3567810058594 19.68408203125 255.6166839599609 15.6201171875 252.1265106201172 12.12994384765625 C 248.6363220214844 8.6397705078125 244.5723724365234 5.899658203125 240.0474548339844 3.985809326171875 C 235.36328125 2.00457763671875 230.3868713378906 0.999969482421875 225.2564697265625 0.999969482421875 L 39 0.999969482421875 M 39 -3.0517578125e-05 L 225.2564697265625 -3.0517578125e-05 C 246.7955474853516 -3.0517578125e-05 264.2564697265625 17.46090698242188 264.2564697265625 38.99996948242188 L 264.2564697265625 323.34033203125 C 264.2564697265625 344.8794250488281 246.7955474853516 362.3403625488281 225.2564697265625 362.3403625488281 L 39 362.3403625488281 C 17.46087646484375 362.3403625488281 0 344.8794250488281 0 323.34033203125 L 0 38.99996948242188 C 0 17.46090698242188 17.46087646484375 -3.0517578125e-05 39 -3.0517578125e-05 Z" stroke="none" fill="#44d62c"/>
      </g>
    </g>
    <path id="Trazado_7249" data-name="Trazado 7249" d="M-57.722-11.4V0h-3.559V-26.287h9q4.318,0,6.594,1.915a6.863,6.863,0,0,1,2.276,5.564,5.958,5.958,0,0,1-1.057,3.523,7.16,7.16,0,0,1-3.08,2.385,5.391,5.391,0,0,1,3.116,2.285A7.483,7.483,0,0,1-43.486-6.7v2.475a8.242,8.242,0,0,0,.271,2.2,3.3,3.3,0,0,0,.939,1.59V0h-3.667a2.944,2.944,0,0,1-.9-1.807,14.923,14.923,0,0,1-.2-2.457v-2.4A4.754,4.754,0,0,0-48.292-10.1a4.413,4.413,0,0,0-3.342-1.3Zm0-2.8h5.077A6.61,6.61,0,0,0-48.3-15.347a4.372,4.372,0,0,0,1.328-3.5,4.5,4.5,0,0,0-1.292-3.442,5.692,5.692,0,0,0-4.02-1.219h-5.438ZM-30.135.379A8.27,8.27,0,0,1-36.7-2.312,10.359,10.359,0,0,1-39.06-9.395v-.795a10.142,10.142,0,0,1,2.43-6.965,7.62,7.62,0,0,1,5.935-2.755,7.093,7.093,0,0,1,5.881,2.439,10.048,10.048,0,0,1,1.96,6.486v1.879h-12.5l-.054.09a8.08,8.08,0,0,0,1.3,4.779A4.545,4.545,0,0,0-30.135-2.4a8.953,8.953,0,0,0,3.171-.515,7.078,7.078,0,0,0,2.34-1.418l1.391,2.313A8.554,8.554,0,0,1-26-.316,11.012,11.012,0,0,1-30.135.379Zm-.56-17.488a3.869,3.869,0,0,0-3.08,1.436A6.8,6.8,0,0,0-35.266-12l.036.09h8.816v-.289a5.692,5.692,0,0,0-1.048-3.523A3.787,3.787,0,0,0-30.695-17.109ZM-11.093-2.4A4.185,4.185,0,0,0-8.22-3.5,3.454,3.454,0,0,0-6.992-6.179h3.216l.054.108A5.614,5.614,0,0,1-5.89-1.581a7.66,7.66,0,0,1-5.2,1.96,7.675,7.675,0,0,1-6.359-2.8,10.809,10.809,0,0,1-2.24-6.974v-.759A10.762,10.762,0,0,1-17.443-17.1a7.67,7.67,0,0,1,6.35-2.809,7.375,7.375,0,0,1,5.357,2.023,6.416,6.416,0,0,1,2.014,4.968l-.036.108H-6.992a4.314,4.314,0,0,0-1.165-3.044,3.835,3.835,0,0,0-2.936-1.256,4.11,4.11,0,0,0-3.821,2.032,9.513,9.513,0,0,0-1.2,4.923v.759a9.694,9.694,0,0,0,1.183,4.968A4.106,4.106,0,0,0-11.093-2.4ZM6.486-7.245l.632,2.457h.108l4.806-14.76h3.957L7.769,3A10.136,10.136,0,0,1,5.646,6.432,4.887,4.887,0,0,1,1.915,7.9a7.777,7.777,0,0,1-1.1-.1q-.668-.1-1.03-.19l.361-2.8a4.768,4.768,0,0,1,.641.036q.75.054.948.054A2.2,2.2,0,0,0,3.6,3.884a10.5,10.5,0,0,0,1.21-2.24L5.655-.4l-7.263-19.15H2.367ZM26.648-2.4A4.185,4.185,0,0,0,29.521-3.5a3.454,3.454,0,0,0,1.229-2.683h3.216l.054.108a5.614,5.614,0,0,1-2.168,4.49,7.66,7.66,0,0,1-5.2,1.96,7.675,7.675,0,0,1-6.359-2.8,10.809,10.809,0,0,1-2.24-6.974v-.759A10.762,10.762,0,0,1,20.3-17.1a7.67,7.67,0,0,1,6.35-2.809A7.375,7.375,0,0,1,32-17.886a6.416,6.416,0,0,1,2.014,4.968l-.036.108H30.749a4.314,4.314,0,0,0-1.165-3.044,3.835,3.835,0,0,0-2.936-1.256,4.11,4.11,0,0,0-3.821,2.032,9.513,9.513,0,0,0-1.2,4.923v.759a9.693,9.693,0,0,0,1.183,4.968A4.106,4.106,0,0,0,26.648-2.4ZM42.095,0H38.536V-28.184h3.559ZM55.663.379A8.27,8.27,0,0,1,49.1-2.312a10.359,10.359,0,0,1-2.358-7.082v-.795a10.142,10.142,0,0,1,2.43-6.965A7.62,7.62,0,0,1,55.1-19.909a7.093,7.093,0,0,1,5.881,2.439,10.048,10.048,0,0,1,1.96,6.486v1.879h-12.5l-.054.09a8.08,8.08,0,0,0,1.3,4.779A4.545,4.545,0,0,0,55.663-2.4a8.953,8.953,0,0,0,3.171-.515,7.078,7.078,0,0,0,2.34-1.418l1.391,2.313A8.554,8.554,0,0,1,59.8-.316,11.012,11.012,0,0,1,55.663.379ZM55.1-17.109a3.869,3.869,0,0,0-3.08,1.436A6.8,6.8,0,0,0,50.532-12l.036.09h8.816v-.289a5.692,5.692,0,0,0-1.048-3.523A3.787,3.787,0,0,0,55.1-17.109Z" transform="translate(205 271)" fill="#44d62c"/>
    <path id="Trazado_7248" data-name="Trazado 7248" d="M-78.335-7.129V0h-2.4V-17.773h6.8a6.265,6.265,0,0,1,4.425,1.465,5.011,5.011,0,0,1,1.581,3.857,5,5,0,0,1-1.581,3.87A6.3,6.3,0,0,1-73.94-7.129Zm0-1.88h4.395a3.487,3.487,0,0,0,2.7-.97,3.479,3.479,0,0,0,.891-2.448,3.532,3.532,0,0,0-.9-2.466,3.454,3.454,0,0,0-2.692-.989h-4.395Zm12.064,2.283a7.271,7.271,0,0,1,1.587-4.828,5.321,5.321,0,0,1,4.309-1.9,5.374,5.374,0,0,1,4.34,1.892,7.248,7.248,0,0,1,1.593,4.834v.269a7.236,7.236,0,0,1-1.587,4.834A5.358,5.358,0,0,1-60.35.256,5.368,5.368,0,0,1-64.678-1.63a7.224,7.224,0,0,1-1.593-4.828Zm2.4.269a6.265,6.265,0,0,0,.885,3.467A2.93,2.93,0,0,0-60.35-1.624a2.922,2.922,0,0,0,2.612-1.367,6.232,6.232,0,0,0,.891-3.467v-.269a6.213,6.213,0,0,0-.9-3.455,2.941,2.941,0,0,0-2.631-1.379,2.9,2.9,0,0,0-2.606,1.379,6.278,6.278,0,0,0-.885,3.455ZM-44.2-3.552a1.6,1.6,0,0,0-.6-1.294,5.832,5.832,0,0,0-2.289-.879,9.6,9.6,0,0,1-3.583-1.4,2.835,2.835,0,0,1-1.251-2.417A3.483,3.483,0,0,1-50.551-12.3a5.363,5.363,0,0,1,3.558-1.147,5.315,5.315,0,0,1,3.638,1.221,3.5,3.5,0,0,1,1.331,2.844l-.024.073h-2.295a2.08,2.08,0,0,0-.751-1.55,2.684,2.684,0,0,0-1.9-.7,2.736,2.736,0,0,0-1.9.574,1.79,1.79,0,0,0-.629,1.367,1.449,1.449,0,0,0,.543,1.208,6.013,6.013,0,0,0,2.24.781A9.466,9.466,0,0,1-43.05-6.177a2.925,2.925,0,0,1,1.257,2.454A3.478,3.478,0,0,1-43.214-.854,5.866,5.866,0,0,1-46.931.256a5.8,5.8,0,0,1-3.979-1.282A3.658,3.658,0,0,1-52.29-4.016l.024-.073h2.295a2.224,2.224,0,0,0,.952,1.874,3.684,3.684,0,0,0,2.087.592,3.288,3.288,0,0,0,2.008-.543A1.661,1.661,0,0,0-44.2-3.552Zm8.365-12.842v3.186h2.5v1.782h-2.5v8.02A1.8,1.8,0,0,0-35.447-2.1a1.39,1.39,0,0,0,1.019.378,2.234,2.234,0,0,0,.464-.055,3.441,3.441,0,0,0,.427-.116l.33,1.648A2.125,2.125,0,0,1-34,.116a4,4,0,0,1-1.038.14A3.114,3.114,0,0,1-37.37-.629a3.844,3.844,0,0,1-.867-2.777v-8.02h-2.1v-1.782h2.1v-3.186ZM-20.041-1.624A2.828,2.828,0,0,0-18.1-2.362a2.334,2.334,0,0,0,.83-1.813H-15.1l.037.073a3.793,3.793,0,0,1-1.465,3.033A5.176,5.176,0,0,1-20.041.256a5.186,5.186,0,0,1-4.3-1.892,7.3,7.3,0,0,1-1.514-4.712V-6.86a7.271,7.271,0,0,1,1.52-4.694,5.182,5.182,0,0,1,4.291-1.9,4.983,4.983,0,0,1,3.619,1.367,4.335,4.335,0,0,1,1.361,3.357l-.024.073H-17.27a2.915,2.915,0,0,0-.787-2.057,2.591,2.591,0,0,0-1.984-.848,2.777,2.777,0,0,0-2.582,1.373,6.428,6.428,0,0,0-.812,3.326v.513a6.55,6.55,0,0,0,.8,3.357A2.775,2.775,0,0,0-20.041-1.624Zm6.9-5.1a7.271,7.271,0,0,1,1.587-4.828,5.321,5.321,0,0,1,4.309-1.9,5.374,5.374,0,0,1,4.34,1.892A7.248,7.248,0,0,1-1.312-6.726v.269A7.236,7.236,0,0,1-2.9-1.624,5.358,5.358,0,0,1-7.22.256,5.368,5.368,0,0,1-11.548-1.63a7.224,7.224,0,0,1-1.593-4.828Zm2.4.269a6.265,6.265,0,0,0,.885,3.467A2.93,2.93,0,0,0-7.22-1.624,2.922,2.922,0,0,0-4.608-2.991a6.232,6.232,0,0,0,.891-3.467v-.269a6.213,6.213,0,0,0-.9-3.455A2.941,2.941,0,0,0-7.245-11.56a2.9,2.9,0,0,0-2.606,1.379,6.278,6.278,0,0,0-.885,3.455ZM3.4-13.208l.171,1.965a4.8,4.8,0,0,1,1.654-1.63,4.413,4.413,0,0,1,2.264-.58A4.311,4.311,0,0,1,10.8-12.2a5.493,5.493,0,0,1,1.172,3.864V0h-2.4V-8.289a3.573,3.573,0,0,0-.69-2.478A2.763,2.763,0,0,0,6.772-11.5a3.728,3.728,0,0,0-1.886.446A3.238,3.238,0,0,0,3.659-9.8V0h-2.4V-13.208ZM22.767-3.552a1.6,1.6,0,0,0-.6-1.294,5.832,5.832,0,0,0-2.289-.879,9.6,9.6,0,0,1-3.583-1.4A2.835,2.835,0,0,1,15.04-9.546,3.483,3.483,0,0,1,16.413-12.3a5.363,5.363,0,0,1,3.558-1.147,5.315,5.315,0,0,1,3.638,1.221A3.5,3.5,0,0,1,24.94-9.387l-.024.073H22.62a2.08,2.08,0,0,0-.751-1.55,2.684,2.684,0,0,0-1.9-.7,2.736,2.736,0,0,0-1.9.574,1.79,1.79,0,0,0-.629,1.367,1.449,1.449,0,0,0,.543,1.208,6.013,6.013,0,0,0,2.24.781,9.466,9.466,0,0,1,3.687,1.453,2.925,2.925,0,0,1,1.257,2.454A3.478,3.478,0,0,1,23.75-.854,5.866,5.866,0,0,1,20.032.256a5.8,5.8,0,0,1-3.979-1.282,3.658,3.658,0,0,1-1.379-2.991l.024-.073h2.295a2.224,2.224,0,0,0,.952,1.874,3.684,3.684,0,0,0,2.087.592,3.288,3.288,0,0,0,2.008-.543A1.661,1.661,0,0,0,22.767-3.552Zm13.407,1.6a4.473,4.473,0,0,1-1.6,1.636,4.375,4.375,0,0,1-2.258.574,4.243,4.243,0,0,1-3.369-1.379,6.4,6.4,0,0,1-1.208-4.3v-7.788h2.4V-5.4a4.917,4.917,0,0,0,.623,2.905,2.315,2.315,0,0,0,1.941.793,3.955,3.955,0,0,0,2.118-.519,3.246,3.246,0,0,0,1.263-1.471v-9.521h2.4V0H36.332Zm7.6-11.255.171,1.733a4.486,4.486,0,0,1,1.642-1.459,4.934,4.934,0,0,1,2.313-.519,4.086,4.086,0,0,1,2.264.61,3.692,3.692,0,0,1,1.422,1.831A4.941,4.941,0,0,1,53.236-12.8a4.327,4.327,0,0,1,2.386-.653,3.954,3.954,0,0,1,3.186,1.385A6.33,6.33,0,0,1,59.981-7.9V0h-2.4V-7.922a4.39,4.39,0,0,0-.671-2.765,2.448,2.448,0,0,0-2-.812,2.549,2.549,0,0,0-2,.854,3.72,3.72,0,0,0-.9,2.161V0H49.593V-7.922a4.331,4.331,0,0,0-.69-2.716,2.394,2.394,0,0,0-1.984-.861,3.3,3.3,0,0,0-1.807.452,2.918,2.918,0,0,0-1.086,1.27V0h-2.4V-13.208ZM68.566.256a5.588,5.588,0,0,1-4.437-1.819,7,7,0,0,1-1.593-4.785v-.537a6.853,6.853,0,0,1,1.642-4.706,5.149,5.149,0,0,1,4.01-1.862A4.793,4.793,0,0,1,72.161-11.8a6.789,6.789,0,0,1,1.324,4.382v1.27H65.038L65-6.091a5.459,5.459,0,0,0,.879,3.229,3.071,3.071,0,0,0,2.686,1.239,6.049,6.049,0,0,0,2.142-.348,4.782,4.782,0,0,0,1.581-.958l.94,1.563A5.78,5.78,0,0,1,71.361-.214,7.44,7.44,0,0,1,68.566.256ZM68.187-11.56a2.614,2.614,0,0,0-2.081.97A4.591,4.591,0,0,0,65.1-8.105l.024.061H71.08v-.2a3.846,3.846,0,0,0-.708-2.38A2.559,2.559,0,0,0,68.187-11.56Zm13.871.476-1.233-.073a2.754,2.754,0,0,0-1.605.452,2.9,2.9,0,0,0-1.007,1.27V0h-2.4V-13.208h2.148l.232,1.929a4.585,4.585,0,0,1,1.385-1.6,3.24,3.24,0,0,1,1.9-.574,2.971,2.971,0,0,1,.513.043,3.4,3.4,0,0,1,.4.092ZM-100.389,24.871V32h-2.4V14.227h6.8a6.265,6.265,0,0,1,4.425,1.465,5.011,5.011,0,0,1,1.581,3.857,5,5,0,0,1-1.581,3.87,6.3,6.3,0,0,1-4.425,1.453Zm0-1.88h4.395a3.487,3.487,0,0,0,2.7-.97,3.479,3.479,0,0,0,.891-2.448,3.532,3.532,0,0,0-.9-2.466,3.454,3.454,0,0,0-2.692-.989h-4.395Zm22.818.769h-7.3v6.36h8.545V32h-10.95V14.227H-76.46v1.892h-8.411v5.75h7.3Zm16.141-7.642h-5.859V32h-2.4V16.119H-75.48V14.227h14.05Zm11.005-.513v3.186h2.5v1.782h-2.5v8.02A1.8,1.8,0,0,0-50.04,29.9a1.39,1.39,0,0,0,1.019.378,2.234,2.234,0,0,0,.464-.055,3.441,3.441,0,0,0,.427-.116l.33,1.648a2.125,2.125,0,0,1-.793.36,4,4,0,0,1-1.038.14,3.114,3.114,0,0,1-2.332-.885,3.844,3.844,0,0,1-.867-2.777v-8.02h-2.1V18.792h2.1V15.606Zm10.953,5.31-1.233-.073a2.754,2.754,0,0,0-1.605.452,2.9,2.9,0,0,0-1.007,1.27V32h-2.4V18.792h2.148l.232,1.929a4.585,4.585,0,0,1,1.385-1.6,3.24,3.24,0,0,1,1.9-.574,2.971,2.971,0,0,1,.513.043,3.4,3.4,0,0,1,.4.092ZM-29.226,32q-.122-.6-.189-1.056a7.75,7.75,0,0,1-.079-.922,5.607,5.607,0,0,1-1.752,1.593,4.48,4.48,0,0,1-2.325.641A4.317,4.317,0,0,1-36.715,31.2a3.884,3.884,0,0,1-1.08-2.911,3.411,3.411,0,0,1,1.532-2.96,7.155,7.155,0,0,1,4.156-1.068h2.612V22.955a2.423,2.423,0,0,0-.708-1.837,2.78,2.78,0,0,0-2-.677,2.9,2.9,0,0,0-1.892.586,1.758,1.758,0,0,0-.72,1.4l-2.283.024-.024-.073a3.161,3.161,0,0,1,1.349-2.637,5.59,5.59,0,0,1,3.7-1.2,5.454,5.454,0,0,1,3.613,1.141,4.043,4.043,0,0,1,1.367,3.29v6.36a12.38,12.38,0,0,0,.073,1.367A7.03,7.03,0,0,0-26.748,32Zm-3.992-1.758a4.28,4.28,0,0,0,2.356-.671,3.191,3.191,0,0,0,1.367-1.538V25.884h-2.7a3.5,3.5,0,0,0-2.325.732,2.19,2.19,0,0,0-.873,1.721,1.811,1.811,0,0,0,.549,1.392A2.3,2.3,0,0,0-33.218,30.242Zm11.393-11.45.171,1.965A4.8,4.8,0,0,1-20,19.128a4.413,4.413,0,0,1,2.264-.58A4.311,4.311,0,0,1-14.428,19.8a5.493,5.493,0,0,1,1.172,3.864V32h-2.4V23.711a3.573,3.573,0,0,0-.69-2.478,2.763,2.763,0,0,0-2.106-.732,3.728,3.728,0,0,0-1.886.446A3.238,3.238,0,0,0-21.569,22.2V32h-2.4V18.792Zm19.364,9.656a1.6,1.6,0,0,0-.6-1.294,5.832,5.832,0,0,0-2.289-.879,9.6,9.6,0,0,1-3.583-1.4,2.835,2.835,0,0,1-1.251-2.417A3.483,3.483,0,0,1-8.815,19.7a5.363,5.363,0,0,1,3.558-1.147,5.315,5.315,0,0,1,3.638,1.221A3.5,3.5,0,0,1-.289,22.613l-.024.073H-2.608a2.08,2.08,0,0,0-.751-1.55,2.684,2.684,0,0,0-1.9-.7,2.736,2.736,0,0,0-1.9.574,1.79,1.79,0,0,0-.629,1.367,1.449,1.449,0,0,0,.543,1.208A6.013,6.013,0,0,0-5,24.371a9.466,9.466,0,0,1,3.687,1.453A2.925,2.925,0,0,1-.057,28.277a3.478,3.478,0,0,1-1.422,2.869A5.866,5.866,0,0,1-5.2,32.256a5.8,5.8,0,0,1-3.979-1.282,3.658,3.658,0,0,1-1.379-2.991l.024-.073h2.295a2.224,2.224,0,0,0,.952,1.874,3.684,3.684,0,0,0,2.087.592,3.288,3.288,0,0,0,2.008-.543A1.661,1.661,0,0,0-2.461,28.448ZM3.56,32V20.574H1.5V18.792H3.56V17.12a4.533,4.533,0,0,1,1.1-3.265A4.066,4.066,0,0,1,7.747,12.7a5.3,5.3,0,0,1,.836.067q.421.067.934.189l-.293,1.831Q9,14.739,8.693,14.7a5.592,5.592,0,0,0-.653-.037,1.9,1.9,0,0,0-1.562.629,2.827,2.827,0,0,0-.513,1.825v1.672H8.357v1.782H5.965V32Zm6.29-6.726a7.271,7.271,0,0,1,1.587-4.828,5.321,5.321,0,0,1,4.309-1.9,5.374,5.374,0,0,1,4.34,1.892,7.248,7.248,0,0,1,1.593,4.834v.269a7.236,7.236,0,0,1-1.587,4.834,5.358,5.358,0,0,1-4.321,1.88,5.368,5.368,0,0,1-4.327-1.886A7.224,7.224,0,0,1,9.85,25.542Zm2.4.269a6.265,6.265,0,0,0,.885,3.467,2.93,2.93,0,0,0,2.631,1.367,2.922,2.922,0,0,0,2.612-1.367,6.232,6.232,0,0,0,.891-3.467v-.269a6.213,6.213,0,0,0-.9-3.455,2.941,2.941,0,0,0-2.631-1.379,2.9,2.9,0,0,0-2.606,1.379,6.278,6.278,0,0,0-.885,3.455ZM30.5,20.916l-1.233-.073a2.754,2.754,0,0,0-1.605.452,2.9,2.9,0,0,0-1.007,1.27V32h-2.4V18.792h2.148l.232,1.929a4.585,4.585,0,0,1,1.385-1.6,3.24,3.24,0,0,1,1.9-.574,2.971,2.971,0,0,1,.513.043,3.4,3.4,0,0,1,.4.092Zm4.276-2.124.171,1.733a4.486,4.486,0,0,1,1.642-1.459,4.934,4.934,0,0,1,2.313-.519,4.086,4.086,0,0,1,2.264.61,3.692,3.692,0,0,1,1.422,1.831A4.941,4.941,0,0,1,44.238,19.2a4.327,4.327,0,0,1,2.386-.653,3.954,3.954,0,0,1,3.186,1.385A6.33,6.33,0,0,1,50.982,24.1V32h-2.4V24.078a4.39,4.39,0,0,0-.671-2.765,2.448,2.448,0,0,0-2-.812,2.549,2.549,0,0,0-2,.854,3.72,3.72,0,0,0-.9,2.161V32H40.594V24.078a4.331,4.331,0,0,0-.69-2.716,2.394,2.394,0,0,0-1.984-.861,3.3,3.3,0,0,0-1.807.452,2.918,2.918,0,0,0-1.086,1.27V32h-2.4V18.792Zm24.8,13.464a5.588,5.588,0,0,1-4.437-1.819,7,7,0,0,1-1.593-4.785v-.537a6.853,6.853,0,0,1,1.642-4.706,5.149,5.149,0,0,1,4.01-1.862A4.793,4.793,0,0,1,63.162,20.2a6.789,6.789,0,0,1,1.324,4.382v1.27H56.04L56,25.909a5.459,5.459,0,0,0,.879,3.229,3.071,3.071,0,0,0,2.686,1.239,6.049,6.049,0,0,0,2.142-.348,4.782,4.782,0,0,0,1.581-.958l.94,1.563a5.78,5.78,0,0,1-1.868,1.154A7.44,7.44,0,0,1,59.567,32.256ZM59.189,20.44a2.614,2.614,0,0,0-2.081.97A4.591,4.591,0,0,0,56.1,23.895l.024.061h5.957v-.2a3.846,3.846,0,0,0-.708-2.38A2.559,2.559,0,0,0,59.189,20.44Zm7.071,5.2A8.814,8.814,0,0,1,67.621,20.5a4.385,4.385,0,0,1,3.815-1.953,4.73,4.73,0,0,1,2.057.427,4.216,4.216,0,0,1,1.532,1.245V12.957h2.4V32H75.586l-.366-1.672a4.286,4.286,0,0,1-1.6,1.44,4.777,4.777,0,0,1-2.209.488A4.533,4.533,0,0,1,67.627,30.5,7.28,7.28,0,0,1,66.26,25.9Zm2.4.256a5.607,5.607,0,0,0,.818,3.2,2.856,2.856,0,0,0,2.539,1.2,3.185,3.185,0,0,0,1.807-.488,3.646,3.646,0,0,0,1.2-1.367V22.283a3.7,3.7,0,0,0-1.2-1.3,3.177,3.177,0,0,0-1.776-.482,2.749,2.749,0,0,0-2.557,1.428,7.372,7.372,0,0,0-.824,3.711ZM89.082,32h-2.4V18.792h2.4Zm0-16.589h-2.4V12.957h2.4Zm5.472,3.381.171,1.965a4.8,4.8,0,0,1,1.654-1.63,4.413,4.413,0,0,1,2.264-.58,4.311,4.311,0,0,1,3.308,1.251,5.493,5.493,0,0,1,1.172,3.864V32h-2.4V23.711a3.573,3.573,0,0,0-.69-2.478,2.763,2.763,0,0,0-2.106-.732,3.728,3.728,0,0,0-1.886.446A3.238,3.238,0,0,0,94.811,22.2V32h-2.4V18.792Zm-185.884,32,.171,1.965a4.8,4.8,0,0,1,1.654-1.63,4.413,4.413,0,0,1,2.264-.58A4.311,4.311,0,0,1-83.932,51.8a5.493,5.493,0,0,1,1.172,3.864V64h-2.4V55.711a3.573,3.573,0,0,0-.69-2.478,2.763,2.763,0,0,0-2.106-.732,3.728,3.728,0,0,0-1.886.446A3.238,3.238,0,0,0-91.073,54.2V64h-2.4V50.792Zm17.154,13.464a5.588,5.588,0,0,1-4.437-1.819,7,7,0,0,1-1.593-4.785v-.537a6.853,6.853,0,0,1,1.642-4.706,5.149,5.149,0,0,1,4.01-1.862A4.793,4.793,0,0,1-70.581,52.2a6.789,6.789,0,0,1,1.324,4.382v1.27H-77.7l-.037.061a5.459,5.459,0,0,0,.879,3.229,3.071,3.071,0,0,0,2.686,1.239,6.049,6.049,0,0,0,2.142-.348,4.782,4.782,0,0,0,1.581-.958l.94,1.563a5.78,5.78,0,0,1-1.868,1.154A7.44,7.44,0,0,1-74.176,64.256Zm-.378-11.816a2.614,2.614,0,0,0-2.081.97,4.591,4.591,0,0,0-1.007,2.484l.024.061h5.957v-.2a3.846,3.846,0,0,0-.708-2.38A2.559,2.559,0,0,0-74.554,52.44Zm11,6.75.305,1.7h.073l.317-1.7,2.637-8.4h1.929l2.649,8.4.342,1.892h.073l.391-1.892,1.953-8.4h2.515L-54.2,64h-1.941l-2.612-8.044-.5-2.1h-.073l-.464,2.1L-62.356,64H-64.3L-68.13,50.792h2.5ZM-36.3,52.916l-1.233-.073a2.754,2.754,0,0,0-1.605.452,2.9,2.9,0,0,0-1.007,1.27V64h-2.4V50.792H-40.4l.232,1.929a4.585,4.585,0,0,1,1.385-1.6,3.24,3.24,0,0,1,1.9-.574,2.971,2.971,0,0,1,.513.043,3.4,3.4,0,0,1,.4.092Zm4.862,3.955V64h-2.4V46.227h6.8a6.265,6.265,0,0,1,4.425,1.465,5.011,5.011,0,0,1,1.581,3.857,5,5,0,0,1-1.581,3.87,6.3,6.3,0,0,1-4.425,1.453Zm0-1.88h4.395a3.487,3.487,0,0,0,2.7-.97,3.479,3.479,0,0,0,.891-2.448,3.532,3.532,0,0,0-.9-2.466,3.454,3.454,0,0,0-2.692-.989h-4.395Zm22.818.769h-7.3v6.36h8.545V64h-10.95V46.227H-7.508v1.892h-8.411v5.75h7.3ZM7.522,48.119H1.663V64h-2.4V48.119H-6.528V46.227H7.522ZM26.462,57.9A7.257,7.257,0,0,1,25.089,62.5a4.537,4.537,0,0,1-3.778,1.752,4.787,4.787,0,0,1-2.289-.519,4.248,4.248,0,0,1-1.605-1.532L17.026,64H15.183V44.957h2.4v7.4a4.173,4.173,0,0,1,1.544-1.343,4.734,4.734,0,0,1,2.155-.464A4.389,4.389,0,0,1,25.095,52.5a8.785,8.785,0,0,1,1.367,5.139Zm-2.4-.256a7.291,7.291,0,0,0-.836-3.7A2.753,2.753,0,0,0,20.676,52.5a3.147,3.147,0,0,0-1.874.543A3.831,3.831,0,0,0,17.588,54.5v5.725A3.932,3.932,0,0,0,18.8,61.754a3.131,3.131,0,0,0,1.9.549,2.857,2.857,0,0,0,2.527-1.208,5.55,5.55,0,0,0,.83-3.2Zm4.4-.366a7.271,7.271,0,0,1,1.587-4.828,5.321,5.321,0,0,1,4.309-1.9,5.374,5.374,0,0,1,4.34,1.892,7.248,7.248,0,0,1,1.593,4.834v.269A7.236,7.236,0,0,1,38.7,62.376a5.358,5.358,0,0,1-4.321,1.88,5.368,5.368,0,0,1-4.327-1.886,7.224,7.224,0,0,1-1.593-4.828Zm2.4.269a6.265,6.265,0,0,0,.885,3.467,3.2,3.2,0,0,0,5.243,0,6.232,6.232,0,0,0,.891-3.467v-.269a6.213,6.213,0,0,0-.9-3.455,2.941,2.941,0,0,0-2.631-1.379,2.9,2.9,0,0,0-2.606,1.379,6.278,6.278,0,0,0-.885,3.455ZM46.2,47.606v3.186h2.5v1.782H46.2v8.02A1.8,1.8,0,0,0,46.58,61.9a1.39,1.39,0,0,0,1.019.378,2.234,2.234,0,0,0,.464-.055,3.44,3.44,0,0,0,.427-.116l.33,1.648a2.125,2.125,0,0,1-.793.36,4,4,0,0,1-1.038.14,3.114,3.114,0,0,1-2.332-.885,3.844,3.844,0,0,1-.867-2.777v-8.02h-2.1V50.792h2.1V47.606Zm8.048,0v3.186h2.5v1.782h-2.5v8.02a1.8,1.8,0,0,0,.385,1.306,1.39,1.39,0,0,0,1.019.378,2.234,2.234,0,0,0,.464-.055,3.44,3.44,0,0,0,.427-.116l.33,1.648a2.125,2.125,0,0,1-.793.36,4,4,0,0,1-1.038.14,3.114,3.114,0,0,1-2.332-.885,3.844,3.844,0,0,1-.867-2.777v-8.02h-2.1V50.792h2.1V47.606ZM61.547,64h-2.4V44.957h2.4Zm8.792.256A5.588,5.588,0,0,1,65.9,62.438a7,7,0,0,1-1.593-4.785v-.537a6.853,6.853,0,0,1,1.642-4.706,5.149,5.149,0,0,1,4.01-1.862A4.793,4.793,0,0,1,73.934,52.2a6.789,6.789,0,0,1,1.324,4.382v1.27H66.811l-.037.061a5.459,5.459,0,0,0,.879,3.229,3.071,3.071,0,0,0,2.686,1.239,6.049,6.049,0,0,0,2.142-.348,4.782,4.782,0,0,0,1.581-.958L75,62.633a5.78,5.78,0,0,1-1.868,1.154A7.44,7.44,0,0,1,70.339,64.256ZM69.961,52.44a2.614,2.614,0,0,0-2.081.97,4.591,4.591,0,0,0-1.007,2.484l.024.061h5.957v-.2a3.846,3.846,0,0,0-.708-2.38A2.559,2.559,0,0,0,69.961,52.44Zm15.3,8.008a1.6,1.6,0,0,0-.6-1.294,5.832,5.832,0,0,0-2.289-.879,9.6,9.6,0,0,1-3.583-1.4,2.835,2.835,0,0,1-1.251-2.417A3.483,3.483,0,0,1,78.906,51.7a6.06,6.06,0,0,1,7.2.073,3.5,3.5,0,0,1,1.331,2.844l-.024.073H85.113a2.08,2.08,0,0,0-.751-1.55,2.684,2.684,0,0,0-1.9-.7,2.736,2.736,0,0,0-1.9.574,1.79,1.79,0,0,0-.629,1.367,1.449,1.449,0,0,0,.543,1.208,6.013,6.013,0,0,0,2.24.781,9.466,9.466,0,0,1,3.687,1.453,2.925,2.925,0,0,1,1.257,2.454,3.478,3.478,0,0,1-1.422,2.869,5.866,5.866,0,0,1-3.717,1.111,5.8,5.8,0,0,1-3.979-1.282,3.658,3.658,0,0,1-1.379-2.991l.024-.073h2.295a2.224,2.224,0,0,0,.952,1.874,3.684,3.684,0,0,0,2.087.592,3.288,3.288,0,0,0,2.008-.543A1.661,1.661,0,0,0,85.26,60.448ZM92.9,64H90.5V61.534h2.4Z" transform="translate(205 320)" fill="#a2a2a2"/>
    <g transform="matrix(1, 0, 0, 1, 0, 0)" filter="url(#Trazado_7250)">
      <path id="Trazado_7250-2" data-name="Trazado 7250" d="M75.084,0a75.084,75.084,0,0,1,75.084,75.084v.139A75.084,75.084,0,0,1,0,75.223v-.139A75.084,75.084,0,0,1,75.084,0Z" transform="translate(126 69.66)" fill="#44d62c"/>
    </g>
    <path id="Trazado_6133" data-name="Trazado 6133" d="M-122.123,4798.574l.233.867a1.7,1.7,0,0,0,2.077,1.2,1.7,1.7,0,0,0,1.2-2.077l-1.242-4.633a1.7,1.7,0,0,0-2.077-1.2l-4.634,1.241a1.7,1.7,0,0,0-1.2,2.077,1.7,1.7,0,0,0,2.077,1.2l.474-.127-3.138,5.021a5.087,5.087,0,0,0,4.314,7.784h1.247a1.7,1.7,0,0,0,1.7-1.7,1.7,1.7,0,0,0-1.7-1.7h-1.247a1.7,1.7,0,0,1-1.438-2.595Z" transform="translate(314.422 -4643.496)" fill="#fff"/>
    <path id="Trazado_6134" data-name="Trazado 6134" d="M-28.308,4840.645l-.5-.808a1.7,1.7,0,0,0-2.337-.538,1.7,1.7,0,0,0-.538,2.337l.5.806a1.7,1.7,0,0,1-1.438,2.595h-6.746l.5-.5a1.7,1.7,0,0,0,0-2.4,1.7,1.7,0,0,0-2.4,0l-3.392,3.392a1.7,1.7,0,0,0,0,2.4l3.392,3.393a1.7,1.7,0,0,0,2.4,0,1.7,1.7,0,0,0,0-2.4l-.5-.5h6.746A5.087,5.087,0,0,0-28.308,4840.645Z" transform="translate(244.688 -4681.999)" fill="#fff"/>
    <path id="Trazado_6135" data-name="Trazado 6135" d="M-58,4742.426a1.7,1.7,0,0,0,1.2,2.076l4.634,1.242a.021.021,0,0,1,.011,0,1.7,1.7,0,0,0,2.066-1.2l1.242-4.633a1.7,1.7,0,0,0-1.2-2.078,1.7,1.7,0,0,0-2.078,1.2l-.232.866-3.354-5.365a5.089,5.089,0,0,0-8.629,0l-.5.806a1.7,1.7,0,0,0,.539,2.337,1.7,1.7,0,0,0,2.337-.539l.5-.806a1.7,1.7,0,0,1,2.877,0l3.138,5.02-.474-.127A1.7,1.7,0,0,0-58,4742.426Z" transform="translate(261.249 -4593.233)" fill="#fff"/>
    <path id="Trazado_6136" data-name="Trazado 6136" d="M-185.311,4595.239h8.075a5.11,5.11,0,0,0,5.039-4.389l7.49-55.432a5.1,5.1,0,0,0,3.988-4.967,5.1,5.1,0,0,0-4.375-5.037l-5.086-13.694a5.109,5.109,0,0,0-4.77-3.317h-35.987a5.109,5.109,0,0,0-4.77,3.317l-5.086,13.694a5.1,5.1,0,0,0-4.375,5.037,5.1,5.1,0,0,0,3.988,4.967l7.492,55.44a5.107,5.107,0,0,0,5.038,4.381h8.075a1.7,1.7,0,0,0,1.7-1.7,1.7,1.7,0,0,0-1.7-1.7h-8.075a1.7,1.7,0,0,1-1.678-1.452l-7.413-54.857h49.595l-7.412,54.849a1.7,1.7,0,0,1-1.679,1.46h-8.075a1.7,1.7,0,0,0-1.7,1.7A1.7,1.7,0,0,0-185.311,4595.239Zm-19.5-83.445h23.745v6.785h-23.745Zm-7.711,1.106a1.7,1.7,0,0,1,1.59-1.106h2.729v8.48a1.7,1.7,0,0,0,1.7,1.7h27.137a1.7,1.7,0,0,0,1.7-1.7v-8.48h2.729a1.7,1.7,0,0,1,1.59,1.106l4.629,12.462h-48.425Zm-7.553,15.854h54.274a1.7,1.7,0,0,1,1.7,1.7,1.7,1.7,0,0,1-1.7,1.7H-220.08a1.7,1.7,0,0,1-1.7-1.7A1.7,1.7,0,0,1-220.08,4528.754Z" transform="translate(394.168 -4407.439)" fill="#fff"/>
    <path id="Trazado_6137" data-name="Trazado 6137" d="M-41.776,5002.1a1.7,1.7,0,0,1-1.7,1.7,1.7,1.7,0,0,1-1.7-1.7,1.7,1.7,0,0,1,1.7-1.7A1.7,1.7,0,0,1-41.776,5002.1Z" transform="translate(244.697 -4815.993)" fill="#fff"/>
  </g>
</svg>
