<svg xmlns="http://www.w3.org/2000/svg" xmlns:xlink="http://www.w3.org/1999/xlink" width="403" height="501" viewBox="0 0 403 501">
  <defs>
    <filter id="Trazado_7243" x="0" y="0" width="402.257" height="500.34" filterUnits="userSpaceOnUse">
      <feOffset dy="20" input="SourceAlpha"/>
      <feGaussianBlur stdDeviation="23" result="blur"/>
      <feFlood flood-color="#010101" flood-opacity="0.129"/>
      <feComposite operator="in" in2="blur"/>
      <feComposite in="SourceGraphic"/>
    </filter>
    <filter id="Trazado_7244" x="81" y="33.66" width="240.168" height="240.306" filterUnits="userSpaceOnUse">
      <feOffset dy="9" input="SourceAlpha"/>
      <feGaussianBlur stdDeviation="15" result="blur-2"/>
      <feFlood flood-color="#010101" flood-opacity="0.122"/>
      <feComposite operator="in" in2="blur-2"/>
      <feComposite in="SourceGraphic"/>
    </filter>
    <clipPath id="clip-Reduce-path">
      <rect width="403" height="501"/>
    </clipPath>
  </defs>
  <g id="Reduce-path" clip-path="url(#clip-Reduce-path)">
    <g transform="matrix(1, 0, 0, 1, 0, 0)" filter="url(#Trazado_7243)">
      <g id="Trazado_7243-2" data-name="Trazado 7243" transform="translate(69 49)" fill="#fff" opacity="0.7">
        <path d="M 225.2564697265625 361.8403625488281 L 39.00000762939453 361.8403625488281 C 33.80232620239258 361.8403625488281 28.76037216186523 360.8224792480469 24.01423454284668 358.8150329589844 C 19.42973518371582 356.8759460449219 15.3123254776001 354.0998840332031 11.77641677856445 350.5639343261719 C 8.240462303161621 347.0280151367188 5.46441650390625 342.9106140136719 3.525325775146484 338.3261108398438 C 1.517871260643005 333.5799865722656 0.5000075697898865 328.5380249023438 0.5000075697898865 323.3403625488281 L 0.5000075697898865 38.99998474121094 C 0.5000075697898865 33.80230331420898 1.517871260643005 28.76034736633301 3.525325775146484 24.01421165466309 C 5.46441650390625 19.42971229553223 8.240462303161621 15.3123025894165 11.77641677856445 11.77639293670654 C 15.3123254776001 8.240438461303711 19.42973518371582 5.464393138885498 24.01423454284668 3.525302410125732 C 28.76037216186523 1.517847776412964 33.80232620239258 0.4999842047691345 39.00000762939453 0.4999842047691345 L 225.2564697265625 0.4999842047691345 C 230.4541473388672 0.4999842047691345 235.49609375 1.517847776412964 240.2422790527344 3.525302410125732 C 244.8267364501953 5.464393138885498 248.9441375732422 8.240438461303711 252.4801025390625 11.77639293670654 C 256.0160217285156 15.3123025894165 258.7920532226563 19.42971229553223 260.7311401367188 24.01421165466309 C 262.7385864257813 28.76034736633301 263.7564697265625 33.80230331420898 263.7564697265625 38.99998474121094 L 263.7564697265625 323.3403625488281 C 263.7564697265625 328.5380249023438 262.7385864257813 333.5799865722656 260.7311401367188 338.3261108398438 C 258.7920532226563 342.9106140136719 256.0160217285156 347.0280151367188 252.4801025390625 350.5639343261719 C 248.9441375732422 354.0998840332031 244.8267364501953 356.8759460449219 240.2422790527344 358.8150329589844 C 235.49609375 360.8224792480469 230.4541473388672 361.8403625488281 225.2564697265625 361.8403625488281 Z" stroke="none"/>
        <path d="M 39 0.999969482421875 C 33.86959838867188 0.999969482421875 28.8931884765625 2.00457763671875 24.20901489257813 3.985809326171875 C 19.68409729003906 5.899658203125 15.62010192871094 8.6397705078125 12.12991333007813 12.12994384765625 C 8.639785766601563 15.6201171875 5.899688720703125 19.68408203125 3.98583984375 24.208984375 C 2.004608154296875 28.89315795898438 1 33.86956787109375 1 38.99996948242188 L 1 323.34033203125 C 1 328.4707641601563 2.004608154296875 333.4471740722656 3.98583984375 338.13134765625 C 5.899688720703125 342.65625 8.639785766601563 346.72021484375 12.12991333007813 350.2103881835938 C 15.62010192871094 353.7005615234375 19.68409729003906 356.440673828125 24.20901489257813 358.3545227050781 C 28.8931884765625 360.3357543945313 33.86959838867188 361.3403625488281 39 361.3403625488281 L 225.2564697265625 361.3403625488281 C 230.3868713378906 361.3403625488281 235.36328125 360.3357543945313 240.0474548339844 358.3545227050781 C 244.5723724365234 356.440673828125 248.6363220214844 353.7005615234375 252.1265106201172 350.2103881835938 C 255.6166839599609 346.72021484375 258.3567810058594 342.65625 260.2706298828125 338.13134765625 C 262.2518615722656 333.4471740722656 263.2564697265625 328.4707641601563 263.2564697265625 323.34033203125 L 263.2564697265625 38.99996948242188 C 263.2564697265625 33.86956787109375 262.2518615722656 28.89315795898438 260.2706298828125 24.208984375 C 258.3567810058594 19.68408203125 255.6166839599609 15.6201171875 252.1265106201172 12.12994384765625 C 248.6363220214844 8.6397705078125 244.5723724365234 5.899658203125 240.0474548339844 3.985809326171875 C 235.36328125 2.00457763671875 230.3868713378906 0.999969482421875 225.2564697265625 0.999969482421875 L 39 0.999969482421875 M 39 -3.0517578125e-05 L 225.2564697265625 -3.0517578125e-05 C 246.7955474853516 -3.0517578125e-05 264.2564697265625 17.46090698242188 264.2564697265625 38.99996948242188 L 264.2564697265625 323.34033203125 C 264.2564697265625 344.8794250488281 246.7955474853516 362.3403625488281 225.2564697265625 362.3403625488281 L 39 362.3403625488281 C 17.46087646484375 362.3403625488281 0 344.8794250488281 0 323.34033203125 L 0 38.99996948242188 C 0 17.46090698242188 17.46087646484375 -3.0517578125e-05 39 -3.0517578125e-05 Z" stroke="none" fill="#44d62c"/>
      </g>
    </g>
    <path id="Trazado_7245" data-name="Trazado 7245" d="M-55.22-11.4V0h-3.559V-26.287h9q4.318,0,6.594,1.915a6.863,6.863,0,0,1,2.276,5.564,5.958,5.958,0,0,1-1.057,3.523,7.16,7.16,0,0,1-3.08,2.385,5.391,5.391,0,0,1,3.116,2.285A7.483,7.483,0,0,1-40.984-6.7v2.475a8.242,8.242,0,0,0,.271,2.2,3.3,3.3,0,0,0,.939,1.59V0h-3.667a2.944,2.944,0,0,1-.9-1.807,14.923,14.923,0,0,1-.2-2.457v-2.4A4.754,4.754,0,0,0-45.789-10.1a4.413,4.413,0,0,0-3.342-1.3Zm0-2.8h5.077A6.61,6.61,0,0,0-45.8-15.347a4.372,4.372,0,0,0,1.328-3.5,4.5,4.5,0,0,0-1.292-3.442,5.692,5.692,0,0,0-4.02-1.219H-55.22ZM-27.633.379A8.27,8.27,0,0,1-34.2-2.312a10.359,10.359,0,0,1-2.358-7.082v-.795a10.142,10.142,0,0,1,2.43-6.965,7.62,7.62,0,0,1,5.935-2.755,7.093,7.093,0,0,1,5.881,2.439,10.048,10.048,0,0,1,1.96,6.486v1.879h-12.5l-.054.09a8.08,8.08,0,0,0,1.3,4.779A4.545,4.545,0,0,0-27.633-2.4a8.953,8.953,0,0,0,3.171-.515,7.078,7.078,0,0,0,2.34-1.418l1.391,2.313A8.554,8.554,0,0,1-23.5-.316,11.012,11.012,0,0,1-27.633.379Zm-.56-17.488a3.869,3.869,0,0,0-3.08,1.436A6.8,6.8,0,0,0-32.763-12l.036.09h8.816v-.289a5.692,5.692,0,0,0-1.048-3.523A3.787,3.787,0,0,0-28.193-17.109Zm11.021,7.7a13.045,13.045,0,0,1,2.014-7.606,6.491,6.491,0,0,1,5.646-2.891,7,7,0,0,1,3.044.632A6.24,6.24,0,0,1-4.2-17.434v-10.75H-.641V0H-3.369l-.542-2.475A6.344,6.344,0,0,1-6.278-.343a7.071,7.071,0,0,1-3.27.723,6.708,6.708,0,0,1-5.6-2.593,10.774,10.774,0,0,1-2.023-6.82Zm3.559.379A8.3,8.3,0,0,0-12.4-4.291a4.227,4.227,0,0,0,3.758,1.78,4.714,4.714,0,0,0,2.674-.723A5.4,5.4,0,0,0-4.2-5.257v-9.124A5.48,5.48,0,0,0-5.98-16.3a4.7,4.7,0,0,0-2.629-.714A4.068,4.068,0,0,0-12.394-14.9a10.911,10.911,0,0,0-1.219,5.492ZM17.082-2.891A6.621,6.621,0,0,1,14.715-.47a6.475,6.475,0,0,1-3.342.849A6.28,6.28,0,0,1,6.386-1.662Q4.6-3.7,4.6-8.021V-19.548H8.157V-7.985q0,3.125.921,4.3a3.426,3.426,0,0,0,2.873,1.174,5.854,5.854,0,0,0,3.135-.768,4.8,4.8,0,0,0,1.87-2.177V-19.548h3.559V0h-3.2ZM33.468-2.4A4.185,4.185,0,0,0,36.341-3.5a3.454,3.454,0,0,0,1.229-2.683h3.216l.054.108a5.614,5.614,0,0,1-2.168,4.49,7.66,7.66,0,0,1-5.2,1.96,7.675,7.675,0,0,1-6.359-2.8,10.809,10.809,0,0,1-2.24-6.974v-.759A10.762,10.762,0,0,1,27.118-17.1a7.67,7.67,0,0,1,6.35-2.809,7.375,7.375,0,0,1,5.357,2.023,6.416,6.416,0,0,1,2.014,4.968l-.036.108H37.569A4.314,4.314,0,0,0,36.4-15.853a3.835,3.835,0,0,0-2.936-1.256,4.11,4.11,0,0,0-3.821,2.032,9.513,9.513,0,0,0-1.2,4.923v.759a9.693,9.693,0,0,0,1.183,4.968A4.106,4.106,0,0,0,33.468-2.4ZM53.16.379a8.27,8.27,0,0,1-6.567-2.692,10.359,10.359,0,0,1-2.358-7.082v-.795a10.142,10.142,0,0,1,2.43-6.965A7.62,7.62,0,0,1,52.6-19.909a7.093,7.093,0,0,1,5.881,2.439,10.048,10.048,0,0,1,1.96,6.486v1.879h-12.5l-.054.09a8.08,8.08,0,0,0,1.3,4.779A4.545,4.545,0,0,0,53.16-2.4a8.953,8.953,0,0,0,3.171-.515,7.078,7.078,0,0,0,2.34-1.418l1.391,2.313A8.554,8.554,0,0,1,57.3-.316,11.012,11.012,0,0,1,53.16.379ZM52.6-17.109a3.869,3.869,0,0,0-3.08,1.436A6.8,6.8,0,0,0,48.03-12l.036.09h8.816v-.289a5.692,5.692,0,0,0-1.048-3.523A3.787,3.787,0,0,0,52.6-17.109Z" transform="translate(205 271)" fill="#44d62c"/>
    <path id="Trazado_7246" data-name="Trazado 7246" d="M-77.484,0H-79.9V-15.552l-3.87.037v-1.855l6.287-.659Zm14.648-6.567h-7.2v-1.88h7.2Zm12.927.586h2.454V-4.1h-2.454V0H-52.3V-4.1H-59.93V-5.457l7.483-12.317h2.539Zm-7.446,0H-52.3v-8.337l-.073-.012-.232.61ZM-39.2-6.36A8.814,8.814,0,0,1-37.842-11.5a4.374,4.374,0,0,1,3.8-1.953,4.635,4.635,0,0,1,2.209.507,4.446,4.446,0,0,1,1.6,1.459l.293-1.721h1.917V.073a5.039,5.039,0,0,1-1.477,3.9,6.068,6.068,0,0,1-4.26,1.361,8.932,8.932,0,0,1-2.057-.262,8.042,8.042,0,0,1-1.947-.714L-37.4,2.49a6.954,6.954,0,0,0,1.678.592,8.62,8.62,0,0,0,1.935.226,3.5,3.5,0,0,0,2.557-.8,3.313,3.313,0,0,0,.8-2.435v-1.5a4.258,4.258,0,0,1-1.55,1.257,4.83,4.83,0,0,1-2.087.427A4.516,4.516,0,0,1-37.842-1.5,7.3,7.3,0,0,1-39.2-6.1Zm2.4.256a5.613,5.613,0,0,0,.818,3.2A2.838,2.838,0,0,0-33.453-1.7a3.179,3.179,0,0,0,1.819-.494,3.752,3.752,0,0,0,1.208-1.4V-9.668A3.731,3.731,0,0,0-31.635-11a3.17,3.17,0,0,0-1.794-.494,2.738,2.738,0,0,0-2.545,1.428A7.372,7.372,0,0,0-36.8-6.36Zm24.695-4.98-1.233-.073a2.754,2.754,0,0,0-1.605.452,2.9,2.9,0,0,0-1.007,1.27V0h-2.4V-13.208H-16.2l.232,1.929a4.585,4.585,0,0,1,1.385-1.6,3.24,3.24,0,0,1,1.9-.574,2.971,2.971,0,0,1,.513.043,3.4,3.4,0,0,1,.4.092ZM-4.364.256A5.588,5.588,0,0,1-8.8-1.562a7,7,0,0,1-1.593-4.785v-.537a6.853,6.853,0,0,1,1.642-4.706,5.149,5.149,0,0,1,4.01-1.862A4.793,4.793,0,0,1-.769-11.8,6.789,6.789,0,0,1,.555-7.422v1.27H-7.892l-.037.061A5.459,5.459,0,0,0-7.05-2.863,3.071,3.071,0,0,0-4.364-1.624a6.049,6.049,0,0,0,2.142-.348A4.782,4.782,0,0,0-.641-2.93L.3-1.367A5.78,5.78,0,0,1-1.569-.214,7.44,7.44,0,0,1-4.364.256ZM-4.742-11.56a2.614,2.614,0,0,0-2.081.97A4.591,4.591,0,0,0-7.831-8.105l.024.061h5.957v-.2a3.846,3.846,0,0,0-.708-2.38A2.559,2.559,0,0,0-4.742-11.56ZM2.7-6.36A8.814,8.814,0,0,1,4.065-11.5,4.385,4.385,0,0,1,7.88-13.452a4.73,4.73,0,0,1,2.057.427,4.216,4.216,0,0,1,1.532,1.245v-7.263h2.4V0H12.03l-.366-1.672a4.286,4.286,0,0,1-1.6,1.44A4.777,4.777,0,0,1,7.855.256,4.533,4.533,0,0,1,4.071-1.5,7.28,7.28,0,0,1,2.7-6.1Zm2.4.256a5.607,5.607,0,0,0,.818,3.2A2.856,2.856,0,0,0,8.466-1.7a3.185,3.185,0,0,0,1.807-.488,3.646,3.646,0,0,0,1.2-1.367V-9.717a3.7,3.7,0,0,0-1.2-1.3A3.177,3.177,0,0,0,8.49-11.5a2.749,2.749,0,0,0-2.557,1.428A7.372,7.372,0,0,0,5.109-6.36Zm20.74,4.15a4.473,4.473,0,0,1-1.6,1.636,4.375,4.375,0,0,1-2.258.574,4.243,4.243,0,0,1-3.369-1.379,6.4,6.4,0,0,1-1.208-4.3v-7.788h2.4V-5.4a4.917,4.917,0,0,0,.623,2.905,2.315,2.315,0,0,0,1.941.793A3.955,3.955,0,0,0,24.5-2.216a3.246,3.246,0,0,0,1.263-1.471v-9.521h2.4V0H26.007Zm11.072.33a2.828,2.828,0,0,0,1.941-.739,2.334,2.334,0,0,0,.83-1.813h2.173L41.9-4.1a3.793,3.793,0,0,1-1.465,3.033A5.176,5.176,0,0,1,36.92.256a5.186,5.186,0,0,1-4.3-1.892A7.3,7.3,0,0,1,31.11-6.348V-6.86a7.271,7.271,0,0,1,1.52-4.694,5.182,5.182,0,0,1,4.291-1.9,4.983,4.983,0,0,1,3.619,1.367A4.335,4.335,0,0,1,41.9-8.728l-.024.073H39.691a2.915,2.915,0,0,0-.787-2.057,2.591,2.591,0,0,0-1.984-.848,2.777,2.777,0,0,0-2.582,1.373,6.428,6.428,0,0,0-.812,3.326v.513a6.55,6.55,0,0,0,.8,3.357A2.775,2.775,0,0,0,36.92-1.624ZM48.1-16.394v3.186h2.5v1.782H48.1v8.02A1.8,1.8,0,0,0,48.486-2.1a1.39,1.39,0,0,0,1.019.378,2.234,2.234,0,0,0,.464-.055,3.441,3.441,0,0,0,.427-.116l.33,1.648a2.125,2.125,0,0,1-.793.36A4,4,0,0,1,48.9.256a3.114,3.114,0,0,1-2.332-.885A3.844,3.844,0,0,1,45.7-3.406v-8.02H43.6v-1.782h2.1v-3.186ZM55.78,0h-2.4V-13.208h2.4Zm0-16.589h-2.4v-2.454h2.4Zm3.137,9.863A7.271,7.271,0,0,1,60.5-11.554a5.321,5.321,0,0,1,4.309-1.9,5.374,5.374,0,0,1,4.34,1.892,7.248,7.248,0,0,1,1.593,4.834v.269a7.236,7.236,0,0,1-1.587,4.834A5.358,5.358,0,0,1,64.838.256,5.368,5.368,0,0,1,60.51-1.63a7.224,7.224,0,0,1-1.593-4.828Zm2.4.269a6.265,6.265,0,0,0,.885,3.467,2.93,2.93,0,0,0,2.631,1.367A2.922,2.922,0,0,0,67.45-2.991a6.232,6.232,0,0,0,.891-3.467v-.269a6.213,6.213,0,0,0-.9-3.455,2.941,2.941,0,0,0-2.631-1.379,2.9,2.9,0,0,0-2.606,1.379,6.278,6.278,0,0,0-.885,3.455Zm14.514-6.75.171,1.965a4.8,4.8,0,0,1,1.654-1.63,4.413,4.413,0,0,1,2.264-.58A4.311,4.311,0,0,1,83.234-12.2a5.493,5.493,0,0,1,1.172,3.864V0H82V-8.289a3.573,3.573,0,0,0-.69-2.478,2.763,2.763,0,0,0-2.106-.732,3.728,3.728,0,0,0-1.886.446A3.238,3.238,0,0,0,76.093-9.8V0h-2.4V-13.208ZM-80.927,32h-2.4V18.792h2.4Zm0-16.589h-2.4V12.957h2.4Zm5.847,3.381.171,1.965a4.8,4.8,0,0,1,1.654-1.63,4.413,4.413,0,0,1,2.264-.58A4.311,4.311,0,0,1-67.682,19.8a5.493,5.493,0,0,1,1.172,3.864V32h-2.4V23.711a3.573,3.573,0,0,0-.69-2.478A2.763,2.763,0,0,0-71.71,20.5a3.728,3.728,0,0,0-1.886.446A3.238,3.238,0,0,0-74.823,22.2V32h-2.4V18.792Zm29.553,7.1A7.257,7.257,0,0,1-46.9,30.5a4.537,4.537,0,0,1-3.778,1.752,4.787,4.787,0,0,1-2.289-.519,4.248,4.248,0,0,1-1.605-1.532L-54.962,32h-1.843V12.957h2.4v7.4a4.173,4.173,0,0,1,1.544-1.343,4.734,4.734,0,0,1,2.155-.464A4.389,4.389,0,0,1-46.893,20.5a8.785,8.785,0,0,1,1.367,5.139Zm-2.4-.256a7.291,7.291,0,0,0-.836-3.7A2.753,2.753,0,0,0-51.312,20.5a3.147,3.147,0,0,0-1.874.543A3.831,3.831,0,0,0-54.4,22.5v5.725a3.932,3.932,0,0,0,1.215,1.526,3.131,3.131,0,0,0,1.9.549,2.857,2.857,0,0,0,2.527-1.208,5.55,5.55,0,0,0,.83-3.2Zm4.773-.366a7.271,7.271,0,0,1,1.587-4.828,5.321,5.321,0,0,1,4.309-1.9,5.374,5.374,0,0,1,4.34,1.892,7.248,7.248,0,0,1,1.593,4.834v.269a7.236,7.236,0,0,1-1.587,4.834,5.358,5.358,0,0,1-4.321,1.88,5.368,5.368,0,0,1-4.327-1.886,7.224,7.224,0,0,1-1.593-4.828Zm2.4.269a6.265,6.265,0,0,0,.885,3.467,2.93,2.93,0,0,0,2.631,1.367,2.922,2.922,0,0,0,2.612-1.367,6.232,6.232,0,0,0,.891-3.467v-.269a6.213,6.213,0,0,0-.9-3.455,2.941,2.941,0,0,0-2.631-1.379,2.9,2.9,0,0,0-2.606,1.379,6.278,6.278,0,0,0-.885,3.455Zm15.71-9.937v3.186h2.5v1.782h-2.5v8.02a1.8,1.8,0,0,0,.385,1.306,1.39,1.39,0,0,0,1.019.378,2.234,2.234,0,0,0,.464-.055,3.441,3.441,0,0,0,.427-.116l.33,1.648a2.125,2.125,0,0,1-.793.36,4,4,0,0,1-1.038.14,3.114,3.114,0,0,1-2.332-.885,3.844,3.844,0,0,1-.867-2.777v-8.02h-2.1V18.792h2.1V15.606Zm8.423,0v3.186h2.5v1.782h-2.5v8.02a1.8,1.8,0,0,0,.385,1.306,1.39,1.39,0,0,0,1.019.378,2.234,2.234,0,0,0,.464-.055,3.441,3.441,0,0,0,.427-.116l.33,1.648a2.125,2.125,0,0,1-.793.36,4,4,0,0,1-1.038.14,3.114,3.114,0,0,1-2.332-.885,3.844,3.844,0,0,1-.867-2.777v-8.02h-2.1V18.792h2.1V15.606ZM-8.942,32h-2.4V12.957h2.4Zm9.167.256a5.588,5.588,0,0,1-4.437-1.819A7,7,0,0,1-5.8,25.652v-.537a6.853,6.853,0,0,1,1.642-4.706,5.149,5.149,0,0,1,4.01-1.862A4.793,4.793,0,0,1,3.821,20.2a6.789,6.789,0,0,1,1.324,4.382v1.27H-3.3l-.037.061a5.459,5.459,0,0,0,.879,3.229A3.071,3.071,0,0,0,.226,30.376a6.049,6.049,0,0,0,2.142-.348,4.782,4.782,0,0,0,1.581-.958l.94,1.563a5.78,5.78,0,0,1-1.868,1.154A7.44,7.44,0,0,1,.226,32.256ZM-.153,20.44a2.614,2.614,0,0,0-2.081.97,4.591,4.591,0,0,0-1.007,2.484l.024.061H2.74v-.2a3.846,3.846,0,0,0-.708-2.38A2.559,2.559,0,0,0-.153,20.44ZM16.2,18.792l.171,1.965a4.8,4.8,0,0,1,1.654-1.63,4.413,4.413,0,0,1,2.264-.58A4.311,4.311,0,0,1,23.6,19.8a5.493,5.493,0,0,1,1.172,3.864V32h-2.4V23.711a3.573,3.573,0,0,0-.69-2.478,2.763,2.763,0,0,0-2.106-.732,3.728,3.728,0,0,0-1.886.446A3.238,3.238,0,0,0,16.461,22.2V32h-2.4V18.792ZM33.734,32.256A5.588,5.588,0,0,1,29.3,30.438,7,7,0,0,1,27.7,25.652v-.537a6.853,6.853,0,0,1,1.642-4.706,5.149,5.149,0,0,1,4.01-1.862A4.793,4.793,0,0,1,37.329,20.2a6.789,6.789,0,0,1,1.324,4.382v1.27H30.206l-.037.061a5.459,5.459,0,0,0,.879,3.229,3.071,3.071,0,0,0,2.686,1.239,6.049,6.049,0,0,0,2.142-.348,4.782,4.782,0,0,0,1.581-.958l.94,1.563a5.78,5.78,0,0,1-1.868,1.154A7.44,7.44,0,0,1,33.734,32.256ZM33.356,20.44a2.614,2.614,0,0,0-2.081.97,4.591,4.591,0,0,0-1.007,2.484l.024.061h5.957v-.2a3.846,3.846,0,0,0-.708-2.38A2.559,2.559,0,0,0,33.356,20.44ZM46.6,30.376a2.828,2.828,0,0,0,1.941-.739,2.334,2.334,0,0,0,.83-1.813h2.173l.037.073a3.793,3.793,0,0,1-1.465,3.033,5.6,5.6,0,0,1-7.812-.568,7.3,7.3,0,0,1-1.514-4.712V25.14a7.271,7.271,0,0,1,1.52-4.694,5.182,5.182,0,0,1,4.291-1.9,4.983,4.983,0,0,1,3.619,1.367,4.335,4.335,0,0,1,1.361,3.357l-.024.073H49.371a2.915,2.915,0,0,0-.787-2.057A2.591,2.591,0,0,0,46.6,20.44a2.777,2.777,0,0,0-2.582,1.373,6.428,6.428,0,0,0-.812,3.326v.513a6.55,6.55,0,0,0,.8,3.357A2.775,2.775,0,0,0,46.6,30.376Zm11.487-4.468H56.854V32h-2.4V12.957h2.4V23.992h1.208l3.967-5.2h2.881l-4.8,6.091L65.326,32H62.482Zm16.846,2.539a1.6,1.6,0,0,0-.6-1.294,5.832,5.832,0,0,0-2.289-.879,9.6,9.6,0,0,1-3.583-1.4,2.835,2.835,0,0,1-1.251-2.417A3.483,3.483,0,0,1,68.579,19.7a6.06,6.06,0,0,1,7.2.073,3.5,3.5,0,0,1,1.331,2.844l-.024.073H74.786a2.08,2.08,0,0,0-.751-1.55,2.684,2.684,0,0,0-1.9-.7,2.736,2.736,0,0,0-1.9.574,1.79,1.79,0,0,0-.629,1.367,1.449,1.449,0,0,0,.543,1.208,6.013,6.013,0,0,0,2.24.781,9.466,9.466,0,0,1,3.687,1.453,2.925,2.925,0,0,1,1.257,2.454,3.478,3.478,0,0,1-1.422,2.869A5.866,5.866,0,0,1,72.2,32.256a5.8,5.8,0,0,1-3.979-1.282,3.658,3.658,0,0,1-1.379-2.991l.024-.073h2.295a2.224,2.224,0,0,0,.952,1.874,3.684,3.684,0,0,0,2.087.592,3.288,3.288,0,0,0,2.008-.543A1.661,1.661,0,0,0,74.933,28.448ZM82.953,32h-2.4V29.534h2.4Z" transform="translate(205 320)" fill="#a2a2a2"/>
    <g transform="matrix(1, 0, 0, 1, 0, 0)" filter="url(#Trazado_7244)">
      <path id="Trazado_7244-2" data-name="Trazado 7244" d="M75.084,0a75.084,75.084,0,0,1,75.084,75.084v.139A75.084,75.084,0,0,1,0,75.223v-.139A75.084,75.084,0,0,1,75.084,0Z" transform="translate(126 69.66)" fill="#44d62c"/>
    </g>
    <path id="Trazado_6138" data-name="Trazado 6138" d="M722.276,4665.98a7.122,7.122,0,0,1,1.615-3.5h5.375c8.755,0,13.98-5.227,13.98-13.98v-5.242h-6.99c-6.51,0-13.98,1.589-13.98,13.98v1.661c-2.108,2.6-3.5,5.105-3.5,7.078Zm6.99-6.991h-2.413c3.7-3.825,8.912-7.88,12.866-9.709C739.378,4657.263,733.9,4658.99,729.266,4658.99Zm6.99-12.233h.774a54.42,54.42,0,0,0-11.153,8.274C726.507,4648.194,730.222,4646.757,736.256,4646.757Z" transform="translate(-531.296 -4508.373)" fill="#fff"/>
    <path id="Trazado_6139" data-name="Trazado 6139" d="M712.6,4457.332a7.72,7.72,0,0,0-5.119-4.339V4440.5a5.249,5.249,0,0,0-5.243-5.243h-13.98a5.249,5.249,0,0,0-5.243,5.243v12.485a7.674,7.674,0,0,0-5.092,4.278c-1.192,2.685-7.141,16.256-7.141,19.935v57.669a8.747,8.747,0,0,0,8.738,8.737h31.456a8.747,8.747,0,0,0,8.738-8.737V4477.2C719.712,4473.524,713.764,4459.953,712.6,4457.332Zm-3.221,1.358c2.031,4.57,4.647,10.956,5.977,15.019h-9.889l-2.913-17.476h3.18A4.322,4.322,0,0,1,709.377,4458.689Zm6.84,48.223H674.276V4477.2h41.941Zm0,3.495v10.485H674.276v-10.485Zm-17.208-54.174,2.913,17.476H688.571l2.913-17.476Zm4.975-15.728v5.242h-3.5v-6.99h1.748A1.75,1.75,0,0,1,703.984,4440.5Zm-10.485,5.242v-6.99h3.5v6.99Zm-6.99-5.242a1.75,1.75,0,0,1,1.748-1.748H690v6.99h-3.5Zm17.475,8.738v3.495H686.509v-3.495Zm-22.842,9.385a4.3,4.3,0,0,1,3.619-2.4h3.18l-2.913,17.476h-9.889c1.332-4.066,3.953-10.466,6-15.08Zm29.833,81.487H679.519a5.249,5.249,0,0,1-5.243-5.243v-10.486h41.941v10.486A5.249,5.249,0,0,1,710.975,4540.115Z" transform="translate(-493.781 -4345.809)" fill="#fff"/>
  </g>
</svg>
