<svg xmlns="http://www.w3.org/2000/svg" xmlns:xlink="http://www.w3.org/1999/xlink" width="403" height="501" viewBox="0 0 403 501">
  <defs>
    <filter id="Trazado_7239" x="0" y="0" width="402.257" height="500.34" filterUnits="userSpaceOnUse">
      <feOffset dy="20" input="SourceAlpha"/>
      <feGaussianBlur stdDeviation="23" result="blur"/>
      <feFlood flood-color="#010101" flood-opacity="0.129"/>
      <feComposite operator="in" in2="blur"/>
      <feComposite in="SourceGraphic"/>
    </filter>
    <filter id="Trazado_7242" x="81" y="33.66" width="240.168" height="240.306" filterUnits="userSpaceOnUse">
      <feOffset dy="9" input="SourceAlpha"/>
      <feGaussianBlur stdDeviation="15" result="blur-2"/>
      <feFlood flood-color="#010101" flood-opacity="0.122"/>
      <feComposite operator="in" in2="blur-2"/>
      <feComposite in="SourceGraphic"/>
    </filter>
    <clipPath id="clip-Reuse-path">
      <rect width="403" height="501"/>
    </clipPath>
  </defs>
  <g id="Reuse-path" clip-path="url(#clip-Reuse-path)">
    <g transform="matrix(1, 0, 0, 1, 0, 0)" filter="url(#Trazado_7239)">
      <g id="Trazado_7239-2" data-name="Trazado 7239" transform="translate(69 49)" fill="#fff" opacity="0.7">
        <path d="M 225.2564697265625 361.8403625488281 L 39.00000762939453 361.8403625488281 C 33.80232620239258 361.8403625488281 28.76037216186523 360.8224792480469 24.01423454284668 358.8150329589844 C 19.42973518371582 356.8759460449219 15.3123254776001 354.0998840332031 11.77641677856445 350.5639343261719 C 8.240462303161621 347.0280151367188 5.46441650390625 342.9106140136719 3.525325775146484 338.3261108398438 C 1.517871260643005 333.5799865722656 0.5000075697898865 328.5380249023438 0.5000075697898865 323.3403625488281 L 0.5000075697898865 38.99998474121094 C 0.5000075697898865 33.80230331420898 1.517871260643005 28.76034736633301 3.525325775146484 24.01421165466309 C 5.46441650390625 19.42971229553223 8.240462303161621 15.3123025894165 11.77641677856445 11.77639293670654 C 15.3123254776001 8.240438461303711 19.42973518371582 5.464393138885498 24.01423454284668 3.525302410125732 C 28.76037216186523 1.517847776412964 33.80232620239258 0.4999842047691345 39.00000762939453 0.4999842047691345 L 225.2564697265625 0.4999842047691345 C 230.4541473388672 0.4999842047691345 235.49609375 1.517847776412964 240.2422790527344 3.525302410125732 C 244.8267364501953 5.464393138885498 248.9441375732422 8.240438461303711 252.4801025390625 11.77639293670654 C 256.0160217285156 15.3123025894165 258.7920532226563 19.42971229553223 260.7311401367188 24.01421165466309 C 262.7385864257813 28.76034736633301 263.7564697265625 33.80230331420898 263.7564697265625 38.99998474121094 L 263.7564697265625 323.3403625488281 C 263.7564697265625 328.5380249023438 262.7385864257813 333.5799865722656 260.7311401367188 338.3261108398438 C 258.7920532226563 342.9106140136719 256.0160217285156 347.0280151367188 252.4801025390625 350.5639343261719 C 248.9441375732422 354.0998840332031 244.8267364501953 356.8759460449219 240.2422790527344 358.8150329589844 C 235.49609375 360.8224792480469 230.4541473388672 361.8403625488281 225.2564697265625 361.8403625488281 Z" stroke="none"/>
        <path d="M 39 0.999969482421875 C 33.86959838867188 0.999969482421875 28.8931884765625 2.00457763671875 24.20901489257813 3.985809326171875 C 19.68409729003906 5.899658203125 15.62010192871094 8.6397705078125 12.12991333007813 12.12994384765625 C 8.639785766601563 15.6201171875 5.899688720703125 19.68408203125 3.98583984375 24.208984375 C 2.004608154296875 28.89315795898438 1 33.86956787109375 1 38.99996948242188 L 1 323.34033203125 C 1 328.4707641601563 2.004608154296875 333.4471740722656 3.98583984375 338.13134765625 C 5.899688720703125 342.65625 8.639785766601563 346.72021484375 12.12991333007813 350.2103881835938 C 15.62010192871094 353.7005615234375 19.68409729003906 356.440673828125 24.20901489257813 358.3545227050781 C 28.8931884765625 360.3357543945313 33.86959838867188 361.3403625488281 39 361.3403625488281 L 225.2564697265625 361.3403625488281 C 230.3868713378906 361.3403625488281 235.36328125 360.3357543945313 240.0474548339844 358.3545227050781 C 244.5723724365234 356.440673828125 248.6363220214844 353.7005615234375 252.1265106201172 350.2103881835938 C 255.6166839599609 346.72021484375 258.3567810058594 342.65625 260.2706298828125 338.13134765625 C 262.2518615722656 333.4471740722656 263.2564697265625 328.4707641601563 263.2564697265625 323.34033203125 L 263.2564697265625 38.99996948242188 C 263.2564697265625 33.86956787109375 262.2518615722656 28.89315795898438 260.2706298828125 24.208984375 C 258.3567810058594 19.68408203125 255.6166839599609 15.6201171875 252.1265106201172 12.12994384765625 C 248.6363220214844 8.6397705078125 244.5723724365234 5.899658203125 240.0474548339844 3.985809326171875 C 235.36328125 2.00457763671875 230.3868713378906 0.999969482421875 225.2564697265625 0.999969482421875 L 39 0.999969482421875 M 39 -3.0517578125e-05 L 225.2564697265625 -3.0517578125e-05 C 246.7955474853516 -3.0517578125e-05 264.2564697265625 17.46090698242188 264.2564697265625 38.99996948242188 L 264.2564697265625 323.34033203125 C 264.2564697265625 344.8794250488281 246.7955474853516 362.3403625488281 225.2564697265625 362.3403625488281 L 39 362.3403625488281 C 17.46087646484375 362.3403625488281 0 344.8794250488281 0 323.34033203125 L 0 38.99996948242188 C 0 17.46090698242188 17.46087646484375 -3.0517578125e-05 39 -3.0517578125e-05 Z" stroke="none" fill="#44d62c"/>
      </g>
    </g>
    <path id="Trazado_7241" data-name="Trazado 7241" d="M-44.7-11.4V0h-3.559V-26.287h9q4.318,0,6.594,1.915a6.863,6.863,0,0,1,2.276,5.564,5.958,5.958,0,0,1-1.057,3.523,7.16,7.16,0,0,1-3.08,2.385,5.391,5.391,0,0,1,3.116,2.285A7.483,7.483,0,0,1-30.46-6.7v2.475a8.242,8.242,0,0,0,.271,2.2,3.3,3.3,0,0,0,.939,1.59V0h-3.667a2.944,2.944,0,0,1-.9-1.807,14.923,14.923,0,0,1-.2-2.457v-2.4A4.754,4.754,0,0,0-35.266-10.1a4.413,4.413,0,0,0-3.342-1.3Zm0-2.8h5.077a6.61,6.61,0,0,0,4.345-1.147,4.372,4.372,0,0,0,1.328-3.5,4.5,4.5,0,0,0-1.292-3.442,5.692,5.692,0,0,0-4.02-1.219H-44.7ZM-17.109.379a8.27,8.27,0,0,1-6.567-2.692,10.359,10.359,0,0,1-2.358-7.082v-.795a10.142,10.142,0,0,1,2.43-6.965,7.62,7.62,0,0,1,5.935-2.755,7.093,7.093,0,0,1,5.881,2.439,10.048,10.048,0,0,1,1.96,6.486v1.879h-12.5l-.054.09a8.08,8.08,0,0,0,1.3,4.779A4.545,4.545,0,0,0-17.109-2.4a8.953,8.953,0,0,0,3.171-.515A7.078,7.078,0,0,0-11.6-4.336l1.391,2.313A8.554,8.554,0,0,1-12.972-.316,11.012,11.012,0,0,1-17.109.379Zm-.56-17.488a3.869,3.869,0,0,0-3.08,1.436A6.8,6.8,0,0,0-22.24-12l.036.09h8.816v-.289a5.692,5.692,0,0,0-1.048-3.523A3.787,3.787,0,0,0-17.669-17.109ZM6.576-2.891A6.621,6.621,0,0,1,4.209-.47,6.475,6.475,0,0,1,.867.379,6.28,6.28,0,0,1-4.119-1.662Q-5.908-3.7-5.908-8.021V-19.548h3.559V-7.985q0,3.125.921,4.3A3.426,3.426,0,0,0,1.445-2.511,5.854,5.854,0,0,0,4.58-3.279,4.8,4.8,0,0,0,6.45-5.456V-19.548h3.559V0h-3.2ZM26.558-5.257a2.372,2.372,0,0,0-.894-1.915,8.631,8.631,0,0,0-3.387-1.3,14.213,14.213,0,0,1-5.3-2.078,4.2,4.2,0,0,1-1.852-3.577,5.155,5.155,0,0,1,2.032-4.083,7.938,7.938,0,0,1,5.266-1.7A7.866,7.866,0,0,1,27.8-18.1a5.177,5.177,0,0,1,1.969,4.209l-.036.108h-3.4a3.078,3.078,0,0,0-1.111-2.294,3.972,3.972,0,0,0-2.809-1.03,4.05,4.05,0,0,0-2.809.849,2.649,2.649,0,0,0-.93,2.023,2.144,2.144,0,0,0,.8,1.789A8.9,8.9,0,0,0,22.8-11.292a14.009,14.009,0,0,1,5.456,2.15A4.329,4.329,0,0,1,30.117-5.51a5.147,5.147,0,0,1-2.1,4.246,8.682,8.682,0,0,1-5.5,1.644,8.591,8.591,0,0,1-5.89-1.9A5.413,5.413,0,0,1,14.58-5.944l.036-.108h3.4a3.292,3.292,0,0,0,1.409,2.773,5.452,5.452,0,0,0,3.089.876,4.867,4.867,0,0,0,2.972-.8A2.459,2.459,0,0,0,26.558-5.257ZM42.637.379A8.27,8.27,0,0,1,36.07-2.312a10.359,10.359,0,0,1-2.358-7.082v-.795a10.142,10.142,0,0,1,2.43-6.965,7.62,7.62,0,0,1,5.935-2.755,7.093,7.093,0,0,1,5.881,2.439,10.048,10.048,0,0,1,1.96,6.486v1.879h-12.5l-.054.09a8.08,8.08,0,0,0,1.3,4.779A4.545,4.545,0,0,0,42.637-2.4a8.953,8.953,0,0,0,3.171-.515,7.078,7.078,0,0,0,2.34-1.418l1.391,2.313A8.554,8.554,0,0,1,46.774-.316,11.012,11.012,0,0,1,42.637.379Zm-.56-17.488A3.869,3.869,0,0,0,39-15.673,6.8,6.8,0,0,0,37.506-12l.036.09h8.816v-.289a5.692,5.692,0,0,0-1.048-3.523A3.787,3.787,0,0,0,42.077-17.109Z" transform="translate(205 271)" fill="#44d62c"/>
    <path id="Trazado_7240" data-name="Trazado 7240" d="M-51.672-1.624a3.576,3.576,0,0,0,2.8-1.2A4.926,4.926,0,0,0-47.8-6.213V-7.727a3.874,3.874,0,0,1-1.459,1.312,4.14,4.14,0,0,1-1.91.446A5.2,5.2,0,0,1-55.194-7.55a6.226,6.226,0,0,1-1.459-4.388,6.267,6.267,0,0,1,1.55-4.388,4.977,4.977,0,0,1,3.833-1.7A5.66,5.66,0,0,1-47-16.357a6.532,6.532,0,0,1,1.611,4.724v5.4a6.37,6.37,0,0,1-1.758,4.779A6.213,6.213,0,0,1-51.672.256a9.849,9.849,0,0,1-1.923-.2,8.72,8.72,0,0,1-1.837-.574l.366-1.831a6.936,6.936,0,0,0,1.581.555A8.8,8.8,0,0,0-51.672-1.624Zm.5-6.226a3.734,3.734,0,0,0,2.118-.574A3.363,3.363,0,0,0-47.8-9.888v-2.1a4.7,4.7,0,0,0-.891-3.07,3.063,3.063,0,0,0-2.5-1.08,2.629,2.629,0,0,0-2.179,1.166,4.931,4.931,0,0,0-.873,3.033,4.987,4.987,0,0,0,.806,2.96A2.627,2.627,0,0,0-51.172-7.849Zm9.595-.049,1.025-9.875h8.9v2.136h-6.873l-.574,5.115a5.487,5.487,0,0,1,1.27-.7,4.466,4.466,0,0,1,1.587-.287,4.84,4.84,0,0,1,3.864,1.544,6.237,6.237,0,0,1,1.4,4.3,6.252,6.252,0,0,1-1.434,4.3A5.284,5.284,0,0,1-36.6.256a5.729,5.729,0,0,1-3.76-1.233A4.267,4.267,0,0,1-41.8-4.6l.024-.073H-39.6a2.969,2.969,0,0,0,.836,2.252,3.006,3.006,0,0,0,2.167.8A2.837,2.837,0,0,0-34.229-2.7a4.65,4.65,0,0,0,.842-2.942,4.235,4.235,0,0,0-.848-2.747A2.868,2.868,0,0,0-36.6-9.436a3.775,3.775,0,0,0-2.051.427,2.5,2.5,0,0,0-.94,1.318Zm13.208-6.458a3.665,3.665,0,0,1,1-2.612,3.5,3.5,0,0,1,2.673-1.062,3.51,3.51,0,0,1,2.673,1.056,3.659,3.659,0,0,1,1,2.618v.94a3.635,3.635,0,0,1-.995,2.6,3.486,3.486,0,0,1-2.655,1.05,3.556,3.556,0,0,1-2.692-1.05,3.61,3.61,0,0,1-1.007-2.6Zm1.782.94a2.4,2.4,0,0,0,.494,1.532,1.7,1.7,0,0,0,1.422.629,1.652,1.652,0,0,0,1.379-.623,2.416,2.416,0,0,0,.488-1.538v-.94A2.453,2.453,0,0,0-23.3-15.9a1.662,1.662,0,0,0-1.4-.641,1.659,1.659,0,0,0-1.4.641,2.474,2.474,0,0,0-.488,1.544Zm6.824,9.058a3.643,3.643,0,0,1,1-2.606A3.51,3.51,0,0,1-16.089-8.02a3.515,3.515,0,0,1,2.667,1.056,3.631,3.631,0,0,1,1.007,2.606v.952a3.638,3.638,0,0,1-1,2.612A3.49,3.49,0,0,1-16.064.256a3.556,3.556,0,0,1-2.692-1.05,3.626,3.626,0,0,1-1.007-2.612Zm1.782.952a2.421,2.421,0,0,0,.494,1.544,1.7,1.7,0,0,0,1.422.629,1.645,1.645,0,0,0,1.379-.629A2.441,2.441,0,0,0-14.2-3.406v-.952A2.408,2.408,0,0,0-14.7-5.9a1.673,1.673,0,0,0-1.392-.635,1.669,1.669,0,0,0-1.4.635,2.427,2.427,0,0,0-.494,1.538Zm-6.067,2.063-1.331-.818L-16.7-16.052l1.331.818ZM-.012-4.81l.305,1.7H.366l.317-1.7,2.637-8.4H5.249L7.9-4.81,8.24-2.917h.073L8.7-4.81l1.953-8.4h2.515L9.338,0H7.4L4.785-8.044l-.5-2.1H4.211l-.464,2.1L1.184,0H-.757L-4.59-13.208h2.5ZM23.645,0q-.122-.6-.189-1.056a7.75,7.75,0,0,1-.079-.922A5.607,5.607,0,0,1,21.625-.385,4.48,4.48,0,0,1,19.3.256,4.317,4.317,0,0,1,16.156-.8a3.884,3.884,0,0,1-1.08-2.911,3.411,3.411,0,0,1,1.532-2.96,7.155,7.155,0,0,1,4.156-1.068h2.612V-9.045a2.423,2.423,0,0,0-.708-1.837,2.78,2.78,0,0,0-2-.677,2.9,2.9,0,0,0-1.892.586,1.758,1.758,0,0,0-.72,1.4l-2.283.024-.024-.073A3.161,3.161,0,0,1,17.1-12.256a5.59,5.59,0,0,1,3.7-1.2,5.454,5.454,0,0,1,3.613,1.141,4.043,4.043,0,0,1,1.367,3.29v6.36a12.38,12.38,0,0,0,.073,1.367A7.03,7.03,0,0,0,26.123,0ZM19.653-1.758a4.28,4.28,0,0,0,2.356-.671,3.191,3.191,0,0,0,1.367-1.538V-6.116h-2.7a3.5,3.5,0,0,0-2.325.732,2.19,2.19,0,0,0-.873,1.721,1.811,1.811,0,0,0,.549,1.392A2.3,2.3,0,0,0,19.653-1.758ZM32.617-16.394v3.186h2.5v1.782h-2.5v8.02A1.8,1.8,0,0,0,33-2.1a1.39,1.39,0,0,0,1.019.378,2.234,2.234,0,0,0,.464-.055,3.441,3.441,0,0,0,.427-.116l.33,1.648a2.125,2.125,0,0,1-.793.36,4,4,0,0,1-1.038.14,3.114,3.114,0,0,1-2.332-.885,3.844,3.844,0,0,1-.867-2.777v-8.02h-2.1v-1.782h2.1v-3.186ZM43.164.256a5.588,5.588,0,0,1-4.437-1.819,7,7,0,0,1-1.593-4.785v-.537a6.853,6.853,0,0,1,1.642-4.706,5.149,5.149,0,0,1,4.01-1.862A4.793,4.793,0,0,1,46.759-11.8a6.789,6.789,0,0,1,1.324,4.382v1.27H39.636l-.037.061a5.459,5.459,0,0,0,.879,3.229,3.071,3.071,0,0,0,2.686,1.239,6.049,6.049,0,0,0,2.142-.348,4.782,4.782,0,0,0,1.581-.958l.94,1.563A5.78,5.78,0,0,1,45.959-.214,7.44,7.44,0,0,1,43.164.256ZM42.786-11.56a2.614,2.614,0,0,0-2.081.97A4.591,4.591,0,0,0,39.7-8.105l.024.061h5.957v-.2a3.846,3.846,0,0,0-.708-2.38A2.559,2.559,0,0,0,42.786-11.56Zm14.246.476L55.8-11.157a2.754,2.754,0,0,0-1.605.452,2.9,2.9,0,0,0-1.007,1.27V0h-2.4V-13.208H52.93l.232,1.929a4.585,4.585,0,0,1,1.385-1.6,3.24,3.24,0,0,1,1.9-.574,2.971,2.971,0,0,1,.513.043,3.4,3.4,0,0,1,.4.092Zm-115.076,32-1.233-.073a2.754,2.754,0,0,0-1.605.452,2.9,2.9,0,0,0-1.007,1.27V32h-2.4V18.792h2.148l.232,1.929a4.585,4.585,0,0,1,1.385-1.6,3.24,3.24,0,0,1,1.9-.574,2.971,2.971,0,0,1,.513.043,3.4,3.4,0,0,1,.4.092Zm7.739,11.34a5.588,5.588,0,0,1-4.437-1.819,7,7,0,0,1-1.593-4.785v-.537a6.853,6.853,0,0,1,1.642-4.706,5.149,5.149,0,0,1,4.01-1.862A4.793,4.793,0,0,1-46.71,20.2a6.789,6.789,0,0,1,1.324,4.382v1.27h-8.447l-.037.061a5.459,5.459,0,0,0,.879,3.229,3.071,3.071,0,0,0,2.686,1.239,6.049,6.049,0,0,0,2.142-.348,4.782,4.782,0,0,0,1.581-.958l.94,1.563a5.78,5.78,0,0,1-1.868,1.154A7.44,7.44,0,0,1-50.305,32.256Zm-.378-11.816a2.614,2.614,0,0,0-2.081.97,4.591,4.591,0,0,0-1.007,2.484l.024.061h5.957v-.2a3.846,3.846,0,0,0-.708-2.38A2.559,2.559,0,0,0-50.684,20.44ZM-34.3,30.047a4.473,4.473,0,0,1-1.6,1.636,4.375,4.375,0,0,1-2.258.574,4.243,4.243,0,0,1-3.369-1.379,6.4,6.4,0,0,1-1.208-4.3V18.792h2.4V26.6a4.917,4.917,0,0,0,.623,2.905,2.315,2.315,0,0,0,1.941.793,3.955,3.955,0,0,0,2.118-.519,3.246,3.246,0,0,0,1.263-1.471V18.792h2.4V32h-2.161Zm13.5-1.6a1.6,1.6,0,0,0-.6-1.294,5.832,5.832,0,0,0-2.289-.879,9.6,9.6,0,0,1-3.583-1.4,2.835,2.835,0,0,1-1.251-2.417A3.483,3.483,0,0,1-27.155,19.7,5.363,5.363,0,0,1-23.6,18.548a5.315,5.315,0,0,1,3.638,1.221,3.5,3.5,0,0,1,1.331,2.844l-.024.073h-2.295a2.08,2.08,0,0,0-.751-1.55,2.684,2.684,0,0,0-1.9-.7,2.736,2.736,0,0,0-1.9.574,1.79,1.79,0,0,0-.629,1.367,1.449,1.449,0,0,0,.543,1.208,6.013,6.013,0,0,0,2.24.781,9.466,9.466,0,0,1,3.687,1.453A2.925,2.925,0,0,1-18.4,28.277a3.478,3.478,0,0,1-1.422,2.869,5.866,5.866,0,0,1-3.717,1.111,5.8,5.8,0,0,1-3.979-1.282,3.658,3.658,0,0,1-1.379-2.991l.024-.073h2.295a2.224,2.224,0,0,0,.952,1.874,3.684,3.684,0,0,0,2.087.592,3.288,3.288,0,0,0,2.008-.543A1.661,1.661,0,0,0-20.8,28.448Zm10.864,3.809a5.588,5.588,0,0,1-4.437-1.819,7,7,0,0,1-1.593-4.785v-.537a6.853,6.853,0,0,1,1.642-4.706,5.149,5.149,0,0,1,4.01-1.862A4.793,4.793,0,0,1-6.342,20.2a6.789,6.789,0,0,1,1.324,4.382v1.27h-8.447l-.037.061a5.459,5.459,0,0,0,.879,3.229,3.071,3.071,0,0,0,2.686,1.239,6.049,6.049,0,0,0,2.142-.348,4.782,4.782,0,0,0,1.581-.958l.94,1.563a5.78,5.78,0,0,1-1.868,1.154A7.44,7.44,0,0,1-9.937,32.256Zm-.378-11.816a2.614,2.614,0,0,0-2.081.97A4.591,4.591,0,0,0-13.4,23.895l.024.061h5.957v-.2a3.846,3.846,0,0,0-.708-2.38A2.559,2.559,0,0,0-10.315,20.44ZM6.494,32h-2.4V18.792h2.4Zm0-16.589h-2.4V12.957h2.4Zm5.847,3.381.171,1.965a4.8,4.8,0,0,1,1.654-1.63,4.413,4.413,0,0,1,2.264-.58A4.311,4.311,0,0,1,19.739,19.8a5.493,5.493,0,0,1,1.172,3.864V32h-2.4V23.711a3.573,3.573,0,0,0-.69-2.478A2.763,2.763,0,0,0,15.71,20.5a3.728,3.728,0,0,0-1.886.446A3.238,3.238,0,0,0,12.6,22.2V32h-2.4V18.792Zm17.712,6.482a7.271,7.271,0,0,1,1.587-4.828,5.321,5.321,0,0,1,4.309-1.9,5.374,5.374,0,0,1,4.34,1.892,7.248,7.248,0,0,1,1.593,4.834v.269A7.236,7.236,0,0,1,40.3,30.376a5.358,5.358,0,0,1-4.321,1.88,5.368,5.368,0,0,1-4.327-1.886,7.224,7.224,0,0,1-1.593-4.828Zm2.4.269a6.265,6.265,0,0,0,.885,3.467,3.2,3.2,0,0,0,5.243,0,6.232,6.232,0,0,0,.891-3.467v-.269a6.213,6.213,0,0,0-.9-3.455A2.941,2.941,0,0,0,35.95,20.44a2.9,2.9,0,0,0-2.606,1.379,6.278,6.278,0,0,0-.885,3.455Zm20.752,4.5a4.473,4.473,0,0,1-1.6,1.636,4.375,4.375,0,0,1-2.258.574,4.243,4.243,0,0,1-3.369-1.379,6.4,6.4,0,0,1-1.208-4.3V18.792h2.4V26.6A4.917,4.917,0,0,0,47.8,29.51a2.315,2.315,0,0,0,1.941.793,3.955,3.955,0,0,0,2.118-.519,3.246,3.246,0,0,0,1.263-1.471V18.792h2.4V32H53.369Zm12.073-9.131-1.233-.073a2.754,2.754,0,0,0-1.605.452,2.9,2.9,0,0,0-1.007,1.27V32h-2.4V18.792h2.148l.232,1.929a4.585,4.585,0,0,1,1.385-1.6,3.24,3.24,0,0,1,1.9-.574,2.971,2.971,0,0,1,.513.043,3.4,3.4,0,0,1,.4.092ZM-48.047,57.9A7.28,7.28,0,0,1-49.414,62.5a4.52,4.52,0,0,1-3.772,1.752,5.24,5.24,0,0,1-2.142-.409A4.1,4.1,0,0,1-56.9,62.621v6.458h-2.4V50.792h1.843l.378,1.709a4.362,4.362,0,0,1,1.611-1.453,4.81,4.81,0,0,1,2.246-.5,4.39,4.39,0,0,1,3.815,1.947,8.809,8.809,0,0,1,1.361,5.145Zm-2.4-.256a6.979,6.979,0,0,0-.885-3.693A2.868,2.868,0,0,0-53.943,52.5a3.209,3.209,0,0,0-1.77.47A3.515,3.515,0,0,0-56.9,54.259v6.384a3.415,3.415,0,0,0,1.184,1.276,3.322,3.322,0,0,0,1.794.458,2.96,2.96,0,0,0,2.588-1.251,5.494,5.494,0,0,0,.879-3.229Zm11.609-4.724-1.233-.073a2.754,2.754,0,0,0-1.605.452,2.9,2.9,0,0,0-1.007,1.27V64h-2.4V50.792h2.148l.232,1.929a4.585,4.585,0,0,1,1.385-1.6,3.24,3.24,0,0,1,1.9-.574,2.971,2.971,0,0,1,.513.043,3.4,3.4,0,0,1,.4.092Zm1.7,4.358a7.271,7.271,0,0,1,1.587-4.828,5.321,5.321,0,0,1,4.309-1.9,5.374,5.374,0,0,1,4.34,1.892,7.248,7.248,0,0,1,1.593,4.834v.269A7.236,7.236,0,0,1-26.9,62.376a5.358,5.358,0,0,1-4.321,1.88,5.368,5.368,0,0,1-4.327-1.886,7.224,7.224,0,0,1-1.593-4.828Zm2.4.269a6.265,6.265,0,0,0,.885,3.467,2.93,2.93,0,0,0,2.631,1.367,2.922,2.922,0,0,0,2.612-1.367,6.232,6.232,0,0,0,.891-3.467v-.269a6.213,6.213,0,0,0-.9-3.455A2.941,2.941,0,0,0-31.25,52.44a2.9,2.9,0,0,0-2.606,1.379,6.278,6.278,0,0,0-.885,3.455Zm17.615,4.834a2.828,2.828,0,0,0,1.941-.739,2.334,2.334,0,0,0,.83-1.813h2.173l.037.073a3.793,3.793,0,0,1-1.465,3.033,5.176,5.176,0,0,1-3.516,1.324,5.186,5.186,0,0,1-4.3-1.892,7.3,7.3,0,0,1-1.514-4.712V57.14a7.271,7.271,0,0,1,1.52-4.694,5.182,5.182,0,0,1,4.291-1.9,4.983,4.983,0,0,1,3.619,1.367,4.335,4.335,0,0,1,1.361,3.357l-.024.073h-2.185a2.915,2.915,0,0,0-.787-2.057,2.591,2.591,0,0,0-1.984-.848,2.777,2.777,0,0,0-2.582,1.373,6.428,6.428,0,0,0-.812,3.326v.513a6.55,6.55,0,0,0,.8,3.357A2.775,2.775,0,0,0-17.126,62.376Zm13.306,1.88a5.588,5.588,0,0,1-4.437-1.819,7,7,0,0,1-1.593-4.785v-.537a6.853,6.853,0,0,1,1.642-4.706A5.149,5.149,0,0,1-4.2,50.548,4.793,4.793,0,0,1-.226,52.2,6.789,6.789,0,0,1,1.1,56.578v1.27H-7.349l-.037.061a5.459,5.459,0,0,0,.879,3.229,3.071,3.071,0,0,0,2.686,1.239,6.049,6.049,0,0,0,2.142-.348A4.782,4.782,0,0,0-.1,61.07l.94,1.563a5.78,5.78,0,0,1-1.868,1.154A7.44,7.44,0,0,1-3.821,64.256ZM-4.2,52.44a2.614,2.614,0,0,0-2.081.97,4.591,4.591,0,0,0-1.007,2.484l.024.061h5.957v-.2a3.846,3.846,0,0,0-.708-2.38A2.559,2.559,0,0,0-4.2,52.44Zm15.674,8.008a1.6,1.6,0,0,0-.6-1.294,5.832,5.832,0,0,0-2.289-.879A9.6,9.6,0,0,1,5,56.871a2.835,2.835,0,0,1-1.251-2.417A3.483,3.483,0,0,1,5.121,51.7a5.363,5.363,0,0,1,3.558-1.147,5.315,5.315,0,0,1,3.638,1.221,3.5,3.5,0,0,1,1.331,2.844l-.024.073H11.328a2.08,2.08,0,0,0-.751-1.55,2.684,2.684,0,0,0-1.9-.7,2.736,2.736,0,0,0-1.9.574,1.79,1.79,0,0,0-.629,1.367A1.449,1.449,0,0,0,6.7,55.589a6.013,6.013,0,0,0,2.24.781,9.466,9.466,0,0,1,3.687,1.453,2.925,2.925,0,0,1,1.257,2.454,3.478,3.478,0,0,1-1.422,2.869A5.866,5.866,0,0,1,8.74,64.256a5.8,5.8,0,0,1-3.979-1.282,3.658,3.658,0,0,1-1.379-2.991l.024-.073H5.7a2.224,2.224,0,0,0,.952,1.874,3.684,3.684,0,0,0,2.087.592,3.288,3.288,0,0,0,2.008-.543A1.661,1.661,0,0,0,11.475,60.448Zm13.074,0a1.6,1.6,0,0,0-.6-1.294,5.832,5.832,0,0,0-2.289-.879,9.6,9.6,0,0,1-3.583-1.4,2.835,2.835,0,0,1-1.251-2.417A3.483,3.483,0,0,1,18.195,51.7a5.363,5.363,0,0,1,3.558-1.147,5.315,5.315,0,0,1,3.638,1.221,3.5,3.5,0,0,1,1.331,2.844l-.024.073H24.4a2.08,2.08,0,0,0-.751-1.55,2.684,2.684,0,0,0-1.9-.7,2.736,2.736,0,0,0-1.9.574,1.79,1.79,0,0,0-.629,1.367,1.449,1.449,0,0,0,.543,1.208,6.013,6.013,0,0,0,2.24.781A9.466,9.466,0,0,1,25.7,57.823a2.925,2.925,0,0,1,1.257,2.454,3.478,3.478,0,0,1-1.422,2.869,5.866,5.866,0,0,1-3.717,1.111,5.8,5.8,0,0,1-3.979-1.282,3.658,3.658,0,0,1-1.379-2.991l.024-.073h2.295a2.224,2.224,0,0,0,.952,1.874,3.684,3.684,0,0,0,2.087.592,3.288,3.288,0,0,0,2.008-.543A1.661,1.661,0,0,0,24.548,60.448Zm10.864,3.809a5.588,5.588,0,0,1-4.437-1.819,7,7,0,0,1-1.593-4.785v-.537a6.853,6.853,0,0,1,1.642-4.706,5.149,5.149,0,0,1,4.01-1.862A4.793,4.793,0,0,1,39.008,52.2a6.789,6.789,0,0,1,1.324,4.382v1.27H31.885l-.037.061a5.459,5.459,0,0,0,.879,3.229,3.071,3.071,0,0,0,2.686,1.239,6.049,6.049,0,0,0,2.142-.348,4.782,4.782,0,0,0,1.581-.958l.94,1.563a5.78,5.78,0,0,1-1.868,1.154A7.44,7.44,0,0,1,35.413,64.256ZM35.034,52.44a2.614,2.614,0,0,0-2.081.97,4.591,4.591,0,0,0-1.007,2.484l.024.061h5.957v-.2a3.846,3.846,0,0,0-.708-2.38A2.559,2.559,0,0,0,35.034,52.44Zm15.674,8.008a1.6,1.6,0,0,0-.6-1.294,5.832,5.832,0,0,0-2.289-.879,9.6,9.6,0,0,1-3.583-1.4,2.835,2.835,0,0,1-1.251-2.417A3.483,3.483,0,0,1,44.354,51.7a6.06,6.06,0,0,1,7.2.073,3.5,3.5,0,0,1,1.331,2.844l-.024.073H50.562a2.08,2.08,0,0,0-.751-1.55,2.684,2.684,0,0,0-1.9-.7,2.736,2.736,0,0,0-1.9.574,1.79,1.79,0,0,0-.629,1.367,1.449,1.449,0,0,0,.543,1.208,6.013,6.013,0,0,0,2.24.781,9.466,9.466,0,0,1,3.687,1.453,2.925,2.925,0,0,1,1.257,2.454,3.478,3.478,0,0,1-1.422,2.869,5.866,5.866,0,0,1-3.717,1.111,5.8,5.8,0,0,1-3.979-1.282,3.658,3.658,0,0,1-1.379-2.991l.024-.073h2.295a2.224,2.224,0,0,0,.952,1.874,3.684,3.684,0,0,0,2.087.592,3.288,3.288,0,0,0,2.008-.543A1.661,1.661,0,0,0,50.708,60.448ZM58.728,64h-2.4V61.534h2.4Z" transform="translate(205 320)" fill="#a2a2a2"/>
    <g transform="matrix(1, 0, 0, 1, 0, 0)" filter="url(#Trazado_7242)">
      <path id="Trazado_7242-2" data-name="Trazado 7242" d="M75.084,0a75.084,75.084,0,0,1,75.084,75.084v.139A75.084,75.084,0,0,1,0,75.223v-.139A75.084,75.084,0,0,1,75.084,0Z" transform="translate(126 69.66)" fill="#44d62c"/>
    </g>
    <path id="Trazado_6140" data-name="Trazado 6140" d="M586.726,5205.592a1.574,1.574,0,0,0-1.4.012l-6.79,3.444-5.314-9.129a10.419,10.419,0,0,0-9.24-5.514h-26.26a11.236,11.236,0,0,0-9.584,5.416l-4.884,7.938a1.574,1.574,0,0,0,.5,2.154l17.33,11.028a1.575,1.575,0,0,0,2.221-.564l6.617-11.905,7.247,13.706-6.6,3.959a1.576,1.576,0,0,0,.632,2.918l23.448,2.666a1.548,1.548,0,0,0,.178.01,1.576,1.576,0,0,0,1.418-.889l11.213-23.146A1.575,1.575,0,0,0,586.726,5205.592Zm-45.366,11.793-14.609-9.3,4.08-6.629a8.076,8.076,0,0,1,6.891-3.9h6.4l3.9,7.838Zm32.535,11.08-17.721-2.015,3.893-2.337a1.575,1.575,0,0,0,.581-2.086l-12.939-24.471h16.273a7.34,7.34,0,0,1,6.516,3.938l6.063,10.419a1.576,1.576,0,0,0,2.073.61l3.948-2Z" transform="translate(-346.962 -5094.972)" fill="#fff"/>
    <path id="Trazado_6141" data-name="Trazado 6141" d="M664.788,5373.405l-5.092-10.171a1.576,1.576,0,0,0-2.114-.706c-.031.016-.062.033-.092.051l-18.906,11.028a1.574,1.574,0,0,0-.583,2.126l6.573,11.845H629.923v-6.3a1.575,1.575,0,0,0-2.741-1.06l-15.755,17.33a1.574,1.574,0,0,0-.082,2.021l15.755,20.481a1.575,1.575,0,0,0,2.823-.961v-4.727h11.028a10.083,10.083,0,0,0,9.239-5.515l11.028-18.9,3.277-5.294A11.164,11.164,0,0,0,664.788,5373.405ZM647.45,5407.3a7.019,7.019,0,0,1-6.5,3.914h-12.6a1.575,1.575,0,0,0-1.576,1.575v1.67l-12.131-15.764,12.131-13.342v3.8a1.575,1.575,0,0,0,1.576,1.575h28.767Zm14.359-24.291-2.836,4.569H648.18L641.5,5375.56l16.122-9.407L662,5374.88A8.044,8.044,0,0,1,661.809,5383.006Z" transform="translate(-417.629 -5229.852)" fill="#fff"/>
    <path id="Trazado_6142" data-name="Trazado 6142" d="M448.676,5343.789l-9.453-20.481a1.576,1.576,0,0,0-1.53-.916l-25.208,1.576a1.575,1.575,0,0,0-.733,2.911l0,0,7.789,4.831-5.2,10.411a11.343,11.343,0,0,0,.028,10.99l8.768,15.14,4.794,8.3a11.572,11.572,0,0,0,9.858,5.7h6.3a1.575,1.575,0,0,0,1.576-1.576v-22.056a1.576,1.576,0,0,0-1.576-1.576h-11.77l7.858-13.636,6.5,2.5a1.575,1.575,0,0,0,2-2.13ZM442.52,5360.2v18.905h-4.726a8.37,8.37,0,0,1-7.132-4.123l-4.325-7.493,4.462-7.289Zm-2.462-20.212a1.576,1.576,0,0,0-1.93.684L424.5,5364.32l-7.4-12.782a8.192,8.192,0,0,1,.054-7.962l5.859-11.743a1.575,1.575,0,0,0-.58-2.048l-4.819-2.98,19.2-1.2,7.373,15.976Z" transform="translate(-257.008 -5197.75)" fill="#fff"/>
  </g>
</svg>
