<svg xmlns="http://www.w3.org/2000/svg" width="184" height="136" viewBox="0 0 184 136">
  <g id="Grupo_1842" data-name="Grupo 1842" transform="translate(-7566 -2563)">
    <g id="Grupo_1841" data-name="Grupo 1841">
      <g id="Grupo_1839" data-name="Grupo 1839" transform="translate(866 -238)">
        <g id="Rectángulo_3066" data-name="Rectángulo 3066" transform="translate(6700 2801)" fill="none" stroke="#fff" stroke-width="1">
          <rect width="184" height="136" rx="10" stroke="none"/>
          <rect x="0.5" y="0.5" width="183" height="135" rx="9.5" fill="none"/>
        </g>
        <path id="Trazado_7251" data-name="Trazado 7251" d="M11.73-15.641V-5.3A5.488,5.488,0,0,1,10.27-1.235,5.13,5.13,0,0,1,6.478.226,4.976,4.976,0,0,1,2.755-1.241,5.552,5.552,0,0,1,1.321-5.3V-15.641H3.5V-5.3a4.429,4.429,0,0,0,.822,2.841A2.627,2.627,0,0,0,6.478-1.429,2.737,2.737,0,0,0,8.7-2.449,4.346,4.346,0,0,0,9.539-5.3V-15.641ZM23.01-5.446a7.36,7.36,0,0,1-1.026,4.125A3.25,3.25,0,0,1,19.121.226,3.288,3.288,0,0,1,17.6-.113a3.09,3.09,0,0,1-1.123-.994V4.469H14.287V-11.623h1.858l.2,1.4a3.421,3.421,0,0,1,1.16-1.2,3.045,3.045,0,0,1,1.6-.414,3.2,3.2,0,0,1,2.874,1.687A8.554,8.554,0,0,1,23.01-5.672Zm-2.191-.226a7.739,7.739,0,0,0-.575-3.223,1.843,1.843,0,0,0-1.724-1.246,1.918,1.918,0,0,0-1.235.4,2.794,2.794,0,0,0-.806,1.09v5.854a2.443,2.443,0,0,0,.806,1.01,2.115,2.115,0,0,0,1.246.354,1.835,1.835,0,0,0,1.719-1.1,6.366,6.366,0,0,0,.569-2.922ZM27.446,0H25.255V-16.758h2.191ZM29.67-5.94a6.946,6.946,0,0,1,1.225-4.243,3.955,3.955,0,0,1,3.362-1.654,3.969,3.969,0,0,1,3.368,1.654,6.924,6.924,0,0,1,1.23,4.243v.29A6.893,6.893,0,0,1,37.63-1.413,3.958,3.958,0,0,1,34.278.226a3.99,3.99,0,0,1-3.384-1.638A6.893,6.893,0,0,1,29.67-5.65Zm2.191.29a6.747,6.747,0,0,0,.6,3.04,1.933,1.933,0,0,0,1.821,1.182,1.91,1.91,0,0,0,1.789-1.187,6.754,6.754,0,0,0,.6-3.035v-.29a6.716,6.716,0,0,0-.6-3.024,1.927,1.927,0,0,0-1.8-1.2,1.917,1.917,0,0,0-1.8,1.2,6.768,6.768,0,0,0-.6,3.024ZM46.976,0q-.14-.526-.22-.94a5.922,5.922,0,0,1-.1-.822A4.268,4.268,0,0,1,45.434-.338,2.812,2.812,0,0,1,43.71.226,3.052,3.052,0,0,1,41.32-.7a3.632,3.632,0,0,1-.833-2.524,3.166,3.166,0,0,1,1.155-2.589,4.943,4.943,0,0,1,3.217-.945h1.783V-7.949a2.608,2.608,0,0,0-.473-1.66,1.626,1.626,0,0,0-1.354-.6,1.619,1.619,0,0,0-1.262.516,1.892,1.892,0,0,0-.467,1.321L41-8.357l-.021-.064a2.954,2.954,0,0,1,1.053-2.385,4.137,4.137,0,0,1,2.922-1.031,3.915,3.915,0,0,1,2.8,1.015,3.792,3.792,0,0,1,1.074,2.9v5.393a9.546,9.546,0,0,0,.086,1.294A8.243,8.243,0,0,0,49.188,0ZM44.161-1.45A2.448,2.448,0,0,0,45.74-2a2.562,2.562,0,0,0,.9-1.337V-5.4H44.827a2.006,2.006,0,0,0-1.579.639,2.237,2.237,0,0,0-.569,1.542,2,2,0,0,0,.387,1.289A1.323,1.323,0,0,0,44.161-1.45Zm6.757-4.222a8.59,8.59,0,0,1,1.021-4.479,3.188,3.188,0,0,1,2.868-1.687,2.958,2.958,0,0,1,1.482.371A3.365,3.365,0,0,1,57.417-10.4v-6.359H59.6V0h-1.8l-.226-1.4A3.447,3.447,0,0,1,56.386-.188a3.081,3.081,0,0,1-1.6.414,3.221,3.221,0,0,1-2.852-1.552,7.426,7.426,0,0,1-1.015-4.12Zm2.17.226a6.473,6.473,0,0,0,.548,2.906,1.8,1.8,0,0,0,1.708,1.08,1.994,1.994,0,0,0,1.241-.387,2.783,2.783,0,0,0,.833-1.1V-8.572a3.077,3.077,0,0,0-.838-1.144,1.867,1.867,0,0,0-1.225-.424A1.81,1.81,0,0,0,53.641-8.9a8,8,0,0,0-.553,3.228Zm23.923.741.021.064a4.612,4.612,0,0,1-1.289,3.588A5.071,5.071,0,0,1,72.08.226a4.976,4.976,0,0,1-3.835-1.542A6.121,6.121,0,0,1,66.816-5.64v-4.34a6.225,6.225,0,0,1,1.407-4.329A4.844,4.844,0,0,1,72-15.866a5.3,5.3,0,0,1,3.738,1.241A4.574,4.574,0,0,1,77.043-11l-.021.064H74.927A3.54,3.54,0,0,0,74.2-13.4,2.843,2.843,0,0,0,72-14.19a2.586,2.586,0,0,0-2.224,1.08,5.219,5.219,0,0,0-.784,3.1V-5.64A5.18,5.18,0,0,0,69.8-2.514,2.67,2.67,0,0,0,72.08-1.429a2.734,2.734,0,0,0,2.127-.779,3.645,3.645,0,0,0,.709-2.5Zm6.682,1.117.226.956h.064l.226-.945,3.255-12.063h2.331L85.014,0H82.887l-4.77-15.641h2.32Z" transform="translate(6749 2917)" fill="#fff"/>
        <g id="Grupo_1820" data-name="Grupo 1820" transform="translate(6749.815 2822.266)">
          <path id="Trazado_2" data-name="Trazado 2" d="M59.624,54c-3.7,0-7.441-.04-11.145,0a1.428,1.428,0,0,1-1.393-1.393c.04-2.3.469-1.393,2.786-1.393,6.6,0,12.907.02,19.5,0,7.25-.02,12.7-6.7,12.538-13.931a11.809,11.809,0,0,0-8.359-11.145,1.851,1.851,0,0,1-1.393-1.393C71.231,17.3,64.246,12.554,56.838,13.6c-2.436.357-5-.093-6.966,1.393-.594.436-1.155.594-1.393,0C45.428,7.549,38.43,3.753,30.368,3.852A18.755,18.755,0,0,0,12.258,20.57a12.865,12.865,0,0,0,0,4.179c.119.654.555,1.215,0,1.393C6.791,27.826,2.526,33.055,2.506,38.68A12.565,12.565,0,0,0,15.044,51.218c7.072.04,13.825.04,20.9,0a1.237,1.237,0,0,1,1.393,1.393C37.275,54.652,38,54,35.941,54h-19.5C7.008,54-.914,46.676-.28,37.287c.4-5.9,3.109-9.765,8.359-12.538.574-.3,1.393-.72,1.393-1.393-.02-11.35,6.978-20.269,18.111-22.29a22.159,22.159,0,0,1,22.29,9.752c.535.832.462.376,1.393,0,9.726-3.882,20.93,2.4,23.683,12.538.158.614.8-.3,1.393,0,6.1,2.912,9.171,10.319,8.359,16.717-.911,7.19-5.625,12.6-12.538,13.931a19.651,19.651,0,0,1-4.179,0C65.209,53.985,62.4,54,59.624,54Z" transform="translate(0 0)" fill="#fff"/>
          <path id="Trazado_3" data-name="Trazado 3" d="M158.6,151.016c-3.308,3.328-6.7,6.622-9.752,9.752-.614.614-.759.693-1.393,0-1.565-1.684-1.6-1.182,0-2.786,3.981-3.981,7.163-8.517,11.145-12.538.5-.5.8-.594,1.393,0,4.318,4.378,9.573,9.613,13.931,13.931.475.475.555-.456,0,0-.634.515-2.073,2.786-2.786,2.786s-.819-2.212-1.393-2.786c-2.555-2.535-4.43-4.43-6.966-6.966l-1.393-1.393c-.277.376,0,1.056,0,1.393,0,10.815-.04,22.619,0,33.435,0,.891-.482.04-1.393,0-2.06-.059-1.393.647-1.393-1.393V152.41C158.558,152.132,158.6,151.69,158.6,151.016Z" transform="translate(-117.084 -116.516)" fill="#fff"/>
        </g>
      </g>
    </g>
  </g>
</svg>
