<svg xmlns="http://www.w3.org/2000/svg" xmlns:xlink="http://www.w3.org/1999/xlink" width="160" height="190" viewBox="0 0 160 190">
  <defs>
    <clipPath id="clip-Beverages1">
      <rect width="160" height="190"/>
    </clipPath>
  </defs>
  <g id="Beverages1" clip-path="url(#clip-Beverages1)">
    <rect id="Rectángulo_2923" data-name="Rectángulo 2923" width="128" height="155" rx="14" transform="translate(16 17.66)" fill="none" opacity="0.93"/>
    <path id="Trazado_9433" data-name="Trazado 9433" d="M-25.784,0V-9.242h2.647a3.573,3.573,0,0,1,2.253.632,2.252,2.252,0,0,1,.806,1.888,2.286,2.286,0,0,1-.3,1.165,1.788,1.788,0,0,1-.873.759,1.711,1.711,0,0,1,1.152.743,2.457,2.457,0,0,1,.378,1.365,2.541,2.541,0,0,1-.771,2.009,3.214,3.214,0,0,1-2.2.682Zm1.79-4.094v2.7h1.308a1.135,1.135,0,0,0,.882-.327,1.392,1.392,0,0,0,.3-.968,1.668,1.668,0,0,0-.273-1.022,1.043,1.043,0,0,0-.851-.381h-1.365Zm0-1.238h.939a1.22,1.22,0,0,0,.882-.324,1.236,1.236,0,0,0,.3-.9,1.309,1.309,0,0,0-.317-.971,1.31,1.31,0,0,0-.952-.311h-.857ZM-16.021.133a2.542,2.542,0,0,1-2.107-.939,3.76,3.76,0,0,1-.749-2.418v-.26a4.162,4.162,0,0,1,.72-2.533A2.373,2.373,0,0,1-16.129-7a2.217,2.217,0,0,1,1.86.832,3.587,3.587,0,0,1,.647,2.26v.978h-3.466a2.413,2.413,0,0,0,.346,1.212,1.041,1.041,0,0,0,.93.451,2.763,2.763,0,0,0,.892-.124,3.623,3.623,0,0,0,.771-.39l.463,1.117a2.968,2.968,0,0,1-.993.565A3.881,3.881,0,0,1-16.021.133Zm-.108-5.726a.717.717,0,0,0-.67.4,2.745,2.745,0,0,0-.276,1.089h1.7v-.159a2.226,2.226,0,0,0-.175-.978A.6.6,0,0,0-16.129-5.592Zm5.567,3.053.083.521h.038l.1-.521.838-4.329h1.873L-9.591,0h-1.746L-13.3-6.868h1.885ZM-4.4.133A2.542,2.542,0,0,1-6.506-.806a3.76,3.76,0,0,1-.749-2.418v-.26a4.162,4.162,0,0,1,.72-2.533A2.373,2.373,0,0,1-4.507-7a2.217,2.217,0,0,1,1.86.832A3.587,3.587,0,0,1-2-3.9v.978H-5.465a2.413,2.413,0,0,0,.346,1.212,1.041,1.041,0,0,0,.93.451A2.763,2.763,0,0,0-3.3-1.387a3.623,3.623,0,0,0,.771-.39L-2.063-.66A2.968,2.968,0,0,1-3.056-.1,3.881,3.881,0,0,1-4.4.133Zm-.108-5.726a.717.717,0,0,0-.67.4,2.745,2.745,0,0,0-.276,1.089h1.7v-.159a2.226,2.226,0,0,0-.175-.978A.6.6,0,0,0-4.507-5.592Zm6.627.273-.609-.019a.776.776,0,0,0-.5.159A1,1,0,0,0,.7-4.735V0H-1.079V-6.868H.59L.66-5.9a2.114,2.114,0,0,1,.5-.809A1,1,0,0,1,1.873-7a1.04,1.04,0,0,1,.222.022q.1.022.209.054ZM6.392,0a3.021,3.021,0,0,1-.168-.5,4.207,4.207,0,0,1-.1-.546,2.43,2.43,0,0,1-.6.844,1.322,1.322,0,0,1-.911.33A1.863,1.863,0,0,1,3.171-.416a2.143,2.143,0,0,1-.5-1.508,1.921,1.921,0,0,1,.663-1.558,3.03,3.03,0,0,1,1.984-.555h.781v-.571A1.384,1.384,0,0,0,5.9-5.4a.642.642,0,0,0-.565-.276.6.6,0,0,0-.5.222,1.021,1.021,0,0,0-.171.635L2.939-4.824l-.013-.038a1.83,1.83,0,0,1,.667-1.511A2.707,2.707,0,0,1,5.453-7a2.487,2.487,0,0,1,1.758.622A2.3,2.3,0,0,1,7.884-4.6v2.818a5.723,5.723,0,0,0,.07.914A5.366,5.366,0,0,0,8.169,0ZM5.078-1.193a1,1,0,0,0,.635-.219,1.1,1.1,0,0,0,.381-.53V-3.021H5.313a.748.748,0,0,0-.657.292,1.245,1.245,0,0,0-.206.736.919.919,0,0,0,.171.578A.548.548,0,0,0,5.078-1.193ZM8.8-3.4A4.971,4.971,0,0,1,9.407-6,1.9,1.9,0,0,1,11.115-7a1.474,1.474,0,0,1,.835.238,2.106,2.106,0,0,1,.625.676l.121-.787H14.25v6.83a2.709,2.709,0,0,1-.784,2.076,3.05,3.05,0,0,1-2.174.736,3.607,3.607,0,0,1-.962-.14,4.494,4.494,0,0,1-.949-.381L9.68.9a3.579,3.579,0,0,0,.762.3,3.248,3.248,0,0,0,.838.1,1.121,1.121,0,0,0,.885-.327,1.51,1.51,0,0,0,.289-1.019V-.552a1.82,1.82,0,0,1-.594.511A1.61,1.61,0,0,1,11.1.133,1.91,1.91,0,0,1,9.407-.8a4.475,4.475,0,0,1-.6-2.466Zm1.79.133A3.881,3.881,0,0,0,10.816-1.8a.771.771,0,0,0,.755.527A1.027,1.027,0,0,0,12.1-1.4a.984.984,0,0,0,.359-.368v-3.25a1.159,1.159,0,0,0-.365-.422.886.886,0,0,0-.511-.149.791.791,0,0,0-.752.6,4.5,4.5,0,0,0-.232,1.59Zm7.471,3.4a2.542,2.542,0,0,1-2.107-.939,3.76,3.76,0,0,1-.749-2.418v-.26a4.162,4.162,0,0,1,.72-2.533A2.373,2.373,0,0,1,17.958-7a2.217,2.217,0,0,1,1.86.832,3.587,3.587,0,0,1,.647,2.26v.978H17a2.413,2.413,0,0,0,.346,1.212,1.041,1.041,0,0,0,.93.451,2.763,2.763,0,0,0,.892-.124,3.623,3.623,0,0,0,.771-.39L20.4-.66a2.968,2.968,0,0,1-.993.565A3.881,3.881,0,0,1,18.065.133Zm-.108-5.726a.717.717,0,0,0-.67.4,2.745,2.745,0,0,0-.276,1.089h1.7v-.159a2.226,2.226,0,0,0-.175-.978A.6.6,0,0,0,17.958-5.592Zm6.481,3.8a.682.682,0,0,0-.235-.521,3.858,3.858,0,0,0-.908-.527,4.806,4.806,0,0,1-1.574-.882,1.637,1.637,0,0,1-.527-1.257,1.837,1.837,0,0,1,.67-1.428A2.585,2.585,0,0,1,23.639-7a2.673,2.673,0,0,1,1.844.613,1.887,1.887,0,0,1,.657,1.546l-.013.038H24.4a1.16,1.16,0,0,0-.19-.7.666.666,0,0,0-.578-.263.729.729,0,0,0-.524.2.659.659,0,0,0-.213.5.628.628,0,0,0,.209.492,4.367,4.367,0,0,0,.914.517,4.442,4.442,0,0,1,1.615.879,1.728,1.728,0,0,1,.53,1.311,1.753,1.753,0,0,1-.7,1.435,2.883,2.883,0,0,1-1.85.559,2.592,2.592,0,0,1-1.9-.686,2.016,2.016,0,0,1-.667-1.555l.019-.038h1.625a1.115,1.115,0,0,0,.267.8.965.965,0,0,0,.7.244.819.819,0,0,0,.581-.187A.658.658,0,0,0,24.438-1.79Z" transform="translate(80 155)" fill="#5e5b5c"/>
    <g id="water" transform="translate(-81.047 47)">
      <g id="Grupo_34" data-name="Grupo 34" transform="translate(144.047)">
        <g id="Grupo_33" data-name="Grupo 33">
          <path id="Trazado_22" data-name="Trazado 22" d="M179.018,53.073a5.541,5.541,0,0,0-2.138-4.384,5.52,5.52,0,0,0-.243-8.924,6.142,6.142,0,0,0,2.322-4.853V23.241L167.723,8.611h2.469V0H152.814V8.611h2.625l-11.392,14.63V34.913a6.21,6.21,0,0,0,2.4,4.853,5.555,5.555,0,0,0-.182,8.924,5.579,5.579,0,0,0,.179,8.924,6.207,6.207,0,0,0-2.4,4.853v10.02a6.326,6.326,0,0,0,6.262,6.262h6.262v-.1A6.22,6.22,0,0,0,160.329,80h2.5a6.219,6.219,0,0,0,3.757-1.355v.1h6.262a6.192,6.192,0,0,0,6.106-6.262V62.467a6.14,6.14,0,0,0-2.319-4.853A5.572,5.572,0,0,0,179.018,53.073ZM155.163,6.262V2.348h12.681V6.262Zm3.24,2.348h6.358l10.718,13.934H147.684ZM173.48,49.942a3.209,3.209,0,1,1,0,6.419h-3.131v2.348h2.5a3.707,3.707,0,0,1,3.757,3.757v10.02a3.842,3.842,0,0,1-3.757,3.914h-4.4a7.082,7.082,0,0,0,.567-2.661H166.67a3.908,3.908,0,0,1-3.836,3.914h-2.505a3.908,3.908,0,0,1-3.836-3.914h-2.348a7.081,7.081,0,0,0,.568,2.661h-4.4a3.975,3.975,0,0,1-3.914-3.914V62.467a3.842,3.842,0,0,1,3.914-3.757h12.525V56.361H149.683a3.209,3.209,0,0,1,0-6.419h13.151V47.594H149.683a3.209,3.209,0,0,1,0-6.419h13.151V38.827H150.309a3.975,3.975,0,0,1-3.914-3.914V24.893h30.216v10.02a3.842,3.842,0,0,1-3.757,3.914h-2.5v2.348h3.131a3.209,3.209,0,1,1,0,6.419h-3.131v2.348Z" transform="translate(-144.047)" fill="#5e5b5c"/>
        </g>
      </g>
      <g id="Grupo_36" data-name="Grupo 36" transform="translate(152.815 17.534)">
        <g id="Grupo_35" data-name="Grupo 35">
          <rect id="Rectángulo_38" data-name="Rectángulo 38" width="2.505" height="2.348" fill="#5e5b5c"/>
        </g>
      </g>
      <g id="Grupo_38" data-name="Grupo 38" transform="translate(155.32 15.03)">
        <g id="Grupo_37" data-name="Grupo 37" transform="translate(0)">
          <rect id="Rectángulo_39" data-name="Rectángulo 39" width="2.505" height="2.348" fill="#5e5b5c"/>
        </g>
      </g>
      <g id="Grupo_40" data-name="Grupo 40" transform="translate(165.34 47.594)">
        <g id="Grupo_39" data-name="Grupo 39" transform="translate(0)">
          <rect id="Rectángulo_40" data-name="Rectángulo 40" width="2.505" height="2.348" fill="#5e5b5c"/>
        </g>
      </g>
      <g id="Grupo_42" data-name="Grupo 42" transform="translate(165.34 38.826)">
        <g id="Grupo_41" data-name="Grupo 41" transform="translate(0)">
          <rect id="Rectángulo_41" data-name="Rectángulo 41" width="2.505" height="2.348" fill="#5e5b5c"/>
        </g>
      </g>
      <g id="Grupo_44" data-name="Grupo 44" transform="translate(165.34 56.361)">
        <g id="Grupo_43" data-name="Grupo 43" transform="translate(0)">
          <rect id="Rectángulo_42" data-name="Rectángulo 42" width="2.505" height="2.348" fill="#5e5b5c"/>
        </g>
      </g>
    </g>
  </g>
</svg>
