<svg xmlns="http://www.w3.org/2000/svg" xmlns:xlink="http://www.w3.org/1999/xlink" width="160" height="190" viewBox="0 0 160 190">
  <defs>
    <filter id="Trazado_7084" x="-2" y="2" width="164" height="191" filterUnits="userSpaceOnUse">
      <feOffset dy="2" input="SourceAlpha"/>
      <feGaussianBlur stdDeviation="6" result="blur"/>
      <feFlood flood-color="#44d62c" flood-opacity="0.651"/>
      <feComposite operator="in" in2="blur"/>
      <feComposite in="SourceGraphic"/>
    </filter>
    <clipPath id="clip-Food2">
      <rect width="160" height="190"/>
    </clipPath>
  </defs>
  <g id="Food2" clip-path="url(#clip-Food2)">
    <g id="Grupo_1626" data-name="Grupo 1626" transform="translate(6542 12735)">
      <g id="Grupo_1627" data-name="Grupo 1627">
        <g transform="matrix(1, 0, 0, 1, -6542, -12735)" filter="url(#Trazado_7084)">
          <g id="Trazado_7084-2" data-name="Trazado 7084" transform="translate(16 18)" fill="#44d62c" opacity="0.93">
            <path d="M 114 154.5 L 14 154.5 C 10.39402008056641 154.5 7.003880023956299 153.0957641601563 4.454060077667236 150.5459442138672 C 1.904240012168884 147.9961395263672 0.5 144.6059875488281 0.5 141 L 0.5 14 C 0.5 10.39402008056641 1.904240012168884 7.003880023956299 4.454060077667236 4.454060077667236 C 7.003880023956299 1.904240012168884 10.39402008056641 0.5 14 0.5 L 114 0.5 C 117.6059799194336 0.5 120.9961166381836 1.904240012168884 123.5459365844727 4.454060077667236 C 126.0957565307617 7.003880023956299 127.5 10.39402008056641 127.5 14 L 127.5 141 C 127.5 144.6059875488281 126.0957565307617 147.9961395263672 123.5459365844727 150.5459442138672 C 120.9961166381836 153.0957641601563 117.6059799194336 154.5 114 154.5 Z" stroke="none"/>
            <path d="M 14 1 C 10.52758026123047 1 7.262977600097656 2.35223388671875 4.8076171875 4.807601928710938 C 2.352241516113281 7.262985229492188 1 10.52757263183594 1 14 L 1 141 C 1 144.472412109375 2.352241516113281 147.7370147705078 4.8076171875 150.1923980712891 C 7.262977600097656 152.6477661132813 10.52758026123047 154 14 154 L 114 154 C 117.4724197387695 154 120.7370223999023 152.6477661132813 123.1923828125 150.1923980712891 C 125.6477584838867 147.7370147705078 127 144.472412109375 127 141 L 127 14 C 127 10.52757263183594 125.6477584838867 7.262985229492188 123.1923828125 4.807601928710938 C 120.7370223999023 2.35223388671875 117.4724197387695 1 114 1 L 14 1 M 14 0 L 114 0 C 121.7319793701172 0 128 6.26800537109375 128 14 L 128 141 C 128 148.7319946289063 121.7319793701172 155 114 155 L 14 155 C 6.268020629882813 155 0 148.7319946289063 0 141 L 0 14 C 0 6.26800537109375 6.268020629882813 0 14 0 Z" stroke="none" fill="#fff"/>
          </g>
        </g>
        <path id="Trazado_17" data-name="Trazado 17" d="M86.855,59.675c3.93-10.594,3.93-41.417,0-52.01L88.008,1.56A1.316,1.316,0,0,0,86.715,0H43.1A1.316,1.316,0,0,0,41.8,1.56l1.152,6.106c-3.93,10.593-3.93,41.416,0,52.01L41.8,65.781a1.316,1.316,0,0,0,1.293,1.56H86.718a1.317,1.317,0,0,0,1.268-1.667ZM85.128,2.631,84.4,6.469h-39l-.724-3.838ZM45.237,9.1H84.572c3.467,10.276,3.467,38.862,0,49.139H45.237C41.771,47.963,41.771,19.376,45.237,9.1Zm-.555,55.609.725-3.838h39l.724,3.838Z" transform="translate(-6527.008 -12675.341)" fill="#fff"/>
        <path id="Trazado_18" data-name="Trazado 18" d="M79.235,125.378l.011,0,.076.012a2.581,2.581,0,0,0,.321.019,17.863,17.863,0,0,0,4.262-1.035,29.214,29.214,0,0,1,5.755-1.407c.145-.008.288-.012.431-.012a16.5,16.5,0,0,1,3.684.576,22.591,22.591,0,0,0,5.321.758c1.678,0,5.878-.308,8.618-3.163a8.638,8.638,0,0,0,2.277-6.606c-.3-7.374-8.3-10.564-12.318-10.564-6.1,0-9.5,5.024-10.707,8.3-8.213,1.2-10.982,7.848-10.982,9.607A3.457,3.457,0,0,0,79.235,125.378Zm18.437-18.789c2.754,0,9.453,2.314,9.689,8.041a6.112,6.112,0,0,1-1.546,4.675c-2.1,2.184-5.673,2.354-6.72,2.354a20.144,20.144,0,0,1-4.725-.69,18.747,18.747,0,0,0-4.28-.644c-.194,0-.388.005-.578.016a19.028,19.028,0,0,0-3.79.744,28.322,28.322,0,0,0,3.49-7.232c0-.006,0-.013.005-.02s0-.008,0-.012C89.305,113.527,91.359,106.588,97.672,106.588Zm-11.74,8.562c-1.255,3.006-3.6,7.2-6.442,7.606-.873-.156-.875-.594-.875-.881C78.652,121.179,80.344,116.6,85.932,115.15Z" transform="translate(-6555.096 -12756.501)" fill="#fff"/>
        <path id="Trazado_9410" data-name="Trazado 9410" d="M-7.252-3.866h-2.933V0h-1.79V-9.242h5.281v1.4h-3.491v2.577h2.933Zm1.117.368A4.061,4.061,0,0,1-5.4-6.021,2.459,2.459,0,0,1-3.317-7a2.478,2.478,0,0,1,2.082.974A4.024,4.024,0,0,1-.486-3.5v.146A4.009,4.009,0,0,1-1.231-.835,2.469,2.469,0,0,1-3.3.133,2.483,2.483,0,0,1-5.392-.832a4.018,4.018,0,0,1-.743-2.52Zm1.784.146a4,4,0,0,0,.238,1.523.826.826,0,0,0,.809.565.816.816,0,0,0,.787-.565,3.955,3.955,0,0,0,.241-1.523V-3.5a3.989,3.989,0,0,0-.241-1.52.824.824,0,0,0-.8-.574.819.819,0,0,0-.8.578A4.042,4.042,0,0,0-4.351-3.5ZM.263-3.5A4.061,4.061,0,0,1,1-6.021,2.459,2.459,0,0,1,3.082-7a2.478,2.478,0,0,1,2.082.974A4.024,4.024,0,0,1,5.913-3.5v.146A4.009,4.009,0,0,1,5.167-.835,2.469,2.469,0,0,1,3.094.133,2.483,2.483,0,0,1,1.006-.832a4.018,4.018,0,0,1-.743-2.52Zm1.784.146a4,4,0,0,0,.238,1.523.826.826,0,0,0,.809.565.816.816,0,0,0,.787-.565,3.955,3.955,0,0,0,.241-1.523V-3.5a3.989,3.989,0,0,0-.241-1.52.824.824,0,0,0-.8-.574.819.819,0,0,0-.8.578A4.042,4.042,0,0,0,2.047-3.5Zm4.6-.044A4.971,4.971,0,0,1,7.246-6,1.9,1.9,0,0,1,8.953-7a1.439,1.439,0,0,1,.746.2,1.97,1.97,0,0,1,.594.559V-9.9h1.79V0h-1.53L10.42-.774A2.037,2.037,0,0,1,9.779-.1a1.54,1.54,0,0,1-.838.232A1.91,1.91,0,0,1,7.246-.8a4.475,4.475,0,0,1-.6-2.466Zm1.777.133A3.787,3.787,0,0,0,8.649-1.8a.779.779,0,0,0,.755.53.979.979,0,0,0,.517-.136,1.042,1.042,0,0,0,.371-.4V-4.964a1.226,1.226,0,0,0-.375-.457.847.847,0,0,0-.508-.165.8.8,0,0,0-.755.6A4.452,4.452,0,0,0,8.42-3.4Z" transform="translate(-6462 -12580)" fill="#fff"/>
      </g>
    </g>
  </g>
</svg>
