<svg xmlns="http://www.w3.org/2000/svg" xmlns:xlink="http://www.w3.org/1999/xlink" width="160" height="190" viewBox="0 0 160 190">
  <defs>
    <filter id="Trazado_7100" x="-2" y="2" width="164" height="191" filterUnits="userSpaceOnUse">
      <feOffset dy="2" input="SourceAlpha"/>
      <feGaussianBlur stdDeviation="6" result="blur"/>
      <feFlood flood-color="#44d62c" flood-opacity="0.651"/>
      <feComposite operator="in" in2="blur"/>
      <feComposite in="SourceGraphic"/>
    </filter>
    <clipPath id="clip-Road-markers2">
      <rect width="160" height="190"/>
    </clipPath>
  </defs>
  <g id="Road-markers2" clip-path="url(#clip-Road-markers2)">
    <g id="Grupo_1636" data-name="Grupo 1636" transform="translate(5564 12735)">
      <g transform="matrix(1, 0, 0, 1, -5564, -12735)" filter="url(#Trazado_7100)">
        <g id="Trazado_7100-2" data-name="Trazado 7100" transform="translate(16 18)" fill="#44d62c" opacity="0.93">
          <path d="M 114 154.5 L 14 154.5 C 10.39402008056641 154.5 7.003880023956299 153.0957641601563 4.454060077667236 150.5459442138672 C 1.904240012168884 147.9961395263672 0.5 144.6059875488281 0.5 141 L 0.5 14 C 0.5 10.39402008056641 1.904240012168884 7.003880023956299 4.454060077667236 4.454060077667236 C 7.003880023956299 1.904240012168884 10.39402008056641 0.5 14 0.5 L 114 0.5 C 117.6059799194336 0.5 120.9961166381836 1.904240012168884 123.5459365844727 4.454060077667236 C 126.0957565307617 7.003880023956299 127.5 10.39402008056641 127.5 14 L 127.5 141 C 127.5 144.6059875488281 126.0957565307617 147.9961395263672 123.5459365844727 150.5459442138672 C 120.9961166381836 153.0957641601563 117.6059799194336 154.5 114 154.5 Z" stroke="none"/>
          <path d="M 14 1 C 10.52758026123047 1 7.262977600097656 2.35223388671875 4.8076171875 4.807601928710938 C 2.352241516113281 7.262985229492188 1 10.52757263183594 1 14 L 1 141 C 1 144.472412109375 2.352241516113281 147.7370147705078 4.8076171875 150.1923980712891 C 7.262977600097656 152.6477661132813 10.52758026123047 154 14 154 L 114 154 C 117.4724197387695 154 120.7370223999023 152.6477661132813 123.1923828125 150.1923980712891 C 125.6477584838867 147.7370147705078 127 144.472412109375 127 141 L 127 14 C 127 10.52757263183594 125.6477584838867 7.262985229492188 123.1923828125 4.807601928710938 C 120.7370223999023 2.35223388671875 117.4724197387695 1 114 1 L 14 1 M 14 0 L 114 0 C 121.7319793701172 0 128 6.26800537109375 128 14 L 128 141 C 128 148.7319946289063 121.7319793701172 155 114 155 L 14 155 C 6.268020629882813 155 0 148.7319946289063 0 141 L 0 14 C 0 6.26800537109375 6.268020629882813 0 14 0 Z" stroke="none" fill="#fff"/>
        </g>
      </g>
      <path id="Trazado_5991" data-name="Trazado 5991" d="M118.426,57.331h-.208l-2.562-11.056a.838.838,0,0,0-.035-.386l-2.58-11.217a1.154,1.154,0,0,0-.17-.416l-2.393-10.328a.839.839,0,0,0-.017-.473l-2.58-11.217a1.133,1.133,0,0,0-.225-.491L105.3,1.58A3.367,3.367,0,0,0,102.049-1H96.664a3.367,3.367,0,0,0-3.253,2.58L80.495,57.331h-.208a4.487,4.487,0,1,0,0,8.974h38.139a4.487,4.487,0,0,0,0-8.974Zm-5.384-12.339H85.7l.87-3.788L87.8,36.018H111.02l.095.409ZM92.963,13.583h12.859l1.418,6.119.642,2.855H90.854l.656-2.855ZM90.338,24.8h18.082l2.079,8.974H88.277Zm5.2-22.659a1.092,1.092,0,0,1,1.122-.9h5.384a1.092,1.092,0,0,1,1.122.9l2.131,9.2H93.43ZM85.186,47.235h28.433l2.339,10.1H82.867Zm33.241,16.826H80.287a2.244,2.244,0,1,1,0-4.487h38.139a2.244,2.244,0,0,1,0,4.487Z" transform="translate(-5583.8 -12674.305)" fill="#fff"/>
      <path id="Trazado_9432" data-name="Trazado 9432" d="M-32.649-3.707V0h-1.79V-9.236h2.768a3.105,3.105,0,0,1,2.168.717,2.563,2.563,0,0,1,.79,2,2.278,2.278,0,0,1-.333,1.244,2.323,2.323,0,0,1-.962.838,1.785,1.785,0,0,1,1.041.8,2.794,2.794,0,0,1,.317,1.4v.673a3.974,3.974,0,0,0,.089.813,1.087,1.087,0,0,0,.317.622V0H-30.1a1.058,1.058,0,0,1-.282-.663,7.053,7.053,0,0,1-.06-.917v-.647a1.782,1.782,0,0,0-.292-1.092.986.986,0,0,0-.838-.387Zm0-1.4h.965a1.1,1.1,0,0,0,.879-.346,1.446,1.446,0,0,0,.3-.981,1.624,1.624,0,0,0-.3-1.028,1.038,1.038,0,0,0-.87-.381h-.978ZM-27.6-3.5a4.061,4.061,0,0,1,.74-2.523A2.459,2.459,0,0,1-24.784-7a2.478,2.478,0,0,1,2.082.974A4.024,4.024,0,0,1-21.953-3.5v.146A4.009,4.009,0,0,1-22.7-.835a2.469,2.469,0,0,1-2.073.968A2.483,2.483,0,0,1-26.86-.832a4.018,4.018,0,0,1-.743-2.52Zm1.784.146a4,4,0,0,0,.238,1.523.826.826,0,0,0,.809.565.816.816,0,0,0,.787-.565,3.955,3.955,0,0,0,.241-1.523V-3.5a3.989,3.989,0,0,0-.241-1.52.824.824,0,0,0-.8-.574.819.819,0,0,0-.8.578A4.042,4.042,0,0,0-25.819-3.5ZM-17.554,0a3.021,3.021,0,0,1-.168-.5,4.206,4.206,0,0,1-.1-.546,2.43,2.43,0,0,1-.6.844,1.322,1.322,0,0,1-.911.33,1.863,1.863,0,0,1-1.444-.549,2.143,2.143,0,0,1-.5-1.508,1.921,1.921,0,0,1,.663-1.558,3.03,3.03,0,0,1,1.984-.555h.781v-.571a1.384,1.384,0,0,0-.19-.79.642.642,0,0,0-.565-.276.6.6,0,0,0-.5.222,1.021,1.021,0,0,0-.171.635l-1.727-.006-.013-.038a1.83,1.83,0,0,1,.667-1.511A2.707,2.707,0,0,1-18.494-7a2.487,2.487,0,0,1,1.758.622A2.3,2.3,0,0,1-16.063-4.6v2.818a5.724,5.724,0,0,0,.07.914A5.366,5.366,0,0,0-15.777,0Zm-1.314-1.193a1,1,0,0,0,.635-.219,1.1,1.1,0,0,0,.381-.53V-3.021h-.781a.748.748,0,0,0-.657.292,1.245,1.245,0,0,0-.206.736.919.919,0,0,0,.171.578A.548.548,0,0,0-18.868-1.193Zm3.72-2.2A4.971,4.971,0,0,1-14.546-6,1.9,1.9,0,0,1-12.838-7a1.439,1.439,0,0,1,.746.2,1.97,1.97,0,0,1,.594.559V-9.9h1.79V0h-1.53l-.133-.774a2.037,2.037,0,0,1-.641.676,1.54,1.54,0,0,1-.838.232A1.91,1.91,0,0,1-14.546-.8a4.475,4.475,0,0,1-.6-2.466Zm1.777.133A3.787,3.787,0,0,0-13.143-1.8a.779.779,0,0,0,.755.53.979.979,0,0,0,.517-.136,1.042,1.042,0,0,0,.371-.4V-4.964a1.226,1.226,0,0,0-.375-.457.847.847,0,0,0-.508-.165.8.8,0,0,0-.755.6A4.452,4.452,0,0,0-13.371-3.4Zm11.864.876h.038L.263-9.242H2.606V0H.828V-5.821L.79-5.827-.879,0h-1.2L-3.736-5.783l-.038.006V0H-5.557V-9.242h2.33ZM7.309,0a3.021,3.021,0,0,1-.168-.5,4.207,4.207,0,0,1-.1-.546,2.43,2.43,0,0,1-.6.844,1.322,1.322,0,0,1-.911.33A1.863,1.863,0,0,1,4.088-.416a2.143,2.143,0,0,1-.5-1.508,1.921,1.921,0,0,1,.663-1.558A3.03,3.03,0,0,1,6.23-4.037h.781v-.571a1.384,1.384,0,0,0-.19-.79.642.642,0,0,0-.565-.276.6.6,0,0,0-.5.222,1.021,1.021,0,0,0-.171.635L3.856-4.824l-.013-.038A1.83,1.83,0,0,1,4.51-6.373,2.707,2.707,0,0,1,6.37-7a2.487,2.487,0,0,1,1.758.622A2.3,2.3,0,0,1,8.8-4.6v2.818a5.723,5.723,0,0,0,.07.914A5.366,5.366,0,0,0,9.087,0ZM6-1.193a1,1,0,0,0,.635-.219,1.1,1.1,0,0,0,.381-.53V-3.021H6.23a.748.748,0,0,0-.657.292,1.245,1.245,0,0,0-.206.736.919.919,0,0,0,.171.578A.548.548,0,0,0,6-1.193Zm7.16-4.126-.609-.019a.776.776,0,0,0-.5.159,1,1,0,0,0-.308.444V0H9.956V-6.868h1.669l.07.971a2.114,2.114,0,0,1,.5-.809A1,1,0,0,1,12.908-7a1.04,1.04,0,0,1,.222.022q.1.022.209.054Zm2.958,2.438H15.79V0H14V-9.9h1.79v5.637h.292l1.244-2.6h2.063l-1.866,3.1L19.668,0h-2.05ZM22.677.133A2.542,2.542,0,0,1,20.57-.806a3.76,3.76,0,0,1-.749-2.418v-.26a4.162,4.162,0,0,1,.72-2.533A2.373,2.373,0,0,1,22.569-7a2.217,2.217,0,0,1,1.86.832,3.587,3.587,0,0,1,.647,2.26v.978H21.611a2.413,2.413,0,0,0,.346,1.212,1.041,1.041,0,0,0,.93.451,2.763,2.763,0,0,0,.892-.124,3.623,3.623,0,0,0,.771-.39L25.013-.66A2.968,2.968,0,0,1,24.02-.1,3.881,3.881,0,0,1,22.677.133Zm-.108-5.726a.717.717,0,0,0-.67.4,2.745,2.745,0,0,0-.276,1.089h1.7v-.159a2.226,2.226,0,0,0-.175-.978A.6.6,0,0,0,22.569-5.592Zm6.627.273-.609-.019a.776.776,0,0,0-.5.159,1,1,0,0,0-.308.444V0H26V-6.868h1.669l.07.971a2.114,2.114,0,0,1,.5-.809A1,1,0,0,1,28.948-7a1.04,1.04,0,0,1,.222.022q.1.022.209.054Zm3.9,3.529a.682.682,0,0,0-.235-.521,3.858,3.858,0,0,0-.908-.527,4.806,4.806,0,0,1-1.574-.882,1.637,1.637,0,0,1-.527-1.257A1.837,1.837,0,0,1,30.52-6.4,2.585,2.585,0,0,1,32.294-7a2.673,2.673,0,0,1,1.844.613,1.887,1.887,0,0,1,.657,1.546l-.013.038H33.055a1.16,1.16,0,0,0-.19-.7.666.666,0,0,0-.578-.263.729.729,0,0,0-.524.2.659.659,0,0,0-.213.5.628.628,0,0,0,.209.492,4.367,4.367,0,0,0,.914.517,4.442,4.442,0,0,1,1.615.879,1.728,1.728,0,0,1,.53,1.311,1.753,1.753,0,0,1-.7,1.435,2.883,2.883,0,0,1-1.85.559,2.592,2.592,0,0,1-1.9-.686A2.016,2.016,0,0,1,29.7-2.107l.019-.038h1.625a1.115,1.115,0,0,0,.267.8.965.965,0,0,0,.7.244.819.819,0,0,0,.581-.187A.658.658,0,0,0,33.094-1.79Z" transform="translate(-5484 -12580)" fill="#fff"/>
    </g>
  </g>
</svg>
