<svg xmlns="http://www.w3.org/2000/svg" xmlns:xlink="http://www.w3.org/1999/xlink" width="160" height="190" viewBox="0 0 160 190">
  <defs>
    <filter id="Trazado_9420" x="-29" y="-12.34" width="218" height="245" filterUnits="userSpaceOnUse">
      <feOffset dy="15" input="SourceAlpha"/>
      <feGaussianBlur stdDeviation="15" result="blur"/>
      <feFlood flood-color="#010101" flood-opacity="0.129"/>
      <feComposite operator="in" in2="blur"/>
      <feComposite in="SourceGraphic"/>
    </filter>
    <clipPath id="clip-Water-storage1">
      <rect width="160" height="190"/>
    </clipPath>
  </defs>
  <g id="Water-storage1" clip-path="url(#clip-Water-storage1)">
    <g id="Grupo_1631" data-name="Grupo 1631" transform="translate(6090 12973)">
      <g id="Grupo_1618" data-name="Grupo 1618" transform="translate(-200)">
        <g transform="matrix(1, 0, 0, 1, -5890, -12973)" filter="url(#Trazado_9420)">
          <path id="Trazado_9420-2" data-name="Trazado 9420" d="M14,0H114a14,14,0,0,1,14,14V141a14,14,0,0,1-14,14H14A14,14,0,0,1,0,141V14A14,14,0,0,1,14,0Z" transform="translate(16 17.66)" fill="none" opacity="0.93"/>
        </g>
        <path id="Trazado_9421" data-name="Trazado 9421" d="M-29.31-3.383l.038-.006.946-5.853H-26.5L-28.314,0h-1.663l-1.352-5.726h-.038L-32.713,0h-1.663L-36.2-9.242h1.834l.946,5.865.038.006,1.327-5.872h1.409ZM-22.556,0a3.021,3.021,0,0,1-.168-.5,4.206,4.206,0,0,1-.1-.546,2.43,2.43,0,0,1-.6.844,1.322,1.322,0,0,1-.911.33,1.863,1.863,0,0,1-1.444-.549,2.143,2.143,0,0,1-.5-1.508,1.921,1.921,0,0,1,.663-1.558,3.03,3.03,0,0,1,1.984-.555h.781v-.571a1.384,1.384,0,0,0-.19-.79.642.642,0,0,0-.565-.276.6.6,0,0,0-.5.222,1.021,1.021,0,0,0-.171.635l-1.727-.006-.013-.038a1.83,1.83,0,0,1,.667-1.511A2.707,2.707,0,0,1-23.5-7a2.487,2.487,0,0,1,1.758.622A2.3,2.3,0,0,1-21.065-4.6v2.818a5.724,5.724,0,0,0,.07.914A5.366,5.366,0,0,0-20.779,0ZM-23.87-1.193a1,1,0,0,0,.635-.219,1.1,1.1,0,0,0,.381-.53V-3.021h-.781a.748.748,0,0,0-.657.292,1.245,1.245,0,0,0-.206.736.919.919,0,0,0,.171.578A.548.548,0,0,0-23.87-1.193Zm6.056-7.382v1.708h.933v1.276h-.933v3.5a1.138,1.138,0,0,0,.127.622.4.4,0,0,0,.349.184,1.141,1.141,0,0,0,.209-.016,1.871,1.871,0,0,0,.2-.054l.14,1.32a3.142,3.142,0,0,1-.486.13A3,3,0,0,1-17.8.133,1.688,1.688,0,0,1-19.138-.4,2.516,2.516,0,0,1-19.6-2.082v-3.51h-.832V-6.868h.832V-8.576ZM-13.251.133a2.542,2.542,0,0,1-2.107-.939,3.76,3.76,0,0,1-.749-2.418v-.26a4.162,4.162,0,0,1,.72-2.533A2.373,2.373,0,0,1-13.359-7a2.217,2.217,0,0,1,1.86.832,3.587,3.587,0,0,1,.647,2.26v.978h-3.466a2.413,2.413,0,0,0,.346,1.212,1.041,1.041,0,0,0,.93.451,2.763,2.763,0,0,0,.892-.124,3.623,3.623,0,0,0,.771-.39l.463,1.117a2.968,2.968,0,0,1-.993.565A3.881,3.881,0,0,1-13.251.133Zm-.108-5.726a.717.717,0,0,0-.67.4A2.745,2.745,0,0,0-14.3-4.107h1.7v-.159a2.226,2.226,0,0,0-.175-.978A.6.6,0,0,0-13.359-5.592Zm6.627.273-.609-.019a.776.776,0,0,0-.5.159,1,1,0,0,0-.308.444V0H-9.931V-6.868h1.669l.07.971a2.114,2.114,0,0,1,.5-.809A1,1,0,0,1-6.979-7a1.04,1.04,0,0,1,.222.022q.1.022.209.054ZM1.177-2.4A1.274,1.274,0,0,0,.9-3.272,2.81,2.81,0,0,0-.117-3.9,6.515,6.515,0,0,1-2.257-5.034a2.249,2.249,0,0,1-.717-1.777,2.341,2.341,0,0,1,.819-1.85A3.062,3.062,0,0,1-.067-9.375,3.051,3.051,0,0,1,2.1-8.614,2.582,2.582,0,0,1,2.891-6.57l-.013.038H1.139A1.623,1.623,0,0,0,.819-7.62,1.146,1.146,0,0,0-.1-7.992a.988.988,0,0,0-.8.34,1.271,1.271,0,0,0-.286.847A1.017,1.017,0,0,0-.86-6.03a4.335,4.335,0,0,0,1.111.667A5.178,5.178,0,0,1,2.279-4.24a2.451,2.451,0,0,1,.689,1.828A2.31,2.31,0,0,1,2.161-.546,3.21,3.21,0,0,1,.022.133,3.526,3.526,0,0,1-2.225-.6a2.588,2.588,0,0,1-.9-2.231l.013-.038h1.746a1.813,1.813,0,0,0,.352,1.25,1.345,1.345,0,0,0,1.038.381,1.114,1.114,0,0,0,.866-.317A1.206,1.206,0,0,0,1.177-2.4ZM6.11-8.576v1.708h.933v1.276H6.11v3.5a1.138,1.138,0,0,0,.127.622.4.4,0,0,0,.349.184A1.141,1.141,0,0,0,6.8-1.3,1.871,1.871,0,0,0,7-1.358l.14,1.32a3.142,3.142,0,0,1-.486.13,3,3,0,0,1-.524.041A1.688,1.688,0,0,1,4.786-.4,2.516,2.516,0,0,1,4.32-2.082v-3.51H3.488V-6.868H4.32V-8.576ZM7.823-3.5a4.061,4.061,0,0,1,.74-2.523A2.459,2.459,0,0,1,10.642-7a2.478,2.478,0,0,1,2.082.974A4.024,4.024,0,0,1,13.473-3.5v.146a4.009,4.009,0,0,1-.746,2.517,2.469,2.469,0,0,1-2.073.968A2.483,2.483,0,0,1,8.566-.832a4.018,4.018,0,0,1-.743-2.52Zm1.784.146a4,4,0,0,0,.238,1.523.826.826,0,0,0,.809.565.816.816,0,0,0,.787-.565,3.955,3.955,0,0,0,.241-1.523V-3.5a3.989,3.989,0,0,0-.241-1.52.824.824,0,0,0-.8-.574.819.819,0,0,0-.8.578A4.042,4.042,0,0,0,9.607-3.5Zm8.036-1.968-.609-.019a.776.776,0,0,0-.5.159,1,1,0,0,0-.308.444V0H14.444V-6.868h1.669l.07.971a2.114,2.114,0,0,1,.5-.809A1,1,0,0,1,17.4-7a1.04,1.04,0,0,1,.222.022q.1.022.209.054ZM21.915,0a3.021,3.021,0,0,1-.168-.5,4.206,4.206,0,0,1-.1-.546,2.43,2.43,0,0,1-.6.844,1.322,1.322,0,0,1-.911.33,1.863,1.863,0,0,1-1.444-.549,2.143,2.143,0,0,1-.5-1.508,1.921,1.921,0,0,1,.663-1.558,3.03,3.03,0,0,1,1.984-.555h.781v-.571a1.384,1.384,0,0,0-.19-.79.642.642,0,0,0-.565-.276.6.6,0,0,0-.5.222,1.021,1.021,0,0,0-.171.635l-1.727-.006-.013-.038a1.83,1.83,0,0,1,.667-1.511A2.707,2.707,0,0,1,20.976-7a2.487,2.487,0,0,1,1.758.622A2.3,2.3,0,0,1,23.407-4.6v2.818a5.724,5.724,0,0,0,.07.914A5.366,5.366,0,0,0,23.693,0ZM20.6-1.193a1,1,0,0,0,.635-.219,1.1,1.1,0,0,0,.381-.53V-3.021h-.781a.748.748,0,0,0-.657.292,1.245,1.245,0,0,0-.206.736.919.919,0,0,0,.171.578A.548.548,0,0,0,20.6-1.193Zm3.726-2.2A4.971,4.971,0,0,1,24.93-6,1.9,1.9,0,0,1,26.638-7a1.474,1.474,0,0,1,.835.238,2.106,2.106,0,0,1,.625.676l.121-.787h1.555v6.83a2.709,2.709,0,0,1-.784,2.076,3.05,3.05,0,0,1-2.174.736,3.607,3.607,0,0,1-.962-.14,4.494,4.494,0,0,1-.949-.381L25.2.9a3.579,3.579,0,0,0,.762.3,3.248,3.248,0,0,0,.838.1,1.121,1.121,0,0,0,.885-.327,1.51,1.51,0,0,0,.289-1.019V-.552a1.82,1.82,0,0,1-.594.511,1.61,1.61,0,0,1-.759.175A1.91,1.91,0,0,1,24.93-.8a4.475,4.475,0,0,1-.6-2.466Zm1.79.133A3.881,3.881,0,0,0,26.34-1.8a.771.771,0,0,0,.755.527,1.027,1.027,0,0,0,.524-.127.984.984,0,0,0,.359-.368v-3.25a1.159,1.159,0,0,0-.365-.422.886.886,0,0,0-.511-.149.791.791,0,0,0-.752.6,4.5,4.5,0,0,0-.232,1.59Zm7.471,3.4a2.542,2.542,0,0,1-2.107-.939,3.76,3.76,0,0,1-.749-2.418v-.26a4.162,4.162,0,0,1,.72-2.533A2.373,2.373,0,0,1,33.481-7a2.217,2.217,0,0,1,1.86.832,3.587,3.587,0,0,1,.647,2.26v.978H32.522a2.413,2.413,0,0,0,.346,1.212,1.041,1.041,0,0,0,.93.451,2.763,2.763,0,0,0,.892-.124,3.623,3.623,0,0,0,.771-.39L35.925-.66a2.968,2.968,0,0,1-.993.565A3.881,3.881,0,0,1,33.589.133Zm-.108-5.726a.717.717,0,0,0-.67.4,2.745,2.745,0,0,0-.276,1.089h1.7v-.159a2.226,2.226,0,0,0-.175-.978A.6.6,0,0,0,33.481-5.592Z" transform="translate(-5810 -12818)" fill="#5e5b5c"/>
        <path id="Trazado_6217" data-name="Trazado 6217" d="M4102.267,5920.593v-7.114a1.186,1.186,0,0,0,0-.228v-7.8a1.168,1.168,0,0,0,0-.261v-7.032a1.1,1.1,0,0,0,0-.26v-10.3a1.735,1.735,0,0,0-.451-1.3,3.454,3.454,0,0,0-.375-.388v-5.827c0-2.555-1.243-3.055-3.39-3.055h-6.8v-3.134a1.126,1.126,0,0,0-1.1-1.125l-3.371-.084v-.7a1.126,1.126,0,0,0-1.126-1.125h-4.637a1.125,1.125,0,0,0-1.125,1.125v.127h-3.784v-.127a1.125,1.125,0,0,0-1.125-1.125h-4.637a1.125,1.125,0,0,0-1.125,1.125v.7l-3.372.084a1.126,1.126,0,0,0-1.1,1.125v3.134h-6.795c-2.147,0-3.39.5-3.39,3.055v5.827a3.461,3.461,0,0,0-.375.388,1.732,1.732,0,0,0-.451,1.3v10.3a1.1,1.1,0,0,0,0,.26v7.032a1.113,1.113,0,0,0,0,.261v7.788a1.14,1.14,0,0,0,0,.261v7.1a1.136,1.136,0,0,0,0,.261v7.2a1.1,1.1,0,0,0,0,.253v4.083c0,2.467,1.279,5.807,7.374,7.713a34.006,34.006,0,0,0,9.244,1.339h15.284a34.006,34.006,0,0,0,9.244-1.339c6.094-1.906,7.374-5.246,7.374-7.713v-4.1a1.143,1.143,0,0,0,0-.216v-7.221A1.164,1.164,0,0,0,4102.267,5920.593Zm-2.251-.608c-1.887.734-8.321,2.755-22.009,2.755a86.15,86.15,0,0,1-17.579-1.51,29.229,29.229,0,0,1-4.43-1.247v-5.11c2.751.7,9.42,1.957,22.009,1.957s19.258-1.254,22.009-1.957Zm0-30.8v1.92H4056v-1.92Zm0,4.171v3.7c-2.243.31-8.813,1.02-22.009,1.02-13.158,0-19.758-.711-22.009-1.02v-3.7Zm-22.009,6.972c12.788,0,19.4-.651,22.009-1v5.116c-2.106.486-8.624,1.672-22.009,1.672-11.97,0-19.177-.992-22.009-1.662v-5.126C4058.6,5899.678,4065.219,5900.329,4078.006,5900.329Zm0,8.043c12.655,0,19.306-1.042,22.009-1.616v5.781c-2.047.574-8.594,2.041-22.009,2.041s-19.966-1.468-22.009-2.041v-5.781C4058.7,5907.331,4065.351,5908.373,4078.006,5908.373Zm5.4-21.437v-5.771h5.716a1.122,1.122,0,0,0,.426.474c.243.148,5.967,3.641,8.694,4.924.287.135.53.259.736.373Zm5.6-8.021h-5.6v-.757c0-.059,0-.117,0-.174H4089Zm-7.854-.757v8.778h-6.289v-8.778c0-.066,0-.124,0-.174h6.283C4081.15,5878.034,4081.15,5878.091,4081.15,5878.157Zm-8.54,0v.757h-5.6v-.931h5.605C4072.612,5878.04,4072.611,5878.1,4072.611,5878.157Zm-6.141,3.481a1.118,1.118,0,0,0,.425-.474h5.716v5.771h-15.572c.207-.114.45-.238.737-.373C4060.5,5885.279,4066.228,5881.787,4066.47,5881.639ZM4056,5922.377c2.829.957,9.524,2.613,22.009,2.613s19.18-1.656,22.009-2.613v5.118c-1.81.836-8.286,3.288-22.009,3.288s-20.207-2.454-22.009-3.287Zm42.053-43.107a3.851,3.851,0,0,1,1.083.091,2.931,2.931,0,0,1,.056.713v4.449c-2.147-1.011-6.428-3.569-7.934-4.478v-.774Zm-27.671-4.373a1.125,1.125,0,0,0,1.1-1.125v-.668h2.386v.127a1.125,1.125,0,0,0,1.125,1.125h6.035a1.125,1.125,0,0,0,1.126-1.125v-.127h2.386v.668a1.125,1.125,0,0,0,1.1,1.125l3.371.084v.751h-22v-.751Zm-13.5,4.463a3.848,3.848,0,0,1,1.083-.091h6.795v.774c-1.506.909-5.787,3.467-7.934,4.479v-4.449A2.917,2.917,0,0,1,4056.88,5879.361Zm23.438,59.832h-4.624v-2.361a1.166,1.166,0,0,1,1.049-1.128h2.525a1.166,1.166,0,0,1,1.049,1.128Zm13.9-1.237a32.2,32.2,0,0,1-8.572,1.237h-3.079v-2.361a3.428,3.428,0,0,0-3.3-3.379h-2.525a3.428,3.428,0,0,0-3.3,3.379v2.361h-3.079a32.2,32.2,0,0,1-8.572-1.237c-3.845-1.2-5.795-3.074-5.795-5.564v-2.442c2.877,1.144,9.588,3.084,22.009,3.084s19.133-1.941,22.009-3.084v2.442C4100.016,5934.881,4098.066,5936.753,4094.221,5937.956Z" transform="translate(-9887.831 -18787.443)" fill="#5e5b5c"/>
        <path id="Trazado_9422" data-name="Trazado 9422" d="M1.269,0A1.269,1.269,0,1,1,0,1.269,1.269,1.269,0,0,1,1.269,0Z" transform="translate(-5811.094 -12851.131)" fill="#5e5b5c"/>
        <path id="Trazado_9423" data-name="Trazado 9423" d="M1.4,0A1.4,1.4,0,1,1,0,1.4,1.4,1.4,0,0,1,1.4,0Z" transform="translate(-5811.228 -12908.091)" fill="#5e5b5c"/>
      </g>
    </g>
  </g>
</svg>
