<svg xmlns="http://www.w3.org/2000/svg" xmlns:xlink="http://www.w3.org/1999/xlink" width="160" height="190" viewBox="0 0 160 190">
  <defs>
    <filter id="Trazado_7113" x="-2" y="1" width="164.168" height="191.306" filterUnits="userSpaceOnUse">
      <feOffset dy="2" input="SourceAlpha"/>
      <feGaussianBlur stdDeviation="6" result="blur"/>
      <feFlood flood-color="#44d62c" flood-opacity="0.651"/>
      <feComposite operator="in" in2="blur"/>
      <feComposite in="SourceGraphic"/>
    </filter>
    <clipPath id="clip-Cafe-y-condimentos01EN">
      <rect width="160" height="190"/>
    </clipPath>
  </defs>
  <g id="Cafe-y-condimentos01EN" clip-path="url(#clip-Cafe-y-condimentos01EN)">
    <g id="Grupo_1578" data-name="Grupo 1578" transform="translate(-917 -19.66)">
      <g transform="matrix(1, 0, 0, 1, 917, 19.66)" filter="url(#Trazado_7113)">
        <g id="Trazado_7113-2" data-name="Trazado 7113" transform="translate(16 17)" fill="#44d62c" opacity="0.93">
          <path d="M 114.1679153442383 154.8064727783203 L 13.9999942779541 154.8064727783203 C 10.39401340484619 154.8064727783203 7.003873825073242 153.4022216796875 4.45405387878418 150.8524017333984 C 1.904233813285828 148.3025817871094 0.4999938607215881 144.9124450683594 0.4999938607215881 141.3064727783203 L 0.4999938607215881 14.00000858306885 C 0.4999938607215881 10.39402866363525 1.904233813285828 7.003868579864502 4.45405387878418 4.454068660736084 C 7.003873825073242 1.904248714447021 10.39401340484619 0.500008761882782 13.9999942779541 0.500008761882782 L 114.1679153442383 0.500008761882782 C 117.7738952636719 0.500008761882782 121.1640319824219 1.904248714447021 123.7138519287109 4.454068660736084 C 126.263671875 7.003868579864502 127.6679153442383 10.39402866363525 127.6679153442383 14.00000858306885 L 127.6679153442383 141.3064727783203 C 127.6679153442383 144.9124450683594 126.263671875 148.3025817871094 123.7138519287109 150.8524017333984 C 121.1640319824219 153.4022216796875 117.7738952636719 154.8064727783203 114.1679153442383 154.8064727783203 Z" stroke="none"/>
          <path d="M 13.99999237060547 0.9999847412109375 C 10.52757263183594 0.9999847412109375 7.262992858886719 2.35223388671875 4.8076171875 4.807601928710938 C 2.35223388671875 7.262985229492188 0.9999923706054688 10.52757263183594 0.9999923706054688 13.99998474121094 L 0.9999923706054688 141.3064422607422 C 0.9999923706054688 144.7788696289063 2.35223388671875 148.0434722900391 4.8076171875 150.4988555908203 C 7.262977600097656 152.9542083740234 10.52757263183594 154.3064422607422 13.99999237060547 154.3064422607422 L 114.1679153442383 154.3064422607422 C 117.6403350830078 154.3064422607422 120.9049377441406 152.9542083740234 123.3602905273438 150.4988555908203 C 125.815673828125 148.0434722900391 127.1679153442383 144.7788696289063 127.1679153442383 141.3064422607422 L 127.1679153442383 13.99998474121094 C 127.1679153442383 10.52757263183594 125.815673828125 7.262985229492188 123.3602905273438 4.807601928710938 C 120.904914855957 2.35223388671875 117.6403350830078 0.9999847412109375 114.1679153442383 0.9999847412109375 L 13.99999237060547 0.9999847412109375 M 13.99999237060547 -1.52587890625e-05 L 114.1679153442383 -1.52587890625e-05 C 121.8998947143555 -1.52587890625e-05 128.1679077148438 6.26800537109375 128.1679077148438 13.99998474121094 L 128.1679077148438 141.3064422607422 C 128.1679077148438 149.0384521484375 121.8998947143555 155.3064422607422 114.1679153442383 155.3064422607422 L 13.99999237060547 155.3064422607422 C 6.268013000488281 155.3064422607422 0 149.0384521484375 0 141.3064422607422 L 0 13.99998474121094 C 0 6.26800537109375 6.268013000488281 -1.52587890625e-05 13.99999237060547 -1.52587890625e-05 Z" stroke="none" fill="#fff"/>
        </g>
      </g>
      <g id="instant-coffee" transform="translate(963.001 139.657) rotate(-90)">
        <path id="Trazado_5999" data-name="Trazado 5999" d="M.32,30.452l.007,0L2.5,32.625a1.1,1.1,0,0,0,.771.32H64.2l.011,0H66.39a1,1,0,0,0,.3-.062.963.963,0,0,0,.109-.022,1.079,1.079,0,0,0,.364-.244l2.166-2.167.007,0a1.09,1.09,0,0,0,0-1.541l-.007,0-1.4-1.4,1.4-1.4.007,0a1.09,1.09,0,0,0,0-1.541l-.007,0-1.4-1.4,1.4-1.4.007,0a1.09,1.09,0,0,0,0-1.541l-.007,0-1.4-1.4,1.4-1.4.007,0a1.09,1.09,0,0,0,0-1.541l-.007,0-1.4-1.4,1.4-1.4.007,0a1.09,1.09,0,0,0,0-1.541l-.007,0L67.161,9.32A1.1,1.1,0,0,0,66.39,9H5.453L5.442,9H3.267a1.033,1.033,0,0,0-.308.062c-.034.011-.07.008-.1.022a1.061,1.061,0,0,0-.364.243L.326,11.492l-.007,0a1.09,1.09,0,0,0,0,1.541l.007,0,1.4,1.4-1.4,1.4-.007,0a1.09,1.09,0,0,0,0,1.541l.007,0,1.4,1.4-1.4,1.4-.007,0a1.09,1.09,0,0,0,0,1.541l.007,0,1.4,1.4-1.4,1.4-.007,0a1.09,1.09,0,0,0,0,1.541l.007,0,1.4,1.4-1.4,1.4-.007,0a1.09,1.09,0,0,0,0,1.541Zm3.4-19.277h.635v3.262a1.083,1.083,0,0,0-.318-.764L2.63,12.266Zm.317,4.037a1.083,1.083,0,0,0,.318-.764V18.79a1.083,1.083,0,0,0-.318-.764L2.63,16.62Zm0,4.354a1.083,1.083,0,0,0,.318-.764v4.343a1.083,1.083,0,0,0-.318-.764L2.63,20.974Zm0,4.354a1.083,1.083,0,0,0,.318-.764V27.5a1.083,1.083,0,0,0-.318-.764L2.63,25.327Zm0,4.354a1.083,1.083,0,0,0,.318-.764v3.26H3.718L2.63,29.681Zm61.9-17.1,1.088,1.087-1.407,1.408a1.086,1.086,0,0,0-.317.759V11.177Zm0,19.593H65.3V27.514a1.086,1.086,0,0,0,.317.759l1.407,1.406Zm-.317-4.037a1.086,1.086,0,0,0-.317.759V23.16a1.086,1.086,0,0,0,.317.759l1.407,1.406Zm0-4.354a1.086,1.086,0,0,0-.317.759V18.807a1.086,1.086,0,0,0,.317.759l1.407,1.406Zm0-4.354a1.086,1.086,0,0,0-.317.759V14.453a1.086,1.086,0,0,0,.317.759l1.407,1.406ZM6.531,11.177h56.6V30.768H6.531Z" fill="#fff"/>
        <path id="Trazado_6000" data-name="Trazado 6000" d="M43.243,20.458a.067.067,0,0,0,0-.014,6.536,6.536,0,0,0-6.526-6.452H34.536a6.537,6.537,0,0,0-6.53,6.53c0,.019,0,.035,0,.053s0,.023,0,.036a6.535,6.535,0,0,0,6.526,6.441h2.179a6.537,6.537,0,0,0,6.53-6.53C43.246,20.5,43.243,20.479,43.243,20.458Zm-8.706-4.289h2.179A4.34,4.34,0,0,1,40.55,18.5a6.292,6.292,0,0,0-5.57,1.143A4.047,4.047,0,0,1,30.236,20a4.343,4.343,0,0,1,4.3-3.833Zm2.179,8.707H34.536A4.339,4.339,0,0,1,30.7,22.539a6.215,6.215,0,0,0,1.65.231A6.507,6.507,0,0,0,36.275,21.4a4.038,4.038,0,0,1,4.741-.354A4.343,4.343,0,0,1,36.715,24.876Z" transform="translate(2.476 0.442)" fill="#fff"/>
        <path id="Trazado_6001" data-name="Trazado 6001" d="M21.079,13.992a1.087,1.087,0,0,0-1.088,1.088V25.973a1.088,1.088,0,0,0,2.177,0V15.08A1.087,1.087,0,0,0,21.079,13.992Z" transform="translate(1.767 0.441)" fill="#fff"/>
        <path id="Trazado_6002" data-name="Trazado 6002" d="M24.091,13.992A1.087,1.087,0,0,0,23,15.08V25.973a1.088,1.088,0,0,0,2.177,0V15.08A1.087,1.087,0,0,0,24.091,13.992Z" transform="translate(2.034 0.441)" fill="#fff"/>
        <path id="Trazado_6003" data-name="Trazado 6003" d="M18.087,15.992A1.087,1.087,0,0,0,17,17.08V23.62a1.088,1.088,0,0,0,2.177,0V17.08a1.087,1.087,0,0,0-1.088-1.088Z" transform="translate(1.503 0.618)" fill="#fff"/>
        <path id="Trazado_6004" data-name="Trazado 6004" d="M41.69,12.95a1.087,1.087,0,0,0,0,1.539,8.705,8.705,0,0,1,0,12.314,1.088,1.088,0,1,0,1.539,1.539,10.881,10.881,0,0,0,0-15.392,1.087,1.087,0,0,0-1.539,0Z" transform="translate(3.657 0.321)" fill="#fff"/>
        <path id="Trazado_6005" data-name="Trazado 6005" d="M.32,54.452l.007,0L2.5,56.625a1.1,1.1,0,0,0,.771.32H64.2l.011,0H66.39a1,1,0,0,0,.3-.062.962.962,0,0,0,.109-.022,1.079,1.079,0,0,0,.364-.244l2.166-2.167.007,0a1.09,1.09,0,0,0,0-1.541l-.007,0-1.4-1.4,1.4-1.4.007,0a1.09,1.09,0,0,0,0-1.541l-.007,0-1.4-1.4,1.4-1.4.007,0a1.09,1.09,0,0,0,0-1.541l-.007,0-1.4-1.4,1.4-1.4.007,0a1.09,1.09,0,0,0,0-1.541l-.007,0-1.4-1.4,1.4-1.4.007,0a1.09,1.09,0,0,0,0-1.541l-.007,0-2.17-2.169A1.1,1.1,0,0,0,66.39,33H5.453l-.011,0H3.267a1.033,1.033,0,0,0-.308.062c-.034.011-.07.008-.1.022a1.08,1.08,0,0,0-.364.244L.326,35.492l-.007,0a1.09,1.09,0,0,0,0,1.541l.007,0,1.4,1.4-1.4,1.4-.007,0a1.09,1.09,0,0,0,0,1.541l.007,0,1.4,1.4-1.4,1.4-.007,0a1.09,1.09,0,0,0,0,1.541l.007,0,1.4,1.4-1.4,1.4-.007,0a1.09,1.09,0,0,0,0,1.541l.007,0,1.4,1.4-1.4,1.4-.007,0a1.09,1.09,0,0,0,0,1.541Zm3.4-19.277h.635v3.262a1.083,1.083,0,0,0-.318-.764L2.63,36.266Zm.317,4.037a1.083,1.083,0,0,0,.318-.764V42.79a1.083,1.083,0,0,0-.318-.764L2.63,40.62Zm0,4.354a1.083,1.083,0,0,0,.318-.764v4.343a1.083,1.083,0,0,0-.318-.764L2.63,44.974Zm0,4.354a1.083,1.083,0,0,0,.318-.764V51.5a1.083,1.083,0,0,0-.318-.764L2.63,49.327Zm0,4.354a1.083,1.083,0,0,0,.318-.764v3.26H3.718L2.63,53.681Zm61.9-17.1,1.088,1.087-1.407,1.408a1.086,1.086,0,0,0-.317.759V35.177Zm0,19.593H65.3V51.514a1.086,1.086,0,0,0,.317.759l1.407,1.406Zm-.317-4.037a1.086,1.086,0,0,0-.317.759V47.16a1.086,1.086,0,0,0,.317.759l1.407,1.406Zm0-4.354a1.086,1.086,0,0,0-.317.759V42.807a1.086,1.086,0,0,0,.317.759l1.407,1.406Zm0-4.354a1.086,1.086,0,0,0-.317.759V38.453a1.086,1.086,0,0,0,.317.759l1.407,1.406ZM6.531,35.177h56.6V54.768H6.531Z" transform="translate(0 2.122)" fill="#fff"/>
        <path id="Trazado_6006" data-name="Trazado 6006" d="M43.243,44.458a.067.067,0,0,0,0-.014,6.536,6.536,0,0,0-6.526-6.452H34.536a6.537,6.537,0,0,0-6.53,6.53c0,.018,0,.035,0,.053s0,.023,0,.036a6.535,6.535,0,0,0,6.526,6.441h2.179a6.537,6.537,0,0,0,6.53-6.53C43.246,44.5,43.243,44.479,43.243,44.458Zm-8.706-4.289h2.179A4.34,4.34,0,0,1,40.55,42.5a6.292,6.292,0,0,0-5.57,1.143A4.046,4.046,0,0,1,30.236,44a4.343,4.343,0,0,1,4.3-3.832Zm2.179,8.707H34.536A4.339,4.339,0,0,1,30.7,46.539a6.215,6.215,0,0,0,1.65.231A6.507,6.507,0,0,0,36.275,45.4a4.039,4.039,0,0,1,4.741-.354A4.343,4.343,0,0,1,36.715,48.876Z" transform="translate(2.476 2.563)" fill="#fff"/>
        <path id="Trazado_6007" data-name="Trazado 6007" d="M21.079,37.992a1.087,1.087,0,0,0-1.088,1.088V49.973a1.088,1.088,0,1,0,2.177,0V39.08A1.087,1.087,0,0,0,21.079,37.992Z" transform="translate(1.767 2.563)" fill="#fff"/>
        <path id="Trazado_6008" data-name="Trazado 6008" d="M24.091,37.992A1.087,1.087,0,0,0,23,39.08V49.973a1.088,1.088,0,1,0,2.177,0V39.08A1.087,1.087,0,0,0,24.091,37.992Z" transform="translate(2.034 2.563)" fill="#fff"/>
        <path id="Trazado_6009" data-name="Trazado 6009" d="M18.087,39.992A1.087,1.087,0,0,0,17,41.08V47.62a1.088,1.088,0,1,0,2.177,0V41.08A1.087,1.087,0,0,0,18.087,39.992Z" transform="translate(1.503 2.74)" fill="#fff"/>
        <path id="Trazado_6010" data-name="Trazado 6010" d="M41.69,36.95a1.087,1.087,0,0,0,0,1.539,8.705,8.705,0,0,1,0,12.314,1.088,1.088,0,1,0,1.539,1.539,10.881,10.881,0,0,0,0-15.392,1.087,1.087,0,0,0-1.539,0Z" transform="translate(3.657 2.443)" fill="#fff"/>
      </g>
      <path id="Trazado_9422" data-name="Trazado 9422" d="M-16.488-2.748l.018.035a2.933,2.933,0,0,1-.668,2.121,2.637,2.637,0,0,1-2,.715,2.819,2.819,0,0,1-2.115-.812,3.158,3.158,0,0,1-.791-2.3V-5.537a3.238,3.238,0,0,1,.765-2.3,2.67,2.67,0,0,1,2.048-.817,2.711,2.711,0,0,1,2.054.727,3.078,3.078,0,0,1,.718,2.15l-.018.035h-1.605a1.991,1.991,0,0,0-.229-1.212,1.053,1.053,0,0,0-.92-.371.978.978,0,0,0-.861.44,2.39,2.39,0,0,0-.3,1.331V-2.99a2.292,2.292,0,0,0,.319,1.343,1.082,1.082,0,0,0,.935.44.944.944,0,0,0,.841-.349,2.083,2.083,0,0,0,.208-1.192Zm.721-.809a3.152,3.152,0,0,1,.677-2.089,2.332,2.332,0,0,1,1.9-.812,2.341,2.341,0,0,1,1.9.812,3.143,3.143,0,0,1,.68,2.089v.785A3.126,3.126,0,0,1-11.3-.68a2.346,2.346,0,0,1-1.893.8,2.35,2.35,0,0,1-1.9-.8,3.135,3.135,0,0,1-.677-2.092Zm1.658.783a2.646,2.646,0,0,0,.205,1.15.73.73,0,0,0,.715.417.722.722,0,0,0,.7-.42,2.617,2.617,0,0,0,.208-1.147V-3.56A2.624,2.624,0,0,0-12.489-4.7a.725.725,0,0,0-.706-.425A.724.724,0,0,0-13.9-4.7a2.628,2.628,0,0,0-.208,1.138ZM-9.363,0V-5.133h-.779V-6.34h.779v-.7a2.287,2.287,0,0,1,.551-1.644,2.037,2.037,0,0,1,1.547-.577,2.368,2.368,0,0,1,.387.032q.193.032.445.09l-.141,1.267Q-6.691-7.9-6.8-7.916a1.613,1.613,0,0,0-.255-.018.553.553,0,0,0-.48.23,1.118,1.118,0,0,0-.164.655v.708h1.02v1.207H-7.7V0Zm3.791,0V-5.133h-.779V-6.34h.779v-.7a2.287,2.287,0,0,1,.551-1.644,2.037,2.037,0,0,1,1.547-.577,2.368,2.368,0,0,1,.387.032q.193.032.445.09l-.141,1.267Q-2.9-7.9-3.009-7.916a1.613,1.613,0,0,0-.255-.018.553.553,0,0,0-.48.23,1.118,1.118,0,0,0-.164.655v.708h1.02v1.207h-1.02V0ZM.17.123a2.421,2.421,0,0,1-1.9-.785,2.858,2.858,0,0,1-.7-1.98v-.891a3.272,3.272,0,0,1,.653-2.1,2.183,2.183,0,0,1,1.808-.82,2.1,2.1,0,0,1,1.723.744,3.107,3.107,0,0,1,.609,2.027v1.02H-.773v.023A1.752,1.752,0,0,0-.489-1.611a.979.979,0,0,0,.858.4,2.291,2.291,0,0,0,.762-.105,4.007,4.007,0,0,0,.7-.352L2.25-.6a2.513,2.513,0,0,1-.876.521A3.41,3.41,0,0,1,.17.123ZM.029-5.127a.618.618,0,0,0-.586.365,2.367,2.367,0,0,0-.211.983H.727v-.235a1.69,1.69,0,0,0-.164-.821A.565.565,0,0,0,.029-5.127ZM8.918,0a2.845,2.845,0,0,1-.126-.346,2.822,2.822,0,0,1-.085-.381,1.982,1.982,0,0,1-.571.618,1.348,1.348,0,0,1-.782.231A1.621,1.621,0,0,1,6.1-.393,1.961,1.961,0,0,1,5.625-1.77a1.8,1.8,0,0,1,.6-1.447A2.675,2.675,0,0,1,8.01-3.732h.627v-.516A1.275,1.275,0,0,0,8.47-4.96a.563.563,0,0,0-.5-.249.482.482,0,0,0-.422.2,1,1,0,0,0-.141.58L5.795-4.436l-.018-.035A1.738,1.738,0,0,1,6.39-5.877a2.424,2.424,0,0,1,1.69-.58,2.262,2.262,0,0,1,1.608.577,2.138,2.138,0,0,1,.618,1.644V-1.67a5.554,5.554,0,0,0,.064.873,4.757,4.757,0,0,0,.2.8ZM7.834-1.131A.857.857,0,0,0,8.3-1.266a1,1,0,0,0,.337-.346V-2.777H8.01a.606.606,0,0,0-.551.264,1.211,1.211,0,0,0-.17.668.849.849,0,0,0,.146.516A.468.468,0,0,0,7.834-1.131ZM12.885-6.34l.07.873A2.113,2.113,0,0,1,13.6-6.2a1.474,1.474,0,0,1,.847-.261,1.468,1.468,0,0,1,1.245.609,3.227,3.227,0,0,1,.454,1.916V0h-1.67V-3.936a1.7,1.7,0,0,0-.185-.924.647.647,0,0,0-.571-.267.758.758,0,0,0-.41.117A1,1,0,0,0,13-4.687V0H11.332V-6.34Zm4.084,3.205a4.628,4.628,0,0,1,.551-2.408,1.723,1.723,0,0,1,1.553-.914,1.293,1.293,0,0,1,.668.176,1.753,1.753,0,0,1,.533.5V-9.141h1.664V0H20.49l-.111-.691a1.864,1.864,0,0,1-.571.606,1.346,1.346,0,0,1-.741.208,1.738,1.738,0,0,1-1.55-.858,4.182,4.182,0,0,1-.548-2.276Zm1.664.124a3.59,3.59,0,0,0,.2,1.328.681.681,0,0,0,.665.476.835.835,0,0,0,.451-.12,1,1,0,0,0,.328-.35V-4.569a1.175,1.175,0,0,0-.328-.411.707.707,0,0,0-.439-.147.7.7,0,0,0-.668.547,4.2,4.2,0,0,0-.205,1.446ZM-44.15,12.936V16h-1.67V7.469h2.965a2.689,2.689,0,0,1,2.016.755A2.709,2.709,0,0,1-40.1,10.2a2.7,2.7,0,0,1-.741,1.981,2.7,2.7,0,0,1-2.013.752Zm0-1.33h1.295a.939.939,0,0,0,.814-.393,1.674,1.674,0,0,0,.281-1A1.739,1.739,0,0,0-42.038,9.2a.931.931,0,0,0-.817-.4H-44.15Zm4.734.838a3.152,3.152,0,0,1,.677-2.089,2.332,2.332,0,0,1,1.9-.812,2.341,2.341,0,0,1,1.9.812,3.143,3.143,0,0,1,.68,2.089v.785a3.126,3.126,0,0,1-.68,2.092,2.346,2.346,0,0,1-1.893.8,2.35,2.35,0,0,1-1.9-.8,3.135,3.135,0,0,1-.677-2.092Zm1.658.783a2.646,2.646,0,0,0,.205,1.15.73.73,0,0,0,.715.417.722.722,0,0,0,.7-.42,2.617,2.617,0,0,0,.208-1.147V12.44a2.624,2.624,0,0,0-.208-1.141.725.725,0,0,0-.706-.425.724.724,0,0,0-.706.428,2.628,2.628,0,0,0-.208,1.138Zm9,.032.035-.006.592-3.592h1.541l-1.3,6.34h-1.389l-.885-3.416H-30.2L-31.084,16h-1.389l-1.312-6.34h1.553l.592,3.609h.035l.885-3.609h1.078Zm2.648-.393a4.628,4.628,0,0,1,.551-2.408,1.723,1.723,0,0,1,1.553-.914,1.293,1.293,0,0,1,.668.176,1.753,1.753,0,0,1,.533.5V6.859h1.664V16h-1.447l-.111-.691a1.864,1.864,0,0,1-.571.606,1.346,1.346,0,0,1-.741.208,1.738,1.738,0,0,1-1.55-.858,4.182,4.182,0,0,1-.548-2.276Zm1.664.124a3.59,3.59,0,0,0,.2,1.328.681.681,0,0,0,.665.476.835.835,0,0,0,.451-.12,1,1,0,0,0,.328-.35V11.431a1.175,1.175,0,0,0-.328-.411.707.707,0,0,0-.439-.147.7.7,0,0,0-.668.547,4.2,4.2,0,0,0-.205,1.446Zm6.855,3.134a2.421,2.421,0,0,1-1.9-.785,2.858,2.858,0,0,1-.7-1.98v-.891a3.272,3.272,0,0,1,.653-2.1,2.183,2.183,0,0,1,1.808-.82,2.1,2.1,0,0,1,1.723.744,3.107,3.107,0,0,1,.609,2.027v1.02h-3.135v.023a1.752,1.752,0,0,0,.284,1.031.979.979,0,0,0,.858.4,2.291,2.291,0,0,0,.762-.105,4.007,4.007,0,0,0,.7-.352l.422,1.061a2.513,2.513,0,0,1-.876.521A3.41,3.41,0,0,1-17.59,16.123Zm-.141-5.25a.618.618,0,0,0-.586.365,2.367,2.367,0,0,0-.211.983h1.494v-.235a1.69,1.69,0,0,0-.164-.821A.565.565,0,0,0-17.73,10.873Zm6.164.3-.627-.018a.71.71,0,0,0-.437.129.819.819,0,0,0-.267.363V16h-1.664V9.66h1.553l.064.85.029.012a1.729,1.729,0,0,1,.425-.718.891.891,0,0,1,.636-.261,1.48,1.48,0,0,1,.237.021,1.612,1.612,0,0,1,.22.05Zm3.2,4.945a2.421,2.421,0,0,1-1.9-.785,2.858,2.858,0,0,1-.7-1.98v-.891a3.272,3.272,0,0,1,.653-2.1,2.183,2.183,0,0,1,1.808-.82,2.1,2.1,0,0,1,1.723.744,3.107,3.107,0,0,1,.609,2.027v1.02H-9.311v.023a1.752,1.752,0,0,0,.284,1.031.979.979,0,0,0,.858.4,2.291,2.291,0,0,0,.762-.105,4.007,4.007,0,0,0,.7-.352l.422,1.061a2.513,2.513,0,0,1-.876.521A3.41,3.41,0,0,1-8.367,16.123Zm-.141-5.25a.618.618,0,0,0-.586.365,2.367,2.367,0,0,0-.211.983h1.494v-.235a1.69,1.69,0,0,0-.164-.821A.565.565,0,0,0-8.508,10.873Zm2.947,1.992a4.628,4.628,0,0,1,.551-2.408,1.723,1.723,0,0,1,1.553-.914,1.293,1.293,0,0,1,.668.176,1.753,1.753,0,0,1,.533.5V6.859H-.592V16H-2.039l-.111-.691a1.864,1.864,0,0,1-.571.606,1.346,1.346,0,0,1-.741.208,1.738,1.738,0,0,1-1.55-.858,4.182,4.182,0,0,1-.548-2.276Zm1.664.124a3.59,3.59,0,0,0,.2,1.328.681.681,0,0,0,.665.476.835.835,0,0,0,.451-.12,1,1,0,0,0,.328-.35V11.431a1.175,1.175,0,0,0-.328-.411.707.707,0,0,0-.439-.147.7.7,0,0,0-.668.547A4.2,4.2,0,0,0-3.9,12.865ZM3.229,16V7.469H5.742a3.242,3.242,0,0,1,2.06.586A2.091,2.091,0,0,1,8.543,9.8a2.14,2.14,0,0,1-.27,1.081,1.662,1.662,0,0,1-.809.706,1.514,1.514,0,0,1,1,.686,2.324,2.324,0,0,1,.322,1.236,2.376,2.376,0,0,1-.7,1.857A2.893,2.893,0,0,1,6.076,16ZM4.9,12.238V14.67H6.076a1,1,0,0,0,.788-.293,1.278,1.278,0,0,0,.261-.873,1.663,1.663,0,0,0-.223-.937.8.8,0,0,0-.715-.328Zm0-1.166h.92a1.068,1.068,0,0,0,.782-.3,1.14,1.14,0,0,0,.272-.819,1.194,1.194,0,0,0-.281-.878,1.16,1.16,0,0,0-.85-.279H4.9ZM9.58,12.443a3.152,3.152,0,0,1,.677-2.089,2.332,2.332,0,0,1,1.9-.812,2.341,2.341,0,0,1,1.9.812,3.143,3.143,0,0,1,.68,2.089v.785a3.126,3.126,0,0,1-.68,2.092,2.346,2.346,0,0,1-1.893.8,2.35,2.35,0,0,1-1.9-.8,3.135,3.135,0,0,1-.677-2.092Zm1.658.783a2.646,2.646,0,0,0,.205,1.15.73.73,0,0,0,.715.417.722.722,0,0,0,.7-.42,2.617,2.617,0,0,0,.208-1.147V12.44a2.624,2.624,0,0,0-.208-1.141.8.8,0,0,0-1.412,0,2.628,2.628,0,0,0-.208,1.138Zm7.588,2.041a1.871,1.871,0,0,1-.624.636,1.58,1.58,0,0,1-.829.22,1.561,1.561,0,0,1-1.327-.642,3.342,3.342,0,0,1-.478-1.989V9.66h1.664v3.848a2.179,2.179,0,0,0,.164.98.524.524,0,0,0,.486.305,1.079,1.079,0,0,0,.483-.1.969.969,0,0,0,.354-.3V9.66h1.67V16H18.926ZM23.18,16H21.516V9.66H23.18Zm0-7.869H21.516V6.859H23.18ZM26.08,16H24.416V6.859H26.08Zm2.9,0H27.316V6.859H28.98Zm.961-3.557a3.152,3.152,0,0,1,.677-2.089,2.623,2.623,0,0,1,3.794,0,3.143,3.143,0,0,1,.68,2.089v.785a3.126,3.126,0,0,1-.68,2.092,2.643,2.643,0,0,1-3.794,0,3.135,3.135,0,0,1-.677-2.092Zm1.658.783a2.646,2.646,0,0,0,.205,1.15.73.73,0,0,0,.715.417.722.722,0,0,0,.7-.42,2.617,2.617,0,0,0,.208-1.147V12.44A2.624,2.624,0,0,0,33.22,11.3a.8.8,0,0,0-1.412,0A2.628,2.628,0,0,0,31.6,12.44ZM37.494,9.66l.07.873a2.113,2.113,0,0,1,.647-.729,1.549,1.549,0,0,1,2.092.349,3.227,3.227,0,0,1,.454,1.916V16h-1.67V12.064a1.7,1.7,0,0,0-.185-.924.647.647,0,0,0-.571-.267.758.758,0,0,0-.41.117,1,1,0,0,0-.316.323V16H35.941V9.66Zm7.066,4.682a.616.616,0,0,0-.211-.466,3.551,3.551,0,0,0-.809-.483,4.264,4.264,0,0,1-1.433-.809,1.539,1.539,0,0,1-.478-1.172,1.711,1.711,0,0,1,.612-1.321,2.339,2.339,0,0,1,1.62-.548,2.424,2.424,0,0,1,1.682.563,1.774,1.774,0,0,1,.6,1.436l-.018.035H44.525a1.085,1.085,0,0,0-.164-.633.573.573,0,0,0-.5-.234.632.632,0,0,0-.457.182.626.626,0,0,0,0,.894,3.777,3.777,0,0,0,.814.472,3.949,3.949,0,0,1,1.477.806,1.732,1.732,0,0,1-.164,2.546,2.63,2.63,0,0,1-1.693.516,2.344,2.344,0,0,1-1.734-.639,1.886,1.886,0,0,1-.609-1.441l.012-.035h1.523a1.034,1.034,0,0,0,.234.727.831.831,0,0,0,.615.223.721.721,0,0,0,.51-.164A.587.587,0,0,0,44.561,14.342Z" transform="translate(997 161.66)" fill="#fff"/>
    </g>
  </g>
</svg>
