<svg xmlns="http://www.w3.org/2000/svg" xmlns:xlink="http://www.w3.org/1999/xlink" width="160" height="190" viewBox="0 0 160 190">
  <defs>
    <filter id="Rect치ngulo_2777" x="-2" y="1" width="164.168" height="191.306" filterUnits="userSpaceOnUse">
      <feOffset dy="2" input="SourceAlpha"/>
      <feGaussianBlur stdDeviation="6" result="blur"/>
      <feFlood flood-color="#44d62c" flood-opacity="0.651"/>
      <feComposite operator="in" in2="blur"/>
      <feComposite in="SourceGraphic"/>
    </filter>
    <clipPath id="clip-Miel01EN">
      <rect width="160" height="190"/>
    </clipPath>
  </defs>
  <g id="Miel01EN" clip-path="url(#clip-Miel01EN)">
    <g id="Grupo_1575" data-name="Grupo 1575" transform="translate(-476 -19.66)">
      <g transform="matrix(1, 0, 0, 1, 476, 19.66)" filter="url(#Rect치ngulo_2777)">
        <g id="Rect치ngulo_2777-2" data-name="Rect치ngulo 2777" transform="translate(16 17)" fill="#44d62c" stroke="#fff" stroke-width="1" opacity="0.93">
          <rect width="128.168" height="155.306" rx="14" stroke="none"/>
          <rect x="0.5" y="0.5" width="127.168" height="154.306" rx="13.5" fill="none"/>
        </g>
      </g>
      <path id="Shape" d="M26.7,45.288a5.68,5.68,0,0,0,9.677-4.01V22.365a4.856,4.856,0,0,0,3.238-4.558h38.85a4.856,4.856,0,1,0,9.713,0V8.094a4.856,4.856,0,1,0-9.713,0H39.613a4.835,4.835,0,0,0-7.237-4.209A4.8,4.8,0,0,0,25.9,2.266a4.83,4.83,0,0,0-8.188,0,4.8,4.8,0,0,0-6.475,1.619A4.837,4.837,0,0,0,4,8.094v9.713a4.856,4.856,0,0,0,3.238,4.558V36.422a5.666,5.666,0,0,0,10.2,3.4,6.177,6.177,0,0,0,1.133-4.209,3.238,3.238,0,1,1,6.475,0v5.666a5.633,5.633,0,0,0,1.654,4.01Zm55-37.194a1.619,1.619,0,1,1,3.238,0v9.713a1.619,1.619,0,1,1-3.238,0Zm-3.238,3.238v3.238H39.613V11.331ZM34.756,6.475a1.619,1.619,0,0,1,1.619,1.619v9.713a1.619,1.619,0,1,1-3.238,0V8.094A1.619,1.619,0,0,1,34.756,6.475ZM28.281,4.856A1.619,1.619,0,0,1,29.9,6.475v12.95a1.619,1.619,0,0,1-3.238,0V6.475A1.619,1.619,0,0,1,28.281,4.856Zm-8.094,0a1.619,1.619,0,0,1,3.238,0V21.044a1.619,1.619,0,0,1-3.238,0ZM13.713,6.475a1.619,1.619,0,1,1,3.238,0v12.95a1.619,1.619,0,0,1-3.238,0ZM7.238,8.094a1.619,1.619,0,0,1,3.238,0v9.713a1.619,1.619,0,1,1-3.238,0ZM21.806,29.138a6.475,6.475,0,0,0-6.475,6.475,3.121,3.121,0,0,1-.486,2.266,2.443,2.443,0,0,1-4.371-1.457V22.365a4.857,4.857,0,0,0,.762-.351,4.8,4.8,0,0,0,6.475,1.619,4.83,4.83,0,0,0,8.188,0,4.8,4.8,0,0,0,6.475-1.619,4.857,4.857,0,0,0,.762.351V41.279a2.428,2.428,0,1,1-4.856,0V35.613A6.475,6.475,0,0,0,21.806,29.138Z" transform="translate(510 90)" fill="#fff"/>
      <path id="Trazado_9426" data-name="Trazado 9426" d="M-8.9,0h-1.8V-3.828h-2.869V0h-1.809V-9.242h1.809v3.974H-10.7V-9.242h1.8ZM-7.83-3.853A3.415,3.415,0,0,1-7.1-6.116,2.526,2.526,0,0,1-5.043-7a2.536,2.536,0,0,1,2.057.879A3.4,3.4,0,0,1-2.25-3.853V-3A3.387,3.387,0,0,1-2.987-.736a2.541,2.541,0,0,1-2.05.87A2.546,2.546,0,0,1-7.1-.736,3.4,3.4,0,0,1-7.83-3Zm1.8.848a2.867,2.867,0,0,0,.222,1.246.791.791,0,0,0,.774.451.782.782,0,0,0,.759-.455,2.835,2.835,0,0,0,.225-1.243v-.852a2.843,2.843,0,0,0-.225-1.237.785.785,0,0,0-.765-.461.785.785,0,0,0-.765.464,2.847,2.847,0,0,0-.225,1.233ZM.352-6.868l.076.946a2.289,2.289,0,0,1,.7-.79A1.6,1.6,0,0,1,2.047-7a1.591,1.591,0,0,1,1.349.66,3.5,3.5,0,0,1,.492,2.076V0H2.079V-4.264a1.842,1.842,0,0,0-.2-1,.7.7,0,0,0-.619-.289.822.822,0,0,0-.444.127,1.083,1.083,0,0,0-.343.349V0h-1.8V-6.868Zm7.338,7A2.623,2.623,0,0,1,5.634-.717a3.1,3.1,0,0,1-.762-2.146v-.965A3.545,3.545,0,0,1,5.58-6.106,2.365,2.365,0,0,1,7.538-7,2.276,2.276,0,0,1,9.4-6.189a3.366,3.366,0,0,1,.66,2.2v1.1h-3.4v.025a1.9,1.9,0,0,0,.308,1.117,1.061,1.061,0,0,0,.93.438,2.482,2.482,0,0,0,.825-.114A4.341,4.341,0,0,0,9.487-1.8L9.944-.654a2.723,2.723,0,0,1-.949.565A3.694,3.694,0,0,1,7.69.133ZM7.538-5.554a.67.67,0,0,0-.635.4,2.564,2.564,0,0,0-.229,1.065H8.293v-.255a1.831,1.831,0,0,0-.178-.889A.612.612,0,0,0,7.538-5.554ZM13.1-2.818l.013.07,1-4.12h1.93l-2.317,7.9a3.749,3.749,0,0,1-.7,1.241,1.672,1.672,0,0,1-1.33.5,1.825,1.825,0,0,1-.394-.038q-.171-.038-.457-.114l.209-1.346.156.029a.535.535,0,0,0,.1.01.79.79,0,0,0,.594-.206A1.2,1.2,0,0,0,12.2.565l.159-.508L10.337-6.868h1.936Z" transform="translate(556 172.66)" fill="#fff"/>
    </g>
  </g>
</svg>
