<svg xmlns="http://www.w3.org/2000/svg" xmlns:xlink="http://www.w3.org/1999/xlink" width="160" height="190" viewBox="0 0 160 190">
  <defs>
    <filter id="Rect치ngulo_2775" x="-2" y="1" width="164.168" height="191.306" filterUnits="userSpaceOnUse">
      <feOffset dy="2" input="SourceAlpha"/>
      <feGaussianBlur stdDeviation="6" result="blur"/>
      <feFlood flood-color="#44d62c" flood-opacity="0.651"/>
      <feComposite operator="in" in2="blur"/>
      <feComposite in="SourceGraphic"/>
    </filter>
    <clipPath id="clip-Salsas-y-Aderezos01EN">
      <rect width="160" height="190"/>
    </clipPath>
  </defs>
  <g id="Salsas-y-Aderezos01EN" clip-path="url(#clip-Salsas-y-Aderezos01EN)">
    <g id="Grupo_1573" data-name="Grupo 1573" transform="translate(-182 -19.66)">
      <g transform="matrix(1, 0, 0, 1, 182, 19.66)" filter="url(#Rect치ngulo_2775)">
        <g id="Rect치ngulo_2775-2" data-name="Rect치ngulo 2775" transform="translate(16 17)" fill="#44d62c" stroke="#fff" stroke-width="1" opacity="0.93">
          <rect width="128.168" height="155.306" rx="14" stroke="none"/>
          <rect x="0.5" y="0.5" width="127.168" height="154.306" rx="13.5" fill="none"/>
        </g>
      </g>
      <g id="Condiment" transform="translate(225 64)">
        <path id="Trazado_6011" data-name="Trazado 6011" d="M32.347,16.866a3.61,3.61,0,0,0,.266-1.35V13.1a3.629,3.629,0,0,0-3.629-3.629h-3.79l-1.061-7.43A1.21,1.21,0,0,0,22.935,1H18.1a1.21,1.21,0,0,0-1.2,1.038l-1.061,7.43h-3.79A3.629,3.629,0,0,0,8.419,13.1v2.419a3.61,3.61,0,0,0,.266,1.35A3.629,3.629,0,0,0,6,20.355V72.371A3.629,3.629,0,0,0,9.629,76H31.4a3.629,3.629,0,0,0,3.629-3.629V20.355A3.629,3.629,0,0,0,32.347,16.866ZM19.146,3.419h2.741l.864,6.048H18.282ZM10.839,13.1a1.21,1.21,0,0,1,1.21-1.21H28.984a1.21,1.21,0,0,1,1.21,1.21v2.419a1.21,1.21,0,0,1-1.21,1.21H12.048a1.21,1.21,0,0,1-1.21-1.21ZM32.613,72.371a1.21,1.21,0,0,1-1.21,1.21H9.629a1.21,1.21,0,0,1-1.21-1.21V20.355a1.21,1.21,0,0,1,1.21-1.21H31.4a1.21,1.21,0,0,1,1.21,1.21Z" transform="translate(0 0)" fill="#fff"/>
        <path id="Trazado_6012" data-name="Trazado 6012" d="M25.419,57H24.21a1.21,1.21,0,0,0,0,2.419h1.21a1.21,1.21,0,0,0,0-2.419Z" transform="translate(3.565 11.742)" fill="#fff"/>
        <path id="Trazado_6013" data-name="Trazado 6013" d="M22.258,57H16.21a1.21,1.21,0,0,0,0,2.419h6.048a1.21,1.21,0,0,0,0-2.419Z" transform="translate(1.887 11.742)" fill="#fff"/>
        <path id="Trazado_6014" data-name="Trazado 6014" d="M60.347,16.866a3.61,3.61,0,0,0,.266-1.35V13.1a3.629,3.629,0,0,0-3.629-3.629h-3.79l-1.061-7.43A1.21,1.21,0,0,0,50.935,1H46.1a1.21,1.21,0,0,0-1.2,1.038l-1.061,7.43h-3.79A3.629,3.629,0,0,0,36.419,13.1v2.419a3.61,3.61,0,0,0,.266,1.35A3.629,3.629,0,0,0,34,20.355V72.371A3.629,3.629,0,0,0,37.629,76H59.4a3.629,3.629,0,0,0,3.629-3.629V20.355a3.629,3.629,0,0,0-2.685-3.489ZM47.146,3.419h2.741l.864,6.048H46.282ZM38.839,13.1a1.21,1.21,0,0,1,1.21-1.21H56.984a1.21,1.21,0,0,1,1.21,1.21v2.419a1.21,1.21,0,0,1-1.21,1.21H40.048a1.21,1.21,0,0,1-1.21-1.21Zm3.629,6.048h1.21v5.444a.6.6,0,0,1-1.21,0ZM46.1,24.589V19.145h1.21V29.427a.6.6,0,0,1-1.21,0ZM60.613,72.371a1.21,1.21,0,0,1-1.21,1.21H37.629a1.21,1.21,0,0,1-1.21-1.21V20.355a1.21,1.21,0,0,1,1.21-1.21h2.419v5.444a3.024,3.024,0,0,0,3.629,2.963v1.876a3.024,3.024,0,0,0,6.048,0V19.145H59.4a1.21,1.21,0,0,1,1.21,1.21Z" transform="translate(5.871 0)" fill="#fff"/>
        <path id="Trazado_6015" data-name="Trazado 6015" d="M53.419,57H52.21a1.21,1.21,0,0,0,0,2.419h1.21a1.21,1.21,0,1,0,0-2.419Z" transform="translate(9.435 11.742)" fill="#fff"/>
        <path id="Trazado_6016" data-name="Trazado 6016" d="M50.258,57H44.21a1.21,1.21,0,0,0,0,2.419h6.048a1.21,1.21,0,0,0,0-2.419Z" transform="translate(7.758 11.742)" fill="#fff"/>
      </g>
      <path id="Trazado_9423" data-name="Trazado 9423" d="M-45.265-2.412a1.239,1.239,0,0,0-.279-.854,2.844,2.844,0,0,0-.984-.619A6.5,6.5,0,0,1-48.69-5.024a2.262,2.262,0,0,1-.72-1.787,2.318,2.318,0,0,1,.838-1.85,3.182,3.182,0,0,1,2.139-.714,2.96,2.96,0,0,1,2.146.8,2.594,2.594,0,0,1,.8,2.009l-.013.038h-1.752A1.588,1.588,0,0,0-45.57-7.56a1.084,1.084,0,0,0-.9-.394,1.087,1.087,0,0,0-.841.327,1.166,1.166,0,0,0-.3.822.956.956,0,0,0,.336.752A4.741,4.741,0,0,0-46.1-5.4a4.916,4.916,0,0,1,1.977,1.127,2.533,2.533,0,0,1,.663,1.844,2.333,2.333,0,0,1-.8,1.879,3.175,3.175,0,0,1-2.126.679,3.561,3.561,0,0,1-2.288-.771,2.584,2.584,0,0,1-.936-2.212l.013-.038h1.758a1.734,1.734,0,0,0,.362,1.231,1.453,1.453,0,0,0,1.092.375,1.088,1.088,0,0,0,.847-.3A1.183,1.183,0,0,0-45.265-2.412ZM-39.1,0a3.082,3.082,0,0,1-.136-.375,3.057,3.057,0,0,1-.092-.413,2.147,2.147,0,0,1-.619.67A1.46,1.46,0,0,1-40.8.133a1.756,1.756,0,0,1-1.362-.559,2.124,2.124,0,0,1-.511-1.492,1.955,1.955,0,0,1,.651-1.568,2.9,2.9,0,0,1,1.933-.559h.679V-4.6a1.381,1.381,0,0,0-.181-.771.61.61,0,0,0-.543-.27.523.523,0,0,0-.457.216,1.085,1.085,0,0,0-.152.628l-1.746-.006-.019-.038a1.883,1.883,0,0,1,.663-1.523A2.626,2.626,0,0,1-40.009-7a2.451,2.451,0,0,1,1.742.625,2.317,2.317,0,0,1,.67,1.781v2.78a6.016,6.016,0,0,0,.07.946A5.153,5.153,0,0,0-37.312,0Zm-1.174-1.225a.929.929,0,0,0,.5-.146,1.084,1.084,0,0,0,.365-.375V-3.009h-.679a.657.657,0,0,0-.6.286A1.312,1.312,0,0,0-40.866-2a.919.919,0,0,0,.159.559A.507.507,0,0,0-40.276-1.225Zm7.306.432a2.027,2.027,0,0,1-.676.689,1.712,1.712,0,0,1-.9.238,1.691,1.691,0,0,1-1.438-.7A3.621,3.621,0,0,1-36.5-2.717V-6.868h1.8V-2.7a2.361,2.361,0,0,0,.178,1.061.567.567,0,0,0,.527.33,1.169,1.169,0,0,0,.524-.111,1.05,1.05,0,0,0,.384-.327V-6.868h1.809V0h-1.587Zm5.338-.514a.63.63,0,0,0,.555-.273,1.387,1.387,0,0,0,.187-.787h1.638l.019.038A2.353,2.353,0,0,1-25.9-.559a2.335,2.335,0,0,1-1.736.692,2.5,2.5,0,0,1-2.047-.87,3.426,3.426,0,0,1-.714-2.247v-.882a3.465,3.465,0,0,1,.711-2.25A2.469,2.469,0,0,1-27.644-7a2.288,2.288,0,0,1,1.774.717,2.69,2.69,0,0,1,.638,1.936l-.013.032h-1.644a1.876,1.876,0,0,0-.187-.9.609.609,0,0,0-.568-.341.743.743,0,0,0-.743.458,3.072,3.072,0,0,0-.2,1.227v.884a3.036,3.036,0,0,0,.2,1.233A.755.755,0,0,0-27.631-1.308ZM-21.69.133a2.623,2.623,0,0,1-2.057-.851,3.1,3.1,0,0,1-.762-2.146v-.965A3.545,3.545,0,0,1-23.8-6.106,2.365,2.365,0,0,1-21.842-7a2.276,2.276,0,0,1,1.866.806,3.366,3.366,0,0,1,.66,2.2v1.1h-3.4v.025A1.9,1.9,0,0,0-22.4-1.746a1.061,1.061,0,0,0,.93.438,2.482,2.482,0,0,0,.825-.114,4.341,4.341,0,0,0,.755-.381l.457,1.149a2.723,2.723,0,0,1-.949.565A3.694,3.694,0,0,1-21.69.133Zm-.152-5.687a.67.67,0,0,0-.635.4,2.564,2.564,0,0,0-.229,1.065h1.619v-.255a1.831,1.831,0,0,0-.178-.889A.612.612,0,0,0-21.842-5.554ZM-15.418-1.8a.667.667,0,0,0-.229-.5,3.847,3.847,0,0,0-.876-.524A4.619,4.619,0,0,1-18.075-3.7a1.667,1.667,0,0,1-.517-1.27A1.854,1.854,0,0,1-17.929-6.4,2.533,2.533,0,0,1-16.174-7a2.626,2.626,0,0,1,1.822.609A1.922,1.922,0,0,1-13.7-4.831l-.019.038h-1.739a1.176,1.176,0,0,0-.178-.686.621.621,0,0,0-.546-.254.685.685,0,0,0-.5.2.638.638,0,0,0-.2.476.638.638,0,0,0,.2.492,4.091,4.091,0,0,0,.882.511,4.278,4.278,0,0,1,1.6.873,1.76,1.76,0,0,1,.521,1.323,1.756,1.756,0,0,1-.7,1.435,2.849,2.849,0,0,1-1.834.559,2.539,2.539,0,0,1-1.879-.692,2.043,2.043,0,0,1-.66-1.562l.013-.038h1.65a1.12,1.12,0,0,0,.254.787.9.9,0,0,0,.667.241.781.781,0,0,0,.552-.178A.636.636,0,0,0-15.418-1.8Zm5.288-.667a2.26,2.26,0,0,1,.365-1.292A5.233,5.233,0,0,1-8.652-4.888,5.979,5.979,0,0,1-9.236-5.97a2.7,2.7,0,0,1-.19-.993A2.445,2.445,0,0,1-8.8-8.712a2.182,2.182,0,0,1,1.666-.663,1.914,1.914,0,0,1,1.476.625,2.158,2.158,0,0,1,.574,1.514A2.332,2.332,0,0,1-5.361-6.11a2.869,2.869,0,0,1-.746.885l-.514.413,1.46,1.93.038-.006a3.225,3.225,0,0,0,.27-.746,3.808,3.808,0,0,0,.1-.879h1.32a6.42,6.42,0,0,1-.187,1.6,3.894,3.894,0,0,1-.587,1.292L-2.977,0H-5.021l-.406-.533a3.743,3.743,0,0,1-.968.5A3.3,3.3,0,0,1-7.452.133,2.657,2.657,0,0,1-9.4-.584,2.523,2.523,0,0,1-10.131-2.463Zm2.787,1.155a2.115,2.115,0,0,0,.559-.076,2.089,2.089,0,0,0,.54-.235L-7.89-3.8l-.044.038a1.853,1.853,0,0,0-.3.594,2.23,2.23,0,0,0-.079.594,1.45,1.45,0,0,0,.276.911A.844.844,0,0,0-7.344-1.308ZM-7.82-6.986a1.417,1.417,0,0,0,.111.535,3.239,3.239,0,0,0,.333.6L-7-6.133A1.245,1.245,0,0,0-6.576-6.6a1.26,1.26,0,0,0,.108-.525.9.9,0,0,0-.187-.564.584.584,0,0,0-.486-.245.564.564,0,0,0-.5.271A1.227,1.227,0,0,0-7.82-6.986ZM.793,0V-9.242H3.586A2.965,2.965,0,0,1,5.935-8.166,4.094,4.094,0,0,1,6.862-5.4V-3.84a4.082,4.082,0,0,1-.927,2.768A2.969,2.969,0,0,1,3.586,0ZM2.6-7.8v6.36h.882A1.3,1.3,0,0,0,4.65-2.1a3.268,3.268,0,0,0,.409-1.744V-5.412A3.238,3.238,0,0,0,4.65-7.147,1.3,1.3,0,0,0,3.485-7.8Zm8.626,2.577-.679-.019a.769.769,0,0,0-.473.14.887.887,0,0,0-.289.394V0h-1.8V-6.868H9.667l.07.92.032.013a1.873,1.873,0,0,1,.46-.778A.965.965,0,0,1,10.918-7a1.6,1.6,0,0,1,.257.022,1.746,1.746,0,0,1,.238.054ZM14.695.133a2.623,2.623,0,0,1-2.057-.851,3.1,3.1,0,0,1-.762-2.146v-.965a3.545,3.545,0,0,1,.708-2.279A2.365,2.365,0,0,1,14.542-7a2.276,2.276,0,0,1,1.866.806,3.366,3.366,0,0,1,.66,2.2v1.1h-3.4v.025a1.9,1.9,0,0,0,.308,1.117,1.061,1.061,0,0,0,.93.438,2.482,2.482,0,0,0,.825-.114,4.341,4.341,0,0,0,.755-.381l.457,1.149A2.723,2.723,0,0,1,16-.089,3.694,3.694,0,0,1,14.695.133Zm-.152-5.687a.67.67,0,0,0-.635.4,2.564,2.564,0,0,0-.229,1.065H15.3v-.255a1.831,1.831,0,0,0-.178-.889A.612.612,0,0,0,14.542-5.554ZM20.966-1.8a.667.667,0,0,0-.229-.5,3.847,3.847,0,0,0-.876-.524A4.619,4.619,0,0,1,18.31-3.7a1.667,1.667,0,0,1-.517-1.27A1.854,1.854,0,0,1,18.456-6.4,2.533,2.533,0,0,1,20.211-7a2.626,2.626,0,0,1,1.822.609,1.922,1.922,0,0,1,.654,1.555l-.019.038H20.928a1.176,1.176,0,0,0-.178-.686.621.621,0,0,0-.546-.254.685.685,0,0,0-.5.2.638.638,0,0,0-.2.476.638.638,0,0,0,.2.492,4.091,4.091,0,0,0,.882.511,4.278,4.278,0,0,1,1.6.873,1.76,1.76,0,0,1,.521,1.323,1.756,1.756,0,0,1-.7,1.435,2.849,2.849,0,0,1-1.834.559A2.539,2.539,0,0,1,18.3-.559a2.043,2.043,0,0,1-.66-1.562l.013-.038H19.3a1.12,1.12,0,0,0,.254.787.9.9,0,0,0,.667.241.781.781,0,0,0,.552-.178A.636.636,0,0,0,20.966-1.8Zm5.637,0a.667.667,0,0,0-.229-.5,3.847,3.847,0,0,0-.876-.524A4.619,4.619,0,0,1,23.947-3.7a1.667,1.667,0,0,1-.517-1.27A1.854,1.854,0,0,1,24.093-6.4,2.533,2.533,0,0,1,25.848-7a2.626,2.626,0,0,1,1.822.609,1.922,1.922,0,0,1,.654,1.555l-.019.038H26.565a1.176,1.176,0,0,0-.178-.686.621.621,0,0,0-.546-.254.685.685,0,0,0-.5.2.638.638,0,0,0-.2.476.638.638,0,0,0,.2.492,4.091,4.091,0,0,0,.882.511,4.278,4.278,0,0,1,1.6.873,1.76,1.76,0,0,1,.521,1.323,1.756,1.756,0,0,1-.7,1.435,2.849,2.849,0,0,1-1.834.559,2.539,2.539,0,0,1-1.879-.692,2.043,2.043,0,0,1-.66-1.562l.013-.038h1.65a1.12,1.12,0,0,0,.254.787.9.9,0,0,0,.667.241.781.781,0,0,0,.552-.178A.636.636,0,0,0,26.6-1.8ZM31.135,0h-1.8V-6.868h1.8Zm0-8.525h-1.8V-9.9h1.8Zm2.907,1.657.076.946a2.289,2.289,0,0,1,.7-.79A1.6,1.6,0,0,1,35.737-7a1.591,1.591,0,0,1,1.349.66,3.5,3.5,0,0,1,.492,2.076V0H35.769V-4.264a1.842,1.842,0,0,0-.2-1,.7.7,0,0,0-.619-.289.822.822,0,0,0-.444.127,1.083,1.083,0,0,0-.343.349V0h-1.8V-6.868Zm4.424,3.117a4.148,4.148,0,0,1,.6-2.349A1.921,1.921,0,0,1,40.758-7a1.424,1.424,0,0,1,.806.232,2.042,2.042,0,0,1,.609.663l.114-.768h1.568V-.133A2.864,2.864,0,0,1,43.072,2a2.917,2.917,0,0,1-2.149.778,3.459,3.459,0,0,1-.946-.143,4.344,4.344,0,0,1-.933-.384l.317-1.39a3.228,3.228,0,0,0,.736.3,3.1,3.1,0,0,0,.813.1A1.029,1.029,0,0,0,41.768.9,1.646,1.646,0,0,0,42.053-.14V-.533a1.749,1.749,0,0,1-.578.5,1.559,1.559,0,0,1-.73.168A1.947,1.947,0,0,1,39.063-.7a3.714,3.714,0,0,1-.6-2.206Zm1.8.848a2.617,2.617,0,0,0,.216,1.173.749.749,0,0,0,.724.423,1.022,1.022,0,0,0,.492-.114.94.94,0,0,0,.352-.337V-5.014a1.109,1.109,0,0,0-.346-.394.845.845,0,0,0-.486-.14.753.753,0,0,0-.73.493,3.217,3.217,0,0,0-.222,1.306ZM48.007-1.8a.667.667,0,0,0-.229-.5,3.847,3.847,0,0,0-.876-.524A4.619,4.619,0,0,1,45.351-3.7a1.667,1.667,0,0,1-.517-1.27A1.854,1.854,0,0,1,45.5-6.4,2.533,2.533,0,0,1,47.252-7a2.626,2.626,0,0,1,1.822.609,1.922,1.922,0,0,1,.654,1.555l-.019.038H47.969a1.176,1.176,0,0,0-.178-.686.621.621,0,0,0-.546-.254.685.685,0,0,0-.5.2.638.638,0,0,0-.2.476.638.638,0,0,0,.2.492,4.091,4.091,0,0,0,.882.511,4.278,4.278,0,0,1,1.6.873,1.76,1.76,0,0,1,.521,1.323,1.756,1.756,0,0,1-.7,1.435A2.849,2.849,0,0,1,47.22.133a2.539,2.539,0,0,1-1.879-.692,2.043,2.043,0,0,1-.66-1.562l.013-.038h1.65a1.12,1.12,0,0,0,.254.787.9.9,0,0,0,.667.241.781.781,0,0,0,.552-.178A.636.636,0,0,0,48.007-1.8Z" transform="translate(262 172.66)" fill="#fff"/>
    </g>
  </g>
</svg>
