<svg xmlns="http://www.w3.org/2000/svg" xmlns:xlink="http://www.w3.org/1999/xlink" width="160" height="190" viewBox="0 0 160 190">
  <defs>
    <clipPath id="clip-Beer-Liquors1">
      <rect width="160" height="190"/>
    </clipPath>
  </defs>
  <g id="Beer-Liquors1" clip-path="url(#clip-Beer-Liquors1)">
    <g id="Grupo_1651" data-name="Grupo 1651" transform="translate(6377 12362)">
      <path id="Trazado_7103" data-name="Trazado 7103" d="M14,0H114a14,14,0,0,1,14,14V141a14,14,0,0,1-14,14H14A14,14,0,0,1,0,141V14A14,14,0,0,1,14,0Z" transform="translate(-6361 -12344)" fill="none" opacity="0.93"/>
      <path id="Trazado_6032" data-name="Trazado 6032" d="M112.758,59.644l-5.516-6.43a1.22,1.22,0,0,1-.29-.787V32.758h1.21a1.21,1.21,0,0,0,1.21-1.21V29.129a3.629,3.629,0,0,0-3.629-3.629H96.065a3.629,3.629,0,0,0-3.629,3.629v2.419a1.21,1.21,0,0,0,1.21,1.21h1.21V52.428a1.22,1.22,0,0,1-.29.787l-5.516,6.43A6.06,6.06,0,0,0,87.6,63.579V94.452a6.056,6.056,0,0,0,6.048,6.048h14.516a6.056,6.056,0,0,0,6.048-6.048V63.579A6.054,6.054,0,0,0,112.758,59.644Zm-.967,27.549H90.016V82.355h3.945a8.454,8.454,0,0,0,13.885,0h3.945Zm0-7.258h-4.609a1.21,1.21,0,0,0-1.049.6,6.035,6.035,0,0,1-10.459,0,1.21,1.21,0,0,0-1.049-.6H90.016V75.1h4.609a1.21,1.21,0,0,0,1.049-.6,6.035,6.035,0,0,1,10.459,0,1.21,1.21,0,0,0,1.049.6h4.609Zm-3.945-7.258a8.454,8.454,0,0,0-13.885,0H90.016V67.839h21.774v4.839ZM96.065,27.919h9.677a1.21,1.21,0,0,1,1.21,1.21v1.209h-12.1V29.129A1.21,1.21,0,0,1,96.065,27.919Zm-6.049,35.66a3.638,3.638,0,0,1,.874-2.361l5.51-6.43a3.627,3.627,0,0,0,.875-2.361V32.758h7.258V52.428a3.627,3.627,0,0,0,.875,2.361l5.509,6.43a3.631,3.631,0,0,1,.875,2.361v1.84H90.016Zm21.774,30.872a3.629,3.629,0,0,1-3.629,3.629H93.645a3.629,3.629,0,0,1-3.629-3.629h0V89.613h21.774Z" transform="translate(-6397.597 -12341.5)" fill="#5e5b5c"/>
      <path id="Trazado_6033" data-name="Trazado 6033" d="M104.219,243.79h6.011a1.234,1.234,0,0,0,1.235-1.03,1.21,1.21,0,0,0-1.2-1.389h-6.011a1.234,1.234,0,0,0-1.235,1.03A1.21,1.21,0,0,0,104.219,243.79Z" transform="translate(-6408.172 -12489.629)" fill="#5e5b5c"/>
      <path id="Trazado_6034" data-name="Trazado 6034" d="M135.058,243.79h1.172a1.234,1.234,0,0,0,1.235-1.03,1.21,1.21,0,0,0-1.2-1.389H135.1a1.234,1.234,0,0,0-1.235,1.03A1.21,1.21,0,0,0,135.058,243.79Z" transform="translate(-6429.333 -12489.629)" fill="#5e5b5c"/>
      <path id="Trazado_9439" data-name="Trazado 9439" d="M-35.445,0V-9.242H-32.8a3.573,3.573,0,0,1,2.253.632,2.252,2.252,0,0,1,.806,1.888,2.286,2.286,0,0,1-.3,1.165,1.788,1.788,0,0,1-.873.759,1.711,1.711,0,0,1,1.152.743,2.457,2.457,0,0,1,.378,1.365,2.541,2.541,0,0,1-.771,2.009,3.214,3.214,0,0,1-2.2.682Zm1.79-4.094v2.7h1.308a1.135,1.135,0,0,0,.882-.327,1.392,1.392,0,0,0,.3-.968,1.668,1.668,0,0,0-.273-1.022,1.043,1.043,0,0,0-.851-.381h-1.365Zm0-1.238h.939a1.22,1.22,0,0,0,.882-.324,1.236,1.236,0,0,0,.3-.9,1.309,1.309,0,0,0-.317-.971,1.31,1.31,0,0,0-.952-.311h-.857ZM-25.683.133A2.542,2.542,0,0,1-27.79-.806a3.76,3.76,0,0,1-.749-2.418v-.26a4.162,4.162,0,0,1,.72-2.533A2.373,2.373,0,0,1-25.791-7a2.217,2.217,0,0,1,1.86.832,3.587,3.587,0,0,1,.647,2.26v.978h-3.466A2.413,2.413,0,0,0-26.4-1.714a1.041,1.041,0,0,0,.93.451,2.763,2.763,0,0,0,.892-.124,3.623,3.623,0,0,0,.771-.39l.463,1.117A2.968,2.968,0,0,1-24.34-.1,3.881,3.881,0,0,1-25.683.133Zm-.108-5.726a.717.717,0,0,0-.67.4,2.745,2.745,0,0,0-.276,1.089h1.7v-.159a2.226,2.226,0,0,0-.175-.978A.6.6,0,0,0-25.791-5.592ZM-19.735.133a2.542,2.542,0,0,1-2.107-.939,3.76,3.76,0,0,1-.749-2.418v-.26a4.162,4.162,0,0,1,.72-2.533A2.373,2.373,0,0,1-19.843-7a2.217,2.217,0,0,1,1.86.832,3.587,3.587,0,0,1,.647,2.26v.978H-20.8a2.413,2.413,0,0,0,.346,1.212,1.041,1.041,0,0,0,.93.451,2.763,2.763,0,0,0,.892-.124,3.623,3.623,0,0,0,.771-.39L-17.4-.66a2.968,2.968,0,0,1-.993.565A3.881,3.881,0,0,1-19.735.133Zm-.108-5.726a.717.717,0,0,0-.67.4,2.745,2.745,0,0,0-.276,1.089h1.7v-.159a2.226,2.226,0,0,0-.175-.978A.6.6,0,0,0-19.843-5.592Zm6.627.273-.609-.019a.776.776,0,0,0-.5.159,1,1,0,0,0-.308.444V0h-1.784V-6.868h1.669l.07.971a2.114,2.114,0,0,1,.5-.809A1,1,0,0,1-13.463-7a1.04,1.04,0,0,1,.222.022q.1.022.209.054Zm7.179,2.057H-9.249v-1.4h3.212ZM.248-1.4H3.694V0H-1.542V-9.242H.248ZM6.525,0H4.735V-6.868h1.79Zm0-8.538H4.735V-9.9h1.79ZM7.566-3.4A4.971,4.971,0,0,1,8.169-6,1.9,1.9,0,0,1,9.877-7a1.492,1.492,0,0,1,.825.229,2.038,2.038,0,0,1,.622.66l.14-.762H13V2.641H11.2V-.54a1.751,1.751,0,0,1-.587.5,1.621,1.621,0,0,1-.752.171A1.91,1.91,0,0,1,8.169-.8a4.475,4.475,0,0,1-.6-2.466Zm1.777.133a3.808,3.808,0,0,0,.229,1.469.779.779,0,0,0,.755.53,1.038,1.038,0,0,0,.514-.121,1,1,0,0,0,.362-.355V-5.034a1.155,1.155,0,0,0-.362-.413.884.884,0,0,0-.508-.146.8.8,0,0,0-.755.606A4.479,4.479,0,0,0,9.344-3.4ZM17.78-.978a2.214,2.214,0,0,1-.682.822,1.6,1.6,0,0,1-.949.289,1.693,1.693,0,0,1-1.457-.743,3.987,3.987,0,0,1-.53-2.3V-6.868h1.79v3.974a3.086,3.086,0,0,0,.181,1.273.6.6,0,0,0,.568.352,1.206,1.206,0,0,0,.546-.117,1.094,1.094,0,0,0,.4-.346V-6.868h1.8V0H17.977Zm2.6-2.52a4.061,4.061,0,0,1,.74-2.523A2.459,2.459,0,0,1,23.2-7a2.478,2.478,0,0,1,2.082.974A4.024,4.024,0,0,1,26.032-3.5v.146a4.009,4.009,0,0,1-.746,2.517,2.469,2.469,0,0,1-2.073.968,2.483,2.483,0,0,1-2.088-.965,4.018,4.018,0,0,1-.743-2.52Zm1.784.146A4,4,0,0,0,22.4-1.828a.826.826,0,0,0,.809.565A.816.816,0,0,0,24-1.828a3.955,3.955,0,0,0,.241-1.523V-3.5A3.989,3.989,0,0,0,24-5.018a.824.824,0,0,0-.8-.574.819.819,0,0,0-.8.578A4.042,4.042,0,0,0,22.166-3.5ZM30.2-5.319l-.609-.019a.776.776,0,0,0-.5.159,1,1,0,0,0-.308.444V0H27V-6.868h1.669l.07.971a2.114,2.114,0,0,1,.5-.809A1,1,0,0,1,29.955-7a1.04,1.04,0,0,1,.222.022q.1.022.209.054ZM34.1-1.79a.682.682,0,0,0-.235-.521,3.858,3.858,0,0,0-.908-.527,4.806,4.806,0,0,1-1.574-.882,1.637,1.637,0,0,1-.527-1.257,1.837,1.837,0,0,1,.67-1.428A2.585,2.585,0,0,1,33.3-7a2.673,2.673,0,0,1,1.844.613A1.887,1.887,0,0,1,35.8-4.837l-.013.038H34.062a1.16,1.16,0,0,0-.19-.7.666.666,0,0,0-.578-.263.729.729,0,0,0-.524.2.659.659,0,0,0-.213.5.628.628,0,0,0,.209.492,4.367,4.367,0,0,0,.914.517,4.442,4.442,0,0,1,1.615.879,1.728,1.728,0,0,1,.53,1.311,1.753,1.753,0,0,1-.7,1.435,2.883,2.883,0,0,1-1.85.559,2.592,2.592,0,0,1-1.9-.686,2.016,2.016,0,0,1-.667-1.555l.019-.038h1.625a1.115,1.115,0,0,0,.267.8.965.965,0,0,0,.7.244.819.819,0,0,0,.581-.187A.658.658,0,0,0,34.1-1.79Z" transform="translate(-6292 -12206)" fill="#5e5b5c"/>
    </g>
  </g>
</svg>
