<svg xmlns="http://www.w3.org/2000/svg" xmlns:xlink="http://www.w3.org/1999/xlink" width="160" height="190" viewBox="0 0 160 190">
  <defs>
    <clipPath id="clip-C-drinks1">
      <rect width="160" height="190"/>
    </clipPath>
  </defs>
  <g id="C-drinks1" clip-path="url(#clip-C-drinks1)">
    <g id="Grupo_1649" data-name="Grupo 1649" transform="translate(6733 12362)">
      <path id="Trazado_7105" data-name="Trazado 7105" d="M14,0H114a14,14,0,0,1,14,14V141a14,14,0,0,1-14,14H14A14,14,0,0,1,0,141V14A14,14,0,0,1,14,0Z" transform="translate(-6717 -12344)" fill="none" opacity="0.93"/>
      <path id="Trazado_6027" data-name="Trazado 6027" d="M106.238,160.138a3.958,3.958,0,1,1,3.958-3.958A3.963,3.963,0,0,1,106.238,160.138Zm0-6.011a2.053,2.053,0,1,0,2.052,2.052A2.055,2.055,0,0,0,106.238,154.127Z" transform="translate(-6763.588 -12428.554)" fill="#5e5b5c"/>
      <path id="Trazado_6028" data-name="Trazado 6028" d="M129.6,132.322a5.424,5.424,0,1,1,5.425-5.424A5.431,5.431,0,0,1,129.6,132.322Zm0-8.943a3.519,3.519,0,1,0,3.519,3.519A3.523,3.523,0,0,0,129.6,123.379Z" transform="translate(-6778.594 -12407.481)" fill="#5e5b5c"/>
      <path id="Trazado_6029" data-name="Trazado 6029" d="M114.109,69.988c.043-.263.084-.8.084-.8v0c0-.108.008-.215.008-.323V54.819q0-.692-.066-1.379v-.013a14.67,14.67,0,0,0-1.815-5.794l-4.81-8.54h0l-.881-1.565a15.793,15.793,0,0,1-1.59-4.048,2.329,2.329,0,0,0,1.541-2.193V27.761a2.261,2.261,0,0,0-2.261-2.261h-7a2.324,2.324,0,0,0-2.324,2.324v3.451a2.325,2.325,0,0,0,1.541,2.189,15.74,15.74,0,0,1-1.59,4.04l-.882,1.563L89.253,47.59a14.611,14.611,0,0,0-1.815,5.782v.013q-.065.685-.066,1.376V68.824s.082.869.127,1.14l1.315,7.482a12.827,12.827,0,0,1-.556,6.338,15.883,15.883,0,0,0-.886,4.988v.991a15.444,15.444,0,0,0,1.907,7.26L89.93,98.2a4.973,4.973,0,0,0,4.092,2.509H96.43a3.409,3.409,0,0,0,2.43-1.332A.655.655,0,0,1,99.5,99.1h2.665a.655.655,0,0,1,.641.281,6.014,6.014,0,0,0,2.43,1.332h2.437a4.551,4.551,0,0,0,3.991-2.365l.741-1.353a14.6,14.6,0,0,0,1.8-7.015V88.653a14.34,14.34,0,0,0-.834-4.769,12.958,12.958,0,0,1-.567-6.377ZM97.341,27.809a.11.11,0,0,1,.11-.11h6.818a.11.11,0,0,1,.11.11v3.445a.11.11,0,0,1-.11.11H97.451a.11.11,0,0,1-.11-.11Zm1.567,5.9h3.851a17.619,17.619,0,0,0,1.842,4.838H97.066A17.622,17.622,0,0,0,98.907,33.71ZM112,55.995V67.179l-.173,3.05-1.207,6.855a15,15,0,0,0,.623,7.339A13.258,13.258,0,0,1,112,88.758v.982a12.787,12.787,0,0,1-1.6,6.179l-.652,1.177a2.463,2.463,0,0,1-2.154,1.269h-2.326a.785.785,0,0,1-.638-.323,3.111,3.111,0,0,0-2.518-1.29H99.574a2.708,2.708,0,0,0-2.284,1.236.82.82,0,0,1-.689.377H94.07a2.463,2.463,0,0,1-2.155-1.271l-.7-1.258a13.23,13.23,0,0,1-1.649-6.388v-.69a13.255,13.255,0,0,1,.757-4.337,15,15,0,0,0,.621-7.349l-1.231-6.856-.147-2.639V55.995h0V54.841l.165-.165h3.034a1.132,1.132,0,0,0,1.139-.967,1.1,1.1,0,0,0-1.1-1.233H89.788a12.386,12.386,0,0,1,1.382-3.72l4.554-8.009h10.219l4.554,8.009a12.378,12.378,0,0,1,1.382,3.72H98a1.132,1.132,0,0,0-1.139.966,1.1,1.1,0,0,0,1.1,1.233h13.877l.165.165Z" transform="translate(-6753.371 -12341.711)" fill="#5e5b5c"/>
      <path id="Trazado_9435" data-name="Trazado 9435" d="M0,0H21.552V1.906H0Z" transform="translate(-6663.214 -12266.363)" fill="#5e5b5c"/>
      <path id="Trazado_9436" data-name="Trazado 9436" d="M-40.612-2.869l.013.038a2.848,2.848,0,0,1-.759,2.225A3.137,3.137,0,0,1-43.6.133a3.193,3.193,0,0,1-2.368-.879,3.386,3.386,0,0,1-.876-2.5V-5.986a3.479,3.479,0,0,1,.847-2.5A3.013,3.013,0,0,1-43.7-9.375a3.352,3.352,0,0,1,2.33.736,2.79,2.79,0,0,1,.787,2.228l-.013.038h-1.739a1.894,1.894,0,0,0-.314-1.244A1.342,1.342,0,0,0-43.7-7.973a1.146,1.146,0,0,0-1.009.486A2.638,2.638,0,0,0-45.049-6v2.755a2.505,2.505,0,0,0,.362,1.495,1.274,1.274,0,0,0,1.092.486,1.178,1.178,0,0,0,.958-.352,2.013,2.013,0,0,0,.292-1.254ZM-36.163,0a3.022,3.022,0,0,1-.168-.5,4.207,4.207,0,0,1-.1-.546,2.43,2.43,0,0,1-.6.844,1.322,1.322,0,0,1-.911.33,1.863,1.863,0,0,1-1.444-.549,2.143,2.143,0,0,1-.5-1.508,1.921,1.921,0,0,1,.663-1.558,3.03,3.03,0,0,1,1.984-.555h.781v-.571a1.384,1.384,0,0,0-.19-.79.642.642,0,0,0-.565-.276.6.6,0,0,0-.5.222,1.021,1.021,0,0,0-.171.635l-1.727-.006-.013-.038a1.83,1.83,0,0,1,.667-1.511A2.707,2.707,0,0,1-37.1-7a2.487,2.487,0,0,1,1.758.622A2.3,2.3,0,0,1-34.671-4.6v2.818a5.723,5.723,0,0,0,.07.914A5.366,5.366,0,0,0-34.385,0Zm-1.314-1.193a1,1,0,0,0,.635-.219,1.1,1.1,0,0,0,.381-.53V-3.021h-.781a.748.748,0,0,0-.657.292,1.245,1.245,0,0,0-.206.736.919.919,0,0,0,.171.578A.548.548,0,0,0-37.477-1.193Zm7.16-4.126-.609-.019a.776.776,0,0,0-.5.159,1,1,0,0,0-.308.444V0h-1.784V-6.868h1.669l.07.971a2.114,2.114,0,0,1,.5-.809A1,1,0,0,1-30.564-7a1.04,1.04,0,0,1,.222.022q.1.022.209.054Zm6.291,2.057a4.56,4.56,0,0,1-.587,2.476,1.911,1.911,0,0,1-1.717.92A1.587,1.587,0,0,1-27.193-.1a1.942,1.942,0,0,1-.628-.67L-27.942,0h-1.53V-9.9h1.784v3.644A1.784,1.784,0,0,1-27.1-6.8,1.532,1.532,0,0,1-26.336-7a1.891,1.891,0,0,1,1.723.978A5.066,5.066,0,0,1-24.026-3.4Zm-1.79-.133a4.907,4.907,0,0,0-.209-1.612.771.771,0,0,0-.768-.578.908.908,0,0,0-.536.159,1.1,1.1,0,0,0-.359.444V-1.79a.927.927,0,0,0,.355.39,1.064,1.064,0,0,0,.546.13.758.758,0,0,0,.768-.508,4.186,4.186,0,0,0,.2-1.485Zm2.52-.1a4.061,4.061,0,0,1,.74-2.523A2.459,2.459,0,0,1-20.478-7a2.478,2.478,0,0,1,2.082.974A4.024,4.024,0,0,1-17.646-3.5v.146a4.009,4.009,0,0,1-.746,2.517,2.469,2.469,0,0,1-2.073.968,2.483,2.483,0,0,1-2.088-.965,4.018,4.018,0,0,1-.743-2.52Zm1.784.146a4,4,0,0,0,.238,1.523.826.826,0,0,0,.809.565.816.816,0,0,0,.787-.565,3.955,3.955,0,0,0,.241-1.523V-3.5a3.989,3.989,0,0,0-.241-1.52.824.824,0,0,0-.8-.574.819.819,0,0,0-.8.578A4.042,4.042,0,0,0-21.512-3.5Zm6.475-3.517.076.958a2.334,2.334,0,0,1,.714-.8A1.644,1.644,0,0,1-13.3-7a1.608,1.608,0,0,1,1.374.682,3.665,3.665,0,0,1,.5,2.142V0h-1.79V-4.17a2.315,2.315,0,0,0-.187-1.095.615.615,0,0,0-.568-.321,1.04,1.04,0,0,0-.536.14,1.211,1.211,0,0,0-.4.394V0h-1.79V-6.868ZM-6.849,0a3.021,3.021,0,0,1-.168-.5,4.207,4.207,0,0,1-.1-.546,2.43,2.43,0,0,1-.6.844,1.322,1.322,0,0,1-.911.33,1.863,1.863,0,0,1-1.444-.549,2.143,2.143,0,0,1-.5-1.508,1.921,1.921,0,0,1,.663-1.558,3.03,3.03,0,0,1,1.984-.555h.781v-.571a1.384,1.384,0,0,0-.19-.79A.642.642,0,0,0-7.9-5.675a.6.6,0,0,0-.5.222,1.021,1.021,0,0,0-.171.635L-10.3-4.824l-.013-.038a1.83,1.83,0,0,1,.667-1.511A2.707,2.707,0,0,1-7.789-7a2.487,2.487,0,0,1,1.758.622A2.3,2.3,0,0,1-5.357-4.6v2.818a5.723,5.723,0,0,0,.07.914A5.366,5.366,0,0,0-5.072,0ZM-8.163-1.193a1,1,0,0,0,.635-.219,1.1,1.1,0,0,0,.381-.53V-3.021h-.781a.748.748,0,0,0-.657.292,1.245,1.245,0,0,0-.206.736.919.919,0,0,0,.171.578A.548.548,0,0,0-8.163-1.193Zm6.056-7.382v1.708h.933v1.276h-.933v3.5a1.138,1.138,0,0,0,.127.622.4.4,0,0,0,.349.184A1.141,1.141,0,0,0-1.422-1.3a1.871,1.871,0,0,0,.2-.054l.14,1.32a3.142,3.142,0,0,1-.486.13,3,3,0,0,1-.524.041A1.688,1.688,0,0,1-3.431-.4,2.516,2.516,0,0,1-3.9-2.082v-3.51h-.832V-6.868H-3.9V-8.576ZM2.457.133A2.542,2.542,0,0,1,.349-.806,3.76,3.76,0,0,1-.4-3.225v-.26a4.162,4.162,0,0,1,.72-2.533A2.373,2.373,0,0,1,2.349-7a2.217,2.217,0,0,1,1.86.832A3.587,3.587,0,0,1,4.856-3.9v.978H1.39a2.413,2.413,0,0,0,.346,1.212,1.041,1.041,0,0,0,.93.451,2.763,2.763,0,0,0,.892-.124,3.623,3.623,0,0,0,.771-.39L4.792-.66A2.968,2.968,0,0,1,3.8-.1,3.881,3.881,0,0,1,2.457.133ZM2.349-5.592a.717.717,0,0,0-.67.4A2.745,2.745,0,0,0,1.4-4.107H3.1v-.159a2.226,2.226,0,0,0-.175-.978A.6.6,0,0,0,2.349-5.592ZM5.535-3.4A4.971,4.971,0,0,1,6.138-6,1.9,1.9,0,0,1,7.846-7a1.439,1.439,0,0,1,.746.2,1.97,1.97,0,0,1,.594.559V-9.9h1.79V0H9.445L9.312-.774A2.037,2.037,0,0,1,8.671-.1a1.54,1.54,0,0,1-.838.232A1.91,1.91,0,0,1,6.138-.8a4.475,4.475,0,0,1-.6-2.466Zm1.777.133A3.787,3.787,0,0,0,7.541-1.8a.779.779,0,0,0,.755.53.979.979,0,0,0,.517-.136,1.042,1.042,0,0,0,.371-.4V-4.964a1.226,1.226,0,0,0-.375-.457A.847.847,0,0,0,8.3-5.586a.8.8,0,0,0-.755.6A4.452,4.452,0,0,0,7.313-3.4ZM15.165,0V-9.242h2.85A3.041,3.041,0,0,1,20.408-8.16a4.067,4.067,0,0,1,.946,2.777v1.53a4.052,4.052,0,0,1-.946,2.777A3.048,3.048,0,0,1,18.015,0Zm1.79-7.839V-1.4h1.06a1.275,1.275,0,0,0,1.117-.686,3.316,3.316,0,0,0,.425-1.771V-5.4a3.289,3.289,0,0,0-.425-1.758,1.275,1.275,0,0,0-1.117-.686ZM25.7-5.319l-.609-.019a.776.776,0,0,0-.5.159,1,1,0,0,0-.308.444V0H22.5V-6.868h1.669l.07.971a2.114,2.114,0,0,1,.5-.809A1,1,0,0,1,25.448-7a1.04,1.04,0,0,1,.222.022q.1.022.209.054ZM28.412,0h-1.79V-6.868h1.79Zm0-8.538h-1.79V-9.9h1.79Zm2.92,1.669.076.958a2.334,2.334,0,0,1,.714-.8A1.644,1.644,0,0,1,33.065-7a1.608,1.608,0,0,1,1.374.682,3.665,3.665,0,0,1,.5,2.142V0h-1.79V-4.17a2.316,2.316,0,0,0-.187-1.095.615.615,0,0,0-.568-.321,1.04,1.04,0,0,0-.536.14,1.211,1.211,0,0,0-.4.394V0h-1.79V-6.868Zm6.875,3.986h-.324V0h-1.79V-9.9h1.79v5.637h.292l1.244-2.6h2.063l-1.866,3.1L41.761,0h-2.05ZM45.322-1.79a.682.682,0,0,0-.235-.521,3.858,3.858,0,0,0-.908-.527,4.806,4.806,0,0,1-1.574-.882,1.637,1.637,0,0,1-.527-1.257,1.837,1.837,0,0,1,.67-1.428A2.585,2.585,0,0,1,44.522-7a2.673,2.673,0,0,1,1.844.613,1.887,1.887,0,0,1,.657,1.546l-.013.038H45.284a1.16,1.16,0,0,0-.19-.7.666.666,0,0,0-.578-.263.729.729,0,0,0-.524.2.659.659,0,0,0-.213.5.628.628,0,0,0,.209.492,4.367,4.367,0,0,0,.914.517,4.442,4.442,0,0,1,1.615.879,1.728,1.728,0,0,1,.53,1.311,1.753,1.753,0,0,1-.7,1.435A2.883,2.883,0,0,1,44.5.133a2.592,2.592,0,0,1-1.9-.686,2.016,2.016,0,0,1-.667-1.555l.019-.038h1.625a1.115,1.115,0,0,0,.267.8.965.965,0,0,0,.7.244.819.819,0,0,0,.581-.187A.658.658,0,0,0,45.322-1.79Z" transform="translate(-6648 -12206)" fill="#5e5b5c"/>
    </g>
  </g>
</svg>
