<svg xmlns="http://www.w3.org/2000/svg" xmlns:xlink="http://www.w3.org/1999/xlink" width="307" height="321" viewBox="0 0 307 321">
  <defs>
    <clipPath id="clip-_2-path">
      <rect width="307" height="321"/>
    </clipPath>
  </defs>
  <g id="_2-path" data-name="2-path" clip-path="url(#clip-_2-path)">
    <path id="Trazado_7197" data-name="Trazado 7197" d="M45,0H262a45,45,0,0,1,45,45V276a45,45,0,0,1-45,45H45A45,45,0,0,1,0,276V45A45,45,0,0,1,45,0Z" fill="#d54a55" opacity="0.8"/>
    <path id="Trazado_7206" data-name="Trazado 7206" d="M11.243,0H-10.535V-4.59L-.7-17.017A27.311,27.311,0,0,0,2.319-21.9a9.271,9.271,0,0,0,.916-3.735,6.616,6.616,0,0,0-.891-3.674A3.057,3.057,0,0,0-.4-30.664a3.279,3.279,0,0,0-2.966,1.721,8.431,8.431,0,0,0-1.038,4.407h-6.763l-.073-.146a11.261,11.261,0,0,1,2.881-8.069A10.184,10.184,0,0,1-.4-36.06q5.054,0,7.825,2.8a10.328,10.328,0,0,1,2.771,7.6,11.637,11.637,0,0,1-1.6,5.981,60.946,60.946,0,0,1-5.359,7.3L-1.6-5.371H11.243Z" transform="translate(154 102)" fill="#fff"/>
    <path id="Trazado_7205" data-name="Trazado 7205" d="M-123.583-13.267h-3.674V0h-3.04V-13.267h-3.577v-2.374h10.291Zm-.15,7.348a6.872,6.872,0,0,1,1.251-4.27,4.161,4.161,0,0,1,3.518-1.649,4.194,4.194,0,0,1,3.523,1.649,6.81,6.81,0,0,1,1.268,4.27v.247a6.784,6.784,0,0,1-1.262,4.259A4.178,4.178,0,0,1-118.943.226a4.2,4.2,0,0,1-3.534-1.633,6.8,6.8,0,0,1-1.257-4.265Zm3.019.247a6.773,6.773,0,0,0,.4,2.578,1.4,1.4,0,0,0,1.37.956,1.381,1.381,0,0,0,1.332-.956,6.693,6.693,0,0,0,.408-2.578v-.247a6.751,6.751,0,0,0-.408-2.573,1.4,1.4,0,0,0-1.354-.972,1.386,1.386,0,0,0-1.348.978,6.84,6.84,0,0,0-.4,2.567Zm19.1,4.018a3.746,3.746,0,0,1-1.155,1.391,2.715,2.715,0,0,1-1.606.489,2.866,2.866,0,0,1-2.465-1.257,6.748,6.748,0,0,1-.9-3.889v-6.7h3.029V-4.9a5.222,5.222,0,0,0,.306,2.154,1.013,1.013,0,0,0,.961.6,2.04,2.04,0,0,0,.924-.2,1.851,1.851,0,0,0,.677-.585v-8.69h3.04V0h-2.481Zm9.947-1.375a1.154,1.154,0,0,0-.4-.881A6.529,6.529,0,0,0-93.6-4.8a8.133,8.133,0,0,1-2.664-1.493,2.771,2.771,0,0,1-.892-2.127,3.109,3.109,0,0,1,1.133-2.417,4.375,4.375,0,0,1,3-1A4.523,4.523,0,0,1-89.9-10.8,3.194,3.194,0,0,1-88.79-8.186l-.021.064h-2.922A1.964,1.964,0,0,0-92.055-9.3a1.127,1.127,0,0,0-.978-.446,1.234,1.234,0,0,0-.886.344,1.115,1.115,0,0,0-.36.838,1.063,1.063,0,0,0,.354.833,7.39,7.39,0,0,0,1.547.875,7.518,7.518,0,0,1,2.734,1.488,2.924,2.924,0,0,1,.9,2.218A2.967,2.967,0,0,1-89.934-.72a4.879,4.879,0,0,1-3.131.945,4.386,4.386,0,0,1-3.212-1.16A3.412,3.412,0,0,1-97.4-3.566l.032-.064h2.75a1.887,1.887,0,0,0,.451,1.359,1.633,1.633,0,0,0,1.182.414,1.387,1.387,0,0,0,.983-.317A1.114,1.114,0,0,0-91.668-3.029ZM-82.731.226A4.3,4.3,0,0,1-86.3-1.364a6.363,6.363,0,0,1-1.268-4.093V-5.9a7.044,7.044,0,0,1,1.219-4.286,4.015,4.015,0,0,1,3.432-1.654,3.752,3.752,0,0,1,3.147,1.407,6.07,6.07,0,0,1,1.1,3.824v1.654h-5.865A4.083,4.083,0,0,0-83.95-2.9a1.761,1.761,0,0,0,1.574.763,4.676,4.676,0,0,0,1.509-.209,6.131,6.131,0,0,0,1.305-.661l.784,1.891a5.022,5.022,0,0,1-1.681.956A6.568,6.568,0,0,1-82.731.226Zm-.183-9.689a1.213,1.213,0,0,0-1.133.671,4.645,4.645,0,0,0-.467,1.842h2.879v-.269a3.767,3.767,0,0,0-.3-1.654A1.017,1.017,0,0,0-82.914-9.464ZM-67.832.226a4.059,4.059,0,0,1-3.4-1.59A6.569,6.569,0,0,1-72.461-5.5V-6A6.819,6.819,0,0,1-71.237-10.2a3.815,3.815,0,0,1,3.2-1.638,3.522,3.522,0,0,1,3.024,1.407,6.239,6.239,0,0,1,1.037,3.781v1.225h-6.306a5.739,5.739,0,0,0,.639,2.89,2.113,2.113,0,0,0,1.96,1.106,4.08,4.08,0,0,0,1.59-.285,4.065,4.065,0,0,0,1.246-.833l.709,1.354a4.633,4.633,0,0,1-1.531,1.01A5.439,5.439,0,0,1-67.832.226Zm-.2-10.388a1.709,1.709,0,0,0-1.5.875,5.216,5.216,0,0,0-.7,2.315h4.114v-.247a4.255,4.255,0,0,0-.467-2.127A1.552,1.552,0,0,0-68.036-10.162ZM-61.279,0V-10.065h-1.536v-1.558h1.536v-1.493a4.161,4.161,0,0,1,.9-2.857,3.18,3.18,0,0,1,2.508-1.01,3.838,3.838,0,0,1,.661.059q.338.059.736.167l-.2,1.6a3.8,3.8,0,0,0-.43-.086,3.506,3.506,0,0,0-.494-.032,1.262,1.262,0,0,0-1.112.559,2.827,2.827,0,0,0-.381,1.6v1.493h1.923v1.558H-59.1V0Zm6.542,0V-10.065h-1.536v-1.558h1.536v-1.493a4.161,4.161,0,0,1,.9-2.857,3.18,3.18,0,0,1,2.508-1.01,3.838,3.838,0,0,1,.661.059q.338.059.736.167l-.2,1.6a3.8,3.8,0,0,0-.43-.086,3.506,3.506,0,0,0-.494-.032,1.262,1.262,0,0,0-1.112.559,2.827,2.827,0,0,0-.381,1.6v1.493h1.923v1.558h-1.923V0Zm9.754.226a4.059,4.059,0,0,1-3.4-1.59A6.569,6.569,0,0,1-49.613-5.5V-6A6.819,6.819,0,0,1-48.388-10.2a3.815,3.815,0,0,1,3.2-1.638,3.522,3.522,0,0,1,3.024,1.407,6.239,6.239,0,0,1,1.037,3.781v1.225h-6.306a5.739,5.739,0,0,0,.639,2.89,2.113,2.113,0,0,0,1.96,1.106,4.08,4.08,0,0,0,1.59-.285A4.065,4.065,0,0,0-42-2.546l.709,1.354a4.633,4.633,0,0,1-1.531,1.01A5.439,5.439,0,0,1-44.983.226Zm-.2-10.388a1.709,1.709,0,0,0-1.5.875,5.216,5.216,0,0,0-.7,2.315h4.114v-.247a4.255,4.255,0,0,0-.467-2.127A1.552,1.552,0,0,0-45.187-10.162Zm10.065,8.733a1.716,1.716,0,0,0,1.348-.623,2.48,2.48,0,0,0,.542-1.687h1.966l.021.064A3.591,3.591,0,0,1-32.35-.9,3.814,3.814,0,0,1-35.122.226a3.839,3.839,0,0,1-3.319-1.638A7.023,7.023,0,0,1-39.612-5.6V-6a7.053,7.053,0,0,1,1.171-4.184,3.831,3.831,0,0,1,3.319-1.649,3.682,3.682,0,0,1,2.831,1.176,4.2,4.2,0,0,1,1.058,3.056l-.021.054h-1.977a3.157,3.157,0,0,0-.521-1.885,1.611,1.611,0,0,0-1.37-.725A1.829,1.829,0,0,0-36.889-8.98,7.14,7.14,0,0,0-37.431-6V-5.6a7.218,7.218,0,0,0,.537,3A1.827,1.827,0,0,0-35.122-1.429ZM-26.4-14.513v2.89h1.815v1.558H-26.4v6.918a2.269,2.269,0,0,0,.274,1.284.851.851,0,0,0,.725.381,1.751,1.751,0,0,0,.344-.032q.161-.032.376-.1l.226,1.5a3.424,3.424,0,0,1-.693.242,3.379,3.379,0,0,1-.79.091,2.441,2.441,0,0,1-1.955-.811,3.877,3.877,0,0,1-.7-2.562v-6.918h-1.536v-1.558h1.536v-2.89ZM-20.276,0h-2.191V-11.623h2.191Zm0-14.674h-2.191v-2.084h2.191ZM-14.2-3.491l.183.913h.064l.193-.913,2.03-8.132h2.256L-13.014,0h-1.944l-3.566-11.623h2.277ZM-3.851.226a4.059,4.059,0,0,1-3.4-1.59A6.569,6.569,0,0,1-8.481-5.5V-6A6.819,6.819,0,0,1-7.256-10.2a3.815,3.815,0,0,1,3.2-1.638,3.522,3.522,0,0,1,3.024,1.407A6.239,6.239,0,0,1,.005-6.649v1.225H-6.3a5.739,5.739,0,0,0,.639,2.89A2.113,2.113,0,0,0-3.7-1.429a4.08,4.08,0,0,0,1.59-.285A4.065,4.065,0,0,0-.865-2.546l.709,1.354A4.633,4.633,0,0,1-1.687-.183,5.439,5.439,0,0,1-3.851.226Zm-.2-10.388a1.709,1.709,0,0,0-1.5.875,5.216,5.216,0,0,0-.7,2.315h4.114v-.247A4.255,4.255,0,0,0-2.61-9.346,1.552,1.552,0,0,0-4.055-10.162ZM4.3,0H2.111V-16.758H4.3Zm5.973-4.007.172.784h.064l2.277-8.4h2.4L11.027,1.8A6.205,6.205,0,0,1,9.92,3.846a2.51,2.51,0,0,1-2.041.849,3.125,3.125,0,0,1-.58-.059q-.312-.059-.612-.134L6.934,2.89q.107.021.317.043t.328.021A1.179,1.179,0,0,0,8.6,2.412,4.373,4.373,0,0,0,9.19,1.128l.4-1.2L5.924-11.623H8.309ZM21.092-5.672a8.59,8.59,0,0,1,1.021-4.479,3.188,3.188,0,0,1,2.868-1.687,2.956,2.956,0,0,1,1.558.408,3.492,3.492,0,0,1,1.149,1.16l.236-1.354h1.794V4.469H27.527V-1.053a3.068,3.068,0,0,1-1.1.956,3.213,3.213,0,0,1-1.466.322,3.221,3.221,0,0,1-2.852-1.552,7.426,7.426,0,0,1-1.015-4.12Zm2.17.226a6.574,6.574,0,0,0,.548,2.927,1.8,1.8,0,0,0,1.708,1.09,2.013,2.013,0,0,0,1.192-.349,2.616,2.616,0,0,0,.816-.994V-8.755a2.722,2.722,0,0,0-.811-1.031,1.918,1.918,0,0,0-1.187-.376,1.811,1.811,0,0,0-1.713,1.251,8.076,8.076,0,0,0-.553,3.239ZM38.581-1.7a3.741,3.741,0,0,1-1.2,1.423,2.934,2.934,0,0,1-1.7.5,2.926,2.926,0,0,1-2.5-1.235,6.54,6.54,0,0,1-.9-3.835v-6.778h2.191v6.8a5.657,5.657,0,0,0,.43,2.616,1.413,1.413,0,0,0,1.311.747,2.413,2.413,0,0,0,1.37-.376,2.523,2.523,0,0,0,.886-1.074v-8.712h2.191V0H38.8ZM49.194,0q-.14-.526-.22-.94a5.922,5.922,0,0,1-.1-.822A4.268,4.268,0,0,1,47.652-.338a2.812,2.812,0,0,1-1.724.564A3.052,3.052,0,0,1,43.538-.7a3.632,3.632,0,0,1-.833-2.524A3.166,3.166,0,0,1,43.86-5.812a4.943,4.943,0,0,1,3.217-.945h1.783V-7.949a2.608,2.608,0,0,0-.473-1.66,1.626,1.626,0,0,0-1.354-.6,1.619,1.619,0,0,0-1.262.516,1.892,1.892,0,0,0-.467,1.321l-2.084.011L43.2-8.422a2.954,2.954,0,0,1,1.053-2.385,4.137,4.137,0,0,1,2.922-1.031,3.915,3.915,0,0,1,2.8,1.015,3.792,3.792,0,0,1,1.074,2.9v5.393a9.546,9.546,0,0,0,.086,1.294A8.243,8.243,0,0,0,51.407,0ZM46.379-1.45A2.448,2.448,0,0,0,47.958-2a2.562,2.562,0,0,0,.9-1.337V-5.4H47.045a2.006,2.006,0,0,0-1.579.639A2.237,2.237,0,0,0,44.9-3.223a2,2,0,0,0,.387,1.289A1.323,1.323,0,0,0,46.379-1.45ZM55.875,0H53.684V-16.758h2.191Zm5,0H58.679V-11.623h2.191Zm0-14.674H58.679v-2.084h2.191Zm5.468.161v2.89h1.815v1.558H66.338v6.918a2.269,2.269,0,0,0,.274,1.284.851.851,0,0,0,.725.381,1.751,1.751,0,0,0,.344-.032q.161-.032.376-.1l.226,1.5a3.424,3.424,0,0,1-.693.242,3.379,3.379,0,0,1-.79.091,2.441,2.441,0,0,1-1.955-.811,3.877,3.877,0,0,1-.7-2.562v-6.918H62.611v-1.558h1.536v-2.89Zm7.1,10.506.172.784h.064l2.277-8.4h2.4L74.191,1.8a6.205,6.205,0,0,1-1.106,2.041,2.51,2.51,0,0,1-2.041.849,3.125,3.125,0,0,1-.58-.059q-.312-.059-.612-.134L70.1,2.89q.107.021.317.043t.328.021a1.179,1.179,0,0,0,1.021-.542,4.373,4.373,0,0,0,.591-1.284l.4-1.2L69.088-11.623h2.385ZM88.7-1.429a1.716,1.716,0,0,0,1.348-.623,2.479,2.479,0,0,0,.542-1.687H92.56l.021.064A3.591,3.591,0,0,1,91.475-.9,3.814,3.814,0,0,1,88.7.226a3.839,3.839,0,0,1-3.319-1.638A7.023,7.023,0,0,1,84.213-5.6V-6a7.053,7.053,0,0,1,1.171-4.184A3.831,3.831,0,0,1,88.7-11.838a3.682,3.682,0,0,1,2.831,1.176,4.2,4.2,0,0,1,1.058,3.056l-.021.054H90.594a3.157,3.157,0,0,0-.521-1.885,1.611,1.611,0,0,0-1.37-.725A1.829,1.829,0,0,0,86.937-8.98,7.14,7.14,0,0,0,86.394-6V-5.6a7.218,7.218,0,0,0,.537,3A1.827,1.827,0,0,0,88.7-1.429Zm8.078-8.637A3.852,3.852,0,0,1,98-11.371a2.9,2.9,0,0,1,1.611-.467,2.942,2.942,0,0,1,2.471,1.16,5.835,5.835,0,0,1,.892,3.566V0h-2.191V-7.133a4.348,4.348,0,0,0-.462-2.3,1.527,1.527,0,0,0-1.364-.7,2.263,2.263,0,0,0-1.294.365,2.64,2.64,0,0,0-.875,1.021V0H94.59V-16.758h2.191ZM109.651.226a4.059,4.059,0,0,1-3.4-1.59,6.569,6.569,0,0,1-1.23-4.136V-6a6.819,6.819,0,0,1,1.225-4.195,3.815,3.815,0,0,1,3.2-1.638,3.522,3.522,0,0,1,3.024,1.407,6.239,6.239,0,0,1,1.037,3.781v1.225H107.2a5.739,5.739,0,0,0,.639,2.89,2.113,2.113,0,0,0,1.96,1.106,4.08,4.08,0,0,0,1.59-.285,4.065,4.065,0,0,0,1.246-.833l.709,1.354a4.633,4.633,0,0,1-1.531,1.01A5.439,5.439,0,0,1,109.651.226Zm-.2-10.388a1.709,1.709,0,0,0-1.5.875,5.216,5.216,0,0,0-.7,2.315h4.114v-.247a4.255,4.255,0,0,0-.467-2.127A1.552,1.552,0,0,0,109.447-10.162Zm10.065,8.733a1.716,1.716,0,0,0,1.348-.623,2.479,2.479,0,0,0,.542-1.687h1.966l.021.064A3.591,3.591,0,0,1,122.284-.9,3.814,3.814,0,0,1,119.512.226a3.839,3.839,0,0,1-3.319-1.638A7.023,7.023,0,0,1,115.022-5.6V-6a7.053,7.053,0,0,1,1.171-4.184,3.831,3.831,0,0,1,3.319-1.649,3.682,3.682,0,0,1,2.831,1.176A4.2,4.2,0,0,1,123.4-7.605l-.021.054H121.4a3.157,3.157,0,0,0-.521-1.885,1.611,1.611,0,0,0-1.37-.725,1.829,1.829,0,0,0-1.767,1.182A7.14,7.14,0,0,0,117.2-6V-5.6a7.218,7.218,0,0,0,.537,3A1.827,1.827,0,0,0,119.512-1.429Zm8.927-3.9h-.816V0h-2.181V-16.758h2.181v9.765h.763l2.793-4.63h2.567L130.19-6.338,134.132,0h-2.546Zm-250.363,29.4a1.548,1.548,0,0,0-.451-1.133,6.038,6.038,0,0,0-1.729-1.026,8.671,8.671,0,0,1-2.686-1.472,2.611,2.611,0,0,1-.892-2.041,2.935,2.935,0,0,1,1.08-2.288,4.109,4.109,0,0,1,2.809-.945A4.032,4.032,0,0,1-120.9,16.2a3.189,3.189,0,0,1,1.053,2.508l-.021.064h-2.105a2.174,2.174,0,0,0-.489-1.423,1.625,1.625,0,0,0-1.327-.6,1.764,1.764,0,0,0-1.305.467,1.494,1.494,0,0,0-.467,1.09,1.373,1.373,0,0,0,.4,1.047,7.118,7.118,0,0,0,1.724.983,7.941,7.941,0,0,1,2.745,1.493,2.774,2.774,0,0,1,.918,2.127,2.9,2.9,0,0,1-1.112,2.358,4.466,4.466,0,0,1-2.917.908,4.23,4.23,0,0,1-3.078-1.09,3.267,3.267,0,0,1-1.069-2.551l.021-.064h2.03a2.123,2.123,0,0,0,.639,1.627,2.238,2.238,0,0,0,1.488.5,1.942,1.942,0,0,0,1.359-.446A1.467,1.467,0,0,0-121.924,24.067Zm7.487-1.074.172.784h.064l2.277-8.4h2.4L-113.685,28.8a6.205,6.205,0,0,1-1.106,2.041,2.51,2.51,0,0,1-2.041.849,3.125,3.125,0,0,1-.58-.059q-.312-.059-.612-.134l.247-1.611q.107.021.317.043t.328.021a1.179,1.179,0,0,0,1.021-.542,4.373,4.373,0,0,0,.591-1.284l.4-1.2-3.663-11.548h2.385Zm11.9,1.074a1.548,1.548,0,0,0-.451-1.133,6.038,6.038,0,0,0-1.729-1.026,8.671,8.671,0,0,1-2.686-1.472,2.611,2.611,0,0,1-.892-2.041,2.935,2.935,0,0,1,1.08-2.288,4.109,4.109,0,0,1,2.809-.945,4.032,4.032,0,0,1,2.89,1.037,3.189,3.189,0,0,1,1.053,2.508l-.021.064h-2.105a2.174,2.174,0,0,0-.489-1.423,1.625,1.625,0,0,0-1.327-.6,1.764,1.764,0,0,0-1.305.467,1.494,1.494,0,0,0-.467,1.09,1.373,1.373,0,0,0,.4,1.047,7.118,7.118,0,0,0,1.724.983,7.941,7.941,0,0,1,2.745,1.493,2.774,2.774,0,0,1,.918,2.127,2.9,2.9,0,0,1-1.112,2.358,4.466,4.466,0,0,1-2.917.908,4.23,4.23,0,0,1-3.078-1.09,3.267,3.267,0,0,1-1.069-2.551l.021-.064h2.03a2.123,2.123,0,0,0,.639,1.627,2.238,2.238,0,0,0,1.488.5,1.942,1.942,0,0,0,1.359-.446A1.467,1.467,0,0,0-102.534,24.067Zm6.982-11.58v2.89h1.815v1.558h-1.815v6.918a2.269,2.269,0,0,0,.274,1.284.851.851,0,0,0,.725.381,1.751,1.751,0,0,0,.344-.032q.161-.032.376-.1l.226,1.5a3.424,3.424,0,0,1-.693.242,3.379,3.379,0,0,1-.79.091,2.441,2.441,0,0,1-1.955-.811,3.877,3.877,0,0,1-.7-2.562V16.935h-1.536V15.377h1.536v-2.89Zm7.992,14.738a4.059,4.059,0,0,1-3.4-1.59,6.569,6.569,0,0,1-1.23-4.136V21A6.819,6.819,0,0,1-90.965,16.8a3.815,3.815,0,0,1,3.2-1.638,3.522,3.522,0,0,1,3.024,1.407A6.239,6.239,0,0,1-83.7,20.351v1.225h-6.306a5.739,5.739,0,0,0,.639,2.89,2.113,2.113,0,0,0,1.96,1.106,4.08,4.08,0,0,0,1.59-.285,4.065,4.065,0,0,0,1.246-.833l.709,1.354a4.633,4.633,0,0,1-1.531,1.01A5.439,5.439,0,0,1-87.56,27.226Zm-.2-10.388a1.709,1.709,0,0,0-1.5.875,5.216,5.216,0,0,0-.7,2.315h4.114v-.247a4.255,4.255,0,0,0-.467-2.127A1.552,1.552,0,0,0-87.764,16.838Zm8.024-1.461.118,1.579a3.615,3.615,0,0,1,1.23-1.327,3.2,3.2,0,0,1,1.735-.467,2.714,2.714,0,0,1,1.676.532,3.18,3.18,0,0,1,1.063,1.617,3.969,3.969,0,0,1,1.23-1.579,2.956,2.956,0,0,1,1.81-.569,2.753,2.753,0,0,1,2.379,1.23,6.547,6.547,0,0,1,.865,3.744V27h-2.191V20.125a5.134,5.134,0,0,0-.451-2.541,1.48,1.48,0,0,0-1.343-.725,1.641,1.641,0,0,0-1.262.559,3.4,3.4,0,0,0-.747,1.472q.011.193.021.4t.011.424V27h-2.181V20.125a5.055,5.055,0,0,0-.462-2.508,1.481,1.481,0,0,0-1.343-.757,1.893,1.893,0,0,0-1.2.387,2.55,2.55,0,0,0-.773,1.063V27h-2.191V15.377Zm20.131,8.69a1.548,1.548,0,0,0-.451-1.133,6.038,6.038,0,0,0-1.729-1.026,8.671,8.671,0,0,1-2.686-1.472,2.611,2.611,0,0,1-.892-2.041,2.935,2.935,0,0,1,1.08-2.288,4.109,4.109,0,0,1,2.809-.945,4.032,4.032,0,0,1,2.89,1.037,3.189,3.189,0,0,1,1.053,2.508l-.021.064h-2.105a2.174,2.174,0,0,0-.489-1.423,1.625,1.625,0,0,0-1.327-.6,1.764,1.764,0,0,0-1.305.467,1.494,1.494,0,0,0-.467,1.09,1.373,1.373,0,0,0,.4,1.047,7.118,7.118,0,0,0,1.724.983,7.941,7.941,0,0,1,2.745,1.493,2.774,2.774,0,0,1,.918,2.127,2.9,2.9,0,0,1-1.112,2.358,4.466,4.466,0,0,1-2.917.908,4.23,4.23,0,0,1-3.078-1.09,3.267,3.267,0,0,1-1.069-2.551l.021-.064h2.03a2.123,2.123,0,0,0,.639,1.627,2.238,2.238,0,0,0,1.488.5A1.942,1.942,0,0,0-60.1,25.2,1.467,1.467,0,0,0-59.608,24.067Zm6.338,2.675-1.4,3.169h-1.4l.645-3.244V24.68h2.148Zm7.853.258V16.935h-1.536V15.377h1.536V13.884a4.161,4.161,0,0,1,.9-2.857,3.18,3.18,0,0,1,2.508-1.01,3.838,3.838,0,0,1,.661.059q.338.059.736.167l-.2,1.6a3.8,3.8,0,0,0-.43-.086,3.506,3.506,0,0,0-.494-.032,1.262,1.262,0,0,0-1.112.559,2.827,2.827,0,0,0-.381,1.6v1.493h1.923v1.558h-1.923V27Zm5.371-5.94a6.946,6.946,0,0,1,1.225-4.243,3.955,3.955,0,0,1,3.362-1.654,3.969,3.969,0,0,1,3.368,1.654,6.924,6.924,0,0,1,1.23,4.243v.29a6.893,6.893,0,0,1-1.225,4.238,3.958,3.958,0,0,1-3.352,1.638,3.99,3.99,0,0,1-3.384-1.638,6.893,6.893,0,0,1-1.225-4.238Zm2.191.29a6.747,6.747,0,0,0,.6,3.04,1.933,1.933,0,0,0,1.821,1.182,1.91,1.91,0,0,0,1.789-1.187,6.754,6.754,0,0,0,.6-3.035v-.29a6.716,6.716,0,0,0-.6-3.024,1.927,1.927,0,0,0-1.8-1.2,1.917,1.917,0,0,0-1.8,1.2,6.768,6.768,0,0,0-.6,3.024Zm8.637-.29a6.946,6.946,0,0,1,1.225-4.243,3.955,3.955,0,0,1,3.362-1.654,3.969,3.969,0,0,1,3.368,1.654,6.924,6.924,0,0,1,1.23,4.243v.29a6.893,6.893,0,0,1-1.225,4.238,3.958,3.958,0,0,1-3.352,1.638,3.99,3.99,0,0,1-3.384-1.638,6.893,6.893,0,0,1-1.225-4.238Zm2.191.29a6.747,6.747,0,0,0,.6,3.04,1.933,1.933,0,0,0,1.821,1.182,1.91,1.91,0,0,0,1.789-1.187,6.754,6.754,0,0,0,.6-3.035v-.29a6.716,6.716,0,0,0-.6-3.024,1.927,1.927,0,0,0-1.8-1.2,1.917,1.917,0,0,0-1.8,1.2,6.768,6.768,0,0,0-.6,3.024Zm8.669-.021a8.59,8.59,0,0,1,1.021-4.479,3.188,3.188,0,0,1,2.868-1.687,2.958,2.958,0,0,1,1.482.371A3.365,3.365,0,0,1-11.859,16.6V10.242h2.181V27h-1.8l-.226-1.4a3.447,3.447,0,0,1-1.182,1.208,3.081,3.081,0,0,1-1.6.414,3.221,3.221,0,0,1-2.852-1.552,7.426,7.426,0,0,1-1.015-4.12Zm2.17.226a6.473,6.473,0,0,0,.548,2.906,1.8,1.8,0,0,0,1.708,1.08,1.994,1.994,0,0,0,1.241-.387,2.783,2.783,0,0,0,.833-1.1V18.428a3.077,3.077,0,0,0-.838-1.144,1.867,1.867,0,0,0-1.225-.424A1.81,1.81,0,0,0-15.635,18.1a8,8,0,0,0-.553,3.228ZM3.223,24.067a1.548,1.548,0,0,0-.451-1.133,6.038,6.038,0,0,0-1.729-1.026,8.671,8.671,0,0,1-2.686-1.472A2.611,2.611,0,0,1-2.535,18.4a2.935,2.935,0,0,1,1.08-2.288,4.109,4.109,0,0,1,2.809-.945A4.032,4.032,0,0,1,4.243,16.2,3.189,3.189,0,0,1,5.3,18.707l-.021.064H3.169a2.174,2.174,0,0,0-.489-1.423,1.625,1.625,0,0,0-1.327-.6,1.764,1.764,0,0,0-1.305.467,1.494,1.494,0,0,0-.467,1.09,1.373,1.373,0,0,0,.4,1.047,7.118,7.118,0,0,0,1.724.983,7.941,7.941,0,0,1,2.745,1.493,2.774,2.774,0,0,1,.918,2.127,2.9,2.9,0,0,1-1.112,2.358,4.466,4.466,0,0,1-2.917.908,4.23,4.23,0,0,1-3.078-1.09A3.267,3.267,0,0,1-2.8,23.584l.021-.064h2.03a2.123,2.123,0,0,0,.639,1.627,2.238,2.238,0,0,0,1.488.5A1.942,1.942,0,0,0,2.734,25.2,1.467,1.467,0,0,0,3.223,24.067ZM13.438,27q-.14-.526-.22-.94a5.922,5.922,0,0,1-.1-.822A4.268,4.268,0,0,1,11.9,26.662a2.812,2.812,0,0,1-1.724.564,3.052,3.052,0,0,1-2.39-.924,3.632,3.632,0,0,1-.833-2.524A3.166,3.166,0,0,1,8.1,21.188a4.943,4.943,0,0,1,3.217-.945h1.783V19.051a2.608,2.608,0,0,0-.473-1.66,1.626,1.626,0,0,0-1.354-.6,1.619,1.619,0,0,0-1.262.516,1.892,1.892,0,0,0-.467,1.321l-2.084.011-.021-.064A2.954,2.954,0,0,1,8.5,16.193a4.137,4.137,0,0,1,2.922-1.031,3.915,3.915,0,0,1,2.8,1.015,3.792,3.792,0,0,1,1.074,2.9v5.393a9.546,9.546,0,0,0,.086,1.294A8.243,8.243,0,0,0,15.651,27Zm-2.814-1.45A2.448,2.448,0,0,0,12.2,25a2.562,2.562,0,0,0,.9-1.337V21.6H11.29a2.006,2.006,0,0,0-1.579.639,2.237,2.237,0,0,0-.569,1.542,2,2,0,0,0,.387,1.289A1.323,1.323,0,0,0,10.624,25.55ZM18.52,27V16.935H16.983V15.377H18.52V13.884a4.161,4.161,0,0,1,.9-2.857,3.18,3.18,0,0,1,2.508-1.01,3.838,3.838,0,0,1,.661.059q.338.059.736.167l-.2,1.6a3.8,3.8,0,0,0-.43-.086,3.506,3.506,0,0,0-.494-.032,1.262,1.262,0,0,0-1.112.559,2.827,2.827,0,0,0-.381,1.6v1.493h1.923v1.558H20.7V27Zm9.754.226a4.059,4.059,0,0,1-3.4-1.59,6.569,6.569,0,0,1-1.23-4.136V21A6.819,6.819,0,0,1,24.868,16.8a3.815,3.815,0,0,1,3.2-1.638,3.522,3.522,0,0,1,3.024,1.407,6.239,6.239,0,0,1,1.037,3.781v1.225H25.824a5.739,5.739,0,0,0,.639,2.89,2.113,2.113,0,0,0,1.96,1.106,3.807,3.807,0,0,0,2.836-1.117l.709,1.354a4.633,4.633,0,0,1-1.531,1.01A5.439,5.439,0,0,1,28.273,27.226Zm-.2-10.388a1.709,1.709,0,0,0-1.5.875,5.216,5.216,0,0,0-.7,2.315h4.114v-.247a4.255,4.255,0,0,0-.467-2.127A1.552,1.552,0,0,0,28.069,16.838Zm8.83-4.351v2.89h1.815v1.558H36.9v6.918a2.269,2.269,0,0,0,.274,1.284.851.851,0,0,0,.725.381,1.751,1.751,0,0,0,.344-.032q.161-.032.376-.1l.226,1.5a3.424,3.424,0,0,1-.693.242,3.379,3.379,0,0,1-.79.091,2.441,2.441,0,0,1-1.955-.811,3.877,3.877,0,0,1-.7-2.562V16.935H33.172V15.377h1.536v-2.89ZM44,22.993l.172.784h.064l2.277-8.4h2.4L44.752,28.8a6.205,6.205,0,0,1-1.106,2.041,2.51,2.51,0,0,1-2.041.849,3.125,3.125,0,0,1-.58-.059q-.312-.059-.612-.134l.247-1.611q.107.021.317.043t.328.021a1.179,1.179,0,0,0,1.021-.542,4.373,4.373,0,0,0,.591-1.284l.4-1.2L39.649,15.377h2.385Zm15.265,2.578a1.716,1.716,0,0,0,1.348-.623,2.48,2.48,0,0,0,.542-1.687h1.966l.021.064A3.591,3.591,0,0,1,62.036,26.1a4.086,4.086,0,0,1-6.091-.51A7.023,7.023,0,0,1,54.774,21.4V21a7.053,7.053,0,0,1,1.171-4.184,3.831,3.831,0,0,1,3.319-1.649A3.682,3.682,0,0,1,62.1,16.338a4.2,4.2,0,0,1,1.058,3.056l-.021.054H61.155a3.157,3.157,0,0,0-.521-1.885,1.611,1.611,0,0,0-1.37-.725A1.829,1.829,0,0,0,57.5,18.02,7.14,7.14,0,0,0,56.955,21V21.4a7.218,7.218,0,0,0,.537,3A1.827,1.827,0,0,0,59.265,25.571Zm5.479-4.512a6.946,6.946,0,0,1,1.225-4.243,4.249,4.249,0,0,1,6.73,0,6.924,6.924,0,0,1,1.23,4.243v.29A6.893,6.893,0,0,1,72.7,25.587a4.281,4.281,0,0,1-6.735,0,6.893,6.893,0,0,1-1.225-4.238Zm2.191.29a6.747,6.747,0,0,0,.6,3.04,1.933,1.933,0,0,0,1.821,1.182,1.91,1.91,0,0,0,1.789-1.187,6.754,6.754,0,0,0,.6-3.035v-.29a6.716,6.716,0,0,0-.6-3.024,1.954,1.954,0,0,0-3.6,0,6.768,6.768,0,0,0-.6,3.024Zm11.054-5.973.129,1.729a3.927,3.927,0,0,1,1.246-1.434,2.971,2.971,0,0,1,1.708-.51A2.856,2.856,0,0,1,83.483,16.3a5.87,5.87,0,0,1,.865,3.545V27H82.167V19.856a4.345,4.345,0,0,0-.457-2.32,1.553,1.553,0,0,0-1.38-.677,2.127,2.127,0,0,0-1.289.392,2.745,2.745,0,0,0-.859,1.08V27H75.99V15.377Zm11.655-2.89v2.89h1.815v1.558H89.644v6.918a2.269,2.269,0,0,0,.274,1.284.851.851,0,0,0,.725.381,1.751,1.751,0,0,0,.344-.032q.161-.032.376-.1l.226,1.5a3.424,3.424,0,0,1-.693.242,3.379,3.379,0,0,1-.79.091,2.441,2.441,0,0,1-1.955-.811,3.877,3.877,0,0,1-.7-2.562V16.935H85.916V15.377h1.536v-2.89Zm8.776,4.705-.945-.054a1.64,1.64,0,0,0-1.144.414,2.649,2.649,0,0,0-.7,1.166V27H93.436V15.377h2.009l.15,1.719a3.734,3.734,0,0,1,.988-1.423,2.08,2.08,0,0,1,1.386-.51,1.836,1.836,0,0,1,.381.038,2.1,2.1,0,0,1,.317.091Zm1.128,3.867a6.946,6.946,0,0,1,1.225-4.243,4.249,4.249,0,0,1,6.73,0,6.924,6.924,0,0,1,1.23,4.243v.29a6.893,6.893,0,0,1-1.225,4.238,4.281,4.281,0,0,1-6.735,0,6.893,6.893,0,0,1-1.225-4.238Zm2.191.29a6.747,6.747,0,0,0,.6,3.04,1.933,1.933,0,0,0,1.821,1.182,1.91,1.91,0,0,0,1.789-1.187,6.754,6.754,0,0,0,.6-3.035v-.29a6.716,6.716,0,0,0-.6-3.024,1.954,1.954,0,0,0-3.6,0,6.768,6.768,0,0,0-.6,3.024ZM113.147,27h-2.191V10.242h2.191Zm8.175-2.933a1.548,1.548,0,0,0-.451-1.133,6.038,6.038,0,0,0-1.729-1.026,8.671,8.671,0,0,1-2.686-1.472,2.611,2.611,0,0,1-.892-2.041,2.935,2.935,0,0,1,1.08-2.288,4.109,4.109,0,0,1,2.809-.945,4.032,4.032,0,0,1,2.89,1.037,3.189,3.189,0,0,1,1.053,2.508l-.021.064h-2.105a2.174,2.174,0,0,0-.489-1.423,1.625,1.625,0,0,0-1.327-.6,1.764,1.764,0,0,0-1.305.467,1.494,1.494,0,0,0-.467,1.09,1.373,1.373,0,0,0,.4,1.047,7.118,7.118,0,0,0,1.724.983,7.941,7.941,0,0,1,2.745,1.493,2.774,2.774,0,0,1,.918,2.127,2.9,2.9,0,0,1-1.112,2.358,4.466,4.466,0,0,1-2.917.908,4.23,4.23,0,0,1-3.078-1.09,3.267,3.267,0,0,1-1.069-2.551l.021-.064h2.03a2.123,2.123,0,0,0,.639,1.627,2.238,2.238,0,0,0,1.488.5,1.942,1.942,0,0,0,1.359-.446A1.467,1.467,0,0,0,121.322,24.067Zm6.338,2.675-1.4,3.169h-1.4l.645-3.244V24.68h2.148ZM-105.488,43.935a3.852,3.852,0,0,1,1.214-1.305,2.9,2.9,0,0,1,1.611-.467,2.942,2.942,0,0,1,2.471,1.16,5.835,5.835,0,0,1,.892,3.566V54h-2.191V46.867a4.348,4.348,0,0,0-.462-2.3,1.527,1.527,0,0,0-1.364-.7,2.263,2.263,0,0,0-1.294.365,2.64,2.64,0,0,0-.875,1.021V54h-2.191V37.242h2.191Zm12.869,10.291a4.059,4.059,0,0,1-3.4-1.59,6.569,6.569,0,0,1-1.23-4.136V48A6.819,6.819,0,0,1-96.024,43.8a3.815,3.815,0,0,1,3.2-1.638A3.522,3.522,0,0,1-89.8,43.569a6.239,6.239,0,0,1,1.037,3.781v1.225h-6.306a5.739,5.739,0,0,0,.639,2.89,2.113,2.113,0,0,0,1.96,1.106,4.08,4.08,0,0,0,1.59-.285,4.065,4.065,0,0,0,1.246-.833l.709,1.354a4.633,4.633,0,0,1-1.531,1.01A5.439,5.439,0,0,1-92.619,54.226Zm-.2-10.388a1.709,1.709,0,0,0-1.5.875,5.216,5.216,0,0,0-.7,2.315h4.114v-.247a4.255,4.255,0,0,0-.467-2.127A1.552,1.552,0,0,0-92.823,43.838ZM-80.76,54q-.14-.526-.22-.94a5.921,5.921,0,0,1-.1-.822A4.268,4.268,0,0,1-82.3,53.662a2.812,2.812,0,0,1-1.724.564,3.052,3.052,0,0,1-2.39-.924,3.632,3.632,0,0,1-.833-2.524,3.166,3.166,0,0,1,1.155-2.589,4.943,4.943,0,0,1,3.217-.945h1.783V46.051a2.608,2.608,0,0,0-.473-1.66,1.626,1.626,0,0,0-1.354-.6,1.619,1.619,0,0,0-1.262.516,1.892,1.892,0,0,0-.467,1.321l-2.084.011-.021-.064A2.954,2.954,0,0,1-85.7,43.193a4.137,4.137,0,0,1,2.922-1.031,3.915,3.915,0,0,1,2.8,1.015,3.792,3.792,0,0,1,1.074,2.9v5.393a9.546,9.546,0,0,0,.086,1.294A8.243,8.243,0,0,0-78.547,54Zm-2.814-1.45A2.448,2.448,0,0,0-82,52a2.562,2.562,0,0,0,.9-1.337V48.6h-1.815a2.006,2.006,0,0,0-1.579.639,2.237,2.237,0,0,0-.569,1.542,2,2,0,0,0,.387,1.289A1.323,1.323,0,0,0-83.574,52.55Zm9.5,1.45H-76.27V37.242h2.191Zm5.468-14.513v2.89h1.815v1.558H-68.61v6.918a2.269,2.269,0,0,0,.274,1.284.851.851,0,0,0,.725.381,1.751,1.751,0,0,0,.344-.032q.161-.032.376-.1l.226,1.5a3.424,3.424,0,0,1-.693.242,3.379,3.379,0,0,1-.79.091,2.441,2.441,0,0,1-1.955-.811,3.877,3.877,0,0,1-.7-2.562V43.935h-1.536V42.377H-70.8v-2.89Zm5.951,4.447a3.852,3.852,0,0,1,1.214-1.305,2.9,2.9,0,0,1,1.611-.467,2.942,2.942,0,0,1,2.471,1.16,5.835,5.835,0,0,1,.892,3.566V54h-2.191V46.867a4.348,4.348,0,0,0-.462-2.3,1.527,1.527,0,0,0-1.364-.7,2.263,2.263,0,0,0-1.294.365,2.64,2.64,0,0,0-.875,1.021V54h-2.191V37.242h2.191ZM-43.119,54q-.14-.526-.22-.94a5.922,5.922,0,0,1-.1-.822,4.268,4.268,0,0,1-1.219,1.423,2.812,2.812,0,0,1-1.724.564,3.052,3.052,0,0,1-2.39-.924,3.632,3.632,0,0,1-.833-2.524,3.166,3.166,0,0,1,1.155-2.589,4.943,4.943,0,0,1,3.217-.945h1.783V46.051a2.608,2.608,0,0,0-.473-1.66,1.626,1.626,0,0,0-1.354-.6,1.619,1.619,0,0,0-1.262.516,1.892,1.892,0,0,0-.467,1.321l-2.084.011-.021-.064a2.954,2.954,0,0,1,1.053-2.385,4.137,4.137,0,0,1,2.922-1.031,3.915,3.915,0,0,1,2.8,1.015,3.792,3.792,0,0,1,1.074,2.9v5.393a9.546,9.546,0,0,0,.086,1.294A8.243,8.243,0,0,0-40.906,54Zm-2.814-1.45A2.448,2.448,0,0,0-44.354,52a2.562,2.562,0,0,0,.9-1.337V48.6h-1.815a2.006,2.006,0,0,0-1.579.639,2.237,2.237,0,0,0-.569,1.542,2,2,0,0,0,.387,1.289A1.323,1.323,0,0,0-45.934,52.55Zm9.142-10.173.129,1.729a3.927,3.927,0,0,1,1.246-1.434,2.971,2.971,0,0,1,1.708-.51A2.856,2.856,0,0,1-31.3,43.3a5.87,5.87,0,0,1,.865,3.545V54h-2.181V46.856a4.345,4.345,0,0,0-.457-2.32,1.553,1.553,0,0,0-1.38-.677,2.127,2.127,0,0,0-1.289.392,2.745,2.745,0,0,0-.859,1.08V54H-38.79V42.377Zm8.443,5.951a8.59,8.59,0,0,1,1.021-4.479,3.188,3.188,0,0,1,2.868-1.687,2.958,2.958,0,0,1,1.482.371A3.365,3.365,0,0,1-21.85,43.6V37.242h2.181V54h-1.8l-.226-1.4a3.447,3.447,0,0,1-1.182,1.208,3.081,3.081,0,0,1-1.6.414,3.221,3.221,0,0,1-2.852-1.552,7.426,7.426,0,0,1-1.015-4.12Zm2.17.226a6.473,6.473,0,0,0,.548,2.906,1.8,1.8,0,0,0,1.708,1.08,1.994,1.994,0,0,0,1.241-.387,2.783,2.783,0,0,0,.833-1.1V45.428a3.077,3.077,0,0,0-.838-1.144,1.867,1.867,0,0,0-1.225-.424A1.81,1.81,0,0,0-25.625,45.1a8,8,0,0,0-.553,3.228Zm19.411,2.514a1.548,1.548,0,0,0-.451-1.133,6.038,6.038,0,0,0-1.729-1.026,8.671,8.671,0,0,1-2.686-1.472,2.611,2.611,0,0,1-.892-2.041,2.935,2.935,0,0,1,1.08-2.288,4.109,4.109,0,0,1,2.809-.945A4.032,4.032,0,0,1-5.747,43.2a3.189,3.189,0,0,1,1.053,2.508l-.021.064H-6.821a2.174,2.174,0,0,0-.489-1.423,1.625,1.625,0,0,0-1.327-.6,1.764,1.764,0,0,0-1.305.467,1.494,1.494,0,0,0-.467,1.09,1.373,1.373,0,0,0,.4,1.047,7.118,7.118,0,0,0,1.724.983,7.941,7.941,0,0,1,2.745,1.493,2.774,2.774,0,0,1,.918,2.127,2.9,2.9,0,0,1-1.112,2.358,4.466,4.466,0,0,1-2.917.908,4.23,4.23,0,0,1-3.078-1.09,3.267,3.267,0,0,1-1.069-2.551l.021-.064h2.03a2.123,2.123,0,0,0,.639,1.627,2.238,2.238,0,0,0,1.488.5A1.942,1.942,0,0,0-7.256,52.2,1.467,1.467,0,0,0-6.768,51.067ZM3.448,54q-.14-.526-.22-.94a5.921,5.921,0,0,1-.1-.822,4.268,4.268,0,0,1-1.219,1.423,2.812,2.812,0,0,1-1.724.564,3.052,3.052,0,0,1-2.39-.924,3.632,3.632,0,0,1-.833-2.524,3.166,3.166,0,0,1,1.155-2.589,4.943,4.943,0,0,1,3.217-.945H3.115V46.051a2.608,2.608,0,0,0-.473-1.66,1.626,1.626,0,0,0-1.354-.6,1.619,1.619,0,0,0-1.262.516A1.892,1.892,0,0,0-.44,45.632l-2.084.011-.021-.064a2.954,2.954,0,0,1,1.053-2.385,4.137,4.137,0,0,1,2.922-1.031,3.915,3.915,0,0,1,2.8,1.015,3.792,3.792,0,0,1,1.074,2.9v5.393a9.546,9.546,0,0,0,.086,1.294A8.243,8.243,0,0,0,5.661,54ZM.634,52.55A2.448,2.448,0,0,0,2.213,52a2.562,2.562,0,0,0,.9-1.337V48.6H1.3a2.006,2.006,0,0,0-1.579.639,2.237,2.237,0,0,0-.569,1.542,2,2,0,0,0,.387,1.289A1.323,1.323,0,0,0,.634,52.55ZM8.529,54V43.935H6.993V42.377H8.529V40.884a4.161,4.161,0,0,1,.9-2.857,3.18,3.18,0,0,1,2.508-1.01,3.838,3.838,0,0,1,.661.059q.338.059.736.167l-.2,1.6a3.8,3.8,0,0,0-.43-.086,3.506,3.506,0,0,0-.494-.032,1.262,1.262,0,0,0-1.112.559,2.827,2.827,0,0,0-.381,1.6v1.493h1.923v1.558H10.71V54Zm9.754.226a4.059,4.059,0,0,1-3.4-1.59,6.569,6.569,0,0,1-1.23-4.136V48A6.819,6.819,0,0,1,14.878,43.8a3.815,3.815,0,0,1,3.2-1.638A3.522,3.522,0,0,1,21.1,43.569a6.239,6.239,0,0,1,1.037,3.781v1.225H15.834a5.739,5.739,0,0,0,.639,2.89,2.113,2.113,0,0,0,1.96,1.106,3.807,3.807,0,0,0,2.836-1.117l.709,1.354a4.633,4.633,0,0,1-1.531,1.01A5.439,5.439,0,0,1,18.283,54.226Zm-.2-10.388a1.709,1.709,0,0,0-1.5.875,5.216,5.216,0,0,0-.7,2.315h4.114v-.247a4.255,4.255,0,0,0-.467-2.127A1.552,1.552,0,0,0,18.079,43.838Zm8.83-4.351v2.89h1.815v1.558H26.909v6.918a2.269,2.269,0,0,0,.274,1.284.851.851,0,0,0,.725.381,1.751,1.751,0,0,0,.344-.032q.161-.032.376-.1l.226,1.5a3.424,3.424,0,0,1-.693.242,3.379,3.379,0,0,1-.79.091,2.441,2.441,0,0,1-1.955-.811,3.877,3.877,0,0,1-.7-2.562V43.935H23.182V42.377h1.536v-2.89Zm7.1,10.506.172.784h.064l2.277-8.4h2.4L34.762,55.8a6.205,6.205,0,0,1-1.106,2.041,2.51,2.51,0,0,1-2.041.849,3.125,3.125,0,0,1-.58-.059q-.312-.059-.612-.134l.247-1.611q.107.021.317.043t.328.021a1.179,1.179,0,0,0,1.021-.542,4.373,4.373,0,0,0,.591-1.284l.4-1.2L29.659,42.377h2.385Zm15.265,2.578a1.716,1.716,0,0,0,1.348-.623,2.48,2.48,0,0,0,.542-1.687h1.966l.021.064A3.591,3.591,0,0,1,52.046,53.1a4.086,4.086,0,0,1-6.091-.51A7.023,7.023,0,0,1,44.784,48.4V48a7.053,7.053,0,0,1,1.171-4.184,3.831,3.831,0,0,1,3.319-1.649A3.682,3.682,0,0,1,52.1,43.338a4.2,4.2,0,0,1,1.058,3.056l-.021.054H51.165a3.157,3.157,0,0,0-.521-1.885,1.611,1.611,0,0,0-1.37-.725,1.829,1.829,0,0,0-1.767,1.182A7.14,7.14,0,0,0,46.965,48V48.4a7.218,7.218,0,0,0,.537,3A1.827,1.827,0,0,0,49.274,52.571Zm8.078-8.637a3.852,3.852,0,0,1,1.214-1.305,2.9,2.9,0,0,1,1.611-.467,2.942,2.942,0,0,1,2.471,1.16,5.835,5.835,0,0,1,.892,3.566V54H61.349V46.867a4.348,4.348,0,0,0-.462-2.3,1.527,1.527,0,0,0-1.364-.7,2.263,2.263,0,0,0-1.294.365,2.64,2.64,0,0,0-.875,1.021V54H55.161V37.242h2.191ZM70.222,54.226a4.059,4.059,0,0,1-3.4-1.59,6.569,6.569,0,0,1-1.23-4.136V48A6.819,6.819,0,0,1,66.816,43.8a3.815,3.815,0,0,1,3.2-1.638,3.522,3.522,0,0,1,3.024,1.407,6.239,6.239,0,0,1,1.037,3.781v1.225H67.772a5.739,5.739,0,0,0,.639,2.89,2.113,2.113,0,0,0,1.96,1.106,3.807,3.807,0,0,0,2.836-1.117l.709,1.354a4.633,4.633,0,0,1-1.531,1.01A5.439,5.439,0,0,1,70.222,54.226Zm-.2-10.388a1.709,1.709,0,0,0-1.5.875,5.216,5.216,0,0,0-.7,2.315H71.93v-.247a4.255,4.255,0,0,0-.467-2.127A1.552,1.552,0,0,0,70.018,43.838Zm10.065,8.733a1.716,1.716,0,0,0,1.348-.623,2.479,2.479,0,0,0,.542-1.687h1.966l.021.064A3.591,3.591,0,0,1,82.854,53.1a4.086,4.086,0,0,1-6.091-.51A7.023,7.023,0,0,1,75.593,48.4V48a7.053,7.053,0,0,1,1.171-4.184,3.831,3.831,0,0,1,3.319-1.649,3.682,3.682,0,0,1,2.831,1.176,4.2,4.2,0,0,1,1.058,3.056l-.021.054H81.974a3.157,3.157,0,0,0-.521-1.885,1.611,1.611,0,0,0-1.37-.725,1.829,1.829,0,0,0-1.767,1.182A7.14,7.14,0,0,0,77.773,48V48.4a7.218,7.218,0,0,0,.537,3A1.827,1.827,0,0,0,80.083,52.571Zm8.927-3.9h-.816V54H86.013V37.242h2.181v9.765h.763l2.793-4.63h2.567l-3.556,5.285L94.7,54H92.157Zm12.525,2.4a1.548,1.548,0,0,0-.451-1.133,6.038,6.038,0,0,0-1.729-1.026,8.671,8.671,0,0,1-2.686-1.472,2.611,2.611,0,0,1-.892-2.041,2.935,2.935,0,0,1,1.08-2.288,4.109,4.109,0,0,1,2.809-.945,4.032,4.032,0,0,1,2.89,1.037,3.189,3.189,0,0,1,1.053,2.508l-.021.064h-2.105a2.174,2.174,0,0,0-.489-1.423,1.625,1.625,0,0,0-1.327-.6,1.764,1.764,0,0,0-1.305.467,1.494,1.494,0,0,0-.467,1.09,1.373,1.373,0,0,0,.4,1.047,7.118,7.118,0,0,0,1.724.983,7.941,7.941,0,0,1,2.745,1.493,2.774,2.774,0,0,1,.918,2.127,2.9,2.9,0,0,1-1.112,2.358,4.466,4.466,0,0,1-2.917.908,4.23,4.23,0,0,1-3.078-1.09,3.267,3.267,0,0,1-1.069-2.551l.021-.064h2.03a2.123,2.123,0,0,0,.639,1.627,2.238,2.238,0,0,0,1.488.5,1.942,1.942,0,0,0,1.359-.446A1.467,1.467,0,0,0,101.535,51.067Zm6.338,2.675-1.4,3.169h-1.4l.645-3.244V51.68h2.148Zm-210.3,27.483a4.059,4.059,0,0,1-3.4-1.59,6.569,6.569,0,0,1-1.23-4.136V75a6.819,6.819,0,0,1,1.225-4.195,3.815,3.815,0,0,1,3.2-1.638,3.522,3.522,0,0,1,3.024,1.407,6.239,6.239,0,0,1,1.037,3.781v1.225h-6.306a5.739,5.739,0,0,0,.639,2.89,2.113,2.113,0,0,0,1.96,1.106,4.08,4.08,0,0,0,1.59-.285,4.065,4.065,0,0,0,1.246-.833l.709,1.354a4.633,4.633,0,0,1-1.531,1.01A5.439,5.439,0,0,1-102.427,81.226Zm-.2-10.388a1.709,1.709,0,0,0-1.5.875,5.216,5.216,0,0,0-.7,2.315h4.114v-.247a4.255,4.255,0,0,0-.467-2.127A1.552,1.552,0,0,0-102.631,70.838Zm8-1.461.129,1.729a3.927,3.927,0,0,1,1.246-1.434,2.971,2.971,0,0,1,1.708-.51A2.856,2.856,0,0,1-89.133,70.3a5.87,5.87,0,0,1,.865,3.545V81h-2.181V73.856a4.345,4.345,0,0,0-.457-2.32,1.553,1.553,0,0,0-1.38-.677,2.127,2.127,0,0,0-1.289.392,2.745,2.745,0,0,0-.859,1.08V81h-2.191V69.377Zm12.268,8.132.183.913h.064l.193-.913,2.03-8.132h2.256L-81.179,81h-1.944l-3.566-11.623h2.277ZM-73.745,81h-2.191V69.377h2.191Zm0-14.674h-2.191V64.242h2.191Zm7.648,4.866-.945-.054a1.64,1.64,0,0,0-1.144.414,2.649,2.649,0,0,0-.7,1.166V81h-2.191V69.377h2.009l.15,1.719a3.734,3.734,0,0,1,.988-1.423,2.08,2.08,0,0,1,1.386-.51,1.837,1.837,0,0,1,.381.038,2.1,2.1,0,0,1,.317.091Zm1.128,3.867a6.946,6.946,0,0,1,1.225-4.243,3.955,3.955,0,0,1,3.362-1.654,3.969,3.969,0,0,1,3.368,1.654,6.924,6.924,0,0,1,1.23,4.243v.29a6.893,6.893,0,0,1-1.225,4.238,3.958,3.958,0,0,1-3.352,1.638,3.99,3.99,0,0,1-3.384-1.638,6.893,6.893,0,0,1-1.225-4.238Zm2.191.29a6.747,6.747,0,0,0,.6,3.04,1.933,1.933,0,0,0,1.821,1.182,1.91,1.91,0,0,0,1.789-1.187,6.754,6.754,0,0,0,.6-3.035v-.29a6.716,6.716,0,0,0-.6-3.024,1.927,1.927,0,0,0-1.8-1.2,1.917,1.917,0,0,0-1.8,1.2,6.768,6.768,0,0,0-.6,3.024Zm11.054-5.973.129,1.729a3.927,3.927,0,0,1,1.246-1.434,2.971,2.971,0,0,1,1.708-.51A2.856,2.856,0,0,1-46.229,70.3a5.87,5.87,0,0,1,.865,3.545V81h-2.181V73.856A4.345,4.345,0,0,0-48,71.536a1.553,1.553,0,0,0-1.38-.677,2.127,2.127,0,0,0-1.289.392,2.745,2.745,0,0,0-.859,1.08V81h-2.191V69.377Zm10.85,0,.118,1.579a3.615,3.615,0,0,1,1.23-1.327,3.2,3.2,0,0,1,1.735-.467,2.714,2.714,0,0,1,1.676.532,3.18,3.18,0,0,1,1.063,1.617,3.969,3.969,0,0,1,1.23-1.579,2.956,2.956,0,0,1,1.81-.569,2.753,2.753,0,0,1,2.379,1.23,6.547,6.547,0,0,1,.865,3.744V81h-2.191V74.125a5.134,5.134,0,0,0-.451-2.541,1.48,1.48,0,0,0-1.343-.725,1.641,1.641,0,0,0-1.262.559,3.4,3.4,0,0,0-.747,1.472q.011.193.021.4t.011.424V81H-36.91V74.125a5.055,5.055,0,0,0-.462-2.508,1.481,1.481,0,0,0-1.343-.757,1.893,1.893,0,0,0-1.2.387,2.55,2.55,0,0,0-.773,1.063V81h-2.191V69.377Zm18.82,11.849a4.059,4.059,0,0,1-3.4-1.59,6.569,6.569,0,0,1-1.23-4.136V75A6.819,6.819,0,0,1-25.459,70.8a3.815,3.815,0,0,1,3.2-1.638,3.522,3.522,0,0,1,3.024,1.407A6.239,6.239,0,0,1-18.2,74.351v1.225H-24.5a5.739,5.739,0,0,0,.639,2.89,2.113,2.113,0,0,0,1.96,1.106,4.08,4.08,0,0,0,1.59-.285,4.065,4.065,0,0,0,1.246-.833l.709,1.354a4.633,4.633,0,0,1-1.531,1.01A5.439,5.439,0,0,1-22.054,81.226Zm-.2-10.388a1.709,1.709,0,0,0-1.5.875,5.216,5.216,0,0,0-.7,2.315h4.114v-.247a4.255,4.255,0,0,0-.467-2.127A1.552,1.552,0,0,0-22.258,70.838Zm8-1.461.129,1.729a3.927,3.927,0,0,1,1.246-1.434,2.971,2.971,0,0,1,1.708-.51A2.856,2.856,0,0,1-8.76,70.3,5.87,5.87,0,0,1-7.9,73.846V81h-2.181V73.856a4.345,4.345,0,0,0-.457-2.32,1.553,1.553,0,0,0-1.38-.677,2.127,2.127,0,0,0-1.289.392,2.745,2.745,0,0,0-.859,1.08V81h-2.191V69.377ZM-2.6,66.487v2.89H-.784v1.558H-2.6v6.918a2.269,2.269,0,0,0,.274,1.284.851.851,0,0,0,.725.381,1.751,1.751,0,0,0,.344-.032q.161-.032.376-.1l.226,1.5a3.424,3.424,0,0,1-.693.242,3.379,3.379,0,0,1-.79.091,2.441,2.441,0,0,1-1.955-.811,3.877,3.877,0,0,1-.7-2.562V70.935H-6.327V69.377h1.536v-2.89ZM7.229,81q-.14-.526-.22-.94a5.922,5.922,0,0,1-.1-.822,4.268,4.268,0,0,1-1.219,1.423,2.812,2.812,0,0,1-1.724.564,3.052,3.052,0,0,1-2.39-.924,3.632,3.632,0,0,1-.833-2.524A3.166,3.166,0,0,1,1.9,75.188a4.943,4.943,0,0,1,3.217-.945H6.9V73.051a2.608,2.608,0,0,0-.473-1.66,1.626,1.626,0,0,0-1.354-.6,1.619,1.619,0,0,0-1.262.516,1.892,1.892,0,0,0-.467,1.321l-2.084.011-.021-.064a2.954,2.954,0,0,1,1.053-2.385A4.137,4.137,0,0,1,5.21,69.162a3.915,3.915,0,0,1,2.8,1.015,3.792,3.792,0,0,1,1.074,2.9v5.393a9.546,9.546,0,0,0,.086,1.294A8.243,8.243,0,0,0,9.442,81ZM4.415,79.55A2.448,2.448,0,0,0,5.994,79a2.562,2.562,0,0,0,.9-1.337V75.6H5.081a2.005,2.005,0,0,0-1.579.639,2.237,2.237,0,0,0-.569,1.542,2,2,0,0,0,.387,1.289A1.323,1.323,0,0,0,4.415,79.55Zm9.5,1.45H11.72V64.242h2.191Zm13.535,0q-.14-.526-.22-.94a5.921,5.921,0,0,1-.1-.822A4.268,4.268,0,0,1,25.9,80.662a2.812,2.812,0,0,1-1.724.564,3.052,3.052,0,0,1-2.39-.924,3.632,3.632,0,0,1-.833-2.524,3.166,3.166,0,0,1,1.155-2.589,4.943,4.943,0,0,1,3.217-.945h1.783V73.051a2.608,2.608,0,0,0-.473-1.66,1.819,1.819,0,0,0-2.616-.081,1.892,1.892,0,0,0-.467,1.321l-2.084.011-.021-.064A2.954,2.954,0,0,1,22.5,70.193a4.137,4.137,0,0,1,2.922-1.031,3.915,3.915,0,0,1,2.8,1.015,3.792,3.792,0,0,1,1.074,2.9v5.393a9.546,9.546,0,0,0,.086,1.294A8.243,8.243,0,0,0,29.659,81Zm-2.814-1.45A2.448,2.448,0,0,0,26.211,79a2.562,2.562,0,0,0,.9-1.337V75.6H25.3a2.005,2.005,0,0,0-1.579.639,2.237,2.237,0,0,0-.569,1.542,2,2,0,0,0,.387,1.289A1.323,1.323,0,0,0,24.632,79.55Zm9.142-10.173.129,1.729a3.927,3.927,0,0,1,1.246-1.434,2.971,2.971,0,0,1,1.708-.51A2.856,2.856,0,0,1,39.268,70.3a5.87,5.87,0,0,1,.865,3.545V81H37.952V73.856a4.345,4.345,0,0,0-.457-2.32,1.553,1.553,0,0,0-1.38-.677,2.127,2.127,0,0,0-1.289.392,2.745,2.745,0,0,0-.859,1.08V81H31.775V69.377Zm8.443,5.951a8.59,8.59,0,0,1,1.021-4.479,3.188,3.188,0,0,1,2.868-1.687,2.958,2.958,0,0,1,1.482.371A3.365,3.365,0,0,1,48.716,70.6V64.242H50.9V81h-1.8l-.226-1.4a3.447,3.447,0,0,1-1.182,1.208,3.081,3.081,0,0,1-1.6.414,3.221,3.221,0,0,1-2.852-1.552,7.426,7.426,0,0,1-1.015-4.12Zm2.17.226a6.473,6.473,0,0,0,.548,2.906,1.8,1.8,0,0,0,1.708,1.08,1.994,1.994,0,0,0,1.241-.387,2.783,2.783,0,0,0,.833-1.1V72.428a3.077,3.077,0,0,0-.838-1.144,1.867,1.867,0,0,0-1.225-.424A1.81,1.81,0,0,0,44.94,72.1a8,8,0,0,0-.553,3.228ZM63.8,78.067a1.548,1.548,0,0,0-.451-1.133,6.038,6.038,0,0,0-1.729-1.026,8.671,8.671,0,0,1-2.686-1.472A2.611,2.611,0,0,1,58.04,72.4a2.935,2.935,0,0,1,1.08-2.288,4.109,4.109,0,0,1,2.809-.945,4.032,4.032,0,0,1,2.89,1.037,3.189,3.189,0,0,1,1.053,2.508l-.021.064H63.744a2.174,2.174,0,0,0-.489-1.423,1.625,1.625,0,0,0-1.327-.6,1.764,1.764,0,0,0-1.305.467,1.494,1.494,0,0,0-.467,1.09,1.373,1.373,0,0,0,.4,1.047,7.118,7.118,0,0,0,1.724.983,7.941,7.941,0,0,1,2.745,1.493,2.774,2.774,0,0,1,.918,2.127,2.9,2.9,0,0,1-1.112,2.358,4.466,4.466,0,0,1-2.917.908,4.23,4.23,0,0,1-3.078-1.09,3.267,3.267,0,0,1-1.069-2.551l.021-.064h2.03a2.123,2.123,0,0,0,.639,1.627,2.238,2.238,0,0,0,1.488.5,1.942,1.942,0,0,0,1.359-.446A1.467,1.467,0,0,0,63.8,78.067Zm3.738-3.008a6.946,6.946,0,0,1,1.225-4.243,4.249,4.249,0,0,1,6.73,0,6.924,6.924,0,0,1,1.23,4.243v.29A6.893,6.893,0,0,1,75.5,79.587a4.281,4.281,0,0,1-6.735,0,6.893,6.893,0,0,1-1.225-4.238Zm2.191.29a6.747,6.747,0,0,0,.6,3.04,1.933,1.933,0,0,0,1.821,1.182,1.91,1.91,0,0,0,1.789-1.187,6.754,6.754,0,0,0,.6-3.035v-.29a6.716,6.716,0,0,0-.6-3.024,1.954,1.954,0,0,0-3.6,0,6.768,6.768,0,0,0-.6,3.024Zm13.116,4.222a1.716,1.716,0,0,0,1.348-.623,2.479,2.479,0,0,0,.542-1.687H86.7l.021.064A3.591,3.591,0,0,1,85.615,80.1a4.086,4.086,0,0,1-6.091-.51A7.023,7.023,0,0,1,78.354,75.4V75a7.053,7.053,0,0,1,1.171-4.184,3.831,3.831,0,0,1,3.319-1.649,3.682,3.682,0,0,1,2.831,1.176,4.2,4.2,0,0,1,1.058,3.056l-.021.054H84.734a3.157,3.157,0,0,0-.521-1.885,1.611,1.611,0,0,0-1.37-.725,1.829,1.829,0,0,0-1.767,1.182A7.14,7.14,0,0,0,80.534,75V75.4a7.218,7.218,0,0,0,.537,3A1.827,1.827,0,0,0,82.844,79.571ZM91.094,81H88.9V69.377h2.191Zm0-14.674H88.9V64.242h2.191ZM99.795,81q-.14-.526-.22-.94a5.921,5.921,0,0,1-.1-.822,4.268,4.268,0,0,1-1.219,1.423,2.812,2.812,0,0,1-1.724.564,3.052,3.052,0,0,1-2.39-.924,3.632,3.632,0,0,1-.833-2.524,3.166,3.166,0,0,1,1.155-2.589,4.943,4.943,0,0,1,3.217-.945h1.783V73.051a2.608,2.608,0,0,0-.473-1.66,1.819,1.819,0,0,0-2.616-.081,1.892,1.892,0,0,0-.467,1.321l-2.084.011-.021-.064a2.954,2.954,0,0,1,1.053-2.385,4.137,4.137,0,0,1,2.922-1.031,3.915,3.915,0,0,1,2.8,1.015,3.792,3.792,0,0,1,1.074,2.9v5.393a9.546,9.546,0,0,0,.086,1.294A8.243,8.243,0,0,0,102.008,81ZM96.98,79.55A2.448,2.448,0,0,0,98.56,79a2.562,2.562,0,0,0,.9-1.337V75.6H97.646a2.005,2.005,0,0,0-1.579.639,2.237,2.237,0,0,0-.569,1.542,2,2,0,0,0,.387,1.289A1.323,1.323,0,0,0,96.98,79.55Zm9.5,1.45h-2.191V64.242h2.191Zm-217,17.192-.945-.054a1.64,1.64,0,0,0-1.144.414,2.649,2.649,0,0,0-.7,1.166V108h-2.191V96.377h2.009l.15,1.719a3.734,3.734,0,0,1,.988-1.423,2.08,2.08,0,0,1,1.386-.51,1.837,1.837,0,0,1,.381.038,2.1,2.1,0,0,1,.317.091Zm5.779,10.033a4.059,4.059,0,0,1-3.4-1.59,6.569,6.569,0,0,1-1.23-4.136V102a6.819,6.819,0,0,1,1.225-4.195,3.815,3.815,0,0,1,3.2-1.638,3.522,3.522,0,0,1,3.024,1.407,6.239,6.239,0,0,1,1.037,3.781v1.225h-6.306a5.739,5.739,0,0,0,.639,2.89,2.113,2.113,0,0,0,1.96,1.106,4.08,4.08,0,0,0,1.59-.285,4.065,4.065,0,0,0,1.246-.833l.709,1.354a4.633,4.633,0,0,1-1.531,1.01A5.439,5.439,0,0,1-104.742,108.226Zm-.2-10.388a1.709,1.709,0,0,0-1.5.875,5.216,5.216,0,0,0-.7,2.315h4.114v-.247a4.255,4.255,0,0,0-.467-2.127A1.552,1.552,0,0,0-104.946,97.838Zm11.537,7.229a1.548,1.548,0,0,0-.451-1.133,6.038,6.038,0,0,0-1.729-1.026,8.671,8.671,0,0,1-2.686-1.472,2.611,2.611,0,0,1-.892-2.041,2.935,2.935,0,0,1,1.08-2.288,4.109,4.109,0,0,1,2.809-.945,4.032,4.032,0,0,1,2.89,1.037,3.189,3.189,0,0,1,1.053,2.508l-.021.064h-2.105a2.174,2.174,0,0,0-.489-1.423,1.625,1.625,0,0,0-1.327-.6,1.764,1.764,0,0,0-1.305.467,1.494,1.494,0,0,0-.467,1.09,1.373,1.373,0,0,0,.4,1.047,7.118,7.118,0,0,0,1.724.983,7.941,7.941,0,0,1,2.745,1.493,2.774,2.774,0,0,1,.918,2.127,2.9,2.9,0,0,1-1.112,2.358,4.466,4.466,0,0,1-2.917.908,4.23,4.23,0,0,1-3.078-1.09,3.267,3.267,0,0,1-1.069-2.551l.021-.064h2.03a2.123,2.123,0,0,0,.639,1.627,2.238,2.238,0,0,0,1.488.5A1.942,1.942,0,0,0-93.9,106.2,1.467,1.467,0,0,0-93.409,105.067Zm12.9-2.514a7.36,7.36,0,0,1-1.026,4.125,3.25,3.25,0,0,1-2.863,1.547,3.288,3.288,0,0,1-1.52-.338,3.09,3.09,0,0,1-1.123-.994v5.575H-89.23V96.377h1.858l.2,1.4a3.421,3.421,0,0,1,1.16-1.2,3.045,3.045,0,0,1,1.6-.414,3.2,3.2,0,0,1,2.874,1.687,8.554,8.554,0,0,1,1.026,4.479Zm-2.191-.226a7.739,7.739,0,0,0-.575-3.223A1.843,1.843,0,0,0-85,97.859a1.918,1.918,0,0,0-1.235.4,2.794,2.794,0,0,0-.806,1.09v5.854a2.443,2.443,0,0,0,.806,1.01,2.115,2.115,0,0,0,1.246.354,1.835,1.835,0,0,0,1.719-1.1,6.366,6.366,0,0,0,.569-2.922Zm3.856-.269a6.946,6.946,0,0,1,1.225-4.243,3.955,3.955,0,0,1,3.362-1.654,3.969,3.969,0,0,1,3.368,1.654,6.924,6.924,0,0,1,1.23,4.243v.29a6.893,6.893,0,0,1-1.225,4.238,3.958,3.958,0,0,1-3.352,1.638,3.99,3.99,0,0,1-3.384-1.638,6.893,6.893,0,0,1-1.225-4.238Zm2.191.29a6.747,6.747,0,0,0,.6,3.04,1.933,1.933,0,0,0,1.821,1.182,1.91,1.91,0,0,0,1.789-1.187,6.754,6.754,0,0,0,.6-3.035v-.29a6.716,6.716,0,0,0-.6-3.024,1.927,1.927,0,0,0-1.8-1.2,1.917,1.917,0,0,0-1.8,1.2,6.768,6.768,0,0,0-.6,3.024ZM-65.6,96.377l.129,1.729a3.927,3.927,0,0,1,1.246-1.434,2.971,2.971,0,0,1,1.708-.51A2.856,2.856,0,0,1-60.1,97.3a5.87,5.87,0,0,1,.865,3.545V108h-2.181v-7.144a4.345,4.345,0,0,0-.457-2.32,1.553,1.553,0,0,0-1.38-.677,2.127,2.127,0,0,0-1.289.392,2.745,2.745,0,0,0-.859,1.08V108H-67.6V96.377Zm14.362,8.69a1.548,1.548,0,0,0-.451-1.133,6.038,6.038,0,0,0-1.729-1.026,8.671,8.671,0,0,1-2.686-1.472,2.611,2.611,0,0,1-.892-2.041,2.935,2.935,0,0,1,1.08-2.288,4.109,4.109,0,0,1,2.809-.945,4.032,4.032,0,0,1,2.89,1.037,3.189,3.189,0,0,1,1.053,2.508l-.021.064h-2.105a2.174,2.174,0,0,0-.489-1.423,1.625,1.625,0,0,0-1.327-.6,1.764,1.764,0,0,0-1.305.467,1.494,1.494,0,0,0-.467,1.09,1.373,1.373,0,0,0,.4,1.047,7.118,7.118,0,0,0,1.724.983A7.941,7.941,0,0,1-50,102.833a2.774,2.774,0,0,1,.918,2.127,2.9,2.9,0,0,1-1.112,2.358,4.466,4.466,0,0,1-2.917.908,4.23,4.23,0,0,1-3.078-1.09,3.267,3.267,0,0,1-1.069-2.551l.021-.064h2.03a2.123,2.123,0,0,0,.639,1.627,2.238,2.238,0,0,0,1.488.5,1.942,1.942,0,0,0,1.359-.446A1.467,1.467,0,0,0-51.235,105.067Zm6.51,2.933h-2.191V96.377h2.191Zm0-14.674h-2.191V91.242h2.191Zm11.4,9.228a7.421,7.421,0,0,1-1.015,4.125,3.243,3.243,0,0,1-2.874,1.547,3.131,3.131,0,0,1-1.649-.424,3.31,3.31,0,0,1-1.166-1.241L-40.267,108h-1.794V91.242h2.191v6.392a3.341,3.341,0,0,1,1.117-1.09,2.978,2.978,0,0,1,1.525-.381,3.2,3.2,0,0,1,2.884,1.681,8.621,8.621,0,0,1,1.015,4.485Zm-2.191-.226a8.187,8.187,0,0,0-.537-3.244,1.793,1.793,0,0,0-1.719-1.225,1.9,1.9,0,0,0-1.278.44,2.993,2.993,0,0,0-.816,1.192v5.5a2.6,2.6,0,0,0,.811,1.144,2.07,2.07,0,0,0,1.305.4,1.779,1.779,0,0,0,1.7-1.069,6.63,6.63,0,0,0,.532-2.917ZM-28.9,108h-2.191V96.377H-28.9Zm0-14.674h-2.191V91.242H-28.9Zm5,14.674H-26.1V91.242h2.191Zm5,0H-21.1V96.377h2.191Zm0-14.674H-21.1V91.242h2.191Zm5.468.161v2.89h1.815v1.558h-1.815v6.918a2.269,2.269,0,0,0,.274,1.284.851.851,0,0,0,.725.381,1.751,1.751,0,0,0,.344-.032q.161-.032.376-.1l.226,1.5a3.424,3.424,0,0,1-.693.242,3.379,3.379,0,0,1-.79.091,2.441,2.441,0,0,1-1.955-.811,3.877,3.877,0,0,1-.7-2.562V97.935h-1.536V96.377h1.536v-2.89Zm7.1,10.506.172.784h.064l2.277-8.4h2.4L-5.591,109.8A6.205,6.205,0,0,1-6.7,111.846a2.51,2.51,0,0,1-2.041.849,3.125,3.125,0,0,1-.58-.059q-.312-.059-.612-.134l.247-1.611q.107.021.317.043t.328.021a1.179,1.179,0,0,0,1.021-.542,4.373,4.373,0,0,0,.591-1.284l.4-1.2-3.663-11.548h2.385ZM6.88,96.377,7,97.956a3.615,3.615,0,0,1,1.23-1.327,3.2,3.2,0,0,1,1.735-.467,2.714,2.714,0,0,1,1.676.532A3.18,3.18,0,0,1,12.7,98.311a3.969,3.969,0,0,1,1.23-1.579,2.956,2.956,0,0,1,1.81-.569,2.753,2.753,0,0,1,2.379,1.23,6.547,6.547,0,0,1,.865,3.744V108H16.8v-6.875a5.134,5.134,0,0,0-.451-2.541A1.48,1.48,0,0,0,15,97.859a1.641,1.641,0,0,0-1.262.559,3.4,3.4,0,0,0-.747,1.472q.011.193.021.4t.011.424V108H10.844v-6.875a5.055,5.055,0,0,0-.462-2.508,1.481,1.481,0,0,0-1.343-.757,1.893,1.893,0,0,0-1.2.387,2.55,2.55,0,0,0-.773,1.063V108H4.872V96.377ZM27.538,108q-.14-.526-.22-.94a5.921,5.921,0,0,1-.1-.822A4.268,4.268,0,0,1,26,107.662a2.812,2.812,0,0,1-1.724.564,3.052,3.052,0,0,1-2.39-.924,3.632,3.632,0,0,1-.833-2.524,3.166,3.166,0,0,1,1.155-2.589,4.943,4.943,0,0,1,3.217-.945H27.2v-1.192a2.608,2.608,0,0,0-.473-1.66,1.819,1.819,0,0,0-2.616-.081,1.892,1.892,0,0,0-.467,1.321l-2.084.011-.021-.064A2.954,2.954,0,0,1,22.6,97.193a4.137,4.137,0,0,1,2.922-1.031,3.915,3.915,0,0,1,2.8,1.015,3.792,3.792,0,0,1,1.074,2.9v5.393a9.546,9.546,0,0,0,.086,1.294A8.243,8.243,0,0,0,29.75,108Zm-2.814-1.45A2.448,2.448,0,0,0,26.3,106a2.562,2.562,0,0,0,.9-1.337V102.6H25.389a2.005,2.005,0,0,0-1.579.639,2.237,2.237,0,0,0-.569,1.542,2,2,0,0,0,.387,1.289A1.323,1.323,0,0,0,24.723,106.55Zm9.142-10.173.129,1.729a3.927,3.927,0,0,1,1.246-1.434,2.971,2.971,0,0,1,1.708-.51A2.856,2.856,0,0,1,39.359,97.3a5.87,5.87,0,0,1,.865,3.545V108H38.043v-7.144a4.345,4.345,0,0,0-.457-2.32,1.553,1.553,0,0,0-1.38-.677,2.127,2.127,0,0,0-1.289.392,2.745,2.745,0,0,0-.859,1.08V108H31.867V96.377ZM48.753,108q-.14-.526-.22-.94a5.922,5.922,0,0,1-.1-.822,4.268,4.268,0,0,1-1.219,1.423,2.812,2.812,0,0,1-1.724.564,3.052,3.052,0,0,1-2.39-.924,3.632,3.632,0,0,1-.833-2.524,3.166,3.166,0,0,1,1.155-2.589,4.943,4.943,0,0,1,3.217-.945H48.42v-1.192a2.608,2.608,0,0,0-.473-1.66,1.819,1.819,0,0,0-2.616-.081,1.892,1.892,0,0,0-.467,1.321l-2.084.011-.021-.064a2.954,2.954,0,0,1,1.053-2.385,4.137,4.137,0,0,1,2.922-1.031,3.915,3.915,0,0,1,2.8,1.015,3.792,3.792,0,0,1,1.074,2.9v5.393a9.546,9.546,0,0,0,.086,1.294A8.243,8.243,0,0,0,50.966,108Zm-2.814-1.45A2.448,2.448,0,0,0,47.518,106a2.562,2.562,0,0,0,.9-1.337V102.6H46.6a2.006,2.006,0,0,0-1.579.639,2.237,2.237,0,0,0-.569,1.542,2,2,0,0,0,.387,1.289A1.323,1.323,0,0,0,45.939,106.55Zm6.8-4.222a8.59,8.59,0,0,1,1.021-4.479,3.2,3.2,0,0,1,2.879-1.687,2.936,2.936,0,0,1,1.6.435A3.545,3.545,0,0,1,59.4,97.838l.2-1.461h1.826v11.645a4.733,4.733,0,0,1-1.192,3.454,4.488,4.488,0,0,1-3.362,1.219,6.145,6.145,0,0,1-1.584-.226,6.364,6.364,0,0,1-1.52-.612l.354-1.633a5.576,5.576,0,0,0,1.284.521,5.494,5.494,0,0,0,1.445.188,2.172,2.172,0,0,0,1.8-.725,3.477,3.477,0,0,0,.58-2.2v-1.149a3.19,3.19,0,0,1-1.123,1.021,3.158,3.158,0,0,1-1.5.344,3.234,3.234,0,0,1-2.857-1.552,7.4,7.4,0,0,1-1.021-4.12Zm2.191.226a6.579,6.579,0,0,0,.537,2.911,1.788,1.788,0,0,0,1.708,1.074,2.034,2.034,0,0,0,1.241-.376,2.635,2.635,0,0,0,.822-1.063V99.385a2.879,2.879,0,0,0-.822-1.117,1.907,1.907,0,0,0-1.23-.408A1.8,1.8,0,0,0,55.478,99.1a8.066,8.066,0,0,0-.548,3.228Zm13.2,5.672a4.059,4.059,0,0,1-3.4-1.59A6.569,6.569,0,0,1,63.5,102.5V102A6.819,6.819,0,0,1,64.727,97.8a3.815,3.815,0,0,1,3.2-1.638,3.522,3.522,0,0,1,3.024,1.407,6.239,6.239,0,0,1,1.037,3.781v1.225H65.683a5.739,5.739,0,0,0,.639,2.89,2.113,2.113,0,0,0,1.96,1.106,3.807,3.807,0,0,0,2.836-1.117l.709,1.354a4.633,4.633,0,0,1-1.531,1.01A5.439,5.439,0,0,1,68.132,108.226Zm-.2-10.388a1.709,1.709,0,0,0-1.5.875,5.216,5.216,0,0,0-.7,2.315H69.84v-.247a4.255,4.255,0,0,0-.467-2.127A1.552,1.552,0,0,0,67.928,97.838Zm8.024-1.461.118,1.579a3.615,3.615,0,0,1,1.23-1.327,3.2,3.2,0,0,1,1.735-.467,2.714,2.714,0,0,1,1.676.532,3.18,3.18,0,0,1,1.063,1.617A3.969,3.969,0,0,1,83,96.731a2.956,2.956,0,0,1,1.81-.569,2.753,2.753,0,0,1,2.379,1.23,6.547,6.547,0,0,1,.865,3.744V108H85.868v-6.875a5.134,5.134,0,0,0-.451-2.541,1.48,1.48,0,0,0-1.343-.725,1.641,1.641,0,0,0-1.262.559,3.4,3.4,0,0,0-.747,1.472q.011.193.021.4t.011.424V108H79.917v-6.875a5.055,5.055,0,0,0-.462-2.508,1.481,1.481,0,0,0-1.343-.757,1.893,1.893,0,0,0-1.2.387,2.55,2.55,0,0,0-.773,1.063V108H73.944V96.377Zm18.82,11.849a4.059,4.059,0,0,1-3.4-1.59,6.569,6.569,0,0,1-1.23-4.136V102A6.819,6.819,0,0,1,91.368,97.8a3.815,3.815,0,0,1,3.2-1.638,3.522,3.522,0,0,1,3.024,1.407,6.239,6.239,0,0,1,1.037,3.781v1.225H92.324a5.739,5.739,0,0,0,.639,2.89,2.113,2.113,0,0,0,1.96,1.106,3.807,3.807,0,0,0,2.836-1.117l.709,1.354a4.633,4.633,0,0,1-1.531,1.01A5.439,5.439,0,0,1,94.773,108.226Zm-.2-10.388a1.709,1.709,0,0,0-1.5.875,5.216,5.216,0,0,0-.7,2.315h4.114v-.247a4.255,4.255,0,0,0-.467-2.127A1.552,1.552,0,0,0,94.569,97.838Zm8-1.461.129,1.729a3.927,3.927,0,0,1,1.246-1.434,2.971,2.971,0,0,1,1.708-.51,2.856,2.856,0,0,1,2.412,1.139,5.87,5.87,0,0,1,.865,3.545V108H106.75v-7.144a4.345,4.345,0,0,0-.457-2.32,1.553,1.553,0,0,0-1.38-.677,2.127,2.127,0,0,0-1.289.392,2.745,2.745,0,0,0-.859,1.08V108h-2.191V96.377Zm11.655-2.89v2.89h1.815v1.558h-1.815v6.918a2.269,2.269,0,0,0,.274,1.284.851.851,0,0,0,.725.381,1.751,1.751,0,0,0,.344-.032q.161-.032.376-.1l.226,1.5a3.424,3.424,0,0,1-.693.242,3.379,3.379,0,0,1-.79.091,2.441,2.441,0,0,1-1.955-.811,3.877,3.877,0,0,1-.7-2.562V97.935H110.5V96.377h1.536v-2.89ZM-31.92,132.067a1.548,1.548,0,0,0-.451-1.133,6.038,6.038,0,0,0-1.729-1.026,8.671,8.671,0,0,1-2.686-1.472,2.611,2.611,0,0,1-.892-2.041,2.935,2.935,0,0,1,1.08-2.288,4.109,4.109,0,0,1,2.809-.945A4.032,4.032,0,0,1-30.9,124.2a3.189,3.189,0,0,1,1.053,2.508l-.021.064h-2.105a2.174,2.174,0,0,0-.489-1.423,1.625,1.625,0,0,0-1.327-.6,1.764,1.764,0,0,0-1.305.467,1.494,1.494,0,0,0-.467,1.09,1.373,1.373,0,0,0,.4,1.047,7.118,7.118,0,0,0,1.724.983,7.941,7.941,0,0,1,2.745,1.493,2.774,2.774,0,0,1,.918,2.127,2.9,2.9,0,0,1-1.112,2.358,4.466,4.466,0,0,1-2.917.908,4.23,4.23,0,0,1-3.078-1.09,3.267,3.267,0,0,1-1.069-2.551l.021-.064h2.03a2.123,2.123,0,0,0,.639,1.627,2.238,2.238,0,0,0,1.488.5,1.942,1.942,0,0,0,1.359-.446A1.467,1.467,0,0,0-31.92,132.067Zm7.487-1.074.172.784h.064l2.277-8.4h2.4L-23.681,136.8a6.205,6.205,0,0,1-1.106,2.041,2.51,2.51,0,0,1-2.041.849,3.125,3.125,0,0,1-.58-.059q-.312-.059-.612-.134l.247-1.611q.107.021.317.043t.328.021a1.179,1.179,0,0,0,1.021-.542,4.373,4.373,0,0,0,.591-1.284l.4-1.2-3.663-11.548H-26.4Zm11.9,1.074a1.548,1.548,0,0,0-.451-1.133,6.038,6.038,0,0,0-1.729-1.026,8.671,8.671,0,0,1-2.686-1.472,2.611,2.611,0,0,1-.892-2.041,2.935,2.935,0,0,1,1.08-2.288,4.109,4.109,0,0,1,2.809-.945,4.032,4.032,0,0,1,2.89,1.037,3.189,3.189,0,0,1,1.053,2.508l-.021.064h-2.105a2.174,2.174,0,0,0-.489-1.423,1.625,1.625,0,0,0-1.327-.6,1.764,1.764,0,0,0-1.305.467,1.494,1.494,0,0,0-.467,1.09,1.373,1.373,0,0,0,.4,1.047,7.118,7.118,0,0,0,1.724.983,7.941,7.941,0,0,1,2.745,1.493,2.774,2.774,0,0,1,.918,2.127,2.9,2.9,0,0,1-1.112,2.358,4.466,4.466,0,0,1-2.917.908,4.23,4.23,0,0,1-3.078-1.09,3.267,3.267,0,0,1-1.069-2.551l.021-.064h2.03a2.123,2.123,0,0,0,.639,1.627,2.238,2.238,0,0,0,1.488.5,1.942,1.942,0,0,0,1.359-.446A1.467,1.467,0,0,0-12.531,132.067Zm6.982-11.58v2.89h1.815v1.558H-5.548v6.918a2.269,2.269,0,0,0,.274,1.284.851.851,0,0,0,.725.381,1.751,1.751,0,0,0,.344-.032q.161-.032.376-.1l.226,1.5a3.423,3.423,0,0,1-.693.242,3.379,3.379,0,0,1-.79.091,2.441,2.441,0,0,1-1.955-.811,3.877,3.877,0,0,1-.7-2.562v-6.918H-9.276v-1.558H-7.74v-2.89Zm7.992,14.738a4.059,4.059,0,0,1-3.4-1.59,6.569,6.569,0,0,1-1.23-4.136V129A6.819,6.819,0,0,1-.961,124.8a3.815,3.815,0,0,1,3.2-1.638,3.522,3.522,0,0,1,3.024,1.407A6.239,6.239,0,0,1,6.3,128.351v1.225H-.005a5.739,5.739,0,0,0,.639,2.89,2.113,2.113,0,0,0,1.96,1.106,4.08,4.08,0,0,0,1.59-.285,4.065,4.065,0,0,0,1.246-.833l.709,1.354a4.633,4.633,0,0,1-1.531,1.01A5.439,5.439,0,0,1,2.444,135.226Zm-.2-10.388a1.709,1.709,0,0,0-1.5.875,5.216,5.216,0,0,0-.7,2.315H4.152v-.247a4.255,4.255,0,0,0-.467-2.127A1.552,1.552,0,0,0,2.24,124.838Zm8.024-1.461.118,1.579a3.615,3.615,0,0,1,1.23-1.327,3.2,3.2,0,0,1,1.735-.467,2.714,2.714,0,0,1,1.676.532,3.18,3.18,0,0,1,1.063,1.617,3.969,3.969,0,0,1,1.23-1.579,2.956,2.956,0,0,1,1.81-.569,2.753,2.753,0,0,1,2.379,1.23,6.547,6.547,0,0,1,.865,3.744V135H20.179v-6.875a5.134,5.134,0,0,0-.451-2.541,1.48,1.48,0,0,0-1.343-.725,1.641,1.641,0,0,0-1.262.559,3.4,3.4,0,0,0-.747,1.472q.011.193.021.4t.011.424V135H14.228v-6.875a5.055,5.055,0,0,0-.462-2.508,1.481,1.481,0,0,0-1.343-.757,1.893,1.893,0,0,0-1.2.387,2.55,2.55,0,0,0-.773,1.063V135H8.255V123.377Zm20.131,8.69a1.548,1.548,0,0,0-.451-1.133,6.038,6.038,0,0,0-1.729-1.026,8.671,8.671,0,0,1-2.686-1.472,2.611,2.611,0,0,1-.892-2.041,2.935,2.935,0,0,1,1.08-2.288,4.109,4.109,0,0,1,2.809-.945,4.032,4.032,0,0,1,2.89,1.037,3.189,3.189,0,0,1,1.053,2.508l-.021.064H30.341a2.174,2.174,0,0,0-.489-1.423,1.625,1.625,0,0,0-1.327-.6,1.764,1.764,0,0,0-1.305.467,1.494,1.494,0,0,0-.467,1.09,1.373,1.373,0,0,0,.4,1.047,7.118,7.118,0,0,0,1.724.983,7.941,7.941,0,0,1,2.745,1.493,2.774,2.774,0,0,1,.918,2.127,2.9,2.9,0,0,1-1.112,2.358,4.466,4.466,0,0,1-2.917.908,4.23,4.23,0,0,1-3.078-1.09,3.267,3.267,0,0,1-1.069-2.551l.021-.064h2.03a2.123,2.123,0,0,0,.639,1.627,2.238,2.238,0,0,0,1.488.5,1.942,1.942,0,0,0,1.359-.446A1.467,1.467,0,0,0,30.4,132.067ZM37,135H34.8v-2.181H37Z" transform="translate(149 160)" fill="#fff"/>
  </g>
</svg>
