<svg xmlns="http://www.w3.org/2000/svg" xmlns:xlink="http://www.w3.org/1999/xlink" width="307" height="321" viewBox="0 0 307 321">
  <defs>
    <clipPath id="clip-_4-path">
      <rect width="307" height="321"/>
    </clipPath>
  </defs>
  <g id="_4-path" data-name="4-path" clip-path="url(#clip-_4-path)">
    <rect id="Rectángulo_2986" data-name="Rectángulo 2986" width="307" height="321" rx="45" fill="#a456b4" opacity="0.8"/>
    <text id="_4" data-name="4" transform="translate(154 107)" fill="#fff" font-size="50" font-family="Roboto-BoldCondensed, Roboto" font-weight="700"><tspan x="-13.123" y="0">4</tspan></text>
    <path id="Trazado_7204" data-name="Trazado 7204" d="M-105.381-4.522h.064l2.03-11.118H-101L-104.21,0h-2.009l-2.729-11.1h-.064L-111.751,0h-2.009l-3.212-15.641h2.3l2.041,11.1h.064l2.632-11.1h1.9ZM-97.045,0h-2.191V-11.623h2.191Zm0-14.674h-2.191v-2.084h2.191Zm5.468.161v2.89h1.815v1.558h-1.815v6.918A2.269,2.269,0,0,0-91.3-1.864a.851.851,0,0,0,.725.381,1.751,1.751,0,0,0,.344-.032q.161-.032.376-.1l.226,1.5a3.424,3.424,0,0,1-.693.242,3.379,3.379,0,0,1-.79.091A2.441,2.441,0,0,1-93.07-.585a3.877,3.877,0,0,1-.7-2.562v-6.918H-95.3v-1.558h1.536v-2.89Zm5.951,4.447a3.852,3.852,0,0,1,1.214-1.305,2.9,2.9,0,0,1,1.611-.467,2.942,2.942,0,0,1,2.471,1.16,5.835,5.835,0,0,1,.892,3.566V0H-81.63V-7.133a4.348,4.348,0,0,0-.462-2.3,1.527,1.527,0,0,0-1.364-.7,2.263,2.263,0,0,0-1.294.365,2.64,2.64,0,0,0-.875,1.021V0h-2.191V-16.758h2.191Zm16.307-4.447v2.89H-67.5v1.558h-1.815v6.918a2.269,2.269,0,0,0,.274,1.284.851.851,0,0,0,.725.381,1.751,1.751,0,0,0,.344-.032q.161-.032.376-.1l.226,1.5a3.424,3.424,0,0,1-.693.242,3.379,3.379,0,0,1-.79.091,2.441,2.441,0,0,1-1.955-.811,3.877,3.877,0,0,1-.7-2.562v-6.918h-1.536v-1.558h1.536v-2.89Zm5.951,4.447a3.852,3.852,0,0,1,1.214-1.305,2.9,2.9,0,0,1,1.611-.467,2.942,2.942,0,0,1,2.471,1.16,5.835,5.835,0,0,1,.892,3.566V0h-2.191V-7.133a4.348,4.348,0,0,0-.462-2.3,1.527,1.527,0,0,0-1.364-.7,2.263,2.263,0,0,0-1.294.365,2.64,2.64,0,0,0-.875,1.021V0H-65.56V-16.758h2.191ZM-50.5.226a4.059,4.059,0,0,1-3.4-1.59A6.569,6.569,0,0,1-55.129-5.5V-6A6.819,6.819,0,0,1-53.9-10.2a3.815,3.815,0,0,1,3.2-1.638,3.522,3.522,0,0,1,3.024,1.407,6.239,6.239,0,0,1,1.037,3.781v1.225h-6.306a5.739,5.739,0,0,0,.639,2.89,2.113,2.113,0,0,0,1.96,1.106,4.08,4.08,0,0,0,1.59-.285,4.065,4.065,0,0,0,1.246-.833l.709,1.354a4.633,4.633,0,0,1-1.531,1.01A5.439,5.439,0,0,1-50.5.226Zm-.2-10.388a1.709,1.709,0,0,0-1.5.875,5.216,5.216,0,0,0-.7,2.315h4.114v-.247a4.255,4.255,0,0,0-.467-2.127A1.552,1.552,0,0,0-50.7-10.162Zm10.957,4.243A6.893,6.893,0,0,1-39.08-9,4.876,4.876,0,0,1-37.163-11.1a5.594,5.594,0,0,1,2.906-.741,5.293,5.293,0,0,1,3.84,1.439,5.777,5.777,0,0,1,1.66,3.91l.021.795A6.075,6.075,0,0,1-30.229-1.4,5.19,5.19,0,0,1-34.235.215,5.216,5.216,0,0,1-38.248-1.4a6.182,6.182,0,0,1-1.5-4.383Zm3.1.22a4.345,4.345,0,0,0,.623,2.534,2.055,2.055,0,0,0,1.783.877,2.06,2.06,0,0,0,1.762-.866,4.754,4.754,0,0,0,.634-2.77,4.3,4.3,0,0,0-.634-2.518,2.06,2.06,0,0,0-1.783-.893,2.027,2.027,0,0,0-1.762.888A4.834,4.834,0,0,0-36.642-5.7ZM-16.35-5.7a7.038,7.038,0,0,1-1.192,4.356A3.95,3.95,0,0,1-20.872.215a3.629,3.629,0,0,1-3.019-1.45L-24.03,0h-2.793V-16.5h3.1v5.919a3.536,3.536,0,0,1,2.825-1.257,3.982,3.982,0,0,1,3.335,1.563,7.048,7.048,0,0,1,1.208,4.4Zm-3.1-.226A4.624,4.624,0,0,0-20.013-8.5a1.889,1.889,0,0,0-1.665-.811A2.048,2.048,0,0,0-23.719-8.1v4.587a2.076,2.076,0,0,0,2.063,1.225A1.917,1.917,0,0,0-19.68-3.771,7.647,7.647,0,0,0-19.454-5.93Zm8.3-5.693V.634a4.158,4.158,0,0,1-1.021,2.992,3.879,3.879,0,0,1-2.943,1.069,6.312,6.312,0,0,1-1.536-.183V2.052a5.827,5.827,0,0,0,.978.1q1.407,0,1.407-1.493V-11.623Zm-3.362-3.008a1.529,1.529,0,0,1,.467-1.149,1.755,1.755,0,0,1,1.273-.451,1.755,1.755,0,0,1,1.273.451,1.529,1.529,0,0,1,.467,1.149,1.524,1.524,0,0,1-.478,1.16,1.764,1.764,0,0,1-1.262.451,1.764,1.764,0,0,1-1.262-.451A1.524,1.524,0,0,1-14.513-14.631ZM-3.373.215A5.706,5.706,0,0,1-7.536-1.354,5.575,5.575,0,0,1-9.142-5.532v-.3a7.021,7.021,0,0,1,.677-3.131,4.967,4.967,0,0,1,1.917-2.127,5.382,5.382,0,0,1,2.831-.747,4.824,4.824,0,0,1,3.754,1.5,6.111,6.111,0,0,1,1.37,4.265V-4.8h-7.4a2.884,2.884,0,0,0,.908,1.826,2.744,2.744,0,0,0,1.917.688,3.351,3.351,0,0,0,2.8-1.3L1.16-1.88A4.66,4.66,0,0,1-.73-.338,6.2,6.2,0,0,1-3.373.215Zm-.354-9.55a1.94,1.94,0,0,0-1.5.626,3.241,3.241,0,0,0-.736,1.791h4.318v-.248a2.311,2.311,0,0,0-.559-1.6A2,2,0,0,0-3.728-9.335ZM8-2.288a2.036,2.036,0,0,0,1.4-.473,1.656,1.656,0,0,0,.559-1.257h2.911a3.982,3.982,0,0,1-.645,2.165A4.253,4.253,0,0,1,10.49-.328,5.43,5.43,0,0,1,8.057.215,5.046,5.046,0,0,1,4.125-1.37,6.27,6.27,0,0,1,2.686-5.747v-.2a6.2,6.2,0,0,1,1.429-4.286,4.987,4.987,0,0,1,3.921-1.6,4.889,4.889,0,0,1,3.5,1.241,4.393,4.393,0,0,1,1.337,3.3H9.958A2.133,2.133,0,0,0,9.4-8.768a1.862,1.862,0,0,0-1.418-.567,1.87,1.87,0,0,0-1.638.791A4.583,4.583,0,0,0,5.79-5.978v.323a4.641,4.641,0,0,0,.548,2.582A1.893,1.893,0,0,0,8-2.288ZM18.358-14.48v2.857h1.987v2.277H18.358v5.8a1.385,1.385,0,0,0,.247.924,1.241,1.241,0,0,0,.945.279,4.951,4.951,0,0,0,.913-.075V-.064a6.391,6.391,0,0,1-1.88.279q-3.266,0-3.33-3.3V-9.346h-1.7v-2.277h1.7V-14.48ZM25.352,0H22.236V-11.623h3.115Zm-3.3-14.631a1.529,1.529,0,0,1,.467-1.149,1.755,1.755,0,0,1,1.273-.451,1.759,1.759,0,0,1,1.268.451,1.52,1.52,0,0,1,.473,1.149,1.524,1.524,0,0,1-.478,1.16,1.764,1.764,0,0,1-1.262.451,1.764,1.764,0,0,1-1.262-.451A1.524,1.524,0,0,1,22.054-14.631ZM32.259-3.792l2.159-7.831h3.244L33.741,0H30.776L26.855-11.623H30.1ZM44.236.215a5.706,5.706,0,0,1-4.163-1.568,5.575,5.575,0,0,1-1.606-4.179v-.3a7.021,7.021,0,0,1,.677-3.131,4.967,4.967,0,0,1,1.917-2.127,5.382,5.382,0,0,1,2.831-.747,4.824,4.824,0,0,1,3.754,1.5,6.111,6.111,0,0,1,1.37,4.265V-4.8h-7.4a2.884,2.884,0,0,0,.908,1.826,2.744,2.744,0,0,0,1.917.688,3.351,3.351,0,0,0,2.8-1.3L48.77-1.88A4.66,4.66,0,0,1,46.879-.338,6.2,6.2,0,0,1,44.236.215Zm-.354-9.55a1.94,1.94,0,0,0-1.5.626,3.241,3.241,0,0,0-.736,1.791h4.318v-.248a2.311,2.311,0,0,0-.559-1.6A2,2,0,0,0,43.882-9.335Zm14.6-5.178v2.89H60.3v1.558H58.48v6.918a2.269,2.269,0,0,0,.274,1.284.851.851,0,0,0,.725.381,1.751,1.751,0,0,0,.344-.032q.161-.032.376-.1l.226,1.5a3.424,3.424,0,0,1-.693.242,3.379,3.379,0,0,1-.79.091,2.441,2.441,0,0,1-1.955-.811,3.877,3.877,0,0,1-.7-2.562v-6.918H54.753v-1.558h1.536v-2.89ZM61.832-5.94a6.946,6.946,0,0,1,1.225-4.243,3.955,3.955,0,0,1,3.362-1.654,3.969,3.969,0,0,1,3.368,1.654,6.924,6.924,0,0,1,1.23,4.243v.29a6.893,6.893,0,0,1-1.225,4.238A3.958,3.958,0,0,1,66.44.226a3.99,3.99,0,0,1-3.384-1.638A6.893,6.893,0,0,1,61.832-5.65Zm2.191.29a6.747,6.747,0,0,0,.6,3.04A1.933,1.933,0,0,0,66.44-1.429a1.91,1.91,0,0,0,1.789-1.187,6.754,6.754,0,0,0,.6-3.035v-.29a6.716,6.716,0,0,0-.6-3.024,1.927,1.927,0,0,0-1.8-1.2,1.917,1.917,0,0,0-1.8,1.2,6.768,6.768,0,0,0-.6,3.024Zm16.07-4.415a3.852,3.852,0,0,1,1.214-1.305,2.9,2.9,0,0,1,1.611-.467,2.942,2.942,0,0,1,2.471,1.16,5.835,5.835,0,0,1,.892,3.566V0H84.09V-7.133a4.348,4.348,0,0,0-.462-2.3,1.527,1.527,0,0,0-1.364-.7,2.263,2.263,0,0,0-1.294.365,2.64,2.64,0,0,0-.875,1.021V0H77.9V-16.758h2.191ZM94.8,0q-.14-.526-.22-.94a5.921,5.921,0,0,1-.1-.822A4.268,4.268,0,0,1,93.258-.338a2.812,2.812,0,0,1-1.724.564A3.052,3.052,0,0,1,89.144-.7a3.632,3.632,0,0,1-.833-2.524,3.166,3.166,0,0,1,1.155-2.589,4.943,4.943,0,0,1,3.217-.945h1.783V-7.949a2.608,2.608,0,0,0-.473-1.66,1.626,1.626,0,0,0-1.354-.6,1.619,1.619,0,0,0-1.262.516,1.892,1.892,0,0,0-.467,1.321l-2.084.011-.021-.064a2.954,2.954,0,0,1,1.053-2.385,4.137,4.137,0,0,1,2.922-1.031,3.915,3.915,0,0,1,2.8,1.015,3.792,3.792,0,0,1,1.074,2.9v5.393a9.546,9.546,0,0,0,.086,1.294A8.243,8.243,0,0,0,97.013,0ZM91.985-1.45A2.448,2.448,0,0,0,93.564-2a2.562,2.562,0,0,0,.9-1.337V-5.4H92.651a2.005,2.005,0,0,0-1.579.639A2.237,2.237,0,0,0,90.5-3.223a2,2,0,0,0,.387,1.289A1.323,1.323,0,0,0,91.985-1.45Zm10.42-2.041.183.913h.064l.193-.913,2.03-8.132h2.256L103.587,0h-1.944L98.076-11.623h2.277ZM112.75.226a4.059,4.059,0,0,1-3.4-1.59A6.569,6.569,0,0,1,108.12-5.5V-6a6.819,6.819,0,0,1,1.225-4.195,3.815,3.815,0,0,1,3.2-1.638,3.522,3.522,0,0,1,3.024,1.407,6.239,6.239,0,0,1,1.037,3.781v1.225H110.3a5.739,5.739,0,0,0,.639,2.89,2.113,2.113,0,0,0,1.96,1.106,4.08,4.08,0,0,0,1.59-.285,4.065,4.065,0,0,0,1.246-.833l.709,1.354a4.633,4.633,0,0,1-1.531,1.01A5.439,5.439,0,0,1,112.75.226Zm-.2-10.388a1.709,1.709,0,0,0-1.5.875,5.216,5.216,0,0,0-.7,2.315h4.114v-.247a4.255,4.255,0,0,0-.467-2.127A1.552,1.552,0,0,0,112.546-10.162ZM-103.92,11.487v2.89h1.815v1.558h-1.815v6.918a2.269,2.269,0,0,0,.274,1.284.851.851,0,0,0,.725.381,1.751,1.751,0,0,0,.344-.032q.161-.032.376-.1l.226,1.5a3.424,3.424,0,0,1-.693.242,3.379,3.379,0,0,1-.79.091,2.441,2.441,0,0,1-1.955-.811,3.877,3.877,0,0,1-.7-2.562V15.935h-1.536V14.377h1.536v-2.89Zm5.951,4.447a3.852,3.852,0,0,1,1.214-1.305,2.9,2.9,0,0,1,1.611-.467,2.942,2.942,0,0,1,2.471,1.16,5.835,5.835,0,0,1,.892,3.566V26h-2.191V18.867a4.348,4.348,0,0,0-.462-2.3,1.527,1.527,0,0,0-1.364-.7,2.263,2.263,0,0,0-1.294.365,2.64,2.64,0,0,0-.875,1.021V26h-2.191V9.242h2.191ZM-85.1,26.226a4.059,4.059,0,0,1-3.4-1.59,6.569,6.569,0,0,1-1.23-4.136V20A6.819,6.819,0,0,1-88.5,15.8a3.815,3.815,0,0,1,3.2-1.638,3.522,3.522,0,0,1,3.024,1.407,6.239,6.239,0,0,1,1.037,3.781v1.225h-6.306a5.739,5.739,0,0,0,.639,2.89,2.113,2.113,0,0,0,1.96,1.106,4.08,4.08,0,0,0,1.59-.285,4.065,4.065,0,0,0,1.246-.833l.709,1.354a4.633,4.633,0,0,1-1.531,1.01A5.439,5.439,0,0,1-85.1,26.226Zm-.2-10.388a1.709,1.709,0,0,0-1.5.875,5.216,5.216,0,0,0-.7,2.315h4.114v-.247a4.255,4.255,0,0,0-.467-2.127A1.552,1.552,0,0,0-85.3,15.838Zm13.664-4.351v2.89h1.815v1.558H-71.64v6.918a2.269,2.269,0,0,0,.274,1.284.851.851,0,0,0,.725.381,1.751,1.751,0,0,0,.344-.032q.161-.032.376-.1l.226,1.5a3.424,3.424,0,0,1-.693.242,3.379,3.379,0,0,1-.79.091,2.441,2.441,0,0,1-1.955-.811,3.877,3.877,0,0,1-.7-2.562V15.935h-1.536V14.377h1.536v-2.89Zm8.776,4.705-.945-.054a1.64,1.64,0,0,0-1.144.414,2.649,2.649,0,0,0-.7,1.166V26h-2.191V14.377h2.009l.15,1.719a3.734,3.734,0,0,1,.988-1.423,2.08,2.08,0,0,1,1.386-.51,1.836,1.836,0,0,1,.381.038,2.1,2.1,0,0,1,.317.091Zm8.035,8.11a3.741,3.741,0,0,1-1.2,1.423,2.934,2.934,0,0,1-1.7.5,2.926,2.926,0,0,1-2.5-1.235,6.54,6.54,0,0,1-.9-3.835V14.377h2.191v6.8a5.657,5.657,0,0,0,.43,2.616,1.413,1.413,0,0,0,1.311.747,2.413,2.413,0,0,0,1.37-.376,2.523,2.523,0,0,0,.886-1.074V14.377h2.191V26h-1.858Zm10.087-1.235a1.548,1.548,0,0,0-.451-1.133,6.038,6.038,0,0,0-1.729-1.026,8.671,8.671,0,0,1-2.686-1.472A2.611,2.611,0,0,1-50.5,17.4a2.935,2.935,0,0,1,1.08-2.288,4.109,4.109,0,0,1,2.809-.945,4.032,4.032,0,0,1,2.89,1.037,3.189,3.189,0,0,1,1.053,2.508l-.021.064h-2.105a2.174,2.174,0,0,0-.489-1.423,1.625,1.625,0,0,0-1.327-.6,1.764,1.764,0,0,0-1.305.467,1.494,1.494,0,0,0-.467,1.09,1.373,1.373,0,0,0,.4,1.047,7.118,7.118,0,0,0,1.724.983,7.941,7.941,0,0,1,2.745,1.493,2.774,2.774,0,0,1,.918,2.127A2.9,2.9,0,0,1-43.7,25.318a4.466,4.466,0,0,1-2.917.908,4.23,4.23,0,0,1-3.078-1.09,3.267,3.267,0,0,1-1.069-2.551l.021-.064h2.03a2.123,2.123,0,0,0,.639,1.627,2.238,2.238,0,0,0,1.488.5A1.942,1.942,0,0,0-45.23,24.2,1.467,1.467,0,0,0-44.741,23.067Zm6.982-11.58v2.89h1.815v1.558h-1.815v6.918a2.269,2.269,0,0,0,.274,1.284.851.851,0,0,0,.725.381,1.751,1.751,0,0,0,.344-.032q.161-.032.376-.1l.226,1.5a3.424,3.424,0,0,1-.693.242,3.379,3.379,0,0,1-.79.091,2.441,2.441,0,0,1-1.955-.811,3.877,3.877,0,0,1-.7-2.562V15.935h-1.536V14.377h1.536v-2.89ZM-23.1,26q-.14-.526-.22-.94a5.921,5.921,0,0,1-.1-.822,4.268,4.268,0,0,1-1.219,1.423,2.812,2.812,0,0,1-1.724.564,3.052,3.052,0,0,1-2.39-.924,3.632,3.632,0,0,1-.833-2.524,3.166,3.166,0,0,1,1.155-2.589,4.943,4.943,0,0,1,3.217-.945h1.783V18.051a2.608,2.608,0,0,0-.473-1.66,1.626,1.626,0,0,0-1.354-.6,1.619,1.619,0,0,0-1.262.516,1.892,1.892,0,0,0-.467,1.321l-2.084.011-.021-.064a2.954,2.954,0,0,1,1.053-2.385,4.137,4.137,0,0,1,2.922-1.031,3.915,3.915,0,0,1,2.8,1.015,3.792,3.792,0,0,1,1.074,2.9v5.393a9.546,9.546,0,0,0,.086,1.294A8.243,8.243,0,0,0-20.883,26Zm-2.814-1.45A2.448,2.448,0,0,0-24.331,24a2.562,2.562,0,0,0,.9-1.337V20.6h-1.815a2.006,2.006,0,0,0-1.579.639,2.237,2.237,0,0,0-.569,1.542,2,2,0,0,0,.387,1.289A1.323,1.323,0,0,0-25.91,24.55Zm9.142-10.173.129,1.729a3.927,3.927,0,0,1,1.246-1.434,2.971,2.971,0,0,1,1.708-.51A2.856,2.856,0,0,1-11.274,15.3a5.87,5.87,0,0,1,.865,3.545V26H-12.59V18.856a4.345,4.345,0,0,0-.457-2.32,1.553,1.553,0,0,0-1.38-.677,2.127,2.127,0,0,0-1.289.392,2.745,2.745,0,0,0-.859,1.08V26h-2.191V14.377Zm8.443,5.951A8.59,8.59,0,0,1-7.3,15.849a3.188,3.188,0,0,1,2.868-1.687,2.958,2.958,0,0,1,1.482.371A3.365,3.365,0,0,1-1.826,15.6V9.242H.354V26h-1.8l-.226-1.4a3.447,3.447,0,0,1-1.182,1.208,3.081,3.081,0,0,1-1.6.414A3.221,3.221,0,0,1-7.31,24.673a7.426,7.426,0,0,1-1.015-4.12Zm2.17.226a6.473,6.473,0,0,0,.548,2.906A1.8,1.8,0,0,0-3.9,24.539a1.994,1.994,0,0,0,1.241-.387,2.783,2.783,0,0,0,.833-1.1V17.428a3.077,3.077,0,0,0-.838-1.144,1.867,1.867,0,0,0-1.225-.424A1.81,1.81,0,0,0-5.6,17.1a8,8,0,0,0-.553,3.228Zm19.411,2.514a1.548,1.548,0,0,0-.451-1.133,6.038,6.038,0,0,0-1.729-1.026A8.671,8.671,0,0,1,8.39,19.437,2.611,2.611,0,0,1,7.5,17.4a2.935,2.935,0,0,1,1.08-2.288,4.109,4.109,0,0,1,2.809-.945,4.032,4.032,0,0,1,2.89,1.037,3.189,3.189,0,0,1,1.053,2.508l-.021.064H13.2a2.174,2.174,0,0,0-.489-1.423,1.625,1.625,0,0,0-1.327-.6,1.764,1.764,0,0,0-1.305.467,1.494,1.494,0,0,0-.467,1.09,1.373,1.373,0,0,0,.4,1.047,7.118,7.118,0,0,0,1.724.983,7.941,7.941,0,0,1,2.745,1.493A2.774,2.774,0,0,1,15.4,22.96a2.9,2.9,0,0,1-1.112,2.358,4.466,4.466,0,0,1-2.917.908A4.23,4.23,0,0,1,8.3,25.135a3.267,3.267,0,0,1-1.069-2.551l.021-.064h2.03a2.123,2.123,0,0,0,.639,1.627,2.238,2.238,0,0,0,1.488.5,1.942,1.942,0,0,0,1.359-.446A1.467,1.467,0,0,0,13.256,23.067ZM23.472,26q-.14-.526-.22-.94a5.921,5.921,0,0,1-.1-.822,4.268,4.268,0,0,1-1.219,1.423,2.812,2.812,0,0,1-1.724.564,3.052,3.052,0,0,1-2.39-.924,3.632,3.632,0,0,1-.833-2.524,3.166,3.166,0,0,1,1.155-2.589,4.943,4.943,0,0,1,3.217-.945h1.783V18.051a2.608,2.608,0,0,0-.473-1.66,1.819,1.819,0,0,0-2.616-.081,1.892,1.892,0,0,0-.467,1.321l-2.084.011-.021-.064a2.954,2.954,0,0,1,1.053-2.385,4.137,4.137,0,0,1,2.922-1.031,3.915,3.915,0,0,1,2.8,1.015,3.792,3.792,0,0,1,1.074,2.9v5.393a9.546,9.546,0,0,0,.086,1.294A8.243,8.243,0,0,0,25.685,26Zm-2.814-1.45A2.448,2.448,0,0,0,22.236,24a2.562,2.562,0,0,0,.9-1.337V20.6H21.323a2.006,2.006,0,0,0-1.579.639,2.237,2.237,0,0,0-.569,1.542,2,2,0,0,0,.387,1.289A1.323,1.323,0,0,0,20.657,24.55Zm9.969-13.062v2.89h1.815v1.558H30.626v6.918a2.269,2.269,0,0,0,.274,1.284.851.851,0,0,0,.725.381,1.751,1.751,0,0,0,.344-.032q.161-.032.376-.1l.226,1.5a3.424,3.424,0,0,1-.693.242,3.379,3.379,0,0,1-.79.091,2.441,2.441,0,0,1-1.955-.811,3.877,3.877,0,0,1-.7-2.562V15.935H26.9V14.377h1.536v-2.89ZM36.749,26H34.558V14.377h2.191Zm0-14.674H34.558V9.242h2.191Zm8.175,11.741a1.548,1.548,0,0,0-.451-1.133,6.038,6.038,0,0,0-1.729-1.026,8.671,8.671,0,0,1-2.686-1.472,2.611,2.611,0,0,1-.892-2.041,2.935,2.935,0,0,1,1.08-2.288,4.109,4.109,0,0,1,2.809-.945,4.032,4.032,0,0,1,2.89,1.037A3.189,3.189,0,0,1,47,17.707l-.021.064H44.87a2.174,2.174,0,0,0-.489-1.423,1.625,1.625,0,0,0-1.327-.6,1.764,1.764,0,0,0-1.305.467,1.494,1.494,0,0,0-.467,1.09,1.373,1.373,0,0,0,.4,1.047,7.118,7.118,0,0,0,1.724.983,7.941,7.941,0,0,1,2.745,1.493,2.774,2.774,0,0,1,.918,2.127,2.9,2.9,0,0,1-1.112,2.358,4.466,4.466,0,0,1-2.917.908,4.23,4.23,0,0,1-3.078-1.09A3.267,3.267,0,0,1,38.9,22.584l.021-.064h2.03a2.123,2.123,0,0,0,.639,1.627,2.238,2.238,0,0,0,1.488.5,1.942,1.942,0,0,0,1.359-.446A1.467,1.467,0,0,0,44.924,23.067ZM49.833,26V15.935H48.3V14.377h1.536V12.884a4.161,4.161,0,0,1,.9-2.857,3.18,3.18,0,0,1,2.508-1.01,3.838,3.838,0,0,1,.661.059q.338.059.736.167l-.2,1.6a3.8,3.8,0,0,0-.43-.086,3.506,3.506,0,0,0-.494-.032,1.262,1.262,0,0,0-1.112.559,2.827,2.827,0,0,0-.381,1.6v1.493h1.923v1.558H52.014V26Zm11.849,0q-.14-.526-.22-.94a5.922,5.922,0,0,1-.1-.822,4.268,4.268,0,0,1-1.219,1.423,2.812,2.812,0,0,1-1.724.564,3.052,3.052,0,0,1-2.39-.924,3.632,3.632,0,0,1-.833-2.524,3.166,3.166,0,0,1,1.155-2.589,4.943,4.943,0,0,1,3.217-.945h1.783V18.051a2.608,2.608,0,0,0-.473-1.66,1.819,1.819,0,0,0-2.616-.081,1.892,1.892,0,0,0-.467,1.321l-2.084.011-.021-.064a2.954,2.954,0,0,1,1.053-2.385,4.137,4.137,0,0,1,2.922-1.031,3.915,3.915,0,0,1,2.8,1.015,3.792,3.792,0,0,1,1.074,2.9v5.393a9.546,9.546,0,0,0,.086,1.294A8.243,8.243,0,0,0,63.895,26Zm-2.814-1.45A2.448,2.448,0,0,0,60.446,24a2.562,2.562,0,0,0,.9-1.337V20.6H59.533a2.006,2.006,0,0,0-1.579.639,2.237,2.237,0,0,0-.569,1.542,2,2,0,0,0,.387,1.289A1.323,1.323,0,0,0,58.867,24.55Zm11.2.021a1.716,1.716,0,0,0,1.348-.623,2.479,2.479,0,0,0,.542-1.687h1.966l.021.064A3.591,3.591,0,0,1,72.843,25.1a4.086,4.086,0,0,1-6.091-.51A7.023,7.023,0,0,1,65.581,20.4V20a7.053,7.053,0,0,1,1.171-4.184,3.831,3.831,0,0,1,3.319-1.649A3.682,3.682,0,0,1,72.9,15.338a4.2,4.2,0,0,1,1.058,3.056l-.021.054H71.962a3.157,3.157,0,0,0-.521-1.885,1.611,1.611,0,0,0-1.37-.725A1.829,1.829,0,0,0,68.3,17.02,7.14,7.14,0,0,0,67.762,20V20.4a7.218,7.218,0,0,0,.537,3A1.827,1.827,0,0,0,70.071,24.571Zm8.723-13.084v2.89h1.815v1.558H78.794v6.918a2.269,2.269,0,0,0,.274,1.284.851.851,0,0,0,.725.381,1.751,1.751,0,0,0,.344-.032q.161-.032.376-.1l.226,1.5a3.424,3.424,0,0,1-.693.242,3.379,3.379,0,0,1-.79.091,2.441,2.441,0,0,1-1.955-.811,3.877,3.877,0,0,1-.7-2.562V15.935H75.066V14.377H76.6v-2.89ZM84.917,26H82.726V14.377h2.191Zm0-14.674H82.726V9.242h2.191Zm2.224,8.733a6.946,6.946,0,0,1,1.225-4.243,4.249,4.249,0,0,1,6.73,0,6.924,6.924,0,0,1,1.23,4.243v.29A6.893,6.893,0,0,1,95.1,24.587a4.281,4.281,0,0,1-6.735,0,6.893,6.893,0,0,1-1.225-4.238Zm2.191.29a6.747,6.747,0,0,0,.6,3.04,1.933,1.933,0,0,0,1.821,1.182,1.91,1.91,0,0,0,1.789-1.187,6.754,6.754,0,0,0,.6-3.035v-.29a6.716,6.716,0,0,0-.6-3.024,1.954,1.954,0,0,0-3.6,0,6.768,6.768,0,0,0-.6,3.024Zm11.054-5.973.129,1.729a3.927,3.927,0,0,1,1.246-1.434,2.971,2.971,0,0,1,1.708-.51A2.856,2.856,0,0,1,105.88,15.3a5.87,5.87,0,0,1,.865,3.545V26h-2.181V18.856a4.345,4.345,0,0,0-.457-2.32,1.553,1.553,0,0,0-1.38-.677,2.127,2.127,0,0,0-1.289.392,2.745,2.745,0,0,0-.859,1.08V26H98.388V14.377ZM-98.833,46.06a6.946,6.946,0,0,1,1.225-4.243,3.955,3.955,0,0,1,3.362-1.654,3.969,3.969,0,0,1,3.368,1.654,6.924,6.924,0,0,1,1.23,4.243v.29a6.893,6.893,0,0,1-1.225,4.238,3.958,3.958,0,0,1-3.352,1.638,3.99,3.99,0,0,1-3.384-1.638,6.893,6.893,0,0,1-1.225-4.238Zm2.191.29a6.747,6.747,0,0,0,.6,3.04,1.932,1.932,0,0,0,1.821,1.182,1.91,1.91,0,0,0,1.789-1.187,6.754,6.754,0,0,0,.6-3.035v-.29a6.716,6.716,0,0,0-.6-3.024,1.927,1.927,0,0,0-1.8-1.2,1.917,1.917,0,0,0-1.8,1.2,6.768,6.768,0,0,0-.6,3.024ZM-86.834,52V41.935h-1.536V40.377h1.536V38.884a4.161,4.161,0,0,1,.9-2.857,3.18,3.18,0,0,1,2.508-1.01,3.838,3.838,0,0,1,.661.059q.338.059.736.167l-.2,1.6a3.8,3.8,0,0,0-.43-.086,3.506,3.506,0,0,0-.494-.032,1.262,1.262,0,0,0-1.112.559,2.827,2.827,0,0,0-.381,1.6v1.493h1.923v1.558h-1.923V52Zm10.205-5.94A6.946,6.946,0,0,1-75.4,41.816a3.955,3.955,0,0,1,3.362-1.654,3.969,3.969,0,0,1,3.368,1.654,6.924,6.924,0,0,1,1.23,4.243v.29a6.893,6.893,0,0,1-1.225,4.238,3.958,3.958,0,0,1-3.352,1.638A3.99,3.99,0,0,1-75.4,50.587a6.893,6.893,0,0,1-1.225-4.238Zm2.191.29a6.747,6.747,0,0,0,.6,3.04,1.932,1.932,0,0,0,1.821,1.182,1.91,1.91,0,0,0,1.789-1.187,6.754,6.754,0,0,0,.6-3.035v-.29a6.716,6.716,0,0,0-.6-3.024,1.927,1.927,0,0,0-1.8-1.2,1.917,1.917,0,0,0-1.8,1.2,6.768,6.768,0,0,0-.6,3.024ZM-59.109,50.3a3.741,3.741,0,0,1-1.2,1.423,2.934,2.934,0,0,1-1.7.5,2.926,2.926,0,0,1-2.5-1.235,6.54,6.54,0,0,1-.9-3.835V40.377h2.191v6.8a5.657,5.657,0,0,0,.43,2.616,1.413,1.413,0,0,0,1.311.747,2.413,2.413,0,0,0,1.37-.376,2.523,2.523,0,0,0,.886-1.074V40.377h2.191V52h-1.858Zm9.561-8.11-.945-.054a1.64,1.64,0,0,0-1.144.414,2.649,2.649,0,0,0-.7,1.166V52h-2.191V40.377h2.009l.15,1.719a3.733,3.733,0,0,1,.988-1.423A2.08,2.08,0,0,1-50,40.162a1.836,1.836,0,0,1,.381.038,2.1,2.1,0,0,1,.317.091Zm10.656,8.379a1.716,1.716,0,0,0,1.348-.623A2.48,2.48,0,0,0-37,48.262h1.966l.021.064A3.591,3.591,0,0,1-36.121,51.1a3.814,3.814,0,0,1-2.771,1.128,3.839,3.839,0,0,1-3.319-1.638A7.023,7.023,0,0,1-43.382,46.4V46a7.053,7.053,0,0,1,1.171-4.184,3.831,3.831,0,0,1,3.319-1.649,3.682,3.682,0,0,1,2.831,1.176A4.2,4.2,0,0,1-35,44.395l-.021.054H-37a3.157,3.157,0,0,0-.521-1.885,1.611,1.611,0,0,0-1.37-.725,1.829,1.829,0,0,0-1.767,1.182A7.14,7.14,0,0,0-41.2,46V46.4a7.218,7.218,0,0,0,.537,3A1.827,1.827,0,0,0-38.892,50.571ZM-30.642,52h-2.191V35.242h2.191Zm5,0h-2.191V40.377h2.191Zm0-14.674h-2.191V35.242h2.191Zm6.864,14.9a4.059,4.059,0,0,1-3.4-1.59,6.569,6.569,0,0,1-1.23-4.136V46A6.819,6.819,0,0,1-22.188,41.8a3.815,3.815,0,0,1,3.2-1.638,3.522,3.522,0,0,1,3.024,1.407,6.239,6.239,0,0,1,1.037,3.781v1.225h-6.306a5.739,5.739,0,0,0,.639,2.89,2.113,2.113,0,0,0,1.96,1.106,4.08,4.08,0,0,0,1.59-.285,4.065,4.065,0,0,0,1.246-.833l.709,1.354a4.633,4.633,0,0,1-1.531,1.01A5.439,5.439,0,0,1-18.783,52.226Zm-.2-10.388a1.709,1.709,0,0,0-1.5.875,5.216,5.216,0,0,0-.7,2.315h4.114v-.247a4.255,4.255,0,0,0-.467-2.127A1.552,1.552,0,0,0-18.987,41.838Zm8-1.461.129,1.729a3.927,3.927,0,0,1,1.246-1.434,2.971,2.971,0,0,1,1.708-.51A2.856,2.856,0,0,1-5.489,41.3a5.87,5.87,0,0,1,.865,3.545V52H-6.805V44.856a4.345,4.345,0,0,0-.457-2.32,1.553,1.553,0,0,0-1.38-.677,2.127,2.127,0,0,0-1.289.392,2.745,2.745,0,0,0-.859,1.08V52h-2.191V40.377ZM.671,37.487v2.89H2.487v1.558H.671v6.918a2.269,2.269,0,0,0,.274,1.284.851.851,0,0,0,.725.381,1.751,1.751,0,0,0,.344-.032q.161-.032.376-.1l.226,1.5a3.424,3.424,0,0,1-.693.242,3.379,3.379,0,0,1-.79.091,2.441,2.441,0,0,1-1.955-.811,3.877,3.877,0,0,1-.7-2.562V41.935H-3.056V40.377H-1.52v-2.89Zm9.3,11.58a1.548,1.548,0,0,0-.451-1.133,6.038,6.038,0,0,0-1.729-1.026,8.671,8.671,0,0,1-2.686-1.472A2.611,2.611,0,0,1,4.216,43.4,2.935,2.935,0,0,1,5.3,41.107,4.109,4.109,0,0,1,8.1,40.162a4.032,4.032,0,0,1,2.89,1.037,3.189,3.189,0,0,1,1.053,2.508l-.021.064H9.92a2.174,2.174,0,0,0-.489-1.423,1.625,1.625,0,0,0-1.327-.6,1.764,1.764,0,0,0-1.305.467,1.494,1.494,0,0,0-.467,1.09,1.373,1.373,0,0,0,.4,1.047,7.118,7.118,0,0,0,1.724.983A7.941,7.941,0,0,1,11.2,46.833a2.774,2.774,0,0,1,.918,2.127,2.9,2.9,0,0,1-1.112,2.358,4.466,4.466,0,0,1-2.917.908,4.23,4.23,0,0,1-3.078-1.09,3.267,3.267,0,0,1-1.069-2.551l.021-.064H6a2.123,2.123,0,0,0,.639,1.627,2.238,2.238,0,0,0,1.488.5A1.942,1.942,0,0,0,9.485,50.2,1.467,1.467,0,0,0,9.974,49.067ZM25.024,52q-.14-.526-.22-.94a5.921,5.921,0,0,1-.1-.822,4.268,4.268,0,0,1-1.219,1.423,2.812,2.812,0,0,1-1.724.564,3.052,3.052,0,0,1-2.39-.924,3.632,3.632,0,0,1-.833-2.524,3.166,3.166,0,0,1,1.155-2.589,4.943,4.943,0,0,1,3.217-.945h1.783V44.051a2.608,2.608,0,0,0-.473-1.66,1.819,1.819,0,0,0-2.616-.081,1.892,1.892,0,0,0-.467,1.321l-2.084.011-.021-.064a2.954,2.954,0,0,1,1.053-2.385A4.137,4.137,0,0,1,23,40.162a3.915,3.915,0,0,1,2.8,1.015,3.792,3.792,0,0,1,1.074,2.9v5.393a9.546,9.546,0,0,0,.086,1.294A8.243,8.243,0,0,0,27.237,52Zm-2.814-1.45A2.448,2.448,0,0,0,23.789,50a2.562,2.562,0,0,0,.9-1.337V46.6H22.875a2.006,2.006,0,0,0-1.579.639,2.237,2.237,0,0,0-.569,1.542,2,2,0,0,0,.387,1.289A1.323,1.323,0,0,0,22.209,50.55Zm9.142-10.173.129,1.729a3.927,3.927,0,0,1,1.246-1.434,2.971,2.971,0,0,1,1.708-.51A2.856,2.856,0,0,1,36.846,41.3a5.87,5.87,0,0,1,.865,3.545V52H35.53V44.856a4.345,4.345,0,0,0-.457-2.32,1.553,1.553,0,0,0-1.38-.677,2.127,2.127,0,0,0-1.289.392,2.745,2.745,0,0,0-.859,1.08V52H29.353V40.377Zm8.443,5.951a8.59,8.59,0,0,1,1.021-4.479,3.188,3.188,0,0,1,2.868-1.687,2.958,2.958,0,0,1,1.482.371A3.365,3.365,0,0,1,46.293,41.6V35.242h2.181V52h-1.8l-.226-1.4a3.447,3.447,0,0,1-1.182,1.208,3.081,3.081,0,0,1-1.6.414,3.221,3.221,0,0,1-2.852-1.552,7.426,7.426,0,0,1-1.015-4.12Zm2.17.226a6.473,6.473,0,0,0,.548,2.906,1.8,1.8,0,0,0,1.708,1.08,1.994,1.994,0,0,0,1.241-.387,2.783,2.783,0,0,0,.833-1.1V43.428a3.077,3.077,0,0,0-.838-1.144,1.867,1.867,0,0,0-1.225-.424A1.81,1.81,0,0,0,42.518,43.1a8,8,0,0,0-.553,3.228Zm13.46-.494a6.946,6.946,0,0,1,1.225-4.243,4.249,4.249,0,0,1,6.73,0,6.924,6.924,0,0,1,1.23,4.243v.29a6.893,6.893,0,0,1-1.225,4.238,4.281,4.281,0,0,1-6.735,0,6.893,6.893,0,0,1-1.225-4.238Zm2.191.29a6.747,6.747,0,0,0,.6,3.04,1.932,1.932,0,0,0,1.821,1.182,1.91,1.91,0,0,0,1.789-1.187,6.754,6.754,0,0,0,.6-3.035v-.29a6.716,6.716,0,0,0-.6-3.024,1.954,1.954,0,0,0-3.6,0,6.768,6.768,0,0,0-.6,3.024ZM69.5,37.487v2.89h1.815v1.558H69.5v6.918a2.269,2.269,0,0,0,.274,1.284.851.851,0,0,0,.725.381,1.751,1.751,0,0,0,.344-.032q.161-.032.376-.1l.226,1.5a3.424,3.424,0,0,1-.693.242,3.379,3.379,0,0,1-.79.091A2.441,2.441,0,0,1,68,51.415a3.877,3.877,0,0,1-.7-2.562V41.935H65.769V40.377h1.536v-2.89Zm5.951,4.447a3.852,3.852,0,0,1,1.214-1.305,2.9,2.9,0,0,1,1.611-.467,2.942,2.942,0,0,1,2.471,1.16,5.835,5.835,0,0,1,.892,3.566V52H79.444V44.867a4.348,4.348,0,0,0-.462-2.3,1.527,1.527,0,0,0-1.364-.7,2.263,2.263,0,0,0-1.294.365,2.64,2.64,0,0,0-.875,1.021V52H73.256V35.242h2.191ZM88.317,52.226a4.059,4.059,0,0,1-3.4-1.59,6.569,6.569,0,0,1-1.23-4.136V46A6.819,6.819,0,0,1,84.912,41.8a3.815,3.815,0,0,1,3.2-1.638,3.522,3.522,0,0,1,3.024,1.407,6.239,6.239,0,0,1,1.037,3.781v1.225H85.868a5.739,5.739,0,0,0,.639,2.89,2.113,2.113,0,0,0,1.96,1.106A3.807,3.807,0,0,0,91.3,49.454l.709,1.354a4.633,4.633,0,0,1-1.531,1.01A5.439,5.439,0,0,1,88.317,52.226Zm-.2-10.388a1.709,1.709,0,0,0-1.5.875,5.216,5.216,0,0,0-.7,2.315h4.114v-.247a4.255,4.255,0,0,0-.467-2.127A1.552,1.552,0,0,0,88.113,41.838Zm11.011.354-.945-.054a1.64,1.64,0,0,0-1.144.414,2.649,2.649,0,0,0-.7,1.166V52H94.139V40.377h2.009L96.3,42.1a3.734,3.734,0,0,1,.988-1.423,2.08,2.08,0,0,1,1.386-.51,1.836,1.836,0,0,1,.381.038,2.1,2.1,0,0,1,.317.091ZM-110.918,75.067a1.548,1.548,0,0,0-.451-1.133,6.038,6.038,0,0,0-1.729-1.026,8.671,8.671,0,0,1-2.686-1.472,2.611,2.611,0,0,1-.892-2.041,2.935,2.935,0,0,1,1.08-2.288,4.109,4.109,0,0,1,2.809-.945A4.032,4.032,0,0,1-109.9,67.2a3.189,3.189,0,0,1,1.053,2.508l-.021.064h-2.105a2.174,2.174,0,0,0-.489-1.423,1.625,1.625,0,0,0-1.327-.6,1.764,1.764,0,0,0-1.305.467,1.494,1.494,0,0,0-.467,1.09,1.373,1.373,0,0,0,.4,1.047,7.118,7.118,0,0,0,1.724.983,7.941,7.941,0,0,1,2.745,1.493,2.774,2.774,0,0,1,.918,2.127,2.9,2.9,0,0,1-1.112,2.358,4.466,4.466,0,0,1-2.917.908,4.23,4.23,0,0,1-3.078-1.09,3.267,3.267,0,0,1-1.069-2.551l.021-.064h2.03a2.123,2.123,0,0,0,.639,1.627,2.238,2.238,0,0,0,1.488.5,1.942,1.942,0,0,0,1.359-.446A1.467,1.467,0,0,0-110.918,75.067Zm6.982-11.58v2.89h1.815v1.558h-1.815v6.918a2.269,2.269,0,0,0,.274,1.284.851.851,0,0,0,.725.381,1.751,1.751,0,0,0,.344-.032q.161-.032.376-.1l.226,1.5a3.424,3.424,0,0,1-.693.242,3.379,3.379,0,0,1-.79.091,2.441,2.441,0,0,1-1.955-.811,3.877,3.877,0,0,1-.7-2.562V67.935h-1.536V66.377h1.536v-2.89ZM-94.107,78q-.14-.526-.22-.94a5.921,5.921,0,0,1-.1-.822,4.268,4.268,0,0,1-1.219,1.423,2.812,2.812,0,0,1-1.724.564,3.052,3.052,0,0,1-2.39-.924,3.632,3.632,0,0,1-.833-2.524,3.166,3.166,0,0,1,1.155-2.589,4.943,4.943,0,0,1,3.217-.945h1.783V70.051a2.608,2.608,0,0,0-.473-1.66,1.626,1.626,0,0,0-1.354-.6,1.619,1.619,0,0,0-1.262.516A1.892,1.892,0,0,0-98,69.632l-2.084.011-.021-.064a2.954,2.954,0,0,1,1.053-2.385,4.137,4.137,0,0,1,2.922-1.031,3.915,3.915,0,0,1,2.8,1.015,3.792,3.792,0,0,1,1.074,2.9v5.393a9.546,9.546,0,0,0,.086,1.294A8.243,8.243,0,0,0-91.894,78Zm-2.814-1.45A2.448,2.448,0,0,0-95.342,76a2.562,2.562,0,0,0,.9-1.337V72.6h-1.815a2.005,2.005,0,0,0-1.579.639,2.237,2.237,0,0,0-.569,1.542,2,2,0,0,0,.387,1.289A1.323,1.323,0,0,0-96.921,76.55Zm10.173-3.878h-.816V78h-2.181V61.242h2.181v9.765h.763l2.793-4.63h2.567L-85,71.662-81.055,78H-83.6Zm11,5.554a4.059,4.059,0,0,1-3.4-1.59,6.569,6.569,0,0,1-1.23-4.136V72A6.819,6.819,0,0,1-79.154,67.8a3.815,3.815,0,0,1,3.2-1.638,3.522,3.522,0,0,1,3.024,1.407,6.239,6.239,0,0,1,1.037,3.781v1.225H-78.2a5.739,5.739,0,0,0,.639,2.89,2.113,2.113,0,0,0,1.96,1.106,4.08,4.08,0,0,0,1.59-.285,4.065,4.065,0,0,0,1.246-.833l.709,1.354a4.633,4.633,0,0,1-1.531,1.01A5.439,5.439,0,0,1-75.749,78.226Zm-.2-10.388a1.709,1.709,0,0,0-1.5.875,5.216,5.216,0,0,0-.7,2.315h4.114v-.247a4.255,4.255,0,0,0-.467-2.127A1.552,1.552,0,0,0-75.953,67.838Zm8.186.1a3.852,3.852,0,0,1,1.214-1.305,2.9,2.9,0,0,1,1.611-.467,2.942,2.942,0,0,1,2.471,1.16,5.835,5.835,0,0,1,.892,3.566V78h-2.191V70.867a4.348,4.348,0,0,0-.462-2.3,1.527,1.527,0,0,0-1.364-.7,2.263,2.263,0,0,0-1.294.365,2.64,2.64,0,0,0-.875,1.021V78h-2.191V61.242h2.191Zm8.229,4.125a6.946,6.946,0,0,1,1.225-4.243,3.955,3.955,0,0,1,3.362-1.654,3.969,3.969,0,0,1,3.368,1.654,6.924,6.924,0,0,1,1.23,4.243v.29a6.893,6.893,0,0,1-1.225,4.238,3.958,3.958,0,0,1-3.352,1.638,3.99,3.99,0,0,1-3.384-1.638,6.893,6.893,0,0,1-1.225-4.238Zm2.191.29a6.747,6.747,0,0,0,.6,3.04,1.933,1.933,0,0,0,1.821,1.182,1.91,1.91,0,0,0,1.789-1.187,6.754,6.754,0,0,0,.6-3.035v-.29a6.716,6.716,0,0,0-.6-3.024,1.927,1.927,0,0,0-1.8-1.2,1.917,1.917,0,0,0-1.8,1.2,6.768,6.768,0,0,0-.6,3.024ZM-45.939,78H-48.13V61.242h2.191Zm2.256-5.672a8.59,8.59,0,0,1,1.021-4.479,3.188,3.188,0,0,1,2.868-1.687,2.958,2.958,0,0,1,1.482.371A3.365,3.365,0,0,1-37.184,67.6V61.242H-35V78h-1.8l-.226-1.4a3.447,3.447,0,0,1-1.182,1.208,3.081,3.081,0,0,1-1.6.414,3.221,3.221,0,0,1-2.852-1.552,7.426,7.426,0,0,1-1.015-4.12Zm2.17.226a6.473,6.473,0,0,0,.548,2.906,1.8,1.8,0,0,0,1.708,1.08,1.994,1.994,0,0,0,1.241-.387,2.783,2.783,0,0,0,.833-1.1V69.428a3.077,3.077,0,0,0-.838-1.144,1.867,1.867,0,0,0-1.225-.424A1.81,1.81,0,0,0-40.96,69.1a8,8,0,0,0-.553,3.228Zm13.267,5.672a4.059,4.059,0,0,1-3.4-1.59,6.569,6.569,0,0,1-1.23-4.136V72A6.819,6.819,0,0,1-31.652,67.8a3.815,3.815,0,0,1,3.2-1.638,3.522,3.522,0,0,1,3.024,1.407,6.239,6.239,0,0,1,1.037,3.781v1.225H-30.7a5.739,5.739,0,0,0,.639,2.89,2.113,2.113,0,0,0,1.96,1.106,4.08,4.08,0,0,0,1.59-.285,4.065,4.065,0,0,0,1.246-.833l.709,1.354a4.633,4.633,0,0,1-1.531,1.01A5.439,5.439,0,0,1-28.247,78.226Zm-.2-10.388a1.709,1.709,0,0,0-1.5.875,5.216,5.216,0,0,0-.7,2.315h4.114v-.247a4.255,4.255,0,0,0-.467-2.127A1.552,1.552,0,0,0-28.451,67.838Zm11.011.354-.945-.054a1.64,1.64,0,0,0-1.144.414,2.649,2.649,0,0,0-.7,1.166V78h-2.191V66.377h2.009l.15,1.719a3.734,3.734,0,0,1,.988-1.423,2.08,2.08,0,0,1,1.386-.51,1.837,1.837,0,0,1,.381.038,2.1,2.1,0,0,1,.317.091Zm7.294,6.875a1.548,1.548,0,0,0-.451-1.133,6.038,6.038,0,0,0-1.729-1.026,8.671,8.671,0,0,1-2.686-1.472A2.611,2.611,0,0,1-15.9,69.4a2.935,2.935,0,0,1,1.08-2.288,4.109,4.109,0,0,1,2.809-.945A4.032,4.032,0,0,1-9.125,67.2a3.189,3.189,0,0,1,1.053,2.508l-.021.064H-10.2a2.174,2.174,0,0,0-.489-1.423,1.625,1.625,0,0,0-1.327-.6,1.764,1.764,0,0,0-1.305.467,1.494,1.494,0,0,0-.467,1.09,1.373,1.373,0,0,0,.4,1.047,7.118,7.118,0,0,0,1.724.983,7.941,7.941,0,0,1,2.745,1.493A2.774,2.774,0,0,1-8,74.96a2.9,2.9,0,0,1-1.112,2.358,4.466,4.466,0,0,1-2.917.908,4.23,4.23,0,0,1-3.078-1.09,3.267,3.267,0,0,1-1.069-2.551l.021-.064h2.03a2.123,2.123,0,0,0,.639,1.627,2.238,2.238,0,0,0,1.488.5,1.942,1.942,0,0,0,1.359-.446A1.467,1.467,0,0,0-10.146,75.067ZM1.2,78H-.994V66.377H1.2Zm0-14.674H-.994V61.242H1.2Zm4.641,3.051.129,1.729a3.927,3.927,0,0,1,1.246-1.434,2.971,2.971,0,0,1,1.708-.51A2.856,2.856,0,0,1,11.333,67.3a5.87,5.87,0,0,1,.865,3.545V78H10.017V70.856a4.345,4.345,0,0,0-.457-2.32,1.553,1.553,0,0,0-1.38-.677,2.127,2.127,0,0,0-1.289.392,2.745,2.745,0,0,0-.859,1.08V78H3.84V66.377ZM23.563,76.571a1.716,1.716,0,0,0,1.348-.623,2.479,2.479,0,0,0,.542-1.687h1.966l.021.064A3.591,3.591,0,0,1,26.334,77.1a4.086,4.086,0,0,1-6.091-.51A7.023,7.023,0,0,1,19.073,72.4V72a7.053,7.053,0,0,1,1.171-4.184,3.831,3.831,0,0,1,3.319-1.649,3.682,3.682,0,0,1,2.831,1.176,4.2,4.2,0,0,1,1.058,3.056l-.021.054H25.454a3.157,3.157,0,0,0-.521-1.885,1.611,1.611,0,0,0-1.37-.725A1.829,1.829,0,0,0,21.8,69.02,7.14,7.14,0,0,0,21.253,72V72.4a7.218,7.218,0,0,0,.537,3A1.827,1.827,0,0,0,23.563,76.571Zm5.479-4.512a6.946,6.946,0,0,1,1.225-4.243,4.249,4.249,0,0,1,6.73,0,6.924,6.924,0,0,1,1.23,4.243v.29A6.893,6.893,0,0,1,37,76.587a4.281,4.281,0,0,1-6.735,0,6.893,6.893,0,0,1-1.225-4.238Zm2.191.29a6.747,6.747,0,0,0,.6,3.04,1.933,1.933,0,0,0,1.821,1.182,1.91,1.91,0,0,0,1.789-1.187,6.754,6.754,0,0,0,.6-3.035v-.29a6.716,6.716,0,0,0-.6-3.024,1.954,1.954,0,0,0-3.6,0,6.768,6.768,0,0,0-.6,3.024Zm11.075-5.973.118,1.579a3.615,3.615,0,0,1,1.23-1.327,3.2,3.2,0,0,1,1.735-.467,2.714,2.714,0,0,1,1.676.532,3.18,3.18,0,0,1,1.063,1.617,3.969,3.969,0,0,1,1.23-1.579,2.956,2.956,0,0,1,1.81-.569,2.753,2.753,0,0,1,2.379,1.23,6.547,6.547,0,0,1,.865,3.744V78H52.223V71.125a5.134,5.134,0,0,0-.451-2.541,1.48,1.48,0,0,0-1.343-.725,1.641,1.641,0,0,0-1.262.559,3.4,3.4,0,0,0-.747,1.472q.011.193.021.4t.011.424V78H46.272V71.125a5.055,5.055,0,0,0-.462-2.508,1.481,1.481,0,0,0-1.343-.757,1.893,1.893,0,0,0-1.2.387,2.55,2.55,0,0,0-.773,1.063V78H40.3V66.377Zm23.343,6.177a7.36,7.36,0,0,1-1.026,4.125,3.25,3.25,0,0,1-2.863,1.547,3.288,3.288,0,0,1-1.52-.338,3.09,3.09,0,0,1-1.123-.994v5.575H56.928V66.377h1.858l.2,1.4a3.421,3.421,0,0,1,1.16-1.2,3.045,3.045,0,0,1,1.6-.414,3.2,3.2,0,0,1,2.874,1.687,8.554,8.554,0,0,1,1.026,4.479Zm-2.191-.226a7.74,7.74,0,0,0-.575-3.223,1.843,1.843,0,0,0-1.724-1.246,1.918,1.918,0,0,0-1.235.4,2.794,2.794,0,0,0-.806,1.09v5.854a2.443,2.443,0,0,0,.806,1.01,2.115,2.115,0,0,0,1.246.354,1.835,1.835,0,0,0,1.719-1.1,6.366,6.366,0,0,0,.569-2.922ZM70.087,78H67.9V61.242h2.191Zm5,0H72.891V66.377h2.191Zm0-14.674H72.891V61.242h2.191ZM83.784,78q-.14-.526-.22-.94a5.921,5.921,0,0,1-.1-.822,4.268,4.268,0,0,1-1.219,1.423,2.812,2.812,0,0,1-1.724.564,3.052,3.052,0,0,1-2.39-.924,3.632,3.632,0,0,1-.833-2.524,3.166,3.166,0,0,1,1.155-2.589,4.943,4.943,0,0,1,3.217-.945h1.783V70.051a2.608,2.608,0,0,0-.473-1.66,1.819,1.819,0,0,0-2.616-.081,1.892,1.892,0,0,0-.467,1.321l-2.084.011-.021-.064a2.954,2.954,0,0,1,1.053-2.385,4.137,4.137,0,0,1,2.922-1.031,3.915,3.915,0,0,1,2.8,1.015,3.792,3.792,0,0,1,1.074,2.9v5.393a9.546,9.546,0,0,0,.086,1.294A8.243,8.243,0,0,0,86,78Zm-2.814-1.45A2.448,2.448,0,0,0,82.548,76a2.562,2.562,0,0,0,.9-1.337V72.6H81.635a2.005,2.005,0,0,0-1.579.639,2.237,2.237,0,0,0-.569,1.542,2,2,0,0,0,.387,1.289A1.323,1.323,0,0,0,80.969,76.55Zm9.142-10.173.129,1.729a3.927,3.927,0,0,1,1.246-1.434,2.971,2.971,0,0,1,1.708-.51A2.856,2.856,0,0,1,95.605,67.3a5.87,5.87,0,0,1,.865,3.545V78H94.29V70.856a4.345,4.345,0,0,0-.457-2.32,1.553,1.553,0,0,0-1.38-.677,2.127,2.127,0,0,0-1.289.392,2.745,2.745,0,0,0-.859,1.08V78H88.113V66.377ZM103,76.571a1.716,1.716,0,0,0,1.348-.623,2.479,2.479,0,0,0,.542-1.687h1.966l.021.064a3.591,3.591,0,0,1-1.106,2.771,4.086,4.086,0,0,1-6.091-.51A7.023,7.023,0,0,1,98.511,72.4V72a7.053,7.053,0,0,1,1.171-4.184A3.831,3.831,0,0,1,103,66.162a3.682,3.682,0,0,1,2.831,1.176,4.2,4.2,0,0,1,1.058,3.056l-.021.054h-1.977a3.157,3.157,0,0,0-.521-1.885,1.611,1.611,0,0,0-1.37-.725,1.829,1.829,0,0,0-1.767,1.182A7.14,7.14,0,0,0,100.692,72V72.4a7.218,7.218,0,0,0,.537,3A1.827,1.827,0,0,0,103,76.571Zm10.119,1.654a4.059,4.059,0,0,1-3.4-1.59,6.569,6.569,0,0,1-1.23-4.136V72a6.819,6.819,0,0,1,1.225-4.195,3.815,3.815,0,0,1,3.2-1.638,3.522,3.522,0,0,1,3.024,1.407,6.239,6.239,0,0,1,1.037,3.781v1.225h-6.306a5.739,5.739,0,0,0,.639,2.89,2.113,2.113,0,0,0,1.96,1.106,3.807,3.807,0,0,0,2.836-1.117l.709,1.354a4.633,4.633,0,0,1-1.531,1.01A5.439,5.439,0,0,1,113.121,78.226Zm-.2-10.388a1.709,1.709,0,0,0-1.5.875,5.216,5.216,0,0,0-.7,2.315h4.114v-.247a4.255,4.255,0,0,0-.467-2.127A1.552,1.552,0,0,0,112.917,67.838Zm-205.122,32.37h.064l1.482-7.831h2.191L-91.174,104h-1.8l-2.148-7.541h-.064L-97.276,104h-1.815l-2.718-11.623h2.181l1.525,7.745h.064l2.116-7.745h1.568Zm7.82,3.792h-2.191V92.377h2.191Zm0-14.674h-2.191V87.242h2.191Zm5.468.161v2.89H-77.1v1.558h-1.815v6.918a2.269,2.269,0,0,0,.274,1.284.851.851,0,0,0,.725.381,1.751,1.751,0,0,0,.344-.032q.161-.032.376-.1l.226,1.5a3.424,3.424,0,0,1-.693.242,3.379,3.379,0,0,1-.79.091,2.441,2.441,0,0,1-1.955-.811,3.877,3.877,0,0,1-.7-2.562V93.935h-1.536V92.377h1.536v-2.89Zm5.951,4.447a3.852,3.852,0,0,1,1.214-1.305,2.9,2.9,0,0,1,1.611-.467,2.942,2.942,0,0,1,2.471,1.16,5.835,5.835,0,0,1,.892,3.566V104H-68.97V96.867a4.348,4.348,0,0,0-.462-2.3,1.527,1.527,0,0,0-1.364-.7,2.263,2.263,0,0,0-1.294.365,2.64,2.64,0,0,0-.875,1.021V104h-2.191V87.242h2.191Zm16.307-4.447v2.89h1.815v1.558H-56.66v6.918a2.269,2.269,0,0,0,.274,1.284.851.851,0,0,0,.725.381,1.751,1.751,0,0,0,.344-.032q.161-.032.376-.1l.226,1.5a3.424,3.424,0,0,1-.693.242,3.379,3.379,0,0,1-.79.091,2.441,2.441,0,0,1-1.955-.811,3.877,3.877,0,0,1-.7-2.562V93.935h-1.536V92.377h1.536v-2.89Zm5.951,4.447a3.852,3.852,0,0,1,1.214-1.305,2.9,2.9,0,0,1,1.611-.467,2.942,2.942,0,0,1,2.471,1.16,5.835,5.835,0,0,1,.892,3.566V104h-2.191V96.867a4.348,4.348,0,0,0-.462-2.3,1.527,1.527,0,0,0-1.364-.7,2.263,2.263,0,0,0-1.294.365,2.64,2.64,0,0,0-.875,1.021V104H-52.9V87.242h2.191Zm12.869,10.291a4.059,4.059,0,0,1-3.4-1.59,6.569,6.569,0,0,1-1.23-4.136V98A6.819,6.819,0,0,1-41.245,93.8a3.815,3.815,0,0,1,3.2-1.638,3.522,3.522,0,0,1,3.024,1.407,6.239,6.239,0,0,1,1.037,3.781v1.225h-6.306a5.739,5.739,0,0,0,.639,2.89,2.113,2.113,0,0,0,1.96,1.106,4.08,4.08,0,0,0,1.59-.285,4.065,4.065,0,0,0,1.246-.833l.709,1.354a4.633,4.633,0,0,1-1.531,1.01A5.439,5.439,0,0,1-37.839,104.226Zm-.2-10.388a1.709,1.709,0,0,0-1.5.875,5.216,5.216,0,0,0-.7,2.315h4.114v-.247a4.255,4.255,0,0,0-.467-2.127A1.552,1.552,0,0,0-38.043,93.838ZM-24.852,104h-2.191V87.242h2.191Zm8.7,0q-.14-.526-.22-.94a5.921,5.921,0,0,1-.1-.822,4.268,4.268,0,0,1-1.219,1.423,2.812,2.812,0,0,1-1.724.564,3.052,3.052,0,0,1-2.39-.924,3.632,3.632,0,0,1-.833-2.524,3.166,3.166,0,0,1,1.155-2.589,4.943,4.943,0,0,1,3.217-.945h1.783V96.051a2.608,2.608,0,0,0-.473-1.66,1.626,1.626,0,0,0-1.354-.6,1.619,1.619,0,0,0-1.262.516,1.892,1.892,0,0,0-.467,1.321l-2.084.011-.021-.064a2.954,2.954,0,0,1,1.053-2.385,4.137,4.137,0,0,1,2.922-1.031,3.915,3.915,0,0,1,2.8,1.015,3.792,3.792,0,0,1,1.074,2.9v5.393a9.546,9.546,0,0,0,.086,1.294A8.243,8.243,0,0,0-13.938,104Zm-2.814-1.45A2.448,2.448,0,0,0-17.386,102a2.562,2.562,0,0,0,.9-1.337V98.6H-18.3a2.005,2.005,0,0,0-1.579.639,2.237,2.237,0,0,0-.569,1.542,2,2,0,0,0,.387,1.289A1.323,1.323,0,0,0-18.965,102.55Zm15.941-2.342h.064l1.482-7.831H.714L-1.993,104H-3.8l-2.148-7.541H-6.01L-8.094,104H-9.91l-2.718-11.623h2.181l1.525,7.745h.064l2.116-7.745h1.568ZM13.336,104q-.14-.526-.22-.94a5.922,5.922,0,0,1-.1-.822,4.268,4.268,0,0,1-1.219,1.423,2.812,2.812,0,0,1-1.724.564,3.052,3.052,0,0,1-2.39-.924,3.632,3.632,0,0,1-.833-2.524A3.166,3.166,0,0,1,8,98.188a4.943,4.943,0,0,1,3.217-.945H13V96.051a2.608,2.608,0,0,0-.473-1.66,1.626,1.626,0,0,0-1.354-.6,1.619,1.619,0,0,0-1.262.516,1.892,1.892,0,0,0-.467,1.321l-2.084.011-.021-.064A2.954,2.954,0,0,1,8.4,93.193a4.137,4.137,0,0,1,2.922-1.031,3.915,3.915,0,0,1,2.8,1.015,3.792,3.792,0,0,1,1.074,2.9v5.393a9.546,9.546,0,0,0,.086,1.294A8.243,8.243,0,0,0,15.549,104Zm-2.814-1.45A2.448,2.448,0,0,0,12.1,102a2.562,2.562,0,0,0,.9-1.337V98.6H11.188a2.005,2.005,0,0,0-1.579.639,2.237,2.237,0,0,0-.569,1.542,2,2,0,0,0,.387,1.289A1.323,1.323,0,0,0,10.522,102.55Zm9.142-10.173.129,1.729a3.927,3.927,0,0,1,1.246-1.434,2.971,2.971,0,0,1,1.708-.51A2.856,2.856,0,0,1,25.158,93.3a5.87,5.87,0,0,1,.865,3.545V104H23.842V96.856a4.345,4.345,0,0,0-.457-2.32,1.553,1.553,0,0,0-1.38-.677,2.127,2.127,0,0,0-1.289.392,2.745,2.745,0,0,0-.859,1.08V104H17.666V92.377Zm8.443,5.951a8.59,8.59,0,0,1,1.021-4.479A3.188,3.188,0,0,1,32,92.162a2.958,2.958,0,0,1,1.482.371A3.365,3.365,0,0,1,34.606,93.6V87.242h2.181V104h-1.8l-.226-1.4a3.447,3.447,0,0,1-1.182,1.208,3.081,3.081,0,0,1-1.6.414,3.221,3.221,0,0,1-2.852-1.552,7.426,7.426,0,0,1-1.015-4.12Zm2.17.226a6.473,6.473,0,0,0,.548,2.906,1.8,1.8,0,0,0,1.708,1.08,1.994,1.994,0,0,0,1.241-.387,2.783,2.783,0,0,0,.833-1.1V95.428a3.077,3.077,0,0,0-.838-1.144,1.867,1.867,0,0,0-1.225-.424A1.81,1.81,0,0,0,30.83,95.1a8,8,0,0,0-.553,3.228ZM44.908,104V93.935H43.372V92.377h1.536V90.884a4.161,4.161,0,0,1,.9-2.857,3.18,3.18,0,0,1,2.508-1.01,3.837,3.837,0,0,1,.661.059q.338.059.736.167l-.2,1.6a3.8,3.8,0,0,0-.43-.086,3.506,3.506,0,0,0-.494-.032,1.262,1.262,0,0,0-1.112.559,2.827,2.827,0,0,0-.381,1.6v1.493h1.923v1.558H47.088V104Zm12.063-1.7a3.741,3.741,0,0,1-1.2,1.423,3.146,3.146,0,0,1-4.2-.736,6.54,6.54,0,0,1-.9-3.835V92.377h2.191v6.8a5.657,5.657,0,0,0,.43,2.616,1.413,1.413,0,0,0,1.311.747,2.413,2.413,0,0,0,1.37-.376,2.523,2.523,0,0,0,.886-1.074V92.377h2.191V104H57.186Zm6.907,1.7H61.687V87.242h2.191Zm3.255,0V93.935H65.6V92.377h1.536V91.185a4.237,4.237,0,0,1,1.058-3.078,3.933,3.933,0,0,1,2.959-1.09,5.647,5.647,0,0,1,1.354.167,12.3,12.3,0,0,1,1.482.478l-.333,1.7a7.475,7.475,0,0,0-1.117-.381,5.042,5.042,0,0,0-1.246-.145,1.809,1.809,0,0,0-1.493.6,2.739,2.739,0,0,0-.483,1.756v1.192h2.02v1.558h-2.02V104Zm7.885,0H72.827V92.377h2.191Zm5,0H77.822V87.242h2.191Zm5,0H82.817V87.242h2.191Zm5,0H87.812V92.377H90Zm0-14.674H87.812V87.242H90Zm4.641,3.051.129,1.729a3.927,3.927,0,0,1,1.246-1.434,2.971,2.971,0,0,1,1.708-.51,2.856,2.856,0,0,1,2.412,1.139A5.87,5.87,0,0,1,101,96.846V104H98.823V96.856a4.345,4.345,0,0,0-.457-2.32,1.553,1.553,0,0,0-1.38-.677,2.127,2.127,0,0,0-1.289.392,2.745,2.745,0,0,0-.859,1.08V104H92.646V92.377ZM-75.765,124.06a6.946,6.946,0,0,1,1.225-4.243,3.955,3.955,0,0,1,3.362-1.654,3.969,3.969,0,0,1,3.368,1.654,6.924,6.924,0,0,1,1.23,4.243v.29a6.893,6.893,0,0,1-1.225,4.238,3.958,3.958,0,0,1-3.352,1.638,3.99,3.99,0,0,1-3.384-1.638,6.893,6.893,0,0,1-1.225-4.238Zm2.191.29a6.747,6.747,0,0,0,.6,3.04,1.932,1.932,0,0,0,1.821,1.182,1.91,1.91,0,0,0,1.789-1.187,6.754,6.754,0,0,0,.6-3.035v-.29a6.716,6.716,0,0,0-.6-3.024,1.927,1.927,0,0,0-1.8-1.2,1.917,1.917,0,0,0-1.8,1.2,6.768,6.768,0,0,0-.6,3.024Zm15.329,3.953a3.741,3.741,0,0,1-1.2,1.423,2.934,2.934,0,0,1-1.7.5,2.926,2.926,0,0,1-2.5-1.235,6.54,6.54,0,0,1-.9-3.835v-6.778h2.191v6.8a5.657,5.657,0,0,0,.43,2.616,1.413,1.413,0,0,0,1.311.747,2.413,2.413,0,0,0,1.37-.376,2.523,2.523,0,0,0,.886-1.074v-8.712h2.191V130h-1.858Zm9.561-8.11-.945-.054a1.64,1.64,0,0,0-1.144.414,2.649,2.649,0,0,0-.7,1.166V130h-2.191V118.377h2.009l.15,1.719a3.733,3.733,0,0,1,.988-1.423,2.08,2.08,0,0,1,1.386-.51,1.837,1.837,0,0,1,.381.038,2.1,2.1,0,0,1,.317.091Zm10.656,8.379a1.716,1.716,0,0,0,1.348-.623,2.48,2.48,0,0,0,.542-1.687h1.966l.021.064a3.591,3.591,0,0,1-1.106,2.771,3.814,3.814,0,0,1-2.771,1.128,3.839,3.839,0,0,1-3.319-1.638,7.023,7.023,0,0,1-1.171-4.184V124a7.053,7.053,0,0,1,1.171-4.184,3.831,3.831,0,0,1,3.319-1.649,3.682,3.682,0,0,1,2.831,1.176,4.2,4.2,0,0,1,1.058,3.056l-.021.054h-1.977a3.157,3.157,0,0,0-.521-1.885,1.611,1.611,0,0,0-1.37-.725,1.829,1.829,0,0,0-1.767,1.182A7.14,7.14,0,0,0-40.337,124v.408a7.218,7.218,0,0,0,.537,3A1.827,1.827,0,0,0-38.027,128.571Zm5.479-4.512a6.946,6.946,0,0,1,1.225-4.243,3.955,3.955,0,0,1,3.362-1.654,3.969,3.969,0,0,1,3.368,1.654,6.924,6.924,0,0,1,1.23,4.243v.29a6.893,6.893,0,0,1-1.225,4.238,3.958,3.958,0,0,1-3.352,1.638,3.99,3.99,0,0,1-3.384-1.638,6.893,6.893,0,0,1-1.225-4.238Zm2.191.29a6.747,6.747,0,0,0,.6,3.04,1.932,1.932,0,0,0,1.821,1.182,1.91,1.91,0,0,0,1.789-1.187,6.754,6.754,0,0,0,.6-3.035v-.29a6.716,6.716,0,0,0-.6-3.024,1.927,1.927,0,0,0-1.8-1.2,1.917,1.917,0,0,0-1.8,1.2,6.768,6.768,0,0,0-.6,3.024Zm11.075-5.973.118,1.579a3.615,3.615,0,0,1,1.23-1.327,3.2,3.2,0,0,1,1.735-.467,2.714,2.714,0,0,1,1.676.532,3.18,3.18,0,0,1,1.063,1.617,3.969,3.969,0,0,1,1.23-1.579,2.956,2.956,0,0,1,1.81-.569,2.753,2.753,0,0,1,2.379,1.23,6.547,6.547,0,0,1,.865,3.744V130H-9.367v-6.875a5.134,5.134,0,0,0-.451-2.541,1.48,1.48,0,0,0-1.343-.725,1.641,1.641,0,0,0-1.262.559,3.4,3.4,0,0,0-.747,1.472q.011.193.021.4t.011.424V130h-2.181v-6.875a5.055,5.055,0,0,0-.462-2.508,1.481,1.481,0,0,0-1.343-.757,1.893,1.893,0,0,0-1.2.387,2.55,2.55,0,0,0-.773,1.063V130h-2.191V118.377Zm16.618,0,.118,1.579a3.615,3.615,0,0,1,1.23-1.327,3.2,3.2,0,0,1,1.735-.467,2.714,2.714,0,0,1,1.676.532,3.18,3.18,0,0,1,1.063,1.617,3.969,3.969,0,0,1,1.23-1.579,2.956,2.956,0,0,1,1.81-.569,2.753,2.753,0,0,1,2.379,1.23,6.547,6.547,0,0,1,.865,3.744V130H7.251v-6.875a5.134,5.134,0,0,0-.451-2.541,1.48,1.48,0,0,0-1.343-.725,1.641,1.641,0,0,0-1.262.559,3.4,3.4,0,0,0-.747,1.472q.011.193.021.4t.011.424V130H1.3v-6.875a5.055,5.055,0,0,0-.462-2.508A1.481,1.481,0,0,0-.5,119.859a1.893,1.893,0,0,0-1.2.387,2.55,2.55,0,0,0-.773,1.063V130H-4.673V118.377ZM14.287,130H12.1V118.377h2.191Zm0-14.674H12.1v-2.084h2.191Zm5.468.161v2.89H21.57v1.558H19.755v6.918a2.269,2.269,0,0,0,.274,1.284.851.851,0,0,0,.725.381,1.751,1.751,0,0,0,.344-.032q.161-.032.376-.1l.226,1.5a3.423,3.423,0,0,1-.693.242,3.379,3.379,0,0,1-.79.091,2.441,2.441,0,0,1-1.955-.811,3.877,3.877,0,0,1-.7-2.562v-6.918H16.027v-1.558h1.536v-2.89Zm5.79,2.89.118,1.579a3.615,3.615,0,0,1,1.23-1.327,3.2,3.2,0,0,1,1.735-.467,2.714,2.714,0,0,1,1.676.532,3.18,3.18,0,0,1,1.063,1.617,3.969,3.969,0,0,1,1.23-1.579,2.956,2.956,0,0,1,1.81-.569,2.753,2.753,0,0,1,2.379,1.23,6.547,6.547,0,0,1,.865,3.744V130H35.46v-6.875a5.134,5.134,0,0,0-.451-2.541,1.48,1.48,0,0,0-1.343-.725,1.641,1.641,0,0,0-1.262.559,3.4,3.4,0,0,0-.747,1.472q.011.193.021.4t.011.424V130H29.509v-6.875a5.055,5.055,0,0,0-.462-2.508,1.481,1.481,0,0,0-1.343-.757,1.893,1.893,0,0,0-1.2.387,2.55,2.55,0,0,0-.773,1.063V130H23.536V118.377Zm18.82,11.849a4.059,4.059,0,0,1-3.4-1.59,6.569,6.569,0,0,1-1.23-4.136V124A6.819,6.819,0,0,1,40.96,119.8a3.815,3.815,0,0,1,3.2-1.638,3.522,3.522,0,0,1,3.024,1.407,6.239,6.239,0,0,1,1.037,3.781v1.225H41.916a5.739,5.739,0,0,0,.639,2.89,2.113,2.113,0,0,0,1.96,1.106,3.807,3.807,0,0,0,2.836-1.117l.709,1.354a4.633,4.633,0,0,1-1.531,1.01A5.439,5.439,0,0,1,44.365,130.226Zm-.2-10.388a1.709,1.709,0,0,0-1.5.875,5.216,5.216,0,0,0-.7,2.315h4.114v-.247a4.255,4.255,0,0,0-.467-2.127A1.552,1.552,0,0,0,44.161,119.838Zm8-1.461.129,1.729a3.927,3.927,0,0,1,1.246-1.434,2.971,2.971,0,0,1,1.708-.51,2.856,2.856,0,0,1,2.412,1.139,5.87,5.87,0,0,1,.865,3.545V130H56.343v-7.144a4.345,4.345,0,0,0-.457-2.32,1.553,1.553,0,0,0-1.38-.677,2.127,2.127,0,0,0-1.289.392,2.745,2.745,0,0,0-.859,1.08V130H50.166V118.377Zm11.655-2.89v2.89h1.815v1.558H63.819v6.918a2.269,2.269,0,0,0,.274,1.284.851.851,0,0,0,.725.381,1.751,1.751,0,0,0,.344-.032q.161-.032.376-.1l.226,1.5a3.423,3.423,0,0,1-.693.242,3.379,3.379,0,0,1-.79.091,2.441,2.441,0,0,1-1.955-.811,3.877,3.877,0,0,1-.7-2.562v-6.918H60.092v-1.558h1.536v-2.89Zm9.3,11.58a1.548,1.548,0,0,0-.451-1.133,6.038,6.038,0,0,0-1.729-1.026,8.671,8.671,0,0,1-2.686-1.472,2.611,2.611,0,0,1-.892-2.041,2.935,2.935,0,0,1,1.08-2.288,4.109,4.109,0,0,1,2.809-.945,4.032,4.032,0,0,1,2.89,1.037,3.189,3.189,0,0,1,1.053,2.508l-.021.064H73.068a2.174,2.174,0,0,0-.489-1.423,1.625,1.625,0,0,0-1.327-.6,1.764,1.764,0,0,0-1.305.467,1.494,1.494,0,0,0-.467,1.09,1.373,1.373,0,0,0,.4,1.047,7.118,7.118,0,0,0,1.724.983,7.941,7.941,0,0,1,2.745,1.493,2.774,2.774,0,0,1,.918,2.127,2.9,2.9,0,0,1-1.112,2.358,4.466,4.466,0,0,1-2.917.908,4.23,4.23,0,0,1-3.078-1.09,3.267,3.267,0,0,1-1.069-2.551l.021-.064h2.03a2.123,2.123,0,0,0,.639,1.627,2.238,2.238,0,0,0,1.488.5,1.942,1.942,0,0,0,1.359-.446A1.467,1.467,0,0,0,73.122,127.067ZM79.729,130h-2.2v-2.181h2.2Z" transform="translate(148 146)" fill="#fff"/>
  </g>
</svg>
