<svg xmlns="http://www.w3.org/2000/svg" xmlns:xlink="http://www.w3.org/1999/xlink" width="418" height="482" viewBox="0 0 418 482">
  <defs>
    <clipPath id="clip-ISO-path">
      <rect width="418" height="482"/>
    </clipPath>
  </defs>
  <g id="ISO-path" clip-path="url(#clip-ISO-path)">
    <path id="Trazado_7228" data-name="Trazado 7228" d="M-25.11,0h-6.86V-35.547h6.86ZM-3.552-9.229a4.9,4.9,0,0,0-1.086-3.357,10.809,10.809,0,0,0-3.894-2.4,25.056,25.056,0,0,1-8.228-4.37A8.651,8.651,0,0,1-19.519-26.2a9,9,0,0,1,3.149-7.117A11.777,11.777,0,0,1-8.337-36.06,11.734,11.734,0,0,1-.012-33.13,9.933,9.933,0,0,1,3.04-25.269l-.049.146H-3.7a6.242,6.242,0,0,0-1.233-4.187,4.407,4.407,0,0,0-3.528-1.428,3.8,3.8,0,0,0-3.076,1.306,4.89,4.89,0,0,0-1.1,3.259,3.912,3.912,0,0,0,1.245,2.979A16.672,16.672,0,0,0-7.117-20.63a19.915,19.915,0,0,1,7.8,4.321A9.428,9.428,0,0,1,3.333-9.277,8.885,8.885,0,0,1,.232-2.1,12.346,12.346,0,0,1-8,.513a13.562,13.562,0,0,1-8.643-2.82q-3.589-2.82-3.467-8.582l.049-.146h6.714q0,3.345,1.355,4.81A5.172,5.172,0,0,0-8-4.761,4.283,4.283,0,0,0-4.663-5.981,4.639,4.639,0,0,0-3.552-9.229ZM33.02-12.793q0,6.274-3.54,9.79A12.786,12.786,0,0,1,20.056.513,12.7,12.7,0,0,1,10.657-3q-3.516-3.516-3.516-9.79v-9.912q0-6.25,3.5-9.8a12.589,12.589,0,0,1,9.387-3.552,12.754,12.754,0,0,1,9.436,3.552q3.552,3.552,3.552,9.8Zm-6.86-9.985a9.266,9.266,0,0,0-1.575-5.859,5.477,5.477,0,0,0-4.553-1.978,5.346,5.346,0,0,0-4.517,1.965Q14-26.685,14-22.778v9.985q0,3.955,1.526,5.933a5.366,5.366,0,0,0,4.529,1.978A5.435,5.435,0,0,0,24.609-6.86q1.55-1.978,1.55-5.933ZM-99.634,41.142a4.274,4.274,0,0,0,3.613-1.99A9.358,9.358,0,0,0-94.6,33.646V31.229a7.112,7.112,0,0,1-2.478,2.246,6.4,6.4,0,0,1-3.04.757A8.33,8.33,0,0,1-107.068,31q-2.527-3.235-2.527-8.7a13.021,13.021,0,0,1,3.052-8.813A9.851,9.851,0,0,1-98.73,9.94a10,10,0,0,1,7.959,3.625q3.1,3.625,3.1,10.046v9.619q0,6.079-3.394,9.68a11.272,11.272,0,0,1-8.569,3.6,15.6,15.6,0,0,1-3.442-.4,15.8,15.8,0,0,1-3.32-1.135l1.147-5a13.559,13.559,0,0,0,2.673.891A14.052,14.052,0,0,0-99.634,41.142Zm.781-11.987a4.554,4.554,0,0,0,2.478-.684A5.374,5.374,0,0,0-94.6,26.64V22.392a10.026,10.026,0,0,0-1.123-5.249,3.388,3.388,0,0,0-2.979-1.807,3.276,3.276,0,0,0-2.905,2.039,10.24,10.24,0,0,0-1.1,4.919,10.74,10.74,0,0,0,.989,4.968A3.107,3.107,0,0,0-98.853,29.154Zm37.6,3.955q0,6.274-3,9.839a9.837,9.837,0,0,1-7.91,3.564,9.951,9.951,0,0,1-8-3.564q-3.015-3.564-3.015-9.839V23.368q0-6.226,3-9.827a9.847,9.847,0,0,1,7.959-3.6,9.856,9.856,0,0,1,7.947,3.6q3.015,3.6,3.015,9.827Zm-6.909-10.352a11.362,11.362,0,0,0-1.086-5.469,3.3,3.3,0,0,0-2.966-1.953,3.282,3.282,0,0,0-2.991,1.953,11.584,11.584,0,0,0-1.062,5.469V33.671A11.586,11.586,0,0,0-75.2,39.2a3.326,3.326,0,0,0,3.027,1.941A3.251,3.251,0,0,0-69.226,39.2a11.7,11.7,0,0,0,1.062-5.53ZM-35.01,33.109q0,6.274-3,9.839a9.837,9.837,0,0,1-7.91,3.564,9.951,9.951,0,0,1-8-3.564q-3.015-3.564-3.015-9.839V23.368q0-6.226,3-9.827a9.847,9.847,0,0,1,7.959-3.6,9.856,9.856,0,0,1,7.947,3.6q3.015,3.6,3.015,9.827Zm-6.909-10.352a11.362,11.362,0,0,0-1.086-5.469,3.3,3.3,0,0,0-2.966-1.953,3.282,3.282,0,0,0-2.991,1.953,11.584,11.584,0,0,0-1.062,5.469V33.671A11.586,11.586,0,0,0-48.95,39.2a3.326,3.326,0,0,0,3.027,1.941A3.251,3.251,0,0,0-42.981,39.2a11.7,11.7,0,0,0,1.062-5.53ZM-14.771,46H-21.68V16.435l-6.494.171v-5.3l13.4-1.367ZM3.271,46H-3.516V39.823H3.271Zm0-21.387H-3.516V18.437H3.271ZM30.957,46H9.18V41.41l9.839-12.427A27.311,27.311,0,0,0,22.034,24.1a9.271,9.271,0,0,0,.916-3.735,6.616,6.616,0,0,0-.891-3.674,3.057,3.057,0,0,0-2.747-1.355,3.279,3.279,0,0,0-2.966,1.721,8.431,8.431,0,0,0-1.038,4.407H8.545l-.073-.146a11.261,11.261,0,0,1,2.881-8.069A10.184,10.184,0,0,1,19.312,9.94q5.054,0,7.825,2.8a10.328,10.328,0,0,1,2.771,7.6,11.637,11.637,0,0,1-1.6,5.981,60.946,60.946,0,0,1-5.359,7.3l-4.834,7.007H30.957ZM56.909,33.109q0,6.274-3,9.839A9.837,9.837,0,0,1,46,46.513a9.951,9.951,0,0,1-8-3.564q-3.015-3.564-3.015-9.839V23.368q0-6.226,3-9.827a9.847,9.847,0,0,1,7.959-3.6,9.856,9.856,0,0,1,7.947,3.6q3.015,3.6,3.015,9.827ZM50,22.758a11.362,11.362,0,0,0-1.086-5.469,3.248,3.248,0,0,0-5.957,0,11.584,11.584,0,0,0-1.062,5.469V33.671a11.586,11.586,0,0,0,1.074,5.53A3.326,3.326,0,0,0,46,41.142,3.251,3.251,0,0,0,48.938,39.2,11.7,11.7,0,0,0,50,33.671ZM77.148,46H70.239V16.435l-6.494.171v-5.3l13.4-1.367ZM88.354,30.3,90.21,10.453h18.213V16H95.874l-.854,8.618a7.763,7.763,0,0,1,2.258-1.27,8.917,8.917,0,0,1,2.893-.562,8.071,8.071,0,0,1,6.921,3.052q2.429,3.125,2.429,8.765a13.3,13.3,0,0,1-2.673,8.569q-2.673,3.345-8.264,3.345A11.867,11.867,0,0,1,90.869,43.9a8.37,8.37,0,0,1-3.1-7.129l.049-.122,6.689-.342a5.2,5.2,0,0,0,1.123,3.564,3.754,3.754,0,0,0,2.954,1.27,3.25,3.25,0,0,0,3.064-1.66,9.989,9.989,0,0,0,.94-4.834,10.157,10.157,0,0,0-1.05-5.017,3.424,3.424,0,0,0-3.174-1.843,3.841,3.841,0,0,0-2.588.781,4.044,4.044,0,0,0-1.245,2.148ZM-60.767,79.451H-73.12v-5.4h12.354Zm19.092,0H-54.028v-5.4h12.354Zm19.092,0H-34.937v-5.4h12.354Zm19.092,0H-15.845v-5.4H-3.491Zm19.092,0H3.247v-5.4H15.6Zm19.092,0H22.339v-5.4H34.692Zm19.092,0H41.431v-5.4H53.784Zm19.092,0H60.522v-5.4H72.876Zm-122.253,56.12a1.267,1.267,0,0,0,1.111-.543,2.706,2.706,0,0,0,.378-1.556h3.113l.037.073a4.468,4.468,0,0,1-1.288,3.387,4.541,4.541,0,0,1-3.351,1.324,4.654,4.654,0,0,1-3.973-1.862,7.858,7.858,0,0,1-1.385-4.816v-.354a7.869,7.869,0,0,1,1.385-4.8,4.63,4.63,0,0,1,3.961-1.874,4.429,4.429,0,0,1,3.418,1.373,5.118,5.118,0,0,1,1.233,3.7l-.024.061h-3.125a3.593,3.593,0,0,0-.378-1.77,1.216,1.216,0,0,0-1.123-.671,1.5,1.5,0,0,0-1.489,1.093,8.3,8.3,0,0,0-.415,2.887v.354a8.31,8.31,0,0,0,.415,2.917A1.505,1.505,0,0,0-49.377,135.571Zm11.438,2.686a4.888,4.888,0,0,1-4.053-1.807,7.231,7.231,0,0,1-1.44-4.651v-.5a8,8,0,0,1,1.385-4.871,4.563,4.563,0,0,1,3.9-1.88,4.264,4.264,0,0,1,3.577,1.6,6.9,6.9,0,0,1,1.245,4.346v1.88H-39.99a4.64,4.64,0,0,0,.665,2.332,2,2,0,0,0,1.788.867,5.313,5.313,0,0,0,1.715-.238,6.967,6.967,0,0,0,1.483-.751l.891,2.148a5.707,5.707,0,0,1-1.91,1.086A7.463,7.463,0,0,1-37.939,138.256Zm-.208-11.011a1.378,1.378,0,0,0-1.288.763,5.278,5.278,0,0,0-.531,2.094h3.271V129.8a4.281,4.281,0,0,0-.336-1.88A1.155,1.155,0,0,0-38.147,127.246Zm12.744.525-1.172-.037a1.493,1.493,0,0,0-.958.305,1.93,1.93,0,0,0-.592.854V138h-3.43V124.792h3.21l.134,1.868a4.065,4.065,0,0,1,.97-1.556,1.932,1.932,0,0,1,1.361-.555,2,2,0,0,1,.427.043q.2.043.4.1Zm5.859-6.262v3.284h1.794v2.454h-1.794v6.726a2.189,2.189,0,0,0,.244,1.2.773.773,0,0,0,.671.354,2.194,2.194,0,0,0,.4-.031,3.6,3.6,0,0,0,.391-.1l.269,2.539a6.043,6.043,0,0,1-.934.25,5.778,5.778,0,0,1-1.007.079,3.247,3.247,0,0,1-2.582-1.025,4.838,4.838,0,0,1-.9-3.235v-6.75h-1.6v-2.454h1.6v-3.284ZM-12.219,138h-3.442V124.792h3.442Zm0-16.418h-3.442v-2.625h3.442ZM-9.021,138V127.246h-1.648v-2.454h1.648v-.9a5.139,5.139,0,0,1,1.373-3.839A5.3,5.3,0,0,1-3.772,118.7a8.022,8.022,0,0,1,1.709.183,17.222,17.222,0,0,1,1.88.537l-.476,2.759a13.487,13.487,0,0,0-1.4-.421,6.525,6.525,0,0,0-1.489-.153,1.9,1.9,0,0,0-1.514.586,2.5,2.5,0,0,0-.513,1.7v.9h2.161v2.454H-5.579V138ZM1.4,138H-2.051V124.792H1.4Zm7.507.256a4.888,4.888,0,0,1-4.053-1.807,7.231,7.231,0,0,1-1.44-4.651v-.5A8,8,0,0,1,4.8,126.428a4.563,4.563,0,0,1,3.9-1.88,4.264,4.264,0,0,1,3.577,1.6,6.9,6.9,0,0,1,1.245,4.346v1.88H6.86a4.64,4.64,0,0,0,.665,2.332,2,2,0,0,0,1.788.867,5.313,5.313,0,0,0,1.715-.238,6.967,6.967,0,0,0,1.483-.751l.891,2.148a5.707,5.707,0,0,1-1.91,1.086A7.463,7.463,0,0,1,8.911,138.256ZM8.7,127.246a1.378,1.378,0,0,0-1.288.763,5.278,5.278,0,0,0-.531,2.094h3.271V129.8a4.281,4.281,0,0,0-.336-1.88A1.155,1.155,0,0,0,8.7,127.246Zm6.128,4.224a9.559,9.559,0,0,1,1.16-5.017,3.646,3.646,0,0,1,3.284-1.9,2.768,2.768,0,0,1,1.434.378A3.789,3.789,0,0,1,21.851,126v-7.043h3.442V138H22.351l-.256-1.489a3.918,3.918,0,0,1-1.233,1.3,2.961,2.961,0,0,1-1.611.446,3.674,3.674,0,0,1-3.259-1.788,8.6,8.6,0,0,1-1.16-4.742Zm3.418.256a7.284,7.284,0,0,0,.439,2.814,1.5,1.5,0,0,0,1.453,1.019,1.882,1.882,0,0,0,.995-.262,2,2,0,0,0,.714-.775v-6.067a2.358,2.358,0,0,0-.72-.879,1.629,1.629,0,0,0-.977-.317,1.532,1.532,0,0,0-1.453,1.16,8.562,8.562,0,0,0-.452,3.052Zm25.354,0a8.769,8.769,0,0,1-1.129,4.761,3.675,3.675,0,0,1-3.3,1.77,3.051,3.051,0,0,1-1.66-.446,3.735,3.735,0,0,1-1.208-1.288L36.072,138H33.13V118.957h3.43v7.007a3.431,3.431,0,0,1,1.123-1.05,2.946,2.946,0,0,1,1.477-.366,3.636,3.636,0,0,1,3.314,1.88,9.742,9.742,0,0,1,1.129,5.042Zm-3.442-.256a9.436,9.436,0,0,0-.4-3.1,1.483,1.483,0,0,0-1.477-1.111,1.745,1.745,0,0,0-1.031.305,2.105,2.105,0,0,0-.69.854v6.14a1.783,1.783,0,0,0,.684.751,2.046,2.046,0,0,0,1.05.25,1.458,1.458,0,0,0,1.477-.977,8.051,8.051,0,0,0,.391-2.856Zm9.412,1.2v.037h.073l1.978-7.91h3.7l-4.553,15.2a7.149,7.149,0,0,1-1.343,2.386,3.251,3.251,0,0,1-2.576.958,3.657,3.657,0,0,1-.739-.067q-.323-.067-.909-.214l.415-2.527.262.049a1.336,1.336,0,0,0,.25.024,1.522,1.522,0,0,0,1.154-.415,2.485,2.485,0,0,0,.58-1.086l.33-1.013-3.979-13.293h3.7ZM-51.7,176.31h-8.887l-2,7.69h-7.178l10.083-35.547h7.129L-42.468,184h-7.2Zm-7.471-5.42h6.055l-2.954-11.279h-.146Zm37.3-2.588H-32.727v10.327h13.013V184h-19.9V148.453h19.849v5.4H-32.727v9.082h10.864ZM9.851,184H2.966L-8.313,161.319l-.146.024V184h-6.885V148.453h6.885L2.82,171.158l.146-.024V148.453H9.851ZM40.54,171.207q0,6.274-3.54,9.79a12.786,12.786,0,0,1-9.424,3.516,12.7,12.7,0,0,1-9.4-3.516q-3.516-3.516-3.516-9.79v-9.912q0-6.25,3.5-9.8a12.589,12.589,0,0,1,9.387-3.552,12.754,12.754,0,0,1,9.436,3.552q3.552,3.552,3.552,9.8Zm-6.86-9.985a9.266,9.266,0,0,0-1.575-5.859,5.477,5.477,0,0,0-4.553-1.978,5.346,5.346,0,0,0-4.517,1.965q-1.514,1.965-1.514,5.872v9.985q0,3.955,1.526,5.933a5.366,5.366,0,0,0,4.529,1.978,5.435,5.435,0,0,0,4.553-1.978q1.55-1.978,1.55-5.933Zm18.555,8.521V184H45.349V148.478H55.994q5.3,0,8.337,2.759a9.858,9.858,0,0,1,3.04,7.69,8.762,8.762,0,0,1-1.282,4.785,8.936,8.936,0,0,1-3.7,3.223,6.864,6.864,0,0,1,4,3.076,10.747,10.747,0,0,1,1.221,5.371v2.588a15.286,15.286,0,0,0,.342,3.125,4.18,4.18,0,0,0,1.221,2.393V184H62.048a4.07,4.07,0,0,1-1.086-2.551,27.127,27.127,0,0,1-.232-3.528v-2.49a6.855,6.855,0,0,0-1.123-4.2,3.793,3.793,0,0,0-3.223-1.489Zm0-5.371h3.711a4.244,4.244,0,0,0,3.381-1.331,5.563,5.563,0,0,0,1.16-3.772,6.246,6.246,0,0,0-1.147-3.955,3.993,3.993,0,0,0-3.345-1.465h-3.76Z" transform="translate(209 215)" fill="#5e5b5c" opacity="0.4"/>
    <g id="Trazado_7227" data-name="Trazado 7227" transform="translate(56 127)" fill="none">
      <path d="M68,0H239a68,68,0,0,1,68,68V253a68,68,0,0,1-68,68H68A68,68,0,0,1,0,253V68A68,68,0,0,1,68,0Z" stroke="none"/>
      <path d="M 68 2 C 59.08917236328125 2 50.44595336914063 3.7447509765625 42.3104248046875 7.185791015625 C 38.40008544921875 8.8397216796875 34.62841796875 10.886962890625 31.10015869140625 13.27056884765625 C 27.60491943359375 15.63192749023438 24.31808471679688 18.34384155273438 21.33096313476563 21.33096313476563 C 18.34384155273438 24.31808471679688 15.63192749023438 27.60491943359375 13.27056884765625 31.10015869140625 C 10.886962890625 34.62841796875 8.8397216796875 38.40008544921875 7.185791015625 42.3104248046875 C 3.7447509765625 50.44595336914063 2 59.08917236328125 2 68 L 2 253 C 2 261.9108276367188 3.7447509765625 270.5540466308594 7.185791015625 278.6895446777344 C 8.8397216796875 282.5998840332031 10.886962890625 286.37158203125 13.27056884765625 289.8998413085938 C 15.63192749023438 293.3950805664063 18.34384155273438 296.6819152832031 21.33096313476563 299.6690368652344 C 24.31808471679688 302.6561584472656 27.60491943359375 305.3680725097656 31.10015869140625 307.7294311523438 C 34.62841796875 310.113037109375 38.40008544921875 312.1602783203125 42.3104248046875 313.814208984375 C 50.44595336914063 317.2552490234375 59.08917236328125 319 68 319 L 239 319 C 247.9108276367188 319 256.5540466308594 317.2552490234375 264.6895446777344 313.814208984375 C 268.5998840332031 312.1602783203125 272.37158203125 310.113037109375 275.8998413085938 307.7294311523438 C 279.3950805664063 305.3680725097656 282.6819152832031 302.6561584472656 285.6690368652344 299.6690368652344 C 288.6561584472656 296.6819152832031 291.3680725097656 293.3950805664063 293.7294311523438 289.8998413085938 C 296.113037109375 286.37158203125 298.1602783203125 282.5998840332031 299.814208984375 278.6895446777344 C 303.2552490234375 270.5540466308594 305 261.9108276367188 305 253 L 305 68 C 305 59.08917236328125 303.2552490234375 50.44595336914063 299.814208984375 42.3104248046875 C 298.1602783203125 38.40008544921875 296.113037109375 34.62841796875 293.7294311523438 31.10015869140625 C 291.3680725097656 27.60491943359375 288.6561584472656 24.31808471679688 285.6690368652344 21.33096313476563 C 282.6819152832031 18.34384155273438 279.3950805664063 15.63192749023438 275.8998413085938 13.27056884765625 C 272.37158203125 10.886962890625 268.5998840332031 8.8397216796875 264.6895446777344 7.185791015625 C 256.5540466308594 3.7447509765625 247.9108276367188 2 239 2 L 68 2 M 68 0 L 239 0 C 276.5553283691406 0 307 30.44461059570313 307 68 L 307 253 C 307 290.5553283691406 276.5553283691406 321 239 321 L 68 321 C 30.44461059570313 321 0 290.5553283691406 0 253 L 0 68 C 0 30.44461059570313 30.44461059570313 0 68 0 Z" stroke="none" fill="#a2a2a2"/>
    </g>
    <path id="Trazado_7229" data-name="Trazado 7229" d="M-127.544-7.676a10.1,10.1,0,0,1-.337,2.688,7.542,7.542,0,0,1-.967,2.175l2.593,2.959-2.666,2.168-2.534-2.842a7.525,7.525,0,0,1-1.824.63,9.9,9.9,0,0,1-2.043.205,7.622,7.622,0,0,1-5.64-2.109,7.94,7.94,0,0,1-2.109-5.874v-5.947a8.012,8.012,0,0,1,2.1-5.881,7.553,7.553,0,0,1,5.632-2.131,7.652,7.652,0,0,1,5.662,2.131,7.948,7.948,0,0,1,2.131,5.881Zm-4.116-5.991a5.56,5.56,0,0,0-.945-3.516,3.286,3.286,0,0,0-2.732-1.187,3.208,3.208,0,0,0-2.71,1.179,5.72,5.72,0,0,0-.908,3.523v5.991a5.776,5.776,0,0,0,.916,3.56,3.22,3.22,0,0,0,2.717,1.187,3.261,3.261,0,0,0,2.732-1.187,5.708,5.708,0,0,0,.93-3.56Zm22.339-7.661V-7.4a7.554,7.554,0,0,1-2.087,5.669A7.463,7.463,0,0,1-116.851.308a7.4,7.4,0,0,1-5.42-2.043,7.575,7.575,0,0,1-2.08-5.662V-21.328h4.116V-7.4a5.282,5.282,0,0,0,.908,3.333,2.985,2.985,0,0,0,2.476,1.15,3,3,0,0,0,2.5-1.143,5.307,5.307,0,0,0,.9-3.34V-21.328ZM-97.061-4.614h-5.332L-103.594,0H-107.9l6.05-21.328h4.277L-91.523,0h-4.321Zm-4.482-3.252h3.633l-1.772-6.768h-.088Zm15.864,4.644h7.954V0H-89.81V-21.328h4.131ZM-70.9,0h-4.116V-21.328H-70.9Zm15.938-18.091h-5.01V0h-4.146V-18.091h-4.878v-3.237h14.033Zm8.921,6.035h.088l3.677-9.272h4.512L-43.989-7.6V0h-4.116V-7.866l-6.108-13.462H-49.7ZM-20.1-5.508h.088l4-15.82h5.405V0h-4.1V-13.433l-.088-.015L-18.647,0h-2.769l-3.823-13.345-.088.015V0h-4.116V-21.328h5.376Zm22.427.894H-3L-4.2,0H-8.511l6.05-21.328H1.816L7.866,0H3.545ZM-2.153-7.866H1.479L-.293-14.634H-.381ZM24.7,0H20.566L13.8-13.608l-.088.015V0H9.58V-21.328h4.131L20.479-7.705l.088-.015V-21.328H24.7ZM37.705-4.614H32.373L31.172,0H26.865l6.05-21.328h4.277L43.242,0H38.921ZM33.223-7.866h3.633l-1.772-6.768H35ZM59.077-2.812a7.5,7.5,0,0,1-2.629,2.2A9.377,9.377,0,0,1,52,.308a7.648,7.648,0,0,1-5.544-2.014,7.579,7.579,0,0,1-2.087-5.72V-13.9A7.709,7.709,0,0,1,46.4-19.614a7.272,7.272,0,0,1,5.369-2.021,7.471,7.471,0,0,1,5.259,1.648,5.928,5.928,0,0,1,1.714,4.695l-.029.088H54.829a3.416,3.416,0,0,0-.732-2.432,2.936,2.936,0,0,0-2.212-.762,3.014,3.014,0,0,0-2.49,1.113,5.291,5.291,0,0,0-.894,3.354v6.5a5.31,5.31,0,0,0,.908,3.4A3.155,3.155,0,0,0,52-2.915a5.057,5.057,0,0,0,1.89-.286,2.532,2.532,0,0,0,1.055-.754V-8.262H51.694v-2.856h7.383ZM72.7-9.419H66.182v6.2h7.808V0H62.051V-21.328H73.96v3.237H66.182v5.449H72.7ZM85.869-5.508h.088l4-15.82h5.405V0h-4.1V-13.433l-.088-.015L87.319,0H84.551L80.728-13.345l-.088.015V0H76.523V-21.328H81.9Zm23.35-3.911H102.7v6.2h7.808V0H98.569V-21.328h11.909v3.237H102.7v5.449h6.519ZM128.247,0h-4.131l-6.768-13.608-.088.015V0H113.13V-21.328h4.131l6.768,13.623.088-.015V-21.328h4.131Zm15.688-18.091h-5.01V0H134.78V-18.091H129.9v-3.237h14.033ZM-39.1,39.463a2.939,2.939,0,0,0-.652-2.014,6.485,6.485,0,0,0-2.336-1.443,15.034,15.034,0,0,1-4.937-2.622,5.19,5.19,0,0,1-1.655-4.1,5.4,5.4,0,0,1,1.89-4.27,7.066,7.066,0,0,1,4.819-1.648,7.04,7.04,0,0,1,5,1.758,5.96,5.96,0,0,1,1.831,4.717l-.029.088h-4.014a3.745,3.745,0,0,0-.74-2.512,2.644,2.644,0,0,0-2.117-.857,2.28,2.28,0,0,0-1.846.784,2.934,2.934,0,0,0-.659,1.956,2.347,2.347,0,0,0,.747,1.787,10,10,0,0,0,2.563,1.538,11.949,11.949,0,0,1,4.68,2.593,5.657,5.657,0,0,1,1.589,4.219,5.331,5.331,0,0,1-1.86,4.307,7.407,7.407,0,0,1-4.937,1.567,8.137,8.137,0,0,1-5.186-1.692,5.972,5.972,0,0,1-2.08-5.149l.029-.088h4.028a4.185,4.185,0,0,0,.813,2.886,3.1,3.1,0,0,0,2.4.879,2.57,2.57,0,0,0,2-.732A2.783,2.783,0,0,0-39.1,39.463Zm13.477-6.519h.088l3.677-9.272h4.512L-23.569,37.4V45h-4.116V37.134l-6.108-13.462h4.512ZM-6.4,39.463a2.939,2.939,0,0,0-.652-2.014A6.485,6.485,0,0,0-9.39,36.006a15.034,15.034,0,0,1-4.937-2.622,5.19,5.19,0,0,1-1.655-4.1,5.4,5.4,0,0,1,1.89-4.27,7.066,7.066,0,0,1,4.819-1.648,7.04,7.04,0,0,1,5,1.758,5.96,5.96,0,0,1,1.831,4.717l-.029.088H-6.489a3.745,3.745,0,0,0-.74-2.512,2.644,2.644,0,0,0-2.117-.857,2.28,2.28,0,0,0-1.846.784,2.934,2.934,0,0,0-.659,1.956,2.347,2.347,0,0,0,.747,1.787A10,10,0,0,0-8.54,32.622a11.949,11.949,0,0,1,4.68,2.593,5.657,5.657,0,0,1,1.589,4.219,5.331,5.331,0,0,1-1.86,4.307,7.407,7.407,0,0,1-4.937,1.567,8.137,8.137,0,0,1-5.186-1.692,5.972,5.972,0,0,1-2.08-5.149l.029-.088h4.028a4.185,4.185,0,0,0,.813,2.886,3.1,3.1,0,0,0,2.4.879,2.57,2.57,0,0,0,2-.732A2.783,2.783,0,0,0-6.4,39.463ZM13.242,26.909H8.232V45H4.087V26.909H-.791V23.672H13.242Zm12.671,8.672H19.395v6.2H27.2V45H15.264V23.672H27.173v3.237H19.395v5.449h6.519Zm13.169,3.911h.088l4-15.82h5.405V45h-4.1V31.567l-.088-.015L40.532,45H37.764L33.94,31.655l-.088.015V45H29.736V23.672h5.376Z" transform="translate(209 65)" fill="#5e5b5c" opacity="0.5"/>
  </g>
</svg>
