<svg xmlns="http://www.w3.org/2000/svg" xmlns:xlink="http://www.w3.org/1999/xlink" width="562" height="738" viewBox="0 0 562 738">
  <defs>
    <filter id="Trazado_7208" x="0" y="0" width="562" height="738" filterUnits="userSpaceOnUse">
      <feOffset dy="20" input="SourceAlpha"/>
      <feGaussianBlur stdDeviation="23" result="blur"/>
      <feFlood flood-color="#010101" flood-opacity="0.129"/>
      <feComposite operator="in" in2="blur"/>
      <feComposite in="SourceGraphic"/>
    </filter>
    <filter id="Trazado_7198" x="158.855" y="51" width="243.562" height="243.703" filterUnits="userSpaceOnUse">
      <feOffset dy="9" input="SourceAlpha"/>
      <feGaussianBlur stdDeviation="15" result="blur-2"/>
      <feFlood flood-color="#010101" flood-opacity="0.122"/>
      <feComposite operator="in" in2="blur-2"/>
      <feComposite in="SourceGraphic"/>
    </filter>
    <clipPath id="clip-Quality-and-food-safety-path">
      <rect width="562" height="738"/>
    </clipPath>
  </defs>
  <g id="Quality-and-food-safety-path" clip-path="url(#clip-Quality-and-food-safety-path)">
    <g transform="matrix(1, 0, 0, 1, 0, 0)" filter="url(#Trazado_7208)">
      <path id="Trazado_7208-2" data-name="Trazado 7208" d="M74,0H350a74,74,0,0,1,74,74V526a74,74,0,0,1-74,74H74A74,74,0,0,1,0,526V74A74,74,0,0,1,74,0Z" transform="translate(69 49)" fill="#fff"/>
    </g>
    <path id="Trazado_7210" data-name="Trazado 7210" d="M-69.177-10.49a13.807,13.807,0,0,1-.46,3.674,10.307,10.307,0,0,1-1.321,2.973L-67.416.2l-3.644,2.963L-74.523-.721A10.285,10.285,0,0,1-77.015.14a13.528,13.528,0,0,1-2.793.28,10.416,10.416,0,0,1-7.708-2.883Q-90.4-5.345-90.4-10.49v-8.128q0-5.125,2.873-8.038a10.323,10.323,0,0,1,7.7-2.913,10.458,10.458,0,0,1,7.738,2.913q2.913,2.913,2.913,8.038ZM-74.8-18.678a7.6,7.6,0,0,0-1.291-4.8A4.491,4.491,0,0,0-79.828-25.1a4.384,4.384,0,0,0-3.7,1.612,7.817,7.817,0,0,0-1.241,4.815v8.188a7.894,7.894,0,0,0,1.251,4.865A4.4,4.4,0,0,0-79.808-4a4.457,4.457,0,0,0,3.734-1.622A7.8,7.8,0,0,0-74.8-10.49Zm21.1,15.6A6.981,6.981,0,0,1-55.854-.49,5.06,5.06,0,0,1-58.847.42a5.34,5.34,0,0,1-4.594-2.342q-1.672-2.342-1.672-7.247V-21.661h5.646V-9.129A9.732,9.732,0,0,0-58.9-5.115,1.887,1.887,0,0,0-57.106-4a3.8,3.8,0,0,0,1.722-.37,3.45,3.45,0,0,0,1.261-1.091v-16.2h5.666V0h-4.625ZM-33.983,0a9.529,9.529,0,0,1-.531-1.562,13.267,13.267,0,0,1-.31-1.722A7.663,7.663,0,0,1-36.716-.621,4.169,4.169,0,0,1-39.589.42a5.876,5.876,0,0,1-4.554-1.732,6.758,6.758,0,0,1-1.592-4.755,6.057,6.057,0,0,1,2.092-4.915q2.092-1.752,6.256-1.752h2.462v-1.8a4.366,4.366,0,0,0-.6-2.492,2.023,2.023,0,0,0-1.782-.871,1.875,1.875,0,0,0-1.582.7,3.22,3.22,0,0,0-.541,2l-5.445-.02-.04-.12a5.771,5.771,0,0,1,2.1-4.765,8.538,8.538,0,0,1,5.866-1.962A7.845,7.845,0,0,1-31.4-20.1a7.255,7.255,0,0,1,2.122,5.605v8.889a18.051,18.051,0,0,0,.22,2.883A16.924,16.924,0,0,0-28.378,0Zm-4.144-3.764a3.158,3.158,0,0,0,2-.691,3.468,3.468,0,0,0,1.2-1.672v-3.4h-2.462a2.36,2.36,0,0,0-2.072.921,3.928,3.928,0,0,0-.651,2.322,2.9,2.9,0,0,0,.541,1.822A1.729,1.729,0,0,0-38.127-3.764ZM-19.729,0h-5.646V-31.23h5.646Zm9.95,0h-5.646V-21.661H-9.78Zm0-26.926h-5.646v-4.3H-9.78Zm10.65-.12v5.385H3.814v4.024H.871V-6.606a3.59,3.59,0,0,0,.4,1.962,1.267,1.267,0,0,0,1.1.581,3.6,3.6,0,0,0,.661-.05,5.9,5.9,0,0,0,.641-.17L4.114-.12A9.91,9.91,0,0,1,2.583.29,9.477,9.477,0,0,1,.931.42,5.325,5.325,0,0,1-3.3-1.261Q-4.775-2.943-4.775-6.566V-17.637H-7.4v-4.024h2.623v-5.385Zm13.113,18.3v.06h.12l3.243-12.973h6.066L15.946,3.263a11.724,11.724,0,0,1-2.2,3.914A5.332,5.332,0,0,1,9.519,8.749a6,6,0,0,1-1.211-.11q-.531-.11-1.491-.35L7.5,4.144l.43.08a2.191,2.191,0,0,0,.41.04,2.5,2.5,0,0,0,1.892-.681A4.076,4.076,0,0,0,11.181,1.8L11.721.14,5.2-21.661h6.066ZM45.274,0a9.529,9.529,0,0,1-.531-1.562,13.267,13.267,0,0,1-.31-1.722A7.663,7.663,0,0,1,42.542-.621,4.169,4.169,0,0,1,39.669.42a5.876,5.876,0,0,1-4.554-1.732,6.758,6.758,0,0,1-1.592-4.755,6.057,6.057,0,0,1,2.092-4.915q2.092-1.752,6.256-1.752h2.462v-1.8a4.366,4.366,0,0,0-.6-2.492,2.023,2.023,0,0,0-1.782-.871,1.875,1.875,0,0,0-1.582.7,3.22,3.22,0,0,0-.541,2l-5.445-.02-.04-.12a5.771,5.771,0,0,1,2.1-4.765,8.538,8.538,0,0,1,5.866-1.962A7.845,7.845,0,0,1,47.857-20.1a7.255,7.255,0,0,1,2.122,5.605v8.889a18.051,18.051,0,0,0,.22,2.883A16.924,16.924,0,0,0,50.88,0ZM41.13-3.764a3.158,3.158,0,0,0,2-.691,3.468,3.468,0,0,0,1.2-1.672v-3.4H41.871a2.36,2.36,0,0,0-2.072.921,3.928,3.928,0,0,0-.651,2.322,2.9,2.9,0,0,0,.541,1.822A1.729,1.729,0,0,0,41.13-3.764Zm17.657-17.9.24,3.023a7.361,7.361,0,0,1,2.252-2.522,5.186,5.186,0,0,1,2.973-.9,5.071,5.071,0,0,1,4.334,2.152q1.572,2.152,1.572,6.757V0H64.513V-13.153a7.3,7.3,0,0,0-.591-3.453,1.94,1.94,0,0,0-1.792-1.011,3.28,3.28,0,0,0-1.692.44,3.82,3.82,0,0,0-1.271,1.241V0H53.522V-21.661ZM73.041-10.71a15.677,15.677,0,0,1,1.9-8.228,5.98,5.98,0,0,1,5.385-3.123,4.539,4.539,0,0,1,2.352.621,6.213,6.213,0,0,1,1.872,1.762V-31.23H90.2V0H85.373l-.42-2.442A6.425,6.425,0,0,1,82.931-.31,4.857,4.857,0,0,1,80.288.42a6.025,6.025,0,0,1-5.345-2.933,14.112,14.112,0,0,1-1.9-7.778Zm5.605.42a11.945,11.945,0,0,0,.721,4.615A2.455,2.455,0,0,0,81.75-4a3.087,3.087,0,0,0,1.632-.43,3.286,3.286,0,0,0,1.171-1.271v-9.95A3.867,3.867,0,0,0,83.371-17.1a2.672,2.672,0,0,0-1.6-.521,2.513,2.513,0,0,0-2.382,1.9,14.042,14.042,0,0,0-.741,5Zm-157.8,44.1h-9.249V46h-5.646V16.852H-77.4v4.424H-88.406V29.4h9.249Zm3.523,1.161A12.806,12.806,0,0,1-73.3,27.011a7.755,7.755,0,0,1,6.556-3.073,7.815,7.815,0,0,1,6.566,3.073,12.692,12.692,0,0,1,2.362,7.958v.46a12.643,12.643,0,0,1-2.352,7.938,7.787,7.787,0,0,1-6.536,3.053,7.832,7.832,0,0,1-6.586-3.043,12.671,12.671,0,0,1-2.342-7.948Zm5.625.46a12.623,12.623,0,0,0,.751,4.8,2.606,2.606,0,0,0,2.552,1.782,2.573,2.573,0,0,0,2.482-1.782,12.473,12.473,0,0,0,.761-4.8v-.46a12.58,12.58,0,0,0-.761-4.795,2.6,2.6,0,0,0-2.522-1.812,2.584,2.584,0,0,0-2.512,1.822,12.747,12.747,0,0,0-.751,4.785Zm14.554-.46a12.806,12.806,0,0,1,2.332-7.958,7.755,7.755,0,0,1,6.556-3.073A7.815,7.815,0,0,1-40,27.011a12.692,12.692,0,0,1,2.362,7.958v.46a12.643,12.643,0,0,1-2.352,7.938,7.787,7.787,0,0,1-6.536,3.053,7.832,7.832,0,0,1-6.586-3.043,12.671,12.671,0,0,1-2.342-7.948Zm5.625.46a12.623,12.623,0,0,0,.751,4.8,2.606,2.606,0,0,0,2.552,1.782,2.573,2.573,0,0,0,2.482-1.782,12.473,12.473,0,0,0,.761-4.8v-.46a12.58,12.58,0,0,0-.761-4.795,2.6,2.6,0,0,0-2.522-1.812,2.584,2.584,0,0,0-2.512,1.822,12.747,12.747,0,0,0-.751,4.785Zm14.494-.14a15.677,15.677,0,0,1,1.9-8.228,5.98,5.98,0,0,1,5.385-3.123,4.539,4.539,0,0,1,2.352.621,6.213,6.213,0,0,1,1.872,1.762V14.77h5.646V46H-23l-.42-2.442a6.425,6.425,0,0,1-2.022,2.132,4.857,4.857,0,0,1-2.643.731,6.025,6.025,0,0,1-5.345-2.933,14.112,14.112,0,0,1-1.9-7.778Zm5.605.42a11.945,11.945,0,0,0,.721,4.615A2.455,2.455,0,0,0-26.626,42a3.087,3.087,0,0,0,1.632-.43,3.286,3.286,0,0,0,1.171-1.271v-9.95A3.867,3.867,0,0,0-25,28.9a2.672,2.672,0,0,0-1.6-.521,2.513,2.513,0,0,0-2.382,1.9,14.042,14.042,0,0,0-.741,5ZM7.888,38.433A4.017,4.017,0,0,0,7,35.68,8.863,8.863,0,0,0,3.8,33.708a20.546,20.546,0,0,1-6.747-3.583,7.094,7.094,0,0,1-2.262-5.605,7.382,7.382,0,0,1,2.583-5.836,9.657,9.657,0,0,1,6.586-2.252,9.622,9.622,0,0,1,6.827,2.4,8.145,8.145,0,0,1,2.5,6.446l-.04.12H7.768a5.118,5.118,0,0,0-1.011-3.433A3.614,3.614,0,0,0,3.864,20.8a3.116,3.116,0,0,0-2.522,1.071,4.01,4.01,0,0,0-.9,2.673,3.208,3.208,0,0,0,1.021,2.442,13.671,13.671,0,0,0,3.5,2.1,16.33,16.33,0,0,1,6.4,3.543,7.731,7.731,0,0,1,2.172,5.766,7.285,7.285,0,0,1-2.542,5.886A10.124,10.124,0,0,1,4.244,46.42a11.121,11.121,0,0,1-7.087-2.312Q-5.786,41.8-5.686,37.071l.04-.12H-.14A5.719,5.719,0,0,0,.971,40.9a4.241,4.241,0,0,0,3.273,1.2,3.512,3.512,0,0,0,2.733-1A3.8,3.8,0,0,0,7.888,38.433ZM27.647,46a9.529,9.529,0,0,1-.531-1.562,13.267,13.267,0,0,1-.31-1.722,7.663,7.663,0,0,1-1.892,2.663,4.169,4.169,0,0,1-2.873,1.041,5.876,5.876,0,0,1-4.554-1.732A6.758,6.758,0,0,1,15.9,39.934a6.057,6.057,0,0,1,2.092-4.915q2.092-1.752,6.256-1.752h2.462v-1.8a4.366,4.366,0,0,0-.6-2.492,2.023,2.023,0,0,0-1.782-.871,1.875,1.875,0,0,0-1.582.7,3.22,3.22,0,0,0-.541,2l-5.445-.02-.04-.12a5.771,5.771,0,0,1,2.1-4.765,8.538,8.538,0,0,1,5.866-1.962A7.845,7.845,0,0,1,30.229,25.9a7.255,7.255,0,0,1,2.122,5.605v8.889a18.051,18.051,0,0,0,.22,2.883A16.924,16.924,0,0,0,33.252,46ZM23.5,42.236a3.158,3.158,0,0,0,2-.691,3.468,3.468,0,0,0,1.2-1.672v-3.4H24.244a2.36,2.36,0,0,0-2.072.921,3.928,3.928,0,0,0-.651,2.322,2.9,2.9,0,0,0,.541,1.822A1.729,1.729,0,0,0,23.5,42.236ZM37.276,46V28.363h-2.7V24.339h2.7V21.9a7.723,7.723,0,0,1,1.892-5.585A7.065,7.065,0,0,1,44.5,14.349a8.025,8.025,0,0,1,1.321.11q.661.11,1.521.31l-.44,4.244q-.42-.1-.8-.16a5.862,5.862,0,0,0-.9-.06,1.96,1.96,0,0,0-1.7.811,3.892,3.892,0,0,0-.581,2.292v2.442h3.483v4.024H42.922V46Zm19.3.42a8.016,8.016,0,0,1-6.646-2.963,11.859,11.859,0,0,1-2.362-7.627v-.821a13.127,13.127,0,0,1,2.272-7.988,7.483,7.483,0,0,1,6.4-3.083A6.992,6.992,0,0,1,62.1,26.561a11.312,11.312,0,0,1,2.042,7.127v3.083H53.212A7.609,7.609,0,0,0,54.3,40.595a3.282,3.282,0,0,0,2.933,1.421,8.714,8.714,0,0,0,2.813-.39,11.425,11.425,0,0,0,2.432-1.231l1.461,3.523A9.36,9.36,0,0,1,60.809,45.7,12.24,12.24,0,0,1,56.575,46.42Zm-.34-18.058a2.261,2.261,0,0,0-2.112,1.251,8.657,8.657,0,0,0-.871,3.433h5.365v-.5a7.021,7.021,0,0,0-.551-3.083A1.9,1.9,0,0,0,56.235,28.363Zm17.417-9.409v5.385h2.943v4.024H73.652V39.394a3.59,3.59,0,0,0,.4,1.962,1.267,1.267,0,0,0,1.1.581,3.6,3.6,0,0,0,.661-.05,5.9,5.9,0,0,0,.641-.17l.44,4.164a9.91,9.91,0,0,1-1.531.41,9.477,9.477,0,0,1-1.652.13,5.325,5.325,0,0,1-4.234-1.682q-1.471-1.682-1.471-5.305V28.363H65.384V24.339h2.623V18.954Zm13.113,18.3v.06h.12l3.243-12.973h6.066L88.727,49.263a11.724,11.724,0,0,1-2.2,3.914A5.332,5.332,0,0,1,82.3,54.749a6,6,0,0,1-1.211-.11q-.531-.11-1.491-.35l.681-4.144.43.08a2.191,2.191,0,0,0,.41.04,2.5,2.5,0,0,0,1.892-.681,4.076,4.076,0,0,0,.951-1.782L84.5,46.14l-6.526-21.8h6.066Z" transform="translate(276 314.068)" fill="#50abed"/>
    <g transform="matrix(1, 0, 0, 1, 0, 0)" filter="url(#Trazado_7198)">
      <path id="Trazado_7198-2" data-name="Trazado 7198" d="M76.781,0a76.781,76.781,0,0,1,76.781,76.781v.142A76.781,76.781,0,0,1,0,76.923v-.142A76.781,76.781,0,0,1,76.781,0Z" transform="translate(203.86 87)" fill="#50abed"/>
    </g>
    <path id="Trazado_6210" data-name="Trazado 6210" d="M3311.938,4749.9a7.925,7.925,0,0,0-2.853-6.086,8.247,8.247,0,0,0,2.853-6.241v-23.2a13.2,13.2,0,0,0-6.556-11.382,9.312,9.312,0,0,1-4.625-8.03v-.094h.111a1.937,1.937,0,0,0,1.936-1.937v-8.708a1.936,1.936,0,0,0-1.936-1.936h-23.049a1.937,1.937,0,0,0-1.937,1.936v8.712a1.937,1.937,0,0,0,1.937,1.937h.11v.09a9.31,9.31,0,0,1-4.626,8.03,13.2,13.2,0,0,0-6.555,11.382v23.191a8.247,8.247,0,0,0,2.853,6.242,7.926,7.926,0,0,0-2.853,6.086v43.391a6.681,6.681,0,0,0,6.672,6.674h31.845a6.682,6.682,0,0,0,6.673-6.674Zm-3.873-17.729h-37.439v-13.6h37.439Zm-33.045,9.79a4.4,4.4,0,0,1-4.394-4.395v-1.522h37.439v1.523a4.4,4.4,0,0,1-4.394,4.394,1.937,1.937,0,0,0,0,3.874H3304a4.07,4.07,0,0,1,4.066,4.065v12.249a19.777,19.777,0,0,0-14.219,2.924c-4.61,2.89-7.7,3.068-12.113,2.357a38.779,38.779,0,0,0-11.111-1.889V4749.9a4.071,4.071,0,0,1,4.066-4.065h.332a1.937,1.937,0,0,0,0-3.874Zm20.888,26.393a15.972,15.972,0,0,1,11.546-2.389,10.449,10.449,0,0,1-4.63,4.833c-3.086,1.563-7.115,1.542-11.977,0A23.152,23.152,0,0,0,3295.908,4768.357ZM3291.283,4691v-4.835h1.937V4691Zm-5.809,0v-4.835h1.936V4691Zm13.463,0h-1.844v-4.835h1.844Zm-19.181-4.835h1.844V4691h-1.844Zm-4.5,20.183a13.194,13.194,0,0,0,6.555-11.38v-.094h15.077v.091a13.2,13.2,0,0,0,6.555,11.38,9.313,9.313,0,0,1,4.626,8.031v.319h-37.439v-.319a9.31,9.31,0,0,1,4.625-8.028Zm30.014,89.744h-31.839a2.8,2.8,0,0,1-2.8-2.8v-23.873a40.039,40.039,0,0,1,15.187,3.644,29.974,29.974,0,0,0,11.679,2.787,15.435,15.435,0,0,0,7.082-1.593,13.611,13.611,0,0,0,3.492-2.544v21.577a2.805,2.805,0,0,1-2.8,2.8Z" transform="translate(-3008.696 -4579.954)" fill="#fff"/>
    <path id="Trazado_7209" data-name="Trazado 7209" d="M-98.907-15.869h-4.712V0h-2.49V-15.869h-4.675v-1.9h11.877Zm.146,9.119a7.893,7.893,0,0,1,1.392-4.822,4.5,4.5,0,0,1,3.821-1.88,4.511,4.511,0,0,1,3.827,1.88,7.869,7.869,0,0,1,1.4,4.822v.33a7.833,7.833,0,0,1-1.392,4.816A4.5,4.5,0,0,1-93.524.256a4.534,4.534,0,0,1-3.845-1.862,7.833,7.833,0,0,1-1.392-4.816Zm2.49.33a7.667,7.667,0,0,0,.677,3.455,2.2,2.2,0,0,0,2.069,1.343,2.17,2.17,0,0,0,2.032-1.349,7.675,7.675,0,0,0,.677-3.448v-.33a7.632,7.632,0,0,0-.684-3.436,2.19,2.19,0,0,0-2.051-1.361,2.178,2.178,0,0,0-2.045,1.361,7.691,7.691,0,0,0-.677,3.436ZM-75.69.256A4.613,4.613,0,0,1-79.553-1.55a7.464,7.464,0,0,1-1.4-4.7v-.574a7.748,7.748,0,0,1,1.392-4.767,4.335,4.335,0,0,1,3.638-1.862,4,4,0,0,1,3.436,1.6,7.089,7.089,0,0,1,1.178,4.3v1.392h-7.166a6.522,6.522,0,0,0,.726,3.284,2.4,2.4,0,0,0,2.228,1.257,4.636,4.636,0,0,0,1.807-.323A4.62,4.62,0,0,0-72.3-2.893l.806,1.538A5.264,5.264,0,0,1-73.23-.208,6.181,6.181,0,0,1-75.69.256Zm-.232-11.8a1.943,1.943,0,0,0-1.709.995,5.927,5.927,0,0,0-.793,2.631h4.675V-8.2a4.835,4.835,0,0,0-.531-2.417A1.763,1.763,0,0,0-75.922-11.548Zm9.094-1.66.146,1.965a4.462,4.462,0,0,1,1.416-1.63,3.376,3.376,0,0,1,1.941-.58,3.245,3.245,0,0,1,2.74,1.294A6.67,6.67,0,0,1-59.6-8.13V0h-2.478V-8.118a4.937,4.937,0,0,0-.519-2.637,1.764,1.764,0,0,0-1.569-.769,2.417,2.417,0,0,0-1.465.446,3.119,3.119,0,0,0-.977,1.227V0H-69.1V-13.208Zm16.321,9.875a1.759,1.759,0,0,0-.513-1.288,6.861,6.861,0,0,0-1.965-1.166,9.854,9.854,0,0,1-3.052-1.672A2.967,2.967,0,0,1-57.05-9.778a3.335,3.335,0,0,1,1.227-2.6,4.669,4.669,0,0,1,3.192-1.074,4.582,4.582,0,0,1,3.284,1.178,3.624,3.624,0,0,1,1.2,2.85l-.024.073h-2.393a2.47,2.47,0,0,0-.555-1.617,1.846,1.846,0,0,0-1.508-.677,2,2,0,0,0-1.483.531,1.7,1.7,0,0,0-.531,1.239,1.56,1.56,0,0,0,.458,1.19,8.089,8.089,0,0,0,1.959,1.117,9.023,9.023,0,0,1,3.119,1.7,3.153,3.153,0,0,1,1.044,2.417A3.3,3.3,0,0,1-49.329-.775,5.075,5.075,0,0,1-52.643.256a4.807,4.807,0,0,1-3.5-1.239,3.713,3.713,0,0,1-1.215-2.9l.024-.073h2.307A2.413,2.413,0,0,0-54.3-2.106a2.543,2.543,0,0,0,1.691.568,2.207,2.207,0,0,0,1.544-.507A1.667,1.667,0,0,0-50.507-3.333Zm11.853,1.4A4.251,4.251,0,0,1-40.021-.311a3.334,3.334,0,0,1-1.929.568,3.325,3.325,0,0,1-2.844-1.4,7.432,7.432,0,0,1-1.025-4.358v-7.7h2.49v7.727a6.429,6.429,0,0,0,.488,2.972,1.606,1.606,0,0,0,1.489.848,2.742,2.742,0,0,0,1.556-.427,2.867,2.867,0,0,0,1.007-1.221v-9.9h2.49V0h-2.112Zm10.864-9.216-1.074-.061a1.863,1.863,0,0,0-1.3.47,3.011,3.011,0,0,0-.8,1.324V0h-2.49V-13.208h2.283L-31-11.255a4.243,4.243,0,0,1,1.123-1.617,2.363,2.363,0,0,1,1.575-.58,2.087,2.087,0,0,1,.433.043,2.385,2.385,0,0,1,.36.1Zm6.567,11.4A4.613,4.613,0,0,1-25.085-1.55a7.464,7.464,0,0,1-1.4-4.7v-.574a7.748,7.748,0,0,1,1.392-4.767,4.335,4.335,0,0,1,3.638-1.862,4,4,0,0,1,3.436,1.6,7.089,7.089,0,0,1,1.178,4.3v1.392h-7.166a6.522,6.522,0,0,0,.726,3.284,2.4,2.4,0,0,0,2.228,1.257,4.636,4.636,0,0,0,1.807-.323,4.62,4.62,0,0,0,1.416-.946l.806,1.538a5.264,5.264,0,0,1-1.74,1.147A6.181,6.181,0,0,1-21.222.256Zm-.232-11.8a1.943,1.943,0,0,0-1.709.995,5.927,5.927,0,0,0-.793,2.631h4.675V-8.2a4.835,4.835,0,0,0-.531-2.417A1.763,1.763,0,0,0-21.454-11.548Zm15.527-4.944v3.284h2.063v1.77H-5.927v7.861a2.579,2.579,0,0,0,.311,1.459.967.967,0,0,0,.824.433A1.99,1.99,0,0,0-4.4-1.721q.183-.037.427-.11l.256,1.709A3.891,3.891,0,0,1-4.5.153a3.84,3.84,0,0,1-.9.1A2.774,2.774,0,0,1-7.623-.665a4.406,4.406,0,0,1-.793-2.911v-7.861h-1.746v-1.77h1.746v-3.284ZM.836-11.438a4.377,4.377,0,0,1,1.379-1.483,3.29,3.29,0,0,1,1.831-.531,3.343,3.343,0,0,1,2.808,1.318A6.63,6.63,0,0,1,7.867-8.081V0H5.377V-8.105a4.941,4.941,0,0,0-.525-2.618,1.735,1.735,0,0,0-1.55-.8,2.571,2.571,0,0,0-1.471.415,3,3,0,0,0-.995,1.16V0h-2.49V-19.043H.836ZM15.46.256A4.613,4.613,0,0,1,11.6-1.55a7.464,7.464,0,0,1-1.4-4.7v-.574a7.748,7.748,0,0,1,1.392-4.767,4.335,4.335,0,0,1,3.638-1.862,4,4,0,0,1,3.436,1.6,7.089,7.089,0,0,1,1.178,4.3v1.392H12.677A6.522,6.522,0,0,0,13.4-2.881a2.4,2.4,0,0,0,2.228,1.257,4.636,4.636,0,0,0,1.807-.323,4.62,4.62,0,0,0,1.416-.946l.806,1.538A5.264,5.264,0,0,1,17.92-.208,6.181,6.181,0,0,1,15.46.256Zm-.232-11.8a1.943,1.943,0,0,0-1.709.995,5.927,5.927,0,0,0-.793,2.631H17.4V-8.2a4.835,4.835,0,0,0-.531-2.417A1.763,1.763,0,0,0,15.228-11.548Zm18.6,8.215a1.759,1.759,0,0,0-.513-1.288,6.861,6.861,0,0,0-1.965-1.166A9.854,9.854,0,0,1,28.3-7.458a2.967,2.967,0,0,1-1.013-2.319,3.335,3.335,0,0,1,1.227-2.6,4.669,4.669,0,0,1,3.192-1.074,4.582,4.582,0,0,1,3.284,1.178,3.624,3.624,0,0,1,1.2,2.85l-.024.073H33.771a2.47,2.47,0,0,0-.555-1.617,1.846,1.846,0,0,0-1.508-.677,2,2,0,0,0-1.483.531,1.7,1.7,0,0,0-.531,1.239,1.56,1.56,0,0,0,.458,1.19,8.089,8.089,0,0,0,1.959,1.117,9.023,9.023,0,0,1,3.119,1.7,3.153,3.153,0,0,1,1.044,2.417A3.3,3.3,0,0,1,35.01-.775,5.075,5.075,0,0,1,31.7.256,4.807,4.807,0,0,1,28.2-.983a3.713,3.713,0,0,1-1.215-2.9l.024-.073h2.307a2.413,2.413,0,0,0,.726,1.849,2.543,2.543,0,0,0,1.691.568,2.207,2.207,0,0,0,1.544-.507A1.667,1.667,0,0,0,33.832-3.333ZM45.441,0q-.159-.6-.25-1.068A6.729,6.729,0,0,1,45.074-2,4.85,4.85,0,0,1,43.689-.385,3.2,3.2,0,0,1,41.73.256a3.468,3.468,0,0,1-2.716-1.05,4.127,4.127,0,0,1-.946-2.869A3.6,3.6,0,0,1,39.38-6.6a5.617,5.617,0,0,1,3.656-1.074h2.026V-9.033a2.964,2.964,0,0,0-.537-1.886,1.848,1.848,0,0,0-1.538-.677,1.84,1.84,0,0,0-1.434.586,2.15,2.15,0,0,0-.531,1.5L38.654-9.5l-.024-.073a3.356,3.356,0,0,1,1.2-2.71,4.7,4.7,0,0,1,3.32-1.172A4.449,4.449,0,0,1,46.332-12.3a4.309,4.309,0,0,1,1.221,3.29v6.128a10.847,10.847,0,0,0,.1,1.471A9.367,9.367,0,0,0,47.955,0Zm-3.2-1.648a2.782,2.782,0,0,0,1.794-.629A2.911,2.911,0,0,0,45.062-3.8V-6.14H43a2.279,2.279,0,0,0-1.794.726,2.542,2.542,0,0,0-.647,1.752A2.277,2.277,0,0,0,41-2.2,1.5,1.5,0,0,0,42.242-1.648ZM51.215,0V-11.438H49.469v-1.77h1.746v-1.7a4.728,4.728,0,0,1,1.019-3.247,3.614,3.614,0,0,1,2.85-1.147,4.361,4.361,0,0,1,.751.067q.385.067.836.189l-.232,1.819a4.318,4.318,0,0,0-.488-.1,3.984,3.984,0,0,0-.562-.037,1.434,1.434,0,0,0-1.263.635,3.212,3.212,0,0,0-.433,1.819v1.7h2.185v1.77H53.693V0ZM62.3.256A4.613,4.613,0,0,1,58.435-1.55a7.464,7.464,0,0,1-1.4-4.7v-.574a7.748,7.748,0,0,1,1.392-4.767,4.335,4.335,0,0,1,3.638-1.862,4,4,0,0,1,3.436,1.6,7.089,7.089,0,0,1,1.178,4.3v1.392H59.515a6.522,6.522,0,0,0,.726,3.284,2.4,2.4,0,0,0,2.228,1.257,4.636,4.636,0,0,0,1.807-.323,4.62,4.62,0,0,0,1.416-.946L66.5-1.355a5.264,5.264,0,0,1-1.74,1.147A6.181,6.181,0,0,1,62.3.256Zm-.232-11.8a1.943,1.943,0,0,0-1.709.995,5.927,5.927,0,0,0-.793,2.631H64.24V-8.2a4.835,4.835,0,0,0-.531-2.417A1.763,1.763,0,0,0,62.067-11.548ZM72.1-16.492v3.284h2.063v1.77H72.1v7.861a2.579,2.579,0,0,0,.311,1.459.967.967,0,0,0,.824.433,1.99,1.99,0,0,0,.391-.037q.183-.037.427-.11L74.31-.122a3.891,3.891,0,0,1-.787.275,3.84,3.84,0,0,1-.9.1A2.774,2.774,0,0,1,70.4-.665a4.406,4.406,0,0,1-.793-2.911v-7.861H67.865v-1.77h1.746v-3.284ZM80.17-4.553l.2.891h.073l2.588-9.546h2.722L81.024,2.051A7.052,7.052,0,0,1,79.767,4.37a2.852,2.852,0,0,1-2.319.964,3.551,3.551,0,0,1-.659-.067q-.354-.067-.7-.153l.281-1.831q.122.024.36.049t.372.024a1.34,1.34,0,0,0,1.16-.616,4.969,4.969,0,0,0,.671-1.459l.452-1.367L75.226-13.208h2.71Zm12.256-2.2a7.893,7.893,0,0,1,1.392-4.822,4.5,4.5,0,0,1,3.821-1.88,4.511,4.511,0,0,1,3.827,1.88,7.869,7.869,0,0,1,1.4,4.822v.33a7.833,7.833,0,0,1-1.392,4.816A4.5,4.5,0,0,1,97.662.256a4.534,4.534,0,0,1-3.845-1.862,7.833,7.833,0,0,1-1.392-4.816Zm2.49.33a7.667,7.667,0,0,0,.677,3.455,2.2,2.2,0,0,0,2.069,1.343,2.17,2.17,0,0,0,2.032-1.349,7.675,7.675,0,0,0,.677-3.448v-.33a7.632,7.632,0,0,0-.684-3.436,2.19,2.19,0,0,0-2.051-1.361,2.178,2.178,0,0,0-2.045,1.361,7.691,7.691,0,0,0-.677,3.436ZM106.061,0V-11.438h-1.746v-1.77h1.746v-1.7a4.728,4.728,0,0,1,1.019-3.247,3.614,3.614,0,0,1,2.85-1.147,4.361,4.361,0,0,1,.751.067q.385.067.836.189l-.232,1.819a4.318,4.318,0,0,0-.488-.1,3.984,3.984,0,0,0-.562-.037,1.434,1.434,0,0,0-1.263.635,3.212,3.212,0,0,0-.433,1.819v1.7h2.185v1.77h-2.185V0ZM-107.867,23.25a7.893,7.893,0,0,1,1.392-4.822,4.5,4.5,0,0,1,3.821-1.88,4.511,4.511,0,0,1,3.827,1.88,7.869,7.869,0,0,1,1.4,4.822v.33a7.833,7.833,0,0,1-1.392,4.816,4.5,4.5,0,0,1-3.809,1.862,4.534,4.534,0,0,1-3.845-1.862,7.833,7.833,0,0,1-1.392-4.816Zm2.49.33a7.667,7.667,0,0,0,.677,3.455,2.2,2.2,0,0,0,2.069,1.343,2.17,2.17,0,0,0,2.032-1.349,7.675,7.675,0,0,0,.677-3.448v-.33a7.632,7.632,0,0,0-.684-3.436,2.19,2.19,0,0,0-2.051-1.361,2.178,2.178,0,0,0-2.045,1.361,7.691,7.691,0,0,0-.677,3.436Zm17.419,4.492a4.251,4.251,0,0,1-1.367,1.617,3.334,3.334,0,0,1-1.929.568,3.325,3.325,0,0,1-2.844-1.4,7.432,7.432,0,0,1-1.025-4.358v-7.7h2.49v7.727a6.429,6.429,0,0,0,.488,2.972,1.606,1.606,0,0,0,1.489.848,2.742,2.742,0,0,0,1.556-.427,2.867,2.867,0,0,0,1.007-1.221v-9.9h2.49V30h-2.112Zm10.864-9.216-1.074-.061a1.863,1.863,0,0,0-1.3.47,3.011,3.011,0,0,0-.8,1.324V30h-2.49V16.792h2.283l.171,1.953a4.243,4.243,0,0,1,1.123-1.617,2.363,2.363,0,0,1,1.575-.58,2.087,2.087,0,0,1,.433.043,2.385,2.385,0,0,1,.36.1Zm17.432,4.956A8.364,8.364,0,0,1-60.828,28.5a3.693,3.693,0,0,1-3.253,1.758,3.737,3.737,0,0,1-1.727-.385,3.512,3.512,0,0,1-1.276-1.129v6.335h-2.49V16.792h2.112l.232,1.587a3.887,3.887,0,0,1,1.318-1.361,3.46,3.46,0,0,1,1.819-.47,3.637,3.637,0,0,1,3.265,1.917,9.72,9.72,0,0,1,1.166,5.09Zm-2.49-.256a8.8,8.8,0,0,0-.653-3.662,2.1,2.1,0,0,0-1.959-1.416,2.18,2.18,0,0,0-1.4.458,3.176,3.176,0,0,0-.916,1.239v6.653a2.776,2.776,0,0,0,.916,1.147,2.4,2.4,0,0,0,1.416.4A2.085,2.085,0,0,0-62.8,27.131a7.234,7.234,0,0,0,.647-3.32ZM-50.409,30q-.159-.6-.25-1.068A6.729,6.729,0,0,1-50.775,28a4.85,4.85,0,0,1-1.385,1.617,3.2,3.2,0,0,1-1.959.641,3.468,3.468,0,0,1-2.716-1.05,4.127,4.127,0,0,1-.946-2.869A3.6,3.6,0,0,1-56.47,23.4a5.617,5.617,0,0,1,3.656-1.074h2.026V20.967a2.964,2.964,0,0,0-.537-1.886,1.848,1.848,0,0,0-1.538-.677,1.84,1.84,0,0,0-1.434.586,2.15,2.15,0,0,0-.531,1.5L-57.2,20.5l-.024-.073a3.356,3.356,0,0,1,1.2-2.71,4.7,4.7,0,0,1,3.32-1.172A4.449,4.449,0,0,1-49.518,17.7a4.309,4.309,0,0,1,1.221,3.29v6.128a10.847,10.847,0,0,0,.1,1.471A9.367,9.367,0,0,0-47.894,30Zm-3.2-1.648a2.782,2.782,0,0,0,1.794-.629,2.911,2.911,0,0,0,1.025-1.52V23.86H-52.85a2.279,2.279,0,0,0-1.794.726,2.542,2.542,0,0,0-.647,1.752,2.277,2.277,0,0,0,.439,1.465A1.5,1.5,0,0,0-53.607,28.352Zm12.732.024a1.95,1.95,0,0,0,1.532-.708,2.818,2.818,0,0,0,.616-1.917h2.234l.024.073a4.081,4.081,0,0,1-1.257,3.149,4.334,4.334,0,0,1-3.149,1.282,4.362,4.362,0,0,1-3.772-1.862,7.981,7.981,0,0,1-1.331-4.755v-.464a8.015,8.015,0,0,1,1.331-4.755,4.353,4.353,0,0,1,3.772-1.874,4.185,4.185,0,0,1,3.217,1.337,4.778,4.778,0,0,1,1.2,3.473l-.024.061h-2.246a3.587,3.587,0,0,0-.592-2.142,1.831,1.831,0,0,0-1.556-.824,2.079,2.079,0,0,0-2.008,1.343,8.114,8.114,0,0,0-.616,3.381v.464a8.2,8.2,0,0,0,.61,3.406A2.076,2.076,0,0,0-40.875,28.376Zm10.144-4.431h-.928V30h-2.478V10.957h2.478v11.1h.867l3.174-5.261H-24.7L-28.741,22.8l4.48,7.2h-2.893ZM-15.9,30q-.159-.6-.25-1.068A6.729,6.729,0,0,1-16.266,28a4.85,4.85,0,0,1-1.385,1.617,3.2,3.2,0,0,1-1.959.641,3.468,3.468,0,0,1-2.716-1.05,4.127,4.127,0,0,1-.946-2.869A3.6,3.6,0,0,1-21.96,23.4,5.617,5.617,0,0,1-18.3,22.322h2.026V20.967a2.964,2.964,0,0,0-.537-1.886,1.848,1.848,0,0,0-1.538-.677,1.84,1.84,0,0,0-1.434.586,2.15,2.15,0,0,0-.531,1.5l-2.368.012-.024-.073a3.356,3.356,0,0,1,1.2-2.71,4.7,4.7,0,0,1,3.32-1.172A4.449,4.449,0,0,1-15.009,17.7a4.309,4.309,0,0,1,1.221,3.29v6.128a10.847,10.847,0,0,0,.1,1.471A9.367,9.367,0,0,0-13.385,30Zm-3.2-1.648a2.782,2.782,0,0,0,1.794-.629,2.911,2.911,0,0,0,1.025-1.52V23.86h-2.063a2.279,2.279,0,0,0-1.794.726,2.542,2.542,0,0,0-.647,1.752,2.277,2.277,0,0,0,.439,1.465A1.5,1.5,0,0,0-19.1,28.352Zm7.727-4.8a9.762,9.762,0,0,1,1.16-5.09A3.633,3.633,0,0,1-6.94,16.548a3.337,3.337,0,0,1,1.813.494A4.029,4.029,0,0,1-3.8,18.452l.232-1.66H-1.5V30.024A5.379,5.379,0,0,1-2.85,33.949a5.1,5.1,0,0,1-3.821,1.385,6.983,6.983,0,0,1-1.8-.256,7.232,7.232,0,0,1-1.727-.7l.4-1.855a6.336,6.336,0,0,0,1.459.592,6.243,6.243,0,0,0,1.642.214,2.468,2.468,0,0,0,2.051-.824,3.951,3.951,0,0,0,.659-2.5V28.706a3.625,3.625,0,0,1-1.276,1.16,3.588,3.588,0,0,1-1.7.391,3.675,3.675,0,0,1-3.247-1.764,8.4,8.4,0,0,1-1.16-4.681Zm2.49.256a7.476,7.476,0,0,0,.61,3.308A2.032,2.032,0,0,0-6.329,28.34a2.311,2.311,0,0,0,1.41-.427A3,3,0,0,0-3.986,26.7V20.21a3.272,3.272,0,0,0-.934-1.27,2.168,2.168,0,0,0-1.4-.464,2.046,2.046,0,0,0-1.941,1.41,9.166,9.166,0,0,0-.623,3.668ZM4,30H1.508V16.792H4ZM4,13.325H1.508V10.957H4Zm5.273,3.467.146,1.965a4.462,4.462,0,0,1,1.416-1.63,3.376,3.376,0,0,1,1.941-.58,3.245,3.245,0,0,1,2.74,1.294A6.67,6.67,0,0,1,16.5,21.87V30H14.02V21.882a4.937,4.937,0,0,0-.519-2.637,1.764,1.764,0,0,0-1.569-.769,2.417,2.417,0,0,0-1.465.446,3.119,3.119,0,0,0-.977,1.227V30H7V16.792Zm9.644,6.763a9.762,9.762,0,0,1,1.16-5.09,3.633,3.633,0,0,1,3.271-1.917,3.337,3.337,0,0,1,1.813.494,4.029,4.029,0,0,1,1.324,1.41l.232-1.66H28.79V30.024a5.379,5.379,0,0,1-1.355,3.925,5.1,5.1,0,0,1-3.821,1.385,6.983,6.983,0,0,1-1.8-.256,7.232,7.232,0,0,1-1.727-.7l.4-1.855a6.336,6.336,0,0,0,1.459.592,6.243,6.243,0,0,0,1.642.214,2.468,2.468,0,0,0,2.051-.824,3.951,3.951,0,0,0,.659-2.5V28.706a3.625,3.625,0,0,1-1.276,1.16,3.588,3.588,0,0,1-1.7.391,3.675,3.675,0,0,1-3.247-1.764,8.4,8.4,0,0,1-1.16-4.681Zm2.49.256a7.476,7.476,0,0,0,.61,3.308,2.032,2.032,0,0,0,1.941,1.221,2.311,2.311,0,0,0,1.41-.427A3,3,0,0,0,26.3,26.7V20.21a3.272,3.272,0,0,0-.934-1.27,2.168,2.168,0,0,0-1.4-.464,2.046,2.046,0,0,0-1.941,1.41,9.166,9.166,0,0,0-.623,3.668ZM43.988,30q-.159-.6-.25-1.068A6.729,6.729,0,0,1,43.622,28a4.85,4.85,0,0,1-1.385,1.617,3.2,3.2,0,0,1-1.959.641,3.468,3.468,0,0,1-2.716-1.05,4.127,4.127,0,0,1-.946-2.869A3.6,3.6,0,0,1,37.927,23.4a5.617,5.617,0,0,1,3.656-1.074H43.61V20.967a2.964,2.964,0,0,0-.537-1.886,2.067,2.067,0,0,0-2.972-.092,2.15,2.15,0,0,0-.531,1.5L37.2,20.5l-.024-.073a3.356,3.356,0,0,1,1.2-2.71,4.7,4.7,0,0,1,3.32-1.172A4.449,4.449,0,0,1,44.879,17.7a4.309,4.309,0,0,1,1.221,3.29v6.128a10.847,10.847,0,0,0,.1,1.471A9.367,9.367,0,0,0,46.5,30Zm-3.2-1.648a2.782,2.782,0,0,0,1.794-.629A2.911,2.911,0,0,0,43.61,26.2V23.86H41.547a2.279,2.279,0,0,0-1.794.726,2.542,2.542,0,0,0-.647,1.752,2.277,2.277,0,0,0,.439,1.465A1.5,1.5,0,0,0,40.79,28.352Zm10.388-11.56.146,1.965a4.462,4.462,0,0,1,1.416-1.63,3.376,3.376,0,0,1,1.941-.58,3.245,3.245,0,0,1,2.74,1.294A6.67,6.67,0,0,1,58.4,21.87V30H55.927V21.882a4.937,4.937,0,0,0-.519-2.637,1.764,1.764,0,0,0-1.569-.769,2.417,2.417,0,0,0-1.465.446,3.119,3.119,0,0,0-.977,1.227V30h-2.49V16.792Zm9.595,6.763a9.762,9.762,0,0,1,1.16-5.09,3.623,3.623,0,0,1,3.259-1.917,3.362,3.362,0,0,1,1.685.421,3.823,3.823,0,0,1,1.282,1.215V10.957h2.478V30H68.585l-.256-1.587a3.917,3.917,0,0,1-1.343,1.373,3.5,3.5,0,0,1-1.819.47,3.661,3.661,0,0,1-3.241-1.764,8.439,8.439,0,0,1-1.154-4.681Zm2.466.256a7.356,7.356,0,0,0,.623,3.3A2.047,2.047,0,0,0,65.8,28.34a2.266,2.266,0,0,0,1.41-.439,3.163,3.163,0,0,0,.946-1.245v-6.4a3.5,3.5,0,0,0-.952-1.3,2.121,2.121,0,0,0-1.392-.482,2.057,2.057,0,0,0-1.947,1.41,9.087,9.087,0,0,0-.629,3.668Zm18.982-10.3v3.284h2.063v1.77H82.22v7.861a2.579,2.579,0,0,0,.311,1.459.967.967,0,0,0,.824.433,1.99,1.99,0,0,0,.391-.037q.183-.037.427-.11l.256,1.709a3.891,3.891,0,0,1-.787.275,3.84,3.84,0,0,1-.9.1,2.774,2.774,0,0,1-2.222-.922,4.406,4.406,0,0,1-.793-2.911V18.562H77.985v-1.77H79.73V13.508Zm6.763,5.054a4.377,4.377,0,0,1,1.379-1.483,3.29,3.29,0,0,1,1.831-.531A3.343,3.343,0,0,1,95,17.866a6.63,6.63,0,0,1,1.013,4.053V30h-2.49V21.895A4.941,4.941,0,0,0,93,19.276a1.735,1.735,0,0,0-1.55-.8,2.571,2.571,0,0,0-1.471.415,3,3,0,0,0-.995,1.16V30h-2.49V10.957h2.49Zm14.624,11.694a4.613,4.613,0,0,1-3.864-1.807,7.464,7.464,0,0,1-1.4-4.7v-.574a7.748,7.748,0,0,1,1.392-4.767,4.335,4.335,0,0,1,3.638-1.862,4,4,0,0,1,3.436,1.6,7.089,7.089,0,0,1,1.178,4.3v1.392h-7.166a6.522,6.522,0,0,0,.726,3.284,2.4,2.4,0,0,0,2.228,1.257A4.327,4.327,0,0,0,107,27.107l.806,1.538a5.264,5.264,0,0,1-1.74,1.147A6.181,6.181,0,0,1,103.607,30.256Zm-.232-11.8a1.943,1.943,0,0,0-1.709.995,5.927,5.927,0,0,0-.793,2.631h4.675V21.8a4.835,4.835,0,0,0-.531-2.417A1.763,1.763,0,0,0,103.375,18.452ZM-74.06,58.376a1.95,1.95,0,0,0,1.532-.708,2.818,2.818,0,0,0,.616-1.917h2.234l.024.073a4.081,4.081,0,0,1-1.257,3.149,4.334,4.334,0,0,1-3.149,1.282,4.362,4.362,0,0,1-3.772-1.862,7.981,7.981,0,0,1-1.331-4.755v-.464a8.015,8.015,0,0,1,1.331-4.755,4.353,4.353,0,0,1,3.772-1.874,4.185,4.185,0,0,1,3.217,1.337,4.778,4.778,0,0,1,1.2,3.473l-.024.061h-2.246a3.587,3.587,0,0,0-.592-2.142,1.831,1.831,0,0,0-1.556-.824,2.079,2.079,0,0,0-2.008,1.343,8.114,8.114,0,0,0-.616,3.381v.464a8.2,8.2,0,0,0,.61,3.406A2.076,2.076,0,0,0-74.06,58.376Zm6.226-5.127a7.893,7.893,0,0,1,1.392-4.822,4.5,4.5,0,0,1,3.821-1.88,4.511,4.511,0,0,1,3.827,1.88,7.869,7.869,0,0,1,1.4,4.822v.33a7.833,7.833,0,0,1-1.392,4.816A4.5,4.5,0,0,1-62.6,60.256a4.534,4.534,0,0,1-3.845-1.862,7.833,7.833,0,0,1-1.392-4.816Zm2.49.33a7.667,7.667,0,0,0,.677,3.455A2.2,2.2,0,0,0-62.6,58.376a2.17,2.17,0,0,0,2.032-1.349,7.675,7.675,0,0,0,.677-3.448v-.33a7.632,7.632,0,0,0-.684-3.436,2.19,2.19,0,0,0-2.051-1.361,2.178,2.178,0,0,0-2.045,1.361,7.691,7.691,0,0,0-.677,3.436Zm12.585-6.787.134,1.794a4.108,4.108,0,0,1,1.4-1.508,3.638,3.638,0,0,1,1.971-.531,3.085,3.085,0,0,1,1.9.6,3.614,3.614,0,0,1,1.208,1.837,4.51,4.51,0,0,1,1.4-1.794,3.359,3.359,0,0,1,2.057-.647,3.128,3.128,0,0,1,2.7,1.4A7.44,7.44,0,0,1-39,52.2V60h-2.49V52.188A5.834,5.834,0,0,0-42,49.3a1.682,1.682,0,0,0-1.526-.824,1.865,1.865,0,0,0-1.434.635,3.869,3.869,0,0,0-.848,1.672q.012.22.024.458t.012.482V60h-2.478V52.188a5.744,5.744,0,0,0-.525-2.85,1.683,1.683,0,0,0-1.526-.861,2.151,2.151,0,0,0-1.367.439,2.9,2.9,0,0,0-.879,1.208V60h-2.49V46.792Zm26.526,7.019A8.364,8.364,0,0,1-27.4,58.5a3.693,3.693,0,0,1-3.253,1.758,3.737,3.737,0,0,1-1.727-.385,3.512,3.512,0,0,1-1.276-1.129v6.335h-2.49V46.792h2.112l.232,1.587a3.887,3.887,0,0,1,1.318-1.361,3.46,3.46,0,0,1,1.819-.47A3.637,3.637,0,0,1-27.4,48.464a9.72,9.72,0,0,1,1.166,5.09Zm-2.49-.256a8.8,8.8,0,0,0-.653-3.662,2.1,2.1,0,0,0-1.959-1.416,2.18,2.18,0,0,0-1.4.458,3.175,3.175,0,0,0-.916,1.239v6.653a2.776,2.776,0,0,0,.916,1.147,2.4,2.4,0,0,0,1.416.4,2.085,2.085,0,0,0,1.953-1.245,7.234,7.234,0,0,0,.647-3.32ZM-21.191,60h-2.49V40.957h2.49Zm5.676,0h-2.49V46.792h2.49Zm0-16.675h-2.49V40.957h2.49ZM-5.627,60q-.159-.6-.25-1.068A6.729,6.729,0,0,1-5.994,58a4.85,4.85,0,0,1-1.385,1.617,3.2,3.2,0,0,1-1.959.641,3.468,3.468,0,0,1-2.716-1.05A4.127,4.127,0,0,1-13,56.338,3.6,3.6,0,0,1-11.688,53.4a5.617,5.617,0,0,1,3.656-1.074h2.026V50.967a2.964,2.964,0,0,0-.537-1.886A1.848,1.848,0,0,0-8.081,48.4a1.84,1.84,0,0,0-1.434.586,2.15,2.15,0,0,0-.531,1.5l-2.368.012-.024-.073a3.356,3.356,0,0,1,1.2-2.71,4.7,4.7,0,0,1,3.32-1.172A4.449,4.449,0,0,1-4.736,47.7a4.309,4.309,0,0,1,1.221,3.29v6.128a10.847,10.847,0,0,0,.1,1.471A9.367,9.367,0,0,0-3.113,60Zm-3.2-1.648a2.782,2.782,0,0,0,1.794-.629A2.911,2.911,0,0,0-6.006,56.2V53.86H-8.069a2.279,2.279,0,0,0-1.794.726,2.542,2.542,0,0,0-.647,1.752,2.277,2.277,0,0,0,.439,1.465A1.5,1.5,0,0,0-8.826,58.352ZM1.563,46.792l.146,1.965a4.462,4.462,0,0,1,1.416-1.63,3.376,3.376,0,0,1,1.941-.58,3.245,3.245,0,0,1,2.74,1.294,6.67,6.67,0,0,1,.983,4.028V60H6.311V51.882a4.937,4.937,0,0,0-.519-2.637,1.764,1.764,0,0,0-1.569-.769,2.417,2.417,0,0,0-1.465.446,3.119,3.119,0,0,0-.977,1.227V60H-.708V46.792ZM16.211,58.376a1.95,1.95,0,0,0,1.532-.708,2.818,2.818,0,0,0,.616-1.917h2.234l.024.073a4.081,4.081,0,0,1-1.257,3.149,4.334,4.334,0,0,1-3.149,1.282,4.362,4.362,0,0,1-3.772-1.862,7.981,7.981,0,0,1-1.331-4.755v-.464a8.015,8.015,0,0,1,1.331-4.755,4.353,4.353,0,0,1,3.772-1.874,4.185,4.185,0,0,1,3.217,1.337,4.778,4.778,0,0,1,1.2,3.473l-.024.061H18.359a3.587,3.587,0,0,0-.592-2.142,1.831,1.831,0,0,0-1.556-.824A2.079,2.079,0,0,0,14.2,49.795a8.114,8.114,0,0,0-.616,3.381v.464a8.2,8.2,0,0,0,.61,3.406A2.076,2.076,0,0,0,16.211,58.376Zm11.5,1.88a4.613,4.613,0,0,1-3.864-1.807,7.464,7.464,0,0,1-1.4-4.7v-.574a7.748,7.748,0,0,1,1.392-4.767,4.335,4.335,0,0,1,3.638-1.862,4,4,0,0,1,3.436,1.6,7.089,7.089,0,0,1,1.178,4.3v1.392H24.927a6.522,6.522,0,0,0,.726,3.284,2.4,2.4,0,0,0,2.228,1.257,4.327,4.327,0,0,0,3.223-1.27l.806,1.538a5.264,5.264,0,0,1-1.74,1.147A6.181,6.181,0,0,1,27.71,60.256Zm-.232-11.8a1.943,1.943,0,0,0-1.709.995,5.927,5.927,0,0,0-.793,2.631h4.675V51.8a4.835,4.835,0,0,0-.531-2.417A1.763,1.763,0,0,0,27.478,48.452Zm22.314,7.239h.073l1.685-8.9h2.49L50.964,60H48.914l-2.441-8.569H46.4L44.031,60H41.968L38.879,46.792h2.478l1.733,8.8h.073l2.4-8.8h1.782ZM58.679,60h-2.49V46.792h2.49Zm0-16.675h-2.49V40.957h2.49Zm6.213.183v3.284h2.063v1.77H64.893v7.861a2.579,2.579,0,0,0,.311,1.459.967.967,0,0,0,.824.433,1.99,1.99,0,0,0,.391-.037q.183-.037.427-.11l.256,1.709a3.891,3.891,0,0,1-.787.275,3.84,3.84,0,0,1-.9.1,2.774,2.774,0,0,1-2.222-.922,4.406,4.406,0,0,1-.793-2.911V48.562H60.657v-1.77H62.4V43.508Zm6.763,5.054a4.377,4.377,0,0,1,1.379-1.483,3.29,3.29,0,0,1,1.831-.531,3.343,3.343,0,0,1,2.808,1.318,6.63,6.63,0,0,1,1.013,4.053V60H76.2V51.895a4.941,4.941,0,0,0-.525-2.618,1.735,1.735,0,0,0-1.55-.8,2.571,2.571,0,0,0-1.471.415,3,3,0,0,0-.995,1.16V60h-2.49V40.957h2.49ZM-83.673,83.555a9.762,9.762,0,0,1,1.16-5.09,3.623,3.623,0,0,1,3.259-1.917,3.359,3.359,0,0,1,1.77.464,3.968,3.968,0,0,1,1.306,1.318l.269-1.538h2.039V95.078h-2.49V88.8a3.486,3.486,0,0,1-1.251,1.086,3.652,3.652,0,0,1-1.666.366,3.661,3.661,0,0,1-3.241-1.764,8.439,8.439,0,0,1-1.154-4.681Zm2.466.256a7.47,7.47,0,0,0,.623,3.326,2.046,2.046,0,0,0,1.941,1.239,2.288,2.288,0,0,0,1.355-.4,2.973,2.973,0,0,0,.928-1.129v-6.8a3.093,3.093,0,0,0-.922-1.172,2.179,2.179,0,0,0-1.349-.427,2.058,2.058,0,0,0-1.947,1.422,9.178,9.178,0,0,0-.629,3.68Zm17.407,4.26a4.251,4.251,0,0,1-1.367,1.617,3.334,3.334,0,0,1-1.929.568,3.325,3.325,0,0,1-2.844-1.4,7.432,7.432,0,0,1-1.025-4.358v-7.7h2.49v7.727a6.429,6.429,0,0,0,.488,2.972,1.606,1.606,0,0,0,1.489.848,2.742,2.742,0,0,0,1.556-.427,2.867,2.867,0,0,0,1.007-1.221v-9.9h2.49V90h-2.112ZM-51.74,90q-.159-.6-.25-1.068A6.729,6.729,0,0,1-52.106,88a4.85,4.85,0,0,1-1.385,1.617,3.2,3.2,0,0,1-1.959.641,3.468,3.468,0,0,1-2.716-1.05,4.127,4.127,0,0,1-.946-2.869A3.6,3.6,0,0,1-57.8,83.4a5.617,5.617,0,0,1,3.656-1.074h2.026V80.967a2.964,2.964,0,0,0-.537-1.886,1.848,1.848,0,0,0-1.538-.677,1.84,1.84,0,0,0-1.434.586,2.15,2.15,0,0,0-.531,1.5l-2.368.012-.024-.073a3.356,3.356,0,0,1,1.2-2.71,4.7,4.7,0,0,1,3.32-1.172A4.449,4.449,0,0,1-50.848,77.7a4.309,4.309,0,0,1,1.221,3.29v6.128a10.847,10.847,0,0,0,.1,1.471A9.367,9.367,0,0,0-49.225,90Zm-3.2-1.648a2.782,2.782,0,0,0,1.794-.629,2.911,2.911,0,0,0,1.025-1.52V83.86h-2.063a2.279,2.279,0,0,0-1.794.726,2.542,2.542,0,0,0-.647,1.752,2.277,2.277,0,0,0,.439,1.465A1.5,1.5,0,0,0-54.938,88.352ZM-44.147,90h-2.49V70.957h2.49Zm5.676,0h-2.49V76.792h2.49Zm0-16.675h-2.49V70.957h2.49Zm6.213.183v3.284h2.063v1.77h-2.063v7.861a2.579,2.579,0,0,0,.311,1.459.967.967,0,0,0,.824.433,1.99,1.99,0,0,0,.391-.037q.183-.037.427-.11l.256,1.709a3.891,3.891,0,0,1-.787.275,3.84,3.84,0,0,1-.9.1,2.774,2.774,0,0,1-2.222-.922,4.406,4.406,0,0,1-.793-2.911V78.562h-1.746v-1.77h1.746V73.508Zm8.069,11.938.2.891h.073l2.588-9.546h2.722l-4.724,15.259a7.052,7.052,0,0,1-1.257,2.319,2.852,2.852,0,0,1-2.319.964,3.551,3.551,0,0,1-.659-.067q-.354-.067-.7-.153l.281-1.831q.122.024.36.049t.372.024a1.34,1.34,0,0,0,1.16-.616,4.97,4.97,0,0,0,.671-1.459l.452-1.367-4.163-13.123h2.71ZM-5.17,86.667a1.759,1.759,0,0,0-.513-1.288,6.861,6.861,0,0,0-1.965-1.166A9.854,9.854,0,0,1-10.7,82.542a2.967,2.967,0,0,1-1.013-2.319,3.335,3.335,0,0,1,1.227-2.6,4.669,4.669,0,0,1,3.192-1.074A4.582,4.582,0,0,1-4.01,77.726a3.624,3.624,0,0,1,1.2,2.85l-.024.073H-5.231a2.47,2.47,0,0,0-.555-1.617,1.846,1.846,0,0,0-1.508-.677,2,2,0,0,0-1.483.531,1.7,1.7,0,0,0-.531,1.239,1.56,1.56,0,0,0,.458,1.19,8.089,8.089,0,0,0,1.959,1.117,9.023,9.023,0,0,1,3.119,1.7,3.153,3.153,0,0,1,1.044,2.417,3.3,3.3,0,0,1-1.263,2.679,5.076,5.076,0,0,1-3.314,1.031,4.807,4.807,0,0,1-3.5-1.239,3.713,3.713,0,0,1-1.215-2.9l.024-.073h2.307a2.413,2.413,0,0,0,.726,1.849,2.543,2.543,0,0,0,1.691.568,2.207,2.207,0,0,0,1.544-.507A1.667,1.667,0,0,0-5.17,86.667ZM2.765,73.508v3.284H4.828v1.77H2.765v7.861a2.579,2.579,0,0,0,.311,1.459.967.967,0,0,0,.824.433,1.99,1.99,0,0,0,.391-.037q.183-.037.427-.11l.256,1.709a3.891,3.891,0,0,1-.787.275,3.84,3.84,0,0,1-.9.1,2.774,2.774,0,0,1-2.222-.922,4.406,4.406,0,0,1-.793-2.911V78.562H-1.471v-1.77H.275V73.508ZM13.934,90q-.159-.6-.25-1.068A6.729,6.729,0,0,1,13.568,88a4.85,4.85,0,0,1-1.385,1.617,3.2,3.2,0,0,1-1.959.641,3.468,3.468,0,0,1-2.716-1.05,4.127,4.127,0,0,1-.946-2.869A3.6,3.6,0,0,1,7.874,83.4a5.617,5.617,0,0,1,3.656-1.074h2.026V80.967a2.964,2.964,0,0,0-.537-1.886,1.848,1.848,0,0,0-1.538-.677,1.84,1.84,0,0,0-1.434.586,2.15,2.15,0,0,0-.531,1.5L7.147,80.5l-.024-.073a3.356,3.356,0,0,1,1.2-2.71,4.7,4.7,0,0,1,3.32-1.172A4.449,4.449,0,0,1,14.825,77.7a4.309,4.309,0,0,1,1.221,3.29v6.128a10.847,10.847,0,0,0,.1,1.471A9.367,9.367,0,0,0,16.449,90Zm-3.2-1.648a2.782,2.782,0,0,0,1.794-.629,2.911,2.911,0,0,0,1.025-1.52V83.86H11.493a2.279,2.279,0,0,0-1.794.726,2.542,2.542,0,0,0-.647,1.752A2.277,2.277,0,0,0,9.491,87.8,1.5,1.5,0,0,0,10.736,88.352Zm10.388-11.56.146,1.965a4.462,4.462,0,0,1,1.416-1.63,3.376,3.376,0,0,1,1.941-.58,3.245,3.245,0,0,1,2.74,1.294,6.67,6.67,0,0,1,.983,4.028V90H25.873V81.882a4.937,4.937,0,0,0-.519-2.637,1.764,1.764,0,0,0-1.569-.769,2.417,2.417,0,0,0-1.465.446,3.119,3.119,0,0,0-.977,1.227V90h-2.49V76.792Zm9.595,6.763a9.762,9.762,0,0,1,1.16-5.09,3.623,3.623,0,0,1,3.259-1.917,3.361,3.361,0,0,1,1.685.421A3.823,3.823,0,0,1,38.1,78.184V70.957h2.478V90H38.531l-.256-1.587a3.917,3.917,0,0,1-1.343,1.373,3.5,3.5,0,0,1-1.819.47,3.661,3.661,0,0,1-3.241-1.764,8.439,8.439,0,0,1-1.154-4.681Zm2.466.256a7.356,7.356,0,0,0,.623,3.3,2.047,2.047,0,0,0,1.941,1.227,2.266,2.266,0,0,0,1.41-.439,3.163,3.163,0,0,0,.946-1.245v-6.4a3.5,3.5,0,0,0-.952-1.3,2.121,2.121,0,0,0-1.392-.482,2.057,2.057,0,0,0-1.947,1.41,9.087,9.087,0,0,0-.629,3.668ZM50.348,90q-.159-.6-.25-1.068A6.729,6.729,0,0,1,49.982,88,4.85,4.85,0,0,1,48.6,89.615a3.2,3.2,0,0,1-1.959.641,3.468,3.468,0,0,1-2.716-1.05,4.127,4.127,0,0,1-.946-2.869A3.6,3.6,0,0,1,44.287,83.4a5.617,5.617,0,0,1,3.656-1.074h2.026V80.967a2.964,2.964,0,0,0-.537-1.886,2.067,2.067,0,0,0-2.972-.092,2.15,2.15,0,0,0-.531,1.5l-2.368.012-.024-.073a3.356,3.356,0,0,1,1.2-2.71,4.7,4.7,0,0,1,3.32-1.172A4.449,4.449,0,0,1,51.239,77.7a4.309,4.309,0,0,1,1.221,3.29v6.128a10.847,10.847,0,0,0,.1,1.471A9.367,9.367,0,0,0,52.863,90Zm-3.2-1.648a2.782,2.782,0,0,0,1.794-.629,2.911,2.911,0,0,0,1.025-1.52V83.86H47.906a2.279,2.279,0,0,0-1.794.726,2.542,2.542,0,0,0-.647,1.752A2.277,2.277,0,0,0,45.9,87.8,1.5,1.5,0,0,0,47.15,88.352Zm13.806-9.5-1.074-.061a1.863,1.863,0,0,0-1.3.47,3.011,3.011,0,0,0-.8,1.324V90h-2.49V76.792h2.283l.171,1.953a4.243,4.243,0,0,1,1.123-1.617,2.363,2.363,0,0,1,1.575-.58,2.087,2.087,0,0,1,.433.043,2.385,2.385,0,0,1,.36.1Zm1.331,4.7a9.762,9.762,0,0,1,1.16-5.09,3.623,3.623,0,0,1,3.259-1.917,3.362,3.362,0,0,1,1.685.421,3.823,3.823,0,0,1,1.282,1.215V70.957H72.15V90H70.1l-.256-1.587A3.917,3.917,0,0,1,68.5,89.786a3.5,3.5,0,0,1-1.819.47,3.661,3.661,0,0,1-3.241-1.764,8.439,8.439,0,0,1-1.154-4.681Zm2.466.256a7.356,7.356,0,0,0,.623,3.3,2.047,2.047,0,0,0,1.941,1.227,2.266,2.266,0,0,0,1.41-.439,3.163,3.163,0,0,0,.946-1.245v-6.4a3.5,3.5,0,0,0-.952-1.3,2.121,2.121,0,0,0-1.392-.482,2.057,2.057,0,0,0-1.947,1.41,9.087,9.087,0,0,0-.629,3.668Zm16.565,2.856A1.759,1.759,0,0,0,80.8,85.38a6.861,6.861,0,0,0-1.965-1.166,9.854,9.854,0,0,1-3.052-1.672,2.967,2.967,0,0,1-1.013-2.319A3.335,3.335,0,0,1,76,77.622a4.669,4.669,0,0,1,3.192-1.074,4.582,4.582,0,0,1,3.284,1.178,3.624,3.624,0,0,1,1.2,2.85l-.024.073H81.256a2.47,2.47,0,0,0-.555-1.617,1.846,1.846,0,0,0-1.508-.677,2,2,0,0,0-1.483.531,1.7,1.7,0,0,0-.531,1.239,1.56,1.56,0,0,0,.458,1.19A8.089,8.089,0,0,0,79.6,82.432a9.023,9.023,0,0,1,3.119,1.7,3.153,3.153,0,0,1,1.044,2.417A3.3,3.3,0,0,1,82.5,89.225a5.076,5.076,0,0,1-3.314,1.031,4.807,4.807,0,0,1-3.5-1.239,3.713,3.713,0,0,1-1.215-2.9l.024-.073H76.8a2.413,2.413,0,0,0,.726,1.849,2.543,2.543,0,0,0,1.691.568,2.207,2.207,0,0,0,1.544-.507A1.667,1.667,0,0,0,81.317,86.667Z" transform="translate(275 437.363)" fill="#5e5b5c"/>
  </g>
</svg>
