<svg xmlns="http://www.w3.org/2000/svg" xmlns:xlink="http://www.w3.org/1999/xlink" width="562" height="738" viewBox="0 0 562 738">
  <defs>
    <filter id="Trazado_7214" x="0.042" y="0" width="562" height="738" filterUnits="userSpaceOnUse">
      <feOffset dy="20" input="SourceAlpha"/>
      <feGaussianBlur stdDeviation="23" result="blur"/>
      <feFlood flood-color="#010101" flood-opacity="0.129"/>
      <feComposite operator="in" in2="blur"/>
      <feComposite in="SourceGraphic"/>
    </filter>
    <filter id="Rectángulo_2852" x="158.201" y="50" width="245.342" height="245.485" filterUnits="userSpaceOnUse">
      <feOffset dy="9" input="SourceAlpha"/>
      <feGaussianBlur stdDeviation="15" result="blur-2"/>
      <feFlood flood-color="#010101" flood-opacity="0.122"/>
      <feComposite operator="in" in2="blur-2"/>
      <feComposite in="SourceGraphic"/>
    </filter>
    <clipPath id="clip-Social-responsibility-path">
      <rect width="562" height="738"/>
    </clipPath>
  </defs>
  <g id="Social-responsibility-path" clip-path="url(#clip-Social-responsibility-path)">
    <g transform="matrix(1, 0, 0, 1, 0, 0)" filter="url(#Trazado_7214)">
      <path id="Trazado_7214-2" data-name="Trazado 7214" d="M74,0H350a74,74,0,0,1,74,74V526a74,74,0,0,1-74,74H74A74,74,0,0,1,0,526V74A74,74,0,0,1,74,0Z" transform="translate(69.04 49)" fill="#fff"/>
    </g>
    <path id="Trazado_7216" data-name="Trazado 7216" d="M-35.673-7.752a4.115,4.115,0,0,0-.913-2.82,9.08,9.08,0,0,0-3.271-2.02,21.047,21.047,0,0,1-6.911-3.671A7.267,7.267,0,0,1-49.085-22a7.562,7.562,0,0,1,2.646-5.978,9.893,9.893,0,0,1,6.747-2.307A9.856,9.856,0,0,1-32.7-27.829a8.343,8.343,0,0,1,2.563,6.6l-.041.123H-35.8a5.243,5.243,0,0,0-1.036-3.517,3.7,3.7,0,0,0-2.963-1.2,3.192,3.192,0,0,0-2.584,1.1,4.108,4.108,0,0,0-.923,2.738,3.286,3.286,0,0,0,1.046,2.5,14,14,0,0,0,3.589,2.153,16.729,16.729,0,0,1,6.552,3.63A7.92,7.92,0,0,1-29.89-7.793a7.463,7.463,0,0,1-2.6,6.029A10.37,10.37,0,0,1-39.406.431a11.392,11.392,0,0,1-7.26-2.369q-3.015-2.369-2.912-7.208l.041-.123h5.64a5.859,5.859,0,0,0,1.138,4.04A4.345,4.345,0,0,0-39.406-4a3.6,3.6,0,0,0,2.8-1.025A3.9,3.9,0,0,0-35.673-7.752Zm8.449-3.548a13.119,13.119,0,0,1,2.389-8.152A7.944,7.944,0,0,1-18.119-22.6a8.006,8.006,0,0,1,6.727,3.148A13,13,0,0,1-8.972-11.3v.472A12.951,12.951,0,0,1-11.382-2.7a7.977,7.977,0,0,1-6.7,3.127,8.023,8.023,0,0,1-6.747-3.117,12.98,12.98,0,0,1-2.4-8.142Zm5.763.472a12.931,12.931,0,0,0,.769,4.922,2.669,2.669,0,0,0,2.615,1.825,2.636,2.636,0,0,0,2.543-1.825,12.778,12.778,0,0,0,.779-4.922V-11.3a12.887,12.887,0,0,0-.779-4.912,2.664,2.664,0,0,0-2.584-1.856A2.647,2.647,0,0,0-20.692-16.2a13.058,13.058,0,0,0-.769,4.9ZM2.328-4.081a2.129,2.129,0,0,0,1.866-.913A4.546,4.546,0,0,0,4.83-7.608h5.229l.062.123A7.505,7.505,0,0,1,7.957-1.794,7.629,7.629,0,0,1,2.328.431,7.819,7.819,0,0,1-4.348-2.7a13.2,13.2,0,0,1-2.328-8.09v-.595a13.221,13.221,0,0,1,2.328-8.07A7.779,7.779,0,0,1,2.307-22.6a7.44,7.44,0,0,1,5.742,2.307,8.6,8.6,0,0,1,2.071,6.224l-.041.1H4.83a6.036,6.036,0,0,0-.636-2.974,2.042,2.042,0,0,0-1.887-1.128,2.52,2.52,0,0,0-2.5,1.835,13.936,13.936,0,0,0-.7,4.85v.595a13.961,13.961,0,0,0,.7,4.9A2.529,2.529,0,0,0,2.328-4.081ZM19.1,0H13.32V-22.189H19.1Zm0-27.583H13.32v-4.409H19.1ZM34.32,0a9.762,9.762,0,0,1-.543-1.6,13.591,13.591,0,0,1-.318-1.764A7.85,7.85,0,0,1,31.521-.636,4.271,4.271,0,0,1,28.578.431a6.019,6.019,0,0,1-4.666-1.774,6.923,6.923,0,0,1-1.63-4.871,6.2,6.2,0,0,1,2.143-5.035q2.143-1.794,6.409-1.794h2.522v-1.846a4.473,4.473,0,0,0-.615-2.553,2.073,2.073,0,0,0-1.825-.892,1.921,1.921,0,0,0-1.62.718,3.3,3.3,0,0,0-.554,2.051l-5.578-.021-.041-.123a5.912,5.912,0,0,1,2.153-4.881,8.746,8.746,0,0,1,6.009-2.01,8.036,8.036,0,0,1,5.681,2.01,7.432,7.432,0,0,1,2.174,5.742v9.105a18.491,18.491,0,0,0,.226,2.953A17.337,17.337,0,0,0,40.062,0ZM30.075-3.855a3.235,3.235,0,0,0,2.051-.708,3.553,3.553,0,0,0,1.23-1.712V-9.762H30.833a2.418,2.418,0,0,0-2.123.943,4.023,4.023,0,0,0-.667,2.379A2.97,2.97,0,0,0,28.6-4.573,1.771,1.771,0,0,0,30.075-3.855ZM48.921,0H43.138V-31.992h5.783ZM-109.225,35.023V47h-5.783V17.161h8.941a10.033,10.033,0,0,1,7,2.317,8.281,8.281,0,0,1,2.553,6.46,7.36,7.36,0,0,1-1.077,4.02,7.506,7.506,0,0,1-3.107,2.707,5.766,5.766,0,0,1,3.363,2.584A9.028,9.028,0,0,1-96.3,39.761v2.174a12.84,12.84,0,0,0,.287,2.625,3.511,3.511,0,0,0,1.025,2.01V47h-5.988a3.419,3.419,0,0,1-.913-2.143,22.786,22.786,0,0,1-.195-2.963V39.8a5.758,5.758,0,0,0-.943-3.527,3.186,3.186,0,0,0-2.707-1.251Zm0-4.512h3.117a3.565,3.565,0,0,0,2.84-1.118,4.673,4.673,0,0,0,.974-3.168,5.247,5.247,0,0,0-.964-3.322,3.354,3.354,0,0,0-2.81-1.23h-3.158Zm25.512,16.919A8.211,8.211,0,0,1-90.521,44.4a12.148,12.148,0,0,1-2.42-7.813v-.841a13.447,13.447,0,0,1,2.328-8.183A7.666,7.666,0,0,1-84.062,24.4a7.163,7.163,0,0,1,6.009,2.687,11.587,11.587,0,0,1,2.092,7.3v3.158h-11.2a7.794,7.794,0,0,0,1.118,3.917,3.362,3.362,0,0,0,3,1.456,8.926,8.926,0,0,0,2.881-.4,11.7,11.7,0,0,0,2.492-1.261l1.5,3.609a9.588,9.588,0,0,1-3.209,1.825A12.538,12.538,0,0,1-83.713,47.431Zm-.349-18.5a2.316,2.316,0,0,0-2.164,1.282,8.868,8.868,0,0,0-.892,3.517h5.5v-.513a7.192,7.192,0,0,0-.564-3.158A1.941,1.941,0,0,0-84.062,28.933Zm20.938,12.284a2.2,2.2,0,0,0-.759-1.682,12.465,12.465,0,0,0-2.933-1.7A15.526,15.526,0,0,1-71.9,34.982a5.29,5.29,0,0,1-1.7-4.061,5.935,5.935,0,0,1,2.164-4.614A8.352,8.352,0,0,1-65.707,24.4a8.635,8.635,0,0,1,5.958,1.979,6.1,6.1,0,0,1,2.123,4.994l-.041.123h-5.578a3.749,3.749,0,0,0-.615-2.246,2.151,2.151,0,0,0-1.866-.851,2.356,2.356,0,0,0-1.692.656,2.128,2.128,0,0,0-.687,1.6,2.03,2.03,0,0,0,.677,1.589,14.108,14.108,0,0,0,2.953,1.671,14.353,14.353,0,0,1,5.219,2.84,5.583,5.583,0,0,1,1.712,4.235,5.663,5.663,0,0,1-2.266,4.635,9.315,9.315,0,0,1-5.978,1.8,8.373,8.373,0,0,1-6.132-2.215,6.514,6.514,0,0,1-2.153-5.024l.062-.123h5.25a3.6,3.6,0,0,0,.861,2.594,3.117,3.117,0,0,0,2.256.79,2.647,2.647,0,0,0,1.876-.6A2.126,2.126,0,0,0-63.123,41.217Zm26.168-4.758a14.4,14.4,0,0,1-1.958,7.967,6.2,6.2,0,0,1-5.486,3,5.355,5.355,0,0,1-2.5-.564,5.463,5.463,0,0,1-1.887-1.651V55.531h-5.763V24.811h5.291l.246,2.276A6.167,6.167,0,0,1-47.065,25.1a4.89,4.89,0,0,1,2.625-.7,6.149,6.149,0,0,1,5.527,3.2,15.992,15.992,0,0,1,1.958,8.429Zm-5.783-.431a14.039,14.039,0,0,0-.779-5.127,2.588,2.588,0,0,0-2.42-1.948,2.893,2.893,0,0,0-1.7.5,3.518,3.518,0,0,0-1.148,1.4V41.319a3.009,3.009,0,0,0,1.148,1.189,3.418,3.418,0,0,0,1.723.41,2.521,2.521,0,0,0,2.43-1.712,12.151,12.151,0,0,0,.749-4.748ZM-34.6,35.7a13.119,13.119,0,0,1,2.389-8.152A7.944,7.944,0,0,1-25.491,24.4a8.006,8.006,0,0,1,6.727,3.148,13,13,0,0,1,2.42,8.152v.472a12.951,12.951,0,0,1-2.41,8.131,7.977,7.977,0,0,1-6.7,3.127A8.023,8.023,0,0,1-32.2,44.313a12.98,12.98,0,0,1-2.4-8.142Zm5.763.472a12.931,12.931,0,0,0,.769,4.922,2.669,2.669,0,0,0,2.615,1.825,2.636,2.636,0,0,0,2.543-1.825,12.778,12.778,0,0,0,.779-4.922V35.7a12.887,12.887,0,0,0-.779-4.912,2.664,2.664,0,0,0-2.584-1.856A2.647,2.647,0,0,0-28.065,30.8a13.058,13.058,0,0,0-.769,4.9ZM-7.916,24.811l.246,3.1a7.54,7.54,0,0,1,2.307-2.584A5.313,5.313,0,0,1-2.317,24.4a5.2,5.2,0,0,1,4.44,2.2q1.61,2.2,1.61,6.921V47H-2.051V33.526a7.481,7.481,0,0,0-.6-3.538,1.987,1.987,0,0,0-1.835-1.036,3.36,3.36,0,0,0-1.733.451,3.913,3.913,0,0,0-1.3,1.271V47H-13.31V24.811ZM17.329,41.217a2.2,2.2,0,0,0-.759-1.682,12.465,12.465,0,0,0-2.933-1.7,15.526,15.526,0,0,1-5.086-2.851,5.29,5.29,0,0,1-1.7-4.061,5.935,5.935,0,0,1,2.164-4.614A8.352,8.352,0,0,1,14.745,24.4,8.635,8.635,0,0,1,20.7,26.379a6.1,6.1,0,0,1,2.123,4.994l-.041.123H17.206a3.749,3.749,0,0,0-.615-2.246,2.151,2.151,0,0,0-1.866-.851,2.356,2.356,0,0,0-1.692.656,2.128,2.128,0,0,0-.687,1.6,2.03,2.03,0,0,0,.677,1.589,14.108,14.108,0,0,0,2.953,1.671,14.353,14.353,0,0,1,5.219,2.84,5.583,5.583,0,0,1,1.712,4.235,5.663,5.663,0,0,1-2.266,4.635,9.315,9.315,0,0,1-5.978,1.8,8.373,8.373,0,0,1-6.132-2.215,6.514,6.514,0,0,1-2.153-5.024l.062-.123h5.25a3.6,3.6,0,0,0,.861,2.594,3.117,3.117,0,0,0,2.256.79,2.647,2.647,0,0,0,1.876-.6A2.126,2.126,0,0,0,17.329,41.217ZM31.951,47H26.168V24.811h5.783Zm0-27.583H26.168V15.008h5.783ZM53.689,36.459a14.732,14.732,0,0,1-1.9,8,6.173,6.173,0,0,1-5.547,2.974,5.126,5.126,0,0,1-2.789-.749,6.275,6.275,0,0,1-2.03-2.164L41.036,47H36.094V15.008h5.763V26.779a5.764,5.764,0,0,1,1.887-1.764,4.949,4.949,0,0,1,2.481-.615,6.109,6.109,0,0,1,5.568,3.158,16.366,16.366,0,0,1,1.9,8.47Zm-5.783-.431a15.853,15.853,0,0,0-.677-5.209,2.491,2.491,0,0,0-2.481-1.866,2.932,2.932,0,0,0-1.733.513A3.537,3.537,0,0,0,41.856,30.9V41.217A3,3,0,0,0,43,42.478a3.437,3.437,0,0,0,1.764.42,2.449,2.449,0,0,0,2.481-1.641,13.525,13.525,0,0,0,.656-4.8ZM62.815,47H57.032V24.811h5.783Zm0-27.583H57.032V15.008h5.783ZM73.008,47H67.225V15.008h5.783ZM83.2,47H77.417V24.811H83.2Zm0-27.583H77.417V15.008H83.2Zm10.91-.123v5.517h3.015v4.122H94.11v11.3a3.678,3.678,0,0,0,.41,2.01,1.3,1.3,0,0,0,1.128.595,3.685,3.685,0,0,0,.677-.051,6.044,6.044,0,0,0,.656-.174l.451,4.266a10.152,10.152,0,0,1-1.569.42,9.708,9.708,0,0,1-1.692.133,5.455,5.455,0,0,1-4.337-1.723q-1.507-1.723-1.507-5.435V28.933H85.641V24.811h2.687V19.294Zm13.433,18.744V38.1h.123l3.322-13.289H117.2l-7.649,25.532a12.01,12.01,0,0,1-2.256,4.009,5.462,5.462,0,0,1-4.327,1.61,6.142,6.142,0,0,1-1.241-.113q-.543-.113-1.528-.359l.7-4.245.441.082a2.244,2.244,0,0,0,.42.041,2.557,2.557,0,0,0,1.938-.7,4.175,4.175,0,0,0,.974-1.825l.554-1.7L98.54,24.811h6.214Z" transform="translate(280 304)" fill="#9d3fd3"/>
    <path id="Trazado_7215" data-name="Trazado 7215" d="M-121.2-15.869h-4.712V0h-2.49V-15.869h-4.675v-1.9H-121.2Zm.146,9.119a7.893,7.893,0,0,1,1.392-4.822,4.5,4.5,0,0,1,3.821-1.88,4.511,4.511,0,0,1,3.827,1.88,7.869,7.869,0,0,1,1.4,4.822v.33a7.833,7.833,0,0,1-1.392,4.816A4.5,4.5,0,0,1-115.82.256a4.534,4.534,0,0,1-3.845-1.862,7.833,7.833,0,0,1-1.392-4.816Zm2.49.33a7.667,7.667,0,0,0,.677,3.455,2.2,2.2,0,0,0,2.069,1.343,2.17,2.17,0,0,0,2.032-1.349,7.675,7.675,0,0,0,.677-3.448v-.33a7.632,7.632,0,0,0-.684-3.436,2.19,2.19,0,0,0-2.051-1.361,2.178,2.178,0,0,0-2.045,1.361,7.691,7.691,0,0,0-.677,3.436Zm20.4,4.8a1.95,1.95,0,0,0,1.532-.708,2.818,2.818,0,0,0,.616-1.917h2.234l.024.073A4.081,4.081,0,0,1-95.02-1.025,4.334,4.334,0,0,1-98.169.256a4.362,4.362,0,0,1-3.772-1.862,7.981,7.981,0,0,1-1.331-4.755v-.464a8.015,8.015,0,0,1,1.331-4.755,4.353,4.353,0,0,1,3.772-1.874,4.185,4.185,0,0,1,3.217,1.337,4.778,4.778,0,0,1,1.2,3.473l-.024.061h-2.246a3.587,3.587,0,0,0-.592-2.142,1.831,1.831,0,0,0-1.556-.824,2.079,2.079,0,0,0-2.008,1.343,8.114,8.114,0,0,0-.616,3.381v.464a8.2,8.2,0,0,0,.61,3.406A2.076,2.076,0,0,0-98.169-1.624Zm6.226-5.127a7.893,7.893,0,0,1,1.392-4.822,4.5,4.5,0,0,1,3.821-1.88,4.511,4.511,0,0,1,3.827,1.88,7.869,7.869,0,0,1,1.4,4.822v.33A7.833,7.833,0,0,1-82.9-1.605,4.5,4.5,0,0,1-86.707.256a4.534,4.534,0,0,1-3.845-1.862,7.833,7.833,0,0,1-1.392-4.816Zm2.49.33a7.667,7.667,0,0,0,.677,3.455,2.2,2.2,0,0,0,2.069,1.343,2.17,2.17,0,0,0,2.032-1.349A7.675,7.675,0,0,0-84-6.421v-.33a7.632,7.632,0,0,0-.684-3.436,2.19,2.19,0,0,0-2.051-1.361,2.178,2.178,0,0,0-2.045,1.361,7.691,7.691,0,0,0-.677,3.436Zm12.585-6.787.134,1.794a4.108,4.108,0,0,1,1.4-1.508,3.638,3.638,0,0,1,1.971-.531,3.085,3.085,0,0,1,1.9.6,3.614,3.614,0,0,1,1.208,1.837,4.51,4.51,0,0,1,1.4-1.794,3.359,3.359,0,0,1,2.057-.647,3.128,3.128,0,0,1,2.7,1.4A7.44,7.44,0,0,1-63.11-7.8V0H-65.6V-7.812a5.834,5.834,0,0,0-.513-2.887,1.682,1.682,0,0,0-1.526-.824,1.865,1.865,0,0,0-1.434.635,3.869,3.869,0,0,0-.848,1.672q.012.22.024.458t.012.482V0h-2.478V-7.812a5.744,5.744,0,0,0-.525-2.85,1.683,1.683,0,0,0-1.526-.861,2.151,2.151,0,0,0-1.367.439,2.9,2.9,0,0,0-.879,1.208V0h-2.49V-13.208Zm26.526,7.019A8.364,8.364,0,0,1-51.508-1.5,3.693,3.693,0,0,1-54.761.256a3.737,3.737,0,0,1-1.727-.385,3.512,3.512,0,0,1-1.276-1.129V5.078h-2.49V-13.208h2.112l.232,1.587a3.887,3.887,0,0,1,1.318-1.361,3.46,3.46,0,0,1,1.819-.47,3.637,3.637,0,0,1,3.265,1.917,9.72,9.72,0,0,1,1.166,5.09Zm-2.49-.256a8.8,8.8,0,0,0-.653-3.662,2.1,2.1,0,0,0-1.959-1.416,2.18,2.18,0,0,0-1.4.458,3.175,3.175,0,0,0-.916,1.239v6.653a2.776,2.776,0,0,0,.916,1.147,2.4,2.4,0,0,0,1.416.4,2.085,2.085,0,0,0,1.953-1.245,7.234,7.234,0,0,0,.647-3.32ZM-45.3,0h-2.49V-19.043h2.49Zm6.787-4.553.2.891h.073l2.588-9.546h2.722L-37.659,2.051A7.051,7.051,0,0,1-38.916,4.37a2.852,2.852,0,0,1-2.319.964,3.551,3.551,0,0,1-.659-.067q-.354-.067-.7-.153l.281-1.831q.122.024.36.049t.372.024a1.34,1.34,0,0,0,1.16-.616,4.969,4.969,0,0,0,.671-1.459l.452-1.367-4.163-13.123h2.71ZM-18.9,0q-.159-.6-.25-1.068A6.729,6.729,0,0,1-19.263-2,4.85,4.85,0,0,1-20.648-.385a3.2,3.2,0,0,1-1.959.641,3.468,3.468,0,0,1-2.716-1.05,4.127,4.127,0,0,1-.946-2.869A3.6,3.6,0,0,1-24.957-6.6,5.617,5.617,0,0,1-21.3-7.678h2.026V-9.033a2.964,2.964,0,0,0-.537-1.886A1.848,1.848,0,0,0-21.35-11.6a1.84,1.84,0,0,0-1.434.586,2.15,2.15,0,0,0-.531,1.5l-2.368.012-.024-.073a3.356,3.356,0,0,1,1.2-2.71,4.7,4.7,0,0,1,3.32-1.172A4.449,4.449,0,0,1-18.005-12.3a4.309,4.309,0,0,1,1.221,3.29v6.128a10.847,10.847,0,0,0,.1,1.471A9.367,9.367,0,0,0-16.382,0Zm-3.2-1.648A2.782,2.782,0,0,0-20.3-2.277,2.911,2.911,0,0,0-19.275-3.8V-6.14h-2.063a2.279,2.279,0,0,0-1.794.726,2.542,2.542,0,0,0-.647,1.752A2.277,2.277,0,0,0-23.34-2.2,1.5,1.5,0,0,0-22.095-1.648Zm10.388-11.56.146,1.965a4.462,4.462,0,0,1,1.416-1.63,3.376,3.376,0,0,1,1.941-.58,3.245,3.245,0,0,1,2.74,1.294A6.67,6.67,0,0,1-4.48-8.13V0H-6.958V-8.118a4.937,4.937,0,0,0-.519-2.637,1.764,1.764,0,0,0-1.569-.769,2.417,2.417,0,0,0-1.465.446,3.119,3.119,0,0,0-.977,1.227V0h-2.49V-13.208Zm9.595,6.763a9.762,9.762,0,0,1,1.16-5.09,3.623,3.623,0,0,1,3.259-1.917,3.361,3.361,0,0,1,1.685.421,3.823,3.823,0,0,1,1.282,1.215v-7.227H7.751V0H5.7L5.444-1.587A3.917,3.917,0,0,1,4.1-.214a3.5,3.5,0,0,1-1.819.47A3.661,3.661,0,0,1-.958-1.508,8.439,8.439,0,0,1-2.112-6.189Zm2.466.256a7.356,7.356,0,0,0,.623,3.3A2.047,2.047,0,0,0,2.917-1.66,2.266,2.266,0,0,0,4.327-2.1a3.163,3.163,0,0,0,.946-1.245v-6.4a3.5,3.5,0,0,0-.952-1.3,2.121,2.121,0,0,0-1.392-.482,2.057,2.057,0,0,0-1.947,1.41A9.087,9.087,0,0,0,.354-6.445Zm25.708,0A8.364,8.364,0,0,1,24.9-1.5,3.693,3.693,0,0,1,21.643.256a3.737,3.737,0,0,1-1.727-.385A3.512,3.512,0,0,1,18.64-1.257V5.078H16.15V-13.208h2.112l.232,1.587a3.887,3.887,0,0,1,1.318-1.361,3.46,3.46,0,0,1,1.819-.47A3.637,3.637,0,0,1,24.9-11.536a9.72,9.72,0,0,1,1.166,5.09Zm-2.49-.256a8.8,8.8,0,0,0-.653-3.662,2.1,2.1,0,0,0-1.959-1.416,2.18,2.18,0,0,0-1.4.458,3.175,3.175,0,0,0-.916,1.239v6.653a2.776,2.776,0,0,0,.916,1.147,2.4,2.4,0,0,0,1.416.4,2.085,2.085,0,0,0,1.953-1.245,7.234,7.234,0,0,0,.647-3.32Zm10.547-4.7-1.074-.061a1.864,1.864,0,0,0-1.3.47,3.011,3.011,0,0,0-.8,1.324V0h-2.49V-13.208h2.283l.171,1.953a4.243,4.243,0,0,1,1.123-1.617,2.363,2.363,0,0,1,1.575-.58,2.087,2.087,0,0,1,.433.043,2.385,2.385,0,0,1,.36.1ZM35.4-6.75a7.893,7.893,0,0,1,1.392-4.822,4.5,4.5,0,0,1,3.821-1.88,4.511,4.511,0,0,1,3.827,1.88,7.869,7.869,0,0,1,1.4,4.822v.33a7.833,7.833,0,0,1-1.392,4.816A4.5,4.5,0,0,1,40.637.256a4.534,4.534,0,0,1-3.845-1.862A7.833,7.833,0,0,1,35.4-6.421Zm2.49.33a7.667,7.667,0,0,0,.677,3.455,2.2,2.2,0,0,0,2.069,1.343A2.17,2.17,0,0,0,42.67-2.972a7.675,7.675,0,0,0,.677-3.448v-.33a7.632,7.632,0,0,0-.684-3.436,2.19,2.19,0,0,0-2.051-1.361,2.178,2.178,0,0,0-2.045,1.361,7.691,7.691,0,0,0-.677,3.436Zm12.585-6.787.134,1.794a4.108,4.108,0,0,1,1.4-1.508,3.638,3.638,0,0,1,1.971-.531,3.085,3.085,0,0,1,1.9.6,3.614,3.614,0,0,1,1.208,1.837,4.51,4.51,0,0,1,1.4-1.794,3.359,3.359,0,0,1,2.057-.647,3.128,3.128,0,0,1,2.7,1.4A7.44,7.44,0,0,1,64.233-7.8V0h-2.49V-7.812A5.834,5.834,0,0,0,61.23-10.7a1.682,1.682,0,0,0-1.526-.824,1.865,1.865,0,0,0-1.434.635,3.869,3.869,0,0,0-.848,1.672q.012.22.024.458t.012.482V0H54.98V-7.812a5.744,5.744,0,0,0-.525-2.85,1.683,1.683,0,0,0-1.526-.861,2.151,2.151,0,0,0-1.367.439,2.9,2.9,0,0,0-.879,1.208V0h-2.49V-13.208ZM66.589-6.75a7.893,7.893,0,0,1,1.392-4.822,4.5,4.5,0,0,1,3.821-1.88,4.511,4.511,0,0,1,3.827,1.88,7.869,7.869,0,0,1,1.4,4.822v.33a7.833,7.833,0,0,1-1.392,4.816A4.5,4.5,0,0,1,71.826.256a4.534,4.534,0,0,1-3.845-1.862,7.833,7.833,0,0,1-1.392-4.816Zm2.49.33a7.667,7.667,0,0,0,.677,3.455,2.2,2.2,0,0,0,2.069,1.343,2.17,2.17,0,0,0,2.032-1.349,7.675,7.675,0,0,0,.677-3.448v-.33a7.632,7.632,0,0,0-.684-3.436A2.19,2.19,0,0,0,71.8-11.548a2.178,2.178,0,0,0-2.045,1.361A7.691,7.691,0,0,0,69.08-6.75Zm13.5-10.071v3.284h2.063v1.77H82.581v7.861a2.579,2.579,0,0,0,.311,1.459.967.967,0,0,0,.824.433,1.99,1.99,0,0,0,.391-.037q.183-.037.427-.11L84.79-.122A3.891,3.891,0,0,1,84,.153a3.84,3.84,0,0,1-.9.1,2.774,2.774,0,0,1-2.222-.922,4.406,4.406,0,0,1-.793-2.911v-7.861H78.345v-1.77H80.09v-3.284ZM91.663.256A4.613,4.613,0,0,1,87.8-1.55a7.464,7.464,0,0,1-1.4-4.7v-.574a7.748,7.748,0,0,1,1.392-4.767,4.335,4.335,0,0,1,3.638-1.862,4,4,0,0,1,3.436,1.6,7.089,7.089,0,0,1,1.178,4.3v1.392H88.879a6.522,6.522,0,0,0,.726,3.284,2.4,2.4,0,0,0,2.228,1.257,4.636,4.636,0,0,0,1.807-.323,4.62,4.62,0,0,0,1.416-.946l.806,1.538a5.264,5.264,0,0,1-1.74,1.147A6.181,6.181,0,0,1,91.663.256Zm-.232-11.8a1.943,1.943,0,0,0-1.709.995,5.927,5.927,0,0,0-.793,2.631H93.6V-8.2a4.835,4.835,0,0,0-.531-2.417A1.763,1.763,0,0,0,91.431-11.548Zm15.527-4.944v3.284h2.063v1.77h-2.063v7.861a2.579,2.579,0,0,0,.311,1.459.967.967,0,0,0,.824.433,1.99,1.99,0,0,0,.391-.037q.183-.037.427-.11l.256,1.709a3.891,3.891,0,0,1-.787.275,3.84,3.84,0,0,1-.9.1,2.774,2.774,0,0,1-2.222-.922,4.406,4.406,0,0,1-.793-2.911v-7.861h-1.746v-1.77h1.746v-3.284Zm6.763,5.054a4.377,4.377,0,0,1,1.379-1.483,3.29,3.29,0,0,1,1.831-.531,3.343,3.343,0,0,1,2.808,1.318,6.63,6.63,0,0,1,1.013,4.053V0h-2.49V-8.105a4.941,4.941,0,0,0-.525-2.618,1.735,1.735,0,0,0-1.55-.8,2.571,2.571,0,0,0-1.471.415,3,3,0,0,0-.995,1.16V0h-2.49V-19.043h2.49ZM128.345.256a4.613,4.613,0,0,1-3.864-1.807,7.464,7.464,0,0,1-1.4-4.7v-.574a7.748,7.748,0,0,1,1.392-4.767,4.335,4.335,0,0,1,3.638-1.862,4,4,0,0,1,3.436,1.6,7.089,7.089,0,0,1,1.178,4.3v1.392h-7.166a6.522,6.522,0,0,0,.726,3.284,2.4,2.4,0,0,0,2.228,1.257,4.636,4.636,0,0,0,1.807-.323,4.62,4.62,0,0,0,1.416-.946l.806,1.538A5.264,5.264,0,0,1,130.8-.208,6.181,6.181,0,0,1,128.345.256Zm-.232-11.8a1.943,1.943,0,0,0-1.709.995,5.927,5.927,0,0,0-.793,2.631h4.675V-8.2a4.835,4.835,0,0,0-.531-2.417A1.763,1.763,0,0,0,128.113-11.548ZM-148.993,23.811a8.364,8.364,0,0,1-1.166,4.688,3.693,3.693,0,0,1-3.253,1.758,3.737,3.737,0,0,1-1.727-.385,3.512,3.512,0,0,1-1.276-1.129v6.335h-2.49V16.792h2.112l.232,1.587a3.887,3.887,0,0,1,1.318-1.361,3.46,3.46,0,0,1,1.819-.47,3.637,3.637,0,0,1,3.265,1.917,9.72,9.72,0,0,1,1.166,5.09Zm-2.49-.256a8.8,8.8,0,0,0-.653-3.662,2.1,2.1,0,0,0-1.959-1.416,2.18,2.18,0,0,0-1.4.458,3.175,3.175,0,0,0-.916,1.239v6.653a2.776,2.776,0,0,0,.916,1.147,2.4,2.4,0,0,0,1.416.4,2.085,2.085,0,0,0,1.953-1.245,7.234,7.234,0,0,0,.647-3.32Zm10.547-4.7-1.074-.061a1.864,1.864,0,0,0-1.3.47,3.011,3.011,0,0,0-.8,1.324V30h-2.49V16.792h2.283l.171,1.953a4.243,4.243,0,0,1,1.123-1.617,2.363,2.363,0,0,1,1.575-.58,2.087,2.087,0,0,1,.433.043,2.385,2.385,0,0,1,.36.1ZM-136.261,30h-2.49V16.792h2.49Zm0-16.675h-2.49V10.957h2.49Zm5.273,3.467.146,1.965a4.462,4.462,0,0,1,1.416-1.63,3.376,3.376,0,0,1,1.941-.58,3.245,3.245,0,0,1,2.74,1.294,6.67,6.67,0,0,1,.983,4.028V30h-2.478V21.882a4.937,4.937,0,0,0-.519-2.637,1.764,1.764,0,0,0-1.569-.769,2.417,2.417,0,0,0-1.465.446,3.119,3.119,0,0,0-.977,1.227V30h-2.49V16.792Zm14.648,11.584a1.95,1.95,0,0,0,1.532-.708,2.818,2.818,0,0,0,.616-1.917h2.234l.024.073a4.081,4.081,0,0,1-1.257,3.149,4.334,4.334,0,0,1-3.149,1.282,4.362,4.362,0,0,1-3.772-1.862,7.981,7.981,0,0,1-1.331-4.755v-.464a8.015,8.015,0,0,1,1.331-4.755,4.353,4.353,0,0,1,3.772-1.874,4.185,4.185,0,0,1,3.217,1.337,4.778,4.778,0,0,1,1.2,3.473l-.024.061h-2.246a3.587,3.587,0,0,0-.592-2.142,1.831,1.831,0,0,0-1.556-.824,2.079,2.079,0,0,0-2.008,1.343,8.114,8.114,0,0,0-.616,3.381v.464a8.2,8.2,0,0,0,.61,3.406A2.076,2.076,0,0,0-116.339,28.376ZM-106.964,30h-2.49V16.792h2.49Zm0-16.675h-2.49V10.957h2.49Zm12.939,10.486A8.364,8.364,0,0,1-95.19,28.5a3.693,3.693,0,0,1-3.253,1.758,3.737,3.737,0,0,1-1.727-.385,3.512,3.512,0,0,1-1.276-1.129v6.335h-2.49V16.792h2.112l.232,1.587a3.887,3.887,0,0,1,1.318-1.361,3.46,3.46,0,0,1,1.819-.47,3.637,3.637,0,0,1,3.265,1.917,9.72,9.72,0,0,1,1.166,5.09Zm-2.49-.256a8.8,8.8,0,0,0-.653-3.662,2.1,2.1,0,0,0-1.959-1.416,2.18,2.18,0,0,0-1.4.458,3.176,3.176,0,0,0-.916,1.239v6.653a2.776,2.776,0,0,0,.916,1.147,2.4,2.4,0,0,0,1.416.4,2.085,2.085,0,0,0,1.953-1.245,7.234,7.234,0,0,0,.647-3.32ZM-88.983,30h-2.49V10.957h2.49Zm7.8.256a4.613,4.613,0,0,1-3.864-1.807,7.464,7.464,0,0,1-1.4-4.7v-.574a7.748,7.748,0,0,1,1.392-4.767,4.335,4.335,0,0,1,3.638-1.862,4,4,0,0,1,3.436,1.6,7.089,7.089,0,0,1,1.178,4.3v1.392h-7.166a6.522,6.522,0,0,0,.726,3.284,2.4,2.4,0,0,0,2.228,1.257,4.636,4.636,0,0,0,1.807-.323,4.62,4.62,0,0,0,1.416-.946l.806,1.538a5.264,5.264,0,0,1-1.74,1.147A6.181,6.181,0,0,1-81.183,30.256Zm-.232-11.8a1.943,1.943,0,0,0-1.709.995,5.927,5.927,0,0,0-.793,2.631h4.675V21.8a4.835,4.835,0,0,0-.531-2.417A1.763,1.763,0,0,0-81.415,18.452Zm13.11,8.215a1.759,1.759,0,0,0-.513-1.288,6.861,6.861,0,0,0-1.965-1.166,9.854,9.854,0,0,1-3.052-1.672,2.967,2.967,0,0,1-1.013-2.319,3.335,3.335,0,0,1,1.227-2.6,4.669,4.669,0,0,1,3.192-1.074,4.582,4.582,0,0,1,3.284,1.178,3.624,3.624,0,0,1,1.2,2.85l-.024.073h-2.393a2.47,2.47,0,0,0-.555-1.617,1.846,1.846,0,0,0-1.508-.677,2,2,0,0,0-1.483.531,1.7,1.7,0,0,0-.531,1.239,1.56,1.56,0,0,0,.458,1.19,8.089,8.089,0,0,0,1.959,1.117,9.023,9.023,0,0,1,3.119,1.7,3.153,3.153,0,0,1,1.044,2.417,3.3,3.3,0,0,1-1.263,2.679,5.075,5.075,0,0,1-3.314,1.031,4.807,4.807,0,0,1-3.5-1.239,3.713,3.713,0,0,1-1.215-2.9l.024-.073h2.307a2.413,2.413,0,0,0,.726,1.849,2.543,2.543,0,0,0,1.691.568,2.207,2.207,0,0,0,1.544-.507A1.667,1.667,0,0,0-68.3,26.667Zm9.741-3.418a7.893,7.893,0,0,1,1.392-4.822,4.5,4.5,0,0,1,3.821-1.88,4.511,4.511,0,0,1,3.827,1.88,7.869,7.869,0,0,1,1.4,4.822v.33a7.833,7.833,0,0,1-1.392,4.816,4.5,4.5,0,0,1-3.809,1.862,4.534,4.534,0,0,1-3.845-1.862,7.833,7.833,0,0,1-1.392-4.816Zm2.49.33a7.667,7.667,0,0,0,.677,3.455,2.2,2.2,0,0,0,2.069,1.343,2.17,2.17,0,0,0,2.032-1.349,7.675,7.675,0,0,0,.677-3.448v-.33a7.632,7.632,0,0,0-.684-3.436,2.19,2.19,0,0,0-2.051-1.361A2.178,2.178,0,0,0-55.4,19.813a7.691,7.691,0,0,0-.677,3.436ZM-44.928,30V18.562h-1.746v-1.77h1.746V15.1a4.728,4.728,0,0,1,1.019-3.247,3.614,3.614,0,0,1,2.85-1.147,4.361,4.361,0,0,1,.751.067q.385.067.836.189l-.232,1.819a4.318,4.318,0,0,0-.488-.1,3.984,3.984,0,0,0-.562-.037,1.434,1.434,0,0,0-1.263.635A3.212,3.212,0,0,0-42.45,15.1v1.7h2.185v1.77H-42.45V30Zm18.359-3.333a1.759,1.759,0,0,0-.513-1.288,6.861,6.861,0,0,0-1.965-1.166A9.854,9.854,0,0,1-32.1,22.542a2.967,2.967,0,0,1-1.013-2.319,3.335,3.335,0,0,1,1.227-2.6,4.669,4.669,0,0,1,3.192-1.074,4.582,4.582,0,0,1,3.284,1.178,3.624,3.624,0,0,1,1.2,2.85l-.024.073H-26.63a2.47,2.47,0,0,0-.555-1.617,1.846,1.846,0,0,0-1.508-.677,2,2,0,0,0-1.483.531,1.7,1.7,0,0,0-.531,1.239,1.56,1.56,0,0,0,.458,1.19,8.089,8.089,0,0,0,1.959,1.117,9.023,9.023,0,0,1,3.119,1.7,3.153,3.153,0,0,1,1.044,2.417,3.3,3.3,0,0,1-1.263,2.679A5.075,5.075,0,0,1-28.7,30.256a4.807,4.807,0,0,1-3.5-1.239,3.713,3.713,0,0,1-1.215-2.9l.024-.073h2.307a2.413,2.413,0,0,0,.726,1.849,2.543,2.543,0,0,0,1.691.568,2.207,2.207,0,0,0,1.544-.507A1.667,1.667,0,0,0-26.569,26.667Zm4.248-3.418a7.893,7.893,0,0,1,1.392-4.822,4.5,4.5,0,0,1,3.821-1.88,4.511,4.511,0,0,1,3.827,1.88,7.869,7.869,0,0,1,1.4,4.822v.33a7.833,7.833,0,0,1-1.392,4.816,4.5,4.5,0,0,1-3.809,1.862,4.534,4.534,0,0,1-3.845-1.862,7.833,7.833,0,0,1-1.392-4.816Zm2.49.33a7.667,7.667,0,0,0,.677,3.455,2.2,2.2,0,0,0,2.069,1.343,2.17,2.17,0,0,0,2.032-1.349,7.675,7.675,0,0,0,.677-3.448v-.33a7.632,7.632,0,0,0-.684-3.436,2.19,2.19,0,0,0-2.051-1.361,2.178,2.178,0,0,0-2.045,1.361,7.691,7.691,0,0,0-.677,3.436Zm14.9,4.8a1.95,1.95,0,0,0,1.532-.708,2.818,2.818,0,0,0,.616-1.917H-.543l.024.073a4.081,4.081,0,0,1-1.257,3.149,4.334,4.334,0,0,1-3.149,1.282A4.362,4.362,0,0,1-8.7,28.395a7.981,7.981,0,0,1-1.331-4.755v-.464A8.015,8.015,0,0,1-8.7,18.422a4.353,4.353,0,0,1,3.772-1.874,4.185,4.185,0,0,1,3.217,1.337,4.778,4.778,0,0,1,1.2,3.473l-.024.061H-2.777a3.587,3.587,0,0,0-.592-2.142,1.831,1.831,0,0,0-1.556-.824,2.079,2.079,0,0,0-2.008,1.343,8.114,8.114,0,0,0-.616,3.381v.464a8.2,8.2,0,0,0,.61,3.406A2.076,2.076,0,0,0-4.926,28.376ZM4.449,30H1.959V16.792h2.49Zm0-16.675H1.959V10.957h2.49ZM14.337,30q-.159-.6-.25-1.068A6.729,6.729,0,0,1,13.971,28a4.85,4.85,0,0,1-1.385,1.617,3.2,3.2,0,0,1-1.959.641,3.468,3.468,0,0,1-2.716-1.05,4.127,4.127,0,0,1-.946-2.869A3.6,3.6,0,0,1,8.276,23.4a5.617,5.617,0,0,1,3.656-1.074h2.026V20.967a2.964,2.964,0,0,0-.537-1.886,1.848,1.848,0,0,0-1.538-.677,1.84,1.84,0,0,0-1.434.586,2.15,2.15,0,0,0-.531,1.5L7.55,20.5l-.024-.073a3.356,3.356,0,0,1,1.2-2.71,4.7,4.7,0,0,1,3.32-1.172A4.449,4.449,0,0,1,15.228,17.7a4.309,4.309,0,0,1,1.221,3.29v6.128a10.847,10.847,0,0,0,.1,1.471A9.367,9.367,0,0,0,16.852,30Zm-3.2-1.648a2.782,2.782,0,0,0,1.794-.629,2.911,2.911,0,0,0,1.025-1.52V23.86H11.9a2.279,2.279,0,0,0-1.794.726,2.542,2.542,0,0,0-.647,1.752A2.277,2.277,0,0,0,9.894,27.8,1.5,1.5,0,0,0,11.139,28.352ZM21.93,30H19.44V10.957h2.49ZM36.115,18.855l-1.074-.061a1.864,1.864,0,0,0-1.3.47,3.011,3.011,0,0,0-.8,1.324V30H30.45V16.792h2.283l.171,1.953a4.243,4.243,0,0,1,1.123-1.617,2.363,2.363,0,0,1,1.575-.58,2.087,2.087,0,0,1,.433.043,2.385,2.385,0,0,1,.36.1Zm6.567,11.4a4.613,4.613,0,0,1-3.864-1.807,7.464,7.464,0,0,1-1.4-4.7v-.574a7.748,7.748,0,0,1,1.392-4.767,4.335,4.335,0,0,1,3.638-1.862,4,4,0,0,1,3.436,1.6,7.089,7.089,0,0,1,1.178,4.3v1.392H39.9a6.522,6.522,0,0,0,.726,3.284,2.4,2.4,0,0,0,2.228,1.257,4.327,4.327,0,0,0,3.223-1.27l.806,1.538a5.264,5.264,0,0,1-1.74,1.147A6.181,6.181,0,0,1,42.682,30.256Zm-.232-11.8a1.943,1.943,0,0,0-1.709.995,5.927,5.927,0,0,0-.793,2.631h4.675V21.8a4.835,4.835,0,0,0-.531-2.417A1.763,1.763,0,0,0,42.45,18.452Zm13.11,8.215a1.759,1.759,0,0,0-.513-1.288,6.861,6.861,0,0,0-1.965-1.166,9.854,9.854,0,0,1-3.052-1.672,2.967,2.967,0,0,1-1.013-2.319,3.335,3.335,0,0,1,1.227-2.6,4.669,4.669,0,0,1,3.192-1.074,4.582,4.582,0,0,1,3.284,1.178,3.624,3.624,0,0,1,1.2,2.85l-.024.073H55.5a2.47,2.47,0,0,0-.555-1.617,1.846,1.846,0,0,0-1.508-.677,2,2,0,0,0-1.483.531,1.7,1.7,0,0,0-.531,1.239,1.56,1.56,0,0,0,.458,1.19,8.089,8.089,0,0,0,1.959,1.117,9.023,9.023,0,0,1,3.119,1.7A3.153,3.153,0,0,1,58,26.545a3.3,3.3,0,0,1-1.263,2.679,5.075,5.075,0,0,1-3.314,1.031,4.807,4.807,0,0,1-3.5-1.239,3.713,3.713,0,0,1-1.215-2.9l.024-.073h2.307a2.413,2.413,0,0,0,.726,1.849,2.543,2.543,0,0,0,1.691.568A2.207,2.207,0,0,0,55,27.955,1.667,1.667,0,0,0,55.56,26.667Zm14.661-2.856A8.364,8.364,0,0,1,69.055,28.5,3.693,3.693,0,0,1,65.8,30.256a3.737,3.737,0,0,1-1.727-.385A3.512,3.512,0,0,1,62.8,28.743v6.335h-2.49V16.792h2.112l.232,1.587a3.887,3.887,0,0,1,1.318-1.361,3.46,3.46,0,0,1,1.819-.47,3.637,3.637,0,0,1,3.265,1.917,9.72,9.72,0,0,1,1.166,5.09Zm-2.49-.256a8.8,8.8,0,0,0-.653-3.662,2.1,2.1,0,0,0-1.959-1.416,2.18,2.18,0,0,0-1.4.458,3.175,3.175,0,0,0-.916,1.239v6.653a2.776,2.776,0,0,0,.916,1.147,2.4,2.4,0,0,0,1.416.4,2.085,2.085,0,0,0,1.953-1.245,7.234,7.234,0,0,0,.647-3.32Zm4.382-.305A7.893,7.893,0,0,1,73.5,18.428a4.829,4.829,0,0,1,7.648,0,7.869,7.869,0,0,1,1.4,4.822v.33a7.833,7.833,0,0,1-1.392,4.816,4.864,4.864,0,0,1-7.654,0,7.833,7.833,0,0,1-1.392-4.816Zm2.49.33a7.667,7.667,0,0,0,.677,3.455,2.2,2.2,0,0,0,2.069,1.343,2.17,2.17,0,0,0,2.032-1.349,7.675,7.675,0,0,0,.677-3.448v-.33a7.632,7.632,0,0,0-.684-3.436,2.221,2.221,0,0,0-4.1,0A7.691,7.691,0,0,0,74.6,23.25Zm12.561-6.787.146,1.965a4.462,4.462,0,0,1,1.416-1.63,3.376,3.376,0,0,1,1.941-.58,3.245,3.245,0,0,1,2.74,1.294,6.67,6.67,0,0,1,.983,4.028V30H91.913V21.882a4.937,4.937,0,0,0-.519-2.637,1.764,1.764,0,0,0-1.569-.769,2.417,2.417,0,0,0-1.465.446,3.119,3.119,0,0,0-.977,1.227V30h-2.49V16.792Zm16.321,9.875a1.759,1.759,0,0,0-.513-1.288,6.861,6.861,0,0,0-1.965-1.166,9.854,9.854,0,0,1-3.052-1.672,2.967,2.967,0,0,1-1.013-2.319,3.335,3.335,0,0,1,1.227-2.6,4.669,4.669,0,0,1,3.192-1.074,4.582,4.582,0,0,1,3.284,1.178,3.624,3.624,0,0,1,1.2,2.85l-.024.073h-2.393a2.47,2.47,0,0,0-.555-1.617,1.846,1.846,0,0,0-1.508-.677,2,2,0,0,0-1.483.531,1.7,1.7,0,0,0-.531,1.239,1.56,1.56,0,0,0,.458,1.19,8.089,8.089,0,0,0,1.959,1.117,9.023,9.023,0,0,1,3.119,1.7,3.153,3.153,0,0,1,1.044,2.417,3.3,3.3,0,0,1-1.263,2.679,5.075,5.075,0,0,1-3.314,1.031,4.807,4.807,0,0,1-3.5-1.239,3.713,3.713,0,0,1-1.215-2.9l.024-.073h2.307a2.413,2.413,0,0,0,.726,1.849,2.543,2.543,0,0,0,1.691.568,2.207,2.207,0,0,0,1.544-.507A1.667,1.667,0,0,0,103.485,26.667Zm7.4,3.333h-2.49V16.792h2.49Zm0-16.675h-2.49V10.957h2.49Zm12.952,10.486a8.433,8.433,0,0,1-1.154,4.688,3.685,3.685,0,0,1-3.265,1.758,3.558,3.558,0,0,1-1.874-.482,3.762,3.762,0,0,1-1.324-1.41L115.948,30H113.91V10.957h2.49V18.22a3.8,3.8,0,0,1,1.27-1.239,3.384,3.384,0,0,1,1.733-.433,3.631,3.631,0,0,1,3.278,1.91,9.8,9.8,0,0,1,1.154,5.1Zm-2.49-.256a9.3,9.3,0,0,0-.61-3.687,2.037,2.037,0,0,0-1.953-1.392,2.159,2.159,0,0,0-1.453.5,3.4,3.4,0,0,0-.928,1.355v6.25a2.956,2.956,0,0,0,.922,1.3,2.353,2.353,0,0,0,1.483.458,2.021,2.021,0,0,0,1.935-1.215,7.534,7.534,0,0,0,.6-3.314ZM128.864,30h-2.49V16.792h2.49Zm0-16.675h-2.49V10.957h2.49ZM134.54,30h-2.49V10.957h2.49Zm5.676,0h-2.49V16.792h2.49Zm0-16.675h-2.49V10.957h2.49Zm6.213.183v3.284h2.063v1.77h-2.063v7.861a2.579,2.579,0,0,0,.311,1.459.967.967,0,0,0,.824.433,1.99,1.99,0,0,0,.391-.037q.183-.037.427-.11l.256,1.709a3.891,3.891,0,0,1-.787.275,3.84,3.84,0,0,1-.9.1,2.774,2.774,0,0,1-2.222-.922,4.406,4.406,0,0,1-.793-2.911V18.562h-1.746v-1.77h1.746V13.508ZM154.5,25.447l.2.891h.073l2.588-9.546h2.722l-4.724,15.259A7.051,7.051,0,0,1,154.1,34.37a2.852,2.852,0,0,1-2.319.964,3.551,3.551,0,0,1-.659-.067q-.354-.067-.7-.153l.281-1.831q.122.024.36.049t.372.024a1.34,1.34,0,0,0,1.16-.616,4.969,4.969,0,0,0,.671-1.459l.452-1.367-4.163-13.123h2.71ZM-143.854,43.508v3.284h2.063v1.77h-2.063v7.861a2.579,2.579,0,0,0,.311,1.459.967.967,0,0,0,.824.433,1.99,1.99,0,0,0,.391-.037q.183-.037.427-.11l.256,1.709a3.891,3.891,0,0,1-.787.275,3.84,3.84,0,0,1-.9.1,2.774,2.774,0,0,1-2.222-.922,4.406,4.406,0,0,1-.793-2.911V48.562h-1.746v-1.77h1.746V43.508Zm6.763,5.054a4.377,4.377,0,0,1,1.379-1.483,3.29,3.29,0,0,1,1.831-.531,3.343,3.343,0,0,1,2.808,1.318,6.63,6.63,0,0,1,1.013,4.053V60h-2.49V51.895a4.941,4.941,0,0,0-.525-2.618,1.735,1.735,0,0,0-1.55-.8,2.571,2.571,0,0,0-1.471.415,3,3,0,0,0-.995,1.16V60h-2.49V40.957h2.49Zm15.515.293-1.074-.061a1.863,1.863,0,0,0-1.3.47,3.011,3.011,0,0,0-.8,1.324V60h-2.49V46.792h2.283l.171,1.953a4.243,4.243,0,0,1,1.123-1.617,2.363,2.363,0,0,1,1.575-.58,2.087,2.087,0,0,1,.433.043,2.385,2.385,0,0,1,.36.1Zm1.282,4.395a7.893,7.893,0,0,1,1.392-4.822,4.5,4.5,0,0,1,3.821-1.88,4.511,4.511,0,0,1,3.827,1.88,7.869,7.869,0,0,1,1.4,4.822v.33a7.833,7.833,0,0,1-1.392,4.816,4.5,4.5,0,0,1-3.809,1.862,4.534,4.534,0,0,1-3.845-1.862,7.833,7.833,0,0,1-1.392-4.816Zm2.49.33a7.667,7.667,0,0,0,.677,3.455,2.2,2.2,0,0,0,2.069,1.343,2.17,2.17,0,0,0,2.032-1.349,7.675,7.675,0,0,0,.677-3.448v-.33a7.632,7.632,0,0,0-.684-3.436,2.19,2.19,0,0,0-2.051-1.361,2.178,2.178,0,0,0-2.045,1.361,7.691,7.691,0,0,0-.677,3.436Zm17.419,4.492a4.251,4.251,0,0,1-1.367,1.617,3.334,3.334,0,0,1-1.929.568,3.325,3.325,0,0,1-2.844-1.4,7.432,7.432,0,0,1-1.025-4.358v-7.7h2.49v7.727a6.429,6.429,0,0,0,.488,2.972,1.606,1.606,0,0,0,1.489.848,2.742,2.742,0,0,0,1.556-.427,2.867,2.867,0,0,0,1.007-1.221v-9.9h2.49V60h-2.112Zm4.785-4.517a9.762,9.762,0,0,1,1.16-5.09,3.633,3.633,0,0,1,3.271-1.917,3.337,3.337,0,0,1,1.813.494,4.029,4.029,0,0,1,1.324,1.41l.232-1.66h2.075V60.024a5.379,5.379,0,0,1-1.355,3.925A5.1,5.1,0,0,1-90.9,65.334a6.983,6.983,0,0,1-1.8-.256,7.232,7.232,0,0,1-1.727-.7l.4-1.855a6.336,6.336,0,0,0,1.459.592,6.243,6.243,0,0,0,1.642.214,2.468,2.468,0,0,0,2.051-.824,3.951,3.951,0,0,0,.659-2.5V58.706a3.625,3.625,0,0,1-1.276,1.16,3.588,3.588,0,0,1-1.7.391,3.675,3.675,0,0,1-3.247-1.764,8.4,8.4,0,0,1-1.16-4.681Zm2.49.256a7.476,7.476,0,0,0,.61,3.308,2.032,2.032,0,0,0,1.941,1.221,2.311,2.311,0,0,0,1.41-.427,3,3,0,0,0,.934-1.208V50.21a3.272,3.272,0,0,0-.934-1.27,2.168,2.168,0,0,0-1.4-.464,2.046,2.046,0,0,0-1.941,1.41,9.166,9.166,0,0,0-.623,3.668Zm12.683-5.249a4.377,4.377,0,0,1,1.379-1.483,3.29,3.29,0,0,1,1.831-.531,3.343,3.343,0,0,1,2.808,1.318,6.63,6.63,0,0,1,1.013,4.053V60h-2.49V51.895a4.941,4.941,0,0,0-.525-2.618,1.735,1.735,0,0,0-1.55-.8,2.571,2.571,0,0,0-1.471.415,3,3,0,0,0-.995,1.16V60h-2.49V40.957h2.49Zm18.53-5.054v3.284h2.063v1.77H-61.9v7.861a2.579,2.579,0,0,0,.311,1.459.967.967,0,0,0,.824.433,1.99,1.99,0,0,0,.391-.037q.183-.037.427-.11l.256,1.709a3.891,3.891,0,0,1-.787.275,3.84,3.84,0,0,1-.9.1,2.774,2.774,0,0,1-2.222-.922,4.406,4.406,0,0,1-.793-2.911V48.562h-1.746v-1.77h1.746V43.508Zm9.973,5.347L-53,48.794a1.864,1.864,0,0,0-1.3.47,3.011,3.011,0,0,0-.8,1.324V60h-2.49V46.792H-55.3l.171,1.953a4.243,4.243,0,0,1,1.123-1.617,2.363,2.363,0,0,1,1.575-.58,2.087,2.087,0,0,1,.433.043,2.385,2.385,0,0,1,.36.1ZM-43.036,60q-.159-.6-.25-1.068A6.729,6.729,0,0,1-43.4,58a4.85,4.85,0,0,1-1.385,1.617,3.2,3.2,0,0,1-1.959.641,3.468,3.468,0,0,1-2.716-1.05,4.127,4.127,0,0,1-.946-2.869A3.6,3.6,0,0,1-49.1,53.4a5.617,5.617,0,0,1,3.656-1.074h2.026V50.967a2.964,2.964,0,0,0-.537-1.886A1.848,1.848,0,0,0-45.49,48.4a1.84,1.84,0,0,0-1.434.586,2.15,2.15,0,0,0-.531,1.5l-2.368.012-.024-.073a3.356,3.356,0,0,1,1.2-2.71,4.7,4.7,0,0,1,3.32-1.172A4.449,4.449,0,0,1-42.145,47.7a4.309,4.309,0,0,1,1.221,3.29v6.128a10.847,10.847,0,0,0,.1,1.471A9.367,9.367,0,0,0-40.521,60Zm-3.2-1.648a2.782,2.782,0,0,0,1.794-.629,2.911,2.911,0,0,0,1.025-1.52V53.86h-2.063a2.279,2.279,0,0,0-1.794.726,2.542,2.542,0,0,0-.647,1.752,2.277,2.277,0,0,0,.439,1.465A1.5,1.5,0,0,0-46.234,58.352Zm10.388-11.56.146,1.965a4.462,4.462,0,0,1,1.416-1.63,3.376,3.376,0,0,1,1.941-.58,3.245,3.245,0,0,1,2.74,1.294,6.67,6.67,0,0,1,.983,4.028V60H-31.1V51.882a4.937,4.937,0,0,0-.519-2.637,1.764,1.764,0,0,0-1.569-.769,2.417,2.417,0,0,0-1.465.446,3.119,3.119,0,0,0-.977,1.227V60h-2.49V46.792Zm16.321,9.875a1.759,1.759,0,0,0-.513-1.288A6.861,6.861,0,0,0-22,54.214a9.854,9.854,0,0,1-3.052-1.672,2.967,2.967,0,0,1-1.013-2.319,3.335,3.335,0,0,1,1.227-2.6,4.669,4.669,0,0,1,3.192-1.074,4.582,4.582,0,0,1,3.284,1.178,3.624,3.624,0,0,1,1.2,2.85l-.024.073h-2.393a2.47,2.47,0,0,0-.555-1.617,1.846,1.846,0,0,0-1.508-.677,2,2,0,0,0-1.483.531,1.7,1.7,0,0,0-.531,1.239,1.56,1.56,0,0,0,.458,1.19,8.089,8.089,0,0,0,1.959,1.117,9.024,9.024,0,0,1,3.119,1.7,3.153,3.153,0,0,1,1.044,2.417,3.3,3.3,0,0,1-1.263,2.679,5.075,5.075,0,0,1-3.314,1.031,4.807,4.807,0,0,1-3.5-1.239,3.713,3.713,0,0,1-1.215-2.9l.024-.073h2.307a2.413,2.413,0,0,0,.726,1.849,2.543,2.543,0,0,0,1.691.568,2.207,2.207,0,0,0,1.544-.507A1.667,1.667,0,0,0-19.525,56.667Zm14.661-2.856A8.364,8.364,0,0,1-6.03,58.5a3.693,3.693,0,0,1-3.253,1.758,3.737,3.737,0,0,1-1.727-.385,3.512,3.512,0,0,1-1.276-1.129v6.335h-2.49V46.792h2.112l.232,1.587a3.887,3.887,0,0,1,1.318-1.361,3.46,3.46,0,0,1,1.819-.47A3.637,3.637,0,0,1-6.03,48.464a9.72,9.72,0,0,1,1.166,5.09Zm-2.49-.256a8.8,8.8,0,0,0-.653-3.662,2.1,2.1,0,0,0-1.959-1.416,2.18,2.18,0,0,0-1.4.458,3.175,3.175,0,0,0-.916,1.239v6.653a2.776,2.776,0,0,0,.916,1.147,2.4,2.4,0,0,0,1.416.4A2.085,2.085,0,0,0-8,57.131a7.234,7.234,0,0,0,.647-3.32ZM4.388,60q-.159-.6-.25-1.068A6.729,6.729,0,0,1,4.022,58a4.85,4.85,0,0,1-1.385,1.617,3.2,3.2,0,0,1-1.959.641,3.468,3.468,0,0,1-2.716-1.05,4.127,4.127,0,0,1-.946-2.869A3.6,3.6,0,0,1-1.672,53.4a5.617,5.617,0,0,1,3.656-1.074H4.01V50.967a2.964,2.964,0,0,0-.537-1.886A1.848,1.848,0,0,0,1.935,48.4,1.84,1.84,0,0,0,.5,48.989a2.15,2.15,0,0,0-.531,1.5L-2.4,50.5l-.024-.073a3.356,3.356,0,0,1,1.2-2.71,4.7,4.7,0,0,1,3.32-1.172A4.449,4.449,0,0,1,5.28,47.7,4.309,4.309,0,0,1,6.5,50.991v6.128a10.847,10.847,0,0,0,.1,1.471A9.367,9.367,0,0,0,6.9,60Zm-3.2-1.648a2.782,2.782,0,0,0,1.794-.629A2.911,2.911,0,0,0,4.01,56.2V53.86H1.947a2.279,2.279,0,0,0-1.794.726,2.542,2.542,0,0,0-.647,1.752A2.277,2.277,0,0,0-.055,57.8,1.5,1.5,0,0,0,1.19,58.352ZM15,48.855l-1.074-.061a1.863,1.863,0,0,0-1.3.47,3.011,3.011,0,0,0-.8,1.324V60H9.332V46.792h2.283l.171,1.953a4.243,4.243,0,0,1,1.123-1.617,2.363,2.363,0,0,1,1.575-.58,2.087,2.087,0,0,1,.433.043,2.385,2.385,0,0,1,.36.1Zm6.567,11.4A4.613,4.613,0,0,1,17.7,58.45a7.464,7.464,0,0,1-1.4-4.7v-.574a7.748,7.748,0,0,1,1.392-4.767,4.335,4.335,0,0,1,3.638-1.862,4,4,0,0,1,3.436,1.6,7.089,7.089,0,0,1,1.178,4.3v1.392H18.781a6.522,6.522,0,0,0,.726,3.284,2.4,2.4,0,0,0,2.228,1.257,4.327,4.327,0,0,0,3.223-1.27l.806,1.538a5.264,5.264,0,0,1-1.74,1.147A6.181,6.181,0,0,1,21.564,60.256Zm-.232-11.8a1.943,1.943,0,0,0-1.709.995,5.927,5.927,0,0,0-.793,2.631H23.5V51.8a4.835,4.835,0,0,0-.531-2.417A1.763,1.763,0,0,0,21.332,48.452Zm9.094-1.66.146,1.965a4.462,4.462,0,0,1,1.416-1.63,3.376,3.376,0,0,1,1.941-.58,3.245,3.245,0,0,1,2.74,1.294,6.67,6.67,0,0,1,.983,4.028V60H35.175V51.882a4.937,4.937,0,0,0-.519-2.637,1.764,1.764,0,0,0-1.569-.769,2.417,2.417,0,0,0-1.465.446,3.119,3.119,0,0,0-.977,1.227V60h-2.49V46.792ZM45.074,58.376a1.95,1.95,0,0,0,1.532-.708,2.818,2.818,0,0,0,.616-1.917h2.234l.024.073a4.081,4.081,0,0,1-1.257,3.149,4.643,4.643,0,0,1-6.921-.58,7.981,7.981,0,0,1-1.331-4.755v-.464A8.015,8.015,0,0,1,41.3,48.422a4.353,4.353,0,0,1,3.772-1.874,4.185,4.185,0,0,1,3.217,1.337,4.778,4.778,0,0,1,1.2,3.473l-.024.061H47.223a3.587,3.587,0,0,0-.592-2.142,1.831,1.831,0,0,0-1.556-.824,2.079,2.079,0,0,0-2.008,1.343,8.114,8.114,0,0,0-.616,3.381v.464a8.2,8.2,0,0,0,.61,3.406A2.076,2.076,0,0,0,45.074,58.376Zm10.486-2.93.2.891h.073l2.588-9.546h2.722L56.415,62.051a7.051,7.051,0,0,1-1.257,2.319,2.852,2.852,0,0,1-2.319.964,3.551,3.551,0,0,1-.659-.067q-.354-.067-.7-.153l.281-1.831q.122.024.36.049t.372.024a1.34,1.34,0,0,0,1.16-.616,4.969,4.969,0,0,0,.671-1.459l.452-1.367L50.616,46.792h2.71Zm8.411,4.26-1.587,3.6H60.8l.732-3.687V57.363h2.441ZM74.518,48.562A4.377,4.377,0,0,1,75.9,47.079a3.29,3.29,0,0,1,1.831-.531,3.343,3.343,0,0,1,2.808,1.318,6.63,6.63,0,0,1,1.013,4.053V60h-2.49V51.895a4.941,4.941,0,0,0-.525-2.618,1.735,1.735,0,0,0-1.55-.8,2.571,2.571,0,0,0-1.471.415,3,3,0,0,0-.995,1.16V60h-2.49V40.957h2.49Zm9.351,4.688a7.893,7.893,0,0,1,1.392-4.822,4.829,4.829,0,0,1,7.648,0,7.869,7.869,0,0,1,1.4,4.822v.33a7.833,7.833,0,0,1-1.392,4.816,4.864,4.864,0,0,1-7.654,0,7.833,7.833,0,0,1-1.392-4.816Zm2.49.33a7.667,7.667,0,0,0,.677,3.455,2.2,2.2,0,0,0,2.069,1.343,2.17,2.17,0,0,0,2.032-1.349,7.675,7.675,0,0,0,.677-3.448v-.33a7.632,7.632,0,0,0-.684-3.436,2.221,2.221,0,0,0-4.1,0,7.691,7.691,0,0,0-.677,3.436ZM98.92,46.792l.146,1.965a4.462,4.462,0,0,1,1.416-1.63,3.376,3.376,0,0,1,1.941-.58,3.245,3.245,0,0,1,2.74,1.294,6.67,6.67,0,0,1,.983,4.028V60h-2.478V51.882a4.937,4.937,0,0,0-.519-2.637,1.764,1.764,0,0,0-1.569-.769,2.416,2.416,0,0,0-1.465.446,3.119,3.119,0,0,0-.977,1.227V60h-2.49V46.792Zm14.832,13.464a4.613,4.613,0,0,1-3.864-1.807,7.464,7.464,0,0,1-1.4-4.7v-.574a7.748,7.748,0,0,1,1.392-4.767,4.335,4.335,0,0,1,3.638-1.862,4,4,0,0,1,3.436,1.6,7.089,7.089,0,0,1,1.178,4.3v1.392h-7.166a6.522,6.522,0,0,0,.726,3.284,2.4,2.4,0,0,0,2.228,1.257,4.327,4.327,0,0,0,3.223-1.27l.806,1.538a5.264,5.264,0,0,1-1.74,1.147A6.181,6.181,0,0,1,113.751,60.256Zm-.232-11.8a1.943,1.943,0,0,0-1.709.995,5.927,5.927,0,0,0-.793,2.631h4.675V51.8a4.835,4.835,0,0,0-.531-2.417A1.763,1.763,0,0,0,113.519,48.452Zm13.11,8.215a1.759,1.759,0,0,0-.513-1.288,6.861,6.861,0,0,0-1.965-1.166,9.854,9.854,0,0,1-3.052-1.672,2.967,2.967,0,0,1-1.013-2.319,3.335,3.335,0,0,1,1.227-2.6,4.669,4.669,0,0,1,3.192-1.074,4.582,4.582,0,0,1,3.284,1.178,3.624,3.624,0,0,1,1.2,2.85l-.024.073h-2.393a2.47,2.47,0,0,0-.555-1.617,1.846,1.846,0,0,0-1.508-.677,2,2,0,0,0-1.483.531,1.7,1.7,0,0,0-.531,1.239,1.56,1.56,0,0,0,.458,1.19,8.089,8.089,0,0,0,1.959,1.117,9.024,9.024,0,0,1,3.119,1.7,3.153,3.153,0,0,1,1.044,2.417,3.3,3.3,0,0,1-1.263,2.679,5.075,5.075,0,0,1-3.314,1.031,4.807,4.807,0,0,1-3.5-1.239,3.713,3.713,0,0,1-1.215-2.9l.024-.073h2.307a2.413,2.413,0,0,0,.726,1.849,2.543,2.543,0,0,0,1.691.568,2.207,2.207,0,0,0,1.544-.507A1.667,1.667,0,0,0,126.63,56.667Zm7.935-13.159v3.284h2.063v1.77h-2.063v7.861a2.579,2.579,0,0,0,.311,1.459.967.967,0,0,0,.824.433,1.99,1.99,0,0,0,.391-.037q.183-.037.427-.11l.256,1.709a3.891,3.891,0,0,1-.787.275,3.84,3.84,0,0,1-.9.1,2.774,2.774,0,0,1-2.222-.922,4.406,4.406,0,0,1-.793-2.911V48.562h-1.746v-1.77h1.746V43.508Zm8.069,11.938.2.891h.073l2.588-9.546h2.722l-4.724,15.259a7.051,7.051,0,0,1-1.257,2.319,2.852,2.852,0,0,1-2.319.964,3.551,3.551,0,0,1-.659-.067q-.354-.067-.7-.153l.281-1.831q.122.024.36.049t.372.024a1.34,1.34,0,0,0,1.16-.616,4.969,4.969,0,0,0,.671-1.459l.452-1.367-4.163-13.123h2.71ZM-164.777,90q-.159-.6-.25-1.068a6.73,6.73,0,0,1-.116-.934,4.85,4.85,0,0,1-1.385,1.617,3.2,3.2,0,0,1-1.959.641,3.468,3.468,0,0,1-2.716-1.05,4.127,4.127,0,0,1-.946-2.869,3.6,3.6,0,0,1,1.312-2.942,5.617,5.617,0,0,1,3.656-1.074h2.026V80.967a2.964,2.964,0,0,0-.537-1.886,1.848,1.848,0,0,0-1.538-.677,1.84,1.84,0,0,0-1.434.586,2.15,2.15,0,0,0-.531,1.5l-2.368.012-.024-.073a3.356,3.356,0,0,1,1.2-2.71,4.7,4.7,0,0,1,3.32-1.172,4.449,4.449,0,0,1,3.186,1.154,4.309,4.309,0,0,1,1.221,3.29v6.128a10.847,10.847,0,0,0,.1,1.471,9.367,9.367,0,0,0,.305,1.41Zm-3.2-1.648a2.782,2.782,0,0,0,1.794-.629,2.911,2.911,0,0,0,1.025-1.52V83.86h-2.063a2.279,2.279,0,0,0-1.794.726,2.542,2.542,0,0,0-.647,1.752,2.277,2.277,0,0,0,.439,1.465A1.5,1.5,0,0,0-167.975,88.352Zm10.388-11.56.146,1.965a4.462,4.462,0,0,1,1.416-1.63,3.376,3.376,0,0,1,1.941-.58,3.245,3.245,0,0,1,2.74,1.294,6.67,6.67,0,0,1,.983,4.028V90h-2.478V81.882a4.937,4.937,0,0,0-.519-2.637,1.764,1.764,0,0,0-1.569-.769,2.417,2.417,0,0,0-1.465.446,3.119,3.119,0,0,0-.977,1.227V90h-2.49V76.792Zm9.595,6.763a9.762,9.762,0,0,1,1.16-5.09,3.623,3.623,0,0,1,3.259-1.917,3.361,3.361,0,0,1,1.685.421,3.824,3.824,0,0,1,1.282,1.215V70.957h2.478V90h-2.051l-.256-1.587a3.917,3.917,0,0,1-1.343,1.373,3.5,3.5,0,0,1-1.819.47,3.661,3.661,0,0,1-3.241-1.764,8.439,8.439,0,0,1-1.154-4.681Zm2.466.256a7.356,7.356,0,0,0,.623,3.3,2.047,2.047,0,0,0,1.941,1.227,2.266,2.266,0,0,0,1.41-.439,3.163,3.163,0,0,0,.946-1.245v-6.4a3.5,3.5,0,0,0-.952-1.3,2.121,2.121,0,0,0-1.392-.482,2.057,2.057,0,0,0-1.947,1.41,9.087,9.087,0,0,0-.629,3.668ZM-122.87,90q-.159-.6-.25-1.068a6.729,6.729,0,0,1-.116-.934,4.85,4.85,0,0,1-1.385,1.617,3.2,3.2,0,0,1-1.959.641,3.468,3.468,0,0,1-2.716-1.05,4.127,4.127,0,0,1-.946-2.869,3.6,3.6,0,0,1,1.312-2.942,5.617,5.617,0,0,1,3.656-1.074h2.026V80.967a2.964,2.964,0,0,0-.537-1.886,1.848,1.848,0,0,0-1.538-.677,1.84,1.84,0,0,0-1.434.586,2.15,2.15,0,0,0-.531,1.5l-2.368.012-.024-.073a3.356,3.356,0,0,1,1.2-2.71,4.7,4.7,0,0,1,3.32-1.172,4.449,4.449,0,0,1,3.186,1.154,4.309,4.309,0,0,1,1.221,3.29v6.128a10.848,10.848,0,0,0,.1,1.471,9.367,9.367,0,0,0,.305,1.41Zm-3.2-1.648a2.782,2.782,0,0,0,1.794-.629,2.911,2.911,0,0,0,1.025-1.52V83.86h-2.063a2.279,2.279,0,0,0-1.794.726,2.542,2.542,0,0,0-.647,1.752,2.277,2.277,0,0,0,.439,1.465A1.5,1.5,0,0,0-126.068,88.352Zm10.388-11.56.146,1.965a4.462,4.462,0,0,1,1.416-1.63,3.376,3.376,0,0,1,1.941-.58,3.245,3.245,0,0,1,2.74,1.294,6.67,6.67,0,0,1,.983,4.028V90h-2.478V81.882a4.937,4.937,0,0,0-.519-2.637,1.764,1.764,0,0,0-1.569-.769,2.417,2.417,0,0,0-1.465.446,3.119,3.119,0,0,0-.977,1.227V90h-2.49V76.792Zm20.325,13.464a4.613,4.613,0,0,1-3.864-1.807,7.464,7.464,0,0,1-1.4-4.7v-.574a7.748,7.748,0,0,1,1.392-4.767,4.335,4.335,0,0,1,3.638-1.862,4,4,0,0,1,3.436,1.6,7.089,7.089,0,0,1,1.178,4.3v1.392h-7.166a6.522,6.522,0,0,0,.726,3.284,2.4,2.4,0,0,0,2.228,1.257,4.636,4.636,0,0,0,1.807-.323,4.62,4.62,0,0,0,1.416-.946l.806,1.538a5.264,5.264,0,0,1-1.74,1.147A6.181,6.181,0,0,1-95.355,90.256Zm-.232-11.8a1.943,1.943,0,0,0-1.709.995,5.927,5.927,0,0,0-.793,2.631h4.675V81.8a4.835,4.835,0,0,0-.531-2.417A1.763,1.763,0,0,0-95.587,78.452Zm10.034-4.944v3.284h2.063v1.77h-2.063v7.861a2.579,2.579,0,0,0,.311,1.459.967.967,0,0,0,.824.433,1.99,1.99,0,0,0,.391-.037q.183-.037.427-.11l.256,1.709a3.891,3.891,0,0,1-.787.275,3.84,3.84,0,0,1-.9.1,2.774,2.774,0,0,1-2.222-.922,4.406,4.406,0,0,1-.793-2.911V78.562h-1.746v-1.77h1.746V73.508Zm6.763,5.054a4.377,4.377,0,0,1,1.379-1.483,3.29,3.29,0,0,1,1.831-.531,3.343,3.343,0,0,1,2.808,1.318,6.63,6.63,0,0,1,1.013,4.053V90h-2.49V81.895a4.941,4.941,0,0,0-.525-2.618,1.735,1.735,0,0,0-1.55-.8,2.571,2.571,0,0,0-1.471.415,3,3,0,0,0-.995,1.16V90h-2.49V70.957h2.49ZM-66.29,90h-2.49V76.792h2.49Zm0-16.675h-2.49V70.957h2.49Zm7.617,15.051a1.95,1.95,0,0,0,1.532-.708,2.818,2.818,0,0,0,.616-1.917h2.234l.024.073a4.081,4.081,0,0,1-1.257,3.149,4.334,4.334,0,0,1-3.149,1.282,4.362,4.362,0,0,1-3.772-1.862,7.981,7.981,0,0,1-1.331-4.755v-.464a8.015,8.015,0,0,1,1.331-4.755,4.353,4.353,0,0,1,3.772-1.874,4.185,4.185,0,0,1,3.217,1.337,4.778,4.778,0,0,1,1.2,3.473l-.024.061h-2.246a3.587,3.587,0,0,0-.592-2.142,1.831,1.831,0,0,0-1.556-.824,2.079,2.079,0,0,0-2.008,1.343,8.114,8.114,0,0,0-.616,3.381v.464a8.2,8.2,0,0,0,.61,3.406A2.076,2.076,0,0,0-58.673,88.376ZM-45.087,90q-.159-.6-.25-1.068A6.729,6.729,0,0,1-45.453,88a4.85,4.85,0,0,1-1.385,1.617,3.2,3.2,0,0,1-1.959.641,3.468,3.468,0,0,1-2.716-1.05,4.127,4.127,0,0,1-.946-2.869A3.6,3.6,0,0,1-51.147,83.4a5.617,5.617,0,0,1,3.656-1.074h2.026V80.967A2.964,2.964,0,0,0-46,79.081,1.848,1.848,0,0,0-47.54,78.4a1.84,1.84,0,0,0-1.434.586,2.15,2.15,0,0,0-.531,1.5l-2.368.012-.024-.073a3.356,3.356,0,0,1,1.2-2.71,4.7,4.7,0,0,1,3.32-1.172A4.449,4.449,0,0,1-44.2,77.7a4.309,4.309,0,0,1,1.221,3.29v6.128a10.847,10.847,0,0,0,.1,1.471A9.367,9.367,0,0,0-42.572,90Zm-3.2-1.648a2.782,2.782,0,0,0,1.794-.629,2.911,2.911,0,0,0,1.025-1.52V83.86h-2.063a2.279,2.279,0,0,0-1.794.726,2.542,2.542,0,0,0-.647,1.752A2.277,2.277,0,0,0-49.53,87.8,1.5,1.5,0,0,0-48.285,88.352ZM-37.494,90h-2.49V70.957h2.49Zm18.445-6.189A8.433,8.433,0,0,1-20.2,88.5a3.685,3.685,0,0,1-3.265,1.758,3.558,3.558,0,0,1-1.874-.482,3.762,3.762,0,0,1-1.324-1.41L-26.935,90h-2.039V70.957h2.49V78.22a3.8,3.8,0,0,1,1.27-1.239,3.384,3.384,0,0,1,1.733-.433,3.631,3.631,0,0,1,3.278,1.91,9.8,9.8,0,0,1,1.154,5.1Zm-2.49-.256a9.3,9.3,0,0,0-.61-3.687A2.037,2.037,0,0,0-24.1,78.477a2.159,2.159,0,0,0-1.453.5,3.4,3.4,0,0,0-.928,1.355v6.25a2.956,2.956,0,0,0,.922,1.3,2.353,2.353,0,0,0,1.483.458,2.021,2.021,0,0,0,1.935-1.215,7.534,7.534,0,0,0,.6-3.314Zm9.644,6.7a4.613,4.613,0,0,1-3.864-1.807,7.464,7.464,0,0,1-1.4-4.7v-.574a7.748,7.748,0,0,1,1.392-4.767,4.335,4.335,0,0,1,3.638-1.862,4,4,0,0,1,3.436,1.6,7.089,7.089,0,0,1,1.178,4.3v1.392h-7.166a6.522,6.522,0,0,0,.726,3.284,2.4,2.4,0,0,0,2.228,1.257,4.636,4.636,0,0,0,1.807-.323A4.62,4.62,0,0,0-8.5,87.107l.806,1.538a5.264,5.264,0,0,1-1.74,1.147A6.181,6.181,0,0,1-11.9,90.256Zm-.232-11.8a1.943,1.943,0,0,0-1.709.995,5.927,5.927,0,0,0-.793,2.631h4.675V81.8a4.835,4.835,0,0,0-.531-2.417A1.763,1.763,0,0,0-12.128,78.452Zm9.3.11a4.377,4.377,0,0,1,1.379-1.483,3.29,3.29,0,0,1,1.831-.531,3.343,3.343,0,0,1,2.808,1.318,6.63,6.63,0,0,1,1.013,4.053V90H1.715V81.895a4.941,4.941,0,0,0-.525-2.618,1.735,1.735,0,0,0-1.55-.8,2.571,2.571,0,0,0-1.471.415,3,3,0,0,0-.995,1.16V90h-2.49V70.957h2.49ZM13.885,90q-.159-.6-.25-1.068A6.729,6.729,0,0,1,13.519,88a4.85,4.85,0,0,1-1.385,1.617,3.2,3.2,0,0,1-1.959.641,3.468,3.468,0,0,1-2.716-1.05,4.127,4.127,0,0,1-.946-2.869A3.6,3.6,0,0,1,7.825,83.4a5.617,5.617,0,0,1,3.656-1.074h2.026V80.967a2.964,2.964,0,0,0-.537-1.886,1.848,1.848,0,0,0-1.538-.677A1.84,1.84,0,0,0,10,78.989a2.15,2.15,0,0,0-.531,1.5L7.1,80.5l-.024-.073a3.356,3.356,0,0,1,1.2-2.71,4.7,4.7,0,0,1,3.32-1.172A4.449,4.449,0,0,1,14.777,77.7,4.309,4.309,0,0,1,16,80.991v6.128a10.847,10.847,0,0,0,.1,1.471A9.367,9.367,0,0,0,16.4,90Zm-3.2-1.648a2.782,2.782,0,0,0,1.794-.629,2.911,2.911,0,0,0,1.025-1.52V83.86H11.444a2.279,2.279,0,0,0-1.794.726A2.542,2.542,0,0,0,9,86.338,2.277,2.277,0,0,0,9.442,87.8,1.5,1.5,0,0,0,10.687,88.352Zm11.841-2.319.208,1.038h.073l.22-1.038,2.307-9.241H27.9L23.871,90H21.661L17.609,76.792H20.2ZM32.318,90h-2.49V76.792h2.49Zm0-16.675h-2.49V70.957h2.49Zm2.527,9.924a7.893,7.893,0,0,1,1.392-4.822,4.829,4.829,0,0,1,7.648,0,7.869,7.869,0,0,1,1.4,4.822v.33a7.833,7.833,0,0,1-1.392,4.816,4.864,4.864,0,0,1-7.654,0,7.833,7.833,0,0,1-1.392-4.816Zm2.49.33a7.667,7.667,0,0,0,.677,3.455,2.2,2.2,0,0,0,2.069,1.343,2.17,2.17,0,0,0,2.032-1.349,7.675,7.675,0,0,0,.677-3.448v-.33a7.632,7.632,0,0,0-.684-3.436,2.221,2.221,0,0,0-4.1,0,7.691,7.691,0,0,0-.677,3.436Zm15.979-4.724-1.074-.061a1.863,1.863,0,0,0-1.3.47,3.011,3.011,0,0,0-.8,1.324V90H47.65V76.792h2.283l.171,1.953a4.243,4.243,0,0,1,1.123-1.617,2.363,2.363,0,0,1,1.575-.58,2.087,2.087,0,0,1,.433.043,2.385,2.385,0,0,1,.36.1ZM56.6,90H54.1V87.522h2.5ZM76.337,74.131H71.625V90h-2.49V74.131H64.459v-1.9H76.337Zm.146,9.119a7.893,7.893,0,0,1,1.392-4.822,4.829,4.829,0,0,1,7.648,0,7.869,7.869,0,0,1,1.4,4.822v.33a7.833,7.833,0,0,1-1.392,4.816,4.864,4.864,0,0,1-7.654,0,7.833,7.833,0,0,1-1.392-4.816Zm2.49.33a7.667,7.667,0,0,0,.677,3.455,2.2,2.2,0,0,0,2.069,1.343,2.17,2.17,0,0,0,2.032-1.349,7.675,7.675,0,0,0,.677-3.448v-.33a7.632,7.632,0,0,0-.684-3.436,2.221,2.221,0,0,0-4.1,0,7.691,7.691,0,0,0-.677,3.436ZM95.612,90V78.562H93.866v-1.77h1.746V75.1a4.728,4.728,0,0,1,1.019-3.247,3.614,3.614,0,0,1,2.85-1.147,4.361,4.361,0,0,1,.751.067q.385.067.836.189l-.232,1.819a4.318,4.318,0,0,0-.488-.1,3.984,3.984,0,0,0-.562-.037,1.434,1.434,0,0,0-1.263.635A3.212,3.212,0,0,0,98.09,75.1v1.7h2.185v1.77H98.09V90Zm13.708-1.929a4.251,4.251,0,0,1-1.367,1.617,3.575,3.575,0,0,1-4.773-.836,7.432,7.432,0,0,1-1.025-4.358v-7.7h2.49v7.727a6.429,6.429,0,0,0,.488,2.972,1.606,1.606,0,0,0,1.489.848,2.742,2.742,0,0,0,1.556-.427,2.867,2.867,0,0,0,1.007-1.221v-9.9h2.49V90h-2.112ZM117.169,90h-2.49V70.957h2.49Zm3.7,0V78.562h-1.746v-1.77h1.746V75.437a4.815,4.815,0,0,1,1.2-3.5,4.469,4.469,0,0,1,3.363-1.239,6.417,6.417,0,0,1,1.538.189,13.974,13.974,0,0,1,1.685.543l-.378,1.929a8.494,8.494,0,0,0-1.27-.433,5.73,5.73,0,0,0-1.416-.165,2.055,2.055,0,0,0-1.7.677,3.112,3.112,0,0,0-.549,2v1.355h2.295v1.77h-2.295V90Zm8.96,0h-2.49V76.792h2.49Zm5.676,0h-2.49V70.957h2.49Zm5.676,0h-2.49V70.957h2.49Zm5.676,0h-2.49V76.792h2.49Zm0-16.675h-2.49V70.957h2.49Zm5.273,3.467.146,1.965a4.462,4.462,0,0,1,1.416-1.63,3.376,3.376,0,0,1,1.941-.58,3.245,3.245,0,0,1,2.74,1.294,6.67,6.67,0,0,1,.983,4.028V90h-2.478V81.882a4.937,4.937,0,0,0-.519-2.637,1.764,1.764,0,0,0-1.569-.769,2.417,2.417,0,0,0-1.465.446,3.119,3.119,0,0,0-.977,1.227V90h-2.49V76.792Zm9.644,6.763a9.762,9.762,0,0,1,1.16-5.09,3.633,3.633,0,0,1,3.271-1.917,3.337,3.337,0,0,1,1.813.494,4.029,4.029,0,0,1,1.324,1.41l.232-1.66h2.075V90.024a5.379,5.379,0,0,1-1.355,3.925,5.1,5.1,0,0,1-3.821,1.385,6.983,6.983,0,0,1-1.8-.256,7.232,7.232,0,0,1-1.727-.7l.4-1.855a6.336,6.336,0,0,0,1.459.592,6.243,6.243,0,0,0,1.642.214,2.468,2.468,0,0,0,2.051-.824,3.951,3.951,0,0,0,.659-2.5V88.706a3.625,3.625,0,0,1-1.276,1.16,3.588,3.588,0,0,1-1.7.391,3.675,3.675,0,0,1-3.247-1.764,8.4,8.4,0,0,1-1.16-4.681Zm2.49.256a7.476,7.476,0,0,0,.61,3.308,2.032,2.032,0,0,0,1.941,1.221,2.311,2.311,0,0,0,1.41-.427,3,3,0,0,0,.934-1.208V80.21a3.272,3.272,0,0,0-.934-1.27,2.168,2.168,0,0,0-1.4-.464,2.046,2.046,0,0,0-1.941,1.41,9.166,9.166,0,0,0-.623,3.668ZM-132.99,113.25a7.893,7.893,0,0,1,1.392-4.822,4.5,4.5,0,0,1,3.821-1.88,4.511,4.511,0,0,1,3.827,1.88,7.869,7.869,0,0,1,1.4,4.822v.33a7.833,7.833,0,0,1-1.392,4.816,4.5,4.5,0,0,1-3.809,1.862,4.534,4.534,0,0,1-3.845-1.862,7.833,7.833,0,0,1-1.392-4.816Zm2.49.33a7.667,7.667,0,0,0,.677,3.455,2.2,2.2,0,0,0,2.069,1.343,2.17,2.17,0,0,0,2.032-1.349,7.675,7.675,0,0,0,.677-3.448v-.33a7.632,7.632,0,0,0-.684-3.436,2.19,2.19,0,0,0-2.051-1.361,2.178,2.178,0,0,0-2.045,1.361,7.691,7.691,0,0,0-.677,3.436Zm17.419,4.492a4.251,4.251,0,0,1-1.367,1.617,3.334,3.334,0,0,1-1.929.568,3.325,3.325,0,0,1-2.844-1.4,7.432,7.432,0,0,1-1.025-4.358v-7.7h2.49v7.727a6.429,6.429,0,0,0,.488,2.972,1.606,1.606,0,0,0,1.489.848,2.742,2.742,0,0,0,1.556-.427,2.867,2.867,0,0,0,1.007-1.221v-9.9h2.49V120h-2.112Zm10.864-9.216-1.074-.061a1.863,1.863,0,0,0-1.3.47,3.011,3.011,0,0,0-.8,1.324V120h-2.49V106.792h2.283l.171,1.953a4.243,4.243,0,0,1,1.123-1.617,2.363,2.363,0,0,1,1.575-.58,2.087,2.087,0,0,1,.433.043,2.385,2.385,0,0,1,.36.1Zm11.4,7.178.208,1.038h.073l.22-1.038,2.307-9.241h2.563L-89.471,120h-2.209l-4.053-13.208h2.588ZM-77,120q-.159-.6-.25-1.068a6.729,6.729,0,0,1-.116-.934,4.85,4.85,0,0,1-1.385,1.617,3.2,3.2,0,0,1-1.959.641,3.468,3.468,0,0,1-2.716-1.05,4.127,4.127,0,0,1-.946-2.869,3.6,3.6,0,0,1,1.312-2.942,5.617,5.617,0,0,1,3.656-1.074h2.026v-1.355a2.964,2.964,0,0,0-.537-1.886,1.848,1.848,0,0,0-1.538-.677,1.84,1.84,0,0,0-1.434.586,2.15,2.15,0,0,0-.531,1.5l-2.368.012-.024-.073a3.356,3.356,0,0,1,1.2-2.71,4.7,4.7,0,0,1,3.32-1.172A4.449,4.449,0,0,1-76.1,107.7a4.309,4.309,0,0,1,1.221,3.29v6.128a10.848,10.848,0,0,0,.1,1.471,9.367,9.367,0,0,0,.305,1.41Zm-3.2-1.648a2.782,2.782,0,0,0,1.794-.629,2.911,2.911,0,0,0,1.025-1.52V113.86h-2.063a2.279,2.279,0,0,0-1.794.726,2.542,2.542,0,0,0-.647,1.752,2.277,2.277,0,0,0,.439,1.465A1.5,1.5,0,0,0-80.194,118.352ZM-69.4,120h-2.49V100.957h2.49Zm10.132-1.929a4.251,4.251,0,0,1-1.367,1.617,3.334,3.334,0,0,1-1.929.568,3.325,3.325,0,0,1-2.844-1.4,7.432,7.432,0,0,1-1.025-4.358v-7.7h2.49v7.727a6.429,6.429,0,0,0,.488,2.972,1.606,1.606,0,0,0,1.489.848,2.742,2.742,0,0,0,1.556-.427,2.867,2.867,0,0,0,1.007-1.221v-9.9h2.49V120h-2.112Zm9.973,2.185a4.613,4.613,0,0,1-3.864-1.807,7.464,7.464,0,0,1-1.4-4.7v-.574a7.748,7.748,0,0,1,1.392-4.767,4.335,4.335,0,0,1,3.638-1.862,4,4,0,0,1,3.436,1.6,7.089,7.089,0,0,1,1.178,4.3v1.392h-7.166a6.522,6.522,0,0,0,.726,3.284,2.4,2.4,0,0,0,2.228,1.257,4.636,4.636,0,0,0,1.807-.323,4.62,4.62,0,0,0,1.416-.946l.806,1.538a5.264,5.264,0,0,1-1.74,1.147A6.181,6.181,0,0,1-49.3,120.256Zm-.232-11.8a1.943,1.943,0,0,0-1.709.995,5.927,5.927,0,0,0-.793,2.631h4.675V111.8a4.835,4.835,0,0,0-.531-2.417A1.763,1.763,0,0,0-49.53,108.452Zm13.11,8.215a1.759,1.759,0,0,0-.513-1.288,6.861,6.861,0,0,0-1.965-1.166,9.854,9.854,0,0,1-3.052-1.672,2.967,2.967,0,0,1-1.013-2.319,3.335,3.335,0,0,1,1.227-2.6,4.669,4.669,0,0,1,3.192-1.074,4.582,4.582,0,0,1,3.284,1.178,3.624,3.624,0,0,1,1.2,2.85l-.024.073h-2.393a2.47,2.47,0,0,0-.555-1.617,1.846,1.846,0,0,0-1.508-.677,2,2,0,0,0-1.483.531,1.7,1.7,0,0,0-.531,1.239,1.56,1.56,0,0,0,.458,1.19,8.089,8.089,0,0,0,1.959,1.117,9.023,9.023,0,0,1,3.119,1.7,3.153,3.153,0,0,1,1.044,2.417,3.3,3.3,0,0,1-1.263,2.679,5.076,5.076,0,0,1-3.314,1.031,4.807,4.807,0,0,1-3.5-1.239,3.713,3.713,0,0,1-1.215-2.9l.024-.073h2.307a2.413,2.413,0,0,0,.726,1.849,2.543,2.543,0,0,0,1.691.568,2.207,2.207,0,0,0,1.544-.507A1.667,1.667,0,0,0-36.42,116.667Zm9.741-3.418a7.893,7.893,0,0,1,1.392-4.822,4.5,4.5,0,0,1,3.821-1.88,4.511,4.511,0,0,1,3.827,1.88,7.869,7.869,0,0,1,1.4,4.822v.33a7.833,7.833,0,0,1-1.392,4.816,4.5,4.5,0,0,1-3.809,1.862,4.534,4.534,0,0,1-3.845-1.862,7.833,7.833,0,0,1-1.392-4.816Zm2.49.33a7.667,7.667,0,0,0,.677,3.455,2.2,2.2,0,0,0,2.069,1.343,2.17,2.17,0,0,0,2.032-1.349,7.675,7.675,0,0,0,.677-3.448v-.33a7.632,7.632,0,0,0-.684-3.436,2.19,2.19,0,0,0-2.051-1.361,2.178,2.178,0,0,0-2.045,1.361,7.691,7.691,0,0,0-.677,3.436ZM-13.043,120V108.562h-1.746v-1.77h1.746v-1.7a4.728,4.728,0,0,1,1.019-3.247,3.614,3.614,0,0,1,2.85-1.147,4.361,4.361,0,0,1,.751.067q.385.067.836.189l-.232,1.819a4.318,4.318,0,0,0-.488-.1,3.984,3.984,0,0,0-.562-.037,1.434,1.434,0,0,0-1.263.635,3.212,3.212,0,0,0-.433,1.819v1.7H-8.38v1.77h-2.185V120ZM1.7,120H-.787V106.792H1.7Zm0-16.675H-.787v-2.368H1.7Zm5.273,3.467.146,1.965a4.462,4.462,0,0,1,1.416-1.63,3.376,3.376,0,0,1,1.941-.58,3.245,3.245,0,0,1,2.74,1.294,6.67,6.67,0,0,1,.983,4.028V120H11.725v-8.118a4.937,4.937,0,0,0-.519-2.637,1.764,1.764,0,0,0-1.569-.769,2.417,2.417,0,0,0-1.465.446,3.119,3.119,0,0,0-.977,1.227V120H4.706V106.792Zm13.245-3.284v3.284h2.063v1.77H20.221v7.861a2.579,2.579,0,0,0,.311,1.459.967.967,0,0,0,.824.433,1.99,1.99,0,0,0,.391-.037q.183-.037.427-.11l.256,1.709a3.891,3.891,0,0,1-.787.275,3.84,3.84,0,0,1-.9.1,2.774,2.774,0,0,1-2.222-.922,4.406,4.406,0,0,1-.793-2.911v-7.861H15.985v-1.77h1.746v-3.284ZM29.3,120.256a4.613,4.613,0,0,1-3.864-1.807,7.464,7.464,0,0,1-1.4-4.7v-.574a7.748,7.748,0,0,1,1.392-4.767,4.335,4.335,0,0,1,3.638-1.862,4,4,0,0,1,3.436,1.6,7.089,7.089,0,0,1,1.178,4.3v1.392H26.52a6.522,6.522,0,0,0,.726,3.284,2.4,2.4,0,0,0,2.228,1.257,4.327,4.327,0,0,0,3.223-1.27l.806,1.538a5.264,5.264,0,0,1-1.74,1.147A6.181,6.181,0,0,1,29.3,120.256Zm-.232-11.8a1.943,1.943,0,0,0-1.709.995,5.927,5.927,0,0,0-.793,2.631h4.675V111.8a4.835,4.835,0,0,0-.531-2.417A1.763,1.763,0,0,0,29.071,108.452Zm6.433,5.1a9.762,9.762,0,0,1,1.16-5.09,3.633,3.633,0,0,1,3.271-1.917,3.337,3.337,0,0,1,1.813.494,4.029,4.029,0,0,1,1.324,1.41l.232-1.66H45.38v13.232a5.379,5.379,0,0,1-1.355,3.925,5.1,5.1,0,0,1-3.821,1.385,6.983,6.983,0,0,1-1.8-.256,7.232,7.232,0,0,1-1.727-.7l.4-1.855a6.336,6.336,0,0,0,1.459.592,6.243,6.243,0,0,0,1.642.214,2.468,2.468,0,0,0,2.051-.824,3.951,3.951,0,0,0,.659-2.5v-1.306a3.625,3.625,0,0,1-1.276,1.16,3.588,3.588,0,0,1-1.7.391,3.675,3.675,0,0,1-3.247-1.764,8.4,8.4,0,0,1-1.16-4.681Zm2.49.256a7.476,7.476,0,0,0,.61,3.308,2.032,2.032,0,0,0,1.941,1.221,2.311,2.311,0,0,0,1.41-.427,3,3,0,0,0,.934-1.208V110.21a3.272,3.272,0,0,0-.934-1.27,2.168,2.168,0,0,0-1.4-.464,2.046,2.046,0,0,0-1.941,1.41,9.166,9.166,0,0,0-.623,3.668Zm15.894-4.956-1.074-.061a1.863,1.863,0,0,0-1.3.47,3.011,3.011,0,0,0-.8,1.324V120h-2.49V106.792h2.283l.171,1.953a4.243,4.243,0,0,1,1.123-1.617,2.363,2.363,0,0,1,1.575-.58,2.087,2.087,0,0,1,.433.043,2.385,2.385,0,0,1,.36.1ZM58.563,120h-2.49V106.792h2.49Zm0-16.675h-2.49v-2.368h2.49Zm6.213.183v3.284H66.84v1.77H64.777v7.861a2.579,2.579,0,0,0,.311,1.459.967.967,0,0,0,.824.433,1.99,1.99,0,0,0,.391-.037q.183-.037.427-.11l.256,1.709a3.891,3.891,0,0,1-.787.275,3.84,3.84,0,0,1-.9.1,2.774,2.774,0,0,1-2.222-.922,4.406,4.406,0,0,1-.793-2.911v-7.861H60.541v-1.77h1.746v-3.284Zm8.069,11.938.2.891h.073l2.588-9.546h2.722L73.7,122.051a7.052,7.052,0,0,1-1.257,2.319,2.852,2.852,0,0,1-2.319.964,3.551,3.551,0,0,1-.659-.067q-.354-.067-.7-.153l.281-1.831q.122.024.36.049t.372.024a1.34,1.34,0,0,0,1.16-.616,4.97,4.97,0,0,0,.671-1.459l.452-1.367L67.9,106.792h2.71Zm8.411,4.26-1.587,3.6H78.082l.732-3.687v-2.258h2.441Zm11.279-16.2v3.284H94.6v1.77H92.535v7.861a2.579,2.579,0,0,0,.311,1.459.967.967,0,0,0,.824.433,1.99,1.99,0,0,0,.391-.037q.183-.037.427-.11l.256,1.709a3.891,3.891,0,0,1-.787.275,3.84,3.84,0,0,1-.9.1,2.774,2.774,0,0,1-2.222-.922,4.406,4.406,0,0,1-.793-2.911v-7.861H88.3v-1.77h1.746v-3.284Zm9.973,5.347-1.074-.061a1.863,1.863,0,0,0-1.3.47,3.011,3.011,0,0,0-.8,1.324V120h-2.49V106.792h2.283l.171,1.953a4.243,4.243,0,0,1,1.123-1.617,2.363,2.363,0,0,1,1.575-.58,2.087,2.087,0,0,1,.433.043,2.385,2.385,0,0,1,.36.1Zm9.131,9.216a4.251,4.251,0,0,1-1.367,1.617,3.575,3.575,0,0,1-4.773-.836,7.432,7.432,0,0,1-1.025-4.358v-7.7h2.49v7.727a6.429,6.429,0,0,0,.488,2.972,1.606,1.606,0,0,0,1.489.848,2.742,2.742,0,0,0,1.556-.427,2.867,2.867,0,0,0,1.007-1.221v-9.9H114V120h-2.112Zm11.462-1.4a1.759,1.759,0,0,0-.513-1.288,6.861,6.861,0,0,0-1.965-1.166,9.854,9.854,0,0,1-3.052-1.672,2.967,2.967,0,0,1-1.013-2.319,3.335,3.335,0,0,1,1.227-2.6,4.669,4.669,0,0,1,3.192-1.074,4.582,4.582,0,0,1,3.284,1.178,3.624,3.624,0,0,1,1.2,2.85l-.024.073h-2.393a2.47,2.47,0,0,0-.555-1.617,1.846,1.846,0,0,0-1.508-.677,2,2,0,0,0-1.483.531,1.7,1.7,0,0,0-.531,1.239,1.56,1.56,0,0,0,.458,1.19,8.089,8.089,0,0,0,1.959,1.117,9.023,9.023,0,0,1,3.119,1.7,3.153,3.153,0,0,1,1.044,2.417,3.3,3.3,0,0,1-1.263,2.679,5.076,5.076,0,0,1-3.314,1.031,4.807,4.807,0,0,1-3.5-1.239,3.713,3.713,0,0,1-1.215-2.9l.024-.073h2.307a2.413,2.413,0,0,0,.726,1.849,2.543,2.543,0,0,0,1.691.568,2.207,2.207,0,0,0,1.544-.507A1.667,1.667,0,0,0,123.1,116.667Zm7.935-13.159v3.284H133.1v1.77h-2.063v7.861a2.579,2.579,0,0,0,.311,1.459.967.967,0,0,0,.824.433,1.99,1.99,0,0,0,.391-.037q.183-.037.427-.11l.256,1.709a3.891,3.891,0,0,1-.787.275,3.84,3.84,0,0,1-.9.1,2.774,2.774,0,0,1-2.222-.922,4.406,4.406,0,0,1-.793-2.911v-7.861H126.8v-1.77h1.746v-3.284ZM-78.033,150q-.159-.6-.25-1.068A6.728,6.728,0,0,1-78.4,148a4.85,4.85,0,0,1-1.385,1.617,3.2,3.2,0,0,1-1.959.641,3.468,3.468,0,0,1-2.716-1.05,4.127,4.127,0,0,1-.946-2.869,3.6,3.6,0,0,1,1.312-2.942,5.617,5.617,0,0,1,3.656-1.074h2.026v-1.355a2.964,2.964,0,0,0-.537-1.886,1.848,1.848,0,0,0-1.538-.677,1.84,1.84,0,0,0-1.434.586,2.15,2.15,0,0,0-.531,1.5l-2.368.012-.024-.073a3.356,3.356,0,0,1,1.2-2.71,4.7,4.7,0,0,1,3.32-1.172,4.449,4.449,0,0,1,3.186,1.154,4.309,4.309,0,0,1,1.221,3.29v6.128a10.848,10.848,0,0,0,.1,1.471,9.367,9.367,0,0,0,.305,1.41Zm-3.2-1.648a2.782,2.782,0,0,0,1.794-.629,2.911,2.911,0,0,0,1.025-1.52V143.86h-2.063a2.279,2.279,0,0,0-1.794.726,2.542,2.542,0,0,0-.647,1.752,2.277,2.277,0,0,0,.439,1.465A1.5,1.5,0,0,0-81.232,148.352Zm10.388-11.56.146,1.965a4.462,4.462,0,0,1,1.416-1.63,3.376,3.376,0,0,1,1.941-.58,3.245,3.245,0,0,1,2.74,1.294,6.67,6.67,0,0,1,.983,4.028V150h-2.478v-8.118a4.937,4.937,0,0,0-.519-2.637,1.764,1.764,0,0,0-1.569-.769,2.416,2.416,0,0,0-1.465.446,3.119,3.119,0,0,0-.977,1.227V150h-2.49V136.792Zm9.595,6.763a9.762,9.762,0,0,1,1.16-5.09,3.623,3.623,0,0,1,3.259-1.917,3.361,3.361,0,0,1,1.685.421,3.823,3.823,0,0,1,1.282,1.215v-7.227h2.478V150h-2.051l-.256-1.587a3.917,3.917,0,0,1-1.343,1.373,3.5,3.5,0,0,1-1.819.47,3.661,3.661,0,0,1-3.241-1.764,8.439,8.439,0,0,1-1.154-4.681Zm2.466.256a7.356,7.356,0,0,0,.623,3.3,2.047,2.047,0,0,0,1.941,1.227,2.266,2.266,0,0,0,1.41-.439,3.163,3.163,0,0,0,.946-1.245v-6.4a3.5,3.5,0,0,0-.952-1.3,2.121,2.121,0,0,0-1.392-.482,2.057,2.057,0,0,0-1.947,1.41,9.087,9.087,0,0,0-.629,3.668Zm20.386,4.565a1.95,1.95,0,0,0,1.532-.708,2.818,2.818,0,0,0,.616-1.917h2.234l.024.073a4.081,4.081,0,0,1-1.257,3.149,4.334,4.334,0,0,1-3.149,1.282,4.362,4.362,0,0,1-3.772-1.862A7.981,7.981,0,0,1-43.5,143.64v-.464a8.015,8.015,0,0,1,1.331-4.755,4.353,4.353,0,0,1,3.772-1.874,4.185,4.185,0,0,1,3.217,1.337,4.778,4.778,0,0,1,1.2,3.473l-.024.061h-2.246a3.587,3.587,0,0,0-.592-2.142,1.831,1.831,0,0,0-1.556-.824,2.079,2.079,0,0,0-2.008,1.343,8.114,8.114,0,0,0-.616,3.381v.464a8.2,8.2,0,0,0,.61,3.406A2.076,2.076,0,0,0-38.4,148.376Zm6.226-5.127a7.893,7.893,0,0,1,1.392-4.822,4.5,4.5,0,0,1,3.821-1.88,4.511,4.511,0,0,1,3.827,1.88,7.869,7.869,0,0,1,1.4,4.822v.33a7.833,7.833,0,0,1-1.392,4.816,4.5,4.5,0,0,1-3.809,1.862,4.534,4.534,0,0,1-3.845-1.862,7.833,7.833,0,0,1-1.392-4.816Zm2.49.33A7.667,7.667,0,0,0-29,147.034a2.2,2.2,0,0,0,2.069,1.343,2.17,2.17,0,0,0,2.032-1.349,7.675,7.675,0,0,0,.677-3.448v-.33a7.632,7.632,0,0,0-.684-3.436,2.19,2.19,0,0,0-2.051-1.361A2.178,2.178,0,0,0-29,139.813a7.691,7.691,0,0,0-.677,3.436Zm12.585-6.787.134,1.794a4.108,4.108,0,0,1,1.4-1.508,3.638,3.638,0,0,1,1.971-.531,3.085,3.085,0,0,1,1.9.6,3.614,3.614,0,0,1,1.208,1.837,4.511,4.511,0,0,1,1.4-1.794,3.359,3.359,0,0,1,2.057-.647,3.128,3.128,0,0,1,2.7,1.4,7.44,7.44,0,0,1,.983,4.254V150h-2.49v-7.812a5.834,5.834,0,0,0-.513-2.887,1.682,1.682,0,0,0-1.526-.824,1.865,1.865,0,0,0-1.434.635,3.868,3.868,0,0,0-.848,1.672q.012.22.024.458t.012.482V150h-2.478v-7.812a5.744,5.744,0,0,0-.525-2.85,1.683,1.683,0,0,0-1.526-.861,2.151,2.151,0,0,0-1.367.439,2.9,2.9,0,0,0-.879,1.208V150h-2.49V136.792Zm18.884,0,.134,1.794a4.108,4.108,0,0,1,1.4-1.508,3.638,3.638,0,0,1,1.971-.531,3.085,3.085,0,0,1,1.9.6A3.614,3.614,0,0,1,8.4,138.989a4.511,4.511,0,0,1,1.4-1.794,3.359,3.359,0,0,1,2.057-.647,3.128,3.128,0,0,1,2.7,1.4,7.44,7.44,0,0,1,.983,4.254V150h-2.49v-7.812a5.834,5.834,0,0,0-.513-2.887,1.682,1.682,0,0,0-1.526-.824,1.865,1.865,0,0,0-1.434.635,3.868,3.868,0,0,0-.848,1.672q.012.22.024.458t.012.482V150H6.293v-7.812a5.744,5.744,0,0,0-.525-2.85,1.683,1.683,0,0,0-1.526-.861,2.151,2.151,0,0,0-1.367.439A2.9,2.9,0,0,0,2,140.125V150H-.494V136.792ZM21.051,150h-2.49V136.792h2.49Zm0-16.675h-2.49v-2.368h2.49Zm6.213.183v3.284h2.063v1.77H27.264v7.861a2.579,2.579,0,0,0,.311,1.459.968.968,0,0,0,.824.433,1.99,1.99,0,0,0,.391-.037q.183-.037.427-.11l.256,1.709a3.89,3.89,0,0,1-.787.275,3.84,3.84,0,0,1-.9.1,2.774,2.774,0,0,1-2.222-.922,4.406,4.406,0,0,1-.793-2.911v-7.861H23.029v-1.77h1.746v-3.284Zm6.58,3.284.134,1.794a4.108,4.108,0,0,1,1.4-1.508,3.638,3.638,0,0,1,1.971-.531,3.085,3.085,0,0,1,1.9.6,3.614,3.614,0,0,1,1.208,1.837,4.511,4.511,0,0,1,1.4-1.794,3.359,3.359,0,0,1,2.057-.647,3.128,3.128,0,0,1,2.7,1.4A7.44,7.44,0,0,1,47.6,142.2V150h-2.49v-7.812A5.834,5.834,0,0,0,44.6,139.3a1.682,1.682,0,0,0-1.526-.824,1.865,1.865,0,0,0-1.434.635,3.869,3.869,0,0,0-.848,1.672q.012.22.024.458t.012.482V150H38.348v-7.812a5.744,5.744,0,0,0-.525-2.85,1.683,1.683,0,0,0-1.526-.861,2.151,2.151,0,0,0-1.367.439,2.9,2.9,0,0,0-.879,1.208V150h-2.49V136.792Zm21.387,13.464a4.613,4.613,0,0,1-3.864-1.807,7.464,7.464,0,0,1-1.4-4.7v-.574a7.748,7.748,0,0,1,1.392-4.767A4.335,4.335,0,0,1,55,136.548a4,4,0,0,1,3.436,1.6,7.089,7.089,0,0,1,1.178,4.3v1.392H52.448a6.522,6.522,0,0,0,.726,3.284,2.4,2.4,0,0,0,2.228,1.257,4.327,4.327,0,0,0,3.223-1.27l.806,1.538a5.264,5.264,0,0,1-1.74,1.147A6.181,6.181,0,0,1,55.231,150.256ZM55,138.452a1.943,1.943,0,0,0-1.709.995,5.927,5.927,0,0,0-.793,2.631h4.675V141.8a4.835,4.835,0,0,0-.531-2.417A1.763,1.763,0,0,0,55,138.452Zm9.094-1.66.146,1.965a4.462,4.462,0,0,1,1.416-1.63,3.376,3.376,0,0,1,1.941-.58,3.245,3.245,0,0,1,2.74,1.294,6.67,6.67,0,0,1,.983,4.028V150H68.842v-8.118a4.937,4.937,0,0,0-.519-2.637,1.764,1.764,0,0,0-1.569-.769,2.416,2.416,0,0,0-1.465.446,3.119,3.119,0,0,0-.977,1.227V150h-2.49V136.792Zm13.245-3.284v3.284H79.4v1.77H77.338v7.861a2.579,2.579,0,0,0,.311,1.459.968.968,0,0,0,.824.433,1.99,1.99,0,0,0,.391-.037q.183-.037.427-.11l.256,1.709a3.89,3.89,0,0,1-.787.275,3.84,3.84,0,0,1-.9.1,2.774,2.774,0,0,1-2.222-.922,4.406,4.406,0,0,1-.793-2.911v-7.861H73.1v-1.77h1.746v-3.284ZM84.406,150H81.9v-2.478h2.5Z" transform="translate(278 426)" fill="#5e5b5c"/>
    <g transform="matrix(1, 0, 0, 1, 0, 0)" filter="url(#Rectángulo_2852)">
      <rect id="Rectángulo_2852-2" data-name="Rectángulo 2852" width="155.342" height="155.485" rx="77.671" transform="translate(203.2 86)" fill="#9d3fd3"/>
    </g>
    <path id="Trazado_6212" data-name="Trazado 6212" d="M4355.125,4788.357h0a11.377,11.377,0,1,1,0,22.754,11.144,11.144,0,0,1-2.791-.354,23.5,23.5,0,0,0-8.341-13.31,11.437,11.437,0,0,1,11.134-9.089m-53.44,0a11.393,11.393,0,0,1,11.323,10.287,23.57,23.57,0,0,0-6.8,11.515,11.372,11.372,0,1,1-4.528-21.8m27.506,16.181a11.377,11.377,0,1,1-11.379,11.377,11.39,11.39,0,0,1,11.379-11.377m32.584,16.236a15.79,15.79,0,0,1,15.772,15.772v13.492a50.83,50.83,0,0,1-13.6,3.125v-.409a27.83,27.83,0,0,0-5.7-16.952,28.43,28.43,0,0,0-8.77-7.607,23.421,23.421,0,0,0,2.915-7.421h9.384m-55.786,0a23.44,23.44,0,0,0,2.914,7.42,28.44,28.44,0,0,0-8.772,7.608,27.845,27.845,0,0,0-5.7,16.952v.226a92,92,0,0,1-15.168-3.1v-13.331a15.789,15.789,0,0,1,15.772-15.772h10.958m29.852,16.184a15.79,15.79,0,0,1,15.768,15.773v13.505a57.7,57.7,0,0,1-20.689,3.47,86.429,86.429,0,0,1-24.154-3.644v-13.331a15.791,15.791,0,0,1,15.773-15.773h13.3m19.282-52.9a15.674,15.674,0,0,0-15.663,15.438,19.419,19.419,0,0,1,9.039,14.429,15.67,15.67,0,1,0,6.624-29.867Zm-53.438,0a15.675,15.675,0,1,0,8.337,28.93,19.392,19.392,0,0,1,7.292-12.373c.015-.293.044-.584.044-.88a15.676,15.676,0,0,0-15.673-15.677Zm27.506,16.181a15.675,15.675,0,1,0,15.676,15.674,15.679,15.679,0,0,0-15.676-15.674Zm32.584,16.237h-13.2a19.322,19.322,0,0,1-5.962,13.457,23.848,23.848,0,0,1,17.035,22.822v5.014c13.032-.478,20.542-4.171,21.037-4.419l1.047-.531h.113v-16.272a20.093,20.093,0,0,0-20.07-20.07Zm-53.444,0h-13.3a20.093,20.093,0,0,0-20.07,20.07v16.27l.041.251,1.122.354a94.151,94.151,0,0,0,22.6,4.248v-4.914a23.852,23.852,0,0,1,17.038-22.822,19.336,19.336,0,0,1-5.959-13.382c-.489-.036-.973-.074-1.472-.074Zm27.51,16.183h-13.3a20.094,20.094,0,0,0-20.071,20.072V4869l.041.254,1.12.352a91.419,91.419,0,0,0,27.291,4.4c14.751,0,23.3-4.207,23.829-4.474l1.046-.53h.113v-16.269a20.09,20.09,0,0,0-20.067-20.072Z" transform="translate(-4046.828 -4664.984)" fill="#fff"/>
  </g>
</svg>
