<svg xmlns="http://www.w3.org/2000/svg" xmlns:xlink="http://www.w3.org/1999/xlink" width="160" height="190" viewBox="0 0 160 190">
  <defs>
    <filter id="Trazado_9427" x="-29" y="-12.34" width="218" height="245" filterUnits="userSpaceOnUse">
      <feOffset dy="15" input="SourceAlpha"/>
      <feGaussianBlur stdDeviation="15" result="blur"/>
      <feFlood flood-color="#010101" flood-opacity="0.129"/>
      <feComposite operator="in" in2="blur"/>
      <feComposite in="SourceGraphic"/>
    </filter>
    <clipPath id="clip-Industrial-products1">
      <rect width="160" height="190"/>
    </clipPath>
  </defs>
  <g id="Industrial-products1" clip-path="url(#clip-Industrial-products1)">
    <g id="Grupo_1633" data-name="Grupo 1633" transform="translate(5927 12973)">
      <g id="Grupo_1619" data-name="Grupo 1619" transform="translate(-200)">
        <g transform="matrix(1, 0, 0, 1, -5727, -12973)" filter="url(#Trazado_9427)">
          <path id="Trazado_9427-2" data-name="Trazado 9427" d="M14,0H114a14,14,0,0,1,14,14V141a14,14,0,0,1-14,14H14A14,14,0,0,1,0,141V14A14,14,0,0,1,14,0Z" transform="translate(16 17.66)" fill="none" opacity="0.93"/>
        </g>
        <path id="Trazado_9428" data-name="Trazado 9428" d="M-46.2,0h-1.784V-9.242H-46.2Zm3.053-6.868.076.958a2.334,2.334,0,0,1,.714-.8A1.644,1.644,0,0,1-41.415-7a1.608,1.608,0,0,1,1.374.682,3.665,3.665,0,0,1,.5,2.142V0h-1.79V-4.17a2.316,2.316,0,0,0-.187-1.095.615.615,0,0,0-.568-.321,1.04,1.04,0,0,0-.536.14,1.211,1.211,0,0,0-.4.394V0h-1.79V-6.868Zm4.52,3.472A4.971,4.971,0,0,1-38.026-6,1.9,1.9,0,0,1-36.318-7a1.439,1.439,0,0,1,.746.2,1.97,1.97,0,0,1,.594.559V-9.9h1.79V0h-1.53l-.133-.774a2.037,2.037,0,0,1-.641.676,1.54,1.54,0,0,1-.838.232A1.91,1.91,0,0,1-38.026-.8a4.474,4.474,0,0,1-.6-2.466Zm1.777.133A3.787,3.787,0,0,0-36.623-1.8a.779.779,0,0,0,.755.53.979.979,0,0,0,.517-.136,1.042,1.042,0,0,0,.371-.4V-4.964a1.226,1.226,0,0,0-.375-.457.847.847,0,0,0-.508-.165.8.8,0,0,0-.755.6A4.452,4.452,0,0,0-36.851-3.4Zm8.436,2.285a2.214,2.214,0,0,1-.682.822,1.6,1.6,0,0,1-.949.289A1.693,1.693,0,0,1-31.5-.609a3.987,3.987,0,0,1-.53-2.3V-6.868h1.79v3.974a3.086,3.086,0,0,0,.181,1.273.6.6,0,0,0,.568.352,1.206,1.206,0,0,0,.546-.117,1.094,1.094,0,0,0,.4-.346V-6.868h1.8V0h-1.466Zm5.878-.812a.682.682,0,0,0-.235-.521,3.858,3.858,0,0,0-.908-.527,4.806,4.806,0,0,1-1.574-.882,1.637,1.637,0,0,1-.527-1.257,1.837,1.837,0,0,1,.67-1.428A2.585,2.585,0,0,1-23.337-7a2.673,2.673,0,0,1,1.844.613,1.887,1.887,0,0,1,.657,1.546l-.013.038h-1.727a1.16,1.16,0,0,0-.19-.7.666.666,0,0,0-.578-.263.729.729,0,0,0-.524.2.659.659,0,0,0-.213.5.628.628,0,0,0,.209.492,4.367,4.367,0,0,0,.914.517,4.442,4.442,0,0,1,1.615.879,1.728,1.728,0,0,1,.53,1.311,1.753,1.753,0,0,1-.7,1.435,2.883,2.883,0,0,1-1.85.559,2.592,2.592,0,0,1-1.9-.686,2.016,2.016,0,0,1-.667-1.555l.019-.038h1.625a1.115,1.115,0,0,0,.267.8.965.965,0,0,0,.7.244.819.819,0,0,0,.581-.187A.658.658,0,0,0-22.537-1.79Zm4.748-6.786v1.708h.933v1.276h-.933v3.5a1.138,1.138,0,0,0,.127.622.4.4,0,0,0,.349.184A1.141,1.141,0,0,0-17.1-1.3a1.871,1.871,0,0,0,.2-.054l.14,1.32a3.142,3.142,0,0,1-.486.13,3,3,0,0,1-.524.041A1.688,1.688,0,0,1-19.113-.4a2.516,2.516,0,0,1-.467-1.682v-3.51h-.832V-6.868h.832V-8.576Zm5.135,3.256-.609-.019a.776.776,0,0,0-.5.159,1,1,0,0,0-.308.444V0h-1.784V-6.868h1.669l.07.971a2.114,2.114,0,0,1,.5-.809A1,1,0,0,1-12.9-7a1.04,1.04,0,0,1,.222.022q.1.022.209.054ZM-9.937,0h-1.79V-6.868h1.79Zm0-8.538h-1.79V-9.9h1.79ZM-5.227,0A3.021,3.021,0,0,1-5.4-.5a4.207,4.207,0,0,1-.1-.546,2.43,2.43,0,0,1-.6.844A1.322,1.322,0,0,1-7,.133,1.863,1.863,0,0,1-8.449-.416a2.143,2.143,0,0,1-.5-1.508A1.921,1.921,0,0,1-8.29-3.482a3.03,3.03,0,0,1,1.984-.555h.781v-.571a1.384,1.384,0,0,0-.19-.79.642.642,0,0,0-.565-.276.6.6,0,0,0-.5.222,1.021,1.021,0,0,0-.171.635L-8.68-4.824l-.013-.038a1.83,1.83,0,0,1,.667-1.511A2.707,2.707,0,0,1-6.167-7a2.487,2.487,0,0,1,1.758.622A2.3,2.3,0,0,1-3.736-4.6v2.818a5.723,5.723,0,0,0,.07.914A5.366,5.366,0,0,0-3.45,0ZM-6.541-1.193a1,1,0,0,0,.635-.219,1.1,1.1,0,0,0,.381-.53V-3.021h-.781a.748.748,0,0,0-.657.292,1.245,1.245,0,0,0-.206.736A.919.919,0,0,0-7-1.416.548.548,0,0,0-6.541-1.193ZM-.708,0H-2.5V-9.9h1.79ZM5.354-3.345V0H3.564V-9.242H6.656a2.97,2.97,0,0,1,2.2.816,2.9,2.9,0,0,1,.813,2.136,2.881,2.881,0,0,1-.812,2.136,2.983,2.983,0,0,1-2.2.809Zm0-1.4h1.3a1.063,1.063,0,0,0,.917-.432,1.818,1.818,0,0,0,.314-1.1A1.885,1.885,0,0,0,7.573-7.4a1.055,1.055,0,0,0-.917-.441h-1.3ZM13.9-5.319l-.609-.019a.776.776,0,0,0-.5.159,1,1,0,0,0-.308.444V0H10.7V-6.868h1.669l.07.971a2.114,2.114,0,0,1,.5-.809A1,1,0,0,1,13.651-7a1.04,1.04,0,0,1,.222.022q.1.022.209.054Zm.5,1.822a4.061,4.061,0,0,1,.74-2.523A2.459,2.459,0,0,1,17.212-7a2.478,2.478,0,0,1,2.082.974A4.024,4.024,0,0,1,20.043-3.5v.146A4.009,4.009,0,0,1,19.3-.835a2.469,2.469,0,0,1-2.073.968,2.483,2.483,0,0,1-2.088-.965,4.018,4.018,0,0,1-.743-2.52Zm1.784.146a4,4,0,0,0,.238,1.523.826.826,0,0,0,.809.565.816.816,0,0,0,.787-.565,3.955,3.955,0,0,0,.241-1.523V-3.5a3.989,3.989,0,0,0-.241-1.52.824.824,0,0,0-.8-.574.819.819,0,0,0-.8.578A4.042,4.042,0,0,0,16.177-3.5Zm4.6-.044A4.971,4.971,0,0,1,21.376-6,1.9,1.9,0,0,1,23.083-7a1.439,1.439,0,0,1,.746.2,1.97,1.97,0,0,1,.594.559V-9.9h1.79V0h-1.53L24.55-.774a2.037,2.037,0,0,1-.641.676,1.54,1.54,0,0,1-.838.232A1.91,1.91,0,0,1,21.376-.8a4.475,4.475,0,0,1-.6-2.466Zm1.777.133A3.787,3.787,0,0,0,22.779-1.8a.779.779,0,0,0,.755.53.979.979,0,0,0,.517-.136,1.042,1.042,0,0,0,.371-.4V-4.964a1.226,1.226,0,0,0-.375-.457.847.847,0,0,0-.508-.165.8.8,0,0,0-.755.6A4.452,4.452,0,0,0,22.55-3.4ZM30.986-.978a2.214,2.214,0,0,1-.682.822,1.6,1.6,0,0,1-.949.289A1.693,1.693,0,0,1,27.9-.609a3.987,3.987,0,0,1-.53-2.3V-6.868h1.79v3.974a3.086,3.086,0,0,0,.181,1.273.6.6,0,0,0,.568.352,1.206,1.206,0,0,0,.546-.117,1.094,1.094,0,0,0,.4-.346V-6.868h1.8V0H31.183Zm5.351-.286a.659.659,0,0,0,.578-.282,1.407,1.407,0,0,0,.2-.809H38.73l.019.038a2.323,2.323,0,0,1-.67,1.761,2.361,2.361,0,0,1-1.742.689,2.42,2.42,0,0,1-2.066-.968,4.086,4.086,0,0,1-.72-2.5v-.184a4.092,4.092,0,0,1,.72-2.5A2.408,2.408,0,0,1,36.331-7a2.3,2.3,0,0,1,1.777.714,2.661,2.661,0,0,1,.641,1.927l-.013.032H37.112a1.868,1.868,0,0,0-.2-.92.632.632,0,0,0-.584-.349.78.78,0,0,0-.774.568,4.313,4.313,0,0,0-.216,1.5v.184a4.321,4.321,0,0,0,.216,1.517A.783.783,0,0,0,36.337-1.263Zm5.415-7.312v1.708h.933v1.276h-.933v3.5a1.138,1.138,0,0,0,.127.622.4.4,0,0,0,.349.184,1.141,1.141,0,0,0,.209-.016,1.871,1.871,0,0,0,.2-.054l.14,1.32a3.142,3.142,0,0,1-.486.13,3,3,0,0,1-.524.041A1.688,1.688,0,0,1,40.428-.4a2.516,2.516,0,0,1-.467-1.682v-3.51H39.13V-6.868h.832V-8.576ZM46.741-1.79a.682.682,0,0,0-.235-.521,3.858,3.858,0,0,0-.908-.527,4.806,4.806,0,0,1-1.574-.882A1.637,1.637,0,0,1,43.5-4.977a1.837,1.837,0,0,1,.67-1.428A2.585,2.585,0,0,1,45.941-7a2.673,2.673,0,0,1,1.844.613,1.887,1.887,0,0,1,.657,1.546l-.013.038H46.7a1.16,1.16,0,0,0-.19-.7.666.666,0,0,0-.578-.263.729.729,0,0,0-.524.2.659.659,0,0,0-.213.5.628.628,0,0,0,.209.492,4.367,4.367,0,0,0,.914.517,4.442,4.442,0,0,1,1.615.879,1.728,1.728,0,0,1,.53,1.311,1.753,1.753,0,0,1-.7,1.435,2.883,2.883,0,0,1-1.85.559,2.592,2.592,0,0,1-1.9-.686,2.016,2.016,0,0,1-.667-1.555l.019-.038H45a1.115,1.115,0,0,0,.267.8.965.965,0,0,0,.7.244.819.819,0,0,0,.581-.187A.658.658,0,0,0,46.741-1.79Z" transform="translate(-5647 -12818)" fill="#5e5b5c"/>
        <path id="Trazado_7083" data-name="Trazado 7083" d="M4592.735,5920.677a5.287,5.287,0,0,0-1.92-.442l-.144-.012-.059-.005c.239-6.37.447-11.94.5-13.452a9.781,9.781,0,0,0,2.047-2.873,1.039,1.039,0,0,0,.078-.4v-4.976a2.616,2.616,0,0,0-1.763-2.468v-1.82a3.6,3.6,0,0,0,.992-2.4v-3.156c0-2.449-2.812-4.539-8.13-6.042a77.921,77.921,0,0,0-36.106,0c-5.319,1.5-8.131,3.593-8.131,6.042v3.156a3.594,3.594,0,0,0,.993,2.4v1.82a2.616,2.616,0,0,0-1.764,2.468v4.976a1.057,1.057,0,0,0,.078.4,9.8,9.8,0,0,0,2.078,2.9c.15,3.993,1.279,34.11,1.364,36.657.044,1.32,2.246,4.055,5.853,6.35,3.318,2.11,9.064,4.625,17.6,4.625,8.972,0,14.7-2.52,17.929-4.633,3.744-2.453,5.482-5.185,5.52-6.342.042-1.241.331-9.023.634-17.142.188,0,.375.008.566.008a3.152,3.152,0,0,0,3.333-3.116A2.674,2.674,0,0,0,4592.735,5920.677Zm-24.783-11.686a2.474,2.474,0,1,0-2.036.618c.1.274.209.566.335.878H4560.3v-5.4c0-.93.314-1.244,1.244-1.244h9.481c.93,0,1.243.314,1.243,1.244v5.4h-3.71C4568.318,5909.94,4568.117,5909.437,4567.952,5908.991Zm19.892-2.229c-3.981,2.829-9.331,3.6-13.455,3.709v-3.527c12.22-.289,15.768-5.561,16.733-7.859v4.17A10.546,10.546,0,0,1,4587.844,5906.763Zm2.214-14.122a1.061,1.061,0,0,0-.647.67,17.43,17.43,0,0,1-5.647,2.528,75.863,75.863,0,0,1-34.954,0,17.424,17.424,0,0,1-5.646-2.528,1.061,1.061,0,0,0-.648-.67,1.613,1.613,0,0,1-.255-.525,19.3,19.3,0,0,0,5.974,2.6,77.921,77.921,0,0,0,36.106,0,19.311,19.311,0,0,0,5.974-2.6A1.616,1.616,0,0,1,4590.058,5892.641Zm-46.844,3.246a22.413,22.413,0,0,0,5.021,1.991,77.939,77.939,0,0,0,36.106,0,22.384,22.384,0,0,0,5.02-1.991v1.84a7.217,7.217,0,0,1-2.467,3.463c-3.315,2.772-8.447,3.531-12.513,3.636a3.059,3.059,0,0,0-3.352-3.1h-9.481a3.059,3.059,0,0,0-3.353,3.1c-4.066-.105-9.2-.864-12.513-3.636a7.231,7.231,0,0,1-2.467-3.461Zm30.116,16.718c7.782,0,12.638-1.946,15.6-4-.121,3.2-.348,9.288-.58,15.493a25.159,25.159,0,0,1-9.543-2.582,21.613,21.613,0,0,1-7.146-5.888,23.769,23.769,0,0,1-2.029-3.023Zm-24.52-27.929a75.9,75.9,0,0,1,34.954,0c3.039.859,6.587,2.423,6.587,4s-3.548,3.143-6.587,4a75.9,75.9,0,0,1-34.954,0c-3.039-.859-6.586-2.423-6.586-4S4545.771,5885.536,4548.81,5884.676Zm-7.359,14.41c.967,2.3,4.515,7.57,16.734,7.859v3.527c-4.125-.106-9.473-.88-13.455-3.709a10.54,10.54,0,0,1-3.279-3.507Zm46.184,44.261c-.282,1.181-5.789,8.963-21.332,8.963-7.815,0-13.087-2.225-16.136-4.091-3.5-2.144-5.039-4.386-5.2-4.89-.089-2.609-1-26.968-1.291-34.7,2.961,2.047,7.809,3.979,15.566,3.979h7.976a26.217,26.217,0,0,0,2.717,4.262c3.1,3.956,8.744,8.607,18.331,9.348C4587.968,5934.267,4587.681,5941.994,4587.635,5943.347Zm3.317-19.146c-.165,0-.326,0-.488-.005q.034-.932.07-1.857l.11.009c1.413.113,1.522.427,1.522.857C4592.167,5924.083,4591.31,5924.194,4590.952,5924.2Z" transform="translate(-10213.332 -18800.43)" fill="#5e5b5c"/>
      </g>
    </g>
  </g>
</svg>
