<svg xmlns="http://www.w3.org/2000/svg" xmlns:xlink="http://www.w3.org/1999/xlink" width="160" height="190" viewBox="0 0 160 190">
  <defs>
    <filter id="Rectángulo_2915" x="-2" y="2" width="164" height="191" filterUnits="userSpaceOnUse">
      <feOffset dy="2" input="SourceAlpha"/>
      <feGaussianBlur stdDeviation="6" result="blur"/>
      <feFlood flood-color="#44d62c" flood-opacity="0.651"/>
      <feComposite operator="in" in2="blur"/>
      <feComposite in="SourceGraphic"/>
    </filter>
    <clipPath id="clip-Agroindustry01EN_1">
      <rect width="160" height="190"/>
    </clipPath>
  </defs>
  <g id="Agroindustry01EN_1" data-name="Agroindustry01EN – 1" clip-path="url(#clip-Agroindustry01EN_1)">
    <g id="Grupo_1558" data-name="Grupo 1558" transform="translate(-3432 -328.66)">
      <g transform="matrix(1, 0, 0, 1, 3432, 328.66)" filter="url(#Rectángulo_2915)">
        <g id="Rectángulo_2915-2" data-name="Rectángulo 2915" transform="translate(16 18)" fill="#44d62c" stroke="#fff" stroke-width="1" opacity="0.93">
          <rect width="128" height="155" rx="14" stroke="none"/>
          <rect x="0.5" y="0.5" width="127" height="154" rx="13.5" fill="none"/>
        </g>
      </g>
      <path id="Trazado_7203" data-name="Trazado 7203" d="M4592.735,5920.677a5.287,5.287,0,0,0-1.92-.442l-.144-.012-.059-.005c.239-6.37.447-11.94.5-13.452a9.781,9.781,0,0,0,2.047-2.873,1.039,1.039,0,0,0,.078-.4v-4.976a2.616,2.616,0,0,0-1.763-2.468v-1.82a3.6,3.6,0,0,0,.992-2.4v-3.156c0-2.449-2.812-4.539-8.13-6.042a77.921,77.921,0,0,0-36.106,0c-5.319,1.5-8.131,3.593-8.131,6.042v3.156a3.594,3.594,0,0,0,.993,2.4v1.82a2.616,2.616,0,0,0-1.764,2.468v4.976a1.057,1.057,0,0,0,.078.4,9.8,9.8,0,0,0,2.078,2.9c.15,3.993,1.279,34.11,1.364,36.657.044,1.32,2.246,4.055,5.853,6.35,3.318,2.11,9.064,4.625,17.6,4.625,8.972,0,14.7-2.52,17.929-4.633,3.744-2.453,5.482-5.185,5.52-6.342.042-1.241.331-9.023.634-17.142.188,0,.375.008.566.008a3.152,3.152,0,0,0,3.333-3.116A2.674,2.674,0,0,0,4592.735,5920.677Zm-24.783-11.686a2.474,2.474,0,1,0-2.036.618c.1.274.209.566.335.878H4560.3v-5.4c0-.93.314-1.244,1.244-1.244h9.481c.93,0,1.243.314,1.243,1.244v5.4h-3.71C4568.318,5909.94,4568.117,5909.437,4567.952,5908.991Zm19.892-2.229c-3.981,2.829-9.331,3.6-13.455,3.709v-3.527c12.22-.289,15.768-5.561,16.733-7.859v4.17A10.546,10.546,0,0,1,4587.844,5906.763Zm2.214-14.122a1.061,1.061,0,0,0-.647.67,17.43,17.43,0,0,1-5.647,2.528,75.863,75.863,0,0,1-34.954,0,17.424,17.424,0,0,1-5.646-2.528,1.061,1.061,0,0,0-.648-.67,1.613,1.613,0,0,1-.255-.525,19.3,19.3,0,0,0,5.974,2.6,77.921,77.921,0,0,0,36.106,0,19.311,19.311,0,0,0,5.974-2.6A1.616,1.616,0,0,1,4590.058,5892.641Zm-46.844,3.246a22.413,22.413,0,0,0,5.021,1.991,77.939,77.939,0,0,0,36.106,0,22.384,22.384,0,0,0,5.02-1.991v1.84a7.217,7.217,0,0,1-2.467,3.463c-3.315,2.772-8.447,3.531-12.513,3.636a3.059,3.059,0,0,0-3.352-3.1h-9.481a3.059,3.059,0,0,0-3.353,3.1c-4.066-.105-9.2-.864-12.513-3.636a7.231,7.231,0,0,1-2.467-3.461Zm30.116,16.718c7.782,0,12.638-1.946,15.6-4-.121,3.2-.348,9.288-.58,15.493a25.159,25.159,0,0,1-9.543-2.582,21.613,21.613,0,0,1-7.146-5.888,23.769,23.769,0,0,1-2.029-3.023Zm-24.52-27.929a75.9,75.9,0,0,1,34.954,0c3.039.859,6.587,2.423,6.587,4s-3.548,3.143-6.587,4a75.9,75.9,0,0,1-34.954,0c-3.039-.859-6.586-2.423-6.586-4S4545.771,5885.536,4548.81,5884.676Zm-7.359,14.41c.967,2.3,4.515,7.57,16.734,7.859v3.527c-4.125-.106-9.473-.88-13.455-3.709a10.54,10.54,0,0,1-3.279-3.507Zm46.184,44.261c-.282,1.181-5.789,8.963-21.332,8.963-7.815,0-13.087-2.225-16.136-4.091-3.5-2.144-5.039-4.386-5.2-4.89-.089-2.609-1-26.968-1.291-34.7,2.961,2.047,7.809,3.979,15.566,3.979h7.976a26.217,26.217,0,0,0,2.717,4.262c3.1,3.956,8.744,8.607,18.331,9.348C4587.968,5934.267,4587.681,5941.994,4587.635,5943.347Zm3.317-19.146c-.165,0-.326,0-.488-.005q.034-.932.07-1.857l.11.009c1.413.113,1.522.427,1.522.857C4592.167,5924.083,4591.31,5924.194,4590.952,5924.2Z" transform="translate(-1054.332 -5498.429)" fill="#fff"/>
      <path id="Trazado_9461" data-name="Trazado 9461" d="M-28.012-1.974H-30.45L-30.945,0h-1.822l2.6-9.242h1.879L-25.689,0h-1.822Zm-2.069-1.441h1.7l-.832-3.269h-.038Zm4.754-.336a4.148,4.148,0,0,1,.6-2.349A1.921,1.921,0,0,1-23.036-7a1.424,1.424,0,0,1,.806.232,2.042,2.042,0,0,1,.609.663l.114-.768h1.568V-.133A2.864,2.864,0,0,1-20.722,2a2.917,2.917,0,0,1-2.149.778,3.459,3.459,0,0,1-.946-.143,4.344,4.344,0,0,1-.933-.384l.317-1.39a3.228,3.228,0,0,0,.736.3,3.1,3.1,0,0,0,.813.1A1.029,1.029,0,0,0-22.026.9,1.646,1.646,0,0,0-21.741-.14V-.533a1.749,1.749,0,0,1-.578.5,1.559,1.559,0,0,1-.73.168A1.947,1.947,0,0,1-24.73-.7a3.714,3.714,0,0,1-.6-2.206Zm1.8.848a2.617,2.617,0,0,0,.216,1.173.749.749,0,0,0,.724.423,1.022,1.022,0,0,0,.492-.114.94.94,0,0,0,.352-.337V-5.014a1.109,1.109,0,0,0-.346-.394.845.845,0,0,0-.486-.14.753.753,0,0,0-.73.493,3.217,3.217,0,0,0-.222,1.306Zm7.992-2.321-.679-.019a.769.769,0,0,0-.473.14.887.887,0,0,0-.289.394V0h-1.8V-6.868h1.682l.07.92.032.013a1.873,1.873,0,0,1,.46-.778A.965.965,0,0,1-15.844-7a1.6,1.6,0,0,1,.257.022,1.746,1.746,0,0,1,.238.054Zm.571,1.371a3.415,3.415,0,0,1,.733-2.263A2.526,2.526,0,0,1-12.175-7a2.536,2.536,0,0,1,2.057.879,3.4,3.4,0,0,1,.736,2.263V-3a3.387,3.387,0,0,1-.736,2.266,2.541,2.541,0,0,1-2.05.87,2.546,2.546,0,0,1-2.06-.87A3.4,3.4,0,0,1-14.961-3Zm1.8.848a2.867,2.867,0,0,0,.222,1.246.791.791,0,0,0,.774.451.782.782,0,0,0,.759-.455,2.835,2.835,0,0,0,.225-1.243v-.852a2.843,2.843,0,0,0-.225-1.237.785.785,0,0,0-.765-.461.785.785,0,0,0-.765.464,2.847,2.847,0,0,0-.225,1.233ZM-6.544,0h-1.8V-6.868h1.8Zm0-8.525h-1.8V-9.9h1.8Zm2.907,1.657.076.946a2.289,2.289,0,0,1,.7-.79A1.6,1.6,0,0,1-1.942-7a1.591,1.591,0,0,1,1.349.66A3.5,3.5,0,0,1-.1-4.259V0H-1.911V-4.264a1.842,1.842,0,0,0-.2-1,.7.7,0,0,0-.619-.289.822.822,0,0,0-.444.127,1.083,1.083,0,0,0-.343.349V0h-1.8V-6.868ZM.787-3.4A5.013,5.013,0,0,1,1.384-6,1.867,1.867,0,0,1,3.066-7a1.4,1.4,0,0,1,.724.19,1.9,1.9,0,0,1,.578.546V-9.9h1.8V0H4.6L4.481-.749a2.019,2.019,0,0,1-.619.657,1.458,1.458,0,0,1-.8.225A1.882,1.882,0,0,1,1.381-.8,4.531,4.531,0,0,1,.787-3.263Zm1.8.134A3.889,3.889,0,0,0,2.8-1.823a.737.737,0,0,0,.72.516.9.9,0,0,0,.489-.131,1.078,1.078,0,0,0,.355-.379V-4.949A1.272,1.272,0,0,0,4.012-5.4a.766.766,0,0,0-.476-.159.764.764,0,0,0-.724.592A4.553,4.553,0,0,0,2.59-3.4ZM10.829-.793a2.027,2.027,0,0,1-.676.689,1.712,1.712,0,0,1-.9.238,1.691,1.691,0,0,1-1.438-.7A3.621,3.621,0,0,1,7.3-2.717V-6.868H9.1V-2.7A2.361,2.361,0,0,0,9.28-1.638a.567.567,0,0,0,.527.33,1.169,1.169,0,0,0,.524-.111,1.05,1.05,0,0,0,.384-.327V-6.868h1.809V0H10.937Zm5.821-1a.667.667,0,0,0-.229-.5,3.847,3.847,0,0,0-.876-.524A4.619,4.619,0,0,1,13.993-3.7a1.667,1.667,0,0,1-.517-1.27A1.854,1.854,0,0,1,14.139-6.4,2.533,2.533,0,0,1,15.895-7a2.626,2.626,0,0,1,1.822.609,1.922,1.922,0,0,1,.654,1.555l-.019.038H16.612a1.176,1.176,0,0,0-.178-.686.621.621,0,0,0-.546-.254.685.685,0,0,0-.5.2.638.638,0,0,0-.2.476.638.638,0,0,0,.2.492,4.091,4.091,0,0,0,.882.511,4.278,4.278,0,0,1,1.6.873A1.76,1.76,0,0,1,18.4-1.86a1.756,1.756,0,0,1-.7,1.435,2.849,2.849,0,0,1-1.834.559,2.539,2.539,0,0,1-1.879-.692,2.043,2.043,0,0,1-.66-1.562l.013-.038h1.65a1.12,1.12,0,0,0,.254.787.9.9,0,0,0,.667.241.781.781,0,0,0,.552-.178A.636.636,0,0,0,16.65-1.8Zm4.792-6.779v1.708h.952v1.308h-.952v3.447a1.122,1.122,0,0,0,.121.6.377.377,0,0,0,.33.181,2.076,2.076,0,0,0,.279-.016,2.043,2.043,0,0,0,.254-.054l.14,1.371A3.6,3.6,0,0,1,22.02.1a4.109,4.109,0,0,1-.59.038A1.656,1.656,0,0,1,20.1-.4a2.589,2.589,0,0,1-.46-1.7V-5.561h-.812V-6.868h.813V-8.576Zm5.211,3.352-.679-.019a.769.769,0,0,0-.473.14.887.887,0,0,0-.289.394V0h-1.8V-6.868h1.682l.07.92.032.013a1.873,1.873,0,0,1,.46-.778A.965.965,0,0,1,26.343-7a1.6,1.6,0,0,1,.257.022,1.746,1.746,0,0,1,.238.054Zm3.237,2.406.013.07,1-4.12h1.93l-2.317,7.9a3.749,3.749,0,0,1-.7,1.241,1.672,1.672,0,0,1-1.33.5,1.825,1.825,0,0,1-.394-.038q-.171-.038-.457-.114l.209-1.346.156.029a.535.535,0,0,0,.1.01.79.79,0,0,0,.594-.206A1.2,1.2,0,0,0,29,.565l.159-.508L27.13-6.868h1.936Z" transform="translate(3512 483.66)" fill="#fff"/>
    </g>
  </g>
</svg>
