<svg xmlns="http://www.w3.org/2000/svg" xmlns:xlink="http://www.w3.org/1999/xlink" width="160" height="190" viewBox="0 0 160 190">
  <defs>
    <filter id="Trazado_7097" x="-2" y="2" width="164" height="191" filterUnits="userSpaceOnUse">
      <feOffset dy="2" input="SourceAlpha"/>
      <feGaussianBlur stdDeviation="6" result="blur"/>
      <feFlood flood-color="#44d62c" flood-opacity="0.651"/>
      <feComposite operator="in" in2="blur"/>
      <feComposite in="SourceGraphic"/>
    </filter>
    <clipPath id="clip-Recycled-Resins2">
      <rect width="160" height="190"/>
    </clipPath>
  </defs>
  <g id="Recycled-Resins2" clip-path="url(#clip-Recycled-Resins2)">
    <g id="Grupo_1630" data-name="Grupo 1630" transform="translate(6253 12735)">
      <g id="Grupo_1624" data-name="Grupo 1624" transform="translate(-200)">
        <g transform="matrix(1, 0, 0, 1, -6053, -12735)" filter="url(#Trazado_7097)">
          <g id="Trazado_7097-2" data-name="Trazado 7097" transform="translate(16 18)" fill="#44d62c" opacity="0.93">
            <path d="M 114 154.5 L 14 154.5 C 10.39402008056641 154.5 7.003880023956299 153.0957641601563 4.454060077667236 150.5459442138672 C 1.904240012168884 147.9961395263672 0.5 144.6059875488281 0.5 141 L 0.5 14 C 0.5 10.39402008056641 1.904240012168884 7.003880023956299 4.454060077667236 4.454060077667236 C 7.003880023956299 1.904240012168884 10.39402008056641 0.5 14 0.5 L 114 0.5 C 117.6059799194336 0.5 120.9961166381836 1.904240012168884 123.5459365844727 4.454060077667236 C 126.0957565307617 7.003880023956299 127.5 10.39402008056641 127.5 14 L 127.5 141 C 127.5 144.6059875488281 126.0957565307617 147.9961395263672 123.5459365844727 150.5459442138672 C 120.9961166381836 153.0957641601563 117.6059799194336 154.5 114 154.5 Z" stroke="none"/>
            <path d="M 14 1 C 10.52758026123047 1 7.262977600097656 2.35223388671875 4.8076171875 4.807601928710938 C 2.352241516113281 7.262985229492188 1 10.52757263183594 1 14 L 1 141 C 1 144.472412109375 2.352241516113281 147.7370147705078 4.8076171875 150.1923980712891 C 7.262977600097656 152.6477661132813 10.52758026123047 154 14 154 L 114 154 C 117.4724197387695 154 120.7370223999023 152.6477661132813 123.1923828125 150.1923980712891 C 125.6477584838867 147.7370147705078 127 144.472412109375 127 141 L 127 14 C 127 10.52757263183594 125.6477584838867 7.262985229492188 123.1923828125 4.807601928710938 C 120.7370223999023 2.35223388671875 117.4724197387695 1 114 1 L 14 1 M 14 0 L 114 0 C 121.7319793701172 0 128 6.26800537109375 128 14 L 128 141 C 128 148.7319946289063 121.7319793701172 155 114 155 L 14 155 C 6.268020629882813 155 0 148.7319946289063 0 141 L 0 14 C 0 6.26800537109375 6.268020629882813 0 14 0 Z" stroke="none" fill="#fff"/>
          </g>
        </g>
        <path id="Ning" d="M61.388,48.21a4.995,4.995,0,1,1,5,4.951A4.974,4.974,0,0,1,61.388,48.21Zm5-20.51a4.951,4.951,0,1,0-5-4.95A4.971,4.971,0,0,0,66.383,27.7ZM47.449,28.732a4.995,4.995,0,1,0,4.995-4.951A4.971,4.971,0,0,0,47.449,28.732ZM22.684,61.474a4.951,4.951,0,1,0,4.995,4.95A4.973,4.973,0,0,0,22.684,61.474ZM42.452,23.78a4.951,4.951,0,1,0-4.994-4.951A4.975,4.975,0,0,0,42.452,23.78ZM52.443,37.4a4.951,4.951,0,1,0,4.995,4.95A4.972,4.972,0,0,0,52.443,37.4ZM28.928,47.3a4.951,4.951,0,1,0,4.995,4.95A4.973,4.973,0,0,0,28.928,47.3ZM48.636,61.474a4.951,4.951,0,1,0,4.995,4.95A4.973,4.973,0,0,0,48.636,61.474Zm0-51.572a4.951,4.951,0,1,0-4.995-4.951A4.974,4.974,0,0,0,48.636,9.9Zm-29.7,37.4a4.951,4.951,0,1,0-4.993-4.95A4.974,4.974,0,0,0,18.938,47.3ZM5,27.7A4.951,4.951,0,1,0,0,22.75,4.974,4.974,0,0,0,5,27.7ZM5,53.162A4.951,4.951,0,1,0,0,48.21,4.974,4.974,0,0,0,5,53.162ZM18.938,33.683a4.951,4.951,0,1,0-4.993-4.95A4.973,4.973,0,0,0,18.938,33.683ZM42.452,57.2a4.951,4.951,0,1,0-4.994-4.95A4.974,4.974,0,0,0,42.452,57.2ZM23.933,18.83a4.995,4.995,0,1,0,4.995-4.95A4.973,4.973,0,0,0,23.933,18.83ZM22.684,9.9a4.951,4.951,0,1,0-4.995-4.95A4.973,4.973,0,0,0,22.684,9.9Z" transform="translate(-6009.002 -12679.375)" fill="#fff"/>
        <path id="Trazado_9413" data-name="Trazado 9413" d="M-39.016-3.707V0h-1.79V-9.236h2.768a3.105,3.105,0,0,1,2.168.717,2.563,2.563,0,0,1,.79,2,2.278,2.278,0,0,1-.333,1.244,2.323,2.323,0,0,1-.962.838,1.785,1.785,0,0,1,1.041.8,2.794,2.794,0,0,1,.317,1.4v.673a3.974,3.974,0,0,0,.089.813,1.087,1.087,0,0,0,.317.622V0h-1.854a1.058,1.058,0,0,1-.282-.663,7.053,7.053,0,0,1-.06-.917v-.647A1.782,1.782,0,0,0-37.1-3.32a.986.986,0,0,0-.838-.387Zm0-1.4h.965a1.1,1.1,0,0,0,.879-.346,1.446,1.446,0,0,0,.3-.981,1.624,1.624,0,0,0-.3-1.028,1.038,1.038,0,0,0-.87-.381h-.978Zm7.9,5.237a2.542,2.542,0,0,1-2.107-.939,3.76,3.76,0,0,1-.749-2.418v-.26a4.162,4.162,0,0,1,.72-2.533A2.373,2.373,0,0,1-31.227-7a2.217,2.217,0,0,1,1.86.832A3.587,3.587,0,0,1-28.72-3.9v.978h-3.466a2.413,2.413,0,0,0,.346,1.212,1.041,1.041,0,0,0,.93.451,2.763,2.763,0,0,0,.892-.124,3.623,3.623,0,0,0,.771-.39l.463,1.117a2.968,2.968,0,0,1-.993.565A3.881,3.881,0,0,1-31.119.133Zm-.108-5.726a.717.717,0,0,0-.67.4,2.745,2.745,0,0,0-.276,1.089h1.7v-.159a2.226,2.226,0,0,0-.175-.978A.6.6,0,0,0-31.227-5.592Zm5.954,4.329a.659.659,0,0,0,.578-.282,1.407,1.407,0,0,0,.2-.809h1.619l.019.038a2.323,2.323,0,0,1-.67,1.761,2.361,2.361,0,0,1-1.742.689,2.42,2.42,0,0,1-2.066-.968,4.086,4.086,0,0,1-.72-2.5v-.184a4.092,4.092,0,0,1,.72-2.5A2.408,2.408,0,0,1-25.28-7a2.3,2.3,0,0,1,1.777.714,2.661,2.661,0,0,1,.641,1.927l-.013.032H-24.5a1.868,1.868,0,0,0-.2-.92.632.632,0,0,0-.584-.349.78.78,0,0,0-.774.568,4.313,4.313,0,0,0-.216,1.5v.184a4.321,4.321,0,0,0,.216,1.517A.783.783,0,0,0-25.273-1.263Zm5.542-1.511v.019h.038l1.028-4.113h1.923l-2.368,7.9a3.717,3.717,0,0,1-.7,1.241,1.691,1.691,0,0,1-1.339.5,1.9,1.9,0,0,1-.384-.035Q-21.7,2.7-22,2.628l.216-1.314.136.025a.7.7,0,0,0,.13.013.791.791,0,0,0,.6-.216,1.292,1.292,0,0,0,.3-.565l.171-.527-2.069-6.913h1.923Zm6.062,1.511a.659.659,0,0,0,.578-.282,1.407,1.407,0,0,0,.2-.809h1.619l.019.038a2.323,2.323,0,0,1-.67,1.761A2.361,2.361,0,0,1-13.67.133a2.42,2.42,0,0,1-2.066-.968,4.086,4.086,0,0,1-.72-2.5v-.184a4.092,4.092,0,0,1,.72-2.5A2.408,2.408,0,0,1-13.676-7a2.3,2.3,0,0,1,1.777.714,2.661,2.661,0,0,1,.641,1.927l-.013.032H-12.9a1.868,1.868,0,0,0-.2-.92.632.632,0,0,0-.584-.349.78.78,0,0,0-.774.568,4.313,4.313,0,0,0-.216,1.5v.184a4.321,4.321,0,0,0,.216,1.517A.783.783,0,0,0-13.67-1.263ZM-8.477,0h-1.79V-9.9h1.79Zm3.91.133A2.542,2.542,0,0,1-6.675-.806a3.76,3.76,0,0,1-.749-2.418v-.26A4.162,4.162,0,0,1-6.7-6.018,2.373,2.373,0,0,1-4.675-7a2.217,2.217,0,0,1,1.86.832A3.587,3.587,0,0,1-2.168-3.9v.978H-5.634a2.413,2.413,0,0,0,.346,1.212,1.041,1.041,0,0,0,.93.451,2.763,2.763,0,0,0,.892-.124,3.623,3.623,0,0,0,.771-.39L-2.231-.66A2.968,2.968,0,0,1-3.225-.1,3.881,3.881,0,0,1-4.567.133Zm-.108-5.726a.717.717,0,0,0-.67.4,2.745,2.745,0,0,0-.276,1.089h1.7v-.159a2.226,2.226,0,0,0-.175-.978A.6.6,0,0,0-4.675-5.592Zm3.187,2.2A4.971,4.971,0,0,1-.885-6,1.9,1.9,0,0,1,.822-7a1.439,1.439,0,0,1,.746.2,1.97,1.97,0,0,1,.594.559V-9.9h1.79V0H2.422L2.288-.774A2.037,2.037,0,0,1,1.647-.1,1.54,1.54,0,0,1,.809.133,1.91,1.91,0,0,1-.885-.8a4.475,4.475,0,0,1-.6-2.466Zm1.777.133A3.787,3.787,0,0,0,.517-1.8a.779.779,0,0,0,.755.53.979.979,0,0,0,.517-.136,1.042,1.042,0,0,0,.371-.4V-4.964a1.226,1.226,0,0,0-.375-.457.847.847,0,0,0-.508-.165.8.8,0,0,0-.755.6A4.452,4.452,0,0,0,.289-3.4Zm9.642-.444V0H8.141V-9.236h2.768a3.105,3.105,0,0,1,2.168.717,2.563,2.563,0,0,1,.79,2,2.278,2.278,0,0,1-.333,1.244,2.323,2.323,0,0,1-.962.838,1.785,1.785,0,0,1,1.041.8,2.794,2.794,0,0,1,.317,1.4v.673a3.974,3.974,0,0,0,.089.813,1.087,1.087,0,0,0,.317.622V0H12.483A1.058,1.058,0,0,1,12.2-.663a7.053,7.053,0,0,1-.06-.917v-.647a1.782,1.782,0,0,0-.292-1.092.986.986,0,0,0-.838-.387Zm0-1.4H10.9a1.1,1.1,0,0,0,.879-.346,1.446,1.446,0,0,0,.3-.981,1.624,1.624,0,0,0-.3-1.028,1.038,1.038,0,0,0-.87-.381H9.931Zm7.9,5.237A2.542,2.542,0,0,1,15.72-.806a3.76,3.76,0,0,1-.749-2.418v-.26a4.162,4.162,0,0,1,.72-2.533A2.373,2.373,0,0,1,17.719-7a2.217,2.217,0,0,1,1.86.832,3.587,3.587,0,0,1,.647,2.26v.978H16.761a2.413,2.413,0,0,0,.346,1.212,1.041,1.041,0,0,0,.93.451,2.763,2.763,0,0,0,.892-.124,3.623,3.623,0,0,0,.771-.39L20.163-.66A2.968,2.968,0,0,1,19.17-.1,3.881,3.881,0,0,1,17.827.133Zm-.108-5.726a.717.717,0,0,0-.67.4,2.745,2.745,0,0,0-.276,1.089h1.7v-.159a2.226,2.226,0,0,0-.175-.978A.6.6,0,0,0,17.719-5.592ZM24.2-1.79a.682.682,0,0,0-.235-.521,3.858,3.858,0,0,0-.908-.527,4.806,4.806,0,0,1-1.574-.882,1.637,1.637,0,0,1-.527-1.257,1.837,1.837,0,0,1,.67-1.428A2.585,2.585,0,0,1,23.4-7a2.673,2.673,0,0,1,1.844.613A1.887,1.887,0,0,1,25.9-4.837l-.013.038H24.162a1.16,1.16,0,0,0-.19-.7.666.666,0,0,0-.578-.263.729.729,0,0,0-.524.2.659.659,0,0,0-.213.5.628.628,0,0,0,.209.492,4.367,4.367,0,0,0,.914.517,4.442,4.442,0,0,1,1.615.879,1.728,1.728,0,0,1,.53,1.311,1.753,1.753,0,0,1-.7,1.435,2.883,2.883,0,0,1-1.85.559,2.592,2.592,0,0,1-1.9-.686,2.016,2.016,0,0,1-.667-1.555l.019-.038h1.625a1.115,1.115,0,0,0,.267.8.965.965,0,0,0,.7.244A.819.819,0,0,0,24-1.285.658.658,0,0,0,24.2-1.79ZM28.726,0h-1.79V-6.868h1.79Zm0-8.538h-1.79V-9.9h1.79Zm2.92,1.669.076.958a2.334,2.334,0,0,1,.714-.8A1.644,1.644,0,0,1,33.379-7a1.608,1.608,0,0,1,1.374.682,3.665,3.665,0,0,1,.5,2.142V0h-1.79V-4.17a2.316,2.316,0,0,0-.187-1.095.615.615,0,0,0-.568-.321,1.04,1.04,0,0,0-.536.14,1.211,1.211,0,0,0-.4.394V0h-1.79V-6.868ZM39.46-1.79a.682.682,0,0,0-.235-.521,3.858,3.858,0,0,0-.908-.527,4.806,4.806,0,0,1-1.574-.882,1.637,1.637,0,0,1-.527-1.257,1.837,1.837,0,0,1,.67-1.428A2.585,2.585,0,0,1,38.66-7a2.673,2.673,0,0,1,1.844.613,1.887,1.887,0,0,1,.657,1.546l-.013.038H39.422a1.16,1.16,0,0,0-.19-.7.666.666,0,0,0-.578-.263.729.729,0,0,0-.524.2.659.659,0,0,0-.213.5.628.628,0,0,0,.209.492,4.367,4.367,0,0,0,.914.517,4.442,4.442,0,0,1,1.615.879,1.728,1.728,0,0,1,.53,1.311,1.753,1.753,0,0,1-.7,1.435,2.883,2.883,0,0,1-1.85.559,2.592,2.592,0,0,1-1.9-.686,2.016,2.016,0,0,1-.667-1.555l.019-.038h1.625a1.115,1.115,0,0,0,.267.8.965.965,0,0,0,.7.244.819.819,0,0,0,.581-.187A.658.658,0,0,0,39.46-1.79Z" transform="translate(-5973 -12580)" fill="#fff"/>
      </g>
    </g>
  </g>
</svg>
