<svg xmlns="http://www.w3.org/2000/svg" xmlns:xlink="http://www.w3.org/1999/xlink" width="160" height="190" viewBox="0 0 160 190">
  <defs>
    <clipPath id="clip-Linea-VialEN">
      <rect width="160" height="190"/>
    </clipPath>
  </defs>
  <g id="Linea-VialEN" clip-path="url(#clip-Linea-VialEN)">
    <g id="Grupo_1534" data-name="Grupo 1534" transform="translate(-3738 -12.66)">
      <rect id="Rectángulo_2914" data-name="Rectángulo 2914" width="128" height="155" rx="14" transform="translate(3754 30.66)" fill="none" opacity="0.93"/>
      <g id="cone" transform="translate(3718.2 73.695)">
        <g id="Grupo_802" data-name="Grupo 802" transform="translate(75.8 -1)">
          <path id="Trazado_5991" data-name="Trazado 5991" d="M118.426,57.331h-.208l-2.562-11.056a.838.838,0,0,0-.035-.386l-2.58-11.217a1.154,1.154,0,0,0-.17-.416l-2.393-10.328a.839.839,0,0,0-.017-.473l-2.58-11.217a1.133,1.133,0,0,0-.225-.491L105.3,1.58A3.367,3.367,0,0,0,102.049-1H96.664a3.367,3.367,0,0,0-3.253,2.58L80.495,57.331h-.208a4.487,4.487,0,1,0,0,8.974h38.139a4.487,4.487,0,0,0,0-8.974Zm-5.384-12.339H85.7l.87-3.788L87.8,36.018H111.02l.095.409ZM92.963,13.583h12.859l1.418,6.119.642,2.855H90.854l.656-2.855ZM90.338,24.8h18.082l2.079,8.974H88.277Zm5.2-22.659a1.092,1.092,0,0,1,1.122-.9h5.384a1.092,1.092,0,0,1,1.122.9l2.131,9.2H93.43ZM85.186,47.235h28.433l2.339,10.1H82.867Zm33.241,16.826H80.287a2.244,2.244,0,1,1,0-4.487h38.139a2.244,2.244,0,0,1,0,4.487Z" transform="translate(-75.8 1)" fill="#5e5b5c"/>
        </g>
      </g>
      <text id="Road_Safety_Products" data-name="Road Safety Products" transform="translate(3818 167.66)" fill="#5e5b5c" font-size="13" font-family="RobotoCondensed-Bold, Roboto" font-weight="700"><tspan x="-55.19" y="0">Road Safety Products</tspan></text>
    </g>
  </g>
</svg>
