<svg xmlns="http://www.w3.org/2000/svg" xmlns:xlink="http://www.w3.org/1999/xlink" width="160" height="190" viewBox="0 0 160 190">
  <defs>
    <filter id="Rect치ngulo_2869" x="-2" y="2" width="164" height="191" filterUnits="userSpaceOnUse">
      <feOffset dy="2" input="SourceAlpha"/>
      <feGaussianBlur stdDeviation="6" result="blur"/>
      <feFlood flood-color="#44d62c" flood-opacity="0.651"/>
      <feComposite operator="in" in2="blur"/>
      <feComposite in="SourceGraphic"/>
    </filter>
    <clipPath id="clip-Cajillas-plegadizas01EN">
      <rect width="160" height="190"/>
    </clipPath>
  </defs>
  <g id="Cajillas-plegadizas01EN" clip-path="url(#clip-Cajillas-plegadizas01EN)">
    <g id="Grupo_1543" data-name="Grupo 1543" transform="translate(-1194 -328.66)">
      <g transform="matrix(1, 0, 0, 1, 1194, 328.66)" filter="url(#Rect치ngulo_2869)">
        <g id="Rect치ngulo_2869-2" data-name="Rect치ngulo 2869" transform="translate(16 18)" fill="#44d62c" stroke="#fff" stroke-width="1" opacity="0.93">
          <rect width="128" height="155" rx="14" stroke="none"/>
          <rect x="0.5" y="0.5" width="127" height="154" rx="13.5" fill="none"/>
        </g>
      </g>
      <path id="Trazado_6044" data-name="Trazado 6044" d="M49.679,93.372V128.3h54.346V93.372Zm2.368,2.368h49.61v4.644H52.047Zm37.127,23.184V102.752h5.057v16.172ZM64.53,102.752v16.172H59.473V102.752Zm2.368,0h5.057v16.172H66.9Zm7.425,0h5.058v16.172H74.323Zm7.426,0h5.057v16.172H81.749Zm-29.7,0H57.1v16.172H52.047Zm49.61,23.184H52.047v-4.644h49.61Zm0-7.012H96.6V102.752h5.057Z" transform="translate(1197.321 302.662)" fill="#fff"/>
      <path id="Trazado_6045" data-name="Trazado 6045" d="M123.121,44.552l-1.674-1.674-4.338,4.338V34.153H114.74V47.215L110.4,42.877l-1.674,1.674,7.2,7.2Z" transform="translate(1158.249 341.847)" fill="#fff"/>
      <path id="Trazado_6046" data-name="Trazado 6046" d="M108.728,211.033l1.674,1.674,4.338-4.338v13.062h2.368V208.369l4.338,4.338,1.674-1.674-7.2-7.2Z" transform="translate(1158.249 229.569)" fill="#fff"/>
      <path id="Trazado_9464" data-name="Trazado 9464" d="M-31.649-3.84h-3.136V0h-1.809V-9.242h5.5V-7.8h-3.688v2.52h3.136Zm1.041-.013a3.415,3.415,0,0,1,.733-2.263A2.526,2.526,0,0,1-27.822-7a2.536,2.536,0,0,1,2.057.879,3.4,3.4,0,0,1,.736,2.263V-3a3.387,3.387,0,0,1-.736,2.266,2.541,2.541,0,0,1-2.05.87,2.546,2.546,0,0,1-2.06-.87A3.4,3.4,0,0,1-30.608-3Zm1.8.848a2.867,2.867,0,0,0,.222,1.246.791.791,0,0,0,.774.451.782.782,0,0,0,.759-.455,2.835,2.835,0,0,0,.225-1.243v-.852a2.843,2.843,0,0,0-.225-1.237.785.785,0,0,0-.765-.461.785.785,0,0,0-.765.464,2.847,2.847,0,0,0-.225,1.233ZM-22.191,0h-1.8V-9.9h1.8Zm1.016-3.4A5.013,5.013,0,0,1-20.579-6,1.867,1.867,0,0,1-18.9-7a1.4,1.4,0,0,1,.724.19,1.9,1.9,0,0,1,.578.546V-9.9h1.8V0h-1.568l-.121-.749a2.019,2.019,0,0,1-.619.657,1.458,1.458,0,0,1-.8.225A1.882,1.882,0,0,1-20.582-.8a4.531,4.531,0,0,1-.594-2.466Zm1.8.134a3.89,3.89,0,0,0,.213,1.439.737.737,0,0,0,.72.516.9.9,0,0,0,.489-.131,1.078,1.078,0,0,0,.355-.379V-4.949a1.272,1.272,0,0,0-.355-.446.766.766,0,0,0-.476-.159.764.764,0,0,0-.724.592A4.553,4.553,0,0,0-19.373-3.4ZM-12.733,0h-1.8V-6.868h1.8Zm0-8.525h-1.8V-9.9h1.8Zm2.907,1.657.076.946a2.289,2.289,0,0,1,.7-.79A1.6,1.6,0,0,1-8.131-7a1.591,1.591,0,0,1,1.349.66,3.5,3.5,0,0,1,.492,2.076V0H-8.1V-4.264a1.842,1.842,0,0,0-.2-1,.7.7,0,0,0-.619-.289.822.822,0,0,0-.444.127,1.083,1.083,0,0,0-.343.349V0h-1.8V-6.868ZM-5.4-3.751A4.148,4.148,0,0,1-4.8-6.1,1.921,1.921,0,0,1-3.11-7a1.424,1.424,0,0,1,.806.232,2.042,2.042,0,0,1,.609.663l.114-.768H-.013V-.133A2.864,2.864,0,0,1-.8,2a2.917,2.917,0,0,1-2.149.778,3.459,3.459,0,0,1-.946-.143,4.344,4.344,0,0,1-.933-.384l.317-1.39a3.228,3.228,0,0,0,.736.3,3.1,3.1,0,0,0,.813.1A1.029,1.029,0,0,0-2.1.9,1.646,1.646,0,0,0-1.815-.14V-.533a1.749,1.749,0,0,1-.578.5,1.559,1.559,0,0,1-.73.168A1.947,1.947,0,0,1-4.805-.7a3.714,3.714,0,0,1-.6-2.206Zm1.8.848A2.617,2.617,0,0,0-3.383-1.73a.749.749,0,0,0,.724.423,1.022,1.022,0,0,0,.492-.114.94.94,0,0,0,.352-.337V-5.014a1.109,1.109,0,0,0-.346-.394.845.845,0,0,0-.486-.14.753.753,0,0,0-.73.493A3.217,3.217,0,0,0-3.6-3.749ZM9.909-2.977l.019.038A3.177,3.177,0,0,1,9.2-.641,2.857,2.857,0,0,1,7.033.133,3.054,3.054,0,0,1,4.742-.746a3.422,3.422,0,0,1-.857-2.491V-6A3.508,3.508,0,0,1,4.713-8.49a2.893,2.893,0,0,1,2.219-.885,2.937,2.937,0,0,1,2.225.787,3.334,3.334,0,0,1,.778,2.33l-.019.038H8.176a2.157,2.157,0,0,0-.248-1.312,1.14,1.14,0,0,0-1-.4A1.059,1.059,0,0,0,6-7.458a2.589,2.589,0,0,0-.324,1.442v2.777a2.483,2.483,0,0,0,.346,1.455,1.172,1.172,0,0,0,1.012.477,1.023,1.023,0,0,0,.911-.378,2.256,2.256,0,0,0,.225-1.292ZM14.25,0a3.082,3.082,0,0,1-.136-.375,3.057,3.057,0,0,1-.092-.413,2.147,2.147,0,0,1-.619.67,1.46,1.46,0,0,1-.847.251,1.756,1.756,0,0,1-1.362-.559,2.124,2.124,0,0,1-.511-1.492,1.955,1.955,0,0,1,.651-1.568,2.9,2.9,0,0,1,1.933-.559h.679V-4.6a1.381,1.381,0,0,0-.181-.771.61.61,0,0,0-.543-.27.523.523,0,0,0-.457.216,1.085,1.085,0,0,0-.152.628l-1.746-.006-.019-.038a1.883,1.883,0,0,1,.663-1.523A2.626,2.626,0,0,1,13.343-7a2.451,2.451,0,0,1,1.742.625,2.317,2.317,0,0,1,.67,1.781v2.78a6.016,6.016,0,0,0,.07.946A5.153,5.153,0,0,0,16.041,0ZM13.076-1.225a.929.929,0,0,0,.5-.146,1.084,1.084,0,0,0,.365-.375V-3.009h-.679a.657.657,0,0,0-.6.286A1.312,1.312,0,0,0,12.486-2a.919.919,0,0,0,.159.559A.507.507,0,0,0,13.076-1.225Zm7.065-4-.679-.019a.769.769,0,0,0-.473.14.887.887,0,0,0-.289.394V0H16.9V-6.868H18.58l.07.92.032.013a1.873,1.873,0,0,1,.46-.778A.965.965,0,0,1,19.83-7a1.6,1.6,0,0,1,.257.022,1.746,1.746,0,0,1,.238.054ZM23.4-8.576v1.708h.952v1.308H23.4v3.447a1.122,1.122,0,0,0,.121.6.377.377,0,0,0,.33.181,2.076,2.076,0,0,0,.279-.016,2.043,2.043,0,0,0,.254-.054l.14,1.371A3.6,3.6,0,0,1,23.981.1a4.109,4.109,0,0,1-.59.038A1.656,1.656,0,0,1,22.061-.4a2.589,2.589,0,0,1-.46-1.7V-5.561h-.812V-6.868H21.6V-8.576Zm1.625,4.723a3.415,3.415,0,0,1,.733-2.263A2.526,2.526,0,0,1,27.815-7a2.536,2.536,0,0,1,2.057.879,3.4,3.4,0,0,1,.736,2.263V-3a3.387,3.387,0,0,1-.736,2.266,2.541,2.541,0,0,1-2.05.87,2.546,2.546,0,0,1-2.06-.87A3.4,3.4,0,0,1,25.029-3Zm1.8.848a2.867,2.867,0,0,0,.222,1.246.791.791,0,0,0,.774.451.782.782,0,0,0,.759-.455,2.835,2.835,0,0,0,.225-1.243v-.852a2.843,2.843,0,0,0-.225-1.237.785.785,0,0,0-.765-.461.785.785,0,0,0-.765.464,2.847,2.847,0,0,0-.225,1.233Zm6.386-3.863.076.946a2.289,2.289,0,0,1,.7-.79A1.6,1.6,0,0,1,34.906-7a1.591,1.591,0,0,1,1.349.66,3.5,3.5,0,0,1,.492,2.076V0H34.938V-4.264a1.842,1.842,0,0,0-.2-1,.7.7,0,0,0-.619-.289.822.822,0,0,0-.444.127,1.083,1.083,0,0,0-.343.349V0h-1.8V-6.868Z" transform="translate(1274 483.66)" fill="#fff"/>
    </g>
  </g>
</svg>
