<svg xmlns="http://www.w3.org/2000/svg" xmlns:xlink="http://www.w3.org/1999/xlink" width="160" height="190" viewBox="0 0 160 190">
  <defs>
    <filter id="Rect치ngulo_2869" x="-6" y="2" width="164" height="191" filterUnits="userSpaceOnUse">
      <feOffset dy="2" input="SourceAlpha"/>
      <feGaussianBlur stdDeviation="6" result="blur"/>
      <feFlood flood-color="#44d62c" flood-opacity="0.651"/>
      <feComposite operator="in" in2="blur"/>
      <feComposite in="SourceGraphic"/>
    </filter>
    <clipPath id="clip-Vasos01EN">
      <rect width="160" height="190"/>
    </clipPath>
  </defs>
  <g id="Vasos01EN" clip-path="url(#clip-Vasos01EN)">
    <g id="Grupo_1542" data-name="Grupo 1542" transform="translate(-1036 -328.66)">
      <g transform="matrix(1, 0, 0, 1, 1036, 328.66)" filter="url(#Rect치ngulo_2869)">
        <g id="Rect치ngulo_2869-2" data-name="Rect치ngulo 2869" transform="translate(12 18)" fill="#44d62c" stroke="#fff" stroke-width="1" opacity="0.93">
          <rect width="128" height="155" rx="14" stroke="none"/>
          <rect x="0.5" y="0.5" width="127" height="154" rx="13.5" fill="none"/>
        </g>
      </g>
      <path id="Trazado_6035" data-name="Trazado 6035" d="M52.191,53.758a1.485,1.485,0,0,0-1.483,1.483V61.79a1.485,1.485,0,0,0,1.483,1.483h1.965l8.023,64.186a1.486,1.486,0,0,0,1.472,1.3h39.291a1.486,1.486,0,0,0,1.472-1.3l8.023-64.186H114.4a1.485,1.485,0,0,0,1.483-1.483V55.241a1.485,1.485,0,0,0-1.483-1.483m-11.874,65.485H96.521A1.516,1.516,0,0,0,95,120.506a1.484,1.484,0,0,0,1.468,1.7h5.687l-.448,3.583H65.037l-.448-3.583H89.87a1.515,1.515,0,0,0,1.518-1.262,1.483,1.483,0,0,0-1.467-1.7h-25.7L60.1,86.266l.2.024c5.985.729,13.864,5.606,21.482,10.322,8.028,4.97,15.61,9.663,22.1,10.666l.148.023Zm1.861-14.849-.158-.025c-5.908-.96-13.528-5.677-20.9-10.238-8.593-5.32-16.71-10.345-23.489-10.824L59.72,83.3,58.456,73.192l.192.018c6.928.668,15.46,5.83,23.711,10.822,8.482,5.132,16.494,9.98,23.115,10.36l.164.009Zm1.618-12.988-.141-.005c-5.915-.23-14.078-5.17-21.972-9.946C75.095,76.13,66,70.624,58.21,70.164l-.128-.007-.86-6.884h52.3Zm6.912-34.682v3.583H53.674V56.724Z" transform="translate(1028.292 327.242)" fill="#fff"/>
      <path id="Trazado_9465" data-name="Trazado 9465" d="M-6.094-2.977l.019.038A3.177,3.177,0,0,1-6.8-.641,2.857,2.857,0,0,1-8.969.133a3.054,3.054,0,0,1-2.292-.879,3.422,3.422,0,0,1-.857-2.491V-6a3.508,3.508,0,0,1,.828-2.491,2.893,2.893,0,0,1,2.219-.885,2.937,2.937,0,0,1,2.225.787,3.334,3.334,0,0,1,.778,2.33l-.019.038H-7.827a2.157,2.157,0,0,0-.248-1.312,1.14,1.14,0,0,0-1-.4A1.059,1.059,0,0,0-10-7.458a2.589,2.589,0,0,0-.324,1.442v2.777a2.483,2.483,0,0,0,.346,1.455,1.172,1.172,0,0,0,1.012.477,1.023,1.023,0,0,0,.911-.378,2.256,2.256,0,0,0,.225-1.292ZM-1.612-.793A2.027,2.027,0,0,1-2.288-.1a1.712,1.712,0,0,1-.9.238,1.691,1.691,0,0,1-1.438-.7,3.621,3.621,0,0,1-.517-2.155V-6.868h1.8V-2.7a2.361,2.361,0,0,0,.178,1.061.567.567,0,0,0,.527.33,1.169,1.169,0,0,0,.524-.111,1.05,1.05,0,0,0,.384-.327V-6.868H.083V0H-1.5ZM6.6-2.907A3.714,3.714,0,0,1,6-.7,1.935,1.935,0,0,1,4.335.133,1.607,1.607,0,0,1,3.59-.035a1.623,1.623,0,0,1-.568-.5V2.641h-1.8V-6.868H2.888l.063.679a1.863,1.863,0,0,1,.587-.6A1.463,1.463,0,0,1,4.323-7,1.909,1.909,0,0,1,6-6.1a4.162,4.162,0,0,1,.6,2.352ZM4.8-3.755A3.138,3.138,0,0,0,4.57-5.062a.753.753,0,0,0-.717-.493.857.857,0,0,0-.5.143,1.012,1.012,0,0,0-.336.4v3.242a.854.854,0,0,0,.333.343,1.027,1.027,0,0,0,.5.114.75.75,0,0,0,.72-.426A2.605,2.605,0,0,0,4.8-2.91ZM10.524-1.8a.667.667,0,0,0-.229-.5,3.847,3.847,0,0,0-.876-.524A4.619,4.619,0,0,1,7.868-3.7a1.667,1.667,0,0,1-.517-1.27A1.854,1.854,0,0,1,8.014-6.4,2.533,2.533,0,0,1,9.769-7a2.626,2.626,0,0,1,1.822.609,1.922,1.922,0,0,1,.654,1.555l-.019.038H10.486a1.176,1.176,0,0,0-.178-.686.621.621,0,0,0-.546-.254.685.685,0,0,0-.5.2.638.638,0,0,0-.2.476.638.638,0,0,0,.2.492,4.091,4.091,0,0,0,.882.511,4.278,4.278,0,0,1,1.6.873A1.76,1.76,0,0,1,12.27-1.86a1.756,1.756,0,0,1-.7,1.435A2.849,2.849,0,0,1,9.737.133,2.539,2.539,0,0,1,7.858-.559,2.043,2.043,0,0,1,7.2-2.12l.013-.038h1.65a1.12,1.12,0,0,0,.254.787.9.9,0,0,0,.667.241.781.781,0,0,0,.552-.178A.636.636,0,0,0,10.524-1.8Z" transform="translate(1112 483.66)" fill="#fff"/>
    </g>
  </g>
</svg>
