<svg xmlns="http://www.w3.org/2000/svg" xmlns:xlink="http://www.w3.org/1999/xlink" width="403" height="501" viewBox="0 0 403 501">
  <defs>
    <filter id="Trazado_7230" x="0" y="0" width="402.257" height="500.34" filterUnits="userSpaceOnUse">
      <feOffset dy="20" input="SourceAlpha"/>
      <feGaussianBlur stdDeviation="23" result="blur"/>
      <feFlood flood-color="#010101" flood-opacity="0.129"/>
      <feComposite operator="in" in2="blur"/>
      <feComposite in="SourceGraphic"/>
    </filter>
    <filter id="Trazado_7232" x="81" y="28.66" width="240.168" height="240.306" filterUnits="userSpaceOnUse">
      <feOffset dy="9" input="SourceAlpha"/>
      <feGaussianBlur stdDeviation="15" result="blur-2"/>
      <feFlood flood-color="#010101" flood-opacity="0.122"/>
      <feComposite operator="in" in2="blur-2"/>
      <feComposite in="SourceGraphic"/>
    </filter>
    <clipPath id="clip-Oxygen-path">
      <rect width="403" height="501"/>
    </clipPath>
  </defs>
  <g id="Oxygen-path" clip-path="url(#clip-Oxygen-path)">
    <g transform="matrix(1, 0, 0, 1, 0, 0)" filter="url(#Trazado_7230)">
      <g id="Trazado_7230-2" data-name="Trazado 7230" transform="translate(69 49)" fill="#fff" opacity="0.7">
        <path d="M 225.2564697265625 361.8403625488281 L 39.00000762939453 361.8403625488281 C 33.80232620239258 361.8403625488281 28.76037216186523 360.8224792480469 24.01423454284668 358.8150329589844 C 19.42973518371582 356.8759460449219 15.3123254776001 354.0998840332031 11.77641677856445 350.5639343261719 C 8.240462303161621 347.0280151367188 5.46441650390625 342.9106140136719 3.525325775146484 338.3261108398438 C 1.517871260643005 333.5799865722656 0.5000075697898865 328.5380249023438 0.5000075697898865 323.3403625488281 L 0.5000075697898865 38.99998474121094 C 0.5000075697898865 33.80230331420898 1.517871260643005 28.76034736633301 3.525325775146484 24.01421165466309 C 5.46441650390625 19.42971229553223 8.240462303161621 15.3123025894165 11.77641677856445 11.77639293670654 C 15.3123254776001 8.240438461303711 19.42973518371582 5.464393138885498 24.01423454284668 3.525302410125732 C 28.76037216186523 1.517847776412964 33.80232620239258 0.4999842047691345 39.00000762939453 0.4999842047691345 L 225.2564697265625 0.4999842047691345 C 230.4541473388672 0.4999842047691345 235.49609375 1.517847776412964 240.2422790527344 3.525302410125732 C 244.8267364501953 5.464393138885498 248.9441375732422 8.240438461303711 252.4801025390625 11.77639293670654 C 256.0160217285156 15.3123025894165 258.7920532226563 19.42971229553223 260.7311401367188 24.01421165466309 C 262.7385864257813 28.76034736633301 263.7564697265625 33.80230331420898 263.7564697265625 38.99998474121094 L 263.7564697265625 323.3403625488281 C 263.7564697265625 328.5380249023438 262.7385864257813 333.5799865722656 260.7311401367188 338.3261108398438 C 258.7920532226563 342.9106140136719 256.0160217285156 347.0280151367188 252.4801025390625 350.5639343261719 C 248.9441375732422 354.0998840332031 244.8267364501953 356.8759460449219 240.2422790527344 358.8150329589844 C 235.49609375 360.8224792480469 230.4541473388672 361.8403625488281 225.2564697265625 361.8403625488281 Z" stroke="none"/>
        <path d="M 39 0.999969482421875 C 33.86959838867188 0.999969482421875 28.8931884765625 2.00457763671875 24.20901489257813 3.985809326171875 C 19.68409729003906 5.899658203125 15.62010192871094 8.6397705078125 12.12991333007813 12.12994384765625 C 8.639785766601563 15.6201171875 5.899688720703125 19.68408203125 3.98583984375 24.208984375 C 2.004608154296875 28.89315795898438 1 33.86956787109375 1 38.99996948242188 L 1 323.34033203125 C 1 328.4707641601563 2.004608154296875 333.4471740722656 3.98583984375 338.13134765625 C 5.899688720703125 342.65625 8.639785766601563 346.72021484375 12.12991333007813 350.2103881835938 C 15.62010192871094 353.7005615234375 19.68409729003906 356.440673828125 24.20901489257813 358.3545227050781 C 28.8931884765625 360.3357543945313 33.86959838867188 361.3403625488281 39 361.3403625488281 L 225.2564697265625 361.3403625488281 C 230.3868713378906 361.3403625488281 235.36328125 360.3357543945313 240.0474548339844 358.3545227050781 C 244.5723724365234 356.440673828125 248.6363220214844 353.7005615234375 252.1265106201172 350.2103881835938 C 255.6166839599609 346.72021484375 258.3567810058594 342.65625 260.2706298828125 338.13134765625 C 262.2518615722656 333.4471740722656 263.2564697265625 328.4707641601563 263.2564697265625 323.34033203125 L 263.2564697265625 38.99996948242188 C 263.2564697265625 33.86956787109375 262.2518615722656 28.89315795898438 260.2706298828125 24.208984375 C 258.3567810058594 19.68408203125 255.6166839599609 15.6201171875 252.1265106201172 12.12994384765625 C 248.6363220214844 8.6397705078125 244.5723724365234 5.899658203125 240.0474548339844 3.985809326171875 C 235.36328125 2.00457763671875 230.3868713378906 0.999969482421875 225.2564697265625 0.999969482421875 L 39 0.999969482421875 M 39 -3.0517578125e-05 L 225.2564697265625 -3.0517578125e-05 C 246.7955474853516 -3.0517578125e-05 264.2564697265625 17.46090698242188 264.2564697265625 38.99996948242188 L 264.2564697265625 323.34033203125 C 264.2564697265625 344.8794250488281 246.7955474853516 362.3403625488281 225.2564697265625 362.3403625488281 L 39 362.3403625488281 C 17.46087646484375 362.3403625488281 0 344.8794250488281 0 323.34033203125 L 0 38.99996948242188 C 0 17.46090698242188 17.46087646484375 -3.0517578125e-05 39 -3.0517578125e-05 Z" stroke="none" fill="#00ff4e"/>
      </g>
    </g>
    <path id="Trazado_7231" data-name="Trazado 7231" d="M-78.776-6.716a6.977,6.977,0,0,1-1.859,4.975A6.32,6.32,0,0,1-85.458.236a5.99,5.99,0,0,1-4.655-1.977A7.128,7.128,0,0,1-91.9-6.716V-9.625A7.154,7.154,0,0,1-90.113-14.6a5.974,5.974,0,0,1,4.655-1.988,6.311,6.311,0,0,1,4.823,1.982,7,7,0,0,1,1.859,4.981Zm-2.212-2.931A5.516,5.516,0,0,0-82.2-13.331a4.043,4.043,0,0,0-3.257-1.437,3.747,3.747,0,0,0-3.083,1.438,5.709,5.709,0,0,0-1.151,3.684v2.931A5.745,5.745,0,0,0-88.541-3.01a3.747,3.747,0,0,0,3.083,1.438A4.046,4.046,0,0,0-82.2-3a5.562,5.562,0,0,0,1.207-3.712Zm9.22,1.977,2.583-4.481H-66.6l-3.942,6.008L-66.49,0h-2.538l-2.7-4.593L-74.419,0h-2.561l4.054-6.143-3.942-6.008h2.549ZM-60.605-4.5l.393,1.527h.067l2.987-9.175H-54.7l-5.11,14.016A6.3,6.3,0,0,1-61.127,4a3.038,3.038,0,0,1-2.319.91,4.834,4.834,0,0,1-.685-.062q-.416-.062-.64-.118l.225-1.741a2.964,2.964,0,0,1,.4.022q.466.034.59.034A1.366,1.366,0,0,0-62.4,2.415a6.53,6.53,0,0,0,.752-1.393l.528-1.269-4.515-11.9h2.471Zm7.311-1.348a8.109,8.109,0,0,1,1.252-4.728,4.024,4.024,0,0,1,3.5-1.8,4.264,4.264,0,0,1,2.033.466,4.09,4.09,0,0,1,1.471,1.342l.27-1.583h1.763V.067a4.636,4.636,0,0,1-1.359,3.588,5.583,5.583,0,0,1-3.919,1.252,8.217,8.217,0,0,1-1.892-.241,7.4,7.4,0,0,1-1.791-.657l.337-1.718a6.4,6.4,0,0,0,1.544.545,7.93,7.93,0,0,0,1.78.208,3.222,3.222,0,0,0,2.353-.736,3.048,3.048,0,0,0,.736-2.24V-1.314A3.918,3.918,0,0,1-46.646-.157a4.444,4.444,0,0,1-1.92.393,4.155,4.155,0,0,1-3.476-1.612,6.718,6.718,0,0,1-1.252-4.24Zm2.212.236a5.164,5.164,0,0,0,.752,2.942A2.611,2.611,0,0,0-48-1.561a2.924,2.924,0,0,0,1.673-.455A3.452,3.452,0,0,0-45.219-3.3V-8.895a3.432,3.432,0,0,0-1.112-1.23,2.916,2.916,0,0,0-1.651-.455,2.519,2.519,0,0,0-2.342,1.314,6.782,6.782,0,0,0-.758,3.414ZM-34.8.236A5.141,5.141,0,0,1-38.88-1.437a6.44,6.44,0,0,1-1.466-4.4v-.494a6.3,6.3,0,0,1,1.51-4.329,4.737,4.737,0,0,1,3.689-1.713A4.409,4.409,0,0,1-31.49-10.86a6.246,6.246,0,0,1,1.219,4.032V-5.66h-7.771l-.034.056a5.023,5.023,0,0,0,.809,2.97A2.825,2.825,0,0,0-34.8-1.494a5.566,5.566,0,0,0,1.971-.32A4.4,4.4,0,0,0-31.372-2.7l.865,1.438A5.318,5.318,0,0,1-32.226-.2,6.845,6.845,0,0,1-34.8.236Zm-.348-10.871a2.4,2.4,0,0,0-1.915.893,4.224,4.224,0,0,0-.927,2.285l.022.056h5.48v-.18a3.538,3.538,0,0,0-.651-2.19A2.354,2.354,0,0,0-35.146-10.635Zm9.333-1.516.157,1.808a4.412,4.412,0,0,1,1.522-1.5,4.06,4.06,0,0,1,2.083-.533,3.966,3.966,0,0,1,3.043,1.151A5.053,5.053,0,0,1-17.929-7.67V0h-2.212V-7.625a3.287,3.287,0,0,0-.635-2.28,2.542,2.542,0,0,0-1.937-.674,3.43,3.43,0,0,0-1.735.41,2.979,2.979,0,0,0-1.129,1.151V0H-27.79V-12.151Zm16.419,6.3a8.109,8.109,0,0,1,1.252-4.728,4.024,4.024,0,0,1,3.5-1.8,4.264,4.264,0,0,1,2.033.466A4.09,4.09,0,0,1-1.14-10.568l.27-1.583H.893V.067A4.636,4.636,0,0,1-.466,3.656,5.583,5.583,0,0,1-4.385,4.908a8.217,8.217,0,0,1-1.892-.241,7.4,7.4,0,0,1-1.791-.657l.337-1.718a6.4,6.4,0,0,0,1.544.545,7.93,7.93,0,0,0,1.78.208,3.222,3.222,0,0,0,2.353-.736A3.048,3.048,0,0,0-1.32.067V-1.314A3.918,3.918,0,0,1-2.746-.157a4.444,4.444,0,0,1-1.92.393A4.155,4.155,0,0,1-8.142-1.376a6.718,6.718,0,0,1-1.252-4.24Zm2.212.236a5.164,5.164,0,0,0,.752,2.942A2.611,2.611,0,0,0-4.1-1.561a2.924,2.924,0,0,0,1.673-.455A3.452,3.452,0,0,0-1.32-3.3V-8.895a3.432,3.432,0,0,0-1.112-1.23,2.916,2.916,0,0,0-1.651-.455A2.519,2.519,0,0,0-6.424-9.265a6.782,6.782,0,0,0-.758,3.414ZM9.1.236A5.141,5.141,0,0,1,5.02-1.437a6.44,6.44,0,0,1-1.466-4.4v-.494a6.3,6.3,0,0,1,1.51-4.329,4.737,4.737,0,0,1,3.689-1.713A4.409,4.409,0,0,1,12.41-10.86a6.246,6.246,0,0,1,1.219,4.032V-5.66H5.857L5.823-5.6a5.023,5.023,0,0,0,.809,2.97A2.825,2.825,0,0,0,9.1-1.494a5.566,5.566,0,0,0,1.971-.32A4.4,4.4,0,0,0,12.528-2.7l.865,1.438A5.318,5.318,0,0,1,11.674-.2,6.845,6.845,0,0,1,9.1.236ZM8.754-10.635a2.4,2.4,0,0,0-1.915.893,4.224,4.224,0,0,0-.927,2.285l.022.056h5.48v-.18a3.538,3.538,0,0,0-.651-2.19A2.354,2.354,0,0,0,8.754-10.635Zm9.333-1.516.157,1.808a4.412,4.412,0,0,1,1.522-1.5,4.06,4.06,0,0,1,2.083-.533,3.966,3.966,0,0,1,3.043,1.151A5.053,5.053,0,0,1,25.97-7.67V0H23.758V-7.625a3.287,3.287,0,0,0-.635-2.28,2.542,2.542,0,0,0-1.937-.674,3.43,3.43,0,0,0-1.735.41,2.979,2.979,0,0,0-1.129,1.151V0H16.11V-12.151ZM34.214.236a5.141,5.141,0,0,1-4.082-1.673,6.44,6.44,0,0,1-1.466-4.4v-.494a6.3,6.3,0,0,1,1.51-4.329,4.737,4.737,0,0,1,3.689-1.713,4.409,4.409,0,0,1,3.656,1.516A6.246,6.246,0,0,1,38.74-6.828V-5.66H30.968l-.034.056a5.023,5.023,0,0,0,.809,2.97,2.825,2.825,0,0,0,2.471,1.14,5.566,5.566,0,0,0,1.971-.32A4.4,4.4,0,0,0,37.639-2.7L38.5-1.258A5.318,5.318,0,0,1,36.785-.2,6.845,6.845,0,0,1,34.214.236Zm-.348-10.871a2.4,2.4,0,0,0-1.915.893,4.224,4.224,0,0,0-.927,2.285l.022.056h5.48v-.18a3.538,3.538,0,0,0-.651-2.19A2.354,2.354,0,0,0,33.865-10.635Zm13.106.438-1.134-.067a2.533,2.533,0,0,0-1.477.416,2.666,2.666,0,0,0-.927,1.168V0H41.221V-12.151H43.2l.213,1.774a4.218,4.218,0,0,1,1.275-1.471,2.981,2.981,0,0,1,1.746-.528,2.734,2.734,0,0,1,.472.039,3.126,3.126,0,0,1,.371.084ZM56.742,0q-.112-.55-.174-.971a7.13,7.13,0,0,1-.073-.848A5.159,5.159,0,0,1,54.883-.354a4.121,4.121,0,0,1-2.139.59,3.972,3.972,0,0,1-2.892-.971,3.573,3.573,0,0,1-.994-2.678,3.138,3.138,0,0,1,1.409-2.723,6.582,6.582,0,0,1,3.824-.983h2.4v-1.2a2.229,2.229,0,0,0-.651-1.69A2.558,2.558,0,0,0,54-10.635a2.672,2.672,0,0,0-1.741.539A1.617,1.617,0,0,0,51.6-8.8l-2.1.022-.022-.067a2.909,2.909,0,0,1,1.241-2.426,5.143,5.143,0,0,1,3.408-1.1,5.017,5.017,0,0,1,3.324,1.05A3.72,3.72,0,0,1,58.707-8.3v5.851a11.389,11.389,0,0,0,.067,1.258A6.468,6.468,0,0,0,59.022,0ZM53.07-1.617a3.938,3.938,0,0,0,2.167-.618A2.936,2.936,0,0,0,56.495-3.65V-5.626H54.013a3.22,3.22,0,0,0-2.139.674,2.015,2.015,0,0,0-.8,1.583,1.666,1.666,0,0,0,.505,1.28A2.116,2.116,0,0,0,53.07-1.617ZM65-15.083v2.931h2.3v1.64H65v7.378a1.652,1.652,0,0,0,.354,1.2,1.279,1.279,0,0,0,.938.348,2.055,2.055,0,0,0,.427-.051,3.165,3.165,0,0,0,.393-.107l.3,1.516a1.955,1.955,0,0,1-.73.331,3.683,3.683,0,0,1-.955.129,2.865,2.865,0,0,1-2.145-.814,3.536,3.536,0,0,1-.8-2.555v-7.378H60.852v-1.64h1.932v-2.931ZM74.7.236a5.141,5.141,0,0,1-4.082-1.673,6.44,6.44,0,0,1-1.466-4.4v-.494a6.3,6.3,0,0,1,1.51-4.329,4.737,4.737,0,0,1,3.689-1.713,4.409,4.409,0,0,1,3.656,1.516,6.246,6.246,0,0,1,1.219,4.032V-5.66H71.454L71.42-5.6a5.023,5.023,0,0,0,.809,2.97A2.825,2.825,0,0,0,74.7-1.494a5.566,5.566,0,0,0,1.971-.32A4.4,4.4,0,0,0,78.125-2.7l.865,1.438A5.317,5.317,0,0,1,77.271-.2,6.845,6.845,0,0,1,74.7.236Zm-.348-10.871a2.4,2.4,0,0,0-1.915.893,4.224,4.224,0,0,0-.927,2.285l.022.056h5.48v-.18a3.538,3.538,0,0,0-.651-2.19A2.354,2.354,0,0,0,74.351-10.635ZM81.2-5.851a8.109,8.109,0,0,1,1.252-4.728,4.035,4.035,0,0,1,3.51-1.8,4.351,4.351,0,0,1,1.892.393,3.879,3.879,0,0,1,1.409,1.146V-17.52h2.212V0h-1.7l-.337-1.539A3.943,3.943,0,0,1,87.974-.213a4.4,4.4,0,0,1-2.033.449A4.17,4.17,0,0,1,82.46-1.376,6.7,6.7,0,0,1,81.2-5.615Zm2.212.236a5.158,5.158,0,0,0,.752,2.948A2.627,2.627,0,0,0,86.5-1.561a2.931,2.931,0,0,0,1.662-.449,3.355,3.355,0,0,0,1.1-1.258V-8.939a3.406,3.406,0,0,0-1.106-1.2,2.923,2.923,0,0,0-1.634-.444,2.529,2.529,0,0,0-2.353,1.314,6.782,6.782,0,0,0-.758,3.414ZM-86.722,27V16.488h-1.9v-1.64h1.9V13.31a4.17,4.17,0,0,1,1.016-3A3.74,3.74,0,0,1-82.87,9.245a4.88,4.88,0,0,1,.769.062q.387.062.859.174l-.27,1.685q-.2-.045-.489-.079a5.144,5.144,0,0,0-.6-.034,1.746,1.746,0,0,0-1.437.578,2.6,2.6,0,0,0-.472,1.679v1.539h2.2v1.64h-2.2V27Zm6.132-6.188a6.69,6.69,0,0,1,1.46-4.442,4.9,4.9,0,0,1,3.964-1.746,4.944,4.944,0,0,1,3.992,1.741,6.668,6.668,0,0,1,1.466,4.447v.247a6.657,6.657,0,0,1-1.46,4.447,4.929,4.929,0,0,1-3.976,1.729A4.939,4.939,0,0,1-79.124,25.5a6.646,6.646,0,0,1-1.466-4.442Zm2.212.247a5.763,5.763,0,0,0,.814,3.189,2.7,2.7,0,0,0,2.42,1.258,2.688,2.688,0,0,0,2.4-1.258,5.733,5.733,0,0,0,.82-3.189v-.247a5.716,5.716,0,0,0-.825-3.178,2.705,2.705,0,0,0-2.42-1.269,2.668,2.668,0,0,0-2.4,1.269,5.776,5.776,0,0,0-.814,3.178ZM-61.251,16.8l-1.134-.067a2.534,2.534,0,0,0-1.477.416,2.666,2.666,0,0,0-.927,1.168V27H-67V14.849h1.977l.213,1.774a4.218,4.218,0,0,1,1.275-1.471,2.981,2.981,0,0,1,1.746-.528,2.734,2.734,0,0,1,.472.039,3.126,3.126,0,0,1,.371.084Zm13.611-6.39a9.6,9.6,0,0,1,1.909.191,6.9,6.9,0,0,1,1.561.483l-.472,1.7a8.263,8.263,0,0,0-1.348-.455,6.96,6.96,0,0,0-1.651-.174,2.961,2.961,0,0,0-2.5,1.314,5.488,5.488,0,0,0-.96,3.324v1.269a5,5,0,0,1,1.623-1.078,5.161,5.161,0,0,1,2.016-.393A4.2,4.2,0,0,1-44.119,18a5.464,5.464,0,0,1,1.23,3.717,5.707,5.707,0,0,1-1.376,4.015,4.791,4.791,0,0,1-3.712,1.5,4.867,4.867,0,0,1-3.8-1.724A6.853,6.853,0,0,1-53.3,20.8V17.039a6.97,6.97,0,0,1,1.634-4.75A5.134,5.134,0,0,1-47.64,10.413Zm-.528,7.828a3.446,3.446,0,0,0-1.791.444,2.968,2.968,0,0,0-1.14,1.2v1.134a5.363,5.363,0,0,0,.9,3.285,2.691,2.691,0,0,0,2.218,1.207,2.455,2.455,0,0,0,2.128-1.05,4.615,4.615,0,0,0,.747-2.735,3.786,3.786,0,0,0-.8-2.538A2.809,2.809,0,0,0-48.167,18.24ZM-31.861,21.5H-29.6v1.729h-2.257V27h-2.2V23.227h-7.019V21.98L-34.2,10.648h2.336Zm-6.851,0h4.649v-7.67l-.067-.011-.213.562ZM-25.4,26.461-27.088,29.9H-28.4l.786-3.549V24.518H-25.4Zm2.965-6.727.943-9.085h8.187v1.965h-6.323l-.528,4.706a5.047,5.047,0,0,1,1.168-.646,4.108,4.108,0,0,1,1.46-.264,4.452,4.452,0,0,1,3.554,1.421,5.738,5.738,0,0,1,1.286,3.959,5.752,5.752,0,0,1-1.32,3.953,4.861,4.861,0,0,1-3.846,1.494A5.27,5.27,0,0,1-21.315,26.1a3.926,3.926,0,0,1-1.325-3.335l.022-.067h2a2.731,2.731,0,0,0,.769,2.072,2.765,2.765,0,0,0,1.993.736,2.61,2.61,0,0,0,2.179-.988,4.278,4.278,0,0,0,.775-2.707,3.9,3.9,0,0,0-.781-2.527,2.638,2.638,0,0,0-2.173-.966,3.473,3.473,0,0,0-1.887.393,2.3,2.3,0,0,0-.865,1.213ZM-3.481,27H-5.705V12.692l-3.56.034V11.019l5.784-.606Zm6.94-7.266L4.4,10.648h8.187v1.965H6.267l-.528,4.706a5.047,5.047,0,0,1,1.168-.646,4.108,4.108,0,0,1,1.46-.264,4.452,4.452,0,0,1,3.554,1.421,5.738,5.738,0,0,1,1.286,3.959,5.752,5.752,0,0,1-1.32,3.953,4.861,4.861,0,0,1-3.846,1.494A5.27,5.27,0,0,1,4.582,26.1a3.926,3.926,0,0,1-1.325-3.335l.022-.067h2a2.731,2.731,0,0,0,.769,2.072,2.765,2.765,0,0,0,1.993.736,2.61,2.61,0,0,0,2.179-.988,4.278,4.278,0,0,0,.775-2.707,3.9,3.9,0,0,0-.781-2.527,2.638,2.638,0,0,0-2.173-.966,3.473,3.473,0,0,0-1.887.393,2.3,2.3,0,0,0-.865,1.213Zm28.66,1.651a6.7,6.7,0,0,1-1.258,4.24,4.158,4.158,0,0,1-3.47,1.612,4.821,4.821,0,0,1-1.971-.376,3.769,3.769,0,0,1-1.443-1.129v5.941H21.765V14.849h1.7l.348,1.572a4.013,4.013,0,0,1,1.482-1.336,4.425,4.425,0,0,1,2.066-.46,4.038,4.038,0,0,1,3.51,1.791,8.1,8.1,0,0,1,1.252,4.734Zm-2.212-.236a6.421,6.421,0,0,0-.814-3.4,2.639,2.639,0,0,0-2.4-1.331,2.952,2.952,0,0,0-1.628.432,3.234,3.234,0,0,0-1.089,1.185v5.874a3.142,3.142,0,0,0,1.089,1.174,3.056,3.056,0,0,0,1.651.421A2.723,2.723,0,0,0,29.1,24.355a5.054,5.054,0,0,0,.809-2.97Zm9.961,6.087a5.141,5.141,0,0,1-4.082-1.673,6.44,6.44,0,0,1-1.466-4.4v-.494a6.3,6.3,0,0,1,1.51-4.329,4.737,4.737,0,0,1,3.689-1.713,4.409,4.409,0,0,1,3.656,1.516,6.246,6.246,0,0,1,1.219,4.032V21.34H36.623l-.034.056a5.023,5.023,0,0,0,.809,2.97,2.825,2.825,0,0,0,2.471,1.14,5.566,5.566,0,0,0,1.971-.32,4.4,4.4,0,0,0,1.454-.882l.865,1.438A5.318,5.318,0,0,1,42.44,26.8,6.845,6.845,0,0,1,39.868,27.236ZM39.52,16.365a2.4,2.4,0,0,0-1.915.893,4.224,4.224,0,0,0-.927,2.285l.022.056h5.48v-.18a3.538,3.538,0,0,0-.651-2.19A2.354,2.354,0,0,0,39.52,16.365Zm6.839,4.447a6.69,6.69,0,0,1,1.46-4.442,5.411,5.411,0,0,1,7.957-.006,6.668,6.668,0,0,1,1.466,4.447v.247a6.657,6.657,0,0,1-1.46,4.447,5.435,5.435,0,0,1-7.957-.006,6.646,6.646,0,0,1-1.466-4.442Zm2.212.247a5.764,5.764,0,0,0,.814,3.189,2.941,2.941,0,0,0,4.823,0,5.733,5.733,0,0,0,.82-3.189v-.247a5.716,5.716,0,0,0-.825-3.178,2.705,2.705,0,0,0-2.42-1.269,2.668,2.668,0,0,0-2.4,1.269,5.776,5.776,0,0,0-.814,3.178Zm21.731.326a6.7,6.7,0,0,1-1.258,4.24,4.158,4.158,0,0,1-3.47,1.612A4.821,4.821,0,0,1,63.6,26.86a3.769,3.769,0,0,1-1.443-1.129v5.941H59.948V14.849h1.7l.348,1.572a4.013,4.013,0,0,1,1.482-1.336,4.425,4.425,0,0,1,2.066-.46,4.038,4.038,0,0,1,3.51,1.791A8.1,8.1,0,0,1,70.3,21.149Zm-2.212-.236a6.421,6.421,0,0,0-.814-3.4,2.639,2.639,0,0,0-2.4-1.331,2.952,2.952,0,0,0-1.628.432,3.234,3.234,0,0,0-1.089,1.185v5.874a3.142,3.142,0,0,0,1.089,1.174,3.056,3.056,0,0,0,1.651.421,2.723,2.723,0,0,0,2.381-1.151,5.054,5.054,0,0,0,.809-2.97ZM75.413,27H73.2V9.48h2.212Zm8.434.236a5.141,5.141,0,0,1-4.082-1.673,6.44,6.44,0,0,1-1.466-4.4v-.494a6.3,6.3,0,0,1,1.51-4.329A4.737,4.737,0,0,1,83.5,14.624a4.409,4.409,0,0,1,3.656,1.516,6.246,6.246,0,0,1,1.219,4.032V21.34H80.6l-.034.056a5.023,5.023,0,0,0,.809,2.97,2.825,2.825,0,0,0,2.471,1.14,5.566,5.566,0,0,0,1.971-.32,4.4,4.4,0,0,0,1.454-.882l.865,1.438A5.317,5.317,0,0,1,86.418,26.8,6.845,6.845,0,0,1,83.847,27.236ZM83.5,16.365a2.4,2.4,0,0,0-1.915.893,4.224,4.224,0,0,0-.927,2.285l.022.056h5.48v-.18a3.538,3.538,0,0,0-.651-2.19A2.354,2.354,0,0,0,83.5,16.365ZM-48.274,54.236a5.141,5.141,0,0,1-4.082-1.673,6.44,6.44,0,0,1-1.466-4.4v-.494a6.3,6.3,0,0,1,1.51-4.329,4.737,4.737,0,0,1,3.689-1.713,4.409,4.409,0,0,1,3.656,1.516,6.246,6.246,0,0,1,1.219,4.032V48.34H-51.52l-.034.056a5.023,5.023,0,0,0,.809,2.97,2.825,2.825,0,0,0,2.471,1.14,5.566,5.566,0,0,0,1.971-.32,4.4,4.4,0,0,0,1.454-.882l.865,1.438A5.318,5.318,0,0,1-45.7,53.8,6.845,6.845,0,0,1-48.274,54.236Zm-.348-10.871a2.4,2.4,0,0,0-1.915.893,4.224,4.224,0,0,0-.927,2.285l.022.056h5.48v-.18a3.538,3.538,0,0,0-.651-2.19A2.354,2.354,0,0,0-48.622,43.365Zm11.264,7.053.191.854h.067l.213-.854,2.8-8.569h2.257L-36.3,54h-1.673L-42.5,41.849h2.269Zm12.4,3.818a5.141,5.141,0,0,1-4.082-1.673,6.44,6.44,0,0,1-1.466-4.4v-.494A6.3,6.3,0,0,1-29,43.337a4.737,4.737,0,0,1,3.689-1.713,4.409,4.409,0,0,1,3.656,1.516,6.246,6.246,0,0,1,1.219,4.032V48.34h-7.771l-.034.056a5.023,5.023,0,0,0,.809,2.97,2.825,2.825,0,0,0,2.471,1.14,5.566,5.566,0,0,0,1.971-.32,4.4,4.4,0,0,0,1.454-.882l.865,1.438A5.318,5.318,0,0,1-22.388,53.8,6.845,6.845,0,0,1-24.96,54.236Zm-.348-10.871a2.4,2.4,0,0,0-1.915.893,4.224,4.224,0,0,0-.927,2.285l.022.056h5.48v-.18a3.538,3.538,0,0,0-.651-2.19A2.354,2.354,0,0,0-25.308,43.365ZM-12.2,43.8l-1.134-.067a2.533,2.533,0,0,0-1.477.416,2.666,2.666,0,0,0-.927,1.168V54h-2.212V41.849h1.977l.213,1.774a4.218,4.218,0,0,1,1.275-1.471,2.981,2.981,0,0,1,1.746-.528,2.734,2.734,0,0,1,.472.039,3.125,3.125,0,0,1,.371.084ZM-5.98,49.5l.393,1.527h.067l2.987-9.175H-.073l-5.11,14.016A6.3,6.3,0,0,1-6.5,58a3.038,3.038,0,0,1-2.319.91,4.834,4.834,0,0,1-.685-.062q-.416-.062-.64-.118l.225-1.741a2.964,2.964,0,0,1,.4.022q.466.034.59.034a1.366,1.366,0,0,0,1.157-.629,6.53,6.53,0,0,0,.752-1.393l.528-1.269-4.515-11.9h2.471Zm17.284,0,.393,1.527h.067l2.987-9.175h2.459L12.1,55.864A6.3,6.3,0,0,1,10.781,58a3.038,3.038,0,0,1-2.319.91,4.834,4.834,0,0,1-.685-.062q-.416-.062-.64-.118l.225-1.741a2.964,2.964,0,0,1,.4.022q.466.034.59.034a1.366,1.366,0,0,0,1.157-.629,6.53,6.53,0,0,0,.752-1.393l.528-1.269-4.515-11.9H8.743Zm12.735,4.739a5.141,5.141,0,0,1-4.082-1.673,6.44,6.44,0,0,1-1.466-4.4v-.494A6.3,6.3,0,0,1,20,43.337a4.737,4.737,0,0,1,3.689-1.713,4.409,4.409,0,0,1,3.656,1.516,6.246,6.246,0,0,1,1.219,4.032V48.34H20.793l-.034.056a5.023,5.023,0,0,0,.809,2.97,2.825,2.825,0,0,0,2.471,1.14,5.566,5.566,0,0,0,1.971-.32,4.4,4.4,0,0,0,1.454-.882l.865,1.438A5.318,5.318,0,0,1,26.611,53.8,6.845,6.845,0,0,1,24.039,54.236Zm-.348-10.871a2.4,2.4,0,0,0-1.915.893,4.224,4.224,0,0,0-.927,2.285l.022.056h5.48v-.18a3.538,3.538,0,0,0-.651-2.19A2.354,2.354,0,0,0,23.691,43.365ZM38.515,54q-.112-.55-.174-.971a7.13,7.13,0,0,1-.073-.848,5.159,5.159,0,0,1-1.612,1.466,4.121,4.121,0,0,1-2.139.59,3.972,3.972,0,0,1-2.892-.971,3.573,3.573,0,0,1-.994-2.678,3.138,3.138,0,0,1,1.409-2.723,6.582,6.582,0,0,1,3.824-.983h2.4v-1.2a2.229,2.229,0,0,0-.651-1.69,2.558,2.558,0,0,0-1.842-.623,2.672,2.672,0,0,0-1.741.539,1.617,1.617,0,0,0-.663,1.292l-2.1.022-.022-.067a2.909,2.909,0,0,1,1.241-2.426,5.143,5.143,0,0,1,3.408-1.1,5.018,5.018,0,0,1,3.324,1.05A3.72,3.72,0,0,1,40.48,45.7v5.851a11.389,11.389,0,0,0,.067,1.258A6.468,6.468,0,0,0,40.795,54Zm-3.672-1.617a3.938,3.938,0,0,0,2.167-.618,2.936,2.936,0,0,0,1.258-1.415V48.374H35.786a3.22,3.22,0,0,0-2.139.674,2.015,2.015,0,0,0-.8,1.583,1.666,1.666,0,0,0,.505,1.28A2.116,2.116,0,0,0,34.843,52.383Zm14.6-8.58-1.134-.067a2.533,2.533,0,0,0-1.477.416,2.666,2.666,0,0,0-.927,1.168V54H43.692V41.849h1.977l.213,1.774a4.218,4.218,0,0,1,1.275-1.471,2.981,2.981,0,0,1,1.746-.528,2.734,2.734,0,0,1,.472.039,3.126,3.126,0,0,1,.371.084ZM52.778,54H50.565V51.731h2.212Z" transform="translate(205 278)" fill="#a2a2a2"/>
    <g transform="matrix(1, 0, 0, 1, 0, 0)" filter="url(#Trazado_7232)">
      <path id="Trazado_7232-2" data-name="Trazado 7232" d="M75.084,0a75.084,75.084,0,0,1,75.084,75.084v.139A75.084,75.084,0,0,1,0,75.223v-.139A75.084,75.084,0,0,1,75.084,0Z" transform="translate(126 64.66)" fill="#44d62c"/>
    </g>
    <path id="Trazado_6151" data-name="Trazado 6151" d="M1676.461,4633.8h0a80.963,80.963,0,0,0-14.169-18.241c-3.552-3.4-10.333-9.111-15.846-9.111a7.337,7.337,0,0,0-1.809.218,9.425,9.425,0,0,0-5.514,3.832.8.8,0,0,1-.148-.234v-29.168a2.561,2.561,0,0,0-2.566-2.556h-7.835a2.559,2.559,0,0,0-2.556,2.556v29.185a.621.621,0,0,1-.136.237,9.43,9.43,0,0,0-5.525-3.85,7.333,7.333,0,0,0-1.812-.218c-5.512,0-12.294,5.709-15.845,9.111a81.007,81.007,0,0,0-14.169,18.24c-6.064,11.01-8.535,21.951-7.341,32.521a9.959,9.959,0,0,0,4.518,6.936,15.618,15.618,0,0,0,8.854,2.688c3.249,0,9.373-1,14.645-7.57.867.066,1.711.1,2.52.1,5.386,0,9.556-1.479,12.4-4.4,4.118-4.23,4.085-10.795,4.074-12.953v-.262c0-.905,0-7.341.006-13.576,0-5.681.005-11.193.005-12.208.3-1.032,3.072-4.146,4.3-4.889,1.224.71,4.073,3.768,4.276,4.839,0,1.431,0,12.39.008,19.664,0,3.171,0,5.608,0,6.17v.278c-.012,2.381-.043,8.709,4.074,12.937,2.84,2.917,7.011,4.4,12.4,4.4.808,0,1.652-.034,2.519-.1,5.272,6.565,11.4,7.57,14.645,7.57a15.616,15.616,0,0,0,8.853-2.687,9.96,9.96,0,0,0,4.519-6.936C1685,4655.747,1682.526,4644.805,1676.461,4633.8Zm-51.561,17.342c.037,7.374-2.354,9.83-3.14,10.637-2.2,2.255-5.572,3.4-10.036,3.4-.979,0-2.024-.056-3.1-.165l-.929-.095-.558.748c-4.533,6.075-9.823,6.981-12.573,6.981-5.063,0-9.687-3.066-10.1-6.7-1.115-9.878,1.224-20.16,6.953-30.56a77.474,77.474,0,0,1,13.563-17.451c5.436-5.208,10.38-8.2,13.565-8.2a4.039,4.039,0,0,1,1,.116,6.357,6.357,0,0,1,4.225,3.553c.529,4.367,1.082,10.936,1.141,11.65,0,.969,0,6.509-.005,12.221,0,6.236-.006,12.672-.006,13.578Zm11.788-31.717c-2.614-2.62-3.8-2.62-4.192-2.62-.428,0-1.729,0-4.68,3.226l-.04.044c-.186-1.989-.413-4.29-.642-6.276a4.519,4.519,0,0,0,2.179-3.507v-28.457h6.367v28.457a4.623,4.623,0,0,0,2.186,3.488c-.227,1.96-.451,4.23-.636,6.205C1637.039,4619.777,1636.856,4619.588,1636.689,4619.42Zm43.84,46.526c-.41,3.63-5.035,6.7-10.1,6.7-2.75,0-8.04-.906-12.573-6.981l-.558-.748-.928.095c-1.08.109-2.124.165-3.106.165-4.462,0-7.839-1.144-10.035-3.4-3.176-3.262-3.149-8.609-3.14-10.622v-.294c0-.562,0-3,0-6.172,0-7.147-.011-17.853-.008-19.57.021-.252.6-7.182,1.148-11.72a6.354,6.354,0,0,1,4.22-3.541,4.048,4.048,0,0,1,1-.116c3.185,0,8.13,2.987,13.566,8.2a77.453,77.453,0,0,1,13.563,17.451h0C1679.3,4645.787,1681.644,4656.069,1680.529,4665.947Z" transform="translate(-1430.898 -4494.764)" fill="#fff"/>
  </g>
</svg>
