<svg xmlns="http://www.w3.org/2000/svg" xmlns:xlink="http://www.w3.org/1999/xlink" width="403" height="501" viewBox="0 0 403 501">
  <defs>
    <filter id="Trazado_7233" x="0" y="0" width="402.257" height="500.34" filterUnits="userSpaceOnUse">
      <feOffset dy="20" input="SourceAlpha"/>
      <feGaussianBlur stdDeviation="23" result="blur"/>
      <feFlood flood-color="#010101" flood-opacity="0.129"/>
      <feComposite operator="in" in2="blur"/>
      <feComposite in="SourceGraphic"/>
    </filter>
    <filter id="Trazado_7235" x="81" y="28.66" width="240.168" height="240.306" filterUnits="userSpaceOnUse">
      <feOffset dy="9" input="SourceAlpha"/>
      <feGaussianBlur stdDeviation="15" result="blur-2"/>
      <feFlood flood-color="#010101" flood-opacity="0.122"/>
      <feComposite operator="in" in2="blur-2"/>
      <feComposite in="SourceGraphic"/>
    </filter>
    <clipPath id="clip-Water-path">
      <rect width="403" height="501"/>
    </clipPath>
  </defs>
  <g id="Water-path" clip-path="url(#clip-Water-path)">
    <g transform="matrix(1, 0, 0, 1, 0, 0)" filter="url(#Trazado_7233)">
      <g id="Trazado_7233-2" data-name="Trazado 7233" transform="translate(69 49)" fill="#fff" opacity="0.7">
        <path d="M 225.2564697265625 361.8403625488281 L 39.00000762939453 361.8403625488281 C 33.80232620239258 361.8403625488281 28.76037216186523 360.8224792480469 24.01423454284668 358.8150329589844 C 19.42973518371582 356.8759460449219 15.3123254776001 354.0998840332031 11.77641677856445 350.5639343261719 C 8.240462303161621 347.0280151367188 5.46441650390625 342.9106140136719 3.525325775146484 338.3261108398438 C 1.517871260643005 333.5799865722656 0.5000075697898865 328.5380249023438 0.5000075697898865 323.3403625488281 L 0.5000075697898865 38.99998474121094 C 0.5000075697898865 33.80230331420898 1.517871260643005 28.76034736633301 3.525325775146484 24.01421165466309 C 5.46441650390625 19.42971229553223 8.240462303161621 15.3123025894165 11.77641677856445 11.77639293670654 C 15.3123254776001 8.240438461303711 19.42973518371582 5.464393138885498 24.01423454284668 3.525302410125732 C 28.76037216186523 1.517847776412964 33.80232620239258 0.4999842047691345 39.00000762939453 0.4999842047691345 L 225.2564697265625 0.4999842047691345 C 230.4541473388672 0.4999842047691345 235.49609375 1.517847776412964 240.2422790527344 3.525302410125732 C 244.8267364501953 5.464393138885498 248.9441375732422 8.240438461303711 252.4801025390625 11.77639293670654 C 256.0160217285156 15.3123025894165 258.7920532226563 19.42971229553223 260.7311401367188 24.01421165466309 C 262.7385864257813 28.76034736633301 263.7564697265625 33.80230331420898 263.7564697265625 38.99998474121094 L 263.7564697265625 323.3403625488281 C 263.7564697265625 328.5380249023438 262.7385864257813 333.5799865722656 260.7311401367188 338.3261108398438 C 258.7920532226563 342.9106140136719 256.0160217285156 347.0280151367188 252.4801025390625 350.5639343261719 C 248.9441375732422 354.0998840332031 244.8267364501953 356.8759460449219 240.2422790527344 358.8150329589844 C 235.49609375 360.8224792480469 230.4541473388672 361.8403625488281 225.2564697265625 361.8403625488281 Z" stroke="none"/>
        <path d="M 39 0.999969482421875 C 33.86959838867188 0.999969482421875 28.8931884765625 2.00457763671875 24.20901489257813 3.985809326171875 C 19.68409729003906 5.899658203125 15.62010192871094 8.6397705078125 12.12991333007813 12.12994384765625 C 8.639785766601563 15.6201171875 5.899688720703125 19.68408203125 3.98583984375 24.208984375 C 2.004608154296875 28.89315795898438 1 33.86956787109375 1 38.99996948242188 L 1 323.34033203125 C 1 328.4707641601563 2.004608154296875 333.4471740722656 3.98583984375 338.13134765625 C 5.899688720703125 342.65625 8.639785766601563 346.72021484375 12.12991333007813 350.2103881835938 C 15.62010192871094 353.7005615234375 19.68409729003906 356.440673828125 24.20901489257813 358.3545227050781 C 28.8931884765625 360.3357543945313 33.86959838867188 361.3403625488281 39 361.3403625488281 L 225.2564697265625 361.3403625488281 C 230.3868713378906 361.3403625488281 235.36328125 360.3357543945313 240.0474548339844 358.3545227050781 C 244.5723724365234 356.440673828125 248.6363220214844 353.7005615234375 252.1265106201172 350.2103881835938 C 255.6166839599609 346.72021484375 258.3567810058594 342.65625 260.2706298828125 338.13134765625 C 262.2518615722656 333.4471740722656 263.2564697265625 328.4707641601563 263.2564697265625 323.34033203125 L 263.2564697265625 38.99996948242188 C 263.2564697265625 33.86956787109375 262.2518615722656 28.89315795898438 260.2706298828125 24.208984375 C 258.3567810058594 19.68408203125 255.6166839599609 15.6201171875 252.1265106201172 12.12994384765625 C 248.6363220214844 8.6397705078125 244.5723724365234 5.899658203125 240.0474548339844 3.985809326171875 C 235.36328125 2.00457763671875 230.3868713378906 0.999969482421875 225.2564697265625 0.999969482421875 L 39 0.999969482421875 M 39 -3.0517578125e-05 L 225.2564697265625 -3.0517578125e-05 C 246.7955474853516 -3.0517578125e-05 264.2564697265625 17.46090698242188 264.2564697265625 38.99996948242188 L 264.2564697265625 323.34033203125 C 264.2564697265625 344.8794250488281 246.7955474853516 362.3403625488281 225.2564697265625 362.3403625488281 L 39 362.3403625488281 C 17.46087646484375 362.3403625488281 0 344.8794250488281 0 323.34033203125 L 0 38.99996948242188 C 0 17.46090698242188 17.46087646484375 -3.0517578125e-05 39 -3.0517578125e-05 Z" stroke="none" fill="#00ff4e"/>
      </g>
    </g>
    <path id="Trazado_7234" data-name="Trazado 7234" d="M-87.508-4.211h-6.154L-95.122,0H-97.38l5.9-16.352h1.9L-83.813,0h-2.257Zm-5.514-1.853h4.885l-2.381-7.019h-.067Zm21.341.449a6.677,6.677,0,0,1-1.263,4.24A4.174,4.174,0,0,1-76.42.236a4.4,4.4,0,0,1-2.106-.477A3.909,3.909,0,0,1-80-1.651L-80.362,0h-1.7V-17.52h2.212v6.806a3.839,3.839,0,0,1,1.421-1.235,4.356,4.356,0,0,1,1.982-.427,4.038,4.038,0,0,1,3.5,1.8,8.082,8.082,0,0,1,1.258,4.728Zm-2.212-.236a6.708,6.708,0,0,0-.769-3.408A2.532,2.532,0,0,0-77-10.579a2.9,2.9,0,0,0-1.724.5,3.525,3.525,0,0,0-1.117,1.342V-3.47a3.618,3.618,0,0,0,1.117,1.4,2.88,2.88,0,0,0,1.746.505,2.629,2.629,0,0,0,2.325-1.112,5.106,5.106,0,0,0,.764-2.942Zm11.627,2.583a1.474,1.474,0,0,0-.556-1.19,5.365,5.365,0,0,0-2.106-.809,8.835,8.835,0,0,1-3.3-1.292,2.608,2.608,0,0,1-1.151-2.224,3.2,3.2,0,0,1,1.263-2.538,4.934,4.934,0,0,1,3.274-1.056,4.89,4.89,0,0,1,3.347,1.123,3.218,3.218,0,0,1,1.224,2.617l-.022.067H-62.4A1.913,1.913,0,0,0-63.092-10a2.469,2.469,0,0,0-1.746-.64,2.518,2.518,0,0,0-1.746.528,1.647,1.647,0,0,0-.578,1.258,1.333,1.333,0,0,0,.5,1.112,5.532,5.532,0,0,0,2.061.719,8.708,8.708,0,0,1,3.392,1.336,2.691,2.691,0,0,1,1.157,2.257A3.2,3.2,0,0,1-61.363-.786,5.4,5.4,0,0,1-64.783.236,5.34,5.34,0,0,1-68.444-.943a3.365,3.365,0,0,1-1.269-2.751l.022-.067h2.111A2.046,2.046,0,0,0-66.7-2.038a3.389,3.389,0,0,0,1.92.545,3.025,3.025,0,0,0,1.847-.5A1.528,1.528,0,0,0-62.267-3.268Zm4.1-2.92A6.69,6.69,0,0,1-56.7-10.63a4.9,4.9,0,0,1,3.964-1.746,4.944,4.944,0,0,1,3.992,1.741,6.668,6.668,0,0,1,1.466,4.447v.247a6.657,6.657,0,0,1-1.46,4.447A4.929,4.929,0,0,1-52.718.236,4.939,4.939,0,0,1-56.7-1.5a6.646,6.646,0,0,1-1.466-4.442Zm2.212.247a5.764,5.764,0,0,0,.814,3.189,2.7,2.7,0,0,0,2.42,1.258,2.688,2.688,0,0,0,2.4-1.258,5.733,5.733,0,0,0,.82-3.189v-.247a5.716,5.716,0,0,0-.825-3.178,2.705,2.705,0,0,0-2.42-1.269,2.668,2.668,0,0,0-2.4,1.269,5.776,5.776,0,0,0-.814,3.178ZM-39.171-10.2l-1.134-.067a2.533,2.533,0,0,0-1.477.416,2.666,2.666,0,0,0-.927,1.168V0h-2.212V-12.151h1.977l.213,1.774a4.218,4.218,0,0,1,1.275-1.471,2.981,2.981,0,0,1,1.746-.528,2.734,2.734,0,0,1,.472.039,3.126,3.126,0,0,1,.371.084Zm12.312,4.582a6.7,6.7,0,0,1-1.258,4.24A4.158,4.158,0,0,1-31.587.236,4.821,4.821,0,0,1-33.558-.14,3.769,3.769,0,0,1-35-1.269V4.672h-2.212V-12.151h1.7l.348,1.572a4.013,4.013,0,0,1,1.482-1.336,4.425,4.425,0,0,1,2.066-.46,4.038,4.038,0,0,1,3.51,1.791,8.1,8.1,0,0,1,1.252,4.734Zm-2.212-.236a6.421,6.421,0,0,0-.814-3.4,2.639,2.639,0,0,0-2.4-1.331,2.952,2.952,0,0,0-1.628.432A3.234,3.234,0,0,0-35-8.962v5.874a3.142,3.142,0,0,0,1.089,1.174,3.056,3.056,0,0,0,1.651.421A2.723,2.723,0,0,0-29.88-2.645a5.054,5.054,0,0,0,.809-2.97Zm7.662-9.231v2.931h2.3v1.64h-2.3v7.378a1.652,1.652,0,0,0,.354,1.2,1.279,1.279,0,0,0,.938.348,2.055,2.055,0,0,0,.427-.051,3.165,3.165,0,0,0,.393-.107l.3,1.516a1.955,1.955,0,0,1-.73.331,3.683,3.683,0,0,1-.955.129,2.865,2.865,0,0,1-2.145-.814,3.536,3.536,0,0,1-.8-2.555v-7.378h-1.932v-1.64h1.932v-2.931ZM-14.69,0H-16.9V-12.151h2.212Zm0-15.262H-16.9V-17.52h2.212Zm2.541,9.074a6.69,6.69,0,0,1,1.46-4.442,4.9,4.9,0,0,1,3.964-1.746,4.944,4.944,0,0,1,3.992,1.741A6.668,6.668,0,0,1-1.267-6.188v.247a6.657,6.657,0,0,1-1.46,4.447A4.929,4.929,0,0,1-6.7.236,4.939,4.939,0,0,1-10.683-1.5a6.646,6.646,0,0,1-1.466-4.442Zm2.212.247a5.764,5.764,0,0,0,.814,3.189A2.7,2.7,0,0,0-6.7-1.494,2.688,2.688,0,0,0-4.3-2.751a5.733,5.733,0,0,0,.82-3.189v-.247A5.716,5.716,0,0,0-4.3-9.366a2.705,2.705,0,0,0-2.42-1.269,2.668,2.668,0,0,0-2.4,1.269,5.776,5.776,0,0,0-.814,3.178Zm13.008-6.21.157,1.808a4.412,4.412,0,0,1,1.522-1.5,4.06,4.06,0,0,1,2.083-.533,3.966,3.966,0,0,1,3.043,1.151A5.053,5.053,0,0,1,10.955-7.67V0H8.743V-7.625a3.287,3.287,0,0,0-.635-2.28,2.542,2.542,0,0,0-1.937-.674,3.43,3.43,0,0,0-1.735.41A2.979,2.979,0,0,0,3.307-9.018V0H1.095V-12.151ZM18.677-6.188a6.69,6.69,0,0,1,1.46-4.442A4.9,4.9,0,0,1,24.1-12.376a4.944,4.944,0,0,1,3.992,1.741,6.668,6.668,0,0,1,1.466,4.447v.247A6.657,6.657,0,0,1,28.1-1.494,4.929,4.929,0,0,1,24.124.236,4.939,4.939,0,0,1,20.143-1.5a6.646,6.646,0,0,1-1.466-4.442Zm2.212.247A5.764,5.764,0,0,0,21.7-2.751a2.7,2.7,0,0,0,2.42,1.258,2.688,2.688,0,0,0,2.4-1.258,5.733,5.733,0,0,0,.82-3.189v-.247a5.716,5.716,0,0,0-.825-3.178,2.705,2.705,0,0,0-2.42-1.269,2.668,2.668,0,0,0-2.4,1.269,5.776,5.776,0,0,0-.814,3.178ZM32.842,0V-10.512h-1.9v-1.64h1.9V-13.69a4.17,4.17,0,0,1,1.016-3,3.74,3.74,0,0,1,2.836-1.061,4.88,4.88,0,0,1,.769.062q.387.062.859.174l-.27,1.685q-.2-.045-.489-.079a5.144,5.144,0,0,0-.6-.034,1.746,1.746,0,0,0-1.437.578,2.6,2.6,0,0,0-.472,1.679v1.539h2.2v1.64h-2.2V0Zm20.1-5.5H55.2v1.729H52.939V0h-2.2V-3.773H43.719V-5.02L50.6-16.352h2.336Zm-6.851,0h4.649v-7.67l-.067-.011-.213.562ZM59.052-.539,57.367,2.9H56.053l.786-3.549V-2.482h2.212ZM67.68,0H65.456V-14.308l-3.56.034v-1.707l5.784-.606Zm12.6,0H78.06V-14.308l-3.56.034v-1.707l5.784-.606Zm6.6-7.266.943-9.085h8.187v1.965H89.687l-.528,4.706a5.048,5.048,0,0,1,1.168-.646,4.108,4.108,0,0,1,1.46-.264A4.452,4.452,0,0,1,95.341-9.17a5.738,5.738,0,0,1,1.286,3.959,5.752,5.752,0,0,1-1.32,3.953A4.861,4.861,0,0,1,91.461.236,5.27,5.27,0,0,1,88-.9a3.926,3.926,0,0,1-1.325-3.335L86.7-4.3h2a2.731,2.731,0,0,0,.769,2.072,2.765,2.765,0,0,0,1.993.736,2.61,2.61,0,0,0,2.179-.988,4.278,4.278,0,0,0,.775-2.707,3.9,3.9,0,0,0-.781-2.527,2.638,2.638,0,0,0-2.173-.966,3.473,3.473,0,0,0-1.887.393,2.3,2.3,0,0,0-.865,1.213ZM-79.368,12.849l.157,1.595A4.127,4.127,0,0,1-77.7,13.1a4.539,4.539,0,0,1,2.128-.477,3.759,3.759,0,0,1,2.083.562,3.4,3.4,0,0,1,1.308,1.685,4.546,4.546,0,0,1,1.522-1.645,3.981,3.981,0,0,1,2.2-.6A3.638,3.638,0,0,1-65.532,13.9a5.823,5.823,0,0,1,1.078,3.835V25h-2.212V17.711a4.039,4.039,0,0,0-.618-2.544,2.252,2.252,0,0,0-1.842-.747,2.345,2.345,0,0,0-1.836.786,3.422,3.422,0,0,0-.825,1.988V25h-2.224V17.711a3.985,3.985,0,0,0-.635-2.5,2.2,2.2,0,0,0-1.825-.792,3.04,3.04,0,0,0-1.662.416,2.684,2.684,0,0,0-1,1.168v9h-2.212V12.849ZM-59.2,25h-2.212V12.849H-59.2Zm0-15.262h-2.212V7.48H-59.2ZM-53.745,25h-2.212V7.48h2.212Zm5.45,0h-2.212V7.48H-48.3Zm5.45,0h-2.212V12.849h2.212Zm0-15.262h-2.212V7.48h2.212Zm2.541,9.074a6.69,6.69,0,0,1,1.46-4.442,4.9,4.9,0,0,1,3.964-1.746,4.944,4.944,0,0,1,3.992,1.741,6.668,6.668,0,0,1,1.466,4.447v.247a6.657,6.657,0,0,1-1.46,4.447,4.929,4.929,0,0,1-3.976,1.729A4.939,4.939,0,0,1-38.839,23.5,6.646,6.646,0,0,1-40.3,19.059Zm2.212.247a5.764,5.764,0,0,0,.814,3.189,2.7,2.7,0,0,0,2.42,1.258,2.688,2.688,0,0,0,2.4-1.258,5.733,5.733,0,0,0,.82-3.189v-.247a5.716,5.716,0,0,0-.825-3.178,2.705,2.705,0,0,0-2.42-1.269,2.668,2.668,0,0,0-2.4,1.269,5.776,5.776,0,0,0-.814,3.178Zm13.008-6.21.157,1.808a4.412,4.412,0,0,1,1.522-1.5,4.06,4.06,0,0,1,2.083-.533,3.966,3.966,0,0,1,3.043,1.151A5.053,5.053,0,0,1-17.2,17.33V25h-2.212V17.375a3.287,3.287,0,0,0-.635-2.28,2.542,2.542,0,0,0-1.937-.674,3.43,3.43,0,0,0-1.735.41,2.979,2.979,0,0,0-1.129,1.151V25H-27.06V12.849Zm17.815,8.883a1.474,1.474,0,0,0-.556-1.19,5.365,5.365,0,0,0-2.106-.809,8.835,8.835,0,0,1-3.3-1.292,2.608,2.608,0,0,1-1.151-2.224,3.2,3.2,0,0,1,1.263-2.538,4.934,4.934,0,0,1,3.274-1.056,4.89,4.89,0,0,1,3.347,1.123A3.218,3.218,0,0,1-5.27,16.364l-.022.067H-7.4A1.913,1.913,0,0,0-8.095,15a2.469,2.469,0,0,0-1.746-.64,2.518,2.518,0,0,0-1.746.528,1.647,1.647,0,0,0-.578,1.258,1.333,1.333,0,0,0,.5,1.112,5.532,5.532,0,0,0,2.061.719,8.708,8.708,0,0,1,3.392,1.336,2.691,2.691,0,0,1,1.157,2.257,3.2,3.2,0,0,1-1.308,2.639,5.4,5.4,0,0,1-3.42,1.022,5.34,5.34,0,0,1-3.661-1.179,3.365,3.365,0,0,1-1.269-2.751l.022-.067h2.111a2.046,2.046,0,0,0,.876,1.724,3.389,3.389,0,0,0,1.92.545,3.025,3.025,0,0,0,1.847-.5A1.529,1.529,0,0,0-7.269,21.732ZM2.2,18.812a6.69,6.69,0,0,1,1.46-4.442,4.9,4.9,0,0,1,3.964-1.746,4.944,4.944,0,0,1,3.992,1.741,6.668,6.668,0,0,1,1.466,4.447v.247a6.657,6.657,0,0,1-1.46,4.447,4.929,4.929,0,0,1-3.976,1.729A4.939,4.939,0,0,1,3.67,23.5,6.646,6.646,0,0,1,2.2,19.059Zm2.212.247a5.764,5.764,0,0,0,.814,3.189,2.7,2.7,0,0,0,2.42,1.258,2.688,2.688,0,0,0,2.4-1.258,5.733,5.733,0,0,0,.82-3.189v-.247a5.716,5.716,0,0,0-.825-3.178,2.705,2.705,0,0,0-2.42-1.269,2.668,2.668,0,0,0-2.4,1.269,5.776,5.776,0,0,0-.814,3.178ZM16.369,25V14.488h-1.9v-1.64h1.9V11.31a4.17,4.17,0,0,1,1.016-3,3.74,3.74,0,0,1,2.836-1.061,4.88,4.88,0,0,1,.769.062q.387.062.859.174l-.27,1.685q-.2-.045-.489-.079a5.144,5.144,0,0,0-.6-.034,1.746,1.746,0,0,0-1.437.578,2.6,2.6,0,0,0-.472,1.679v1.539h2.2v1.64h-2.2V25Zm14.786-4.425.281,1.561H31.5l.292-1.561,2.426-7.727h1.774l2.437,7.727.314,1.741h.067l.359-1.741,1.8-7.727h2.313L39.757,25H37.972l-2.4-7.4-.46-1.932H35.04L34.614,17.6,32.255,25H30.47L26.943,12.849h2.3ZM52.574,25q-.112-.55-.174-.971a7.13,7.13,0,0,1-.073-.848,5.159,5.159,0,0,1-1.612,1.466,4.121,4.121,0,0,1-2.139.59,3.972,3.972,0,0,1-2.892-.971,3.573,3.573,0,0,1-.994-2.678A3.138,3.138,0,0,1,46.1,18.863a6.582,6.582,0,0,1,3.824-.983h2.4v-1.2a2.229,2.229,0,0,0-.651-1.69,2.558,2.558,0,0,0-1.842-.623,2.672,2.672,0,0,0-1.741.539,1.617,1.617,0,0,0-.663,1.292l-2.1.022-.022-.067a2.909,2.909,0,0,1,1.241-2.426,5.143,5.143,0,0,1,3.408-1.1,5.017,5.017,0,0,1,3.324,1.05A3.72,3.72,0,0,1,54.54,16.7v5.851a11.389,11.389,0,0,0,.067,1.258A6.468,6.468,0,0,0,54.854,25ZM48.9,23.383a3.938,3.938,0,0,0,2.167-.618,2.936,2.936,0,0,0,1.258-1.415V19.374H49.845a3.22,3.22,0,0,0-2.139.674,2.015,2.015,0,0,0-.8,1.583,1.666,1.666,0,0,0,.505,1.28A2.116,2.116,0,0,0,48.9,23.383ZM60.484,9.917v2.931h2.3v1.64h-2.3v7.378a1.652,1.652,0,0,0,.354,1.2,1.279,1.279,0,0,0,.938.348,2.055,2.055,0,0,0,.427-.051,3.165,3.165,0,0,0,.393-.107l.3,1.516a1.955,1.955,0,0,1-.73.331,3.683,3.683,0,0,1-.955.129,2.865,2.865,0,0,1-2.145-.814,3.536,3.536,0,0,1-.8-2.555V14.488H56.34v-1.64h1.932V9.917Zm9.358,15.318a5.141,5.141,0,0,1-4.082-1.673,6.44,6.44,0,0,1-1.466-4.4v-.494a6.3,6.3,0,0,1,1.51-4.329,4.737,4.737,0,0,1,3.689-1.713,4.409,4.409,0,0,1,3.656,1.516,6.246,6.246,0,0,1,1.219,4.032V19.34H66.6l-.034.056a5.023,5.023,0,0,0,.809,2.97,2.825,2.825,0,0,0,2.471,1.14,5.566,5.566,0,0,0,1.971-.32,4.4,4.4,0,0,0,1.454-.882l.865,1.438A5.317,5.317,0,0,1,72.414,24.8,6.845,6.845,0,0,1,69.842,25.236Zm-.348-10.871a2.4,2.4,0,0,0-1.915.893,4.224,4.224,0,0,0-.927,2.285l.022.056h5.48v-.18a3.538,3.538,0,0,0-.651-2.19A2.354,2.354,0,0,0,69.494,14.365Zm12.761.438-1.134-.067a2.533,2.533,0,0,0-1.477.416,2.666,2.666,0,0,0-.927,1.168V25H76.5V12.849h1.977l.213,1.774a4.218,4.218,0,0,1,1.275-1.471,2.981,2.981,0,0,1,1.746-.528,2.734,2.734,0,0,1,.472.039,3.126,3.126,0,0,1,.371.084ZM-59.845,50h-2.212V32.48h2.212Zm5.45,0h-2.212V37.849H-54.4Zm0-15.262h-2.212V32.48H-54.4Zm6.135.18v2.931h2.3v1.64h-2.3v7.378a1.652,1.652,0,0,0,.354,1.2,1.279,1.279,0,0,0,.938.348,2.055,2.055,0,0,0,.427-.051,3.165,3.165,0,0,0,.393-.107l.3,1.516a1.955,1.955,0,0,1-.73.331,3.683,3.683,0,0,1-.955.129,2.865,2.865,0,0,1-2.145-.814,3.536,3.536,0,0,1-.8-2.555V39.488H-52.4v-1.64h1.932V34.917ZM-38.9,50.236a5.141,5.141,0,0,1-4.082-1.673,6.44,6.44,0,0,1-1.466-4.4v-.494a6.3,6.3,0,0,1,1.51-4.329,4.737,4.737,0,0,1,3.689-1.713,4.409,4.409,0,0,1,3.656,1.516,6.246,6.246,0,0,1,1.219,4.032V44.34h-7.771l-.034.056a5.023,5.023,0,0,0,.809,2.97,2.825,2.825,0,0,0,2.471,1.14,5.566,5.566,0,0,0,1.971-.32,4.4,4.4,0,0,0,1.454-.882l.865,1.438A5.318,5.318,0,0,1-36.33,49.8,6.845,6.845,0,0,1-38.9,50.236Zm-.348-10.871a2.4,2.4,0,0,0-1.915.893,4.224,4.224,0,0,0-.927,2.285l.022.056h5.48v-.18a3.538,3.538,0,0,0-.651-2.19A2.354,2.354,0,0,0-39.25,39.365Zm12.761.438-1.134-.067a2.533,2.533,0,0,0-1.477.416,2.666,2.666,0,0,0-.927,1.168V50h-2.212V37.849h1.977l.213,1.774a4.218,4.218,0,0,1,1.275-1.471,2.981,2.981,0,0,1,1.746-.528,2.734,2.734,0,0,1,.472.039,3.125,3.125,0,0,1,.371.084Zm9.021,6.929a1.474,1.474,0,0,0-.556-1.19,5.365,5.365,0,0,0-2.106-.809,8.835,8.835,0,0,1-3.3-1.292,2.608,2.608,0,0,1-1.151-2.224,3.2,3.2,0,0,1,1.263-2.538,4.934,4.934,0,0,1,3.274-1.056,4.89,4.89,0,0,1,3.347,1.123,3.218,3.218,0,0,1,1.224,2.617l-.022.067H-17.6A1.913,1.913,0,0,0-18.294,40a2.469,2.469,0,0,0-1.746-.64,2.518,2.518,0,0,0-1.746.528,1.647,1.647,0,0,0-.578,1.258,1.333,1.333,0,0,0,.5,1.112,5.532,5.532,0,0,0,2.061.719,8.708,8.708,0,0,1,3.392,1.336,2.691,2.691,0,0,1,1.157,2.257,3.2,3.2,0,0,1-1.308,2.639,5.4,5.4,0,0,1-3.42,1.022,5.34,5.34,0,0,1-3.661-1.179,3.365,3.365,0,0,1-1.269-2.751l.022-.067h2.111a2.046,2.046,0,0,0,.876,1.724,3.389,3.389,0,0,0,1.92.545,3.025,3.025,0,0,0,1.847-.5A1.529,1.529,0,0,0-17.468,46.732ZM1.989,40.757H-7.377V38.916H1.989Zm0,4.672H-7.377V43.587H1.989ZM16.865,50H14.641V35.692l-3.56.034V34.019l5.784-.606Zm8.168-.539L23.348,52.9H22.034l.786-3.549V47.518h2.212Zm7.853-16.048a9.6,9.6,0,0,1,1.909.191,6.9,6.9,0,0,1,1.561.483l-.472,1.7a8.262,8.262,0,0,0-1.348-.455,6.96,6.96,0,0,0-1.651-.174,2.961,2.961,0,0,0-2.5,1.314,5.488,5.488,0,0,0-.96,3.324v1.269a5,5,0,0,1,1.623-1.078,5.161,5.161,0,0,1,2.016-.393A4.2,4.2,0,0,1,36.406,41a5.464,5.464,0,0,1,1.23,3.717,5.707,5.707,0,0,1-1.376,4.015,4.791,4.791,0,0,1-3.712,1.5,4.867,4.867,0,0,1-3.8-1.724A6.853,6.853,0,0,1,27.226,43.8V40.039a6.97,6.97,0,0,1,1.634-4.75A5.134,5.134,0,0,1,32.886,33.413Zm-.528,7.828a3.446,3.446,0,0,0-1.791.444,2.968,2.968,0,0,0-1.14,1.2v1.134a5.363,5.363,0,0,0,.9,3.285,2.691,2.691,0,0,0,2.218,1.207,2.455,2.455,0,0,0,2.128-1.05,4.615,4.615,0,0,0,.747-2.735,3.786,3.786,0,0,0-.8-2.538A2.809,2.809,0,0,0,32.358,41.24ZM48.32,44.5h2.257v1.729H48.32V50h-2.2V46.227H39.1V44.98l6.884-11.332H48.32Zm-6.851,0h4.649v-7.67l-.067-.011-.213.562ZM58.093,33.413A9.6,9.6,0,0,1,60,33.6a6.9,6.9,0,0,1,1.561.483l-.472,1.7a8.262,8.262,0,0,0-1.348-.455,6.96,6.96,0,0,0-1.651-.174,2.961,2.961,0,0,0-2.5,1.314,5.488,5.488,0,0,0-.96,3.324v1.269a5,5,0,0,1,1.623-1.078,5.161,5.161,0,0,1,2.016-.393A4.2,4.2,0,0,1,61.614,41a5.464,5.464,0,0,1,1.23,3.717,5.707,5.707,0,0,1-1.376,4.015,4.791,4.791,0,0,1-3.712,1.5,4.867,4.867,0,0,1-3.8-1.724A6.853,6.853,0,0,1,52.433,43.8V40.039a6.97,6.97,0,0,1,1.634-4.75A5.134,5.134,0,0,1,58.093,33.413Zm-.528,7.828a3.446,3.446,0,0,0-1.791.444,2.968,2.968,0,0,0-1.14,1.2v1.134a5.363,5.363,0,0,0,.9,3.285,2.691,2.691,0,0,0,2.218,1.207,2.455,2.455,0,0,0,2.128-1.05,4.615,4.615,0,0,0,.747-2.735,3.786,3.786,0,0,0-.8-2.538A2.809,2.809,0,0,0,57.565,41.24ZM-68.94,68.812a6.69,6.69,0,0,1,1.46-4.442,4.9,4.9,0,0,1,3.964-1.746,4.944,4.944,0,0,1,3.992,1.741,6.668,6.668,0,0,1,1.466,4.447v.247a6.657,6.657,0,0,1-1.46,4.447,4.929,4.929,0,0,1-3.976,1.729A4.939,4.939,0,0,1-67.475,73.5a6.646,6.646,0,0,1-1.466-4.442Zm2.212.247a5.763,5.763,0,0,0,.814,3.189,2.7,2.7,0,0,0,2.42,1.258,2.688,2.688,0,0,0,2.4-1.258,5.733,5.733,0,0,0,.82-3.189v-.247a5.716,5.716,0,0,0-.825-3.178,2.705,2.705,0,0,0-2.42-1.269,2.668,2.668,0,0,0-2.4,1.269,5.776,5.776,0,0,0-.814,3.178ZM-53.3,75h-2.212V57.48H-53.3Zm6.775-4.5.393,1.527h.067l2.987-9.175h2.459l-5.11,14.016A6.3,6.3,0,0,1-47.051,79a3.038,3.038,0,0,1-2.319.91,4.835,4.835,0,0,1-.685-.062q-.416-.062-.64-.118l.225-1.741a2.965,2.965,0,0,1,.4.022q.466.034.59.034a1.366,1.366,0,0,0,1.157-.629,6.53,6.53,0,0,0,.752-1.393l.528-1.269-4.515-11.9h2.471Zm9.482-7.648.157,1.595A4.127,4.127,0,0,1-35.38,63.1a4.539,4.539,0,0,1,2.128-.477,3.759,3.759,0,0,1,2.083.562A3.4,3.4,0,0,1-29.86,64.87a4.546,4.546,0,0,1,1.522-1.645,3.981,3.981,0,0,1,2.2-.6A3.638,3.638,0,0,1-23.212,63.9a5.823,5.823,0,0,1,1.078,3.835V75h-2.212V67.711a4.039,4.039,0,0,0-.618-2.544,2.252,2.252,0,0,0-1.842-.747,2.345,2.345,0,0,0-1.836.786,3.422,3.422,0,0,0-.825,1.988V75h-2.224V67.711a3.985,3.985,0,0,0-.635-2.5,2.2,2.2,0,0,0-1.825-.792,3.04,3.04,0,0,0-1.662.416,2.684,2.684,0,0,0-1,1.168v9h-2.212V62.849Zm28.135,6.536a6.7,6.7,0,0,1-1.258,4.24,4.158,4.158,0,0,1-3.47,1.612,4.821,4.821,0,0,1-1.971-.376,3.769,3.769,0,0,1-1.443-1.129v5.941h-2.212V62.849h1.7l.348,1.572a4.013,4.013,0,0,1,1.482-1.336,4.425,4.425,0,0,1,2.066-.46,4.038,4.038,0,0,1,3.51,1.791,8.1,8.1,0,0,1,1.252,4.734Zm-2.212-.236a6.421,6.421,0,0,0-.814-3.4,2.639,2.639,0,0,0-2.4-1.331,2.952,2.952,0,0,0-1.628.432,3.234,3.234,0,0,0-1.089,1.185v5.874a3.142,3.142,0,0,0,1.089,1.174,3.056,3.056,0,0,0,1.651.421,2.723,2.723,0,0,0,2.381-1.151,5.054,5.054,0,0,0,.809-2.97ZM-4.147,75H-6.36V62.849h2.212Zm0-15.262H-6.36V57.48h2.212ZM3.74,73.506a2.6,2.6,0,0,0,1.786-.679,2.147,2.147,0,0,0,.764-1.668h2l.034.067a3.49,3.49,0,0,1-1.348,2.791A4.762,4.762,0,0,1,3.74,75.236,4.771,4.771,0,0,1-.213,73.5,6.719,6.719,0,0,1-1.606,69.16v-.472a6.69,6.69,0,0,1,1.4-4.318A4.768,4.768,0,0,1,3.74,62.624a4.584,4.584,0,0,1,3.33,1.258A3.989,3.989,0,0,1,8.322,66.97l-.022.067H6.289a2.681,2.681,0,0,0-.724-1.892,2.384,2.384,0,0,0-1.825-.781,2.555,2.555,0,0,0-2.375,1.263,5.913,5.913,0,0,0-.747,3.06v.472a6.026,6.026,0,0,0,.736,3.088A2.553,2.553,0,0,0,3.74,73.506Zm22.591-4.122a6.7,6.7,0,0,1-1.258,4.24,4.158,4.158,0,0,1-3.47,1.612,4.821,4.821,0,0,1-1.971-.376,3.769,3.769,0,0,1-1.443-1.129v5.941H15.976V62.849h1.7l.348,1.572A4.013,4.013,0,0,1,19.5,63.084a4.425,4.425,0,0,1,2.066-.46,4.038,4.038,0,0,1,3.51,1.791,8.1,8.1,0,0,1,1.252,4.734Zm-2.212-.236a6.421,6.421,0,0,0-.814-3.4,2.639,2.639,0,0,0-2.4-1.331,2.952,2.952,0,0,0-1.628.432,3.234,3.234,0,0,0-1.089,1.185v5.874a3.142,3.142,0,0,0,1.089,1.174,3.056,3.056,0,0,0,1.651.421,2.723,2.723,0,0,0,2.381-1.151,5.054,5.054,0,0,0,.809-2.97Zm4.069-.337a6.69,6.69,0,0,1,1.46-4.442,4.9,4.9,0,0,1,3.964-1.746A4.944,4.944,0,0,1,37.6,64.365a6.668,6.668,0,0,1,1.466,4.447v.247a6.657,6.657,0,0,1-1.46,4.447,4.929,4.929,0,0,1-3.976,1.729A4.939,4.939,0,0,1,29.652,73.5a6.646,6.646,0,0,1-1.466-4.442Zm2.212.247a5.764,5.764,0,0,0,.814,3.189,2.941,2.941,0,0,0,4.823,0,5.733,5.733,0,0,0,.82-3.189v-.247a5.716,5.716,0,0,0-.825-3.178,2.705,2.705,0,0,0-2.42-1.269,2.668,2.668,0,0,0-2.4,1.269,5.776,5.776,0,0,0-.814,3.178Zm10.515-.247a6.69,6.69,0,0,1,1.46-4.442,5.411,5.411,0,0,1,7.957-.006A6.668,6.668,0,0,1,51.8,68.812v.247a6.657,6.657,0,0,1-1.46,4.447A5.435,5.435,0,0,1,42.38,73.5a6.646,6.646,0,0,1-1.466-4.442Zm2.212.247a5.764,5.764,0,0,0,.814,3.189,2.941,2.941,0,0,0,4.823,0,5.733,5.733,0,0,0,.82-3.189v-.247a5.716,5.716,0,0,0-.825-3.178,2.705,2.705,0,0,0-2.42-1.269,2.668,2.668,0,0,0-2.4,1.269,5.776,5.776,0,0,0-.814,3.178ZM56.55,75H54.337V57.48H56.55Zm10.122-3.268a1.474,1.474,0,0,0-.556-1.19,5.365,5.365,0,0,0-2.106-.809,8.835,8.835,0,0,1-3.3-1.292,2.608,2.608,0,0,1-1.151-2.224,3.2,3.2,0,0,1,1.263-2.538,5.575,5.575,0,0,1,6.62.067,3.218,3.218,0,0,1,1.224,2.617l-.022.067H66.537A1.913,1.913,0,0,0,65.846,65a2.469,2.469,0,0,0-1.746-.64,2.518,2.518,0,0,0-1.746.528,1.647,1.647,0,0,0-.578,1.258,1.333,1.333,0,0,0,.5,1.112,5.532,5.532,0,0,0,2.061.719,8.708,8.708,0,0,1,3.392,1.336,2.691,2.691,0,0,1,1.157,2.257,3.2,3.2,0,0,1-1.308,2.639,5.4,5.4,0,0,1-3.42,1.022,5.34,5.34,0,0,1-3.661-1.179,3.365,3.365,0,0,1-1.269-2.751l.022-.067H61.36a2.046,2.046,0,0,0,.876,1.724,3.389,3.389,0,0,0,1.92.545,3.025,3.025,0,0,0,1.847-.5A1.529,1.529,0,0,0,66.672,71.732Z" transform="translate(205 260)" fill="#a2a2a2"/>
    <g transform="matrix(1, 0, 0, 1, 0, 0)" filter="url(#Trazado_7235)">
      <path id="Trazado_7235-2" data-name="Trazado 7235" d="M75.084,0a75.084,75.084,0,0,1,75.084,75.084v.139A75.084,75.084,0,0,1,0,75.223v-.139A75.084,75.084,0,0,1,75.084,0Z" transform="translate(126 64.66)" fill="#44d62c"/>
    </g>
    <path id="Trazado_6145" data-name="Trazado 6145" d="M1092.964,4635.254c16.316,0,25.3-9.584,25.3-26.988,0-16.294-23.065-42.2-24.047-43.294a1.738,1.738,0,0,0-2.51,0c-.982,1.093-24.047,27-24.047,43.294C1067.662,4625.67,1076.648,4635.254,1092.964,4635.254Zm0-66.584c4.829,5.667,21.928,26.643,21.928,39.6,0,10.773-3.805,23.615-21.928,23.615s-21.928-12.842-21.928-23.615C1071.036,4595.313,1088.134,4574.338,1092.964,4568.67Z" transform="translate(-910.662 -4478.298)" fill="#fff"/>
    <path id="Trazado_6146" data-name="Trazado 6146" d="M1354.348,4751.991c9.648,0,15.181-6.438,15.181-17.667,0-10.544-13.378-25.039-13.946-25.651a1.737,1.737,0,0,0-2.469,0c-.568.612-13.947,15.106-13.947,25.651C1339.167,4745.553,1344.7,4751.991,1354.348,4751.991Zm0-39.622c3.253,3.785,11.807,14.453,11.807,21.955,0,9.485-3.972,14.294-11.807,14.294s-11.807-4.809-11.807-14.294C1342.541,4726.822,1351.094,4716.154,1354.348,4712.369Z" transform="translate(-1124.816 -4591.662)" fill="#fff"/>
    <path id="Trazado_6147" data-name="Trazado 6147" d="M1253.884,4884.4c-.43.487-10.542,12.037-10.542,19.671,0,8.576,4.3,13.495,11.807,13.495s11.807-4.919,11.807-13.495c0-7.634-10.113-19.184-10.542-19.671a1.741,1.741,0,0,0-2.53,0Zm1.265,29.792c-5.595,0-8.434-3.406-8.434-10.121,0-4.585,5.277-12.049,8.434-15.937,3.158,3.88,8.434,11.346,8.434,15.937C1263.583,4910.781,1260.744,4914.187,1255.15,4914.187Z" transform="translate(-1049.233 -4730.242)" fill="#fff"/>
    <path id="Trazado_6148" data-name="Trazado 6148" d="M1113.57,4773.449a1.613,1.613,0,0,0,.169.008,1.687,1.687,0,0,0,.169-3.365,12.359,12.359,0,0,1-9.013-4.6c-4.486-5.85-3-15.279-2.987-15.373a1.687,1.687,0,0,0-3.326-.554c-.075.446-1.748,10.94,3.625,17.964A15.591,15.591,0,0,0,1113.57,4773.449Z" transform="translate(-934.81 -4623.247)" fill="#fff"/>
    <path id="Trazado_6149" data-name="Trazado 6149" d="M1396.752,4833.487a11.742,11.742,0,0,0,8.25-3.554,10.082,10.082,0,0,0,1.847-8.532,1.687,1.687,0,0,0-3.326.557,6.92,6.92,0,0,1-1.083,5.78,8.4,8.4,0,0,1-5.688,2.375,1.687,1.687,0,1,0,0,3.374Z" transform="translate(-1168.907 -4679.903)" fill="#fff"/>
    <path id="Trazado_6150" data-name="Trazado 6150" d="M1277.7,4976.8a1.935,1.935,0,0,1-.931-2.8,1.687,1.687,0,0,0-3.019-1.508,5.307,5.307,0,0,0,2.442,7.332,1.687,1.687,0,1,0,1.508-3.019Z" transform="translate(-1072.72 -4799.426)" fill="#fff"/>
  </g>
</svg>
