<svg xmlns="http://www.w3.org/2000/svg" xmlns:xlink="http://www.w3.org/1999/xlink" width="160" height="190" viewBox="0 0 160 190">
  <defs>
    <clipPath id="clip-Noncarbonated1">
      <rect width="160" height="190"/>
    </clipPath>
  </defs>
  <g id="Noncarbonated1" clip-path="url(#clip-Noncarbonated1)">
    <g id="Grupo_1650" data-name="Grupo 1650" transform="translate(6556 12362)">
      <path id="Trazado_7104" data-name="Trazado 7104" d="M14,0H114a14,14,0,0,1,14,14V141a14,14,0,0,1-14,14H14A14,14,0,0,1,0,141V14A14,14,0,0,1,14,0Z" transform="translate(-6540 -12344)" fill="none" opacity="0.93"/>
      <path id="Trazado_9437" data-name="Trazado 9437" d="M1.3,0A1.3,1.3,0,1,1,0,1.3,1.3,1.3,0,0,1,1.3,0Z" transform="translate(-6484.994 -12249.57)" fill="#5e5b5c"/>
      <path id="Trazado_6030" data-name="Trazado 6030" d="M111.957,53V48.771a11.092,11.092,0,0,0-4.392-8.8,7.56,7.56,0,0,1-2.552-6.059v-.076h.955a1.306,1.306,0,0,0,1.3-1.3V26.8a1.306,1.306,0,0,0-1.3-1.3H87.392a1.306,1.306,0,0,0-1.3,1.3v5.729a1.306,1.306,0,0,0,1.3,1.3H88.4a9.282,9.282,0,0,1-3.412,6.832c-.017.018-.034.035-.051.035a10.078,10.078,0,0,0-3.361,8.17v4.068a1.327,1.327,0,0,0,.41.956l2.542,2.434V75.607L81.985,78.04a1.327,1.327,0,0,0-.41.956V99.2a1.306,1.306,0,0,0,1.3,1.3h27.778a1.306,1.306,0,0,0,1.3-1.3V79.024a1.3,1.3,0,0,0-.423-.955l-2.875-2.656V56.42l2.84-2.43h0A1.321,1.321,0,0,0,111.957,53ZM88.694,28.1h15.972v3.125H88.694Zm20.66,24.239-2.84,2.433a1.322,1.322,0,0,0-.459.991v20.2a1.376,1.376,0,0,0,.423.956h0l2.875,2.659V97.9H84.18V79.578l2.542-2.433a1.327,1.327,0,0,0,.41-.956V55.767a1.327,1.327,0,0,0-.41-.956L84.18,52.378V48.71A7.36,7.36,0,0,1,86.7,42.628a11.829,11.829,0,0,0,4.282-8.794H102.3a10.088,10.088,0,0,0,3.475,8.116c.035.035.07.052.106.087a8.39,8.39,0,0,1,3.475,6.778Z" transform="translate(-6572.549 -12341.5)" fill="#5e5b5c"/>
      <path id="Trazado_6031" data-name="Trazado 6031" d="M103.048,212.281v-5.554a1.334,1.334,0,0,0-.978-1.306,1.308,1.308,0,0,0-1.626,1.262v5.642a1.308,1.308,0,0,0,1.626,1.262A1.334,1.334,0,0,0,103.048,212.281Z" transform="translate(-6585.515 -12464.933)" fill="#5e5b5c"/>
      <path id="Trazado_9438" data-name="Trazado 9438" d="M-31.929,0h-1.79l-2.933-5.9-.038.006V0h-1.79V-9.242h1.79l2.933,5.9.038-.006v-5.9h1.79Zm1.085-3.5a4.061,4.061,0,0,1,.74-2.523A2.459,2.459,0,0,1-28.025-7a2.478,2.478,0,0,1,2.082.974A4.024,4.024,0,0,1-25.194-3.5v.146A4.009,4.009,0,0,1-25.94-.835a2.469,2.469,0,0,1-2.073.968A2.483,2.483,0,0,1-30.1-.832a4.018,4.018,0,0,1-.743-2.52Zm1.784.146a4,4,0,0,0,.238,1.523.826.826,0,0,0,.809.565.816.816,0,0,0,.787-.565,3.955,3.955,0,0,0,.241-1.523V-3.5a3.989,3.989,0,0,0-.241-1.52.824.824,0,0,0-.8-.574.819.819,0,0,0-.8.578A4.042,4.042,0,0,0-29.06-3.5Zm6.475-3.517.076.958a2.334,2.334,0,0,1,.714-.8A1.644,1.644,0,0,1-20.852-7a1.608,1.608,0,0,1,1.374.682,3.665,3.665,0,0,1,.5,2.142V0h-1.79V-4.17a2.315,2.315,0,0,0-.187-1.095.615.615,0,0,0-.568-.321,1.04,1.04,0,0,0-.536.14,1.211,1.211,0,0,0-.4.394V0h-1.79V-6.868Zm7.287,5.6a.659.659,0,0,0,.578-.282,1.407,1.407,0,0,0,.2-.809H-12.9l.019.038a2.323,2.323,0,0,1-.67,1.761A2.361,2.361,0,0,1-15.3.133a2.42,2.42,0,0,1-2.066-.968,4.086,4.086,0,0,1-.72-2.5v-.184a4.092,4.092,0,0,1,.72-2.5A2.408,2.408,0,0,1-15.3-7a2.3,2.3,0,0,1,1.777.714,2.661,2.661,0,0,1,.641,1.927l-.013.032h-1.625a1.868,1.868,0,0,0-.2-.92.632.632,0,0,0-.584-.349.78.78,0,0,0-.774.568,4.313,4.313,0,0,0-.216,1.5v.184a4.321,4.321,0,0,0,.216,1.517A.783.783,0,0,0-15.3-1.263ZM-8.55,0a3.022,3.022,0,0,1-.168-.5,4.207,4.207,0,0,1-.1-.546,2.43,2.43,0,0,1-.6.844,1.322,1.322,0,0,1-.911.33,1.863,1.863,0,0,1-1.444-.549,2.143,2.143,0,0,1-.5-1.508,1.921,1.921,0,0,1,.663-1.558,3.03,3.03,0,0,1,1.984-.555h.781v-.571a1.384,1.384,0,0,0-.19-.79A.642.642,0,0,0-9.6-5.675a.6.6,0,0,0-.5.222,1.021,1.021,0,0,0-.171.635L-12-4.824l-.013-.038a1.83,1.83,0,0,1,.667-1.511A2.707,2.707,0,0,1-9.49-7a2.487,2.487,0,0,1,1.758.622A2.3,2.3,0,0,1-7.059-4.6v2.818a5.723,5.723,0,0,0,.07.914A5.366,5.366,0,0,0-6.773,0ZM-9.864-1.193a1,1,0,0,0,.635-.219,1.1,1.1,0,0,0,.381-.53V-3.021h-.781a.748.748,0,0,0-.657.292,1.245,1.245,0,0,0-.206.736.919.919,0,0,0,.171.578A.548.548,0,0,0-9.864-1.193ZM-2.7-5.319l-.609-.019a.776.776,0,0,0-.5.159,1,1,0,0,0-.308.444V0H-5.9V-6.868h1.669l.07.971a2.114,2.114,0,0,1,.5-.809A1,1,0,0,1-2.952-7a1.04,1.04,0,0,1,.222.022q.1.022.209.054ZM3.586-3.263A4.56,4.56,0,0,1,3-.787a1.911,1.911,0,0,1-1.717.92A1.587,1.587,0,0,1,.419-.1a1.942,1.942,0,0,1-.628-.67L-.33,0H-1.86V-9.9H-.076v3.644A1.784,1.784,0,0,1,.508-6.8,1.532,1.532,0,0,1,1.276-7,1.891,1.891,0,0,1,3-6.018,5.066,5.066,0,0,1,3.586-3.4ZM1.8-3.4a4.907,4.907,0,0,0-.209-1.612.771.771,0,0,0-.768-.578.908.908,0,0,0-.536.159,1.1,1.1,0,0,0-.359.444V-1.79a.927.927,0,0,0,.355.39,1.064,1.064,0,0,0,.546.13.758.758,0,0,0,.768-.508,4.186,4.186,0,0,0,.2-1.485Zm2.52-.1a4.061,4.061,0,0,1,.74-2.523A2.459,2.459,0,0,1,7.135-7a2.478,2.478,0,0,1,2.082.974A4.024,4.024,0,0,1,9.966-3.5v.146A4.009,4.009,0,0,1,9.22-.835,2.469,2.469,0,0,1,7.147.133,2.483,2.483,0,0,1,5.059-.832a4.018,4.018,0,0,1-.743-2.52ZM6.1-3.352a4,4,0,0,0,.238,1.523.826.826,0,0,0,.809.565.816.816,0,0,0,.787-.565,3.955,3.955,0,0,0,.241-1.523V-3.5a3.989,3.989,0,0,0-.241-1.52.824.824,0,0,0-.8-.574.819.819,0,0,0-.8.578A4.042,4.042,0,0,0,6.1-3.5Zm6.475-3.517.076.958a2.334,2.334,0,0,1,.714-.8A1.644,1.644,0,0,1,14.308-7a1.608,1.608,0,0,1,1.374.682,3.665,3.665,0,0,1,.5,2.142V0H14.39V-4.17A2.315,2.315,0,0,0,14.2-5.265a.615.615,0,0,0-.568-.321,1.04,1.04,0,0,0-.536.14,1.211,1.211,0,0,0-.4.394V0h-1.79V-6.868ZM20.763,0a3.021,3.021,0,0,1-.168-.5,4.206,4.206,0,0,1-.1-.546,2.43,2.43,0,0,1-.6.844,1.322,1.322,0,0,1-.911.33,1.863,1.863,0,0,1-1.444-.549,2.143,2.143,0,0,1-.5-1.508A1.921,1.921,0,0,1,17.7-3.482a3.03,3.03,0,0,1,1.984-.555h.781v-.571a1.384,1.384,0,0,0-.19-.79.642.642,0,0,0-.565-.276.6.6,0,0,0-.5.222,1.021,1.021,0,0,0-.171.635L17.31-4.824,17.3-4.862a1.83,1.83,0,0,1,.667-1.511A2.707,2.707,0,0,1,19.824-7a2.487,2.487,0,0,1,1.758.622A2.3,2.3,0,0,1,22.255-4.6v2.818a5.724,5.724,0,0,0,.07.914A5.366,5.366,0,0,0,22.541,0ZM19.449-1.193a1,1,0,0,0,.635-.219,1.1,1.1,0,0,0,.381-.53V-3.021h-.781a.748.748,0,0,0-.657.292,1.245,1.245,0,0,0-.206.736.919.919,0,0,0,.171.578A.548.548,0,0,0,19.449-1.193ZM25.5-8.576v1.708h.933v1.276H25.5v3.5a1.138,1.138,0,0,0,.127.622.4.4,0,0,0,.349.184A1.141,1.141,0,0,0,26.19-1.3a1.871,1.871,0,0,0,.2-.054l.14,1.32a3.142,3.142,0,0,1-.486.13,3,3,0,0,1-.524.041A1.688,1.688,0,0,1,24.181-.4a2.516,2.516,0,0,1-.467-1.682v-3.51h-.832V-6.868h.832V-8.576ZM30.069.133a2.542,2.542,0,0,1-2.107-.939,3.76,3.76,0,0,1-.749-2.418v-.26a4.162,4.162,0,0,1,.72-2.533A2.373,2.373,0,0,1,29.961-7a2.217,2.217,0,0,1,1.86.832,3.587,3.587,0,0,1,.647,2.26v.978H29a2.413,2.413,0,0,0,.346,1.212,1.041,1.041,0,0,0,.93.451,2.763,2.763,0,0,0,.892-.124,3.623,3.623,0,0,0,.771-.39L32.4-.66a2.968,2.968,0,0,1-.993.565A3.881,3.881,0,0,1,30.069.133Zm-.108-5.726a.717.717,0,0,0-.67.4,2.745,2.745,0,0,0-.276,1.089h1.7v-.159a2.226,2.226,0,0,0-.175-.978A.6.6,0,0,0,29.961-5.592Zm3.187,2.2A4.971,4.971,0,0,1,33.75-6,1.9,1.9,0,0,1,35.458-7a1.439,1.439,0,0,1,.746.2,1.97,1.97,0,0,1,.594.559V-9.9h1.79V0h-1.53l-.133-.774a2.037,2.037,0,0,1-.641.676,1.54,1.54,0,0,1-.838.232A1.91,1.91,0,0,1,33.75-.8a4.474,4.474,0,0,1-.6-2.466Zm1.777.133A3.787,3.787,0,0,0,35.153-1.8a.779.779,0,0,0,.755.53.979.979,0,0,0,.517-.136,1.042,1.042,0,0,0,.371-.4V-4.964a1.226,1.226,0,0,0-.375-.457.847.847,0,0,0-.508-.165.8.8,0,0,0-.755.6A4.452,4.452,0,0,0,34.925-3.4Z" transform="translate(-6471 -12206)" fill="#5e5b5c"/>
    </g>
  </g>
</svg>
