<svg xmlns="http://www.w3.org/2000/svg" xmlns:xlink="http://www.w3.org/1999/xlink" width="307" height="321" viewBox="0 0 307 321">
  <defs>
    <clipPath id="clip-_3-path">
      <rect width="307" height="321"/>
    </clipPath>
  </defs>
  <g id="_3-path" data-name="3-path" clip-path="url(#clip-_3-path)">
    <path id="Trazado_7201" data-name="Trazado 7201" d="M45,0H262a45,45,0,0,1,45,45V276a45,45,0,0,1-45,45H45A45,45,0,0,1,0,276V45A45,45,0,0,1,45,0Z" fill="#79c61b" opacity="0.8"/>
    <path id="Trazado_7202" data-name="Trazado 7202" d="M-.208-20.8a3.737,3.737,0,0,0,3.149-1.355A5.982,5.982,0,0,0,3.992-25.9a5.245,5.245,0,0,0-1.1-3.394A3.671,3.671,0,0,0-.134-30.664a3.433,3.433,0,0,0-2.661,1.2A4.5,4.5,0,0,0-3.87-26.343h-6.738l-.049-.146A8.378,8.378,0,0,1-7.7-33.374,11.1,11.1,0,0,1-.134-36.06a11.893,11.893,0,0,1,8.069,2.612A9.32,9.32,0,0,1,10.95-26a8.183,8.183,0,0,1-1.318,4.517,9,9,0,0,1-3.589,3.2,8.4,8.4,0,0,1,3.967,3.2,9.3,9.3,0,0,1,1.4,5.2A9.481,9.481,0,0,1,8.154-2.258,12.423,12.423,0,0,1-.183.513,12.019,12.019,0,0,1-7.9-2.112a8.708,8.708,0,0,1-3.174-7.483l.049-.146h6.714A5.246,5.246,0,0,0-3.137-6.262a3.687,3.687,0,0,0,2.954,1.4A4.345,4.345,0,0,0,3.21-6.3,5.308,5.308,0,0,0,4.5-9.985,6.239,6.239,0,0,0,3.3-14.221a4.449,4.449,0,0,0-3.5-1.355H-3.8V-20.8Z" transform="translate(154 107)" fill="#fff"/>
    <path id="Trazado_7203" data-name="Trazado 7203" d="M-108.152-5.726l.064-.011,1.6-9.9h3.083L-106.466,0h-2.814l-2.288-9.689h-.064L-113.91,0h-2.814l-3.083-15.641h3.1l1.6,9.926.064.011,2.245-9.937h2.385ZM-99,0h-3.029V-11.623H-99Zm0-14.448h-3.029v-2.31H-99Zm5.715-.064v2.89h1.579v2.159h-1.579v5.919a1.926,1.926,0,0,0,.215,1.053.68.68,0,0,0,.591.312,1.931,1.931,0,0,0,.354-.027,3.166,3.166,0,0,0,.344-.091l.236,2.234a5.318,5.318,0,0,1-.822.22,5.085,5.085,0,0,1-.886.07,2.857,2.857,0,0,1-2.272-.9,4.257,4.257,0,0,1-.79-2.847v-5.94h-1.407v-2.159h1.407v-2.89Zm6.22,4.3a3.6,3.6,0,0,1,1.112-1.2,2.569,2.569,0,0,1,1.434-.424,2.893,2.893,0,0,1,2.46,1.225,6.374,6.374,0,0,1,.9,3.771V0h-3.029V-6.864A4.525,4.525,0,0,0-84.5-8.878a1.048,1.048,0,0,0-.983-.575,1.921,1.921,0,0,0-.918.209,1.874,1.874,0,0,0-.661.6V0h-3.019V-16.758h3.019Zm15.125.15a3.852,3.852,0,0,1,1.214-1.305,2.9,2.9,0,0,1,1.611-.467,2.942,2.942,0,0,1,2.471,1.16,5.835,5.835,0,0,1,.892,3.566V0h-2.191V-7.133a4.348,4.348,0,0,0-.462-2.3,1.527,1.527,0,0,0-1.364-.7,2.263,2.263,0,0,0-1.294.365,2.64,2.64,0,0,0-.875,1.021V0h-2.191V-16.758h2.191ZM-60.94,0h-2.191V-11.623h2.191Zm0-14.674h-2.191v-2.084h2.191Zm2.3,9a8.59,8.59,0,0,1,1.021-4.479,3.2,3.2,0,0,1,2.879-1.687,2.936,2.936,0,0,1,1.6.435,3.545,3.545,0,0,1,1.166,1.241l.2-1.461h1.826V.021a4.733,4.733,0,0,1-1.192,3.454,4.488,4.488,0,0,1-3.362,1.219,6.145,6.145,0,0,1-1.584-.226,6.364,6.364,0,0,1-1.52-.612l.354-1.633a5.576,5.576,0,0,0,1.284.521,5.494,5.494,0,0,0,1.445.188,2.172,2.172,0,0,0,1.8-.725,3.477,3.477,0,0,0,.58-2.2V-1.139A3.19,3.19,0,0,1-53.265-.118a3.158,3.158,0,0,1-1.5.344,3.234,3.234,0,0,1-2.857-1.552,7.4,7.4,0,0,1-1.021-4.12Zm2.191.226a6.579,6.579,0,0,0,.537,2.911,1.788,1.788,0,0,0,1.708,1.074,2.034,2.034,0,0,0,1.241-.376A2.635,2.635,0,0,0-52.143-2.9V-8.615a2.879,2.879,0,0,0-.822-1.117,1.907,1.907,0,0,0-1.23-.408A1.8,1.8,0,0,0-55.9-8.9a8.066,8.066,0,0,0-.548,3.228Zm11.161-4.619a3.852,3.852,0,0,1,1.214-1.305,2.9,2.9,0,0,1,1.611-.467,2.942,2.942,0,0,1,2.471,1.16A5.835,5.835,0,0,1-39.1-7.111V0h-2.191V-7.133a4.348,4.348,0,0,0-.462-2.3,1.527,1.527,0,0,0-1.364-.7,2.263,2.263,0,0,0-1.294.365,2.64,2.64,0,0,0-.875,1.021V0H-47.48V-16.758h2.191ZM-34.289,0H-36.48V-16.758h2.191Zm5.973-4.007.172.784h.064l2.277-8.4h2.4L-27.564,1.8a6.205,6.205,0,0,1-1.106,2.041,2.51,2.51,0,0,1-2.041.849,3.125,3.125,0,0,1-.58-.059Q-31.6,4.576-31.9,4.5l.247-1.611q.107.021.317.043t.328.021a1.179,1.179,0,0,0,1.021-.542A4.373,4.373,0,0,0-29.4,1.128l.4-1.2-3.663-11.548h2.385ZM-17.5-5.672a8.59,8.59,0,0,1,1.021-4.479,3.188,3.188,0,0,1,2.868-1.687,2.956,2.956,0,0,1,1.558.408A3.492,3.492,0,0,1-10.9-10.27l.236-1.354h1.794V4.469h-2.191V-1.053a3.068,3.068,0,0,1-1.1.956,3.213,3.213,0,0,1-1.466.322,3.221,3.221,0,0,1-2.852-1.552A7.426,7.426,0,0,1-17.5-5.446Zm2.17.226a6.574,6.574,0,0,0,.548,2.927,1.8,1.8,0,0,0,1.708,1.09,2.013,2.013,0,0,0,1.192-.349,2.616,2.616,0,0,0,.816-.994V-8.755a2.722,2.722,0,0,0-.811-1.031,1.918,1.918,0,0,0-1.187-.376,1.811,1.811,0,0,0-1.713,1.251,8.076,8.076,0,0,0-.553,3.239ZM-.011-1.7a3.741,3.741,0,0,1-1.2,1.423,2.934,2.934,0,0,1-1.7.5,2.926,2.926,0,0,1-2.5-1.235,6.54,6.54,0,0,1-.9-3.835v-6.778h2.191v6.8A5.657,5.657,0,0,0-3.7-2.208a1.413,1.413,0,0,0,1.311.747,2.413,2.413,0,0,0,1.37-.376A2.523,2.523,0,0,0-.129-2.911v-8.712H2.063V0H.2ZM10.6,0q-.14-.526-.22-.94a5.922,5.922,0,0,1-.1-.822A4.268,4.268,0,0,1,9.061-.338,2.812,2.812,0,0,1,7.337.226,3.052,3.052,0,0,1,4.947-.7a3.632,3.632,0,0,1-.833-2.524A3.166,3.166,0,0,1,5.269-5.812a4.943,4.943,0,0,1,3.217-.945H10.27V-7.949A2.608,2.608,0,0,0,9.8-9.609a1.626,1.626,0,0,0-1.354-.6,1.619,1.619,0,0,0-1.262.516,1.892,1.892,0,0,0-.467,1.321L4.63-8.357l-.021-.064a2.954,2.954,0,0,1,1.053-2.385,4.137,4.137,0,0,1,2.922-1.031,3.915,3.915,0,0,1,2.8,1.015,3.792,3.792,0,0,1,1.074,2.9v5.393a9.546,9.546,0,0,0,.086,1.294A8.243,8.243,0,0,0,12.815,0ZM7.788-1.45A2.448,2.448,0,0,0,9.367-2a2.562,2.562,0,0,0,.9-1.337V-5.4H8.454a2.006,2.006,0,0,0-1.579.639,2.237,2.237,0,0,0-.569,1.542,2,2,0,0,0,.387,1.289A1.323,1.323,0,0,0,7.788-1.45ZM17.284,0H15.093V-16.758h2.191Zm5,0H20.088V-11.623h2.191Zm0-14.674H20.088v-2.084h2.191ZM25.534,0V-10.065H24v-1.558h1.536v-1.192a4.237,4.237,0,0,1,1.058-3.078,3.933,3.933,0,0,1,2.959-1.09,5.647,5.647,0,0,1,1.354.167,12.3,12.3,0,0,1,1.482.478l-.333,1.7a7.475,7.475,0,0,0-1.117-.381,5.042,5.042,0,0,0-1.246-.145,1.809,1.809,0,0,0-1.493.6,2.739,2.739,0,0,0-.483,1.756v1.192h2.02v1.558h-2.02V0Zm7.885,0H31.228V-11.623h2.191Zm6.864.226a4.059,4.059,0,0,1-3.4-1.59A6.569,6.569,0,0,1,35.653-5.5V-6A6.819,6.819,0,0,1,36.878-10.2a3.815,3.815,0,0,1,3.2-1.638A3.522,3.522,0,0,1,43.1-10.431,6.239,6.239,0,0,1,44.14-6.649v1.225H37.834a5.739,5.739,0,0,0,.639,2.89,2.113,2.113,0,0,0,1.96,1.106,4.08,4.08,0,0,0,1.59-.285,4.065,4.065,0,0,0,1.246-.833l.709,1.354a4.633,4.633,0,0,1-1.531,1.01A5.439,5.439,0,0,1,40.283.226Zm-.2-10.388a1.709,1.709,0,0,0-1.5.875,5.216,5.216,0,0,0-.7,2.315h4.114v-.247a4.255,4.255,0,0,0-.467-2.127A1.552,1.552,0,0,0,40.079-10.162ZM45.7-5.672a8.59,8.59,0,0,1,1.021-4.479,3.188,3.188,0,0,1,2.868-1.687,2.958,2.958,0,0,1,1.482.371A3.365,3.365,0,0,1,52.2-10.4v-6.359h2.181V0h-1.8l-.226-1.4A3.447,3.447,0,0,1,51.165-.188a3.081,3.081,0,0,1-1.6.414,3.221,3.221,0,0,1-2.852-1.552A7.426,7.426,0,0,1,45.7-5.446Zm2.17.226a6.473,6.473,0,0,0,.548,2.906,1.8,1.8,0,0,0,1.708,1.08,1.994,1.994,0,0,0,1.241-.387,2.783,2.783,0,0,0,.833-1.1V-8.572a3.077,3.077,0,0,0-.838-1.144,1.867,1.867,0,0,0-1.225-.424A1.81,1.81,0,0,0,48.42-8.9a8,8,0,0,0-.553,3.228Zm16.06-4.619a3.852,3.852,0,0,1,1.214-1.305,2.9,2.9,0,0,1,1.611-.467,2.942,2.942,0,0,1,2.471,1.16,5.835,5.835,0,0,1,.892,3.566V0H67.923V-7.133a4.348,4.348,0,0,0-.462-2.3,1.527,1.527,0,0,0-1.364-.7,2.263,2.263,0,0,0-1.294.365,2.64,2.64,0,0,0-.875,1.021V0H61.735V-16.758h2.191ZM78.848-1.7a3.741,3.741,0,0,1-1.2,1.423,2.934,2.934,0,0,1-1.7.5,2.926,2.926,0,0,1-2.5-1.235,6.54,6.54,0,0,1-.9-3.835v-6.778h2.191v6.8a5.657,5.657,0,0,0,.43,2.616,1.413,1.413,0,0,0,1.311.747,2.413,2.413,0,0,0,1.37-.376,2.523,2.523,0,0,0,.886-1.074v-8.712h2.191V0H79.063Zm6.574-9.926.118,1.579a3.615,3.615,0,0,1,1.23-1.327,3.2,3.2,0,0,1,1.735-.467,2.714,2.714,0,0,1,1.676.532,3.18,3.18,0,0,1,1.063,1.617,3.969,3.969,0,0,1,1.23-1.579,2.956,2.956,0,0,1,1.81-.569,2.753,2.753,0,0,1,2.379,1.23,6.547,6.547,0,0,1,.865,3.744V0H95.337V-6.875a5.134,5.134,0,0,0-.451-2.541,1.48,1.48,0,0,0-1.343-.725,1.641,1.641,0,0,0-1.262.559,3.4,3.4,0,0,0-.747,1.472q.011.193.021.4t.011.424V0H89.386V-6.875a5.055,5.055,0,0,0-.462-2.508,1.481,1.481,0,0,0-1.343-.757,1.893,1.893,0,0,0-1.2.387A2.55,2.55,0,0,0,85.6-8.69V0H83.413V-11.623ZM106.079,0q-.14-.526-.22-.94a5.921,5.921,0,0,1-.1-.822,4.268,4.268,0,0,1-1.219,1.423,2.812,2.812,0,0,1-1.724.564,3.052,3.052,0,0,1-2.39-.924,3.632,3.632,0,0,1-.833-2.524,3.166,3.166,0,0,1,1.155-2.589,4.943,4.943,0,0,1,3.217-.945h1.783V-7.949a2.608,2.608,0,0,0-.473-1.66,1.626,1.626,0,0,0-1.354-.6,1.619,1.619,0,0,0-1.262.516,1.892,1.892,0,0,0-.467,1.321l-2.084.011-.021-.064a2.954,2.954,0,0,1,1.053-2.385,4.137,4.137,0,0,1,2.922-1.031,3.915,3.915,0,0,1,2.8,1.015,3.792,3.792,0,0,1,1.074,2.9v5.393a9.546,9.546,0,0,0,.086,1.294A8.243,8.243,0,0,0,108.292,0Zm-2.814-1.45A2.448,2.448,0,0,0,104.844-2a2.562,2.562,0,0,0,.9-1.337V-5.4h-1.815a2.005,2.005,0,0,0-1.579.639,2.237,2.237,0,0,0-.569,1.542,2,2,0,0,0,.387,1.289A1.323,1.323,0,0,0,103.265-1.45Zm9.142-10.173.129,1.729a3.927,3.927,0,0,1,1.246-1.434,2.971,2.971,0,0,1,1.708-.51A2.856,2.856,0,0,1,117.9-10.7a5.87,5.87,0,0,1,.865,3.545V0h-2.181V-7.144a4.345,4.345,0,0,0-.457-2.32,1.553,1.553,0,0,0-1.38-.677,2.127,2.127,0,0,0-1.289.392,2.745,2.745,0,0,0-.859,1.08V0h-2.191V-11.623ZM-93.7,11.192l-.945-.054a1.64,1.64,0,0,0-1.144.414,2.649,2.649,0,0,0-.7,1.166V21h-2.191V9.377h2.009l.15,1.719a3.734,3.734,0,0,1,.988-1.423,2.08,2.08,0,0,1,1.386-.51,1.836,1.836,0,0,1,.381.038,2.1,2.1,0,0,1,.317.091Zm5.779,10.033a4.059,4.059,0,0,1-3.4-1.59,6.569,6.569,0,0,1-1.23-4.136V15A6.819,6.819,0,0,1-91.325,10.8a3.815,3.815,0,0,1,3.2-1.638A3.522,3.522,0,0,1-85.1,10.569a6.239,6.239,0,0,1,1.037,3.781v1.225h-6.306a5.739,5.739,0,0,0,.639,2.89,2.113,2.113,0,0,0,1.96,1.106,4.08,4.08,0,0,0,1.59-.285,4.065,4.065,0,0,0,1.246-.833l.709,1.354a4.633,4.633,0,0,1-1.531,1.01A5.439,5.439,0,0,1-87.919,21.226Zm-.2-10.388a1.709,1.709,0,0,0-1.5.875,5.216,5.216,0,0,0-.7,2.315h4.114v-.247a4.255,4.255,0,0,0-.467-2.127A1.552,1.552,0,0,0-88.124,10.838Zm11.537,7.229a1.548,1.548,0,0,0-.451-1.133,6.038,6.038,0,0,0-1.729-1.026,8.671,8.671,0,0,1-2.686-1.472,2.611,2.611,0,0,1-.892-2.041,2.935,2.935,0,0,1,1.08-2.288,4.109,4.109,0,0,1,2.809-.945,4.032,4.032,0,0,1,2.89,1.037,3.189,3.189,0,0,1,1.053,2.508l-.021.064H-76.64a2.174,2.174,0,0,0-.489-1.423,1.625,1.625,0,0,0-1.327-.6,1.764,1.764,0,0,0-1.305.467,1.494,1.494,0,0,0-.467,1.09,1.373,1.373,0,0,0,.4,1.047,7.118,7.118,0,0,0,1.724.983,7.941,7.941,0,0,1,2.745,1.493,2.774,2.774,0,0,1,.918,2.127,2.9,2.9,0,0,1-1.112,2.358,4.466,4.466,0,0,1-2.917.908,4.23,4.23,0,0,1-3.078-1.09,3.267,3.267,0,0,1-1.069-2.551l.021-.064h2.03a2.123,2.123,0,0,0,.639,1.627,2.238,2.238,0,0,0,1.488.5,1.942,1.942,0,0,0,1.359-.446A1.467,1.467,0,0,0-76.586,18.067Zm3.738-3.008a6.946,6.946,0,0,1,1.225-4.243,3.955,3.955,0,0,1,3.362-1.654,3.969,3.969,0,0,1,3.368,1.654,6.924,6.924,0,0,1,1.23,4.243v.29a6.893,6.893,0,0,1-1.225,4.238,3.958,3.958,0,0,1-3.352,1.638,3.99,3.99,0,0,1-3.384-1.638,6.893,6.893,0,0,1-1.225-4.238Zm2.191.29a6.747,6.747,0,0,0,.6,3.04,1.933,1.933,0,0,0,1.821,1.182,1.91,1.91,0,0,0,1.789-1.187,6.754,6.754,0,0,0,.6-3.035v-.29a6.716,6.716,0,0,0-.6-3.024,1.927,1.927,0,0,0-1.8-1.2,1.917,1.917,0,0,0-1.8,1.2,6.768,6.768,0,0,0-.6,3.024ZM-55.328,19.3a3.741,3.741,0,0,1-1.2,1.423,2.934,2.934,0,0,1-1.7.5,2.926,2.926,0,0,1-2.5-1.235,6.54,6.54,0,0,1-.9-3.835V9.377h2.191v6.8a5.657,5.657,0,0,0,.43,2.616,1.413,1.413,0,0,0,1.311.747,2.413,2.413,0,0,0,1.37-.376,2.523,2.523,0,0,0,.886-1.074V9.377h2.191V21h-1.858Zm9.561-8.11-.945-.054a1.64,1.64,0,0,0-1.144.414,2.649,2.649,0,0,0-.7,1.166V21h-2.191V9.377h2.009l.15,1.719A3.734,3.734,0,0,1-47.6,9.672a2.08,2.08,0,0,1,1.386-.51,1.836,1.836,0,0,1,.381.038,2.1,2.1,0,0,1,.317.091Zm5.618,8.379a1.716,1.716,0,0,0,1.348-.623,2.48,2.48,0,0,0,.542-1.687h1.966l.021.064A3.591,3.591,0,0,1-37.377,20.1a3.814,3.814,0,0,1-2.771,1.128,3.839,3.839,0,0,1-3.319-1.638A7.023,7.023,0,0,1-44.639,15.4V15a7.053,7.053,0,0,1,1.171-4.184,3.831,3.831,0,0,1,3.319-1.649,3.682,3.682,0,0,1,2.831,1.176,4.2,4.2,0,0,1,1.058,3.056l-.021.054h-1.977a3.157,3.157,0,0,0-.521-1.885,1.611,1.611,0,0,0-1.37-.725,1.829,1.829,0,0,0-1.767,1.182A7.14,7.14,0,0,0-42.458,15V15.4a7.218,7.218,0,0,0,.537,3A1.827,1.827,0,0,0-40.149,19.571Zm10.119,1.654a4.059,4.059,0,0,1-3.4-1.59A6.569,6.569,0,0,1-34.66,15.5V15A6.819,6.819,0,0,1-33.435,10.8a3.815,3.815,0,0,1,3.2-1.638,3.522,3.522,0,0,1,3.024,1.407,6.239,6.239,0,0,1,1.037,3.781v1.225h-6.306a5.739,5.739,0,0,0,.639,2.89,2.113,2.113,0,0,0,1.96,1.106,4.08,4.08,0,0,0,1.59-.285,4.065,4.065,0,0,0,1.246-.833l.709,1.354a4.633,4.633,0,0,1-1.531,1.01A5.439,5.439,0,0,1-30.03,21.226Zm-.2-10.388a1.709,1.709,0,0,0-1.5.875,5.216,5.216,0,0,0-.7,2.315h4.114v-.247a4.255,4.255,0,0,0-.467-2.127A1.552,1.552,0,0,0-30.234,10.838ZM-18.7,18.067a1.548,1.548,0,0,0-.451-1.133,6.038,6.038,0,0,0-1.729-1.026,8.671,8.671,0,0,1-2.686-1.472,2.611,2.611,0,0,1-.892-2.041,2.935,2.935,0,0,1,1.08-2.288,4.109,4.109,0,0,1,2.809-.945,4.032,4.032,0,0,1,2.89,1.037,3.189,3.189,0,0,1,1.053,2.508l-.021.064H-18.75a2.174,2.174,0,0,0-.489-1.423,1.625,1.625,0,0,0-1.327-.6,1.764,1.764,0,0,0-1.305.467,1.494,1.494,0,0,0-.467,1.09,1.373,1.373,0,0,0,.4,1.047,7.118,7.118,0,0,0,1.724.983,7.941,7.941,0,0,1,2.745,1.493,2.774,2.774,0,0,1,.918,2.127,2.9,2.9,0,0,1-1.112,2.358,4.466,4.466,0,0,1-2.917.908,4.23,4.23,0,0,1-3.078-1.09,3.267,3.267,0,0,1-1.069-2.551l.021-.064h2.03a2.123,2.123,0,0,0,.639,1.627,2.238,2.238,0,0,0,1.488.5,1.942,1.942,0,0,0,1.359-.446A1.467,1.467,0,0,0-18.7,18.067ZM-3.647,21q-.14-.526-.22-.94a5.922,5.922,0,0,1-.1-.822,4.268,4.268,0,0,1-1.219,1.423,2.812,2.812,0,0,1-1.724.564A3.052,3.052,0,0,1-9.3,20.3a3.632,3.632,0,0,1-.833-2.524A3.166,3.166,0,0,1-8.98,15.188a4.943,4.943,0,0,1,3.217-.945H-3.98V13.051a2.608,2.608,0,0,0-.473-1.66,1.626,1.626,0,0,0-1.354-.6,1.619,1.619,0,0,0-1.262.516,1.892,1.892,0,0,0-.467,1.321l-2.084.011-.021-.064a2.954,2.954,0,0,1,1.053-2.385A4.137,4.137,0,0,1-5.667,9.162a3.915,3.915,0,0,1,2.8,1.015,3.792,3.792,0,0,1,1.074,2.9v5.393A9.546,9.546,0,0,0-1.7,19.759,8.243,8.243,0,0,0-1.434,21Zm-2.814-1.45A2.448,2.448,0,0,0-4.882,19a2.562,2.562,0,0,0,.9-1.337V15.6H-5.8a2.006,2.006,0,0,0-1.579.639,2.237,2.237,0,0,0-.569,1.542,2,2,0,0,0,.387,1.289A1.323,1.323,0,0,0-6.461,19.55ZM2.68,9.377l.129,1.729A3.927,3.927,0,0,1,4.055,9.672a2.971,2.971,0,0,1,1.708-.51A2.856,2.856,0,0,1,8.175,10.3a5.87,5.87,0,0,1,.865,3.545V21H6.859V13.856a4.345,4.345,0,0,0-.457-2.32,1.553,1.553,0,0,0-1.38-.677,2.127,2.127,0,0,0-1.289.392,2.745,2.745,0,0,0-.859,1.08V21H.682V9.377Zm8.443,5.951a8.59,8.59,0,0,1,1.021-4.479,3.188,3.188,0,0,1,2.868-1.687,2.958,2.958,0,0,1,1.482.371A3.365,3.365,0,0,1,17.623,10.6V4.242H19.8V21H18l-.226-1.4a3.447,3.447,0,0,1-1.182,1.208,3.081,3.081,0,0,1-1.6.414,3.221,3.221,0,0,1-2.852-1.552,7.426,7.426,0,0,1-1.015-4.12Zm2.17.226a6.473,6.473,0,0,0,.548,2.906,1.8,1.8,0,0,0,1.708,1.08,1.994,1.994,0,0,0,1.241-.387,2.783,2.783,0,0,0,.833-1.1V12.428a3.077,3.077,0,0,0-.838-1.144,1.867,1.867,0,0,0-1.225-.424A1.81,1.81,0,0,0,13.847,12.1a8,8,0,0,0-.553,3.228Zm18.1,5.672a4.059,4.059,0,0,1-3.4-1.59,6.569,6.569,0,0,1-1.23-4.136V15A6.819,6.819,0,0,1,27.989,10.8a3.815,3.815,0,0,1,3.2-1.638,3.522,3.522,0,0,1,3.024,1.407,6.239,6.239,0,0,1,1.037,3.781v1.225H28.945a5.739,5.739,0,0,0,.639,2.89,2.113,2.113,0,0,0,1.96,1.106,3.807,3.807,0,0,0,2.836-1.117l.709,1.354a4.633,4.633,0,0,1-1.531,1.01A5.439,5.439,0,0,1,31.394,21.226Zm-.2-10.388a1.709,1.709,0,0,0-1.5.875,5.216,5.216,0,0,0-.7,2.315H33.1v-.247a4.255,4.255,0,0,0-.467-2.127A1.552,1.552,0,0,0,31.19,10.838ZM37.947,21V10.935H36.411V9.377h1.536V7.884a4.161,4.161,0,0,1,.9-2.857,3.18,3.18,0,0,1,2.508-1.01,3.838,3.838,0,0,1,.661.059q.338.059.736.167l-.2,1.6a3.8,3.8,0,0,0-.43-.086,3.506,3.506,0,0,0-.494-.032,1.262,1.262,0,0,0-1.112.559,2.827,2.827,0,0,0-.381,1.6V9.377H42.05v1.558H40.127V21Zm6.542,0V10.935H42.953V9.377h1.536V7.884a4.161,4.161,0,0,1,.9-2.857,3.18,3.18,0,0,1,2.508-1.01,3.838,3.838,0,0,1,.661.059q.338.059.736.167l-.2,1.6a3.8,3.8,0,0,0-.43-.086,3.506,3.506,0,0,0-.494-.032,1.262,1.262,0,0,0-1.112.559,2.827,2.827,0,0,0-.381,1.6V9.377h1.923v1.558H46.669V21Zm9.754.226a4.059,4.059,0,0,1-3.4-1.59,6.569,6.569,0,0,1-1.23-4.136V15A6.819,6.819,0,0,1,50.837,10.8a3.815,3.815,0,0,1,3.2-1.638,3.522,3.522,0,0,1,3.024,1.407A6.239,6.239,0,0,1,58.1,14.351v1.225H51.793a5.739,5.739,0,0,0,.639,2.89,2.113,2.113,0,0,0,1.96,1.106,3.807,3.807,0,0,0,2.836-1.117l.709,1.354a4.633,4.633,0,0,1-1.531,1.01A5.439,5.439,0,0,1,54.243,21.226Zm-.2-10.388a1.709,1.709,0,0,0-1.5.875,5.216,5.216,0,0,0-.7,2.315h4.114v-.247a4.255,4.255,0,0,0-.467-2.127A1.552,1.552,0,0,0,54.039,10.838ZM64.1,19.571a1.716,1.716,0,0,0,1.348-.623,2.479,2.479,0,0,0,.542-1.687H67.96l.021.064A3.591,3.591,0,0,1,66.875,20.1a4.086,4.086,0,0,1-6.091-.51A7.023,7.023,0,0,1,59.614,15.4V15a7.053,7.053,0,0,1,1.171-4.184A3.831,3.831,0,0,1,64.1,9.162a3.682,3.682,0,0,1,2.831,1.176,4.2,4.2,0,0,1,1.058,3.056l-.021.054H65.995a3.157,3.157,0,0,0-.521-1.885,1.611,1.611,0,0,0-1.37-.725,1.829,1.829,0,0,0-1.767,1.182A7.14,7.14,0,0,0,61.794,15V15.4a7.218,7.218,0,0,0,.537,3A1.827,1.827,0,0,0,64.1,19.571ZM72.827,6.487v2.89h1.815v1.558H72.827v6.918a2.269,2.269,0,0,0,.274,1.284.851.851,0,0,0,.725.381,1.751,1.751,0,0,0,.344-.032q.161-.032.376-.1l.226,1.5a3.424,3.424,0,0,1-.693.242,3.379,3.379,0,0,1-.79.091,2.441,2.441,0,0,1-1.955-.811,3.877,3.877,0,0,1-.7-2.562V10.935H69.1V9.377h1.536V6.487ZM78.95,21H76.758V9.377H78.95Zm0-14.674H76.758V4.242H78.95Zm6.08,11.183.183.913h.064l.193-.913L87.5,9.377h2.256L86.211,21H84.267L80.7,9.377h2.277Zm10.345,3.717a4.059,4.059,0,0,1-3.4-1.59,6.569,6.569,0,0,1-1.23-4.136V15A6.819,6.819,0,0,1,91.969,10.8a3.815,3.815,0,0,1,3.2-1.638,3.522,3.522,0,0,1,3.024,1.407,6.239,6.239,0,0,1,1.037,3.781v1.225H92.925a5.739,5.739,0,0,0,.639,2.89,2.113,2.113,0,0,0,1.96,1.106,3.807,3.807,0,0,0,2.836-1.117l.709,1.354a4.633,4.633,0,0,1-1.531,1.01A5.439,5.439,0,0,1,95.375,21.226Zm-.2-10.388a1.709,1.709,0,0,0-1.5.875,5.216,5.216,0,0,0-.7,2.315h4.114v-.247a4.255,4.255,0,0,0-.467-2.127A1.552,1.552,0,0,0,95.17,10.838ZM-64.523,40.571a1.716,1.716,0,0,0,1.348-.623,2.48,2.48,0,0,0,.542-1.687h1.966l.021.064A3.591,3.591,0,0,1-61.751,41.1a3.814,3.814,0,0,1-2.771,1.128,3.839,3.839,0,0,1-3.319-1.638A7.023,7.023,0,0,1-69.013,36.4V36a7.053,7.053,0,0,1,1.171-4.184,3.831,3.831,0,0,1,3.319-1.649,3.682,3.682,0,0,1,2.831,1.176,4.2,4.2,0,0,1,1.058,3.056l-.021.054h-1.977a3.157,3.157,0,0,0-.521-1.885,1.611,1.611,0,0,0-1.37-.725A1.829,1.829,0,0,0-66.29,33.02,7.14,7.14,0,0,0-66.833,36V36.4a7.218,7.218,0,0,0,.537,3A1.827,1.827,0,0,0-64.523,40.571Zm5.479-4.512a6.946,6.946,0,0,1,1.225-4.243,3.955,3.955,0,0,1,3.362-1.654,3.969,3.969,0,0,1,3.368,1.654,6.924,6.924,0,0,1,1.23,4.243v.29a6.893,6.893,0,0,1-1.225,4.238,3.958,3.958,0,0,1-3.352,1.638,3.99,3.99,0,0,1-3.384-1.638,6.893,6.893,0,0,1-1.225-4.238Zm2.191.29a6.747,6.747,0,0,0,.6,3.04,1.932,1.932,0,0,0,1.821,1.182,1.91,1.91,0,0,0,1.789-1.187,6.754,6.754,0,0,0,.6-3.035v-.29a6.716,6.716,0,0,0-.6-3.024,1.927,1.927,0,0,0-1.8-1.2,1.917,1.917,0,0,0-1.8,1.2,6.768,6.768,0,0,0-.6,3.024Zm11.075-5.973.118,1.579a3.615,3.615,0,0,1,1.23-1.327,3.2,3.2,0,0,1,1.735-.467,2.714,2.714,0,0,1,1.676.532,3.18,3.18,0,0,1,1.063,1.617,3.969,3.969,0,0,1,1.23-1.579,2.956,2.956,0,0,1,1.81-.569,2.753,2.753,0,0,1,2.379,1.23,6.547,6.547,0,0,1,.865,3.744V42h-2.191V35.125a5.134,5.134,0,0,0-.451-2.541,1.48,1.48,0,0,0-1.343-.725,1.641,1.641,0,0,0-1.262.559,3.4,3.4,0,0,0-.747,1.472q.011.193.021.4t.011.424V42h-2.181V35.125a5.055,5.055,0,0,0-.462-2.508,1.481,1.481,0,0,0-1.343-.757,1.893,1.893,0,0,0-1.2.387A2.55,2.55,0,0,0-45.6,33.31V42h-2.191V30.377Zm16.618,0,.118,1.579a3.615,3.615,0,0,1,1.23-1.327,3.2,3.2,0,0,1,1.735-.467,2.714,2.714,0,0,1,1.676.532,3.18,3.18,0,0,1,1.063,1.617,3.969,3.969,0,0,1,1.23-1.579,2.956,2.956,0,0,1,1.81-.569,2.753,2.753,0,0,1,2.379,1.23,6.547,6.547,0,0,1,.865,3.744V42h-2.191V35.125a5.134,5.134,0,0,0-.451-2.541,1.48,1.48,0,0,0-1.343-.725,1.641,1.641,0,0,0-1.262.559,3.4,3.4,0,0,0-.747,1.472q.011.193.021.4t.011.424V42H-25.2V35.125a5.055,5.055,0,0,0-.462-2.508A1.481,1.481,0,0,0-27,31.859a1.893,1.893,0,0,0-1.2.387,2.55,2.55,0,0,0-.773,1.063V42h-2.191V30.377ZM-8.288,40.3a3.741,3.741,0,0,1-1.2,1.423,2.934,2.934,0,0,1-1.7.5,2.926,2.926,0,0,1-2.5-1.235,6.54,6.54,0,0,1-.9-3.835V30.377H-12.4v6.8a5.657,5.657,0,0,0,.43,2.616,1.413,1.413,0,0,0,1.311.747,2.413,2.413,0,0,0,1.37-.376,2.523,2.523,0,0,0,.886-1.074V30.377h2.191V42H-8.073Zm6.553-9.926.129,1.729A3.927,3.927,0,0,1-.36,30.672a2.971,2.971,0,0,1,1.708-.51A2.856,2.856,0,0,1,3.76,31.3a5.87,5.87,0,0,1,.865,3.545V42H2.444V34.856a4.345,4.345,0,0,0-.457-2.32,1.553,1.553,0,0,0-1.38-.677,2.127,2.127,0,0,0-1.289.392,2.745,2.745,0,0,0-.859,1.08V42H-3.733V30.377ZM9.448,42H7.256V30.377H9.448Zm0-14.674H7.256V25.242H9.448Zm6.7,13.245a1.716,1.716,0,0,0,1.348-.623,2.479,2.479,0,0,0,.542-1.687h1.966l.021.064A3.591,3.591,0,0,1,18.922,41.1a3.814,3.814,0,0,1-2.771,1.128,3.839,3.839,0,0,1-3.319-1.638A7.023,7.023,0,0,1,11.661,36.4V36a7.053,7.053,0,0,1,1.171-4.184,3.831,3.831,0,0,1,3.319-1.649,3.682,3.682,0,0,1,2.831,1.176,4.2,4.2,0,0,1,1.058,3.056l-.021.054H18.042a3.157,3.157,0,0,0-.521-1.885,1.611,1.611,0,0,0-1.37-.725,1.829,1.829,0,0,0-1.767,1.182A7.14,7.14,0,0,0,13.841,36V36.4a7.218,7.218,0,0,0,.537,3A1.827,1.827,0,0,0,16.151,40.571ZM28.107,42q-.14-.526-.22-.94a5.921,5.921,0,0,1-.1-.822,4.268,4.268,0,0,1-1.219,1.423,2.812,2.812,0,0,1-1.724.564,3.052,3.052,0,0,1-2.39-.924,3.632,3.632,0,0,1-.833-2.524,3.166,3.166,0,0,1,1.155-2.589,4.943,4.943,0,0,1,3.217-.945h1.783V34.051a2.608,2.608,0,0,0-.473-1.66,1.819,1.819,0,0,0-2.616-.081,1.892,1.892,0,0,0-.467,1.321l-2.084.011-.021-.064a2.954,2.954,0,0,1,1.053-2.385,4.137,4.137,0,0,1,2.922-1.031,3.915,3.915,0,0,1,2.8,1.015,3.792,3.792,0,0,1,1.074,2.9v5.393a9.546,9.546,0,0,0,.086,1.294A8.243,8.243,0,0,0,30.32,42Zm-2.814-1.45A2.448,2.448,0,0,0,26.872,40a2.562,2.562,0,0,0,.9-1.337V36.6H25.958a2.006,2.006,0,0,0-1.579.639,2.237,2.237,0,0,0-.569,1.542,2,2,0,0,0,.387,1.289A1.323,1.323,0,0,0,25.292,40.55Zm9.969-13.062v2.89h1.815v1.558H35.261v6.918a2.269,2.269,0,0,0,.274,1.284.851.851,0,0,0,.725.381,1.751,1.751,0,0,0,.344-.032q.161-.032.376-.1l.226,1.5a3.424,3.424,0,0,1-.693.242,3.379,3.379,0,0,1-.79.091,2.441,2.441,0,0,1-1.955-.811,3.877,3.877,0,0,1-.7-2.562V31.935H31.534V30.377H33.07v-2.89ZM41.384,42H39.193V30.377h2.191Zm0-14.674H39.193V25.242h2.191Zm2.224,8.733a6.946,6.946,0,0,1,1.225-4.243,4.249,4.249,0,0,1,6.73,0,6.924,6.924,0,0,1,1.23,4.243v.29a6.893,6.893,0,0,1-1.225,4.238,4.281,4.281,0,0,1-6.735,0,6.893,6.893,0,0,1-1.225-4.238Zm2.191.29a6.747,6.747,0,0,0,.6,3.04,1.932,1.932,0,0,0,1.821,1.182A1.91,1.91,0,0,0,50,39.384a6.754,6.754,0,0,0,.6-3.035v-.29a6.716,6.716,0,0,0-.6-3.024,1.954,1.954,0,0,0-3.6,0,6.768,6.768,0,0,0-.6,3.024Zm11.054-5.973.129,1.729a3.927,3.927,0,0,1,1.246-1.434,2.971,2.971,0,0,1,1.708-.51A2.856,2.856,0,0,1,62.348,31.3a5.87,5.87,0,0,1,.865,3.545V42H61.032V34.856a4.345,4.345,0,0,0-.457-2.32,1.553,1.553,0,0,0-1.38-.677,2.127,2.127,0,0,0-1.289.392,2.745,2.745,0,0,0-.859,1.08V42H54.855V30.377ZM68.132,42h-2.2V39.819h2.2Z" transform="translate(149 184)" fill="#fff"/>
  </g>
</svg>
