<svg xmlns="http://www.w3.org/2000/svg" xmlns:xlink="http://www.w3.org/1999/xlink" width="418" height="482" viewBox="0 0 418 482">
  <defs>
    <clipPath id="clip-FCS-path">
      <rect width="418" height="482"/>
    </clipPath>
  </defs>
  <g id="FCS-path" clip-path="url(#clip-FCS-path)">
    <path id="Trazado_7221" data-name="Trazado 7221" d="M-32.385-14.868H-43.665V0h-6.885V-35.547h20.313v5.4H-43.665v9.912h11.279Zm21.777,5.64a4.9,4.9,0,0,0-1.086-3.357,10.809,10.809,0,0,0-3.894-2.4,25.056,25.056,0,0,1-8.228-4.37A8.651,8.651,0,0,1-26.575-26.2a9,9,0,0,1,3.149-7.117,11.777,11.777,0,0,1,8.032-2.747,11.734,11.734,0,0,1,8.325,2.93,9.933,9.933,0,0,1,3.052,7.861l-.049.146h-6.689a6.242,6.242,0,0,0-1.233-4.187,4.407,4.407,0,0,0-3.528-1.428,3.8,3.8,0,0,0-3.076,1.306,4.89,4.89,0,0,0-1.1,3.259,3.912,3.912,0,0,0,1.245,2.979,16.672,16.672,0,0,0,4.272,2.563,19.915,19.915,0,0,1,7.8,4.321A9.428,9.428,0,0,1-3.723-9.277,8.885,8.885,0,0,1-6.824-2.1,12.346,12.346,0,0,1-15.051.513a13.562,13.562,0,0,1-8.643-2.82q-3.589-2.82-3.467-8.582l.049-.146H-20.4q0,3.345,1.355,4.81a5.172,5.172,0,0,0,3.992,1.465,4.283,4.283,0,0,0,3.333-1.221A4.639,4.639,0,0,0-10.608-9.229Zm34.644-1.807.049.146q.1,5.713-2.917,8.557T12.561.513A12.28,12.28,0,0,1,3.455-2.869Q.085-6.25.085-12.476V-23.022q0-6.2,3.259-9.619a11.587,11.587,0,0,1,8.8-3.418q5.835,0,8.96,2.832t3.027,8.569l-.049.146H17.4q0-3.418-1.208-4.785t-4.041-1.367A4.409,4.409,0,0,0,8.264-28.8Q6.97-26.929,6.97-23.071v10.6q0,3.882,1.392,5.75a4.9,4.9,0,0,0,4.2,1.868,4.532,4.532,0,0,0,3.687-1.355q1.123-1.355,1.123-4.822Zm22.51-17.407-.146-.024-1.9,6.152H42.859l-2.026-6.592-.146.024v6.567H37.732V-35.547h3.613l2.246,8.862h.146l2.271-8.862h3.516v13.232H46.545ZM36.267-33.008H33.679v10.62H30.334v-10.62h-2.49v-2.539h8.423ZM-60.767,39.451H-73.12v-5.4h12.354Zm19.092,0H-54.028v-5.4h12.354Zm19.092,0H-34.937v-5.4h12.354Zm19.092,0H-15.845v-5.4H-3.491Zm19.092,0H3.247v-5.4H15.6Zm19.092,0H22.339v-5.4H34.692Zm19.092,0H41.431v-5.4H53.784Zm19.092,0H60.522v-5.4H72.876ZM-113.861,72.482l.024.073a5.476,5.476,0,0,1-1.459,4.279,6.033,6.033,0,0,1-4.3,1.422,6.14,6.14,0,0,1-4.553-1.691,6.511,6.511,0,0,1-1.685-4.8V66.489a6.691,6.691,0,0,1,1.63-4.81,5.794,5.794,0,0,1,4.4-1.709,6.447,6.447,0,0,1,4.48,1.416,5.365,5.365,0,0,1,1.514,4.285l-.024.073h-3.345a3.642,3.642,0,0,0-.6-2.393,2.581,2.581,0,0,0-2.02-.684,2.2,2.2,0,0,0-1.941.934,5.074,5.074,0,0,0-.647,2.863v5.3a4.818,4.818,0,0,0,.7,2.875,2.45,2.45,0,0,0,2.1.934,2.266,2.266,0,0,0,1.843-.677,3.872,3.872,0,0,0,.562-2.411Zm7.019,5.774a4.888,4.888,0,0,1-4.053-1.807,7.231,7.231,0,0,1-1.44-4.651v-.5a8,8,0,0,1,1.385-4.871,4.563,4.563,0,0,1,3.9-1.88,4.264,4.264,0,0,1,3.577,1.6,6.9,6.9,0,0,1,1.245,4.346v1.88h-6.665a4.64,4.64,0,0,0,.665,2.332,2,2,0,0,0,1.788.867,5.313,5.313,0,0,0,1.715-.238,6.967,6.967,0,0,0,1.483-.751l.891,2.148a5.707,5.707,0,0,1-1.91,1.086A7.463,7.463,0,0,1-106.842,78.256Zm-.208-11.011a1.378,1.378,0,0,0-1.288.763,5.278,5.278,0,0,0-.531,2.094h3.271V69.8a4.281,4.281,0,0,0-.336-1.88A1.155,1.155,0,0,0-107.05,67.246Zm9.741-2.454.146,1.843A4.488,4.488,0,0,1-95.789,65.1a3.162,3.162,0,0,1,1.813-.549,3.092,3.092,0,0,1,2.643,1.312,7.047,7.047,0,0,1,.958,4.12V78h-3.442V69.98a4.453,4.453,0,0,0-.36-2.106,1.183,1.183,0,0,0-1.093-.616,2,2,0,0,0-1.031.269,2.329,2.329,0,0,0-.775.757V78h-3.442V64.792Zm13.184-3.284v3.284h1.794v2.454h-1.794v6.726a2.189,2.189,0,0,0,.244,1.2.773.773,0,0,0,.671.354,2.194,2.194,0,0,0,.4-.031,3.6,3.6,0,0,0,.391-.1l.269,2.539a6.043,6.043,0,0,1-.934.25,5.779,5.779,0,0,1-1.007.079,3.247,3.247,0,0,1-2.582-1.025,4.838,4.838,0,0,1-.9-3.235v-6.75h-1.6V64.792h1.6V61.508Zm9.875,6.262-1.172-.037a1.493,1.493,0,0,0-.958.305,1.93,1.93,0,0,0-.592.854V78H-80.4V64.792h3.21l.134,1.868a4.065,4.065,0,0,1,.97-1.556,1.932,1.932,0,0,1,1.361-.555,2,2,0,0,1,.427.043q.2.043.4.1ZM-66.034,78a5.81,5.81,0,0,1-.323-.952A8.089,8.089,0,0,1-66.547,76,4.673,4.673,0,0,1-67.7,77.622a2.542,2.542,0,0,1-1.752.635A3.583,3.583,0,0,1-72.229,77.2a4.121,4.121,0,0,1-.97-2.9,3.693,3.693,0,0,1,1.276-3,5.828,5.828,0,0,1,3.815-1.068h1.5v-1.1a2.662,2.662,0,0,0-.366-1.52,1.234,1.234,0,0,0-1.086-.531,1.144,1.144,0,0,0-.964.427,1.964,1.964,0,0,0-.33,1.221l-3.32-.012-.024-.073a3.519,3.519,0,0,1,1.282-2.905,5.206,5.206,0,0,1,3.577-1.2,4.783,4.783,0,0,1,3.381,1.2,4.424,4.424,0,0,1,1.294,3.418v5.42a11.006,11.006,0,0,0,.134,1.758A10.32,10.32,0,0,0-62.616,78Zm-2.527-2.295a1.926,1.926,0,0,0,1.221-.421,2.115,2.115,0,0,0,.732-1.019V72.189h-1.5a1.439,1.439,0,0,0-1.263.562,2.4,2.4,0,0,0-.4,1.416,1.768,1.768,0,0,0,.33,1.111A1.054,1.054,0,0,0-68.561,75.705ZM-57.343,78h-3.442V58.957h3.442Zm7.532-6.531a9.559,9.559,0,0,1,1.16-5.017,3.646,3.646,0,0,1,3.284-1.9,2.768,2.768,0,0,1,1.434.378A3.789,3.789,0,0,1-42.792,66V58.957h3.442V78h-2.942l-.256-1.489a3.918,3.918,0,0,1-1.233,1.3,2.961,2.961,0,0,1-1.611.446,3.674,3.674,0,0,1-3.259-1.788,8.6,8.6,0,0,1-1.16-4.742Zm3.418.256a7.284,7.284,0,0,0,.439,2.814A1.5,1.5,0,0,0-44.5,75.559a1.882,1.882,0,0,0,.995-.262,2,2,0,0,0,.714-.775V68.454a2.358,2.358,0,0,0-.72-.879,1.629,1.629,0,0,0-.977-.317,1.532,1.532,0,0,0-1.453,1.16,8.562,8.562,0,0,0-.452,3.052Zm14.4,6.531a4.888,4.888,0,0,1-4.053-1.807,7.231,7.231,0,0,1-1.44-4.651v-.5A8,8,0,0,1-36.1,66.428a4.563,4.563,0,0,1,3.9-1.88,4.264,4.264,0,0,1,3.577,1.6,6.9,6.9,0,0,1,1.245,4.346v1.88h-6.665a4.64,4.64,0,0,0,.665,2.332,2,2,0,0,0,1.788.867,5.313,5.313,0,0,0,1.715-.238,6.967,6.967,0,0,0,1.483-.751l.891,2.148a5.707,5.707,0,0,1-1.91,1.086A7.463,7.463,0,0,1-31.989,78.256ZM-32.2,67.246a1.378,1.378,0,0,0-1.288.763,5.278,5.278,0,0,0-.531,2.094h3.271V69.8a4.281,4.281,0,0,0-.336-1.88A1.155,1.155,0,0,0-32.2,67.246Zm21.216,2.905h-5.432v5.164h6.506V78h-9.949V60.227H-9.93v2.7h-6.482v4.541h5.432Zm6.25-5.359.134,1.7a4.025,4.025,0,0,1,1.349-1.434,3.442,3.442,0,0,1,1.862-.507,3,3,0,0,1,1.794.543,3.378,3.378,0,0,1,1.16,1.654,4.3,4.3,0,0,1,1.349-1.617,3.256,3.256,0,0,1,1.923-.58,3.031,3.031,0,0,1,2.625,1.392,7.547,7.547,0,0,1,.964,4.26V78H4.987V70.2a5.206,5.206,0,0,0-.354-2.307,1.164,1.164,0,0,0-1.086-.635,1.545,1.545,0,0,0-.952.311,2.327,2.327,0,0,0-.684.861q.012.305.031.525t.018.439V78h-3.43V70.2A5.216,5.216,0,0,0-1.825,67.9a1.17,1.17,0,0,0-1.1-.647,1.646,1.646,0,0,0-.9.25,2.156,2.156,0,0,0-.677.7V78H-7.941V64.792Zm25.94,6.934a8.57,8.57,0,0,1-1.166,4.742,3.688,3.688,0,0,1-3.265,1.788,3.188,3.188,0,0,1-1.489-.336,3.252,3.252,0,0,1-1.123-.983v6.14h-3.43V64.792h3.149l.146,1.355a3.671,3.671,0,0,1,1.16-1.184,2.91,2.91,0,0,1,1.563-.415,3.66,3.66,0,0,1,3.29,1.9,9.519,9.519,0,0,1,1.166,5.017Zm-3.442-.256a8.356,8.356,0,0,0-.464-3.052,1.54,1.54,0,0,0-1.44-1.16,1.722,1.722,0,0,0-1.013.3,2.094,2.094,0,0,0-.684.836v6.226a1.791,1.791,0,0,0,.684.708,2.034,2.034,0,0,0,1.025.244,1.5,1.5,0,0,0,1.447-1.019,7.233,7.233,0,0,0,.446-2.826ZM29.633,78a5.811,5.811,0,0,1-.323-.952A8.09,8.09,0,0,1,29.12,76a4.673,4.673,0,0,1-1.154,1.624,2.542,2.542,0,0,1-1.752.635A3.583,3.583,0,0,1,23.438,77.2a4.121,4.121,0,0,1-.97-2.9,3.693,3.693,0,0,1,1.276-3,5.828,5.828,0,0,1,3.815-1.068h1.5v-1.1a2.662,2.662,0,0,0-.366-1.52,1.234,1.234,0,0,0-1.086-.531,1.144,1.144,0,0,0-.964.427,1.964,1.964,0,0,0-.33,1.221l-3.32-.012-.024-.073a3.519,3.519,0,0,1,1.282-2.905,5.206,5.206,0,0,1,3.577-1.2,4.783,4.783,0,0,1,3.381,1.2A4.424,4.424,0,0,1,32.5,69.162v5.42a11.006,11.006,0,0,0,.134,1.758A10.32,10.32,0,0,0,33.051,78Zm-2.527-2.295a1.926,1.926,0,0,0,1.221-.421,2.115,2.115,0,0,0,.732-1.019V72.189h-1.5a1.439,1.439,0,0,0-1.263.562,2.4,2.4,0,0,0-.4,1.416,1.768,1.768,0,0,0,.33,1.111A1.054,1.054,0,0,0,27.106,75.705Zm7.153-4.236a9.559,9.559,0,0,1,1.16-5.017,3.646,3.646,0,0,1,3.284-1.9,2.87,2.87,0,0,1,1.587.439,3.919,3.919,0,0,1,1.2,1.27l.269-1.465h2.954V83.078H41.254V76.962a3.368,3.368,0,0,1-1.129.964,3.117,3.117,0,0,1-1.447.33,3.674,3.674,0,0,1-3.259-1.788,8.6,8.6,0,0,1-1.16-4.742Zm3.418.256a7.323,7.323,0,0,0,.439,2.826,1.5,1.5,0,0,0,1.453,1.019,2,2,0,0,0,.989-.232,1.926,1.926,0,0,0,.7-.684V68.32a2.222,2.222,0,0,0-.7-.793,1.7,1.7,0,0,0-.977-.281,1.534,1.534,0,0,0-1.453,1.166,8.614,8.614,0,0,0-.452,3.058ZM53.9,76.12A4.257,4.257,0,0,1,52.588,77.7a3.086,3.086,0,0,1-1.825.555,3.256,3.256,0,0,1-2.8-1.428,7.668,7.668,0,0,1-1.019-4.419V64.792h3.442v7.642a5.934,5.934,0,0,0,.348,2.448,1.151,1.151,0,0,0,1.093.677,2.319,2.319,0,0,0,1.05-.226,2.1,2.1,0,0,0,.769-.665V64.792H57.1V78h-2.82Zm10.486,2.136a4.888,4.888,0,0,1-4.053-1.807,7.231,7.231,0,0,1-1.44-4.651v-.5a8,8,0,0,1,1.385-4.871,4.563,4.563,0,0,1,3.9-1.88,4.264,4.264,0,0,1,3.577,1.6A6.9,6.9,0,0,1,69,70.493v1.88H62.335A4.64,4.64,0,0,0,63,74.7a2,2,0,0,0,1.788.867,5.313,5.313,0,0,0,1.715-.238,6.967,6.967,0,0,0,1.483-.751l.891,2.148a5.707,5.707,0,0,1-1.91,1.086A7.463,7.463,0,0,1,64.386,78.256Zm-.208-11.011a1.378,1.378,0,0,0-1.288.763A5.278,5.278,0,0,0,62.36,70.1h3.271V69.8a4.281,4.281,0,0,0-.336-1.88A1.155,1.155,0,0,0,64.178,67.246Zm12.463,7.312a1.311,1.311,0,0,0-.452-1,7.42,7.42,0,0,0-1.746-1.013,9.242,9.242,0,0,1-3.027-1.7A3.149,3.149,0,0,1,70.4,68.43a3.533,3.533,0,0,1,1.288-2.747A4.971,4.971,0,0,1,75.1,64.548a5.14,5.14,0,0,1,3.546,1.178A3.629,3.629,0,0,1,79.913,68.7l-.024.073h-3.32a2.232,2.232,0,0,0-.366-1.337,1.28,1.28,0,0,0-1.111-.507,1.4,1.4,0,0,0-1.007.391,1.267,1.267,0,0,0-.409.952,1.208,1.208,0,0,0,.4.946,8.4,8.4,0,0,0,1.758.995A8.543,8.543,0,0,1,78.943,71.9a3.323,3.323,0,0,1,1.019,2.521,3.371,3.371,0,0,1-1.349,2.759,5.544,5.544,0,0,1-3.558,1.074,4.984,4.984,0,0,1-3.65-1.318,3.877,3.877,0,0,1-1.282-2.991l.037-.073h3.125a2.144,2.144,0,0,0,.513,1.544,1.856,1.856,0,0,0,1.343.47,1.576,1.576,0,0,0,1.117-.36A1.266,1.266,0,0,0,76.642,74.558Zm18.689-1.172a2.449,2.449,0,0,0-.543-1.678,5.4,5.4,0,0,0-1.947-1.2,12.528,12.528,0,0,1-4.114-2.185A4.325,4.325,0,0,1,87.347,64.9a4.5,4.5,0,0,1,1.575-3.558,6.6,6.6,0,0,1,8.179.092,4.966,4.966,0,0,1,1.526,3.931l-.024.073H95.258a3.121,3.121,0,0,0-.616-2.094,2.2,2.2,0,0,0-1.764-.714,1.9,1.9,0,0,0-1.538.653,2.445,2.445,0,0,0-.549,1.63,1.956,1.956,0,0,0,.623,1.489,8.336,8.336,0,0,0,2.136,1.282,9.958,9.958,0,0,1,3.9,2.161,4.714,4.714,0,0,1,1.324,3.516,4.442,4.442,0,0,1-1.55,3.589,6.173,6.173,0,0,1-4.114,1.306,6.781,6.781,0,0,1-4.321-1.41,4.976,4.976,0,0,1-1.733-4.291l.024-.073h3.357a3.487,3.487,0,0,0,.677,2.4,2.586,2.586,0,0,0,2,.732,2.141,2.141,0,0,0,1.666-.61A2.319,2.319,0,0,0,95.331,73.386ZM104.572,78h-3.394V74.912h3.394Zm10.974-3.845H111.1L110.1,78h-3.589l5.042-17.773h3.564L120.16,78h-3.6Zm-3.735-2.71h3.027l-1.477-5.64h-.073ZM125.153,78h-3.394V74.912h3.394Zm-174.53,23.571a1.267,1.267,0,0,0,1.111-.543,2.706,2.706,0,0,0,.378-1.556h3.113l.037.073a4.467,4.467,0,0,1-1.288,3.387,4.541,4.541,0,0,1-3.351,1.324,4.654,4.654,0,0,1-3.973-1.862,7.858,7.858,0,0,1-1.385-4.816v-.354a7.869,7.869,0,0,1,1.385-4.8,4.63,4.63,0,0,1,3.961-1.874,4.429,4.429,0,0,1,3.418,1.373,5.118,5.118,0,0,1,1.233,3.7l-.024.061h-3.125a3.593,3.593,0,0,0-.378-1.77,1.216,1.216,0,0,0-1.123-.671,1.5,1.5,0,0,0-1.489,1.093,8.3,8.3,0,0,0-.415,2.887v.354a8.31,8.31,0,0,0,.415,2.917A1.505,1.505,0,0,0-49.377,101.571Zm11.438,2.686a4.888,4.888,0,0,1-4.053-1.807,7.231,7.231,0,0,1-1.44-4.651v-.5a8,8,0,0,1,1.385-4.871,4.563,4.563,0,0,1,3.9-1.88,4.264,4.264,0,0,1,3.577,1.6,6.9,6.9,0,0,1,1.245,4.346v1.88H-39.99a4.64,4.64,0,0,0,.665,2.332,2,2,0,0,0,1.788.867,5.313,5.313,0,0,0,1.715-.238,6.967,6.967,0,0,0,1.483-.751l.891,2.148a5.707,5.707,0,0,1-1.91,1.086A7.463,7.463,0,0,1-37.939,104.256Zm-.208-11.011a1.378,1.378,0,0,0-1.288.763,5.278,5.278,0,0,0-.531,2.094h3.271V95.8a4.281,4.281,0,0,0-.336-1.88A1.155,1.155,0,0,0-38.147,93.246Zm12.744.525-1.172-.037a1.493,1.493,0,0,0-.958.305,1.93,1.93,0,0,0-.592.854V104h-3.43V90.792h3.21l.134,1.868a4.065,4.065,0,0,1,.97-1.556,1.932,1.932,0,0,1,1.361-.555,2,2,0,0,1,.427.043q.2.043.4.1Zm5.859-6.262v3.284h1.794v2.454h-1.794v6.726a2.189,2.189,0,0,0,.244,1.2.773.773,0,0,0,.671.354,2.194,2.194,0,0,0,.4-.031,3.6,3.6,0,0,0,.391-.1l.269,2.539a6.043,6.043,0,0,1-.934.25,5.779,5.779,0,0,1-1.007.079,3.247,3.247,0,0,1-2.582-1.025,4.838,4.838,0,0,1-.9-3.235v-6.75h-1.6V90.792h1.6V87.508ZM-12.219,104h-3.442V90.792h3.442Zm0-16.418h-3.442V84.957h3.442ZM-9.021,104V93.246h-1.648V90.792h1.648v-.9A5.139,5.139,0,0,1-7.648,86.05,5.3,5.3,0,0,1-3.772,84.7a8.022,8.022,0,0,1,1.709.183,17.222,17.222,0,0,1,1.88.537L-.659,88.18a13.487,13.487,0,0,0-1.4-.421,6.525,6.525,0,0,0-1.489-.153,1.9,1.9,0,0,0-1.514.586,2.5,2.5,0,0,0-.513,1.7v.9h2.161v2.454H-5.579V104ZM1.4,104H-2.051V90.792H1.4Zm7.507.256a4.888,4.888,0,0,1-4.053-1.807A7.231,7.231,0,0,1,3.418,97.8v-.5A8,8,0,0,1,4.8,92.428a4.563,4.563,0,0,1,3.9-1.88,4.264,4.264,0,0,1,3.577,1.6,6.9,6.9,0,0,1,1.245,4.346v1.88H6.86a4.64,4.64,0,0,0,.665,2.332,2,2,0,0,0,1.788.867,5.313,5.313,0,0,0,1.715-.238,6.967,6.967,0,0,0,1.483-.751l.891,2.148a5.707,5.707,0,0,1-1.91,1.086A7.463,7.463,0,0,1,8.911,104.256ZM8.7,93.246a1.378,1.378,0,0,0-1.288.763A5.278,5.278,0,0,0,6.885,96.1h3.271V95.8a4.281,4.281,0,0,0-.336-1.88A1.155,1.155,0,0,0,8.7,93.246Zm6.128,4.224a9.559,9.559,0,0,1,1.16-5.017,3.646,3.646,0,0,1,3.284-1.9,2.768,2.768,0,0,1,1.434.378A3.789,3.789,0,0,1,21.851,92V84.957h3.442V104H22.351l-.256-1.489a3.918,3.918,0,0,1-1.233,1.3,2.961,2.961,0,0,1-1.611.446,3.674,3.674,0,0,1-3.259-1.788,8.6,8.6,0,0,1-1.16-4.742Zm3.418.256a7.284,7.284,0,0,0,.439,2.814,1.5,1.5,0,0,0,1.453,1.019,1.882,1.882,0,0,0,.995-.262,2,2,0,0,0,.714-.775V94.454a2.358,2.358,0,0,0-.72-.879,1.629,1.629,0,0,0-.977-.317,1.532,1.532,0,0,0-1.453,1.16,8.562,8.562,0,0,0-.452,3.052Zm25.354,0a8.769,8.769,0,0,1-1.129,4.761,3.675,3.675,0,0,1-3.3,1.77,3.051,3.051,0,0,1-1.66-.446,3.735,3.735,0,0,1-1.208-1.288L36.072,104H33.13V84.957h3.43v7.007a3.431,3.431,0,0,1,1.123-1.05,2.946,2.946,0,0,1,1.477-.366,3.636,3.636,0,0,1,3.314,1.88A9.742,9.742,0,0,1,43.6,97.469Zm-3.442-.256a9.436,9.436,0,0,0-.4-3.1,1.483,1.483,0,0,0-1.477-1.111,1.745,1.745,0,0,0-1.031.305,2.105,2.105,0,0,0-.69.854v6.14a1.783,1.783,0,0,0,.684.751,2.046,2.046,0,0,0,1.05.25,1.458,1.458,0,0,0,1.477-.977,8.051,8.051,0,0,0,.391-2.856Zm9.412,1.2V98.7h.073l1.978-7.91h3.7l-4.553,15.2a7.149,7.149,0,0,1-1.343,2.386,3.251,3.251,0,0,1-2.576.958,3.656,3.656,0,0,1-.739-.067q-.323-.067-.909-.214l.415-2.527.262.049a1.336,1.336,0,0,0,.25.024,1.522,1.522,0,0,0,1.154-.415,2.485,2.485,0,0,0,.58-1.086l.33-1.013L44.214,90.792h3.7ZM-23,146.771a4.9,4.9,0,0,0-1.086-3.357,10.809,10.809,0,0,0-3.894-2.4,25.056,25.056,0,0,1-8.228-4.37,8.651,8.651,0,0,1-2.759-6.836,9,9,0,0,1,3.149-7.117,11.777,11.777,0,0,1,8.032-2.747,11.734,11.734,0,0,1,8.325,2.93,9.933,9.933,0,0,1,3.052,7.861l-.049.146h-6.689a6.242,6.242,0,0,0-1.233-4.187,4.407,4.407,0,0,0-3.528-1.428,3.8,3.8,0,0,0-3.076,1.306,4.89,4.89,0,0,0-1.1,3.259,3.912,3.912,0,0,0,1.245,2.979,16.672,16.672,0,0,0,4.272,2.563,19.915,19.915,0,0,1,7.8,4.321,9.428,9.428,0,0,1,2.649,7.031,8.885,8.885,0,0,1-3.1,7.178,12.346,12.346,0,0,1-8.228,2.612,13.562,13.562,0,0,1-8.643-2.82q-3.589-2.82-3.467-8.582l.049-.146h6.714q0,3.345,1.355,4.81a5.172,5.172,0,0,0,3.992,1.465,4.283,4.283,0,0,0,3.333-1.221A4.639,4.639,0,0,0-23,146.771Zm35.156,4.541a12.493,12.493,0,0,1-4.382,3.662,15.628,15.628,0,0,1-7.41,1.538,12.746,12.746,0,0,1-9.241-3.357q-3.479-3.357-3.479-9.534V132.831q0-6.152,3.381-9.521A12.12,12.12,0,0,1-.024,119.94q5.811,0,8.765,2.747t2.856,7.825l-.049.146H5.078a5.693,5.693,0,0,0-1.221-4.053,4.893,4.893,0,0,0-3.687-1.27,5.024,5.024,0,0,0-4.15,1.855,8.818,8.818,0,0,0-1.489,5.591v10.84q0,3.809,1.514,5.664a5.258,5.258,0,0,0,4.321,1.855,8.429,8.429,0,0,0,3.149-.476,4.221,4.221,0,0,0,1.758-1.257V142.23H-.146V137.47h12.3Zm20.63-4.541a4.9,4.9,0,0,0-1.086-3.357,10.809,10.809,0,0,0-3.894-2.4,25.056,25.056,0,0,1-8.228-4.37,8.651,8.651,0,0,1-2.759-6.836,9,9,0,0,1,3.149-7.117A11.777,11.777,0,0,1,28,119.94a11.734,11.734,0,0,1,8.325,2.93,9.933,9.933,0,0,1,3.052,7.861l-.049.146H32.642a6.242,6.242,0,0,0-1.233-4.187,4.407,4.407,0,0,0-3.528-1.428,3.8,3.8,0,0,0-3.076,1.306,4.89,4.89,0,0,0-1.1,3.259,3.912,3.912,0,0,0,1.245,2.979,16.672,16.672,0,0,0,4.272,2.563,19.915,19.915,0,0,1,7.8,4.321,9.428,9.428,0,0,1,2.649,7.031,8.885,8.885,0,0,1-3.1,7.178,12.346,12.346,0,0,1-8.228,2.612,13.562,13.562,0,0,1-8.643-2.82q-3.589-2.82-3.467-8.582l.049-.146H23q0,3.345,1.355,4.81a5.172,5.172,0,0,0,3.992,1.465,4.283,4.283,0,0,0,3.333-1.221A4.639,4.639,0,0,0,32.788,146.771Z" transform="translate(209 243)" fill="#5e5b5c" opacity="0.4"/>
    <g id="Trazado_7220" data-name="Trazado 7220" transform="translate(56 127)" fill="none">
      <path d="M68,0H239a68,68,0,0,1,68,68V253a68,68,0,0,1-68,68H68A68,68,0,0,1,0,253V68A68,68,0,0,1,68,0Z" stroke="none"/>
      <path d="M 68 2 C 59.08917236328125 2 50.44595336914063 3.7447509765625 42.3104248046875 7.185791015625 C 38.40008544921875 8.8397216796875 34.62841796875 10.886962890625 31.10015869140625 13.27056884765625 C 27.60491943359375 15.63192749023438 24.31808471679688 18.34384155273438 21.33096313476563 21.33096313476563 C 18.34384155273438 24.31808471679688 15.63192749023438 27.60491943359375 13.27056884765625 31.10015869140625 C 10.886962890625 34.62841796875 8.8397216796875 38.40008544921875 7.185791015625 42.3104248046875 C 3.7447509765625 50.44595336914063 2 59.08917236328125 2 68 L 2 253 C 2 261.9108276367188 3.7447509765625 270.5540466308594 7.185791015625 278.6895446777344 C 8.8397216796875 282.5998840332031 10.886962890625 286.37158203125 13.27056884765625 289.8998413085938 C 15.63192749023438 293.3950805664063 18.34384155273438 296.6819152832031 21.33096313476563 299.6690368652344 C 24.31808471679688 302.6561584472656 27.60491943359375 305.3680725097656 31.10015869140625 307.7294311523438 C 34.62841796875 310.113037109375 38.40008544921875 312.1602783203125 42.3104248046875 313.814208984375 C 50.44595336914063 317.2552490234375 59.08917236328125 319 68 319 L 239 319 C 247.9108276367188 319 256.5540466308594 317.2552490234375 264.6895446777344 313.814208984375 C 268.5998840332031 312.1602783203125 272.37158203125 310.113037109375 275.8998413085938 307.7294311523438 C 279.3950805664063 305.3680725097656 282.6819152832031 302.6561584472656 285.6690368652344 299.6690368652344 C 288.6561584472656 296.6819152832031 291.3680725097656 293.3950805664063 293.7294311523438 289.8998413085938 C 296.113037109375 286.37158203125 298.1602783203125 282.5998840332031 299.814208984375 278.6895446777344 C 303.2552490234375 270.5540466308594 305 261.9108276367188 305 253 L 305 68 C 305 59.08917236328125 303.2552490234375 50.44595336914063 299.814208984375 42.3104248046875 C 298.1602783203125 38.40008544921875 296.113037109375 34.62841796875 293.7294311523438 31.10015869140625 C 291.3680725097656 27.60491943359375 288.6561584472656 24.31808471679688 285.6690368652344 21.33096313476563 C 282.6819152832031 18.34384155273438 279.3950805664063 15.63192749023438 275.8998413085938 13.27056884765625 C 272.37158203125 10.886962890625 268.5998840332031 8.8397216796875 264.6895446777344 7.185791015625 C 256.5540466308594 3.7447509765625 247.9108276367188 2 239 2 L 68 2 M 68 0 L 239 0 C 276.5553283691406 0 307 30.44461059570313 307 68 L 307 253 C 307 290.5553283691406 276.5553283691406 321 239 321 L 68 321 C 30.44461059570313 321 0 290.5553283691406 0 253 L 0 68 C 0 30.44461059570313 30.44461059570313 0 68 0 Z" stroke="none" fill="#a2a2a2"/>
    </g>
    <path id="Trazado_7222" data-name="Trazado 7222" d="M-104.714-6.621l.029.088a6.572,6.572,0,0,1-1.75,5.134A7.239,7.239,0,0,1-111.6.308a7.368,7.368,0,0,1-5.464-2.029,7.814,7.814,0,0,1-2.021-5.764v-6.328a8.029,8.029,0,0,1,1.956-5.771,6.952,6.952,0,0,1,5.281-2.051,7.736,7.736,0,0,1,5.376,1.7,6.438,6.438,0,0,1,1.816,5.142l-.029.088H-108.7a4.37,4.37,0,0,0-.725-2.871,3.1,3.1,0,0,0-2.424-.82,2.645,2.645,0,0,0-2.329,1.121,6.089,6.089,0,0,0-.776,3.435v6.357a5.781,5.781,0,0,0,.835,3.45,2.94,2.94,0,0,0,2.52,1.121,2.719,2.719,0,0,0,2.212-.813,4.646,4.646,0,0,0,.674-2.893ZM-86.975,0h-4.116V-8.892h-6.87V0h-4.131V-21.328h4.131v9.214h6.87v-9.214h4.116Zm13.022-4.614h-5.332L-80.486,0h-4.307l6.05-21.328h4.277L-68.416,0h-4.321Zm-4.482-3.252H-74.8l-1.772-6.768h-.088ZM-62.351,0h-4.116V-21.328h4.116ZM-43.7,0h-4.131L-54.6-13.608l-.088.015V0h-4.131V-21.328h4.131l6.768,13.623.088-.015V-21.328H-43.7Zm25.049-7.676A7.908,7.908,0,0,1-20.779-1.8,7.672,7.672,0,0,1-26.433.308,7.622,7.622,0,0,1-32.073-1.8a7.94,7.94,0,0,1-2.109-5.874v-5.947a8.012,8.012,0,0,1,2.1-5.881,7.553,7.553,0,0,1,5.632-2.131A7.652,7.652,0,0,1-20.786-19.5a7.948,7.948,0,0,1,2.131,5.881Zm-4.116-5.991a5.56,5.56,0,0,0-.945-3.516,3.286,3.286,0,0,0-2.732-1.187,3.208,3.208,0,0,0-2.71,1.179,5.72,5.72,0,0,0-.908,3.523v5.991a5.776,5.776,0,0,0,.916,3.56A3.22,3.22,0,0,0-26.433-2.93,3.261,3.261,0,0,0-23.7-4.116a5.708,5.708,0,0,0,.93-3.56Zm17.9,4.746h-6.768V0h-4.131V-21.328H-3.582v3.237h-8.057v5.947h6.768ZM19.4-6.621l.029.088A6.572,6.572,0,0,1,17.681-1.4,7.239,7.239,0,0,1,12.517.308,7.368,7.368,0,0,1,7.053-1.721,7.814,7.814,0,0,1,5.032-7.485v-6.328a8.029,8.029,0,0,1,1.956-5.771,6.952,6.952,0,0,1,5.281-2.051,7.736,7.736,0,0,1,5.376,1.7,6.438,6.438,0,0,1,1.816,5.142l-.029.088H15.417a4.37,4.37,0,0,0-.725-2.871,3.1,3.1,0,0,0-2.424-.82,2.645,2.645,0,0,0-2.329,1.121,6.089,6.089,0,0,0-.776,3.435v6.357A5.781,5.781,0,0,0,10-4.036a2.94,2.94,0,0,0,2.52,1.121,2.719,2.719,0,0,0,2.212-.813A4.646,4.646,0,0,0,15.4-6.621Zm17.5-14.707V-7.4a7.554,7.554,0,0,1-2.087,5.669A7.463,7.463,0,0,1,29.377.308a7.4,7.4,0,0,1-5.42-2.043A7.575,7.575,0,0,1,21.877-7.4V-21.328h4.116V-7.4A5.282,5.282,0,0,0,26.9-4.065a2.985,2.985,0,0,0,2.476,1.15,3,3,0,0,0,2.5-1.143,5.307,5.307,0,0,0,.9-3.34V-21.328ZM49.431-5.537a2.939,2.939,0,0,0-.652-2.014,6.485,6.485,0,0,0-2.336-1.443,15.034,15.034,0,0,1-4.937-2.622,5.19,5.19,0,0,1-1.655-4.1,5.4,5.4,0,0,1,1.89-4.27,7.066,7.066,0,0,1,4.819-1.648,7.04,7.04,0,0,1,5,1.758,5.96,5.96,0,0,1,1.831,4.717l-.029.088H49.343a3.745,3.745,0,0,0-.74-2.512,2.644,2.644,0,0,0-2.117-.857,2.28,2.28,0,0,0-1.846.784,2.934,2.934,0,0,0-.659,1.956,2.347,2.347,0,0,0,.747,1.787,10,10,0,0,0,2.563,1.538,11.949,11.949,0,0,1,4.68,2.593,5.657,5.657,0,0,1,1.589,4.219A5.331,5.331,0,0,1,51.7-1.26,7.407,7.407,0,0,1,46.765.308,8.137,8.137,0,0,1,41.58-1.384,5.972,5.972,0,0,1,39.5-6.533l.029-.088h4.028a4.185,4.185,0,0,0,.813,2.886,3.1,3.1,0,0,0,2.4.879,2.57,2.57,0,0,0,2-.732A2.783,2.783,0,0,0,49.431-5.537ZM69.075-18.091h-5.01V0H59.919V-18.091H55.042v-3.237H69.075ZM85.818-7.676A7.908,7.908,0,0,1,83.694-1.8,7.672,7.672,0,0,1,78.04.308,7.622,7.622,0,0,1,72.4-1.8a7.94,7.94,0,0,1-2.109-5.874v-5.947a8.012,8.012,0,0,1,2.1-5.881,7.553,7.553,0,0,1,5.632-2.131A7.652,7.652,0,0,1,83.687-19.5a7.948,7.948,0,0,1,2.131,5.881ZM81.7-13.667a5.56,5.56,0,0,0-.945-3.516,3.286,3.286,0,0,0-2.732-1.187,3.208,3.208,0,0,0-2.71,1.179,5.72,5.72,0,0,0-.908,3.523v5.991a5.776,5.776,0,0,0,.916,3.56A3.22,3.22,0,0,0,78.04-2.93a3.261,3.261,0,0,0,2.732-1.187,5.708,5.708,0,0,0,.93-3.56ZM88.7,0V-21.328h6.577a7.017,7.017,0,0,1,5.522,2.5,9.384,9.384,0,0,1,2.183,6.409v3.53A9.35,9.35,0,0,1,100.8-2.483,7.035,7.035,0,0,1,95.281,0Zm4.131-18.091V-3.223h2.446A2.942,2.942,0,0,0,97.859-4.8a7.651,7.651,0,0,0,.981-4.087v-3.56a7.589,7.589,0,0,0-.981-4.058,2.942,2.942,0,0,0-2.578-1.582Zm19.087,6.035h.088l3.677-9.272H120.2L113.972-7.6V0h-4.116V-7.866l-6.108-13.462h4.512ZM-130.217,39.492h.088l4-15.82h5.405V45h-4.1V31.567l-.088-.015L-128.767,45h-2.769l-3.823-13.345-.088.015V45h-4.116V23.672h5.376Zm22.427.894h-5.332l-1.2,4.614h-4.307l6.05-21.328h4.277L-102.253,45h-4.321Zm-4.482-3.252h3.633l-1.772-6.768h-.088ZM-85.422,45h-4.131l-6.768-13.608-.088.015V45h-4.131V23.672h4.131l6.768,13.623.088-.015V23.672h4.131Zm13.008-4.614h-5.332L-78.948,45h-4.307l6.05-21.328h4.277L-66.877,45H-71.2ZM-76.9,37.134h3.633l-1.772-6.768h-.088Zm25.854,5.054a7.5,7.5,0,0,1-2.629,2.2,9.377,9.377,0,0,1-4.446.923,7.648,7.648,0,0,1-5.544-2.014,7.579,7.579,0,0,1-2.087-5.72V31.1a7.709,7.709,0,0,1,2.029-5.713,7.272,7.272,0,0,1,5.369-2.021,7.471,7.471,0,0,1,5.259,1.648,5.928,5.928,0,0,1,1.714,4.695l-.029.088h-3.882a3.416,3.416,0,0,0-.732-2.432,2.936,2.936,0,0,0-2.212-.762,3.014,3.014,0,0,0-2.49,1.113,5.291,5.291,0,0,0-.894,3.354v6.5a5.31,5.31,0,0,0,.908,3.4,3.155,3.155,0,0,0,2.593,1.113,5.057,5.057,0,0,0,1.89-.286,2.532,2.532,0,0,0,1.055-.754V36.738h-3.252V33.882h7.383Zm13.623-6.606h-6.519v6.2h7.808V45H-48.069V23.672H-36.16v3.237h-7.778v5.449h6.519Zm13.169,3.911h.088l4-15.82h5.405V45h-4.1V31.567l-.088-.015L-22.8,45h-2.769l-3.823-13.345-.088.015V45H-33.6V23.672h5.376ZM-.9,35.581H-7.419v6.2H.388V45H-11.55V23.672H.359v3.237H-7.419v5.449H-.9ZM18.127,45H14L7.229,31.392l-.088.015V45H3.01V23.672H7.141l6.768,13.623L14,37.28V23.672h4.131ZM33.816,26.909h-5.01V45H24.661V26.909H19.783V23.672H33.816ZM51.877,39.463a2.939,2.939,0,0,0-.652-2.014,6.485,6.485,0,0,0-2.336-1.443,15.034,15.034,0,0,1-4.937-2.622,5.19,5.19,0,0,1-1.655-4.1,5.4,5.4,0,0,1,1.89-4.27,7.066,7.066,0,0,1,4.819-1.648,7.04,7.04,0,0,1,5,1.758,5.96,5.96,0,0,1,1.831,4.717l-.029.088H51.79a3.745,3.745,0,0,0-.74-2.512,2.644,2.644,0,0,0-2.117-.857,2.28,2.28,0,0,0-1.846.784,2.934,2.934,0,0,0-.659,1.956,2.347,2.347,0,0,0,.747,1.787,10,10,0,0,0,2.563,1.538,11.949,11.949,0,0,1,4.68,2.593,5.657,5.657,0,0,1,1.589,4.219,5.331,5.331,0,0,1-1.86,4.307,7.407,7.407,0,0,1-4.937,1.567,8.137,8.137,0,0,1-5.186-1.692,5.972,5.972,0,0,1-2.08-5.149l.029-.088H46a4.185,4.185,0,0,0,.813,2.886,3.1,3.1,0,0,0,2.4.879,2.57,2.57,0,0,0,2-.732A2.783,2.783,0,0,0,51.877,39.463Zm13.477-6.519h.088l3.677-9.272H73.63L67.4,37.4V45H63.289V37.134L57.18,23.672h4.512Zm19.219,6.519a2.939,2.939,0,0,0-.652-2.014,6.485,6.485,0,0,0-2.336-1.443,15.034,15.034,0,0,1-4.937-2.622,5.19,5.19,0,0,1-1.655-4.1,5.4,5.4,0,0,1,1.89-4.27,7.924,7.924,0,0,1,9.814.11,5.96,5.96,0,0,1,1.831,4.717l-.029.088H84.485a3.745,3.745,0,0,0-.74-2.512,2.644,2.644,0,0,0-2.117-.857,2.28,2.28,0,0,0-1.846.784,2.934,2.934,0,0,0-.659,1.956,2.347,2.347,0,0,0,.747,1.787,10,10,0,0,0,2.563,1.538,11.949,11.949,0,0,1,4.68,2.593A5.657,5.657,0,0,1,88.7,39.434a5.331,5.331,0,0,1-1.86,4.307,7.407,7.407,0,0,1-4.937,1.567,8.137,8.137,0,0,1-5.186-1.692,5.972,5.972,0,0,1-2.08-5.149l.029-.088H78.7a4.185,4.185,0,0,0,.813,2.886,3.1,3.1,0,0,0,2.4.879,2.57,2.57,0,0,0,2-.732A2.783,2.783,0,0,0,84.573,39.463Zm19.644-12.554h-5.01V45H95.061V26.909H90.183V23.672h14.033Zm12.671,8.672h-6.519v6.2h7.808V45H106.238V23.672h11.909v3.237h-7.778v5.449h6.519Zm13.169,3.911h.088l4-15.82h5.405V45h-4.1V31.567l-.088-.015L131.506,45h-2.769l-3.823-13.345-.088.015V45H120.71V23.672h5.376Z" transform="translate(209 65)" fill="#5e5b5c" opacity="0.5"/>
  </g>
</svg>
