<svg xmlns="http://www.w3.org/2000/svg" xmlns:xlink="http://www.w3.org/1999/xlink" width="418" height="482" viewBox="0 0 418 482">
  <defs>
    <clipPath id="clip-FSSC-path">
      <rect width="418" height="482"/>
    </clipPath>
  </defs>
  <g id="FSSC-path" clip-path="url(#clip-FSSC-path)">
    <g id="Trazado_7223" data-name="Trazado 7223" transform="translate(55 127)" fill="none">
      <path d="M68,0H239a68,68,0,0,1,68,68V253a68,68,0,0,1-68,68H68A68,68,0,0,1,0,253V68A68,68,0,0,1,68,0Z" stroke="none"/>
      <path d="M 68 2 C 59.08917236328125 2 50.44595336914063 3.7447509765625 42.3104248046875 7.185791015625 C 38.40008544921875 8.8397216796875 34.62841796875 10.886962890625 31.10015869140625 13.27056884765625 C 27.60491943359375 15.63192749023438 24.31808471679688 18.34384155273438 21.33096313476563 21.33096313476563 C 18.34384155273438 24.31808471679688 15.63192749023438 27.60491943359375 13.27056884765625 31.10015869140625 C 10.886962890625 34.62841796875 8.8397216796875 38.40008544921875 7.185791015625 42.3104248046875 C 3.7447509765625 50.44595336914063 2 59.08917236328125 2 68 L 2 253 C 2 261.9108276367188 3.7447509765625 270.5540466308594 7.185791015625 278.6895446777344 C 8.8397216796875 282.5998840332031 10.886962890625 286.37158203125 13.27056884765625 289.8998413085938 C 15.63192749023438 293.3950805664063 18.34384155273438 296.6819152832031 21.33096313476563 299.6690368652344 C 24.31808471679688 302.6561584472656 27.60491943359375 305.3680725097656 31.10015869140625 307.7294311523438 C 34.62841796875 310.113037109375 38.40008544921875 312.1602783203125 42.3104248046875 313.814208984375 C 50.44595336914063 317.2552490234375 59.08917236328125 319 68 319 L 239 319 C 247.9108276367188 319 256.5540466308594 317.2552490234375 264.6895446777344 313.814208984375 C 268.5998840332031 312.1602783203125 272.37158203125 310.113037109375 275.8998413085938 307.7294311523438 C 279.3950805664063 305.3680725097656 282.6819152832031 302.6561584472656 285.6690368652344 299.6690368652344 C 288.6561584472656 296.6819152832031 291.3680725097656 293.3950805664063 293.7294311523438 289.8998413085938 C 296.113037109375 286.37158203125 298.1602783203125 282.5998840332031 299.814208984375 278.6895446777344 C 303.2552490234375 270.5540466308594 305 261.9108276367188 305 253 L 305 68 C 305 59.08917236328125 303.2552490234375 50.44595336914063 299.814208984375 42.3104248046875 C 298.1602783203125 38.40008544921875 296.113037109375 34.62841796875 293.7294311523438 31.10015869140625 C 291.3680725097656 27.60491943359375 288.6561584472656 24.31808471679688 285.6690368652344 21.33096313476563 C 282.6819152832031 18.34384155273438 279.3950805664063 15.63192749023438 275.8998413085938 13.27056884765625 C 272.37158203125 10.886962890625 268.5998840332031 8.8397216796875 264.6895446777344 7.185791015625 C 256.5540466308594 3.7447509765625 247.9108276367188 2 239 2 L 68 2 M 68 0 L 239 0 C 276.5553283691406 0 307 30.44461059570313 307 68 L 307 253 C 307 290.5553283691406 276.5553283691406 321 239 321 L 68 321 C 30.44461059570313 321 0 290.5553283691406 0 253 L 0 68 C 0 30.44461059570313 30.44461059570313 0 68 0 Z" stroke="none" fill="#a2a2a2"/>
    </g>
    <path id="Trazado_7226" data-name="Trazado 7226" d="M-71.594-8.921h-6.768V0h-4.131V-21.328h12.188v3.237h-8.057v5.947h6.768ZM-52.8-7.676A7.908,7.908,0,0,1-54.924-1.8,7.672,7.672,0,0,1-60.579.308,7.622,7.622,0,0,1-66.218-1.8a7.94,7.94,0,0,1-2.109-5.874v-5.947a8.012,8.012,0,0,1,2.1-5.881,7.553,7.553,0,0,1,5.632-2.131A7.652,7.652,0,0,1-54.932-19.5,7.948,7.948,0,0,1-52.8-13.623Zm-4.116-5.991a5.56,5.56,0,0,0-.945-3.516,3.286,3.286,0,0,0-2.732-1.187A3.208,3.208,0,0,0-63.3-17.19a5.72,5.72,0,0,0-.908,3.523v5.991a5.776,5.776,0,0,0,.916,3.56A3.22,3.22,0,0,0-60.579-2.93a3.261,3.261,0,0,0,2.732-1.187,5.708,5.708,0,0,0,.93-3.56Zm22.134,5.991A7.908,7.908,0,0,1-36.907-1.8,7.672,7.672,0,0,1-42.561.308,7.622,7.622,0,0,1-48.2-1.8,7.94,7.94,0,0,1-50.31-7.676v-5.947a8.012,8.012,0,0,1,2.1-5.881,7.553,7.553,0,0,1,5.632-2.131A7.652,7.652,0,0,1-36.914-19.5a7.948,7.948,0,0,1,2.131,5.881ZM-38.9-13.667a5.56,5.56,0,0,0-.945-3.516,3.286,3.286,0,0,0-2.732-1.187,3.208,3.208,0,0,0-2.71,1.179,5.72,5.72,0,0,0-.908,3.523v5.991a5.776,5.776,0,0,0,.916,3.56A3.22,3.22,0,0,0-42.561-2.93a3.261,3.261,0,0,0,2.732-1.187,5.708,5.708,0,0,0,.93-3.56ZM-31.9,0V-21.328h6.577a7.017,7.017,0,0,1,5.522,2.5,9.384,9.384,0,0,1,2.183,6.409v3.53A9.35,9.35,0,0,1-19.8-2.483,7.035,7.035,0,0,1-25.32,0Zm4.131-18.091V-3.223h2.446A2.942,2.942,0,0,0-22.742-4.8a7.651,7.651,0,0,0,.981-4.087v-3.56a7.59,7.59,0,0,0-.981-4.058,2.942,2.942,0,0,0-2.578-1.582ZM1.326-5.537A2.939,2.939,0,0,0,.674-7.551,6.485,6.485,0,0,0-1.663-8.994,15.034,15.034,0,0,1-6.6-11.616a5.19,5.19,0,0,1-1.655-4.1,5.4,5.4,0,0,1,1.89-4.27,7.066,7.066,0,0,1,4.819-1.648,7.04,7.04,0,0,1,5,1.758,5.96,5.96,0,0,1,1.831,4.717l-.029.088H1.238A3.745,3.745,0,0,0,.5-17.585a2.644,2.644,0,0,0-2.117-.857,2.28,2.28,0,0,0-1.846.784A2.934,2.934,0,0,0-4.124-15.7a2.347,2.347,0,0,0,.747,1.787A10,10,0,0,0-.813-12.378a11.949,11.949,0,0,1,4.68,2.593A5.657,5.657,0,0,1,5.457-5.566,5.331,5.331,0,0,1,3.6-1.26,7.407,7.407,0,0,1-1.34.308,8.137,8.137,0,0,1-6.526-1.384a5.972,5.972,0,0,1-2.08-5.149l.029-.088h4.028a4.185,4.185,0,0,0,.813,2.886,3.1,3.1,0,0,0,2.4.879,2.57,2.57,0,0,0,2-.732A2.783,2.783,0,0,0,1.326-5.537ZM17.6-4.614H12.268L11.067,0H6.76l6.05-21.328h4.277L23.137,0H18.816ZM13.118-7.866H16.75l-1.772-6.768H14.89ZM35.75-8.921H28.982V0H24.851V-21.328H37.039v3.237H28.982v5.947H35.75Zm14.312-.5H43.542v6.2H51.35V0H39.412V-21.328H51.321v3.237H43.542v5.449h6.519ZM66.8-18.091h-5.01V0H57.649V-18.091H52.771v-3.237H66.8Zm8.921,6.035h.088l3.677-9.272H84L77.776-7.6V0H73.66V-7.866L67.551-21.328h4.512ZM-130.217,39.492h.088l4-15.82h5.405V45h-4.1V31.567l-.088-.015L-128.767,45h-2.769l-3.823-13.345-.088.015V45h-4.116V23.672h5.376Zm22.427.894h-5.332l-1.2,4.614h-4.307l6.05-21.328h4.277L-102.253,45h-4.321Zm-4.482-3.252h3.633l-1.772-6.768h-.088ZM-85.422,45h-4.131l-6.768-13.608-.088.015V45h-4.131V23.672h4.131l6.768,13.623.088-.015V23.672h4.131Zm13.008-4.614h-5.332L-78.948,45h-4.307l6.05-21.328h4.277L-66.877,45H-71.2ZM-76.9,37.134h3.633l-1.772-6.768h-.088Zm25.854,5.054a7.5,7.5,0,0,1-2.629,2.2,9.377,9.377,0,0,1-4.446.923,7.648,7.648,0,0,1-5.544-2.014,7.579,7.579,0,0,1-2.087-5.72V31.1a7.709,7.709,0,0,1,2.029-5.713,7.272,7.272,0,0,1,5.369-2.021,7.471,7.471,0,0,1,5.259,1.648,5.928,5.928,0,0,1,1.714,4.695l-.029.088h-3.882a3.416,3.416,0,0,0-.732-2.432,2.936,2.936,0,0,0-2.212-.762,3.014,3.014,0,0,0-2.49,1.113,5.291,5.291,0,0,0-.894,3.354v6.5a5.31,5.31,0,0,0,.908,3.4,3.155,3.155,0,0,0,2.593,1.113,5.057,5.057,0,0,0,1.89-.286,2.532,2.532,0,0,0,1.055-.754V36.738h-3.252V33.882h7.383Zm13.623-6.606h-6.519v6.2h7.808V45H-48.069V23.672H-36.16v3.237h-7.778v5.449h6.519Zm13.169,3.911h.088l4-15.82h5.405V45h-4.1V31.567l-.088-.015L-22.8,45h-2.769l-3.823-13.345-.088.015V45H-33.6V23.672h5.376ZM-.9,35.581H-7.419v6.2H.388V45H-11.55V23.672H.359v3.237H-7.419v5.449H-.9ZM18.127,45H14L7.229,31.392l-.088.015V45H3.01V23.672H7.141l6.768,13.623L14,37.28V23.672h4.131ZM33.816,26.909h-5.01V45H24.661V26.909H19.783V23.672H33.816ZM51.877,39.463a2.939,2.939,0,0,0-.652-2.014,6.485,6.485,0,0,0-2.336-1.443,15.034,15.034,0,0,1-4.937-2.622,5.19,5.19,0,0,1-1.655-4.1,5.4,5.4,0,0,1,1.89-4.27,7.066,7.066,0,0,1,4.819-1.648,7.04,7.04,0,0,1,5,1.758,5.96,5.96,0,0,1,1.831,4.717l-.029.088H51.79a3.745,3.745,0,0,0-.74-2.512,2.644,2.644,0,0,0-2.117-.857,2.28,2.28,0,0,0-1.846.784,2.934,2.934,0,0,0-.659,1.956,2.347,2.347,0,0,0,.747,1.787,10,10,0,0,0,2.563,1.538,11.949,11.949,0,0,1,4.68,2.593,5.657,5.657,0,0,1,1.589,4.219,5.331,5.331,0,0,1-1.86,4.307,7.407,7.407,0,0,1-4.937,1.567,8.137,8.137,0,0,1-5.186-1.692,5.972,5.972,0,0,1-2.08-5.149l.029-.088H46a4.185,4.185,0,0,0,.813,2.886,3.1,3.1,0,0,0,2.4.879,2.57,2.57,0,0,0,2-.732A2.783,2.783,0,0,0,51.877,39.463Zm13.477-6.519h.088l3.677-9.272H73.63L67.4,37.4V45H63.289V37.134L57.18,23.672h4.512Zm19.219,6.519a2.939,2.939,0,0,0-.652-2.014,6.485,6.485,0,0,0-2.336-1.443,15.034,15.034,0,0,1-4.937-2.622,5.19,5.19,0,0,1-1.655-4.1,5.4,5.4,0,0,1,1.89-4.27,7.924,7.924,0,0,1,9.814.11,5.96,5.96,0,0,1,1.831,4.717l-.029.088H84.485a3.745,3.745,0,0,0-.74-2.512,2.644,2.644,0,0,0-2.117-.857,2.28,2.28,0,0,0-1.846.784,2.934,2.934,0,0,0-.659,1.956,2.347,2.347,0,0,0,.747,1.787,10,10,0,0,0,2.563,1.538,11.949,11.949,0,0,1,4.68,2.593A5.657,5.657,0,0,1,88.7,39.434a5.331,5.331,0,0,1-1.86,4.307,7.407,7.407,0,0,1-4.937,1.567,8.137,8.137,0,0,1-5.186-1.692,5.972,5.972,0,0,1-2.08-5.149l.029-.088H78.7a4.185,4.185,0,0,0,.813,2.886,3.1,3.1,0,0,0,2.4.879,2.57,2.57,0,0,0,2-.732A2.783,2.783,0,0,0,84.573,39.463Zm19.644-12.554h-5.01V45H95.061V26.909H90.183V23.672h14.033Zm12.671,8.672h-6.519v6.2h7.808V45H106.238V23.672h11.909v3.237h-7.778v5.449h6.519Zm13.169,3.911h.088l4-15.82h5.405V45h-4.1V31.567l-.088-.015L131.506,45h-2.769l-3.823-13.345-.088.015V45H120.71V23.672h5.376Z" transform="translate(209 65)" fill="#5e5b5c" opacity="0.5"/>
    <path id="Trazado_7225" data-name="Trazado 7225" d="M-103.235-14.868h-11.279V0H-121.4V-35.547h20.313v5.4h-13.428v9.912h11.279Zm21.777,5.64a4.9,4.9,0,0,0-1.086-3.357,10.809,10.809,0,0,0-3.894-2.4,25.056,25.056,0,0,1-8.228-4.37A8.651,8.651,0,0,1-97.424-26.2a9,9,0,0,1,3.149-7.117,11.777,11.777,0,0,1,8.032-2.747,11.734,11.734,0,0,1,8.325,2.93,9.933,9.933,0,0,1,3.052,7.861l-.049.146H-81.6a6.242,6.242,0,0,0-1.233-4.187,4.407,4.407,0,0,0-3.528-1.428,3.8,3.8,0,0,0-3.076,1.306,4.89,4.89,0,0,0-1.1,3.259,3.912,3.912,0,0,0,1.245,2.979,16.672,16.672,0,0,0,4.272,2.563,19.915,19.915,0,0,1,7.8,4.321,9.428,9.428,0,0,1,2.649,7.031,8.885,8.885,0,0,1-3.1,7.178A12.346,12.346,0,0,1-85.9.513a13.562,13.562,0,0,1-8.643-2.82q-3.589-2.82-3.467-8.582l.049-.146h6.714q0,3.345,1.355,4.81A5.172,5.172,0,0,0-85.9-4.761a4.283,4.283,0,0,0,3.333-1.221A4.639,4.639,0,0,0-81.458-9.229Zm27.026,0a4.9,4.9,0,0,0-1.086-3.357,10.809,10.809,0,0,0-3.894-2.4,25.056,25.056,0,0,1-8.228-4.37A8.651,8.651,0,0,1-70.4-26.2a9,9,0,0,1,3.149-7.117,11.777,11.777,0,0,1,8.032-2.747,11.734,11.734,0,0,1,8.325,2.93,9.933,9.933,0,0,1,3.052,7.861l-.049.146h-6.689a6.242,6.242,0,0,0-1.233-4.187,4.407,4.407,0,0,0-3.528-1.428,3.8,3.8,0,0,0-3.076,1.306,4.89,4.89,0,0,0-1.1,3.259,3.912,3.912,0,0,0,1.245,2.979A16.672,16.672,0,0,0-58-20.63a19.915,19.915,0,0,1,7.8,4.321,9.428,9.428,0,0,1,2.649,7.031,8.885,8.885,0,0,1-3.1,7.178A12.346,12.346,0,0,1-58.875.513a13.562,13.562,0,0,1-8.643-2.82q-3.589-2.82-3.467-8.582l.049-.146h6.714q0,3.345,1.355,4.81a5.172,5.172,0,0,0,3.992,1.465,4.283,4.283,0,0,0,3.333-1.221A4.639,4.639,0,0,0-54.431-9.229Zm34.644-1.807.049.146q.1,5.713-2.917,8.557T-31.262.513a12.28,12.28,0,0,1-9.106-3.381q-3.369-3.381-3.369-9.607V-23.022q0-6.2,3.259-9.619a11.587,11.587,0,0,1,8.8-3.418q5.835,0,8.96,2.832t3.027,8.569l-.049.146h-6.689q0-3.418-1.208-4.785t-4.041-1.367A4.409,4.409,0,0,0-35.559-28.8q-1.294,1.868-1.294,5.725v10.6q0,3.882,1.392,5.75a4.9,4.9,0,0,0,4.2,1.868,4.532,4.532,0,0,0,3.687-1.355q1.123-1.355,1.123-4.822ZM17.273,0H-4.5V-4.59L5.334-17.017A27.311,27.311,0,0,0,8.35-21.9a9.271,9.271,0,0,0,.916-3.735,6.616,6.616,0,0,0-.891-3.674,3.057,3.057,0,0,0-2.747-1.355,3.279,3.279,0,0,0-2.966,1.721,8.431,8.431,0,0,0-1.038,4.407H-5.139l-.073-.146a11.261,11.261,0,0,1,2.881-8.069A10.184,10.184,0,0,1,5.627-36.06q5.054,0,7.825,2.8a10.328,10.328,0,0,1,2.771,7.6,11.637,11.637,0,0,1-1.6,5.981,60.946,60.946,0,0,1-5.359,7.3L4.431-5.371H17.273ZM43.518,0H21.741V-4.59L31.58-17.017A27.311,27.311,0,0,0,34.595-21.9a9.271,9.271,0,0,0,.916-3.735,6.616,6.616,0,0,0-.891-3.674,3.057,3.057,0,0,0-2.747-1.355,3.279,3.279,0,0,0-2.966,1.721,8.431,8.431,0,0,0-1.038,4.407H21.106l-.073-.146a11.261,11.261,0,0,1,2.881-8.069,10.184,10.184,0,0,1,7.959-3.308q5.054,0,7.825,2.8a10.328,10.328,0,0,1,2.771,7.6,11.637,11.637,0,0,1-1.6,5.981,60.946,60.946,0,0,1-5.359,7.3L30.676-5.371H43.518ZM69.47-12.891q0,6.274-3,9.839A9.837,9.837,0,0,1,58.557.513a9.951,9.951,0,0,1-8-3.564q-3.015-3.564-3.015-9.839v-9.741q0-6.226,3-9.827a9.847,9.847,0,0,1,7.959-3.6,9.856,9.856,0,0,1,7.947,3.6q3.015,3.6,3.015,9.827ZM62.561-23.242a11.362,11.362,0,0,0-1.086-5.469,3.3,3.3,0,0,0-2.966-1.953,3.282,3.282,0,0,0-2.991,1.953,11.584,11.584,0,0,0-1.062,5.469v10.913A11.586,11.586,0,0,0,55.53-6.8a3.326,3.326,0,0,0,3.027,1.941A3.251,3.251,0,0,0,61.5-6.8a11.7,11.7,0,0,0,1.062-5.53ZM95.715-12.891q0,6.274-3,9.839A9.837,9.837,0,0,1,84.8.513a9.951,9.951,0,0,1-8-3.564q-3.015-3.564-3.015-9.839v-9.741q0-6.226,3-9.827a9.847,9.847,0,0,1,7.959-3.6,9.856,9.856,0,0,1,7.947,3.6q3.015,3.6,3.015,9.827ZM88.806-23.242a11.362,11.362,0,0,0-1.086-5.469,3.3,3.3,0,0,0-2.966-1.953,3.282,3.282,0,0,0-2.991,1.953A11.584,11.584,0,0,0,80.7-23.242v10.913A11.586,11.586,0,0,0,81.775-6.8,3.326,3.326,0,0,0,84.8-4.858,3.251,3.251,0,0,0,87.744-6.8a11.7,11.7,0,0,0,1.062-5.53ZM121.96-12.891q0,6.274-3,9.839a9.837,9.837,0,0,1-7.91,3.564,9.951,9.951,0,0,1-8-3.564q-3.015-3.564-3.015-9.839v-9.741q0-6.226,3-9.827A9.847,9.847,0,0,1,111-36.06a9.856,9.856,0,0,1,7.947,3.6q3.015,3.6,3.015,9.827Zm-6.909-10.352a11.362,11.362,0,0,0-1.086-5.469A3.3,3.3,0,0,0,111-30.664a3.282,3.282,0,0,0-2.991,1.953,11.584,11.584,0,0,0-1.062,5.469v10.913A11.586,11.586,0,0,0,108.02-6.8a3.326,3.326,0,0,0,3.027,1.941A3.251,3.251,0,0,0,113.989-6.8a11.7,11.7,0,0,0,1.062-5.53ZM-108.655,27.134V40h-6.885V4.453h11.89A11.422,11.422,0,0,1-95.178,7.59a11.133,11.133,0,0,1,3.125,8.215,11.082,11.082,0,0,1-3.125,8.215,11.473,11.473,0,0,1-8.472,3.113Zm0-5.4h5a4.09,4.09,0,0,0,3.528-1.66,6.994,6.994,0,0,0,1.208-4.224,7.249,7.249,0,0,0-1.208-4.309,4.058,4.058,0,0,0-3.528-1.7h-5Zm33.4,10.571h-8.887l-2,7.69h-7.178L-83.24,4.453h7.129L-66.028,40h-7.2Zm-7.471-5.42h6.055L-79.626,15.61h-.146Zm42.578,2.075.049.146q.1,5.713-2.917,8.557t-8.606,2.844a12.28,12.28,0,0,1-9.106-3.381Q-64.1,33.75-64.1,27.524V16.978q0-6.2,3.259-9.619a11.587,11.587,0,0,1,8.8-3.418q5.835,0,8.96,2.832t3.027,8.569l-.049.146H-46.79q0-3.418-1.208-4.785t-4.041-1.367A4.409,4.409,0,0,0-55.92,11.2q-1.294,1.868-1.294,5.725v10.6q0,3.882,1.392,5.75a4.9,4.9,0,0,0,4.2,1.868,4.532,4.532,0,0,0,3.687-1.355q1.123-1.355,1.123-4.822Zm13.135-3.882h-1.88V40h-6.885V4.453h6.885V19h1.416l7.544-14.551h8.545L-21.643,20.688-10.632,40h-8.789ZM7.874,32.31H-1.013l-2,7.69h-7.178L-.11,4.453H7.019L17.1,40H9.9ZM.4,26.89H6.458L3.5,15.61H3.357Zm43.091,8.423a12.493,12.493,0,0,1-4.382,3.662,15.628,15.628,0,0,1-7.41,1.538,12.746,12.746,0,0,1-9.241-3.357q-3.479-3.357-3.479-9.534V16.831q0-6.152,3.381-9.521A12.12,12.12,0,0,1,31.311,3.94q5.811,0,8.765,2.747t2.856,7.825l-.049.146h-6.47a5.693,5.693,0,0,0-1.221-4.053,4.893,4.893,0,0,0-3.687-1.27,5.024,5.024,0,0,0-4.15,1.855,8.818,8.818,0,0,0-1.489,5.591v10.84q0,3.809,1.514,5.664A5.258,5.258,0,0,0,31.7,35.142a8.429,8.429,0,0,0,3.149-.476,4.221,4.221,0,0,0,1.758-1.257V26.23h-5.42V21.47h12.3ZM55.7,40H48.84V4.453H55.7ZM86.78,40H79.9L68.616,17.319l-.146.024V40H61.584V4.453h6.885L79.749,27.158l.146-.024V4.453H86.78Zm29.272-4.687a12.493,12.493,0,0,1-4.382,3.662,15.628,15.628,0,0,1-7.41,1.538,12.746,12.746,0,0,1-9.241-3.357q-3.479-3.357-3.479-9.534V16.831q0-6.152,3.381-9.521A12.12,12.12,0,0,1,103.87,3.94q5.811,0,8.765,2.747t2.856,7.825l-.049.146h-6.47a5.693,5.693,0,0,0-1.221-4.053,4.893,4.893,0,0,0-3.687-1.27,5.024,5.024,0,0,0-4.15,1.855,8.818,8.818,0,0,0-1.489,5.591v10.84q0,3.809,1.514,5.664a5.258,5.258,0,0,0,4.321,1.855,8.429,8.429,0,0,0,3.149-.476,4.221,4.221,0,0,0,1.758-1.257V26.23h-5.42V21.47h12.3Z" transform="translate(209 230)" fill="#5e5b5c" opacity="0.4"/>
    <path id="Trazado_7224" data-name="Trazado 7224" d="M-60.767,13.451H-73.12v-5.4h12.354Zm19.092,0H-54.028v-5.4h12.354Zm19.092,0H-34.937v-5.4h12.354Zm19.092,0H-15.845v-5.4H-3.491Zm19.092,0H3.247v-5.4H15.6Zm19.092,0H22.339v-5.4H34.692Zm19.092,0H41.431v-5.4H53.784Zm19.092,0H60.522v-5.4H72.876ZM-49.377,49.571a1.267,1.267,0,0,0,1.111-.543,2.706,2.706,0,0,0,.378-1.556h3.113l.037.073a4.467,4.467,0,0,1-1.288,3.387,4.541,4.541,0,0,1-3.351,1.324,4.654,4.654,0,0,1-3.973-1.862,7.858,7.858,0,0,1-1.385-4.816v-.354a7.869,7.869,0,0,1,1.385-4.8,4.63,4.63,0,0,1,3.961-1.874,4.429,4.429,0,0,1,3.418,1.373,5.118,5.118,0,0,1,1.233,3.7l-.024.061h-3.125a3.593,3.593,0,0,0-.378-1.77,1.216,1.216,0,0,0-1.123-.671,1.5,1.5,0,0,0-1.489,1.093,8.3,8.3,0,0,0-.415,2.887v.354a8.31,8.31,0,0,0,.415,2.917A1.505,1.505,0,0,0-49.377,49.571Zm11.438,2.686a4.888,4.888,0,0,1-4.053-1.807,7.231,7.231,0,0,1-1.44-4.651v-.5a8,8,0,0,1,1.385-4.871,4.563,4.563,0,0,1,3.9-1.88,4.264,4.264,0,0,1,3.577,1.6,6.9,6.9,0,0,1,1.245,4.346v1.88H-39.99a4.64,4.64,0,0,0,.665,2.332,2,2,0,0,0,1.788.867,5.313,5.313,0,0,0,1.715-.238,6.967,6.967,0,0,0,1.483-.751l.891,2.148a5.707,5.707,0,0,1-1.91,1.086A7.463,7.463,0,0,1-37.939,52.256Zm-.208-11.011a1.378,1.378,0,0,0-1.288.763,5.278,5.278,0,0,0-.531,2.094h3.271V43.8a4.281,4.281,0,0,0-.336-1.88A1.155,1.155,0,0,0-38.147,41.246Zm12.744.525-1.172-.037a1.493,1.493,0,0,0-.958.305,1.93,1.93,0,0,0-.592.854V52h-3.43V38.792h3.21l.134,1.868a4.065,4.065,0,0,1,.97-1.556,1.932,1.932,0,0,1,1.361-.555,2,2,0,0,1,.427.043q.2.043.4.1Zm5.859-6.262v3.284h1.794v2.454h-1.794v6.726a2.189,2.189,0,0,0,.244,1.2.773.773,0,0,0,.671.354,2.194,2.194,0,0,0,.4-.031,3.6,3.6,0,0,0,.391-.1l.269,2.539a6.043,6.043,0,0,1-.934.25,5.779,5.779,0,0,1-1.007.079,3.247,3.247,0,0,1-2.582-1.025,4.838,4.838,0,0,1-.9-3.235v-6.75h-1.6V38.792h1.6V35.508ZM-12.219,52h-3.442V38.792h3.442Zm0-16.418h-3.442V32.957h3.442ZM-9.021,52V41.246h-1.648V38.792h1.648v-.9A5.139,5.139,0,0,1-7.648,34.05,5.3,5.3,0,0,1-3.772,32.7a8.022,8.022,0,0,1,1.709.183,17.223,17.223,0,0,1,1.88.537L-.659,36.18a13.489,13.489,0,0,0-1.4-.421,6.525,6.525,0,0,0-1.489-.153,1.9,1.9,0,0,0-1.514.586,2.5,2.5,0,0,0-.513,1.7v.9h2.161v2.454H-5.579V52ZM1.4,52H-2.051V38.792H1.4Zm7.507.256A4.888,4.888,0,0,1,4.858,50.45,7.231,7.231,0,0,1,3.418,45.8v-.5A8,8,0,0,1,4.8,40.428a4.563,4.563,0,0,1,3.9-1.88,4.264,4.264,0,0,1,3.577,1.6,6.9,6.9,0,0,1,1.245,4.346v1.88H6.86A4.64,4.64,0,0,0,7.526,48.7a2,2,0,0,0,1.788.867,5.313,5.313,0,0,0,1.715-.238,6.967,6.967,0,0,0,1.483-.751L13.4,50.73a5.707,5.707,0,0,1-1.91,1.086A7.463,7.463,0,0,1,8.911,52.256ZM8.7,41.246a1.378,1.378,0,0,0-1.288.763A5.278,5.278,0,0,0,6.885,44.1h3.271V43.8a4.281,4.281,0,0,0-.336-1.88A1.155,1.155,0,0,0,8.7,41.246Zm6.128,4.224a9.559,9.559,0,0,1,1.16-5.017,3.646,3.646,0,0,1,3.284-1.9,2.768,2.768,0,0,1,1.434.378A3.788,3.788,0,0,1,21.851,40V32.957h3.442V52H22.351l-.256-1.489a3.918,3.918,0,0,1-1.233,1.3,2.961,2.961,0,0,1-1.611.446,3.674,3.674,0,0,1-3.259-1.788,8.6,8.6,0,0,1-1.16-4.742Zm3.418.256a7.284,7.284,0,0,0,.439,2.814,1.5,1.5,0,0,0,1.453,1.019,1.882,1.882,0,0,0,.995-.262,2,2,0,0,0,.714-.775V42.454a2.358,2.358,0,0,0-.72-.879,1.629,1.629,0,0,0-.977-.317,1.532,1.532,0,0,0-1.453,1.16,8.562,8.562,0,0,0-.452,3.052Zm25.354,0a8.769,8.769,0,0,1-1.129,4.761,3.675,3.675,0,0,1-3.3,1.77,3.051,3.051,0,0,1-1.66-.446A3.735,3.735,0,0,1,36.3,50.523L36.072,52H33.13V32.957h3.43v7.007a3.431,3.431,0,0,1,1.123-1.05,2.946,2.946,0,0,1,1.477-.366,3.636,3.636,0,0,1,3.314,1.88A9.742,9.742,0,0,1,43.6,45.469Zm-3.442-.256a9.436,9.436,0,0,0-.4-3.1,1.483,1.483,0,0,0-1.477-1.111,1.745,1.745,0,0,0-1.031.305,2.105,2.105,0,0,0-.69.854v6.14a1.783,1.783,0,0,0,.684.751,2.046,2.046,0,0,0,1.05.25,1.458,1.458,0,0,0,1.477-.977,8.051,8.051,0,0,0,.391-2.856Zm9.412,1.2V46.7h.073l1.978-7.91h3.7l-4.553,15.2a7.149,7.149,0,0,1-1.343,2.386,3.251,3.251,0,0,1-2.576.958,3.656,3.656,0,0,1-.739-.067q-.323-.067-.909-.214l.415-2.527.262.049a1.336,1.336,0,0,0,.25.024,1.522,1.522,0,0,0,1.154-.415,2.485,2.485,0,0,0,.58-1.086l.33-1.013L44.214,38.792h3.7ZM-23,94.771a4.9,4.9,0,0,0-1.086-3.357,10.809,10.809,0,0,0-3.894-2.4,25.056,25.056,0,0,1-8.228-4.37A8.651,8.651,0,0,1-38.965,77.8a9,9,0,0,1,3.149-7.117,11.777,11.777,0,0,1,8.032-2.747,11.734,11.734,0,0,1,8.325,2.93,9.933,9.933,0,0,1,3.052,7.861l-.049.146h-6.689a6.242,6.242,0,0,0-1.233-4.187,4.407,4.407,0,0,0-3.528-1.428,3.8,3.8,0,0,0-3.076,1.306,4.89,4.89,0,0,0-1.1,3.259,3.912,3.912,0,0,0,1.245,2.979,16.672,16.672,0,0,0,4.272,2.563,19.915,19.915,0,0,1,7.8,4.321,9.428,9.428,0,0,1,2.649,7.031,8.885,8.885,0,0,1-3.1,7.178,12.346,12.346,0,0,1-8.228,2.612,13.562,13.562,0,0,1-8.643-2.82q-3.589-2.82-3.467-8.582l.049-.146h6.714q0,3.345,1.355,4.81a5.172,5.172,0,0,0,3.992,1.465,4.283,4.283,0,0,0,3.333-1.221A4.639,4.639,0,0,0-23,94.771Zm35.156,4.541a12.493,12.493,0,0,1-4.382,3.662,15.628,15.628,0,0,1-7.41,1.538,12.746,12.746,0,0,1-9.241-3.357q-3.479-3.357-3.479-9.534V80.831q0-6.152,3.381-9.521A12.12,12.12,0,0,1-.024,67.94q5.811,0,8.765,2.747T11.6,78.512l-.049.146H5.078a5.693,5.693,0,0,0-1.221-4.053,4.893,4.893,0,0,0-3.687-1.27,5.024,5.024,0,0,0-4.15,1.855,8.818,8.818,0,0,0-1.489,5.591v10.84q0,3.809,1.514,5.664A5.258,5.258,0,0,0,.366,99.142a8.429,8.429,0,0,0,3.149-.476,4.221,4.221,0,0,0,1.758-1.257V90.23H-.146V85.47h12.3Zm20.63-4.541A4.9,4.9,0,0,0,31.7,91.415a10.809,10.809,0,0,0-3.894-2.4,25.056,25.056,0,0,1-8.228-4.37A8.651,8.651,0,0,1,16.821,77.8a9,9,0,0,1,3.149-7.117A11.777,11.777,0,0,1,28,67.94a11.734,11.734,0,0,1,8.325,2.93,9.933,9.933,0,0,1,3.052,7.861l-.049.146H32.642a6.242,6.242,0,0,0-1.233-4.187,4.407,4.407,0,0,0-3.528-1.428A3.8,3.8,0,0,0,24.8,74.569a4.89,4.89,0,0,0-1.1,3.259,3.912,3.912,0,0,0,1.245,2.979,16.672,16.672,0,0,0,4.272,2.563,19.915,19.915,0,0,1,7.8,4.321,9.428,9.428,0,0,1,2.649,7.031,8.885,8.885,0,0,1-3.1,7.178,12.346,12.346,0,0,1-8.228,2.612,13.562,13.562,0,0,1-8.643-2.82q-3.589-2.82-3.467-8.582l.049-.146H23q0,3.345,1.355,4.81a5.172,5.172,0,0,0,3.992,1.465,4.283,4.283,0,0,0,3.333-1.221A4.639,4.639,0,0,0,32.788,94.771Z" transform="translate(209 283)" fill="#5e5b5c" opacity="0.4"/>
  </g>
</svg>
