<svg xmlns="http://www.w3.org/2000/svg" xmlns:xlink="http://www.w3.org/1999/xlink" width="562" height="738" viewBox="0 0 562 738">
  <defs>
    <filter id="Trazado_7217" x="-0.319" y="0" width="562" height="738" filterUnits="userSpaceOnUse">
      <feOffset dy="20" input="SourceAlpha"/>
      <feGaussianBlur stdDeviation="23" result="blur"/>
      <feFlood flood-color="#010101" flood-opacity="0.129"/>
      <feComposite operator="in" in2="blur"/>
      <feComposite in="SourceGraphic"/>
    </filter>
    <filter id="Trazado_7199" x="159.571" y="51" width="242.459" height="242.6" filterUnits="userSpaceOnUse">
      <feOffset dy="9" input="SourceAlpha"/>
      <feGaussianBlur stdDeviation="15" result="blur-2"/>
      <feFlood flood-color="#010101" flood-opacity="0.122"/>
      <feComposite operator="in" in2="blur-2"/>
      <feComposite in="SourceGraphic"/>
    </filter>
    <clipPath id="clip-Health-and-occupational-safety-path">
      <rect width="562" height="738"/>
    </clipPath>
  </defs>
  <g id="Health-and-occupational-safety-path" clip-path="url(#clip-Health-and-occupational-safety-path)">
    <g transform="matrix(1, 0, 0, 1, 0, 0)" filter="url(#Trazado_7217)">
      <path id="Trazado_7217-2" data-name="Trazado 7217" d="M74,0H350a74,74,0,0,1,74,74V526a74,74,0,0,1-74,74H74A74,74,0,0,1,0,526V74A74,74,0,0,1,74,0Z" transform="translate(68.68 49)" fill="#fff"/>
    </g>
    <path id="Trazado_7219" data-name="Trazado 7219" d="M-65.922,0h-5.763V-12.448H-81.3V0h-5.783V-29.859H-81.3v12.9h9.618v-12.9h5.763Zm12.735.431A8.211,8.211,0,0,1-60-2.6a12.148,12.148,0,0,1-2.42-7.813v-.841a13.447,13.447,0,0,1,2.328-8.183A7.666,7.666,0,0,1-53.536-22.6a7.163,7.163,0,0,1,6.009,2.687,11.587,11.587,0,0,1,2.092,7.3v3.158h-11.2a7.794,7.794,0,0,0,1.118,3.917,3.362,3.362,0,0,0,3,1.456,8.926,8.926,0,0,0,2.881-.4,11.7,11.7,0,0,0,2.492-1.261l1.5,3.609A9.588,9.588,0,0,1-48.85-.308,12.538,12.538,0,0,1-53.187.431Zm-.349-18.5A2.316,2.316,0,0,0-55.7-16.786a8.868,8.868,0,0,0-.892,3.517h5.5v-.513a7.192,7.192,0,0,0-.564-3.158A1.941,1.941,0,0,0-53.536-18.067ZM-31.387,0a9.762,9.762,0,0,1-.543-1.6,13.591,13.591,0,0,1-.318-1.764A7.85,7.85,0,0,1-34.187-.636,4.271,4.271,0,0,1-37.129.431a6.019,6.019,0,0,1-4.666-1.774,6.923,6.923,0,0,1-1.63-4.871,6.2,6.2,0,0,1,2.143-5.035q2.143-1.794,6.409-1.794h2.522v-1.846a4.473,4.473,0,0,0-.615-2.553,2.073,2.073,0,0,0-1.825-.892,1.921,1.921,0,0,0-1.62.718,3.3,3.3,0,0,0-.554,2.051l-5.578-.021-.041-.123a5.912,5.912,0,0,1,2.153-4.881,8.746,8.746,0,0,1,6.009-2.01,8.036,8.036,0,0,1,5.681,2.01,7.432,7.432,0,0,1,2.174,5.742v9.105a18.491,18.491,0,0,0,.226,2.953A17.337,17.337,0,0,0-25.645,0Zm-4.245-3.855a3.235,3.235,0,0,0,2.051-.708,3.553,3.553,0,0,0,1.23-1.712V-9.762h-2.522A2.418,2.418,0,0,0-37-8.818a4.023,4.023,0,0,0-.667,2.379,2.97,2.97,0,0,0,.554,1.866A1.771,1.771,0,0,0-35.632-3.855ZM-16.786,0h-5.783V-31.992h5.783Zm10.91-27.706v5.517h3.015v4.122H-5.875v11.3a3.678,3.678,0,0,0,.41,2.01,1.3,1.3,0,0,0,1.128.595,3.685,3.685,0,0,0,.677-.051A6.044,6.044,0,0,0-3-4.389l.451,4.266A10.152,10.152,0,0,1-4.122.3,9.708,9.708,0,0,1-5.814.431a5.455,5.455,0,0,1-4.337-1.723q-1.507-1.723-1.507-5.435V-18.067h-2.687v-4.122h2.687v-5.517ZM6-19.5A6.872,6.872,0,0,1,8.121-21.79a4.9,4.9,0,0,1,2.738-.81,5.523,5.523,0,0,1,4.7,2.338q1.723,2.338,1.723,7.2V0H11.495V-13.1a8.639,8.639,0,0,0-.6-3.845,2,2,0,0,0-1.876-1.1,3.668,3.668,0,0,0-1.753.4A3.577,3.577,0,0,0,6-16.509V0H.236V-31.992H6ZM41.416,0a9.762,9.762,0,0,1-.543-1.6,13.591,13.591,0,0,1-.318-1.764A7.85,7.85,0,0,1,38.616-.636,4.271,4.271,0,0,1,35.673.431a6.019,6.019,0,0,1-4.666-1.774,6.923,6.923,0,0,1-1.63-4.871,6.2,6.2,0,0,1,2.143-5.035q2.143-1.794,6.409-1.794h2.522v-1.846a4.473,4.473,0,0,0-.615-2.553,2.073,2.073,0,0,0-1.825-.892,1.921,1.921,0,0,0-1.62.718,3.3,3.3,0,0,0-.554,2.051l-5.578-.021-.041-.123a5.912,5.912,0,0,1,2.153-4.881A8.746,8.746,0,0,1,38.38-22.6a8.036,8.036,0,0,1,5.681,2.01,7.432,7.432,0,0,1,2.174,5.742v9.105a18.491,18.491,0,0,0,.226,2.953A17.337,17.337,0,0,0,47.158,0ZM37.17-3.855a3.235,3.235,0,0,0,2.051-.708,3.553,3.553,0,0,0,1.23-1.712V-9.762H37.929a2.418,2.418,0,0,0-2.123.943,4.023,4.023,0,0,0-.667,2.379,2.97,2.97,0,0,0,.554,1.866A1.771,1.771,0,0,0,37.17-3.855ZM55.258-22.189l.246,3.1a7.54,7.54,0,0,1,2.307-2.584,5.313,5.313,0,0,1,3.045-.923,5.2,5.2,0,0,1,4.44,2.2q1.61,2.2,1.61,6.921V0H61.124V-13.474a7.481,7.481,0,0,0-.6-3.538,1.987,1.987,0,0,0-1.835-1.036,3.36,3.36,0,0,0-1.733.451,3.913,3.913,0,0,0-1.3,1.271V0H49.865V-22.189Zm14.6,11.218A16.06,16.06,0,0,1,71.808-19.4a6.126,6.126,0,0,1,5.517-3.2,4.65,4.65,0,0,1,2.41.636,6.365,6.365,0,0,1,1.917,1.8V-31.992h5.783V0H82.493l-.431-2.5A6.582,6.582,0,0,1,79.991-.318a4.975,4.975,0,0,1-2.707.749,6.171,6.171,0,0,1-5.476-3,14.456,14.456,0,0,1-1.948-7.967Zm5.742.431a12.236,12.236,0,0,0,.738,4.727A2.515,2.515,0,0,0,78.781-4.1a3.162,3.162,0,0,0,1.671-.441,3.366,3.366,0,0,0,1.2-1.3V-16.037a3.961,3.961,0,0,0-1.21-1.477,2.737,2.737,0,0,0-1.641-.533,2.574,2.574,0,0,0-2.44,1.948,14.385,14.385,0,0,0-.759,5.127ZM-143.35,36.254q0,5.271-2.974,8.224a10.741,10.741,0,0,1-7.916,2.953,10.67,10.67,0,0,1-7.9-2.953q-2.953-2.953-2.953-8.224V27.928q0-5.25,2.943-8.234a10.575,10.575,0,0,1,7.885-2.984,10.713,10.713,0,0,1,7.926,2.984q2.984,2.984,2.984,8.234Zm-5.763-8.388a7.784,7.784,0,0,0-1.323-4.922,4.6,4.6,0,0,0-3.825-1.661,4.491,4.491,0,0,0-3.794,1.651,8.007,8.007,0,0,0-1.271,4.932v8.388a8.086,8.086,0,0,0,1.282,4.983,4.508,4.508,0,0,0,3.8,1.661,4.566,4.566,0,0,0,3.825-1.661,7.991,7.991,0,0,0,1.3-4.983Zm17.6,15.053a2.129,2.129,0,0,0,1.866-.913,4.546,4.546,0,0,0,.636-2.615h5.229l.062.123a7.505,7.505,0,0,1-2.164,5.691,7.629,7.629,0,0,1-5.629,2.225,7.819,7.819,0,0,1-6.675-3.127,13.2,13.2,0,0,1-2.328-8.09v-.595a13.221,13.221,0,0,1,2.328-8.07,7.779,7.779,0,0,1,6.655-3.148,7.44,7.44,0,0,1,5.742,2.307,8.6,8.6,0,0,1,2.071,6.224l-.041.1h-5.25a6.036,6.036,0,0,0-.636-2.974,2.042,2.042,0,0,0-1.887-1.128,2.52,2.52,0,0,0-2.5,1.835,13.936,13.936,0,0,0-.7,4.85v.595a13.961,13.961,0,0,0,.7,4.9A2.529,2.529,0,0,0-131.517,42.919Zm18.888,0a2.129,2.129,0,0,0,1.866-.913,4.546,4.546,0,0,0,.636-2.615h5.229l.062.123A7.505,7.505,0,0,1-107,45.206a7.629,7.629,0,0,1-5.629,2.225A7.819,7.819,0,0,1-119.3,44.3a13.2,13.2,0,0,1-2.328-8.09v-.595a13.221,13.221,0,0,1,2.328-8.07,7.779,7.779,0,0,1,6.655-3.148,7.44,7.44,0,0,1,5.742,2.307,8.6,8.6,0,0,1,2.071,6.224l-.041.1h-5.25a6.036,6.036,0,0,0-.636-2.974,2.042,2.042,0,0,0-1.887-1.128,2.52,2.52,0,0,0-2.5,1.835,13.936,13.936,0,0,0-.7,4.85v.595a13.961,13.961,0,0,0,.7,4.9A2.529,2.529,0,0,0-112.629,42.919Zm22.271.923a7.151,7.151,0,0,1-2.2,2.656,5.184,5.184,0,0,1-3.066.933,5.471,5.471,0,0,1-4.707-2.4q-1.712-2.4-1.712-7.424v-12.8h5.783V37.648a9.969,9.969,0,0,0,.584,4.112A1.933,1.933,0,0,0-93.844,42.9a3.9,3.9,0,0,0,1.764-.379A3.534,3.534,0,0,0-90.788,41.4V24.811h5.8V47h-4.737Zm26.722-7.383a14.4,14.4,0,0,1-1.958,7.967,6.2,6.2,0,0,1-5.486,3,5.355,5.355,0,0,1-2.5-.564,5.463,5.463,0,0,1-1.887-1.651V55.531h-5.763V24.811h5.291l.246,2.276A6.167,6.167,0,0,1-73.746,25.1a4.89,4.89,0,0,1,2.625-.7,6.149,6.149,0,0,1,5.527,3.2,15.992,15.992,0,0,1,1.958,8.429Zm-5.783-.431A14.039,14.039,0,0,0-70.2,30.9a2.588,2.588,0,0,0-2.42-1.948,2.893,2.893,0,0,0-1.7.5,3.518,3.518,0,0,0-1.148,1.4V41.319a3.009,3.009,0,0,0,1.148,1.189,3.418,3.418,0,0,0,1.723.41,2.521,2.521,0,0,0,2.43-1.712,12.151,12.151,0,0,0,.749-4.748ZM-49.485,47a9.762,9.762,0,0,1-.543-1.6,13.591,13.591,0,0,1-.318-1.764,7.85,7.85,0,0,1-1.938,2.728,4.271,4.271,0,0,1-2.943,1.066,6.019,6.019,0,0,1-4.666-1.774,6.923,6.923,0,0,1-1.63-4.871,6.2,6.2,0,0,1,2.143-5.035q2.143-1.794,6.409-1.794h2.522V32.111a4.473,4.473,0,0,0-.615-2.553,2.073,2.073,0,0,0-1.825-.892,1.921,1.921,0,0,0-1.62.718,3.3,3.3,0,0,0-.554,2.051l-5.578-.021-.041-.123a5.912,5.912,0,0,1,2.153-4.881,8.746,8.746,0,0,1,6.009-2.01,8.036,8.036,0,0,1,5.681,2.01,7.432,7.432,0,0,1,2.174,5.742v9.105a18.491,18.491,0,0,0,.226,2.953,17.337,17.337,0,0,0,.7,2.789Zm-4.245-3.855a3.235,3.235,0,0,0,2.051-.708,3.553,3.553,0,0,0,1.23-1.712V37.238h-2.522a2.418,2.418,0,0,0-2.123.943,4.023,4.023,0,0,0-.667,2.379,2.97,2.97,0,0,0,.554,1.866A1.771,1.771,0,0,0-53.73,43.145Zm19.564-23.851v5.517h3.015v4.122h-3.015v11.3a3.678,3.678,0,0,0,.41,2.01,1.3,1.3,0,0,0,1.128.595,3.685,3.685,0,0,0,.677-.051,6.044,6.044,0,0,0,.656-.174l.451,4.266a10.152,10.152,0,0,1-1.569.42,9.708,9.708,0,0,1-1.692.133,5.455,5.455,0,0,1-4.337-1.723q-1.507-1.723-1.507-5.435V28.933h-2.687V24.811h2.687V19.294ZM-21.861,47h-5.783V24.811h5.783Zm0-27.583h-5.783V15.008h5.783ZM-18.437,35.7a13.119,13.119,0,0,1,2.389-8.152A7.944,7.944,0,0,1-9.331,24.4,8.006,8.006,0,0,1-2.6,27.548,13,13,0,0,1-.185,35.7v.472A12.951,12.951,0,0,1-2.594,44.3a7.977,7.977,0,0,1-6.7,3.127,8.023,8.023,0,0,1-6.747-3.117,12.98,12.98,0,0,1-2.4-8.142Zm5.763.472a12.931,12.931,0,0,0,.769,4.922A2.669,2.669,0,0,0-9.29,42.919a2.636,2.636,0,0,0,2.543-1.825,12.778,12.778,0,0,0,.779-4.922V35.7a12.887,12.887,0,0,0-.779-4.912,2.664,2.664,0,0,0-2.584-1.856A2.647,2.647,0,0,0-11.9,30.8a13.058,13.058,0,0,0-.769,4.9ZM8.244,24.811l.246,3.1A7.54,7.54,0,0,1,10.8,25.323a5.313,5.313,0,0,1,3.045-.923,5.2,5.2,0,0,1,4.44,2.2q1.61,2.2,1.61,6.921V47H14.109V33.526a7.481,7.481,0,0,0-.6-3.538,1.987,1.987,0,0,0-1.835-1.036,3.36,3.36,0,0,0-1.733.451,3.913,3.913,0,0,0-1.3,1.271V47H2.851V24.811ZM34.7,47a9.762,9.762,0,0,1-.543-1.6,13.591,13.591,0,0,1-.318-1.764A7.85,7.85,0,0,1,31.9,46.364a4.271,4.271,0,0,1-2.943,1.066,6.019,6.019,0,0,1-4.666-1.774,6.923,6.923,0,0,1-1.63-4.871A6.2,6.2,0,0,1,24.8,35.751q2.143-1.794,6.409-1.794h2.522V32.111a4.473,4.473,0,0,0-.615-2.553,2.073,2.073,0,0,0-1.825-.892,1.921,1.921,0,0,0-1.62.718,3.3,3.3,0,0,0-.554,2.051l-5.578-.021-.041-.123a5.912,5.912,0,0,1,2.153-4.881,8.746,8.746,0,0,1,6.009-2.01,8.036,8.036,0,0,1,5.681,2.01,7.432,7.432,0,0,1,2.174,5.742v9.105a18.491,18.491,0,0,0,.226,2.953,17.337,17.337,0,0,0,.7,2.789Zm-4.245-3.855a3.235,3.235,0,0,0,2.051-.708,3.553,3.553,0,0,0,1.23-1.712V37.238H31.213a2.418,2.418,0,0,0-2.123.943,4.023,4.023,0,0,0-.667,2.379,2.97,2.97,0,0,0,.554,1.866A1.771,1.771,0,0,0,30.454,43.145ZM49.3,47H43.518V15.008H49.3Zm26.968-7.752a4.115,4.115,0,0,0-.913-2.82,9.08,9.08,0,0,0-3.271-2.02,21.047,21.047,0,0,1-6.911-3.671A7.267,7.267,0,0,1,62.856,25,7.562,7.562,0,0,1,65.5,19.017a9.893,9.893,0,0,1,6.747-2.307,9.856,9.856,0,0,1,6.993,2.461,8.343,8.343,0,0,1,2.563,6.6l-.041.123H76.146A5.243,5.243,0,0,0,75.11,22.38a3.7,3.7,0,0,0-2.963-1.2,3.192,3.192,0,0,0-2.584,1.1,4.108,4.108,0,0,0-.923,2.738,3.286,3.286,0,0,0,1.046,2.5,14,14,0,0,0,3.589,2.153,16.729,16.729,0,0,1,6.552,3.63,7.92,7.92,0,0,1,2.225,5.906,7.463,7.463,0,0,1-2.6,6.029,10.37,10.37,0,0,1-6.911,2.194,11.392,11.392,0,0,1-7.26-2.369q-3.015-2.369-2.912-7.208l.041-.123h5.64a5.859,5.859,0,0,0,1.138,4.04A4.345,4.345,0,0,0,72.536,43a3.6,3.6,0,0,0,2.8-1.025A3.9,3.9,0,0,0,76.269,39.248ZM96.51,47a9.762,9.762,0,0,1-.543-1.6,13.591,13.591,0,0,1-.318-1.764,7.85,7.85,0,0,1-1.938,2.728,4.271,4.271,0,0,1-2.943,1.066A6.019,6.019,0,0,1,86.1,45.657a6.923,6.923,0,0,1-1.63-4.871,6.2,6.2,0,0,1,2.143-5.035q2.143-1.794,6.409-1.794h2.522V32.111a4.473,4.473,0,0,0-.615-2.553,2.073,2.073,0,0,0-1.825-.892,1.921,1.921,0,0,0-1.62.718,3.3,3.3,0,0,0-.554,2.051l-5.578-.021-.041-.123a5.912,5.912,0,0,1,2.153-4.881,8.746,8.746,0,0,1,6.009-2.01,8.036,8.036,0,0,1,5.681,2.01,7.432,7.432,0,0,1,2.174,5.742v9.105a18.491,18.491,0,0,0,.226,2.953,17.337,17.337,0,0,0,.7,2.789Zm-4.245-3.855a3.235,3.235,0,0,0,2.051-.708,3.553,3.553,0,0,0,1.23-1.712V37.238H93.023a2.418,2.418,0,0,0-2.123.943,4.023,4.023,0,0,0-.667,2.379,2.97,2.97,0,0,0,.554,1.866A1.771,1.771,0,0,0,92.265,43.145ZM106.374,47V28.933h-2.769V24.811h2.769v-2.5a7.912,7.912,0,0,1,1.938-5.722,7.238,7.238,0,0,1,5.465-2.01,8.22,8.22,0,0,1,1.354.113q.677.113,1.559.318l-.451,4.348q-.431-.1-.82-.164a6,6,0,0,0-.923-.062,2.008,2.008,0,0,0-1.743.831,3.987,3.987,0,0,0-.595,2.348v2.5h3.568v4.122h-3.568V47Zm19.77.431a8.211,8.211,0,0,1-6.809-3.035,12.148,12.148,0,0,1-2.42-7.813v-.841a13.447,13.447,0,0,1,2.328-8.183,7.666,7.666,0,0,1,6.552-3.158,7.163,7.163,0,0,1,6.009,2.687,11.587,11.587,0,0,1,2.092,7.3v3.158H122.7a7.794,7.794,0,0,0,1.118,3.917,3.362,3.362,0,0,0,3,1.456,8.926,8.926,0,0,0,2.881-.4,11.7,11.7,0,0,0,2.492-1.261l1.5,3.609a9.588,9.588,0,0,1-3.209,1.825A12.538,12.538,0,0,1,126.144,47.431Zm-.349-18.5a2.316,2.316,0,0,0-2.164,1.282,8.868,8.868,0,0,0-.892,3.517h5.5v-.513a7.192,7.192,0,0,0-.564-3.158A1.941,1.941,0,0,0,125.795,28.933Zm17.842-9.639v5.517h3.015v4.122h-3.015v11.3a3.678,3.678,0,0,0,.41,2.01,1.3,1.3,0,0,0,1.128.595,3.685,3.685,0,0,0,.677-.051,6.044,6.044,0,0,0,.656-.174l.451,4.266a10.152,10.152,0,0,1-1.569.42,9.708,9.708,0,0,1-1.692.133,5.455,5.455,0,0,1-4.337-1.723q-1.507-1.723-1.507-5.435V28.933h-2.687V24.811h2.687V19.294Zm13.433,18.744V38.1h.123l3.322-13.289h6.214l-7.649,25.532a12.01,12.01,0,0,1-2.256,4.009,5.462,5.462,0,0,1-4.327,1.61,6.142,6.142,0,0,1-1.241-.113q-.543-.113-1.528-.359l.7-4.245.441.082a2.244,2.244,0,0,0,.42.041,2.557,2.557,0,0,0,1.938-.7,4.175,4.175,0,0,0,.974-1.825l.554-1.7-6.686-22.333h6.214Z" transform="translate(279 317)" fill="#d54a55"/>
    <g transform="matrix(1, 0, 0, 1, 0, 0)" filter="url(#Trazado_7199)">
      <path id="Trazado_7199-2" data-name="Trazado 7199" d="M76.229,0a76.229,76.229,0,0,1,76.229,76.229v.141A76.229,76.229,0,0,1,0,76.37v-.141A76.229,76.229,0,0,1,76.229,0Z" transform="translate(204.57 87)" fill="#d54a55"/>
    </g>
    <path id="Shape" d="M3930.526,4700.33l-40.692-17.812a2.712,2.712,0,0,0-2.171,0l-40.692,17.812a2.713,2.713,0,0,0-1.627,2.485v42.592a29.877,29.877,0,0,0,12.37,24.165l28.124,20.284a4.963,4.963,0,0,0,5.822,0l28.125-20.28a29.877,29.877,0,0,0,12.37-24.166v-42.595A2.713,2.713,0,0,0,3930.526,4700.33Zm-3.8,45.08a24.442,24.442,0,0,1-10.118,19.766l-27.861,20.094-27.861-20.094a24.439,24.439,0,0,1-10.119-19.766v-40.82l37.98-16.625,37.979,16.625Z" transform="translate(-3607.485 -4572.88)" fill="#fff"/>
    <path id="Shape-2" data-name="Shape" d="M3907.8,4797.916a3.628,3.628,0,0,0-4.354,5.8l14.511,10.884a3.63,3.63,0,0,0,2.177.725,3.848,3.848,0,0,0,.613-.05,3.626,3.626,0,0,0,2.4-1.564l29.023-43.533a3.628,3.628,0,1,0-6.037-4.027l-26.9,40.344Z" transform="translate(-3646.128 -4628.979)" fill="#fff"/>
    <path id="Trazado_7218" data-name="Trazado 7218" d="M-135.345-15.869h-4.712V0h-2.49V-15.869h-4.675v-1.9h11.877Zm.146,9.119a7.893,7.893,0,0,1,1.392-4.822,4.5,4.5,0,0,1,3.821-1.88,4.511,4.511,0,0,1,3.827,1.88,7.869,7.869,0,0,1,1.4,4.822v.33a7.833,7.833,0,0,1-1.392,4.816A4.5,4.5,0,0,1-129.962.256a4.534,4.534,0,0,1-3.845-1.862A7.833,7.833,0,0,1-135.2-6.421Zm2.49.33a7.667,7.667,0,0,0,.677,3.455,2.2,2.2,0,0,0,2.069,1.343,2.17,2.17,0,0,0,2.032-1.349,7.675,7.675,0,0,0,.677-3.448v-.33a7.632,7.632,0,0,0-.684-3.436,2.19,2.19,0,0,0-2.051-1.361,2.178,2.178,0,0,0-2.045,1.361,7.691,7.691,0,0,0-.677,3.436Zm25.72.232A8.364,8.364,0,0,1-108.154-1.5,3.693,3.693,0,0,1-111.407.256a3.737,3.737,0,0,1-1.727-.385,3.512,3.512,0,0,1-1.276-1.129V5.078h-2.49V-13.208h2.112l.232,1.587a3.887,3.887,0,0,1,1.318-1.361,3.46,3.46,0,0,1,1.819-.47,3.637,3.637,0,0,1,3.265,1.917,9.72,9.72,0,0,1,1.166,5.09Zm-2.49-.256a8.8,8.8,0,0,0-.653-3.662,2.1,2.1,0,0,0-1.959-1.416,2.18,2.18,0,0,0-1.4.458,3.176,3.176,0,0,0-.916,1.239v6.653a2.776,2.776,0,0,0,.916,1.147,2.4,2.4,0,0,0,1.416.4,2.085,2.085,0,0,0,1.953-1.245,7.234,7.234,0,0,0,.647-3.32Zm10.547-4.7-1.074-.061a1.863,1.863,0,0,0-1.3.47,3.011,3.011,0,0,0-.8,1.324V0h-2.49V-13.208h2.283l.171,1.953a4.243,4.243,0,0,1,1.123-1.617,2.363,2.363,0,0,1,1.575-.58,2.087,2.087,0,0,1,.433.043,2.385,2.385,0,0,1,.36.1Zm6.567,11.4A4.613,4.613,0,0,1-96.228-1.55a7.464,7.464,0,0,1-1.4-4.7v-.574a7.748,7.748,0,0,1,1.392-4.767A4.335,4.335,0,0,1-92.6-13.452a4,4,0,0,1,3.436,1.6,7.089,7.089,0,0,1,1.178,4.3v1.392h-7.166a6.522,6.522,0,0,0,.726,3.284,2.4,2.4,0,0,0,2.228,1.257,4.636,4.636,0,0,0,1.807-.323,4.62,4.62,0,0,0,1.416-.946l.806,1.538A5.264,5.264,0,0,1-89.9-.208,6.181,6.181,0,0,1-92.365.256Zm-.232-11.8a1.943,1.943,0,0,0-1.709.995A5.927,5.927,0,0,0-95.1-7.922h4.675V-8.2a4.835,4.835,0,0,0-.531-2.417A1.763,1.763,0,0,0-92.6-11.548Zm10.571,7.581.208,1.038h.073l.22-1.038,2.307-9.241h2.563L-80.682,0h-2.209l-4.053-13.208h2.588ZM-70.27.256A4.613,4.613,0,0,1-74.133-1.55a7.464,7.464,0,0,1-1.4-4.7v-.574a7.748,7.748,0,0,1,1.392-4.767A4.335,4.335,0,0,1-70.5-13.452a4,4,0,0,1,3.436,1.6,7.089,7.089,0,0,1,1.178,4.3v1.392h-7.166a6.522,6.522,0,0,0,.726,3.284A2.4,2.4,0,0,0-70.1-1.624a4.636,4.636,0,0,0,1.807-.323,4.62,4.62,0,0,0,1.416-.946l.806,1.538A5.264,5.264,0,0,1-67.81-.208,6.181,6.181,0,0,1-70.27.256Zm-.232-11.8a1.943,1.943,0,0,0-1.709.995A5.927,5.927,0,0,0-73-7.922h4.675V-8.2a4.835,4.835,0,0,0-.531-2.417A1.763,1.763,0,0,0-70.5-11.548Zm9.094-1.66.146,1.965a4.462,4.462,0,0,1,1.416-1.63,3.376,3.376,0,0,1,1.941-.58,3.245,3.245,0,0,1,2.74,1.294,6.67,6.67,0,0,1,.983,4.028V0h-2.478V-8.118a4.937,4.937,0,0,0-.519-2.637,1.764,1.764,0,0,0-1.569-.769,2.417,2.417,0,0,0-1.465.446,3.119,3.119,0,0,0-.977,1.227V0h-2.49V-13.208Zm13.245-3.284v3.284H-46.1v1.77h-2.063v7.861a2.579,2.579,0,0,0,.311,1.459.967.967,0,0,0,.824.433,1.99,1.99,0,0,0,.391-.037q.183-.037.427-.11l.256,1.709a3.891,3.891,0,0,1-.787.275,3.84,3.84,0,0,1-.9.1A2.774,2.774,0,0,1-49.86-.665a4.406,4.406,0,0,1-.793-2.911v-7.861H-52.4v-1.77h1.746v-3.284ZM-41.4-.293l-1.587,3.6h-1.587l.732-3.687V-2.637H-41.4Zm12.683-1.331a1.95,1.95,0,0,0,1.532-.708,2.818,2.818,0,0,0,.616-1.917h2.234l.024.073a4.081,4.081,0,0,1-1.257,3.149A4.334,4.334,0,0,1-28.717.256a4.362,4.362,0,0,1-3.772-1.862A7.981,7.981,0,0,1-33.82-6.36v-.464a8.015,8.015,0,0,1,1.331-4.755,4.353,4.353,0,0,1,3.772-1.874A4.185,4.185,0,0,1-25.5-12.115a4.778,4.778,0,0,1,1.2,3.473l-.024.061h-2.246a3.587,3.587,0,0,0-.592-2.142,1.831,1.831,0,0,0-1.556-.824,2.079,2.079,0,0,0-2.008,1.343,8.114,8.114,0,0,0-.616,3.381v.464a8.2,8.2,0,0,0,.61,3.406A2.076,2.076,0,0,0-28.717-1.624Zm6.226-5.127A7.893,7.893,0,0,1-21.1-11.572a4.5,4.5,0,0,1,3.821-1.88,4.511,4.511,0,0,1,3.827,1.88,7.869,7.869,0,0,1,1.4,4.822v.33a7.833,7.833,0,0,1-1.392,4.816A4.5,4.5,0,0,1-17.255.256,4.534,4.534,0,0,1-21.1-1.605a7.833,7.833,0,0,1-1.392-4.816Zm2.49.33a7.667,7.667,0,0,0,.677,3.455,2.2,2.2,0,0,0,2.069,1.343,2.17,2.17,0,0,0,2.032-1.349,7.675,7.675,0,0,0,.677-3.448v-.33a7.632,7.632,0,0,0-.684-3.436,2.19,2.19,0,0,0-2.051-1.361,2.178,2.178,0,0,0-2.045,1.361A7.691,7.691,0,0,0-20-6.75ZM-7.44-13.208l.146,1.965a4.462,4.462,0,0,1,1.416-1.63,3.376,3.376,0,0,1,1.941-.58A3.245,3.245,0,0,1-1.2-12.158,6.67,6.67,0,0,1-.214-8.13V0H-2.692V-8.118a4.937,4.937,0,0,0-.519-2.637,1.764,1.764,0,0,0-1.569-.769,2.417,2.417,0,0,0-1.465.446A3.119,3.119,0,0,0-7.22-9.851V0h-2.49V-13.208ZM5.8-16.492v3.284H7.867v1.77H5.8v7.861a2.579,2.579,0,0,0,.311,1.459.967.967,0,0,0,.824.433,1.99,1.99,0,0,0,.391-.037q.183-.037.427-.11L8.014-.122a3.891,3.891,0,0,1-.787.275,3.84,3.84,0,0,1-.9.1A2.774,2.774,0,0,1,4.108-.665a4.406,4.406,0,0,1-.793-2.911v-7.861H1.569v-1.77H3.314v-3.284Zm9.973,5.347L14.7-11.206a1.864,1.864,0,0,0-1.3.47,3.011,3.011,0,0,0-.8,1.324V0h-2.49V-13.208H12.4l.171,1.953a4.243,4.243,0,0,1,1.123-1.617,2.363,2.363,0,0,1,1.575-.58,2.087,2.087,0,0,1,.433.043,2.385,2.385,0,0,1,.36.1ZM17.059-6.75a7.893,7.893,0,0,1,1.392-4.822,4.5,4.5,0,0,1,3.821-1.88,4.511,4.511,0,0,1,3.827,1.88A7.869,7.869,0,0,1,27.5-6.75v.33A7.833,7.833,0,0,1,26.1-1.605,4.5,4.5,0,0,1,22.3.256a4.534,4.534,0,0,1-3.845-1.862,7.833,7.833,0,0,1-1.392-4.816Zm2.49.33a7.667,7.667,0,0,0,.677,3.455A2.2,2.2,0,0,0,22.3-1.624a2.17,2.17,0,0,0,2.032-1.349,7.675,7.675,0,0,0,.677-3.448v-.33a7.632,7.632,0,0,0-.684-3.436,2.19,2.19,0,0,0-2.051-1.361,2.178,2.178,0,0,0-2.045,1.361A7.691,7.691,0,0,0,19.55-6.75ZM32.513,0h-2.49V-19.043h2.49ZM47.894,0q-.159-.6-.25-1.068A6.729,6.729,0,0,1,47.528-2,4.85,4.85,0,0,1,46.143-.385a3.2,3.2,0,0,1-1.959.641,3.468,3.468,0,0,1-2.716-1.05,4.127,4.127,0,0,1-.946-2.869A3.6,3.6,0,0,1,41.833-6.6,5.617,5.617,0,0,1,45.49-7.678h2.026V-9.033a2.964,2.964,0,0,0-.537-1.886,1.848,1.848,0,0,0-1.538-.677,1.84,1.84,0,0,0-1.434.586,2.15,2.15,0,0,0-.531,1.5L41.107-9.5l-.024-.073a3.356,3.356,0,0,1,1.2-2.71,4.7,4.7,0,0,1,3.32-1.172A4.449,4.449,0,0,1,48.785-12.3a4.309,4.309,0,0,1,1.221,3.29v6.128a10.847,10.847,0,0,0,.1,1.471A9.367,9.367,0,0,0,50.409,0ZM44.7-1.648a2.782,2.782,0,0,0,1.794-.629A2.911,2.911,0,0,0,47.516-3.8V-6.14H45.453a2.279,2.279,0,0,0-1.794.726,2.542,2.542,0,0,0-.647,1.752A2.277,2.277,0,0,0,43.451-2.2,1.5,1.5,0,0,0,44.7-1.648Zm10.388-11.56.146,1.965a4.462,4.462,0,0,1,1.416-1.63,3.376,3.376,0,0,1,1.941-.58,3.245,3.245,0,0,1,2.74,1.294,6.67,6.67,0,0,1,.983,4.028V0H59.833V-8.118a4.937,4.937,0,0,0-.519-2.637,1.764,1.764,0,0,0-1.569-.769,2.417,2.417,0,0,0-1.465.446A3.119,3.119,0,0,0,55.3-9.851V0h-2.49V-13.208Zm9.595,6.763a9.762,9.762,0,0,1,1.16-5.09A3.623,3.623,0,0,1,69.1-13.452a3.362,3.362,0,0,1,1.685.421,3.823,3.823,0,0,1,1.282,1.215v-7.227h2.478V0H72.491l-.256-1.587A3.917,3.917,0,0,1,70.892-.214a3.5,3.5,0,0,1-1.819.47,3.661,3.661,0,0,1-3.241-1.764,8.439,8.439,0,0,1-1.154-4.681Zm2.466.256a7.356,7.356,0,0,0,.623,3.3A2.047,2.047,0,0,0,69.708-1.66a2.266,2.266,0,0,0,1.41-.439,3.163,3.163,0,0,0,.946-1.245v-6.4a3.5,3.5,0,0,0-.952-1.3,2.121,2.121,0,0,0-1.392-.482,2.057,2.057,0,0,0-1.947,1.41,9.087,9.087,0,0,0-.629,3.668ZM88.6-11.145l-1.074-.061a1.863,1.863,0,0,0-1.3.47,3.011,3.011,0,0,0-.8,1.324V0h-2.49V-13.208h2.283l.171,1.953a4.243,4.243,0,0,1,1.123-1.617,2.363,2.363,0,0,1,1.575-.58,2.087,2.087,0,0,1,.433.043,2.385,2.385,0,0,1,.36.1ZM95.172.256A4.613,4.613,0,0,1,91.309-1.55a7.464,7.464,0,0,1-1.4-4.7v-.574A7.748,7.748,0,0,1,91.3-11.591a4.335,4.335,0,0,1,3.638-1.862,4,4,0,0,1,3.436,1.6,7.089,7.089,0,0,1,1.178,4.3v1.392H92.389a6.522,6.522,0,0,0,.726,3.284,2.4,2.4,0,0,0,2.228,1.257,4.636,4.636,0,0,0,1.807-.323,4.62,4.62,0,0,0,1.416-.946l.806,1.538a5.264,5.264,0,0,1-1.74,1.147A6.181,6.181,0,0,1,95.172.256Zm-.232-11.8a1.943,1.943,0,0,0-1.709.995,5.927,5.927,0,0,0-.793,2.631h4.675V-8.2a4.835,4.835,0,0,0-.531-2.417A1.763,1.763,0,0,0,94.94-11.548Zm6.384,5.1a9.762,9.762,0,0,1,1.16-5.09,3.623,3.623,0,0,1,3.259-1.917,3.362,3.362,0,0,1,1.685.421,3.823,3.823,0,0,1,1.282,1.215v-7.227h2.478V0h-2.051l-.256-1.587a3.917,3.917,0,0,1-1.343,1.373,3.5,3.5,0,0,1-1.819.47,3.661,3.661,0,0,1-3.241-1.764,8.439,8.439,0,0,1-1.154-4.681Zm2.466.256a7.356,7.356,0,0,0,.623,3.3,2.047,2.047,0,0,0,1.941,1.227,2.266,2.266,0,0,0,1.41-.439,3.163,3.163,0,0,0,.946-1.245v-6.4a3.5,3.5,0,0,0-.952-1.3,2.121,2.121,0,0,0-1.392-.482,2.057,2.057,0,0,0-1.947,1.41,9.087,9.087,0,0,0-.629,3.668ZM121.2-1.929A4.251,4.251,0,0,1,119.83-.311,3.334,3.334,0,0,1,117.9.256a3.325,3.325,0,0,1-2.844-1.4,7.432,7.432,0,0,1-1.025-4.358v-7.7h2.49v7.727a6.429,6.429,0,0,0,.488,2.972,1.606,1.606,0,0,0,1.489.848,2.742,2.742,0,0,0,1.556-.427,2.867,2.867,0,0,0,1.007-1.221v-9.9h2.49V0h-2.112Zm9.79.305a1.95,1.95,0,0,0,1.532-.708,2.818,2.818,0,0,0,.616-1.917h2.234l.024.073a4.081,4.081,0,0,1-1.257,3.149A4.334,4.334,0,0,1,130.988.256a4.362,4.362,0,0,1-3.772-1.862,7.981,7.981,0,0,1-1.331-4.755v-.464a8.015,8.015,0,0,1,1.331-4.755,4.353,4.353,0,0,1,3.772-1.874,4.185,4.185,0,0,1,3.217,1.337,4.778,4.778,0,0,1,1.2,3.473l-.024.061h-2.246a3.587,3.587,0,0,0-.592-2.142,1.831,1.831,0,0,0-1.556-.824,2.079,2.079,0,0,0-2.008,1.343,8.114,8.114,0,0,0-.616,3.381v.464a8.2,8.2,0,0,0,.61,3.406A2.076,2.076,0,0,0,130.988-1.624Zm11.5,1.88a4.613,4.613,0,0,1-3.864-1.807,7.464,7.464,0,0,1-1.4-4.7v-.574a7.748,7.748,0,0,1,1.392-4.767,4.335,4.335,0,0,1,3.638-1.862,4,4,0,0,1,3.436,1.6,7.089,7.089,0,0,1,1.178,4.3v1.392H139.7a6.522,6.522,0,0,0,.726,3.284,2.4,2.4,0,0,0,2.228,1.257,4.636,4.636,0,0,0,1.807-.323,4.62,4.62,0,0,0,1.416-.946l.806,1.538a5.264,5.264,0,0,1-1.74,1.147A6.181,6.181,0,0,1,142.487.256Zm-.232-11.8a1.943,1.943,0,0,0-1.709.995,5.927,5.927,0,0,0-.793,2.631h4.675V-8.2a4.835,4.835,0,0,0-.531-2.417A1.763,1.763,0,0,0,142.255-11.548ZM-86.06,23.25a7.893,7.893,0,0,1,1.392-4.822,4.5,4.5,0,0,1,3.821-1.88,4.511,4.511,0,0,1,3.827,1.88,7.869,7.869,0,0,1,1.4,4.822v.33a7.833,7.833,0,0,1-1.392,4.816,4.5,4.5,0,0,1-3.809,1.862,4.534,4.534,0,0,1-3.845-1.862,7.833,7.833,0,0,1-1.392-4.816Zm2.49.33a7.667,7.667,0,0,0,.677,3.455,2.2,2.2,0,0,0,2.069,1.343,2.17,2.17,0,0,0,2.032-1.349,7.675,7.675,0,0,0,.677-3.448v-.33a7.632,7.632,0,0,0-.684-3.436,2.19,2.19,0,0,0-2.051-1.361,2.178,2.178,0,0,0-2.045,1.361,7.691,7.691,0,0,0-.677,3.436Zm14.9,4.8a1.95,1.95,0,0,0,1.532-.708,2.818,2.818,0,0,0,.616-1.917h2.234l.024.073a4.081,4.081,0,0,1-1.257,3.149,4.334,4.334,0,0,1-3.149,1.282,4.362,4.362,0,0,1-3.772-1.862,7.981,7.981,0,0,1-1.331-4.755v-.464a8.015,8.015,0,0,1,1.331-4.755,4.353,4.353,0,0,1,3.772-1.874,4.185,4.185,0,0,1,3.217,1.337,4.778,4.778,0,0,1,1.2,3.473l-.024.061h-2.246a3.587,3.587,0,0,0-.592-2.142,1.831,1.831,0,0,0-1.556-.824,2.079,2.079,0,0,0-2.008,1.343,8.114,8.114,0,0,0-.616,3.381v.464a8.2,8.2,0,0,0,.61,3.406A2.076,2.076,0,0,0-68.665,28.376Zm11.316,0a1.95,1.95,0,0,0,1.532-.708,2.818,2.818,0,0,0,.616-1.917h2.234l.024.073A4.081,4.081,0,0,1-54.2,28.975a4.334,4.334,0,0,1-3.149,1.282,4.362,4.362,0,0,1-3.772-1.862,7.981,7.981,0,0,1-1.331-4.755v-.464a8.015,8.015,0,0,1,1.331-4.755,4.353,4.353,0,0,1,3.772-1.874,4.185,4.185,0,0,1,3.217,1.337,4.778,4.778,0,0,1,1.2,3.473l-.024.061H-55.2a3.587,3.587,0,0,0-.592-2.142,1.831,1.831,0,0,0-1.556-.824,2.079,2.079,0,0,0-2.008,1.343,8.114,8.114,0,0,0-.616,3.381v.464a8.2,8.2,0,0,0,.61,3.406A2.076,2.076,0,0,0-57.349,28.376Zm13.831-.305a4.251,4.251,0,0,1-1.367,1.617,3.334,3.334,0,0,1-1.929.568,3.325,3.325,0,0,1-2.844-1.4,7.432,7.432,0,0,1-1.025-4.358v-7.7h2.49v7.727a6.429,6.429,0,0,0,.488,2.972,1.606,1.606,0,0,0,1.489.848,2.742,2.742,0,0,0,1.556-.427,2.867,2.867,0,0,0,1.007-1.221v-9.9h2.49V30h-2.112Zm15.112-4.26A8.364,8.364,0,0,1-29.572,28.5a3.693,3.693,0,0,1-3.253,1.758,3.737,3.737,0,0,1-1.727-.385,3.512,3.512,0,0,1-1.276-1.129v6.335h-2.49V16.792h2.112l.232,1.587a3.887,3.887,0,0,1,1.318-1.361,3.46,3.46,0,0,1,1.819-.47,3.637,3.637,0,0,1,3.265,1.917,9.72,9.72,0,0,1,1.166,5.09Zm-2.49-.256a8.8,8.8,0,0,0-.653-3.662,2.1,2.1,0,0,0-1.959-1.416,2.18,2.18,0,0,0-1.4.458,3.175,3.175,0,0,0-.916,1.239v6.653a2.776,2.776,0,0,0,.916,1.147,2.4,2.4,0,0,0,1.416.4,2.085,2.085,0,0,0,1.953-1.245,7.234,7.234,0,0,0,.647-3.32ZM-19.153,30q-.159-.6-.25-1.068A6.729,6.729,0,0,1-19.519,28,4.85,4.85,0,0,1-20.9,29.615a3.2,3.2,0,0,1-1.959.641,3.468,3.468,0,0,1-2.716-1.05,4.127,4.127,0,0,1-.946-2.869A3.6,3.6,0,0,1-25.214,23.4a5.617,5.617,0,0,1,3.656-1.074h2.026V20.967a2.964,2.964,0,0,0-.537-1.886,1.848,1.848,0,0,0-1.538-.677,1.84,1.84,0,0,0-1.434.586,2.15,2.15,0,0,0-.531,1.5l-2.368.012-.024-.073a3.356,3.356,0,0,1,1.2-2.71,4.7,4.7,0,0,1,3.32-1.172A4.449,4.449,0,0,1-18.262,17.7a4.309,4.309,0,0,1,1.221,3.29v6.128a10.847,10.847,0,0,0,.1,1.471A9.367,9.367,0,0,0-16.638,30Zm-3.2-1.648a2.782,2.782,0,0,0,1.794-.629,2.911,2.911,0,0,0,1.025-1.52V23.86h-2.063a2.279,2.279,0,0,0-1.794.726,2.542,2.542,0,0,0-.647,1.752A2.277,2.277,0,0,0-23.6,27.8,1.5,1.5,0,0,0-22.351,28.352Zm11.328-14.844v3.284H-8.96v1.77h-2.063v7.861a2.579,2.579,0,0,0,.311,1.459.967.967,0,0,0,.824.433,1.99,1.99,0,0,0,.391-.037q.183-.037.427-.11l.256,1.709a3.891,3.891,0,0,1-.787.275,3.84,3.84,0,0,1-.9.1,2.774,2.774,0,0,1-2.222-.922,4.406,4.406,0,0,1-.793-2.911V18.562h-1.746v-1.77h1.746V13.508ZM-4.065,30h-2.49V16.792h2.49Zm0-16.675h-2.49V10.957h2.49Zm2.527,9.924A7.893,7.893,0,0,1-.146,18.428a4.5,4.5,0,0,1,3.821-1.88A4.511,4.511,0,0,1,7.5,18.428,7.869,7.869,0,0,1,8.9,23.25v.33a7.833,7.833,0,0,1-1.392,4.816A4.5,4.5,0,0,1,3.7,30.256,4.534,4.534,0,0,1-.146,28.395a7.833,7.833,0,0,1-1.392-4.816Zm2.49.33a7.667,7.667,0,0,0,.677,3.455A2.2,2.2,0,0,0,3.7,28.376a2.17,2.17,0,0,0,2.032-1.349,7.675,7.675,0,0,0,.677-3.448v-.33a7.632,7.632,0,0,0-.684-3.436,2.19,2.19,0,0,0-2.051-1.361A2.178,2.178,0,0,0,1.63,19.813,7.691,7.691,0,0,0,.952,23.25Zm12.561-6.787.146,1.965a4.462,4.462,0,0,1,1.416-1.63,3.376,3.376,0,0,1,1.941-.58,3.245,3.245,0,0,1,2.74,1.294,6.67,6.67,0,0,1,.983,4.028V30H18.262V21.882a4.937,4.937,0,0,0-.519-2.637,1.764,1.764,0,0,0-1.569-.769,2.417,2.417,0,0,0-1.465.446,3.119,3.119,0,0,0-.977,1.227V30h-2.49V16.792ZM30.432,30q-.159-.6-.25-1.068A6.729,6.729,0,0,1,30.066,28a4.85,4.85,0,0,1-1.385,1.617,3.2,3.2,0,0,1-1.959.641,3.468,3.468,0,0,1-2.716-1.05,4.127,4.127,0,0,1-.946-2.869A3.6,3.6,0,0,1,24.371,23.4a5.617,5.617,0,0,1,3.656-1.074h2.026V20.967a2.964,2.964,0,0,0-.537-1.886,2.067,2.067,0,0,0-2.972-.092,2.15,2.15,0,0,0-.531,1.5l-2.368.012-.024-.073a3.356,3.356,0,0,1,1.2-2.71,4.7,4.7,0,0,1,3.32-1.172A4.449,4.449,0,0,1,31.323,17.7a4.309,4.309,0,0,1,1.221,3.29v6.128a10.847,10.847,0,0,0,.1,1.471A9.367,9.367,0,0,0,32.947,30Zm-3.2-1.648a2.782,2.782,0,0,0,1.794-.629,2.911,2.911,0,0,0,1.025-1.52V23.86H27.991a2.279,2.279,0,0,0-1.794.726,2.542,2.542,0,0,0-.647,1.752,2.277,2.277,0,0,0,.439,1.465A1.5,1.5,0,0,0,27.234,28.352ZM38.025,30h-2.49V10.957h2.49ZM52.209,18.855l-1.074-.061a1.864,1.864,0,0,0-1.3.47,3.011,3.011,0,0,0-.8,1.324V30h-2.49V16.792h2.283L49,18.745a4.243,4.243,0,0,1,1.123-1.617,2.363,2.363,0,0,1,1.575-.58,2.087,2.087,0,0,1,.433.043,2.385,2.385,0,0,1,.36.1ZM56.885,30h-2.49V16.792h2.49Zm0-16.675h-2.49V10.957h2.49Zm9.29,13.342a1.759,1.759,0,0,0-.513-1.288A6.861,6.861,0,0,0,63.7,24.214a9.854,9.854,0,0,1-3.052-1.672,2.967,2.967,0,0,1-1.013-2.319,3.335,3.335,0,0,1,1.227-2.6,4.669,4.669,0,0,1,3.192-1.074,4.582,4.582,0,0,1,3.284,1.178,3.624,3.624,0,0,1,1.2,2.85l-.024.073H66.113a2.47,2.47,0,0,0-.555-1.617,1.846,1.846,0,0,0-1.508-.677,2,2,0,0,0-1.483.531,1.7,1.7,0,0,0-.531,1.239,1.56,1.56,0,0,0,.458,1.19,8.089,8.089,0,0,0,1.959,1.117,9.023,9.023,0,0,1,3.119,1.7,3.153,3.153,0,0,1,1.044,2.417,3.3,3.3,0,0,1-1.263,2.679,5.075,5.075,0,0,1-3.314,1.031,4.807,4.807,0,0,1-3.5-1.239,3.713,3.713,0,0,1-1.215-2.9l.024-.073h2.307a2.413,2.413,0,0,0,.726,1.849,2.543,2.543,0,0,0,1.691.568,2.207,2.207,0,0,0,1.544-.507A1.667,1.667,0,0,0,66.174,26.667Zm8.167-2.722h-.928V30H70.935V10.957h2.478v11.1h.867l3.174-5.261h2.917L76.331,22.8l4.48,7.2H77.917ZM85.071,30h-2.5V27.522h2.5Z" transform="translate(280 456)" fill="#5e5b5c"/>
  </g>
</svg>
