<svg xmlns="http://www.w3.org/2000/svg" width="119.061" height="140.708" viewBox="0 0 119.061 140.708">
  <g id="Grupo_1843" data-name="Grupo 1843" transform="translate(-8165.091 -2560.292)">
    <g id="Grupo_1840" data-name="Grupo 1840">
      <g id="Grupo_1838" data-name="Grupo 1838" transform="translate(10454 -6039)">
        <g id="Grupo_1818" data-name="Grupo 1818" transform="translate(-3554.191 8553)">
          <rect id="Rectángulo_36" data-name="Rectángulo 36" width="119.061" height="140.709" rx="11" transform="translate(1265.283 46.291)" fill="#44d62c" opacity="0.7"/>
          <g id="Grupo_1099" data-name="Grupo 1099" transform="translate(1285.416 65.143)">
            <rect id="Rectángulo_26" data-name="Rectángulo 26" width="82.26" height="15.153" fill="#fff"/>
            <rect id="Rectángulo_27" data-name="Rectángulo 27" width="82.26" height="15.153" transform="translate(0 24.388)" fill="#fff"/>
            <rect id="Rectángulo_28" data-name="Rectángulo 28" width="82.26" height="15.153" transform="translate(0 50.993)" fill="#fff"/>
            <path id="Trazado_7252" data-name="Trazado 7252" d="M5.862-16.352l4.2,11.859L14.24-16.352h4.425V0h-3.38V-4.47l.337-7.715L11.208,0H8.895l-4.4-12.174.337,7.7V0H1.46V-16.352ZM31.445-7.086H24.977v4.38h7.592V0H21.607V-16.352H32.546v2.729H24.977v3.9h6.469ZM47.842,0H44.473L37.914-10.759V0H34.545V-16.352h3.369L44.484-5.57V-16.352h3.358ZM63.16-16.352v10.77a5.514,5.514,0,0,1-1.679,4.245A6.473,6.473,0,0,1,56.894.225a6.546,6.546,0,0,1-4.548-1.516,5.42,5.42,0,0,1-1.718-4.167V-16.352H54V-5.559a3.116,3.116,0,0,0,.769,2.342,2.953,2.953,0,0,0,2.128.736q2.841,0,2.886-2.987V-16.352Z" transform="translate(10.775 94.857)" fill="#fff"/>
          </g>
        </g>
      </g>
    </g>
  </g>
</svg>
