<svg id="Layer_1" data-name="Layer 1" xmlns="http://www.w3.org/2000/svg" xmlns:xlink="http://www.w3.org/1999/xlink" viewBox="0 0 160 190"><defs><style>.cls-1,.cls-6,.cls-7{fill:none;}.cls-2{clip-path:url(#clip-path);}.cls-3{filter:url(#a);}.cls-4{opacity:0.93;}.cls-5{fill:#44d62c;}.cls-6,.cls-7{stroke:#fff;}.cls-7{stroke-width:2px;}.cls-8,.cls-9{fill:#fff;}.cls-9{font-size:12px;font-family:DINAlternate-Bold, DIN Alternate;font-weight:700;letter-spacing:-0.03em;}.cls-10{letter-spacing:-0.04em;}.cls-11{letter-spacing:-0.03em;}.cls-12{letter-spacing:-0.03em;}</style><clipPath id="clip-path"><rect class="cls-1" width="160" height="190"/></clipPath><filter id="a" x="-2" y="2" width="164" height="191" name="a"><feOffset dy="2"/><feGaussianBlur result="b" stdDeviation="6"/><feFlood flood-color="#44d62c" flood-opacity="0.65"/><feComposite operator="in" in="b"/><feComposite in="SourceGraphic"/></filter></defs><title>agriculturalBoxArtboard 1</title><g class="cls-2"><g id="c"><g class="cls-3"><g class="cls-4"><rect class="cls-5" x="16" y="18" width="128" height="155" rx="14" ry="14"/><rect class="cls-6" x="16.5" y="18.5" width="127" height="154" rx="13.5" ry="13.5"/></g></g><path class="cls-7" d="M106.63,95.6V85.52A7.52,7.52,0,0,0,99.12,78H60.7a7.52,7.52,0,0,0-7.51,7.51V95.6a7.52,7.52,0,0,0,7.51,7.51H99.12A7.52,7.52,0,0,0,106.63,95.6Z"/><path class="cls-8" d="M113.9,66.34H46.05A2.05,2.05,0,0,0,44,68.39v3.79a2.05,2.05,0,0,0,2.05,2.05h.22v49a3,3,0,0,0,3,3H88.51a1.06,1.06,0,0,0,0-2.11H49.24a.85.85,0,0,1-.85-.85v-49H51.3a1.06,1.06,0,1,0,0-2.11H46.11V68.45h67.73v3.66h-58a1.06,1.06,0,0,0,0,2.11h55.71v49a.85.85,0,0,1-.85.85H93.2a1.06,1.06,0,1,0,0,2.11h17.52a3,3,0,0,0,3-3v-49h.22A2.05,2.05,0,0,0,116,72.18V68.39a2.05,2.05,0,0,0-2.06-2.05Z"/></g></g><text class="cls-9" transform="translate(23.9 147.14)">Agricultu<tspan class="cls-10" x="42.93" y="0">r</tspan><tspan x="47.07" y="0" xml:space="preserve">al  Har</tspan><tspan class="cls-11" x="78.18" y="0">v</tspan><tspan class="cls-12" x="83.12" y="0">esting </tspan><tspan x="30.41" y="14.4">Containers</tspan></text></svg>