<svg xmlns="http://www.w3.org/2000/svg" xmlns:xlink="http://www.w3.org/1999/xlink" width="160" height="190" viewBox="0 0 160 190">
  <defs>
    <clipPath id="clip-Cajas-agricolasEN">
      <rect width="160" height="190"/>
    </clipPath>
  </defs>
  <g id="Cajas-agricolasEN" clip-path="url(#clip-Cajas-agricolasEN)">
    <g id="Grupo_1516" data-name="Grupo 1516" transform="translate(-874 -12.66)">
      <g id="Grupo_1425" data-name="Grupo 1425" transform="translate(343)">
        <rect id="Rectángulo_2869" data-name="Rectángulo 2869" width="128" height="155" rx="14" transform="translate(547 30.66)" fill="none" opacity="0.93"/>
      </g>
      <g id="beer-box" transform="translate(918.001 79)">
        <path id="Trazado_15" data-name="Trazado 15" d="M118.794,82.42V72.341a7.521,7.521,0,0,0-7.512-7.513H72.86a7.521,7.521,0,0,0-7.513,7.513V82.42a7.521,7.521,0,0,0,7.513,7.513h38.422a7.521,7.521,0,0,0,7.512-7.513Z" transform="translate(-56.164 -53.16)" fill="none" stroke="#5e5b5c" stroke-width="2"/>
        <path id="Trazado_16" data-name="Trazado 16" d="M69.9,0H2.051A2.054,2.054,0,0,0,0,2.052V5.841A2.054,2.054,0,0,0,2.051,7.893h.22V56.916a2.969,2.969,0,0,0,2.966,2.966H44.508a1.057,1.057,0,0,0,0-2.114H5.237a.853.853,0,0,1-.852-.852V7.893H7.3a1.057,1.057,0,1,0,0-2.114H2.113V2.114H69.841V5.779H11.857a1.057,1.057,0,0,0,0,2.114H67.57V56.916a.853.853,0,0,1-.852.851H49.2a1.057,1.057,0,1,0,0,2.114H66.718a2.969,2.969,0,0,0,2.966-2.966V7.893h.22a2.054,2.054,0,0,0,2.052-2.052V2.052A2.054,2.054,0,0,0,69.9,0Zm0,0" fill="#5e5b5c"/>
      </g>
      <path id="Trazado_9466" data-name="Trazado 9466" d="M-23.1-1.822h-2.25L-25.808,0h-1.682l2.4-8.531h1.734L-20.956,0h-1.682Zm-1.91-1.33h1.57l-.768-3.018h-.035Zm4.389-.311a3.829,3.829,0,0,1,.554-2.168,1.773,1.773,0,0,1,1.562-.826,1.315,1.315,0,0,1,.744.214,1.885,1.885,0,0,1,.563.612l.105-.709h1.447V-.123a2.644,2.644,0,0,1-.724,1.966,2.693,2.693,0,0,1-1.983.718,3.193,3.193,0,0,1-.873-.132,4.01,4.01,0,0,1-.861-.354L-19.8.791a2.98,2.98,0,0,0,.68.281,2.858,2.858,0,0,0,.75.094.95.95,0,0,0,.791-.331,1.519,1.519,0,0,0,.264-.964V-.492a1.615,1.615,0,0,1-.533.46,1.44,1.44,0,0,1-.674.155,1.8,1.8,0,0,1-1.553-.771,3.428,3.428,0,0,1-.551-2.036Zm1.664.783a2.416,2.416,0,0,0,.2,1.083.692.692,0,0,0,.668.39.944.944,0,0,0,.454-.106.867.867,0,0,0,.325-.311v-3a1.024,1.024,0,0,0-.319-.364.78.78,0,0,0-.448-.129.7.7,0,0,0-.674.455,2.97,2.97,0,0,0-.205,1.206Zm7.377-2.142-.627-.018a.71.71,0,0,0-.437.129.819.819,0,0,0-.267.363V0h-1.664V-6.34h1.553l.064.85.029.012A1.729,1.729,0,0,1-12.5-6.2a.891.891,0,0,1,.636-.261,1.48,1.48,0,0,1,.237.021,1.612,1.612,0,0,1,.22.05ZM-9,0h-1.664V-6.34H-9Zm0-7.869h-1.664V-9.141H-9Zm3.475,6.662a.581.581,0,0,0,.513-.252,1.28,1.28,0,0,0,.173-.727h1.512l.018.035A2.172,2.172,0,0,1-3.92-.516a2.155,2.155,0,0,1-1.6.639,2.305,2.305,0,0,1-1.89-.8,3.162,3.162,0,0,1-.659-2.074v-.814a3.2,3.2,0,0,1,.656-2.077,2.279,2.279,0,0,1,1.881-.812A2.112,2.112,0,0,1-3.9-5.795a2.483,2.483,0,0,1,.589,1.787l-.012.029H-4.837a1.731,1.731,0,0,0-.173-.833.562.562,0,0,0-.524-.315A.685.685,0,0,0-6.22-4.7a2.836,2.836,0,0,0-.187,1.133v.816A2.8,2.8,0,0,0-6.22-1.618.7.7,0,0,0-5.522-1.207ZM.712-.732A1.871,1.871,0,0,1,.088-.1a1.58,1.58,0,0,1-.829.22A1.561,1.561,0,0,1-2.068-.519a3.342,3.342,0,0,1-.478-1.989V-6.34H-.882v3.848a2.179,2.179,0,0,0,.164.98.524.524,0,0,0,.486.305,1.079,1.079,0,0,0,.483-.1.969.969,0,0,0,.354-.3V-6.34h1.67V0H.812ZM5.065,0H3.4V-9.141H5.065ZM8.206-7.916V-6.34h.879v1.207H8.206v3.182a1.036,1.036,0,0,0,.111.554.348.348,0,0,0,.3.167,1.916,1.916,0,0,0,.258-.015,1.886,1.886,0,0,0,.234-.05L9.243-.029a3.318,3.318,0,0,1-.5.117,3.793,3.793,0,0,1-.545.035,1.529,1.529,0,0,1-1.228-.5,2.39,2.39,0,0,1-.425-1.573V-5.133h-.75V-6.34h.75V-7.916ZM13.239-.732a1.871,1.871,0,0,1-.624.636,1.58,1.58,0,0,1-.829.22,1.561,1.561,0,0,1-1.327-.642,3.342,3.342,0,0,1-.478-1.989V-6.34h1.664v3.848a2.179,2.179,0,0,0,.164.98.524.524,0,0,0,.486.305,1.079,1.079,0,0,0,.483-.1.969.969,0,0,0,.354-.3V-6.34H14.8V0H13.339Zm5.607-4.09L18.22-4.84a.71.71,0,0,0-.437.129.819.819,0,0,0-.267.363V0H15.853V-6.34h1.553l.064.85.029.012a1.729,1.729,0,0,1,.425-.718.891.891,0,0,1,.636-.261,1.48,1.48,0,0,1,.237.021,1.612,1.612,0,0,1,.22.05ZM22.778,0a2.845,2.845,0,0,1-.126-.346,2.822,2.822,0,0,1-.085-.381A1.982,1.982,0,0,1,22-.108a1.348,1.348,0,0,1-.782.231,1.621,1.621,0,0,1-1.257-.516,1.961,1.961,0,0,1-.472-1.377,1.8,1.8,0,0,1,.6-1.447,2.675,2.675,0,0,1,1.784-.516H22.5v-.516a1.275,1.275,0,0,0-.167-.712.563.563,0,0,0-.5-.249.482.482,0,0,0-.422.2,1,1,0,0,0-.141.58l-1.611-.006-.018-.035a1.738,1.738,0,0,1,.612-1.406,2.424,2.424,0,0,1,1.69-.58,2.262,2.262,0,0,1,1.608.577,2.138,2.138,0,0,1,.618,1.644V-1.67a5.554,5.554,0,0,0,.064.873,4.757,4.757,0,0,0,.2.8ZM21.694-1.131a.857.857,0,0,0,.466-.135,1,1,0,0,0,.337-.346V-2.777H21.87a.606.606,0,0,0-.551.264,1.211,1.211,0,0,0-.17.668.849.849,0,0,0,.146.516A.468.468,0,0,0,21.694-1.131ZM26.962,0H25.3V-9.141h1.664ZM-45.527,13h-1.664V9.467H-49.84V13h-1.67V4.469h1.67V8.137h2.648V4.469h1.664Zm4.271,0a2.845,2.845,0,0,1-.126-.346,2.822,2.822,0,0,1-.085-.381,1.982,1.982,0,0,1-.571.618,1.348,1.348,0,0,1-.782.231,1.621,1.621,0,0,1-1.257-.516,1.961,1.961,0,0,1-.472-1.377,1.8,1.8,0,0,1,.6-1.447,2.675,2.675,0,0,1,1.784-.516h.627V8.752A1.275,1.275,0,0,0-41.7,8.04a.563.563,0,0,0-.5-.249.482.482,0,0,0-.422.2,1,1,0,0,0-.141.58l-1.611-.006-.018-.035a1.738,1.738,0,0,1,.612-1.406,2.424,2.424,0,0,1,1.69-.58,2.262,2.262,0,0,1,1.608.577,2.138,2.138,0,0,1,.618,1.644V11.33a5.554,5.554,0,0,0,.064.873,4.757,4.757,0,0,0,.2.8Zm-1.084-1.131a.857.857,0,0,0,.466-.135,1,1,0,0,0,.337-.346V10.223h-.627a.606.606,0,0,0-.551.264,1.211,1.211,0,0,0-.17.668.849.849,0,0,0,.146.516A.468.468,0,0,0-42.34,11.869Zm6.521-3.691-.627-.018a.71.71,0,0,0-.437.129.819.819,0,0,0-.267.363V13h-1.664V6.66h1.553l.064.85.029.012a1.729,1.729,0,0,1,.425-.718.891.891,0,0,1,.636-.261,1.48,1.48,0,0,1,.237.021,1.612,1.612,0,0,1,.22.05Zm2.982,2.432.076.48h.035l.082-.48.732-3.949h1.74L-31.928,13h-1.629L-35.32,6.66h1.74Zm5.684,2.514a2.421,2.421,0,0,1-1.9-.785,2.858,2.858,0,0,1-.7-1.98V9.467a3.272,3.272,0,0,1,.653-2.1,2.183,2.183,0,0,1,1.808-.82,2.1,2.1,0,0,1,1.723.744,3.107,3.107,0,0,1,.609,2.027v1.02H-28.1v.023a1.752,1.752,0,0,0,.284,1.031.979.979,0,0,0,.858.4,2.291,2.291,0,0,0,.762-.105,4.007,4.007,0,0,0,.7-.352l.422,1.061a2.513,2.513,0,0,1-.876.521A3.41,3.41,0,0,1-27.152,13.123Zm-.141-5.25a.618.618,0,0,0-.586.365,2.367,2.367,0,0,0-.211.983H-26.6V8.985a1.69,1.69,0,0,0-.164-.821A.565.565,0,0,0-27.293,7.873Zm5.93,3.469a.616.616,0,0,0-.211-.466,3.551,3.551,0,0,0-.809-.483,4.264,4.264,0,0,1-1.433-.809,1.539,1.539,0,0,1-.478-1.172,1.711,1.711,0,0,1,.612-1.321,2.339,2.339,0,0,1,1.62-.548,2.424,2.424,0,0,1,1.682.563,1.774,1.774,0,0,1,.6,1.436l-.018.035H-21.4a1.085,1.085,0,0,0-.164-.633.573.573,0,0,0-.5-.234.632.632,0,0,0-.457.182.589.589,0,0,0-.187.439.589.589,0,0,0,.188.454,3.777,3.777,0,0,0,.814.472,3.949,3.949,0,0,1,1.477.806,1.625,1.625,0,0,1,.48,1.222,1.621,1.621,0,0,1-.645,1.324,2.63,2.63,0,0,1-1.693.516,2.344,2.344,0,0,1-1.734-.639,1.886,1.886,0,0,1-.609-1.441l.012-.035H-22.9a1.034,1.034,0,0,0,.234.727.831.831,0,0,0,.615.223.721.721,0,0,0,.51-.164A.587.587,0,0,0-21.363,11.342Zm4.424-6.258V6.66h.879V7.867h-.879v3.182a1.036,1.036,0,0,0,.111.554.348.348,0,0,0,.3.167,1.916,1.916,0,0,0,.258-.015,1.886,1.886,0,0,0,.234-.05l.129,1.266a3.318,3.318,0,0,1-.5.117,3.793,3.793,0,0,1-.545.035,1.529,1.529,0,0,1-1.228-.5,2.39,2.39,0,0,1-.425-1.573V7.867h-.75V6.66h.75V5.084ZM-13.383,13h-1.664V6.66h1.664Zm0-7.869h-1.664V3.859h1.664ZM-10.7,6.66l.07.873A2.113,2.113,0,0,1-9.981,6.8a1.474,1.474,0,0,1,.847-.261,1.468,1.468,0,0,1,1.245.609,3.227,3.227,0,0,1,.454,1.916V13h-1.67V9.064A1.7,1.7,0,0,0-9.29,8.14a.647.647,0,0,0-.571-.267.758.758,0,0,0-.41.117,1,1,0,0,0-.316.323V13h-1.664V6.66Zm4.084,2.877a3.829,3.829,0,0,1,.554-2.168A1.773,1.773,0,0,1-4.5,6.543a1.315,1.315,0,0,1,.744.214,1.885,1.885,0,0,1,.563.612l.105-.709h1.447v6.217a2.644,2.644,0,0,1-.724,1.966,2.693,2.693,0,0,1-1.983.718,3.193,3.193,0,0,1-.873-.132,4.01,4.01,0,0,1-.861-.354l.293-1.283a2.98,2.98,0,0,0,.68.281,2.858,2.858,0,0,0,.75.094.95.95,0,0,0,.791-.331,1.519,1.519,0,0,0,.264-.964v-.363a1.615,1.615,0,0,1-.533.46,1.44,1.44,0,0,1-.674.155,1.8,1.8,0,0,1-1.553-.771,3.428,3.428,0,0,1-.551-2.036Zm1.664.783a2.416,2.416,0,0,0,.2,1.083.692.692,0,0,0,.668.39.944.944,0,0,0,.454-.106.867.867,0,0,0,.325-.311v-3a1.024,1.024,0,0,0-.319-.364.78.78,0,0,0-.448-.129.7.7,0,0,0-.674.455A2.97,2.97,0,0,0-4.951,9.54Zm12.469-.068.018.035a2.933,2.933,0,0,1-.668,2.121,2.637,2.637,0,0,1-2,.715,2.819,2.819,0,0,1-2.115-.812,3.158,3.158,0,0,1-.791-2.3V7.463a3.238,3.238,0,0,1,.765-2.3A2.67,2.67,0,0,1,4.77,4.346a2.711,2.711,0,0,1,2.054.727,3.078,3.078,0,0,1,.718,2.15l-.018.035H5.918a1.991,1.991,0,0,0-.229-1.212,1.053,1.053,0,0,0-.92-.371.978.978,0,0,0-.861.44,2.39,2.39,0,0,0-.3,1.331V10.01a2.292,2.292,0,0,0,.319,1.343,1.082,1.082,0,0,0,.935.44.944.944,0,0,0,.841-.349,2.083,2.083,0,0,0,.208-1.192Zm.721-.809a3.152,3.152,0,0,1,.677-2.089,2.332,2.332,0,0,1,1.9-.812,2.341,2.341,0,0,1,1.9.812,3.143,3.143,0,0,1,.68,2.089v.785a3.126,3.126,0,0,1-.68,2.092,2.346,2.346,0,0,1-1.893.8,2.35,2.35,0,0,1-1.9-.8,3.135,3.135,0,0,1-.677-2.092Zm1.658.783a2.646,2.646,0,0,0,.205,1.15.73.73,0,0,0,.715.417.722.722,0,0,0,.7-.42,2.617,2.617,0,0,0,.208-1.147V9.44A2.624,2.624,0,0,0,11.517,8.3a.8.8,0,0,0-1.412,0A2.628,2.628,0,0,0,9.9,9.44ZM15.791,6.66l.07.873a2.113,2.113,0,0,1,.647-.729,1.549,1.549,0,0,1,2.092.349,3.227,3.227,0,0,1,.454,1.916V13h-1.67V9.064A1.7,1.7,0,0,0,17.2,8.14a.647.647,0,0,0-.571-.267.758.758,0,0,0-.41.117,1,1,0,0,0-.316.323V13H14.238V6.66Zm6.287-1.576V6.66h.879V7.867h-.879v3.182a1.036,1.036,0,0,0,.111.554.348.348,0,0,0,.3.167,1.916,1.916,0,0,0,.258-.015,1.886,1.886,0,0,0,.234-.05l.129,1.266a3.318,3.318,0,0,1-.5.117,3.793,3.793,0,0,1-.545.035,1.529,1.529,0,0,1-1.228-.5,2.39,2.39,0,0,1-.425-1.573V7.867h-.75V6.66h.75V5.084ZM26.982,13a2.919,2.919,0,0,1-.211-.727,1.982,1.982,0,0,1-.571.618,1.348,1.348,0,0,1-.782.231,1.621,1.621,0,0,1-1.257-.516,1.961,1.961,0,0,1-.472-1.377,1.8,1.8,0,0,1,.6-1.447,2.675,2.675,0,0,1,1.784-.516H26.7V8.752a1.275,1.275,0,0,0-.167-.712.563.563,0,0,0-.5-.249.482.482,0,0,0-.422.2,1,1,0,0,0-.141.58l-1.611-.006-.018-.035a1.738,1.738,0,0,1,.612-1.406,2.424,2.424,0,0,1,1.69-.58,2.262,2.262,0,0,1,1.608.577,2.138,2.138,0,0,1,.618,1.644V11.33a5.554,5.554,0,0,0,.064.873,4.757,4.757,0,0,0,.2.8ZM25.9,11.869a.857.857,0,0,0,.466-.135,1,1,0,0,0,.337-.346V10.223h-.627a.606.606,0,0,0-.551.264,1.211,1.211,0,0,0-.17.668.849.849,0,0,0,.146.516A.468.468,0,0,0,25.9,11.869ZM31.166,13H29.5V6.66h1.664Zm0-7.869H29.5V3.859h1.664ZM33.85,6.66l.07.873a2.113,2.113,0,0,1,.647-.729,1.549,1.549,0,0,1,2.092.349,3.227,3.227,0,0,1,.454,1.916V13h-1.67V9.064a1.7,1.7,0,0,0-.185-.924.647.647,0,0,0-.571-.267.758.758,0,0,0-.41.117,1,1,0,0,0-.316.323V13H32.3V6.66Zm6.773,6.463a2.421,2.421,0,0,1-1.9-.785,2.858,2.858,0,0,1-.7-1.98V9.467a3.272,3.272,0,0,1,.653-2.1,2.183,2.183,0,0,1,1.808-.82,2.1,2.1,0,0,1,1.723.744,3.107,3.107,0,0,1,.609,2.027v1.02H39.68v.023a1.752,1.752,0,0,0,.284,1.031.979.979,0,0,0,.858.4,2.291,2.291,0,0,0,.762-.105,4.007,4.007,0,0,0,.7-.352L42.7,12.4a2.513,2.513,0,0,1-.876.521A3.41,3.41,0,0,1,40.623,13.123Zm-.141-5.25a.618.618,0,0,0-.586.365,2.367,2.367,0,0,0-.211.983H41.18V8.985a1.69,1.69,0,0,0-.164-.821A.565.565,0,0,0,40.482,7.873Zm6.164.3L46.02,8.16a.71.71,0,0,0-.437.129.819.819,0,0,0-.267.363V13H43.652V6.66h1.553l.064.85.029.012a1.729,1.729,0,0,1,.425-.718.891.891,0,0,1,.636-.261,1.48,1.48,0,0,1,.237.021,1.612,1.612,0,0,1,.22.05Zm3.6,3.164a.616.616,0,0,0-.211-.466,3.551,3.551,0,0,0-.809-.483A4.264,4.264,0,0,1,47.8,9.584a1.539,1.539,0,0,1-.478-1.172,1.711,1.711,0,0,1,.612-1.321,2.339,2.339,0,0,1,1.62-.548,2.424,2.424,0,0,1,1.682.563,1.774,1.774,0,0,1,.6,1.436l-.018.035H50.215a1.085,1.085,0,0,0-.164-.633.573.573,0,0,0-.5-.234.632.632,0,0,0-.457.182.626.626,0,0,0,0,.894,3.777,3.777,0,0,0,.814.472,3.949,3.949,0,0,1,1.477.806,1.732,1.732,0,0,1-.164,2.546,2.63,2.63,0,0,1-1.693.516,2.344,2.344,0,0,1-1.734-.639,1.886,1.886,0,0,1-.609-1.441l.012-.035h1.523a1.034,1.034,0,0,0,.234.727.831.831,0,0,0,.615.223.721.721,0,0,0,.51-.164A.587.587,0,0,0,50.25,11.342Z" transform="translate(954 158.66)" fill="#5e5b5c"/>
    </g>
  </g>
</svg>
