<svg xmlns="http://www.w3.org/2000/svg" xmlns:xlink="http://www.w3.org/1999/xlink" width="160" height="190" viewBox="0 0 160 190">
  <defs>
    <clipPath id="clip-Caps1">
      <rect width="160" height="190"/>
    </clipPath>
  </defs>
  <g id="Caps1" clip-path="url(#clip-Caps1)">
    <g id="Grupo_1675" data-name="Grupo 1675" transform="translate(5868 12141)">
      <path id="Trazado_9446" data-name="Trazado 9446" d="M14,0H114a14,14,0,0,1,14,14V141a14,14,0,0,1-14,14H14A14,14,0,0,1,0,141V14A14,14,0,0,1,14,0Z" transform="translate(-5852 -12123.34)" fill="none" opacity="0.93"/>
      <path id="Trazado_9456" data-name="Trazado 9456" d="M-5.919-2.869l.013.038A2.848,2.848,0,0,1-6.665-.606,3.137,3.137,0,0,1-8.9.133,3.193,3.193,0,0,1-11.27-.746a3.386,3.386,0,0,1-.876-2.5V-5.986a3.479,3.479,0,0,1,.847-2.5A3.013,3.013,0,0,1-9.01-9.375a3.352,3.352,0,0,1,2.33.736,2.79,2.79,0,0,1,.787,2.228l-.013.038H-7.646A1.894,1.894,0,0,0-7.96-7.617,1.342,1.342,0,0,0-9.01-7.973a1.146,1.146,0,0,0-1.009.486A2.638,2.638,0,0,0-10.356-6v2.755a2.505,2.505,0,0,0,.362,1.495A1.274,1.274,0,0,0-8.9-1.263a1.178,1.178,0,0,0,.958-.352,2.013,2.013,0,0,0,.292-1.254ZM-1.469,0a3.021,3.021,0,0,1-.168-.5,4.207,4.207,0,0,1-.1-.546,2.43,2.43,0,0,1-.6.844,1.322,1.322,0,0,1-.911.33A1.863,1.863,0,0,1-4.691-.416a2.143,2.143,0,0,1-.5-1.508,1.921,1.921,0,0,1,.663-1.558,3.03,3.03,0,0,1,1.984-.555h.781v-.571a1.384,1.384,0,0,0-.19-.79.642.642,0,0,0-.565-.276.6.6,0,0,0-.5.222,1.021,1.021,0,0,0-.171.635l-1.727-.006-.013-.038a1.83,1.83,0,0,1,.667-1.511A2.707,2.707,0,0,1-2.409-7a2.487,2.487,0,0,1,1.758.622A2.3,2.3,0,0,1,.022-4.6v2.818a5.723,5.723,0,0,0,.07.914A5.366,5.366,0,0,0,.308,0ZM-2.783-1.193a1,1,0,0,0,.635-.219,1.1,1.1,0,0,0,.381-.53V-3.021h-.781a.748.748,0,0,0-.657.292,1.245,1.245,0,0,0-.206.736.919.919,0,0,0,.171.578A.548.548,0,0,0-2.783-1.193ZM6.624-3.263A4.456,4.456,0,0,1,6.018-.8a1.918,1.918,0,0,1-1.7.93,1.658,1.658,0,0,1-.774-.175,1.691,1.691,0,0,1-.584-.511V2.641H1.177V-6.868H2.815l.076.7a1.909,1.909,0,0,1,.6-.616A1.513,1.513,0,0,1,4.307-7,1.9,1.9,0,0,1,6.018-6,4.95,4.95,0,0,1,6.624-3.4ZM4.834-3.4a4.345,4.345,0,0,0-.241-1.587.8.8,0,0,0-.749-.6.9.9,0,0,0-.527.156A1.089,1.089,0,0,0,2.961-5v3.237a.931.931,0,0,0,.355.368,1.058,1.058,0,0,0,.533.127.78.78,0,0,0,.752-.53,3.761,3.761,0,0,0,.232-1.469Zm5.8,1.606a.682.682,0,0,0-.235-.521,3.858,3.858,0,0,0-.908-.527A4.806,4.806,0,0,1,7.912-3.72a1.637,1.637,0,0,1-.527-1.257A1.837,1.837,0,0,1,8.055-6.4,2.585,2.585,0,0,1,9.829-7a2.673,2.673,0,0,1,1.844.613,1.887,1.887,0,0,1,.657,1.546l-.013.038H10.591a1.16,1.16,0,0,0-.19-.7.666.666,0,0,0-.578-.263.729.729,0,0,0-.524.2.659.659,0,0,0-.213.5.628.628,0,0,0,.209.492,4.367,4.367,0,0,0,.914.517,4.442,4.442,0,0,1,1.615.879,1.728,1.728,0,0,1,.53,1.311,1.753,1.753,0,0,1-.7,1.435A2.883,2.883,0,0,1,9.8.133a2.592,2.592,0,0,1-1.9-.686A2.016,2.016,0,0,1,7.24-2.107l.019-.038H8.884a1.115,1.115,0,0,0,.267.8.965.965,0,0,0,.7.244.819.819,0,0,0,.581-.187A.658.658,0,0,0,10.629-1.79Z" transform="translate(-5788 -11986)" fill="#5e5b5c"/>
      <path id="Trazado_6243" data-name="Trazado 6243" d="M4899.1,5988.206l-.014,0-.528-11.939.014-.061-.017,0-.33-7.464-.085,0c-.473-3.878-2.906-7.464-6.974-10.215a31.986,31.986,0,0,0-33.3,0c-4.067,2.751-6.5,6.337-6.973,10.215l-.086,0-.331,7.464-.016,0c0,.009.006.03.013.061l-.561,12.662v.035c0,4.569,2.6,8.843,7.323,12.035a33.22,33.22,0,0,0,34.567,0c4.722-3.191,7.322-7.465,7.322-12.035l-.031-.707C4899.1,5988.23,4899.1,5988.212,4899.1,5988.206Zm-5.847-6.167c-4.1,4.043-10.583,6.181-18.739,6.181s-14.635-2.138-18.738-6.181a14.4,14.4,0,0,1-3.728-5.933l.029-.657a16.82,16.82,0,0,0,5.785,6.3,31.983,31.983,0,0,0,33.3,0,16.812,16.812,0,0,0,5.785-6.3l.029.657A14.383,14.383,0,0,1,4893.255,5982.039Zm-37.385,2.195a20.225,20.225,0,0,0,2.972,2.037v11.047a19.265,19.265,0,0,1-2.972-2.384Zm4.542,2.841q.729.338,1.5.637.719.278,1.475.517v11.338c-.308-.112-.611-.226-.909-.348a22.594,22.594,0,0,1-2.063-.971Zm4.542,1.6q1.431.367,2.972.615v11.483a28.893,28.893,0,0,1-2.972-.7Zm4.542.831q1.443.168,2.971.234v11.54q-1.529-.075-2.971-.263Zm4.542.275c.16,0,.318,0,.479,0q1.356,0,2.651-.074v11.536q-1.295.083-2.651.084c-.161,0-.319,0-.479,0Zm4.7-.19q1.533-.146,2.972-.4v11.472q-1.436.289-2.972.454Zm4.542-.722a28.871,28.871,0,0,0,2.972-.845v11.313a25.767,25.767,0,0,1-2.972.962Zm4.542-1.444a22.607,22.607,0,0,0,2.972-1.512v11a20.989,20.989,0,0,1-2.972,1.738Zm4.542-2.567a18.849,18.849,0,0,0,2.073-1.783q.485-.484.9-.965v10.29a18.147,18.147,0,0,1-1.754,2.127q-.58.6-1.218,1.157Zm5.15,3.211a12.538,12.538,0,0,1-.608,1.6v-9.682c.082-.131.159-.26.233-.387Zm-23-32.657c12.209,0,22.142,6.6,22.142,14.722s-9.933,14.722-22.142,14.722-22.142-6.6-22.142-14.722S4862.307,5955.416,4874.516,5955.416Zm-20.216,27.36v10.4a15.638,15.638,0,0,1-2.774-5.222l.369-8.35A17.084,17.084,0,0,0,4854.3,5982.776Zm20.216,21.5c-10.458,0-19.31-4.658-22.111-11.017a19.652,19.652,0,0,0,1.934,2.361,21.744,21.744,0,0,0,7.477,5.026,36.806,36.806,0,0,0,25.407,0,21.821,21.821,0,0,0,7.49-5.025,19.664,19.664,0,0,0,1.868-2.258C4893.729,5999.667,4884.917,6004.274,4874.516,6004.274Z" transform="translate(-10685.91 -18019.844)" fill="#5e5b5c"/>
      <path id="Trazado_6244" data-name="Trazado 6244" d="M5304.569,5983.282c0-.012.005-.021.006-.025l-.007,0-.451-10.186c0-.019.008-.033.009-.039l-.011,0-.283-6.388-.073,0c-.4-3.34-2.495-6.427-5.991-8.792a27.357,27.357,0,0,0-28.5,0c-3.5,2.365-5.587,5.452-5.991,8.792l-.073,0-.283,6.388-.01,0c0,.006,0,.02.008.038l-.477,10.77v.035c0,3.932,2.233,7.607,6.289,10.348a28.414,28.414,0,0,0,29.574,0c4.055-2.741,6.288-6.416,6.288-10.348Zm-5.109-5.447c-3.471,3.462-8.983,5.292-15.941,5.292-6.907,0-12.395-1.806-15.869-5.222a12.053,12.053,0,0,1-3.15-5.006l0-.1a14.687,14.687,0,0,0,4.765,5.028,27.36,27.36,0,0,0,28.5,0,14.683,14.683,0,0,0,4.765-5.028l0,.1A11.893,11.893,0,0,1,5299.46,5977.834Zm-32.037,1.986a16.984,16.984,0,0,0,2.36,1.669v9.1a15.852,15.852,0,0,1-2.338-1.983l-.022-.023Zm3.93,2.5a21.484,21.484,0,0,0,2.214.89v9.388a19.157,19.157,0,0,1-2.214-1.033Zm3.784,1.364c.707.188,1.416.346,2.119.475v9.531q-1.095-.23-2.119-.544Zm3.689.721c.791.1,1.567.175,2.321.222v9.594q-1.192-.083-2.321-.25Zm3.891.286c.271.005.54.009.8.009.6,0,1.228-.014,1.874-.046v9.6q-.919.05-1.874.05c-.269,0-.536,0-.8-.01Zm4.246-.147c.709-.066,1.433-.155,2.167-.273v9.548q-1.054.193-2.167.309Zm3.736-.569c.789-.172,1.58-.38,2.364-.631v9.412a22.575,22.575,0,0,1-2.364.726Zm3.934-1.2a19.816,19.816,0,0,0,2.211-1.05v9.147a18.1,18.1,0,0,1-2.211,1.227Zm3.781-2.03a16.2,16.2,0,0,0,1.918-1.571v8.636c-.2.242-.423.486-.657.73a15.692,15.692,0,0,1-1.261,1.173Zm4.577,2.36a12.043,12.043,0,0,1-1.089,2.464v-8.142c.3-.39.561-.771.787-1.135Zm-19.471-27.688c10.336,0,18.745,5.573,18.745,12.424s-8.409,12.423-18.745,12.423-18.744-5.573-18.744-12.423S5273.184,5955.416,5283.519,5955.416Zm-17.666,22.876v8.369a12.877,12.877,0,0,1-1.8-3.664l.3-6.706A14.694,14.694,0,0,0,5265.854,5978.292Zm17.666,18.508c-8.185,0-15.207-3.359-18.1-8.106.254.308.528.619.826.93,4.939,5.16,12.118,6.243,17.271,6.243s12.334-1.083,17.288-6.243c.268-.279.518-.559.751-.836C5298.633,5993.486,5291.649,5996.8,5283.519,5996.8Z" transform="translate(-11044.475 -18019.844)" fill="#5e5b5c"/>
    </g>
  </g>
</svg>
