<svg xmlns="http://www.w3.org/2000/svg" xmlns:xlink="http://www.w3.org/1999/xlink" width="160" height="190" viewBox="0 0 160 190">
  <defs>
    <clipPath id="clip-Flexible-p1">
      <rect width="160" height="190"/>
    </clipPath>
  </defs>
  <g id="Flexible-p1" clip-path="url(#clip-Flexible-p1)">
    <g id="Grupo_1677" data-name="Grupo 1677" transform="translate(5695 12141)">
      <path id="Trazado_9448" data-name="Trazado 9448" d="M14,0H114a14,14,0,0,1,14,14V141a14,14,0,0,1-14,14H14A14,14,0,0,1,0,141V14A14,14,0,0,1,14,0Z" transform="translate(-5679 -12123.34)" fill="none" opacity="0.93"/>
      <path id="Trazado_17" data-name="Trazado 17" d="M86.855,59.675c3.93-10.594,3.93-41.417,0-52.01L88.008,1.56A1.316,1.316,0,0,0,86.715,0H43.1A1.316,1.316,0,0,0,41.8,1.56l1.152,6.106c-3.93,10.593-3.93,41.416,0,52.01L41.8,65.781a1.316,1.316,0,0,0,1.293,1.56H86.718a1.317,1.317,0,0,0,1.268-1.667ZM85.128,2.631,84.4,6.469h-39l-.724-3.838ZM45.237,9.1H84.572c3.467,10.276,3.467,38.862,0,49.139H45.237C41.771,47.963,41.771,19.376,45.237,9.1Zm-.555,55.609.725-3.838h39l.724,3.838Z" transform="translate(-5680.007 -12081.341)" fill="#5e5b5c"/>
      <path id="Trazado_18" data-name="Trazado 18" d="M79.235,125.378l.011,0,.076.012a2.581,2.581,0,0,0,.321.019,17.863,17.863,0,0,0,4.262-1.035,29.214,29.214,0,0,1,5.755-1.407c.145-.008.288-.012.431-.012a16.5,16.5,0,0,1,3.684.576,22.591,22.591,0,0,0,5.321.758c1.678,0,5.878-.308,8.618-3.163a8.638,8.638,0,0,0,2.277-6.606c-.3-7.374-8.3-10.564-12.318-10.564-6.1,0-9.5,5.024-10.707,8.3-8.213,1.2-10.982,7.848-10.982,9.607A3.457,3.457,0,0,0,79.235,125.378Zm18.437-18.789c2.754,0,9.453,2.314,9.689,8.041a6.112,6.112,0,0,1-1.546,4.675c-2.1,2.184-5.673,2.354-6.72,2.354a20.144,20.144,0,0,1-4.725-.69,18.747,18.747,0,0,0-4.28-.644c-.194,0-.388.005-.578.016a19.028,19.028,0,0,0-3.79.744,28.322,28.322,0,0,0,3.49-7.232c0-.006,0-.013.005-.02s0-.008,0-.012C89.305,113.527,91.359,106.588,97.672,106.588Zm-11.74,8.562c-1.255,3.006-3.6,7.2-6.442,7.606-.873-.156-.875-.594-.875-.881C78.652,121.179,80.344,116.6,85.932,115.15Z" transform="translate(-5708.095 -12162.501)" fill="#5e5b5c"/>
      <path id="Trazado_9449" data-name="Trazado 9449" d="M-42.418-3.866h-2.933V0h-1.79V-9.242h5.281v1.4h-3.491v2.577h2.933ZM-39.073,0h-1.79V-9.9h1.79Zm3.91.133A2.542,2.542,0,0,1-37.27-.806a3.76,3.76,0,0,1-.749-2.418v-.26a4.162,4.162,0,0,1,.72-2.533A2.373,2.373,0,0,1-35.271-7a2.217,2.217,0,0,1,1.86.832,3.587,3.587,0,0,1,.647,2.26v.978h-3.466a2.413,2.413,0,0,0,.346,1.212,1.041,1.041,0,0,0,.93.451,2.763,2.763,0,0,0,.892-.124,3.623,3.623,0,0,0,.771-.39l.463,1.117A2.968,2.968,0,0,1-33.82-.1,3.881,3.881,0,0,1-35.163.133Zm-.108-5.726a.717.717,0,0,0-.67.4,2.745,2.745,0,0,0-.276,1.089h1.7v-.159a2.226,2.226,0,0,0-.175-.978A.6.6,0,0,0-35.271-5.592Zm5.726.92h.038l.768-2.2h2.019l-1.733,3.4L-26.663,0h-2.012l-.806-2.266h-.038L-30.32,0h-2.019l1.79-3.472-1.739-3.4h2ZM-24.131,0h-1.79V-6.868h1.79Zm0-8.538h-1.79V-9.9h1.79ZM-17.4-3.263a4.56,4.56,0,0,1-.587,2.476,1.911,1.911,0,0,1-1.717.92A1.587,1.587,0,0,1-20.57-.1a1.942,1.942,0,0,1-.628-.67L-21.319,0h-1.53V-9.9h1.784v3.644a1.784,1.784,0,0,1,.584-.546A1.532,1.532,0,0,1-19.713-7a1.891,1.891,0,0,1,1.723.978A5.066,5.066,0,0,1-17.4-3.4Zm-1.79-.133A4.907,4.907,0,0,0-19.4-5.008a.771.771,0,0,0-.768-.578.908.908,0,0,0-.536.159,1.1,1.1,0,0,0-.359.444V-1.79a.927.927,0,0,0,.355.39,1.064,1.064,0,0,0,.546.13.758.758,0,0,0,.768-.508,4.186,4.186,0,0,0,.2-1.485ZM-14.577,0h-1.79V-9.9h1.79Zm3.91.133a2.542,2.542,0,0,1-2.107-.939,3.76,3.76,0,0,1-.749-2.418v-.26a4.162,4.162,0,0,1,.72-2.533A2.373,2.373,0,0,1-10.775-7a2.217,2.217,0,0,1,1.86.832A3.587,3.587,0,0,1-8.268-3.9v.978h-3.466a2.413,2.413,0,0,0,.346,1.212,1.041,1.041,0,0,0,.93.451,2.763,2.763,0,0,0,.892-.124,3.623,3.623,0,0,0,.771-.39L-8.331-.66A2.968,2.968,0,0,1-9.325-.1,3.881,3.881,0,0,1-10.667.133Zm-.108-5.726a.717.717,0,0,0-.67.4,2.745,2.745,0,0,0-.276,1.089h1.7v-.159a2.226,2.226,0,0,0-.175-.978A.6.6,0,0,0-10.775-5.592ZM.974-3.263A4.456,4.456,0,0,1,.368-.8a1.918,1.918,0,0,1-1.7.93A1.658,1.658,0,0,1-2.1-.041a1.691,1.691,0,0,1-.584-.511V2.641H-4.472V-6.868h1.638l.076.7a1.909,1.909,0,0,1,.6-.616A1.513,1.513,0,0,1-1.343-7,1.9,1.9,0,0,1,.368-6,4.95,4.95,0,0,1,.974-3.4ZM-.816-3.4a4.345,4.345,0,0,0-.241-1.587.8.8,0,0,0-.749-.6.9.9,0,0,0-.527.156A1.089,1.089,0,0,0-2.688-5v3.237a.931.931,0,0,0,.355.368,1.058,1.058,0,0,0,.533.127.78.78,0,0,0,.752-.53A3.761,3.761,0,0,0-.816-3.263ZM5.354,0a3.021,3.021,0,0,1-.168-.5,4.207,4.207,0,0,1-.1-.546,2.43,2.43,0,0,1-.6.844,1.322,1.322,0,0,1-.911.33A1.863,1.863,0,0,1,2.133-.416a2.143,2.143,0,0,1-.5-1.508,1.921,1.921,0,0,1,.663-1.558,3.03,3.03,0,0,1,1.984-.555h.781v-.571a1.384,1.384,0,0,0-.19-.79A.642.642,0,0,0,4.3-5.675a.6.6,0,0,0-.5.222,1.021,1.021,0,0,0-.171.635L1.9-4.824l-.013-.038a1.83,1.83,0,0,1,.667-1.511A2.707,2.707,0,0,1,4.415-7a2.487,2.487,0,0,1,1.758.622A2.3,2.3,0,0,1,6.846-4.6v2.818a5.723,5.723,0,0,0,.07.914A5.366,5.366,0,0,0,7.132,0ZM4.04-1.193a1,1,0,0,0,.635-.219,1.1,1.1,0,0,0,.381-.53V-3.021H4.275a.748.748,0,0,0-.657.292,1.245,1.245,0,0,0-.206.736.919.919,0,0,0,.171.578A.548.548,0,0,0,4.04-1.193Zm6.487-.07a.659.659,0,0,0,.578-.282,1.407,1.407,0,0,0,.2-.809h1.619l.019.038a2.323,2.323,0,0,1-.67,1.761,2.361,2.361,0,0,1-1.742.689A2.42,2.42,0,0,1,8.461-.835a4.086,4.086,0,0,1-.72-2.5v-.184a4.092,4.092,0,0,1,.72-2.5A2.408,2.408,0,0,1,10.521-7a2.3,2.3,0,0,1,1.777.714,2.661,2.661,0,0,1,.641,1.927l-.013.032H11.3a1.868,1.868,0,0,0-.2-.92.632.632,0,0,0-.584-.349.78.78,0,0,0-.774.568,4.313,4.313,0,0,0-.216,1.5v.184a4.321,4.321,0,0,0,.216,1.517A.783.783,0,0,0,10.528-1.263Zm5.434-1.619h-.324V0h-1.79V-9.9h1.79v5.637h.292l1.244-2.6h2.063l-1.866,3.1L19.516,0h-2.05ZM23.451,0a3.021,3.021,0,0,1-.168-.5,4.206,4.206,0,0,1-.1-.546,2.43,2.43,0,0,1-.6.844,1.322,1.322,0,0,1-.911.33A1.863,1.863,0,0,1,20.23-.416a2.143,2.143,0,0,1-.5-1.508,1.921,1.921,0,0,1,.663-1.558,3.03,3.03,0,0,1,1.984-.555h.781v-.571a1.384,1.384,0,0,0-.19-.79.642.642,0,0,0-.565-.276.6.6,0,0,0-.5.222,1.021,1.021,0,0,0-.171.635L20-4.824l-.013-.038a1.83,1.83,0,0,1,.667-1.511A2.707,2.707,0,0,1,22.512-7a2.487,2.487,0,0,1,1.758.622A2.3,2.3,0,0,1,24.943-4.6v2.818a5.724,5.724,0,0,0,.07.914A5.366,5.366,0,0,0,25.229,0ZM22.137-1.193a1,1,0,0,0,.635-.219,1.1,1.1,0,0,0,.381-.53V-3.021h-.781a.748.748,0,0,0-.657.292,1.245,1.245,0,0,0-.206.736.919.919,0,0,0,.171.578A.548.548,0,0,0,22.137-1.193Zm3.726-2.2A4.971,4.971,0,0,1,26.467-6,1.9,1.9,0,0,1,28.174-7a1.474,1.474,0,0,1,.835.238,2.106,2.106,0,0,1,.625.676l.121-.787H31.31v6.83a2.709,2.709,0,0,1-.784,2.076,3.05,3.05,0,0,1-2.174.736,3.607,3.607,0,0,1-.962-.14,4.494,4.494,0,0,1-.949-.381L26.74.9a3.579,3.579,0,0,0,.762.3,3.248,3.248,0,0,0,.838.1,1.121,1.121,0,0,0,.885-.327,1.51,1.51,0,0,0,.289-1.019V-.552a1.82,1.82,0,0,1-.594.511,1.61,1.61,0,0,1-.759.175A1.91,1.91,0,0,1,26.467-.8a4.475,4.475,0,0,1-.6-2.466Zm1.79.133A3.881,3.881,0,0,0,27.876-1.8a.771.771,0,0,0,.755.527,1.027,1.027,0,0,0,.524-.127.984.984,0,0,0,.359-.368v-3.25a1.159,1.159,0,0,0-.365-.422.886.886,0,0,0-.511-.149.791.791,0,0,0-.752.6,4.5,4.5,0,0,0-.232,1.59ZM34.369,0h-1.79V-6.868h1.79Zm0-8.538h-1.79V-9.9h1.79Zm2.92,1.669.076.958a2.334,2.334,0,0,1,.714-.8A1.644,1.644,0,0,1,39.022-7a1.608,1.608,0,0,1,1.374.682,3.665,3.665,0,0,1,.5,2.142V0H39.1V-4.17a2.316,2.316,0,0,0-.187-1.095.615.615,0,0,0-.568-.321,1.04,1.04,0,0,0-.536.14,1.211,1.211,0,0,0-.4.394V0H35.62V-6.868ZM41.815-3.4A4.971,4.971,0,0,1,42.418-6,1.9,1.9,0,0,1,44.126-7a1.474,1.474,0,0,1,.835.238,2.106,2.106,0,0,1,.625.676l.121-.787h1.555v6.83a2.709,2.709,0,0,1-.784,2.076,3.05,3.05,0,0,1-2.174.736,3.607,3.607,0,0,1-.962-.14,4.494,4.494,0,0,1-.949-.381L42.691.9a3.579,3.579,0,0,0,.762.3,3.248,3.248,0,0,0,.838.1,1.121,1.121,0,0,0,.885-.327,1.51,1.51,0,0,0,.289-1.019V-.552a1.82,1.82,0,0,1-.594.511,1.61,1.61,0,0,1-.759.175A1.91,1.91,0,0,1,42.418-.8a4.474,4.474,0,0,1-.6-2.466Zm1.79.133A3.881,3.881,0,0,0,43.827-1.8a.771.771,0,0,0,.755.527,1.027,1.027,0,0,0,.524-.127.984.984,0,0,0,.359-.368v-3.25a1.159,1.159,0,0,0-.365-.422.886.886,0,0,0-.511-.149.791.791,0,0,0-.752.6,4.5,4.5,0,0,0-.232,1.59Z" transform="translate(-5615 -11986)" fill="#5e5b5c"/>
    </g>
  </g>
</svg>
