<svg xmlns="http://www.w3.org/2000/svg" xmlns:xlink="http://www.w3.org/1999/xlink" width="403" height="501" viewBox="0 0 403 501">
  <defs>
    <filter id="Trazado_7236" x="0" y="0" width="402.257" height="500.34" filterUnits="userSpaceOnUse">
      <feOffset dy="20" input="SourceAlpha"/>
      <feGaussianBlur stdDeviation="23" result="blur"/>
      <feFlood flood-color="#010101" flood-opacity="0.129"/>
      <feComposite operator="in" in2="blur"/>
      <feComposite in="SourceGraphic"/>
    </filter>
    <filter id="Trazado_7238" x="81" y="28.66" width="240.168" height="240.306" filterUnits="userSpaceOnUse">
      <feOffset dy="9" input="SourceAlpha"/>
      <feGaussianBlur stdDeviation="15" result="blur-2"/>
      <feFlood flood-color="#010101" flood-opacity="0.122"/>
      <feComposite operator="in" in2="blur-2"/>
      <feComposite in="SourceGraphic"/>
    </filter>
    <clipPath id="clip-Trees-path">
      <rect width="403" height="501"/>
    </clipPath>
  </defs>
  <g id="Trees-path" clip-path="url(#clip-Trees-path)">
    <g transform="matrix(1, 0, 0, 1, 0, 0)" filter="url(#Trazado_7236)">
      <g id="Trazado_7236-2" data-name="Trazado 7236" transform="translate(69 49)" fill="#fff" opacity="0.7">
        <path d="M 225.2564697265625 361.8403625488281 L 39.00000762939453 361.8403625488281 C 33.80232620239258 361.8403625488281 28.76037216186523 360.8224792480469 24.01423454284668 358.8150329589844 C 19.42973518371582 356.8759460449219 15.3123254776001 354.0998840332031 11.77641677856445 350.5639343261719 C 8.240462303161621 347.0280151367188 5.46441650390625 342.9106140136719 3.525325775146484 338.3261108398438 C 1.517871260643005 333.5799865722656 0.5000075697898865 328.5380249023438 0.5000075697898865 323.3403625488281 L 0.5000075697898865 38.99998474121094 C 0.5000075697898865 33.80230331420898 1.517871260643005 28.76034736633301 3.525325775146484 24.01421165466309 C 5.46441650390625 19.42971229553223 8.240462303161621 15.3123025894165 11.77641677856445 11.77639293670654 C 15.3123254776001 8.240438461303711 19.42973518371582 5.464393138885498 24.01423454284668 3.525302410125732 C 28.76037216186523 1.517847776412964 33.80232620239258 0.4999842047691345 39.00000762939453 0.4999842047691345 L 225.2564697265625 0.4999842047691345 C 230.4541473388672 0.4999842047691345 235.49609375 1.517847776412964 240.2422790527344 3.525302410125732 C 244.8267364501953 5.464393138885498 248.9441375732422 8.240438461303711 252.4801025390625 11.77639293670654 C 256.0160217285156 15.3123025894165 258.7920532226563 19.42971229553223 260.7311401367188 24.01421165466309 C 262.7385864257813 28.76034736633301 263.7564697265625 33.80230331420898 263.7564697265625 38.99998474121094 L 263.7564697265625 323.3403625488281 C 263.7564697265625 328.5380249023438 262.7385864257813 333.5799865722656 260.7311401367188 338.3261108398438 C 258.7920532226563 342.9106140136719 256.0160217285156 347.0280151367188 252.4801025390625 350.5639343261719 C 248.9441375732422 354.0998840332031 244.8267364501953 356.8759460449219 240.2422790527344 358.8150329589844 C 235.49609375 360.8224792480469 230.4541473388672 361.8403625488281 225.2564697265625 361.8403625488281 Z" stroke="none"/>
        <path d="M 39 0.999969482421875 C 33.86959838867188 0.999969482421875 28.8931884765625 2.00457763671875 24.20901489257813 3.985809326171875 C 19.68409729003906 5.899658203125 15.62010192871094 8.6397705078125 12.12991333007813 12.12994384765625 C 8.639785766601563 15.6201171875 5.899688720703125 19.68408203125 3.98583984375 24.208984375 C 2.004608154296875 28.89315795898438 1 33.86956787109375 1 38.99996948242188 L 1 323.34033203125 C 1 328.4707641601563 2.004608154296875 333.4471740722656 3.98583984375 338.13134765625 C 5.899688720703125 342.65625 8.639785766601563 346.72021484375 12.12991333007813 350.2103881835938 C 15.62010192871094 353.7005615234375 19.68409729003906 356.440673828125 24.20901489257813 358.3545227050781 C 28.8931884765625 360.3357543945313 33.86959838867188 361.3403625488281 39 361.3403625488281 L 225.2564697265625 361.3403625488281 C 230.3868713378906 361.3403625488281 235.36328125 360.3357543945313 240.0474548339844 358.3545227050781 C 244.5723724365234 356.440673828125 248.6363220214844 353.7005615234375 252.1265106201172 350.2103881835938 C 255.6166839599609 346.72021484375 258.3567810058594 342.65625 260.2706298828125 338.13134765625 C 262.2518615722656 333.4471740722656 263.2564697265625 328.4707641601563 263.2564697265625 323.34033203125 L 263.2564697265625 38.99996948242188 C 263.2564697265625 33.86956787109375 262.2518615722656 28.89315795898438 260.2706298828125 24.208984375 C 258.3567810058594 19.68408203125 255.6166839599609 15.6201171875 252.1265106201172 12.12994384765625 C 248.6363220214844 8.6397705078125 244.5723724365234 5.899658203125 240.0474548339844 3.985809326171875 C 235.36328125 2.00457763671875 230.3868713378906 0.999969482421875 225.2564697265625 0.999969482421875 L 39 0.999969482421875 M 39 -3.0517578125e-05 L 225.2564697265625 -3.0517578125e-05 C 246.7955474853516 -3.0517578125e-05 264.2564697265625 17.46090698242188 264.2564697265625 38.99996948242188 L 264.2564697265625 323.34033203125 C 264.2564697265625 344.8794250488281 246.7955474853516 362.3403625488281 225.2564697265625 362.3403625488281 L 39 362.3403625488281 C 17.46087646484375 362.3403625488281 0 344.8794250488281 0 323.34033203125 L 0 38.99996948242188 C 0 17.46090698242188 17.46087646484375 -3.0517578125e-05 39 -3.0517578125e-05 Z" stroke="none" fill="#00ff4e"/>
      </g>
    </g>
    <path id="Trazado_7237" data-name="Trazado 7237" d="M-65.721-5.5h2.257v1.729h-2.257V0h-2.2V-3.773h-7.019V-5.02l6.884-11.332h2.336Zm-6.851,0h4.649v-7.67l-.067-.011-.213.562ZM-59.263-.539-60.948,2.9h-1.314l.786-3.549V-2.482h2.212Zm12.938-14.072a24.307,24.307,0,0,0-4.189,6.5A17.422,17.422,0,0,0-51.6-1.786V0h-2.212V-1.786a15.813,15.813,0,0,1,1.365-6.677A29.254,29.254,0,0,1-48.5-14.611h-8.67v-1.741h10.849ZM-38.812-9.3a2.592,2.592,0,0,0,2.094-.736,3.133,3.133,0,0,0,.612-2.061,2.9,2.9,0,0,0-.668-1.993,2.5,2.5,0,0,0-1.982-.758,2.957,2.957,0,0,0-2.117.792,2.615,2.615,0,0,0-.837,1.982h-2.111l-.034-.067a3.908,3.908,0,0,1,1.393-3.145,5.332,5.332,0,0,1,3.706-1.3,5.179,5.179,0,0,1,3.571,1.151,4.3,4.3,0,0,1,1.292,3.386,3.809,3.809,0,0,1-.6,2.089A4.05,4.05,0,0,1-36.173-8.49a3.864,3.864,0,0,1,1.881,1.5,4.4,4.4,0,0,1,.646,2.431,4.488,4.488,0,0,1-1.421,3.521A5.315,5.315,0,0,1-38.756.236a5.841,5.841,0,0,1-3.678-1.23,3.767,3.767,0,0,1-1.533-3.251l.022-.067h2.111a2.653,2.653,0,0,0,.859,2,3.093,3.093,0,0,0,2.218.814,2.751,2.751,0,0,0,2.123-.837,3.087,3.087,0,0,0,.775-2.184,3.268,3.268,0,0,0-.713-2.3,2.934,2.934,0,0,0-2.24-.764h-1.819V-9.3ZM-30.4-7.266l.943-9.085h8.187v1.965h-6.323l-.528,4.706a5.048,5.048,0,0,1,1.168-.646,4.108,4.108,0,0,1,1.46-.264A4.452,4.452,0,0,1-21.939-9.17a5.738,5.738,0,0,1,1.286,3.959,5.752,5.752,0,0,1-1.32,3.953A4.861,4.861,0,0,1-25.819.236,5.27,5.27,0,0,1-29.278-.9,3.926,3.926,0,0,1-30.6-4.234l.022-.067h2a2.731,2.731,0,0,0,.769,2.072,2.765,2.765,0,0,0,1.993.736,2.61,2.61,0,0,0,2.179-.988,4.278,4.278,0,0,0,.775-2.707,3.9,3.9,0,0,0-.781-2.527,2.638,2.638,0,0,0-2.173-.966,3.473,3.473,0,0,0-1.887.393,2.3,2.3,0,0,0-.865,1.213Zm20.518-3.257a4.483,4.483,0,0,1,1.544-1.365,4.237,4.237,0,0,1,2.027-.489,3.925,3.925,0,0,1,3.027,1.168A5.138,5.138,0,0,1-2.2-7.614V0H-4.414V-7.637A3.253,3.253,0,0,0-5.059-9.86a2.457,2.457,0,0,0-1.926-.719,3.615,3.615,0,0,0-1.718.387A3.125,3.125,0,0,0-9.883-9.108V0H-12.1V-17.52h2.212ZM6.008.236A5.141,5.141,0,0,1,1.926-1.437,6.44,6.44,0,0,1,.46-5.84v-.494a6.3,6.3,0,0,1,1.51-4.329A4.737,4.737,0,0,1,5.66-12.376,4.409,4.409,0,0,1,9.316-10.86a6.246,6.246,0,0,1,1.219,4.032V-5.66H2.763L2.729-5.6a5.023,5.023,0,0,0,.809,2.97,2.825,2.825,0,0,0,2.471,1.14,5.566,5.566,0,0,0,1.971-.32A4.4,4.4,0,0,0,9.434-2.7L10.3-1.258A5.318,5.318,0,0,1,8.58-.2,6.845,6.845,0,0,1,6.008.236ZM5.66-10.635a2.4,2.4,0,0,0-1.915.893,4.224,4.224,0,0,0-.927,2.285l.022.056h5.48v-.18a3.538,3.538,0,0,0-.651-2.19A2.354,2.354,0,0,0,5.66-10.635ZM17.845-1.494a2.6,2.6,0,0,0,1.786-.679,2.147,2.147,0,0,0,.764-1.668h2l.034.067A3.49,3.49,0,0,1,21.08-.983,4.762,4.762,0,0,1,17.845.236,4.771,4.771,0,0,1,13.892-1.5,6.719,6.719,0,0,1,12.5-5.84v-.472a6.69,6.69,0,0,1,1.4-4.318,4.768,4.768,0,0,1,3.948-1.746,4.584,4.584,0,0,1,3.33,1.258A3.989,3.989,0,0,1,22.427-8.03l-.022.067h-2.01a2.681,2.681,0,0,0-.724-1.892,2.384,2.384,0,0,0-1.825-.781A2.555,2.555,0,0,0,15.47-9.372a5.913,5.913,0,0,0-.747,3.06v.472a6.026,6.026,0,0,0,.736,3.088A2.553,2.553,0,0,0,17.845-1.494ZM28.132-15.083v2.931h2.3v1.64h-2.3v7.378a1.652,1.652,0,0,0,.354,1.2,1.279,1.279,0,0,0,.938.348,2.055,2.055,0,0,0,.427-.051,3.165,3.165,0,0,0,.393-.107l.3,1.516a1.955,1.955,0,0,1-.73.331,3.683,3.683,0,0,1-.955.129,2.865,2.865,0,0,1-2.145-.814,3.536,3.536,0,0,1-.8-2.555v-7.378H23.988v-1.64H25.92v-2.931ZM40.272,0Q40.16-.55,40.1-.971a7.13,7.13,0,0,1-.073-.848A5.159,5.159,0,0,1,38.414-.354a4.121,4.121,0,0,1-2.139.59,3.972,3.972,0,0,1-2.892-.971,3.573,3.573,0,0,1-.994-2.678A3.138,3.138,0,0,1,33.8-6.137a6.582,6.582,0,0,1,3.824-.983h2.4v-1.2a2.229,2.229,0,0,0-.651-1.69,2.558,2.558,0,0,0-1.842-.623,2.672,2.672,0,0,0-1.741.539A1.617,1.617,0,0,0,35.129-8.8l-2.1.022-.022-.067a2.909,2.909,0,0,1,1.241-2.426,5.143,5.143,0,0,1,3.408-1.1,5.017,5.017,0,0,1,3.324,1.05A3.72,3.72,0,0,1,42.238-8.3v5.851a11.389,11.389,0,0,0,.067,1.258A6.468,6.468,0,0,0,42.552,0ZM36.6-1.617a3.938,3.938,0,0,0,2.167-.618A2.936,2.936,0,0,0,40.025-3.65V-5.626H37.543a3.22,3.22,0,0,0-2.139.674,2.015,2.015,0,0,0-.8,1.583,1.666,1.666,0,0,0,.505,1.28A2.116,2.116,0,0,0,36.6-1.617ZM51.2-10.2l-1.134-.067a2.533,2.533,0,0,0-1.477.416,2.666,2.666,0,0,0-.927,1.168V0H45.45V-12.151h1.977l.213,1.774a4.218,4.218,0,0,1,1.275-1.471,2.981,2.981,0,0,1,1.746-.528,2.734,2.734,0,0,1,.472.039,3.126,3.126,0,0,1,.371.084ZM58.32.236a5.141,5.141,0,0,1-4.082-1.673,6.44,6.44,0,0,1-1.466-4.4v-.494a6.3,6.3,0,0,1,1.51-4.329,4.737,4.737,0,0,1,3.689-1.713,4.409,4.409,0,0,1,3.656,1.516,6.246,6.246,0,0,1,1.219,4.032V-5.66H55.074l-.034.056a5.023,5.023,0,0,0,.809,2.97,2.825,2.825,0,0,0,2.471,1.14,5.566,5.566,0,0,0,1.971-.32A4.4,4.4,0,0,0,61.745-2.7l.865,1.438A5.318,5.318,0,0,1,60.892-.2,6.845,6.845,0,0,1,58.32.236Zm-.348-10.871a2.4,2.4,0,0,0-1.915.893,4.224,4.224,0,0,0-.927,2.285l.022.056h5.48v-.18a3.538,3.538,0,0,0-.651-2.19A2.354,2.354,0,0,0,57.972-10.635Zm14.42,7.367a1.474,1.474,0,0,0-.556-1.19,5.365,5.365,0,0,0-2.106-.809,8.835,8.835,0,0,1-3.3-1.292,2.608,2.608,0,0,1-1.151-2.224,3.2,3.2,0,0,1,1.263-2.538,4.934,4.934,0,0,1,3.274-1.056,4.89,4.89,0,0,1,3.347,1.123,3.218,3.218,0,0,1,1.224,2.617l-.022.067H72.257A1.913,1.913,0,0,0,71.566-10a2.469,2.469,0,0,0-1.746-.64,2.518,2.518,0,0,0-1.746.528A1.647,1.647,0,0,0,67.5-8.85a1.333,1.333,0,0,0,.5,1.112,5.532,5.532,0,0,0,2.061.719,8.708,8.708,0,0,1,3.392,1.336A2.691,2.691,0,0,1,74.6-3.425,3.2,3.2,0,0,1,73.3-.786,5.4,5.4,0,0,1,69.876.236,5.34,5.34,0,0,1,66.215-.943a3.365,3.365,0,0,1-1.269-2.751l.022-.067H67.08a2.046,2.046,0,0,0,.876,1.724,3.389,3.389,0,0,0,1.92.545,3.025,3.025,0,0,0,1.847-.5A1.529,1.529,0,0,0,72.392-3.268ZM4.6,17.757H-4.767V15.916H4.6Zm0,4.672H-4.767V20.587H4.6ZM-73.666,54H-75.89V39.692l-3.56.034V38.019l5.784-.606Zm8.513-.539L-66.838,56.9h-1.314l.786-3.549V51.518h2.212ZM-54.125,48.5h2.257v1.729h-2.257V54h-2.2V50.227h-7.019V48.98l6.884-11.332h2.336Zm-6.851,0h4.649v-7.67l-.067-.011-.213.562ZM-43.232,54h-2.224V39.692l-3.56.034V38.019l5.784-.606Zm10.6-1.494a3.29,3.29,0,0,0,2.577-1.1,4.532,4.532,0,0,0,.983-3.122V46.891A3.564,3.564,0,0,1-30.412,48.1a3.809,3.809,0,0,1-1.758.41,4.786,4.786,0,0,1-3.7-1.454,5.728,5.728,0,0,1-1.342-4.037,5.765,5.765,0,0,1,1.426-4.037,4.579,4.579,0,0,1,3.526-1.567,5.207,5.207,0,0,1,3.931,1.539A6.01,6.01,0,0,1-26.846,43.3v4.964a5.86,5.86,0,0,1-1.617,4.4,5.716,5.716,0,0,1-4.167,1.578,9.061,9.061,0,0,1-1.769-.18,8.022,8.022,0,0,1-1.69-.528l.337-1.685a6.381,6.381,0,0,0,1.454.511A8.1,8.1,0,0,0-32.63,52.506Zm.46-5.728a3.435,3.435,0,0,0,1.948-.528A3.094,3.094,0,0,0-29.07,44.9V42.972a4.327,4.327,0,0,0-.82-2.824,2.818,2.818,0,0,0-2.3-.994,2.419,2.419,0,0,0-2,1.073,4.536,4.536,0,0,0-.8,2.791,4.588,4.588,0,0,0,.741,2.723A2.417,2.417,0,0,0-32.17,46.779Zm10.4,6.682L-23.455,56.9h-1.314l.786-3.549V51.518h2.212Zm12.679-5.233A6.453,6.453,0,0,1-10.5,52.619a4.773,4.773,0,0,1-3.79,1.617,4.794,4.794,0,0,1-3.79-1.617A6.42,6.42,0,0,1-19.5,48.228V43.421a6.462,6.462,0,0,1,1.409-4.38,4.745,4.745,0,0,1,3.779-1.628,4.792,4.792,0,0,1,3.8,1.628,6.429,6.429,0,0,1,1.421,4.38ZM-11.3,42.96a4.46,4.46,0,0,0-.786-2.785,2.642,2.642,0,0,0-2.224-1.022,2.6,2.6,0,0,0-2.2,1.022,4.507,4.507,0,0,0-.775,2.785v5.716a4.487,4.487,0,0,0,.792,2.8,2.622,2.622,0,0,0,2.207,1.033,2.606,2.606,0,0,0,2.212-1.028,4.553,4.553,0,0,0,.775-2.8ZM3.858,48.228a6.453,6.453,0,0,1-1.409,4.391,4.773,4.773,0,0,1-3.79,1.617,4.794,4.794,0,0,1-3.79-1.617,6.42,6.42,0,0,1-1.421-4.391V43.421a6.462,6.462,0,0,1,1.409-4.38,4.745,4.745,0,0,1,3.779-1.628,4.792,4.792,0,0,1,3.8,1.628,6.429,6.429,0,0,1,1.421,4.38ZM1.645,42.96a4.46,4.46,0,0,0-.786-2.785,2.642,2.642,0,0,0-2.224-1.022,2.6,2.6,0,0,0-2.2,1.022,4.507,4.507,0,0,0-.775,2.785v5.716a4.487,4.487,0,0,0,.792,2.8,2.622,2.622,0,0,0,2.207,1.033A2.606,2.606,0,0,0,.87,51.479a4.553,4.553,0,0,0,.775-2.8Zm15.161,5.267A6.453,6.453,0,0,1,15.4,52.619a4.773,4.773,0,0,1-3.79,1.617,4.794,4.794,0,0,1-3.79-1.617A6.42,6.42,0,0,1,6.4,48.228V43.421a6.462,6.462,0,0,1,1.409-4.38,4.745,4.745,0,0,1,3.779-1.628,4.792,4.792,0,0,1,3.8,1.628,6.429,6.429,0,0,1,1.421,4.38ZM14.594,42.96a4.46,4.46,0,0,0-.786-2.785,2.642,2.642,0,0,0-2.224-1.022,2.6,2.6,0,0,0-2.2,1.022,4.507,4.507,0,0,0-.775,2.785v5.716a4.487,4.487,0,0,0,.792,2.8,2.622,2.622,0,0,0,2.207,1.033,2.606,2.606,0,0,0,2.212-1.028,4.553,4.553,0,0,0,.775-2.8Zm13.881-4.043v2.931h2.3v1.64h-2.3v7.378a1.652,1.652,0,0,0,.354,1.2,1.279,1.279,0,0,0,.938.348,2.055,2.055,0,0,0,.427-.051,3.166,3.166,0,0,0,.393-.107l.3,1.516a1.955,1.955,0,0,1-.73.331,3.683,3.683,0,0,1-.955.129,2.865,2.865,0,0,1-2.145-.814,3.536,3.536,0,0,1-.8-2.555V43.488H24.331v-1.64h1.932V38.917ZM38.9,43.8l-1.134-.067a2.533,2.533,0,0,0-1.477.416,2.666,2.666,0,0,0-.927,1.168V54H33.147V41.849h1.977l.213,1.774a4.218,4.218,0,0,1,1.275-1.471,2.981,2.981,0,0,1,1.746-.528,2.734,2.734,0,0,1,.472.039,3.126,3.126,0,0,1,.371.084Zm7.12,10.433a5.141,5.141,0,0,1-4.082-1.673,6.44,6.44,0,0,1-1.466-4.4v-.494a6.3,6.3,0,0,1,1.51-4.329,4.737,4.737,0,0,1,3.689-1.713,4.409,4.409,0,0,1,3.656,1.516,6.246,6.246,0,0,1,1.219,4.032V48.34H42.771l-.034.056a5.023,5.023,0,0,0,.809,2.97,2.825,2.825,0,0,0,2.471,1.14,5.566,5.566,0,0,0,1.971-.32,4.4,4.4,0,0,0,1.454-.882l.865,1.438A5.318,5.318,0,0,1,48.589,53.8,6.845,6.845,0,0,1,46.017,54.236Zm-.348-10.871a2.4,2.4,0,0,0-1.915.893,4.224,4.224,0,0,0-.927,2.285l.022.056h5.48v-.18a3.538,3.538,0,0,0-.651-2.19A2.354,2.354,0,0,0,45.669,43.365ZM58.056,54.236a5.141,5.141,0,0,1-4.082-1.673,6.44,6.44,0,0,1-1.466-4.4v-.494a6.3,6.3,0,0,1,1.51-4.329,4.737,4.737,0,0,1,3.689-1.713,4.409,4.409,0,0,1,3.656,1.516,6.246,6.246,0,0,1,1.219,4.032V48.34H54.81l-.034.056a5.023,5.023,0,0,0,.809,2.97,2.825,2.825,0,0,0,2.471,1.14,5.566,5.566,0,0,0,1.971-.32,4.4,4.4,0,0,0,1.454-.882l.865,1.438A5.318,5.318,0,0,1,60.628,53.8,6.845,6.845,0,0,1,58.056,54.236Zm-.348-10.871a2.4,2.4,0,0,0-1.915.893,4.224,4.224,0,0,0-.927,2.285l.022.056h5.48v-.18a3.538,3.538,0,0,0-.651-2.19A2.354,2.354,0,0,0,57.708,43.365Zm14.42,7.367a1.474,1.474,0,0,0-.556-1.19,5.365,5.365,0,0,0-2.106-.809,8.835,8.835,0,0,1-3.3-1.292,2.608,2.608,0,0,1-1.151-2.224,3.2,3.2,0,0,1,1.263-2.538,5.575,5.575,0,0,1,6.62.067,3.218,3.218,0,0,1,1.224,2.617l-.022.067H71.993A1.913,1.913,0,0,0,71.3,44a2.469,2.469,0,0,0-1.746-.64,2.518,2.518,0,0,0-1.746.528,1.647,1.647,0,0,0-.578,1.258,1.333,1.333,0,0,0,.5,1.112,5.532,5.532,0,0,0,2.061.719,8.708,8.708,0,0,1,3.392,1.336,2.691,2.691,0,0,1,1.157,2.257,3.2,3.2,0,0,1-1.308,2.639,5.4,5.4,0,0,1-3.42,1.022,5.34,5.34,0,0,1-3.661-1.179,3.365,3.365,0,0,1-1.269-2.751l.022-.067h2.111a2.046,2.046,0,0,0,.876,1.724,3.389,3.389,0,0,0,1.92.545,3.025,3.025,0,0,0,1.847-.5A1.529,1.529,0,0,0,72.128,50.732ZM79.506,54H77.294V51.731h2.212Z" transform="translate(205 285)" fill="#a2a2a2"/>
    <g transform="matrix(1, 0, 0, 1, 0, 0)" filter="url(#Trazado_7238)">
      <path id="Trazado_7238-2" data-name="Trazado 7238" d="M75.084,0a75.084,75.084,0,0,1,75.084,75.084v.139A75.084,75.084,0,0,1,0,75.223v-.139A75.084,75.084,0,0,1,75.084,0Z" transform="translate(126 64.66)" fill="#44d62c"/>
    </g>
    <path id="Trazado_6144" data-name="Trazado 6144" d="M510.376,4605.041c0-9.529-5.815-17.281-12.961-17.281h-.006a18.644,18.644,0,0,0-3.8-20.161h9.564a7.2,7.2,0,1,0,0-14.4,6.969,6.969,0,0,0-1.876.259,8.55,8.55,0,0,0-8.2-6.02,8.649,8.649,0,0,0-8.641,8.641,5.766,5.766,0,0,0-5.76,5.76c0,.024.006.048.006.072a18.689,18.689,0,0,0-12.971,6.708,18.637,18.637,0,0,0-13.132-6.7,7.143,7.143,0,0,0-7.025-8.718,6.969,6.969,0,0,0-1.876.259,8.55,8.55,0,0,0-8.2-6.02,8.649,8.649,0,0,0-8.641,8.641,5.76,5.76,0,1,0,0,11.521h11a18.644,18.644,0,0,0-3.8,20.161h-.006c-7.146,0-12.961,7.752-12.961,17.281,0,8.88,5.05,16.208,11.521,17.167v11.634H421.091v2.88h89.285v-2.88H498.855v-11.634C505.326,4621.249,510.376,4613.92,510.376,4605.041Zm-2.88,0c0,7.239-3.763,13.232-8.64,14.236v-9.32l5.338-5.339-2.036-2.036-5.76,5.76a1.436,1.436,0,0,0-.422,1.019v2.284l-3.3-3.3-2.036,2.036,5.338,5.338v3.56c-4.878-1-8.641-7-8.641-14.236,0-7.941,4.522-14.4,10.081-14.4S507.5,4597.1,507.5,4605.041Zm-23.041-46.083a2.879,2.879,0,0,1,1.126.229,1.441,1.441,0,0,0,1.958-1.684,5.673,5.673,0,0,1-.2-1.425,5.766,5.766,0,0,1,5.76-5.76,5.708,5.708,0,0,1,5.7,5.275,1.441,1.441,0,0,0,2.176,1.113,4.238,4.238,0,0,1,2.2-.628,4.32,4.32,0,0,1,0,8.641H490.067a18.567,18.567,0,0,0-8.485-2.807c0-.025-.007-.049-.007-.074a2.883,2.883,0,0,1,2.88-2.88Zm-4.32,5.761a15.806,15.806,0,0,1,13.717,23.721,13.716,13.716,0,0,0-6.868,6.388,15.591,15.591,0,0,1-5.409,1.489V4582.6l6.778-6.779-2.036-2.036-7.2,7.2a1.435,1.435,0,0,0-.422,1.018v5.165l-4.742-4.743-2.036,2.037,6.778,6.778v5.091a15.837,15.837,0,0,1,1.44-31.608Zm-11.1,40.744-4.32,4.32a1.416,1.416,0,0,0-.323.521l-1.961-1.961-2.036,2.036,3.9,3.9v2.138a7.2,7.2,0,1,1,2.88,0V4611.4l3.9-3.9Zm-1.862,13.864a10.081,10.081,0,1,0-2.88,0v14.516H452.773v-34.651a18.643,18.643,0,0,0,12.956-6.691,18.682,18.682,0,0,0,12.965,6.707v34.636H467.174Zm-43.2-57.488a2.881,2.881,0,0,1,4.006-2.651,1.44,1.44,0,0,0,1.959-1.682,5.7,5.7,0,0,1-.2-1.427,5.766,5.766,0,0,1,5.76-5.76,5.708,5.708,0,0,1,5.7,5.275,1.441,1.441,0,0,0,2.176,1.113,4.239,4.239,0,0,1,2.2-.628,4.24,4.24,0,0,1,4,5.849,18.577,18.577,0,0,0-8.175,2.792H426.851A2.883,2.883,0,0,1,423.971,4561.838Zm11.521,18.721a15.818,15.818,0,0,1,28.514-9.458,18.552,18.552,0,0,0,0,18.915,15.774,15.774,0,0,1-11.231,6.294V4582.6l6.779-6.779-2.036-2.036-7.2,7.2a1.435,1.435,0,0,0-.422,1.018v5.165l-4.742-4.743-2.036,2.037,6.779,6.778v5.081a15.59,15.59,0,0,1-5.409-1.489,13.71,13.71,0,0,0-6.868-6.388,15.792,15.792,0,0,1-2.124-7.88Zm-11.521,24.481c0-7.941,4.522-14.4,10.081-14.4s10.081,6.46,10.081,14.4c0,7.239-3.763,13.232-8.64,14.236v-9.32l5.338-5.339-2.036-2.036-5.76,5.76a1.436,1.436,0,0,0-.422,1.019v2.284l-3.3-3.3-2.036,2.036,5.338,5.338v3.56C427.734,4618.273,423.971,4612.28,423.971,4605.041Zm11.521,17.167c6.47-.959,11.521-8.288,11.521-17.167a22.241,22.241,0,0,0-.974-6.549,18.409,18.409,0,0,0,3.854.706v34.646h-14.4Zm46.083,11.634V4599.2a18.6,18.6,0,0,0,3.854-.706,22.243,22.243,0,0,0-.974,6.549c0,8.88,5.05,16.208,11.521,17.167v11.634Z" transform="translate(-265.091 -4452.575)" fill="#fff"/>
  </g>
</svg>
