<svg xmlns="http://www.w3.org/2000/svg" xmlns:xlink="http://www.w3.org/1999/xlink" width="160" height="190" viewBox="0 0 160 190">
  <defs>
    <filter id="Rect치ngulo_2910" x="-2" y="2" width="164" height="191" filterUnits="userSpaceOnUse">
      <feOffset dy="2" input="SourceAlpha"/>
      <feGaussianBlur stdDeviation="6" result="blur"/>
      <feFlood flood-color="#44d62c" flood-opacity="0.651"/>
      <feComposite operator="in" in2="blur"/>
      <feComposite in="SourceGraphic"/>
    </filter>
    <clipPath id="clip-Casilleros01EN">
      <rect width="160" height="190"/>
    </clipPath>
  </defs>
  <g id="Casilleros01EN" clip-path="url(#clip-Casilleros01EN)">
    <g id="Grupo_1552" data-name="Grupo 1552" transform="translate(-2628 -328.66)">
      <g transform="matrix(1, 0, 0, 1, 2628, 328.66)" filter="url(#Rect치ngulo_2910)">
        <g id="Rect치ngulo_2910-2" data-name="Rect치ngulo 2910" transform="translate(16 18)" fill="#44d62c" stroke="#fff" stroke-width="1" opacity="0.93">
          <rect width="128" height="155" rx="14" stroke="none"/>
          <rect x="0.5" y="0.5" width="127" height="154" rx="13.5" fill="none"/>
        </g>
      </g>
      <path id="Trazado_6063" data-name="Trazado 6063" d="M111.027,46.071H65.778a2.772,2.772,0,0,0-2.769,2.769v63.323a2.772,2.772,0,0,0,2.769,2.769h1.835V118.3a2.772,2.772,0,0,0,2.769,2.769h5.075a2.772,2.772,0,0,0,2.769-2.769v-3.368H98.578V118.3a2.772,2.772,0,0,0,2.769,2.769h5.075a2.772,2.772,0,0,0,2.769-2.769v-3.368h1.835a2.772,2.772,0,0,0,2.769-2.769V48.84A2.773,2.773,0,0,0,111.027,46.071Zm-40.09,71.676v-2.814H74.9v2.814Zm34.931,0H101.9v-2.814h3.967Zm4.6-6.137H66.332V49.394h44.141Z" transform="translate(2619.991 329.929)" fill="#fff"/>
      <path id="Trazado_6064" data-name="Trazado 6064" d="M119.4,71.954H94.728a1.662,1.662,0,1,0,0,3.323H119.4a1.662,1.662,0,1,0,0-3.323Z" transform="translate(2601.327 313.857)" fill="#fff"/>
      <path id="Trazado_6065" data-name="Trazado 6065" d="M119.4,87.15H94.728a1.662,1.662,0,1,0,0,3.323H119.4a1.662,1.662,0,1,0,0-3.323Z" transform="translate(2601.327 304.421)" fill="#fff"/>
      <path id="Trazado_6066" data-name="Trazado 6066" d="M119.4,102.347H94.728a1.661,1.661,0,1,0,0,3.323H119.4a1.661,1.661,0,1,0,0-3.323Z" transform="translate(2601.327 294.985)" fill="#fff"/>
      <path id="Trazado_6067" data-name="Trazado 6067" d="M86.949,165.568a5.749,5.749,0,1,0,5.749,5.749A5.756,5.756,0,0,0,86.949,165.568Zm0,8.175a2.426,2.426,0,1,1,2.426-2.426A2.429,2.429,0,0,1,86.949,173.743Z" transform="translate(2608.696 255.729)" fill="#fff"/>
      <path id="Trazado_9445" data-name="Trazado 9445" d="M-40.235,0h-1.8V-9.242h1.8ZM-37.2-6.868l.076.946a2.289,2.289,0,0,1,.7-.79A1.6,1.6,0,0,1-35.506-7a1.591,1.591,0,0,1,1.349.66,3.5,3.5,0,0,1,.492,2.076V0h-1.809V-4.264a1.842,1.842,0,0,0-.2-1,.7.7,0,0,0-.619-.289.822.822,0,0,0-.444.127,1.083,1.083,0,0,0-.343.349V0h-1.8V-6.868ZM-32.776-3.4A5.013,5.013,0,0,1-32.179-6,1.867,1.867,0,0,1-30.5-7a1.4,1.4,0,0,1,.724.19,1.9,1.9,0,0,1,.578.546V-9.9h1.8V0h-1.568l-.121-.749a2.019,2.019,0,0,1-.619.657,1.458,1.458,0,0,1-.8.225A1.882,1.882,0,0,1-32.183-.8a4.531,4.531,0,0,1-.594-2.466Zm1.8.134a3.89,3.89,0,0,0,.213,1.439.737.737,0,0,0,.72.516.9.9,0,0,0,.489-.131,1.078,1.078,0,0,0,.355-.379V-4.949a1.272,1.272,0,0,0-.355-.446.766.766,0,0,0-.476-.159.764.764,0,0,0-.724.592A4.553,4.553,0,0,0-30.973-3.4Zm8.239,2.469A2.027,2.027,0,0,1-23.41-.1a1.712,1.712,0,0,1-.9.238,1.691,1.691,0,0,1-1.438-.7,3.621,3.621,0,0,1-.517-2.155V-6.868h1.8V-2.7a2.361,2.361,0,0,0,.178,1.061.567.567,0,0,0,.527.33,1.169,1.169,0,0,0,.524-.111,1.05,1.05,0,0,0,.384-.327V-6.868h1.809V0h-1.587Zm5.821-1a.667.667,0,0,0-.229-.5,3.847,3.847,0,0,0-.876-.524A4.619,4.619,0,0,1-19.57-3.7a1.667,1.667,0,0,1-.517-1.27A1.854,1.854,0,0,1-19.424-6.4,2.533,2.533,0,0,1-17.669-7a2.626,2.626,0,0,1,1.822.609,1.922,1.922,0,0,1,.654,1.555l-.019.038h-1.739a1.176,1.176,0,0,0-.178-.686.621.621,0,0,0-.546-.254.685.685,0,0,0-.5.2.638.638,0,0,0-.2.476.638.638,0,0,0,.2.492,4.091,4.091,0,0,0,.882.511,4.278,4.278,0,0,1,1.6.873,1.76,1.76,0,0,1,.521,1.323,1.756,1.756,0,0,1-.7,1.435A2.849,2.849,0,0,1-17.7.133a2.539,2.539,0,0,1-1.879-.692,2.043,2.043,0,0,1-.66-1.562l.013-.038h1.65a1.12,1.12,0,0,0,.254.787.9.9,0,0,0,.667.241.781.781,0,0,0,.552-.178A.636.636,0,0,0-16.913-1.8Zm4.792-6.779v1.708h.952v1.308h-.952v3.447a1.122,1.122,0,0,0,.121.6.377.377,0,0,0,.33.181,2.076,2.076,0,0,0,.279-.016,2.043,2.043,0,0,0,.254-.054L-11-.032A3.6,3.6,0,0,1-11.543.1a4.109,4.109,0,0,1-.59.038A1.656,1.656,0,0,1-13.463-.4a2.589,2.589,0,0,1-.46-1.7V-5.561h-.812V-6.868h.813V-8.576Zm5.211,3.352-.679-.019a.769.769,0,0,0-.473.14.887.887,0,0,0-.289.394V0h-1.8V-6.868h1.682l.07.92.032.013a1.873,1.873,0,0,1,.46-.778A.965.965,0,0,1-7.22-7a1.6,1.6,0,0,1,.257.022,1.746,1.746,0,0,1,.238.054ZM-4.11,0h-1.8V-6.868h1.8Zm0-8.525h-1.8V-9.9h1.8ZM.492,0A3.082,3.082,0,0,1,.355-.375,3.057,3.057,0,0,1,.263-.787a2.147,2.147,0,0,1-.619.67A1.46,1.46,0,0,1-1.2.133,1.756,1.756,0,0,1-2.564-.425a2.124,2.124,0,0,1-.511-1.492,1.955,1.955,0,0,1,.651-1.568A2.9,2.9,0,0,1-.492-4.043H.187V-4.6a1.381,1.381,0,0,0-.181-.771.61.61,0,0,0-.543-.27.523.523,0,0,0-.457.216,1.085,1.085,0,0,0-.152.628l-1.746-.006-.019-.038a1.883,1.883,0,0,1,.663-1.523A2.626,2.626,0,0,1-.416-7a2.451,2.451,0,0,1,1.742.625A2.317,2.317,0,0,1,2-4.589v2.78a6.017,6.017,0,0,0,.07.946A5.153,5.153,0,0,0,2.282,0ZM-.682-1.225a.929.929,0,0,0,.5-.146,1.084,1.084,0,0,0,.365-.375V-3.009H-.492a.657.657,0,0,0-.6.286A1.312,1.312,0,0,0-1.273-2a.919.919,0,0,0,.159.559A.507.507,0,0,0-.682-1.225ZM5.024,0h-1.8V-9.9h1.8Zm6.03-1.441h3.377V0H9.245V-9.242h1.809ZM15-3.853a3.415,3.415,0,0,1,.733-2.263A2.526,2.526,0,0,1,17.789-7a2.536,2.536,0,0,1,2.057.879,3.4,3.4,0,0,1,.736,2.263V-3a3.387,3.387,0,0,1-.736,2.266,2.541,2.541,0,0,1-2.05.87,2.546,2.546,0,0,1-2.06-.87A3.4,3.4,0,0,1,15-3Zm1.8.848a2.867,2.867,0,0,0,.222,1.246.791.791,0,0,0,.774.451.782.782,0,0,0,.759-.455,2.835,2.835,0,0,0,.225-1.243v-.852a2.843,2.843,0,0,0-.225-1.237.785.785,0,0,0-.765-.461.785.785,0,0,0-.765.464A2.847,2.847,0,0,0,16.8-3.857Zm7.243,1.7a.63.63,0,0,0,.555-.273,1.387,1.387,0,0,0,.187-.787h1.638l.019.038a2.353,2.353,0,0,1-.663,1.771,2.335,2.335,0,0,1-1.736.692,2.5,2.5,0,0,1-2.047-.87,3.426,3.426,0,0,1-.714-2.247v-.882a3.465,3.465,0,0,1,.711-2.25A2.469,2.469,0,0,1,24.029-7a2.288,2.288,0,0,1,1.774.717,2.69,2.69,0,0,1,.638,1.936l-.013.032H24.784a1.876,1.876,0,0,0-.187-.9.609.609,0,0,0-.568-.341.743.743,0,0,0-.743.458,3.072,3.072,0,0,0-.2,1.227v.884a3.036,3.036,0,0,0,.2,1.233A.755.755,0,0,0,24.042-1.308Zm5.4-1.549h-.33V0h-1.8V-9.9h1.8v5.624h.3l1.162-2.59h2.076l-1.79,3.091L32.948,0H30.885ZM35.969.133a2.623,2.623,0,0,1-2.057-.851,3.1,3.1,0,0,1-.762-2.146v-.965a3.545,3.545,0,0,1,.708-2.279A2.365,2.365,0,0,1,35.817-7a2.276,2.276,0,0,1,1.866.806,3.366,3.366,0,0,1,.66,2.2v1.1h-3.4v.025a1.9,1.9,0,0,0,.308,1.117,1.061,1.061,0,0,0,.93.438,2.482,2.482,0,0,0,.825-.114,4.341,4.341,0,0,0,.755-.381l.457,1.149a2.723,2.723,0,0,1-.949.565A3.694,3.694,0,0,1,35.969.133Zm-.152-5.687a.67.67,0,0,0-.635.4,2.564,2.564,0,0,0-.229,1.065h1.619v-.255a1.831,1.831,0,0,0-.178-.889A.612.612,0,0,0,35.817-5.554Zm6.678.33-.679-.019a.769.769,0,0,0-.473.14.887.887,0,0,0-.289.394V0h-1.8V-6.868h1.682l.07.92.032.013a1.873,1.873,0,0,1,.46-.778A.965.965,0,0,1,42.183-7a1.6,1.6,0,0,1,.257.022,1.746,1.746,0,0,1,.238.054Z" transform="translate(2708 483.66)" fill="#fff"/>
    </g>
  </g>
</svg>
