<svg xmlns="http://www.w3.org/2000/svg" xmlns:xlink="http://www.w3.org/1999/xlink" width="160" height="190" viewBox="0 0 160 190">
  <defs>
    <clipPath id="clip-Envase-PE-industrialEN">
      <rect width="160" height="190"/>
    </clipPath>
  </defs>
  <g id="Envase-PE-industrialEN" clip-path="url(#clip-Envase-PE-industrialEN)">
    <g id="Grupo_1530" data-name="Grupo 1530" transform="translate(-3112 -12.66)">
      <path id="Trazado_9404" data-name="Trazado 9404" d="M14,0H114a14,14,0,0,1,14,14V141a14,14,0,0,1-14,14H14A14,14,0,0,1,0,141V14A14,14,0,0,1,14,0Z" transform="translate(3128 30.66)" fill="none" opacity="0.93"/>
      <g id="Grupo_944" data-name="Grupo 944" transform="translate(3109.257 25.647)">
        <path id="Trazado_6073" data-name="Trazado 6073" d="M99.584,57.329l-8.434-2.41a1.25,1.25,0,0,1-.908-1.2V51.853h1.25a2.5,2.5,0,0,0,2.5-2.5v-7.5a2.5,2.5,0,0,0-2.5-2.5h-17.5a2.5,2.5,0,0,0-2.5,2.5v7.5a2.5,2.5,0,0,0,2.5,2.5h1.25v1.864a1.25,1.25,0,0,1-.906,1.2L65.9,57.329a11.3,11.3,0,0,0-8.159,10.816V108.1a6.258,6.258,0,0,0,6.25,6.25h37.5a6.258,6.258,0,0,0,6.25-6.25V68.146A11.3,11.3,0,0,0,99.584,57.329ZM73.993,41.853h2.5V45.6h2.5v-3.75h2.5V45.6h2.5v-3.75h2.5V45.6h2.5v-3.75h2.5v7.5h-17.5Zm-7.4,17.875,8.436-2.41a3.767,3.767,0,0,0,2.719-3.6V51.853h10v1.864a3.768,3.768,0,0,0,2.72,3.606l8.435,2.4a8.786,8.786,0,0,1,6.345,8.418v6.207h-45V68.146A8.786,8.786,0,0,1,66.588,59.728Zm38.655,17.125v22.5h-45v-22.5Zm-3.75,35h-37.5a3.75,3.75,0,0,1-3.75-3.75v-6.25h45v6.25A3.75,3.75,0,0,1,101.493,111.853Z" transform="translate(0 0)" fill="#5e5b5c"/>
        <path id="Trazado_6074" data-name="Trazado 6074" d="M107.512,160.1h3.753a8.819,8.819,0,0,1,2.341.239,2.617,2.617,0,0,1,1.23.691,2.369,2.369,0,0,1,.558,1.093,9.8,9.8,0,0,1,.146,1.987v1.248a5.2,5.2,0,0,1-.283,2,1.938,1.938,0,0,1-1.04.965,4.913,4.913,0,0,1-1.978.337h-1v5.771h-3.727Zm3.727,2.452V166.2q.159.009.274.009a.861.861,0,0,0,.712-.252,1.854,1.854,0,0,0,.2-1.049v-1.177a1.383,1.383,0,0,0-.23-.956A1.446,1.446,0,0,0,111.239,162.555Z" transform="translate(-32.549 -78.972)" fill="#5e5b5c"/>
        <path id="Trazado_6075" data-name="Trazado 6075" d="M133.812,160.1h6.214v2.868h-2.487v2.717h2.328v2.726h-2.328v3.151h2.735v2.868h-6.462Z" transform="translate(-49.75 -78.972)" fill="#5e5b5c"/>
      </g>
      <path id="Trazado_9452" data-name="Trazado 9452" d="M-25.844,0V-9.242h2.723a3.512,3.512,0,0,1,2.231.635,2.265,2.265,0,0,1,.8,1.892,2.318,2.318,0,0,1-.292,1.171,1.8,1.8,0,0,1-.876.765,1.64,1.64,0,0,1,1.079.743A2.517,2.517,0,0,1-19.827-2.7a2.574,2.574,0,0,1-.759,2.012A3.134,3.134,0,0,1-22.76,0Zm1.809-4.075v2.634h1.276a1.084,1.084,0,0,0,.854-.317,1.384,1.384,0,0,0,.282-.946,1.8,1.8,0,0,0-.241-1.016.868.868,0,0,0-.774-.355Zm0-1.263h1a1.157,1.157,0,0,0,.847-.321,1.235,1.235,0,0,0,.3-.888,1.293,1.293,0,0,0-.3-.951,1.257,1.257,0,0,0-.92-.3h-.914Zm5.072,1.485a3.415,3.415,0,0,1,.733-2.263A2.526,2.526,0,0,1-16.177-7a2.536,2.536,0,0,1,2.057.879,3.4,3.4,0,0,1,.736,2.263V-3A3.387,3.387,0,0,1-14.12-.736a2.541,2.541,0,0,1-2.05.87,2.546,2.546,0,0,1-2.06-.87A3.4,3.4,0,0,1-18.964-3Zm1.8.848a2.867,2.867,0,0,0,.222,1.246.791.791,0,0,0,.774.451.782.782,0,0,0,.759-.455,2.835,2.835,0,0,0,.225-1.243v-.852a2.843,2.843,0,0,0-.225-1.237.785.785,0,0,0-.765-.461.785.785,0,0,0-.765.464,2.847,2.847,0,0,0-.225,1.233Zm6.881-5.571v1.708h.952v1.308h-.952v3.447a1.122,1.122,0,0,0,.121.6.377.377,0,0,0,.33.181,2.076,2.076,0,0,0,.279-.016A2.043,2.043,0,0,0-9.3-1.4l.14,1.371A3.6,3.6,0,0,1-9.709.1a4.109,4.109,0,0,1-.59.038A1.656,1.656,0,0,1-11.629-.4a2.589,2.589,0,0,1-.46-1.7V-5.561H-12.9V-6.868h.813V-8.576Zm4.113,0v1.708h.952v1.308h-.952v3.447a1.122,1.122,0,0,0,.121.6.377.377,0,0,0,.33.181,2.076,2.076,0,0,0,.279-.016A2.043,2.043,0,0,0-5.189-1.4l.14,1.371A3.6,3.6,0,0,1-5.6.1a4.109,4.109,0,0,1-.59.038A1.656,1.656,0,0,1-7.516-.4a2.589,2.589,0,0,1-.46-1.7V-5.561h-.812V-6.868h.813V-8.576ZM-2.32,0h-1.8V-9.9h1.8ZM1.609.133A2.623,2.623,0,0,1-.448-.717a3.1,3.1,0,0,1-.762-2.146v-.965A3.545,3.545,0,0,1-.5-6.106,2.365,2.365,0,0,1,1.457-7a2.276,2.276,0,0,1,1.866.806,3.366,3.366,0,0,1,.66,2.2v1.1H.587v.025A1.9,1.9,0,0,0,.9-1.746a1.061,1.061,0,0,0,.93.438,2.482,2.482,0,0,0,.825-.114A4.341,4.341,0,0,0,3.406-1.8L3.863-.654a2.723,2.723,0,0,1-.949.565A3.694,3.694,0,0,1,1.609.133ZM1.457-5.554a.67.67,0,0,0-.635.4A2.564,2.564,0,0,0,.594-4.094H2.212v-.255a1.831,1.831,0,0,0-.178-.889A.612.612,0,0,0,1.457-5.554ZM7.881-1.8a.667.667,0,0,0-.229-.5,3.847,3.847,0,0,0-.876-.524A4.619,4.619,0,0,1,5.224-3.7a1.667,1.667,0,0,1-.517-1.27A1.854,1.854,0,0,1,5.37-6.4,2.533,2.533,0,0,1,7.125-7a2.626,2.626,0,0,1,1.822.609A1.922,1.922,0,0,1,9.6-4.831l-.019.038H7.843a1.176,1.176,0,0,0-.178-.686.621.621,0,0,0-.546-.254.685.685,0,0,0-.5.2.638.638,0,0,0-.2.476.638.638,0,0,0,.2.492,4.091,4.091,0,0,0,.882.511,4.278,4.278,0,0,1,1.6.873A1.76,1.76,0,0,1,9.626-1.86a1.756,1.756,0,0,1-.7,1.435A2.849,2.849,0,0,1,7.094.133,2.539,2.539,0,0,1,5.215-.559a2.043,2.043,0,0,1-.66-1.562l.013-.038h1.65a1.12,1.12,0,0,0,.254.787.9.9,0,0,0,.667.241.781.781,0,0,0,.552-.178A.636.636,0,0,0,7.881-1.8ZM15.3-3.32V0H13.492V-9.242H16.7a2.914,2.914,0,0,1,2.184.818,2.935,2.935,0,0,1,.8,2.143,2.926,2.926,0,0,1-.8,2.146,2.922,2.922,0,0,1-2.18.815Zm0-1.441h1.4a1.017,1.017,0,0,0,.882-.426,1.814,1.814,0,0,0,.3-1.081,1.884,1.884,0,0,0-.3-1.1A1.008,1.008,0,0,0,16.7-7.8H15.3Zm10.455.7h-3.1v2.615H26.3V0H20.843V-9.242h5.446V-7.8H22.652v2.3h3.1Z" transform="translate(3192 167.66)" fill="#5e5b5c"/>
    </g>
  </g>
</svg>
