<svg xmlns="http://www.w3.org/2000/svg" xmlns:xlink="http://www.w3.org/1999/xlink" width="160" height="190" viewBox="0 0 160 190">
  <defs>
    <filter id="Rect치ngulo_2863" x="-2" y="2" width="164" height="191" filterUnits="userSpaceOnUse">
      <feOffset dy="2" input="SourceAlpha"/>
      <feGaussianBlur stdDeviation="6" result="blur"/>
      <feFlood flood-color="#44d62c" flood-opacity="0.651"/>
      <feComposite operator="in" in2="blur"/>
      <feComposite in="SourceGraphic"/>
    </filter>
    <clipPath id="clip-Depositos-de01EN">
      <rect width="160" height="190"/>
    </clipPath>
  </defs>
  <g id="Depositos-de01EN" clip-path="url(#clip-Depositos-de01EN)">
    <g id="Grupo_1545" data-name="Grupo 1545" transform="translate(-1514 -328.66)">
      <g transform="matrix(1, 0, 0, 1, 1514, 328.66)" filter="url(#Rect치ngulo_2863)">
        <g id="Rect치ngulo_2863-2" data-name="Rect치ngulo 2863" transform="translate(16 18)" fill="#44d62c" stroke="#fff" stroke-width="1" opacity="0.93">
          <rect width="128" height="155" rx="14" stroke="none"/>
          <rect x="0.5" y="0.5" width="127" height="154" rx="13.5" fill="none"/>
        </g>
      </g>
      <path id="Trazado_6217" data-name="Trazado 6217" d="M4102.267,5920.593v-7.114a1.186,1.186,0,0,0,0-.228v-7.8a1.168,1.168,0,0,0,0-.261v-7.032a1.1,1.1,0,0,0,0-.26v-10.3a1.735,1.735,0,0,0-.451-1.3,3.454,3.454,0,0,0-.375-.388v-5.827c0-2.555-1.243-3.055-3.39-3.055h-6.8v-3.134a1.126,1.126,0,0,0-1.1-1.125l-3.371-.084v-.7a1.126,1.126,0,0,0-1.126-1.125h-4.637a1.125,1.125,0,0,0-1.125,1.125v.127h-3.784v-.127a1.125,1.125,0,0,0-1.125-1.125h-4.637a1.125,1.125,0,0,0-1.125,1.125v.7l-3.372.084a1.126,1.126,0,0,0-1.1,1.125v3.134h-6.795c-2.147,0-3.39.5-3.39,3.055v5.827a3.461,3.461,0,0,0-.375.388,1.732,1.732,0,0,0-.451,1.3v10.3a1.1,1.1,0,0,0,0,.26v7.032a1.113,1.113,0,0,0,0,.261v7.788a1.14,1.14,0,0,0,0,.261v7.1a1.136,1.136,0,0,0,0,.261v7.2a1.1,1.1,0,0,0,0,.253v4.083c0,2.467,1.279,5.807,7.374,7.713a34.006,34.006,0,0,0,9.244,1.339h15.284a34.006,34.006,0,0,0,9.244-1.339c6.094-1.906,7.374-5.246,7.374-7.713v-4.1a1.143,1.143,0,0,0,0-.216v-7.221A1.164,1.164,0,0,0,4102.267,5920.593Zm-2.251-.608c-1.887.734-8.321,2.755-22.009,2.755a86.15,86.15,0,0,1-17.579-1.51,29.229,29.229,0,0,1-4.43-1.247v-5.11c2.751.7,9.42,1.957,22.009,1.957s19.258-1.254,22.009-1.957Zm0-30.8v1.92H4056v-1.92Zm0,4.171v3.7c-2.243.31-8.813,1.02-22.009,1.02-13.158,0-19.758-.711-22.009-1.02v-3.7Zm-22.009,6.972c12.788,0,19.4-.651,22.009-1v5.116c-2.106.486-8.624,1.672-22.009,1.672-11.97,0-19.177-.992-22.009-1.662v-5.126C4058.6,5899.678,4065.219,5900.329,4078.006,5900.329Zm0,8.043c12.655,0,19.306-1.042,22.009-1.616v5.781c-2.047.574-8.594,2.041-22.009,2.041s-19.966-1.468-22.009-2.041v-5.781C4058.7,5907.331,4065.351,5908.373,4078.006,5908.373Zm5.4-21.437v-5.771h5.716a1.122,1.122,0,0,0,.426.474c.243.148,5.967,3.641,8.694,4.924.287.135.53.259.736.373Zm5.6-8.021h-5.6v-.757c0-.059,0-.117,0-.174H4089Zm-7.854-.757v8.778h-6.289v-8.778c0-.066,0-.124,0-.174h6.283C4081.15,5878.034,4081.15,5878.091,4081.15,5878.157Zm-8.54,0v.757h-5.6v-.931h5.605C4072.612,5878.04,4072.611,5878.1,4072.611,5878.157Zm-6.141,3.481a1.118,1.118,0,0,0,.425-.474h5.716v5.771h-15.572c.207-.114.45-.238.737-.373C4060.5,5885.279,4066.228,5881.787,4066.47,5881.639ZM4056,5922.377c2.829.957,9.524,2.613,22.009,2.613s19.18-1.656,22.009-2.613v5.118c-1.81.836-8.286,3.288-22.009,3.288s-20.207-2.454-22.009-3.287Zm42.053-43.107a3.851,3.851,0,0,1,1.083.091,2.931,2.931,0,0,1,.056.713v4.449c-2.147-1.011-6.428-3.569-7.934-4.478v-.774Zm-27.671-4.373a1.125,1.125,0,0,0,1.1-1.125v-.668h2.386v.127a1.125,1.125,0,0,0,1.125,1.125h6.035a1.125,1.125,0,0,0,1.126-1.125v-.127h2.386v.668a1.125,1.125,0,0,0,1.1,1.125l3.371.084v.751h-22v-.751Zm-13.5,4.463a3.848,3.848,0,0,1,1.083-.091h6.795v.774c-1.506.909-5.787,3.467-7.934,4.479v-4.449A2.917,2.917,0,0,1,4056.88,5879.361Zm23.438,59.832h-4.624v-2.361a1.166,1.166,0,0,1,1.049-1.128h2.525a1.166,1.166,0,0,1,1.049,1.128Zm13.9-1.237a32.2,32.2,0,0,1-8.572,1.237h-3.079v-2.361a3.428,3.428,0,0,0-3.3-3.379h-2.525a3.428,3.428,0,0,0-3.3,3.379v2.361h-3.079a32.2,32.2,0,0,1-8.572-1.237c-3.845-1.2-5.795-3.074-5.795-5.564v-2.442c2.877,1.144,9.588,3.084,22.009,3.084s19.133-1.941,22.009-3.084v2.442C4100.016,5934.881,4098.066,5936.753,4094.221,5937.956Z" transform="translate(-2483.738 -5485.443)" fill="#fff"/>
      <circle id="Elipse_2257" data-name="Elipse 2257" cx="1.269" cy="1.269" r="1.269" transform="translate(1592.999 450.87)" fill="#fff"/>
      <circle id="Elipse_2258" data-name="Elipse 2258" cx="1.402" cy="1.402" r="1.402" transform="translate(1592.866 393.909)" fill="#fff"/>
      <path id="Trazado_9433" data-name="Trazado 9433" d="M-42.751-3.345h.038l1-5.9h1.752L-41.749,0h-1.682l-1.3-5.662h-.038L-46.059,0h-1.676l-1.784-9.242h1.752l1,5.9h.038l1.333-5.9H-44.1ZM-36.105,0a3.082,3.082,0,0,1-.136-.375,3.057,3.057,0,0,1-.092-.413,2.147,2.147,0,0,1-.619.67A1.46,1.46,0,0,1-37.8.133a1.756,1.756,0,0,1-1.362-.559,2.124,2.124,0,0,1-.511-1.492,1.955,1.955,0,0,1,.651-1.568,2.9,2.9,0,0,1,1.933-.559h.679V-4.6a1.381,1.381,0,0,0-.181-.771.61.61,0,0,0-.543-.27.523.523,0,0,0-.457.216,1.085,1.085,0,0,0-.152.628l-1.746-.006-.019-.038a1.883,1.883,0,0,1,.663-1.523A2.626,2.626,0,0,1-37.013-7a2.451,2.451,0,0,1,1.742.625,2.317,2.317,0,0,1,.67,1.781v2.78a6.016,6.016,0,0,0,.07.946A5.153,5.153,0,0,0-34.315,0ZM-37.28-1.225a.929.929,0,0,0,.5-.146,1.084,1.084,0,0,0,.365-.375V-3.009h-.679a.657.657,0,0,0-.6.286A1.312,1.312,0,0,0-37.87-2a.919.919,0,0,0,.159.559A.507.507,0,0,0-37.28-1.225Zm5.967-7.351v1.708h.952v1.308h-.952v3.447a1.122,1.122,0,0,0,.121.6.377.377,0,0,0,.33.181,2.076,2.076,0,0,0,.279-.016,2.043,2.043,0,0,0,.254-.054l.14,1.371A3.6,3.6,0,0,1-30.735.1a4.109,4.109,0,0,1-.59.038A1.656,1.656,0,0,1-32.656-.4a2.589,2.589,0,0,1-.46-1.7V-5.561h-.812V-6.868h.813V-8.576Zm4.64,8.709a2.623,2.623,0,0,1-2.057-.851,3.1,3.1,0,0,1-.762-2.146v-.965a3.545,3.545,0,0,1,.708-2.279A2.365,2.365,0,0,1-26.825-7a2.276,2.276,0,0,1,1.866.806,3.366,3.366,0,0,1,.66,2.2v1.1h-3.4v.025a1.9,1.9,0,0,0,.308,1.117,1.061,1.061,0,0,0,.93.438,2.482,2.482,0,0,0,.825-.114,4.341,4.341,0,0,0,.755-.381l.457,1.149a2.723,2.723,0,0,1-.949.565A3.694,3.694,0,0,1-26.673.133Zm-.152-5.687a.67.67,0,0,0-.635.4,2.564,2.564,0,0,0-.229,1.065h1.619v-.255a1.831,1.831,0,0,0-.178-.889A.612.612,0,0,0-26.825-5.554Zm6.678.33-.679-.019a.769.769,0,0,0-.473.14.887.887,0,0,0-.289.394V0h-1.8V-6.868h1.682l.07.92.032.013a1.873,1.873,0,0,1,.46-.778A.965.965,0,0,1-20.458-7a1.6,1.6,0,0,1,.257.022,1.746,1.746,0,0,1,.238.054Zm7.985,2.812a1.239,1.239,0,0,0-.279-.854,2.844,2.844,0,0,0-.984-.619,6.5,6.5,0,0,1-2.161-1.139,2.262,2.262,0,0,1-.72-1.787,2.318,2.318,0,0,1,.838-1.85,3.182,3.182,0,0,1,2.139-.714,2.96,2.96,0,0,1,2.146.8,2.594,2.594,0,0,1,.8,2.009l-.013.038h-1.752a1.588,1.588,0,0,0-.317-1.028,1.084,1.084,0,0,0-.9-.394,1.087,1.087,0,0,0-.841.327,1.166,1.166,0,0,0-.3.822.956.956,0,0,0,.336.752A4.741,4.741,0,0,0-13-5.4a4.916,4.916,0,0,1,1.977,1.127,2.533,2.533,0,0,1,.663,1.844,2.333,2.333,0,0,1-.8,1.879,3.175,3.175,0,0,1-2.126.679,3.561,3.561,0,0,1-2.288-.771A2.584,2.584,0,0,1-16.51-2.85l.013-.038h1.758a1.734,1.734,0,0,0,.362,1.231,1.453,1.453,0,0,0,1.092.375,1.088,1.088,0,0,0,.847-.3A1.183,1.183,0,0,0-12.162-2.412ZM-7.2-8.576v1.708h.952v1.308H-7.2v3.447a1.122,1.122,0,0,0,.121.6.377.377,0,0,0,.33.181,2.076,2.076,0,0,0,.279-.016A2.043,2.043,0,0,0-6.214-1.4l.14,1.371A3.6,3.6,0,0,1-6.621.1a4.109,4.109,0,0,1-.59.038A1.656,1.656,0,0,1-8.541-.4,2.589,2.589,0,0,1-9-2.107V-5.561h-.812V-6.868H-9V-8.576Zm1.625,4.723A3.415,3.415,0,0,1-4.84-6.116,2.526,2.526,0,0,1-2.787-7,2.536,2.536,0,0,1-.73-6.116,3.4,3.4,0,0,1,.006-3.853V-3A3.387,3.387,0,0,1-.73-.736a2.541,2.541,0,0,1-2.05.87,2.546,2.546,0,0,1-2.06-.87A3.4,3.4,0,0,1-5.573-3Zm1.8.848a2.867,2.867,0,0,0,.222,1.246.791.791,0,0,0,.774.451.782.782,0,0,0,.759-.455A2.835,2.835,0,0,0-1.8-3.005v-.852a2.843,2.843,0,0,0-.225-1.237.785.785,0,0,0-.765-.461.785.785,0,0,0-.765.464,2.847,2.847,0,0,0-.225,1.233ZM4.2-5.224l-.679-.019a.769.769,0,0,0-.473.14.887.887,0,0,0-.289.394V0H.958V-6.868H2.641l.07.92.032.013a1.873,1.873,0,0,1,.46-.778A.965.965,0,0,1,3.891-7a1.6,1.6,0,0,1,.257.022,1.746,1.746,0,0,1,.238.054ZM8.461,0a3.082,3.082,0,0,1-.136-.375,3.057,3.057,0,0,1-.092-.413,2.147,2.147,0,0,1-.619.67,1.46,1.46,0,0,1-.847.251A1.756,1.756,0,0,1,5.405-.425a2.124,2.124,0,0,1-.511-1.492,1.955,1.955,0,0,1,.651-1.568,2.9,2.9,0,0,1,1.933-.559h.679V-4.6a1.381,1.381,0,0,0-.181-.771.61.61,0,0,0-.543-.27.523.523,0,0,0-.457.216,1.085,1.085,0,0,0-.152.628L5.078-4.805l-.019-.038a1.883,1.883,0,0,1,.663-1.523A2.626,2.626,0,0,1,7.554-7,2.451,2.451,0,0,1,9.3-6.37a2.317,2.317,0,0,1,.67,1.781v2.78a6.016,6.016,0,0,0,.07.946A5.153,5.153,0,0,0,10.251,0ZM7.287-1.225a.929.929,0,0,0,.5-.146,1.084,1.084,0,0,0,.365-.375V-3.009H7.478a.657.657,0,0,0-.6.286A1.312,1.312,0,0,0,6.7-2a.919.919,0,0,0,.159.559A.507.507,0,0,0,7.287-1.225Zm3.58-2.526a4.148,4.148,0,0,1,.6-2.349A1.921,1.921,0,0,1,13.159-7a1.424,1.424,0,0,1,.806.232,2.042,2.042,0,0,1,.609.663l.114-.768h1.568V-.133A2.864,2.864,0,0,1,15.472,2a2.917,2.917,0,0,1-2.149.778,3.459,3.459,0,0,1-.946-.143,4.344,4.344,0,0,1-.933-.384l.317-1.39a3.228,3.228,0,0,0,.736.3,3.1,3.1,0,0,0,.813.1A1.029,1.029,0,0,0,14.168.9,1.646,1.646,0,0,0,14.454-.14V-.533a1.749,1.749,0,0,1-.578.5,1.559,1.559,0,0,1-.73.168A1.947,1.947,0,0,1,11.464-.7a3.714,3.714,0,0,1-.6-2.206Zm1.8.848a2.617,2.617,0,0,0,.216,1.173.749.749,0,0,0,.724.423,1.022,1.022,0,0,0,.492-.114.94.94,0,0,0,.352-.337V-5.014a1.109,1.109,0,0,0-.346-.394.845.845,0,0,0-.486-.14.753.753,0,0,0-.73.493,3.217,3.217,0,0,0-.222,1.306ZM20.09.133a2.623,2.623,0,0,1-2.057-.851,3.1,3.1,0,0,1-.762-2.146v-.965a3.545,3.545,0,0,1,.708-2.279A2.365,2.365,0,0,1,19.938-7a2.276,2.276,0,0,1,1.866.806,3.366,3.366,0,0,1,.66,2.2v1.1h-3.4v.025a1.9,1.9,0,0,0,.308,1.117,1.061,1.061,0,0,0,.93.438,2.482,2.482,0,0,0,.825-.114,4.341,4.341,0,0,0,.755-.381l.457,1.149a2.723,2.723,0,0,1-.949.565A3.694,3.694,0,0,1,20.09.133Zm-.152-5.687a.67.67,0,0,0-.635.4,2.564,2.564,0,0,0-.229,1.065h1.619v-.255a1.831,1.831,0,0,0-.178-.889A.612.612,0,0,0,19.938-5.554ZM31.776-7.8H29.694V0h-1.8V-7.8H25.822V-9.242h5.954ZM35.16,0a3.082,3.082,0,0,1-.136-.375,3.057,3.057,0,0,1-.092-.413,2.147,2.147,0,0,1-.619.67,1.46,1.46,0,0,1-.847.251A1.756,1.756,0,0,1,32.1-.425a2.124,2.124,0,0,1-.511-1.492,1.955,1.955,0,0,1,.651-1.568,2.9,2.9,0,0,1,1.933-.559h.679V-4.6a1.381,1.381,0,0,0-.181-.771.61.61,0,0,0-.543-.27.523.523,0,0,0-.457.216,1.085,1.085,0,0,0-.152.628l-1.746-.006-.019-.038a1.883,1.883,0,0,1,.663-1.523A2.626,2.626,0,0,1,34.252-7a2.451,2.451,0,0,1,1.742.625,2.317,2.317,0,0,1,.67,1.781v2.78a6.016,6.016,0,0,0,.07.946A5.153,5.153,0,0,0,36.95,0ZM33.985-1.225a.929.929,0,0,0,.5-.146,1.084,1.084,0,0,0,.365-.375V-3.009h-.679a.657.657,0,0,0-.6.286A1.312,1.312,0,0,0,33.4-2a.919.919,0,0,0,.159.559A.507.507,0,0,0,33.985-1.225Zm5.472-5.643.076.946a2.289,2.289,0,0,1,.7-.79A1.6,1.6,0,0,1,41.152-7a1.591,1.591,0,0,1,1.349.66,3.5,3.5,0,0,1,.492,2.076V0H41.184V-4.264a1.842,1.842,0,0,0-.2-1,.7.7,0,0,0-.619-.289.822.822,0,0,0-.444.127,1.083,1.083,0,0,0-.343.349V0h-1.8V-6.868Zm6.8,4.012h-.33V0h-1.8V-9.9h1.8v5.624h.3l1.162-2.59h2.076l-1.79,3.091L49.759,0H47.7Z" transform="translate(1594 483.66)" fill="#fff"/>
    </g>
  </g>
</svg>
