<svg xmlns="http://www.w3.org/2000/svg" xmlns:xlink="http://www.w3.org/1999/xlink" width="160" height="190" viewBox="0 0 160 190">
  <defs>
    <filter id="Rect치ngulo_2776" x="-2" y="1" width="164.168" height="191.306" filterUnits="userSpaceOnUse">
      <feOffset dy="2" input="SourceAlpha"/>
      <feGaussianBlur stdDeviation="6" result="blur"/>
      <feFlood flood-color="#44d62c" flood-opacity="0.651"/>
      <feComposite operator="in" in2="blur"/>
      <feComposite in="SourceGraphic"/>
    </filter>
    <clipPath id="clip-Aceites01EN">
      <rect width="160" height="190"/>
    </clipPath>
  </defs>
  <g id="Aceites01EN" clip-path="url(#clip-Aceites01EN)">
    <g id="Grupo_1572" data-name="Grupo 1572" transform="translate(-35 -19.66)">
      <g transform="matrix(1, 0, 0, 1, 35, 19.66)" filter="url(#Rect치ngulo_2776)">
        <g id="Rect치ngulo_2776-2" data-name="Rect치ngulo 2776" transform="translate(16 17)" fill="#44d62c" stroke="#fff" stroke-width="1" opacity="0.93">
          <rect width="128.168" height="155.306" rx="14" stroke="none"/>
          <rect x="0.5" y="0.5" width="127.168" height="154.306" rx="13.5" fill="none"/>
        </g>
      </g>
      <g id="oil" transform="translate(95 64.789)">
        <path id="Trazado_6017" data-name="Trazado 6017" d="M39.221,21.741V15.865a2.573,2.573,0,0,0-2.35-2.56V12.291a3.481,3.481,0,0,0-3.477-3.477H28.9a2.63,2.63,0,0,0,.034-.4V2.6a2.606,2.606,0,0,0-2.6-2.6H12.886a2.606,2.606,0,0,0-2.6,2.6v5.81a2.63,2.63,0,0,0,.034.4H5.827A3.481,3.481,0,0,0,2.35,12.291V13.3A2.573,2.573,0,0,0,0,15.865v5.876A2.573,2.573,0,0,0,2.35,24.3v3.694A2.573,2.573,0,0,0,0,30.554V36.43a2.573,2.573,0,0,0,2.35,2.56v3.694A2.573,2.573,0,0,0,0,45.244V51.12a2.573,2.573,0,0,0,2.35,2.56v3.694A2.573,2.573,0,0,0,0,59.934V65.81a2.573,2.573,0,0,0,2.35,2.56v3.364a3.481,3.481,0,0,0,3.477,3.477H33.394a3.481,3.481,0,0,0,3.477-3.477V68.369a2.573,2.573,0,0,0,2.35-2.56V59.934a2.573,2.573,0,0,0-2.35-2.56V53.68a2.573,2.573,0,0,0,2.35-2.56V45.244a2.573,2.573,0,0,0-2.35-2.56V38.99a2.573,2.573,0,0,0,2.35-2.56V30.554a2.573,2.573,0,0,0-2.35-2.56V24.3a2.573,2.573,0,0,0,2.35-2.56ZM12.486,8.414V2.6a.4.4,0,0,1,.4-.4H26.335a.4.4,0,0,1,.4.4v5.81a.4.4,0,0,1-.4.4h-1.51V5.8a1.1,1.1,0,1,0-2.2,0V8.814h-1.91V5.8a1.1,1.1,0,0,0-2.2,0V8.814H16.6V5.8a1.1,1.1,0,0,0-2.2,0V8.814h-1.51a.4.4,0,0,1-.4-.4Zm-6.659,2.6H33.394a1.275,1.275,0,0,1,1.274,1.274v1H4.554v-1a1.275,1.275,0,0,1,1.274-1.274ZM2.2,21.741V15.865a.368.368,0,0,1,.367-.367h34.08a.368.368,0,0,1,.367.367v5.876a.368.368,0,0,1-.367.367H10.209a1.1,1.1,0,0,0,0,2.2H34.667v3.672H25.687a8.5,8.5,0,0,0-6.076-2.791,8.446,8.446,0,0,0-6.082,2.791H4.554V24.311h.955a1.1,1.1,0,1,0,0-2.2H2.571a.368.368,0,0,1-.367-.367Zm0,14.69V30.554a.368.368,0,0,1,.367-.367h9.246A18.769,18.769,0,0,0,9.336,36.8H2.571A.368.368,0,0,1,2.2,36.43ZM9.045,39a23.281,23.281,0,0,0-.024,3.672H4.554V39ZM2.2,51.12V45.244a.368.368,0,0,1,.367-.367H9.284a19.1,19.1,0,0,0,2.351,6.61H2.571A.368.368,0,0,1,2.2,51.12Zm23.764,2.571h8.7v3.672H4.554V53.691h8.7a8.57,8.57,0,0,0,6.357,3.085A8.57,8.57,0,0,0,25.968,53.691Zm11.05,6.243V65.81a.368.368,0,0,1-.367.367H33.688a1.1,1.1,0,1,0,0,2.2h.979v3.353a1.275,1.275,0,0,1-1.274,1.274H5.828a1.275,1.275,0,0,1-1.274-1.274V68.38H28.987a1.1,1.1,0,1,0,0-2.2H2.571A.368.368,0,0,1,2.2,65.81V59.934a.368.368,0,0,1,.367-.367h34.08a.368.368,0,0,1,.367.367Zm0-14.69V51.12a.368.368,0,0,1-.367.367H27.586a19.1,19.1,0,0,0,2.351-6.61H36.65A.368.368,0,0,1,37.018,45.244ZM30.2,42.673A23.379,23.379,0,0,0,30.177,39h4.491v3.672Zm6.819-12.119V36.43a.368.368,0,0,1-.367.367H29.886q-.123-.671-.285-1.325A1.1,1.1,0,0,0,27.463,36a20.646,20.646,0,0,1,.594,4.98A21.612,21.612,0,0,1,27.9,43.62c0,.024-.006.048-.008.072a16.947,16.947,0,0,1-2.45,7.079c-1.593,2.451-3.663,3.8-5.828,3.8s-4.235-1.35-5.828-3.8a16.947,16.947,0,0,1-2.449-7.079c0-.024-.005-.048-.008-.072a21.5,21.5,0,0,1-.161-2.636A18.142,18.142,0,0,1,13.782,31.2c1.593-2.451,3.663-3.8,5.828-3.8,2.362,0,4.643,1.645,6.259,4.513a1.1,1.1,0,0,0,1.92-1.081q-.185-.33-.382-.641H36.65a.368.368,0,0,1,.367.367Zm0,0" fill="#fff"/>
        <path id="Trazado_6018" data-name="Trazado 6018" d="M105.7,232.822a1.1,1.1,0,0,0-1.556,0,20.536,20.536,0,0,0-2.031,2.443,9.61,9.61,0,0,0-2.112,5.31c0,4.118,2.542,5.586,4.921,5.586s4.921-1.468,4.921-5.586a9.612,9.612,0,0,0-2.113-5.31A20.5,20.5,0,0,0,105.7,232.822Zm-.778,11.136c-2.246,0-2.718-1.84-2.718-3.383,0-1.748,1.577-3.995,2.718-5.34,1.141,1.346,2.718,3.591,2.718,5.34C107.639,242.118,107.167,243.958,104.921,243.958Zm0,0" transform="translate(-85.311 -198.346)" fill="#fff"/>
      </g>
      <path id="Trazado_9421" data-name="Trazado 9421" d="M-20.506-4.056h-3.1v2.615h3.65V0h-5.459V-9.242h5.446V-7.8H-23.61v2.3h3.1Zm1.009.66A5.013,5.013,0,0,1-18.9-6,1.867,1.867,0,0,1-17.218-7a1.4,1.4,0,0,1,.724.19,1.9,1.9,0,0,1,.578.546V-9.9h1.8V0h-1.568L-15.8-.749a2.019,2.019,0,0,1-.619.657,1.458,1.458,0,0,1-.8.225A1.882,1.882,0,0,1-18.9-.8,4.531,4.531,0,0,1-19.5-3.263Zm1.8.134a3.89,3.89,0,0,0,.213,1.439.737.737,0,0,0,.72.516.9.9,0,0,0,.489-.131,1.078,1.078,0,0,0,.355-.379V-4.949a1.272,1.272,0,0,0-.355-.446.766.766,0,0,0-.476-.159.764.764,0,0,0-.724.592A4.553,4.553,0,0,0-17.694-3.4ZM-11.054,0h-1.8V-6.868h1.8Zm0-8.525h-1.8V-9.9h1.8Zm6.64,5.618A3.812,3.812,0,0,1-4.989-.692,1.923,1.923,0,0,1-6.675.133a1.564,1.564,0,0,1-.841-.222,1.865,1.865,0,0,1-.613-.647L-8.236,0H-9.8V-9.9h1.8v3.618a1.739,1.739,0,0,1,.568-.527A1.481,1.481,0,0,1-6.687-7a1.912,1.912,0,0,1,1.695.86A4.055,4.055,0,0,1-4.415-3.84Zm-1.8-.937a3.188,3.188,0,0,0-.2-1.259.737.737,0,0,0-.74-.451.854.854,0,0,0-.5.146,1.077,1.077,0,0,0-.343.413v3.21a.854.854,0,0,0,.34.353,1.041,1.041,0,0,0,.511.118.741.741,0,0,0,.74-.4A2.857,2.857,0,0,0-6.211-2.91ZM-1.6,0H-3.4V-9.9h1.8ZM2.333.133A2.623,2.623,0,0,1,.276-.717,3.1,3.1,0,0,1-.486-2.863v-.965A3.545,3.545,0,0,1,.222-6.106,2.365,2.365,0,0,1,2.18-7a2.276,2.276,0,0,1,1.866.806,3.366,3.366,0,0,1,.66,2.2v1.1h-3.4v.025a1.9,1.9,0,0,0,.308,1.117,1.061,1.061,0,0,0,.93.438,2.482,2.482,0,0,0,.825-.114A4.341,4.341,0,0,0,4.129-1.8L4.586-.654a2.723,2.723,0,0,1-.949.565A3.694,3.694,0,0,1,2.333.133ZM2.18-5.554a.67.67,0,0,0-.635.4,2.564,2.564,0,0,0-.229,1.065H2.936v-.255a1.831,1.831,0,0,0-.178-.889A.612.612,0,0,0,2.18-5.554Zm6.068,1.7a3.415,3.415,0,0,1,.733-2.263A2.526,2.526,0,0,1,11.035-7a2.536,2.536,0,0,1,2.057.879,3.4,3.4,0,0,1,.736,2.263V-3a3.387,3.387,0,0,1-.736,2.266,2.541,2.541,0,0,1-2.05.87,2.546,2.546,0,0,1-2.06-.87A3.4,3.4,0,0,1,8.249-3Zm1.8.848a2.867,2.867,0,0,0,.222,1.246.791.791,0,0,0,.774.451.782.782,0,0,0,.759-.455,2.835,2.835,0,0,0,.225-1.243v-.852A2.843,2.843,0,0,0,11.8-5.093a.785.785,0,0,0-.765-.461.785.785,0,0,0-.765.464,2.847,2.847,0,0,0-.225,1.233ZM16.666,0h-1.8V-6.868h1.8Zm0-8.525h-1.8V-9.9h1.8ZM19.808,0h-1.8V-9.9h1.8Zm4.247-1.8a.667.667,0,0,0-.229-.5,3.847,3.847,0,0,0-.876-.524A4.619,4.619,0,0,1,21.4-3.7a1.667,1.667,0,0,1-.517-1.27A1.854,1.854,0,0,1,21.544-6.4,2.533,2.533,0,0,1,23.3-7a2.626,2.626,0,0,1,1.822.609,1.922,1.922,0,0,1,.654,1.555l-.019.038H24.016a1.176,1.176,0,0,0-.178-.686.621.621,0,0,0-.546-.254.685.685,0,0,0-.5.2.638.638,0,0,0-.2.476.638.638,0,0,0,.2.492,4.091,4.091,0,0,0,.882.511,4.278,4.278,0,0,1,1.6.873A1.76,1.76,0,0,1,25.8-1.86a1.756,1.756,0,0,1-.7,1.435,2.849,2.849,0,0,1-1.834.559,2.539,2.539,0,0,1-1.879-.692,2.043,2.043,0,0,1-.66-1.562l.013-.038h1.65a1.12,1.12,0,0,0,.254.787.9.9,0,0,0,.667.241.781.781,0,0,0,.552-.178A.636.636,0,0,0,24.054-1.8Z" transform="translate(115 173.66)" fill="#fff"/>
    </g>
  </g>
</svg>
