<svg xmlns="http://www.w3.org/2000/svg" xmlns:xlink="http://www.w3.org/1999/xlink" width="160" height="190" viewBox="0 0 160 190">
  <defs>
    <clipPath id="clip-Cereales-y-HarinasEN">
      <rect width="160" height="190"/>
    </clipPath>
  </defs>
  <g id="Cereales-y-HarinasEN" clip-path="url(#clip-Cereales-y-HarinasEN)">
    <g id="Grupo_1582" data-name="Grupo 1582" transform="translate(-623 -195.66)">
      <rect id="Rectángulo_2872" data-name="Rectángulo 2872" width="128.168" height="155.306" rx="14" transform="translate(639 212.66)" fill="none" opacity="0.93"/>
      <g id="cereals" transform="translate(670 247)">
        <path id="Trazado_5995" data-name="Trazado 5995" d="M117.277,81.606a1.28,1.28,0,0,0,1.28-1.28V75.644c0-.191-.016-.379-.028-.566l.394.394a1.281,1.281,0,0,0,1.81,0l.414-.415c-.014.195-.029.389-.029.588v4.683a1.28,1.28,0,0,0,1.28,1.28h4.682A8.127,8.127,0,0,0,135.2,73.49V68.807a1.28,1.28,0,0,0-1.28-1.28h-4.682a8.054,8.054,0,0,0-3,.582,8.113,8.113,0,0,0-2.193-7.427l-3.311-3.312a1.279,1.279,0,0,0-1.81,0l-3.313,3.31a8.111,8.111,0,0,0-2.194,7.418,8.048,8.048,0,0,0-2.978-.574h-4.683a1.28,1.28,0,0,0-1.28,1.28v4.684a8.127,8.127,0,0,0,8.118,8.117h4.682Zm15.361-11.521v3.4a5.564,5.564,0,0,1-5.558,5.557h-3.4v-3.4a5.563,5.563,0,0,1,5.558-5.558Zm-15.217-7.6,2.406-2.407,2.406,2.407a5.566,5.566,0,0,1,0,7.859l-2.406,2.406-2.406-2.406A5.565,5.565,0,0,1,117.421,62.49Zm-10.384,11v-3.4h3.4A5.564,5.564,0,0,1,116,75.644v3.4h-3.4A5.565,5.565,0,0,1,107.037,73.489Zm0,0" transform="translate(-90.396 -49.313)" fill="#5e5b5c"/>
        <path id="Trazado_5996" data-name="Trazado 5996" d="M222.293,313.434a3.845,3.845,0,0,0-3.84,3.84h2.56a1.28,1.28,0,1,1,2.56,0h2.56A3.845,3.845,0,0,0,222.293,313.434Zm0,0" transform="translate(-189.012 -271.192)" fill="#5e5b5c"/>
        <path id="Trazado_5997" data-name="Trazado 5997" d="M298.278,322.934a3.845,3.845,0,0,0-3.84,3.84H297a1.28,1.28,0,0,1,2.56,0h2.56A3.845,3.845,0,0,0,298.278,322.934Zm0,0" transform="translate(-254.756 -279.412)" fill="#5e5b5c"/>
        <path id="Trazado_5998" data-name="Trazado 5998" d="M53.141,38.655l4.417-16.564a1.3,1.3,0,0,0,.044-.33,2.563,2.563,0,0,0-2.56-2.561h-2.56a2.546,2.546,0,0,0-1.28.352V1.28A1.28,1.28,0,0,0,49.922,0H10.248c-.006,0-.013,0-.019,0s-.013,0-.019,0H1.28A1.28,1.28,0,0,0,0,1.28V60.162a1.282,1.282,0,0,0,.774,1.177l8.93,3.84a1.3,1.3,0,0,0,.506.1l.023,0,.015,0h19.6A24,24,0,0,0,66.688,44.957v-.133c0-3.821-7.9-5.475-13.547-6.169Zm-.659-16.894H55L50.286,39.432v0a.006.006,0,0,1,0,0l-.763,2.93a1.281,1.281,0,0,0,.917,1.562,1.336,1.336,0,0,0,.323.041A1.281,1.281,0,0,0,52,43.013l.483-1.854c8.737,1.03,11.647,3.053,11.647,3.665,0,1.259-7.31,4.215-21.487,4.215s-21.486-2.955-21.486-4.215,7.31-4.216,21.486-4.216c.758,0,1.484.029,2.221.048l-.24.952a1.28,1.28,0,0,0,.93,1.554,1.257,1.257,0,0,0,.313.038,1.284,1.284,0,0,0,1.241-.968l.627-2.491,4.707-17.652a1.338,1.338,0,0,0,.042-.33ZM8.93,62.058,2.56,59.319V2.56H8.93Zm17.521.664H11.528V2.56H48.642V26.394L45.522,38.1c-.943-.029-1.9-.049-2.88-.049-8.318,0-24.047,1.416-24.047,6.777v.133a24.094,24.094,0,0,0,.132,2.5c.026.244.078.482.112.725.077.574.154,1.147.272,1.707.066.319.164.625.242.941.119.471.231.943.376,1.4.116.366.263.719.4,1.078.145.389.282.783.446,1.162s.362.763.55,1.142c.165.333.324.67.5.993.214.385.451.755.685,1.128.19.3.376.6.579.9.248.357.513.7.781,1.044.228.293.456.585.7.867.265.31.543.61.824.908s.572.594.872.88c.136.126.254.266.391.391Zm16.191,3.72A21.36,21.36,0,0,1,30.8,62.867c-.163-.107-.319-.223-.477-.334-.366-.257-.726-.525-1.075-.8-.127-.1-.257-.2-.382-.3q-.684-.572-1.317-1.2c-.078-.078-.154-.157-.231-.236-.416-.424-.818-.86-1.2-1.318-.023-.027-.047-.054-.069-.081q-.614-.747-1.158-1.549c-.044-.064-.087-.13-.13-.195a21.525,21.525,0,0,1-1.84-3.383c-.042-.1-.086-.2-.127-.3-.241-.578-.46-1.167-.649-1.769-.024-.076-.043-.154-.066-.229-.166-.547-.308-1.105-.43-1.669-.024-.113-.053-.224-.076-.338-.059-.293-.089-.594-.137-.891,4.916,2.552,15.072,3.324,21.2,3.324s16.288-.772,21.2-3.324a21.5,21.5,0,0,1-21.2,18.169Zm0,0" fill="#5e5b5c"/>
      </g>
      <path id="Trazado_9427" data-name="Trazado 9427" d="M-37.67-2.977l.019.038a3.177,3.177,0,0,1-.724,2.3,2.857,2.857,0,0,1-2.171.774,3.054,3.054,0,0,1-2.292-.879,3.422,3.422,0,0,1-.857-2.491V-6a3.508,3.508,0,0,1,.828-2.491,2.893,2.893,0,0,1,2.219-.885,2.937,2.937,0,0,1,2.225.787,3.334,3.334,0,0,1,.778,2.33l-.019.038H-39.4a2.157,2.157,0,0,0-.248-1.312,1.14,1.14,0,0,0-1-.4,1.059,1.059,0,0,0-.933.477A2.589,2.589,0,0,0-41.9-6.016v2.777a2.483,2.483,0,0,0,.346,1.455,1.172,1.172,0,0,0,1.012.477,1.023,1.023,0,0,0,.911-.378,2.256,2.256,0,0,0,.225-1.292ZM-34,.133a2.623,2.623,0,0,1-2.057-.851,3.1,3.1,0,0,1-.762-2.146v-.965a3.545,3.545,0,0,1,.708-2.279A2.365,2.365,0,0,1-34.154-7a2.276,2.276,0,0,1,1.866.806,3.366,3.366,0,0,1,.66,2.2v1.1h-3.4v.025a1.9,1.9,0,0,0,.308,1.117,1.061,1.061,0,0,0,.93.438,2.482,2.482,0,0,0,.825-.114A4.341,4.341,0,0,0-32.2-1.8l.457,1.149a2.723,2.723,0,0,1-.949.565A3.694,3.694,0,0,1-34,.133Zm-.152-5.687a.67.67,0,0,0-.635.4,2.564,2.564,0,0,0-.229,1.065H-33.4v-.255a1.831,1.831,0,0,0-.178-.889A.612.612,0,0,0-34.154-5.554Zm6.678.33-.679-.019a.769.769,0,0,0-.473.14.887.887,0,0,0-.289.394V0h-1.8V-6.868h1.682l.07.92.032.013a1.873,1.873,0,0,1,.46-.778A.965.965,0,0,1-27.787-7a1.6,1.6,0,0,1,.257.022,1.746,1.746,0,0,1,.238.054ZM-24.01.133a2.623,2.623,0,0,1-2.057-.851,3.1,3.1,0,0,1-.762-2.146v-.965a3.545,3.545,0,0,1,.708-2.279A2.365,2.365,0,0,1-24.162-7a2.276,2.276,0,0,1,1.866.806,3.366,3.366,0,0,1,.66,2.2v1.1h-3.4v.025a1.9,1.9,0,0,0,.308,1.117,1.061,1.061,0,0,0,.93.438,2.482,2.482,0,0,0,.825-.114,4.341,4.341,0,0,0,.755-.381l.457,1.149a2.723,2.723,0,0,1-.949.565A3.694,3.694,0,0,1-24.01.133Zm-.152-5.687a.67.67,0,0,0-.635.4,2.564,2.564,0,0,0-.229,1.065h1.619v-.255a1.831,1.831,0,0,0-.178-.889A.612.612,0,0,0-24.162-5.554ZM-17.383,0a3.082,3.082,0,0,1-.136-.375,3.057,3.057,0,0,1-.092-.413,2.147,2.147,0,0,1-.619.67,1.46,1.46,0,0,1-.847.251,1.756,1.756,0,0,1-1.362-.559,2.124,2.124,0,0,1-.511-1.492A1.955,1.955,0,0,1-20.3-3.485a2.9,2.9,0,0,1,1.933-.559h.679V-4.6a1.381,1.381,0,0,0-.181-.771.61.61,0,0,0-.543-.27.523.523,0,0,0-.457.216,1.085,1.085,0,0,0-.152.628l-1.746-.006-.019-.038a1.883,1.883,0,0,1,.663-1.523A2.626,2.626,0,0,1-18.291-7a2.451,2.451,0,0,1,1.742.625,2.317,2.317,0,0,1,.67,1.781v2.78a6.016,6.016,0,0,0,.07.946A5.153,5.153,0,0,0-15.593,0Zm-1.174-1.225a.929.929,0,0,0,.5-.146,1.084,1.084,0,0,0,.365-.375V-3.009h-.679a.657.657,0,0,0-.6.286A1.312,1.312,0,0,0-19.148-2a.919.919,0,0,0,.159.559A.507.507,0,0,0-18.557-1.225ZM-12.851,0h-1.8V-9.9h1.8ZM-8.6-1.8a.667.667,0,0,0-.229-.5,3.847,3.847,0,0,0-.876-.524A4.619,4.619,0,0,1-11.261-3.7a1.667,1.667,0,0,1-.517-1.27A1.854,1.854,0,0,1-11.115-6.4,2.533,2.533,0,0,1-9.36-7a2.626,2.626,0,0,1,1.822.609,1.922,1.922,0,0,1,.654,1.555l-.019.038H-8.642a1.176,1.176,0,0,0-.178-.686.621.621,0,0,0-.546-.254.685.685,0,0,0-.5.2.638.638,0,0,0-.2.476.638.638,0,0,0,.2.492,4.091,4.091,0,0,0,.882.511,4.278,4.278,0,0,1,1.6.873A1.76,1.76,0,0,1-6.859-1.86a1.756,1.756,0,0,1-.7,1.435A2.849,2.849,0,0,1-9.391.133,2.539,2.539,0,0,1-11.27-.559a2.043,2.043,0,0,1-.66-1.562l.013-.038h1.65a1.12,1.12,0,0,0,.254.787.9.9,0,0,0,.667.241.781.781,0,0,0,.552-.178A.636.636,0,0,0-8.6-1.8ZM.238,0A3.082,3.082,0,0,1,.1-.375,3.057,3.057,0,0,1,.01-.787a2.147,2.147,0,0,1-.619.67,1.46,1.46,0,0,1-.847.251A1.756,1.756,0,0,1-2.818-.425a2.124,2.124,0,0,1-.511-1.492,1.955,1.955,0,0,1,.651-1.568A2.9,2.9,0,0,1-.746-4.043h.679V-4.6a1.381,1.381,0,0,0-.181-.771.61.61,0,0,0-.543-.27.523.523,0,0,0-.457.216A1.085,1.085,0,0,0-1.4-4.8l-1.746-.006-.019-.038A1.883,1.883,0,0,1-2.5-6.367,2.626,2.626,0,0,1-.67-7a2.451,2.451,0,0,1,1.742.625,2.317,2.317,0,0,1,.67,1.781v2.78a6.017,6.017,0,0,0,.07.946A5.153,5.153,0,0,0,2.028,0ZM-.936-1.225a.929.929,0,0,0,.5-.146,1.084,1.084,0,0,0,.365-.375V-3.009H-.746a.657.657,0,0,0-.6.286A1.312,1.312,0,0,0-1.527-2a.919.919,0,0,0,.159.559A.507.507,0,0,0-.936-1.225ZM4.535-6.868l.076.946a2.289,2.289,0,0,1,.7-.79A1.6,1.6,0,0,1,6.23-7a1.591,1.591,0,0,1,1.349.66,3.5,3.5,0,0,1,.492,2.076V0H6.262V-4.264a1.842,1.842,0,0,0-.2-1,.7.7,0,0,0-.619-.289A.822.822,0,0,0,5-5.427a1.083,1.083,0,0,0-.343.349V0h-1.8V-6.868ZM8.96-3.4A5.013,5.013,0,0,1,9.556-6,1.867,1.867,0,0,1,11.239-7a1.4,1.4,0,0,1,.724.19,1.9,1.9,0,0,1,.578.546V-9.9h1.8V0H12.775l-.121-.749a2.019,2.019,0,0,1-.619.657,1.458,1.458,0,0,1-.8.225A1.882,1.882,0,0,1,9.553-.8,4.531,4.531,0,0,1,8.96-3.263Zm1.8.134a3.889,3.889,0,0,0,.213,1.439.737.737,0,0,0,.72.516.9.9,0,0,0,.489-.131,1.078,1.078,0,0,0,.355-.379V-4.949a1.272,1.272,0,0,0-.355-.446.766.766,0,0,0-.476-.159.764.764,0,0,0-.724.592A4.553,4.553,0,0,0,10.762-3.4ZM23.426-3.84H20.29V0H18.481V-9.242h5.5V-7.8H20.29v2.52h3.136ZM26.7,0H24.9V-9.9h1.8Zm1.041-3.853a3.415,3.415,0,0,1,.733-2.263A2.526,2.526,0,0,1,30.529-7a2.536,2.536,0,0,1,2.057.879,3.4,3.4,0,0,1,.736,2.263V-3a3.387,3.387,0,0,1-.736,2.266,2.541,2.541,0,0,1-2.05.87,2.546,2.546,0,0,1-2.06-.87A3.4,3.4,0,0,1,27.742-3Zm1.8.848a2.867,2.867,0,0,0,.222,1.246.791.791,0,0,0,.774.451.782.782,0,0,0,.759-.455,2.835,2.835,0,0,0,.225-1.243v-.852a2.843,2.843,0,0,0-.225-1.237.785.785,0,0,0-.765-.461.785.785,0,0,0-.765.464,2.847,2.847,0,0,0-.225,1.233Zm8.22,2.212a2.027,2.027,0,0,1-.676.689,1.712,1.712,0,0,1-.9.238,1.691,1.691,0,0,1-1.438-.7,3.621,3.621,0,0,1-.517-2.155V-6.868h1.8V-2.7a2.361,2.361,0,0,0,.178,1.061.567.567,0,0,0,.527.33,1.169,1.169,0,0,0,.524-.111,1.05,1.05,0,0,0,.384-.327V-6.868h1.809V0H37.867Zm6.075-4.431-.679-.019a.769.769,0,0,0-.473.14.887.887,0,0,0-.289.394V0h-1.8V-6.868h1.682l.07.92.032.013a1.873,1.873,0,0,1,.46-.778A.965.965,0,0,1,43.523-7a1.6,1.6,0,0,1,.257.022,1.746,1.746,0,0,1,.238.054Z" transform="translate(703 348.66)" fill="#5e5b5c"/>
    </g>
  </g>
</svg>
