<svg xmlns="http://www.w3.org/2000/svg" xmlns:xlink="http://www.w3.org/1999/xlink" width="160" height="190" viewBox="0 0 160 190">
  <defs>
    <filter id="Rect치ngulo_2788" x="-2" y="1" width="164.168" height="191.306" filterUnits="userSpaceOnUse">
      <feOffset dy="2" input="SourceAlpha"/>
      <feGaussianBlur stdDeviation="6" result="blur"/>
      <feFlood flood-color="#44d62c" flood-opacity="0.651"/>
      <feComposite operator="in" in2="blur"/>
      <feComposite in="SourceGraphic"/>
    </filter>
    <clipPath id="clip-Lacteos-y-embutidos01EN">
      <rect width="160" height="190"/>
    </clipPath>
  </defs>
  <g id="Lacteos-y-embutidos01EN" clip-path="url(#clip-Lacteos-y-embutidos01EN)">
    <g id="Grupo_1574" data-name="Grupo 1574" transform="translate(-329 -19.66)">
      <g transform="matrix(1, 0, 0, 1, 329, 19.66)" filter="url(#Rect치ngulo_2788)">
        <g id="Rect치ngulo_2788-2" data-name="Rect치ngulo 2788" transform="translate(16 17)" fill="#44d62c" stroke="#fff" stroke-width="1" opacity="0.93">
          <rect width="128.168" height="155.306" rx="14" stroke="none"/>
          <rect x="0.5" y="0.5" width="127.168" height="154.306" rx="13.5" fill="none"/>
        </g>
      </g>
      <g id="Grupo_1148" data-name="Grupo 1148" transform="translate(357.325 63)">
        <g id="chips" transform="translate(22.671 3)">
          <path id="Trazado_7177" data-name="Trazado 7177" d="M56.157,36.858c0-3.914.363-7.92.713-11.794.357-3.951.727-8.036.727-12.107A4.313,4.313,0,0,0,55.989,9.6a2.862,2.862,0,0,0,.168-.961V1.743A1.442,1.442,0,0,0,55.81.805a2.271,2.271,0,0,0-.923-.633,2.644,2.644,0,0,0-2.835.609l-1.72,1.943L48.622.794a2.271,2.271,0,0,0-.913-.622,2.645,2.645,0,0,0-2.835.609L43.151,2.728,41.444.8a2.271,2.271,0,0,0-.913-.622A2.644,2.644,0,0,0,37.7.788L35.975,2.731,34.266.8a2.273,2.273,0,0,0-.913-.622,2.646,2.646,0,0,0-2.836.609L28.794,2.735,27.089.81a2.267,2.267,0,0,0-.914-.623A2.642,2.642,0,0,0,23.34.8L21.619,2.738,19.91.809A2.264,2.264,0,0,0,19,.187,2.643,2.643,0,0,0,16.162.8L14.438,2.742,12.732.816a2.277,2.277,0,0,0-.914-.622A2.646,2.646,0,0,0,8.984.8L7.263,2.746,5.554.816A2.279,2.279,0,0,0,4.641.194,2.645,2.645,0,0,0,1.807.8a1.439,1.439,0,0,0-.363.956v6.88a2.861,2.861,0,0,0,.168.96A4.314,4.314,0,0,0,0,12.957c0,4.071.37,8.156.727,12.107.35,3.874.713,7.88.713,11.794s-.363,7.92-.713,11.794C.373,52.6,0,56.689,0,60.76a4.313,4.313,0,0,0,1.608,3.359,2.861,2.861,0,0,0-.168.96v6.88a1.442,1.442,0,0,0,.363.957,2.645,2.645,0,0,0,2.834.607,2.274,2.274,0,0,0,.912-.621l1.71-1.93,1.722,1.944a2.644,2.644,0,0,0,2.834.607,2.274,2.274,0,0,0,.912-.621l1.706-1.927,1.725,1.948A2.642,2.642,0,0,0,19,73.53a2.27,2.27,0,0,0,.914-.622l1.709-1.93,1.722,1.944a2.645,2.645,0,0,0,2.833.608,2.27,2.27,0,0,0,.914-.623l1.705-1.925,1.726,1.948a2.644,2.644,0,0,0,2.833.607,2.273,2.273,0,0,0,.914-.623l1.709-1.929L37.7,72.93a2.643,2.643,0,0,0,2.833.608,2.267,2.267,0,0,0,.913-.622L43.15,70.99l1.725,1.948a2.644,2.644,0,0,0,2.834.608,2.277,2.277,0,0,0,.913-.622l1.709-1.93,1.722,1.944a2.514,2.514,0,0,0,1.875.78,2.723,2.723,0,0,0,.959-.172,2.273,2.273,0,0,0,.923-.633,1.441,1.441,0,0,0,.347-.938V65.08a2.862,2.862,0,0,0-.168-.961A4.312,4.312,0,0,0,57.6,60.761c0-4.071-.37-8.157-.727-12.108-.35-3.875-.713-7.881-.713-11.794ZM4.323,3.77,5.392,4.977a2.645,2.645,0,0,0,2.833.608,2.33,2.33,0,0,0,.761-.465,1.5,1.5,0,0,0,.148-.145l1.718-1.939,1.718,1.94a2.645,2.645,0,0,0,2.833.608,2.271,2.271,0,0,0,.914-.623L18.03,3.03l1.719,1.94a2.645,2.645,0,0,0,2.833.608,2.328,2.328,0,0,0,.76-.463,1.522,1.522,0,0,0,.149-.146L25.208,3.03l1.719,1.94a2.643,2.643,0,0,0,2.833.608,2.266,2.266,0,0,0,.915-.623l1.711-1.932L34.1,4.963a2.645,2.645,0,0,0,2.835.608,2.335,2.335,0,0,0,.761-.465,1.476,1.476,0,0,0,.147-.144l1.718-1.939,1.719,1.94a2.644,2.644,0,0,0,2.834.608,2.268,2.268,0,0,0,.912-.621l1.713-1.934,1.719,1.941a2.644,2.644,0,0,0,2.833.608,2.329,2.329,0,0,0,.758-.462,1.443,1.443,0,0,0,.151-.148l1.075-1.213v4.9H20.162a1.44,1.44,0,1,0,0,2.88H53.277a1.441,1.441,0,0,1,1.44,1.44c0,3.941-.363,7.96-.715,11.847-.357,3.938-.725,8.009-.725,12.054s.368,8.116.725,12.053c.352,3.887.715,7.907.715,11.848a1.441,1.441,0,0,1-1.44,1.44H4.323a1.441,1.441,0,0,1-1.44-1.44c0-3.941.364-7.96.715-11.848.356-3.938.724-8.009.724-12.053S3.955,28.743,3.6,24.805c-.352-3.887-.715-7.906-.715-11.847a1.441,1.441,0,0,1,1.44-1.44H7.2a1.44,1.44,0,1,0,0-2.88H4.323ZM53.277,69.976,52.2,68.763a1.471,1.471,0,0,0-.15-.146,2.335,2.335,0,0,0-.759-.463,2.644,2.644,0,0,0-2.835.609L46.742,70.7,45.03,68.768a2.265,2.265,0,0,0-.913-.621,2.644,2.644,0,0,0-2.835.609l-1.718,1.939-1.717-1.939a1.475,1.475,0,0,0-.147-.143,2.32,2.32,0,0,0-.762-.466,2.644,2.644,0,0,0-2.835.609l-1.718,1.939-1.712-1.934a2.27,2.27,0,0,0-.913-.622,2.645,2.645,0,0,0-2.835.609l-1.717,1.939-1.718-1.939a1.39,1.39,0,0,0-.148-.145,2.32,2.32,0,0,0-.76-.464,2.644,2.644,0,0,0-2.835.609L18.03,70.687l-1.713-1.934a2.275,2.275,0,0,0-.913-.622,2.646,2.646,0,0,0-2.835.61L10.852,70.68,9.134,68.74a1.411,1.411,0,0,0-.147-.143,2.331,2.331,0,0,0-.762-.466,2.645,2.645,0,0,0-2.835.61L4.323,69.947V65.078H53.277Zm0,0" transform="translate(0 0)" fill="#fff"/>
          <path id="Trazado_7179" data-name="Trazado 7179" d="M241.452,392h0a1.44,1.44,0,1,0,1.441,1.44A1.44,1.44,0,0,0,241.451,392Zm0,0" transform="translate(-205.452 -335.56)" fill="#fff"/>
          <path id="Trazado_7180" data-name="Trazado 7180" d="M285.012,393.44a1.44,1.44,0,0,0,1.44,1.44h7.918a1.44,1.44,0,0,0,0-2.88h-7.918A1.44,1.44,0,0,0,285.012,393.44Zm0,0" transform="translate(-243.973 -335.56)" fill="#fff"/>
          <path id="Trazado_7181" data-name="Trazado 7181" d="M86.448,62.872a1.44,1.44,0,0,0,0-2.88h0a1.44,1.44,0,0,0,0,2.88Zm0,0" transform="translate(-72.765 -51.355)" fill="#fff"/>
        </g>
        <g id="Grupo_1405" data-name="Grupo 1405" transform="translate(4965.248 -1026.486)">
          <g id="cow" transform="translate(-4932 1044)">
            <g id="Grupo_1394" data-name="Grupo 1394" transform="translate(0 0)">
              <g id="Grupo_1393" data-name="Grupo 1393">
                <path id="Trazado_7182" data-name="Trazado 7182" d="M49.7,8.579a3.068,3.068,0,0,0-2.885-1.165,7.3,7.3,0,0,0-3.532,1.309,8.344,8.344,0,0,0-1.246,1.036A9.77,9.77,0,0,0,43,4.888,6.212,6.212,0,0,0,41.245.88,2.435,2.435,0,0,0,38.189.343c-1.221.834-1.139,2.028-1.059,3.183a6.934,6.934,0,0,1-.605,3.916,17.691,17.691,0,0,0-7.546-.013,6.936,6.936,0,0,1-.6-3.9c.08-1.155.162-2.348-1.059-3.183a2.406,2.406,0,0,0-3.053.534,6.205,6.205,0,0,0-1.756,4,9.763,9.763,0,0,0,.963,4.885,8.361,8.361,0,0,0-1.246-1.036A7.3,7.3,0,0,0,18.7,7.413a3.067,3.067,0,0,0-2.885,1.165,3.069,3.069,0,0,0-.024,3.111,7.3,7.3,0,0,0,2.514,2.8,7.378,7.378,0,0,0,3.331,1.294,23.078,23.078,0,0,0-.111,5.572,22.116,22.116,0,0,0,1.125,5.368,7.518,7.518,0,0,0-.289,2.155c0,4.461,3.025,8.09,6.742,8.09a5.9,5.9,0,0,0,3.654-1.285,5.9,5.9,0,0,0,3.654,1.285c3.718,0,6.742-3.629,6.742-8.09a7.516,7.516,0,0,0-.283-2.135A22.387,22.387,0,0,0,43.99,21.36a23.106,23.106,0,0,0-.122-5.57,7.369,7.369,0,0,0,3.34-1.3,7.3,7.3,0,0,0,2.515-2.8A3.069,3.069,0,0,0,49.7,8.579ZM38.657,3.42c-.081-1.176-.053-1.507.4-1.814.292-.2.786.051,1.145.389a4.747,4.747,0,0,1,1.276,3.018,8.392,8.392,0,0,1-.949,4.355A9.181,9.181,0,0,0,38,7.9,8.5,8.5,0,0,0,38.657,3.42ZM24.036,5a4.74,4.74,0,0,1,1.277-3.009c.359-.336.851-.586,1.143-.387.448.306.477.638.4,1.813A8.5,8.5,0,0,0,27.5,7.883a9.123,9.123,0,0,0-2.53,1.459A8.37,8.37,0,0,1,24.036,5ZM21.95,14.277a5.755,5.755,0,0,1-2.788-1.049,5.841,5.841,0,0,1-1.991-2.191,1.66,1.66,0,0,1-.095-1.6,1.66,1.66,0,0,1,1.521-.5,5.846,5.846,0,0,1,2.77,1.047,6.3,6.3,0,0,1,1.671,1.635A10.789,10.789,0,0,0,21.95,14.277Zm20.515,6.951a21.505,21.505,0,0,1-.623,3.634,4.871,4.871,0,0,0-1.6-1.176.765.765,0,1,0-.646,1.387,3.188,3.188,0,0,1,1.748,1.917,5.73,5.73,0,0,1,.282,1.891c0,3.617-2.338,6.56-5.211,6.56a4.513,4.513,0,0,1-3.128-1.318.765.765,0,0,0-1.053,0A4.512,4.512,0,0,1,29.1,35.442c-2.874,0-5.211-2.943-5.211-6.56a5.755,5.755,0,0,1,.282-1.892c.006-.015.012-.03.016-.045.6-1.656,2.167-2.428,4.913-2.428a10.7,10.7,0,0,1,1.659.118,12.747,12.747,0,0,0,3.99,0,9.568,9.568,0,0,1,1.01-.1A.765.765,0,0,0,35.682,23a11.115,11.115,0,0,0-1.172.119,11.219,11.219,0,0,1-3.511,0,12.216,12.216,0,0,0-1.9-.137,9.016,9.016,0,0,0-3.819.7,4.877,4.877,0,0,0-1.608,1.174,21.162,21.162,0,0,1-.627-3.628,20.269,20.269,0,0,1,.255-6.037,9.3,9.3,0,0,1,1.274-3.144,6.809,6.809,0,0,1,.749-.947A7.62,7.62,0,0,1,28.8,9.057a14.065,14.065,0,0,1,3.919-.5,14.069,14.069,0,0,1,3.974.512,7.683,7.683,0,0,1,3.476,2.059c.106.112.209.228.306.346a7.207,7.207,0,0,1,.443.6A9.352,9.352,0,0,1,42.2,15.194,19.991,19.991,0,0,1,42.465,21.229Zm5.873-10.192a5.842,5.842,0,0,1-1.991,2.191,5.729,5.729,0,0,1-2.8,1.051,10.836,10.836,0,0,0-1.089-2.632,6.268,6.268,0,0,1,1.687-1.659,5.846,5.846,0,0,1,2.77-1.047,1.66,1.66,0,0,1,1.521.5A1.659,1.659,0,0,1,48.338,11.037Z" transform="translate(-15.378 0.001)" fill="#fff"/>
              </g>
            </g>
            <g id="Grupo_1396" data-name="Grupo 1396" transform="translate(21.541 23.048)">
              <g id="Grupo_1395" data-name="Grupo 1395">
                <path id="Trazado_7183" data-name="Trazado 7183" d="M314.765,319.2l-.241-.028a.765.765,0,0,0-.158,1.522l.207.024a.777.777,0,0,0,.1.006.765.765,0,0,0,.1-1.525Z" transform="translate(-313.679 -319.17)" fill="#fff"/>
              </g>
            </g>
            <g id="Grupo_1398" data-name="Grupo 1398" transform="translate(10.991 26.419)">
              <g id="Grupo_1397" data-name="Grupo 1397">
                <path id="Trazado_7184" data-name="Trazado 7184" d="M169.977,365.846a2.4,2.4,0,1,0,2.4,2.4A2.4,2.4,0,0,0,169.977,365.846Zm0,3.268a.869.869,0,1,1,.869-.869A.87.87,0,0,1,169.977,369.114Z" transform="translate(-167.577 -365.846)" fill="#fff"/>
              </g>
            </g>
            <g id="Grupo_1400" data-name="Grupo 1400" transform="translate(18.962 26.419)">
              <g id="Grupo_1399" data-name="Grupo 1399">
                <path id="Trazado_7185" data-name="Trazado 7185" d="M280.367,365.846a2.4,2.4,0,1,0,2.4,2.4A2.4,2.4,0,0,0,280.367,365.846Zm0,3.268a.869.869,0,1,1,.869-.869A.87.87,0,0,1,280.367,369.114Z" transform="translate(-277.967 -365.846)" fill="#fff"/>
              </g>
            </g>
            <g id="Grupo_1402" data-name="Grupo 1402" transform="translate(10.831 16.893)">
              <g id="Grupo_1401" data-name="Grupo 1401">
                <path id="Trazado_7186" data-name="Trazado 7186" d="M166.126,233.93a.765.765,0,0,0-.765.765v.468a.765.765,0,0,0,1.531,0V234.7A.765.765,0,0,0,166.126,233.93Z" transform="translate(-165.361 -233.93)" fill="#fff"/>
              </g>
            </g>
            <g id="Grupo_1404" data-name="Grupo 1404" transform="translate(22.391 16.893)">
              <g id="Grupo_1403" data-name="Grupo 1403">
                <path id="Trazado_7187" data-name="Trazado 7187" d="M326.207,233.93a.765.765,0,0,0-.765.765v.468a.765.765,0,0,0,1.531,0V234.7A.765.765,0,0,0,326.207,233.93Z" transform="translate(-325.442 -233.93)" fill="#fff"/>
              </g>
            </g>
          </g>
        </g>
      </g>
      <path id="Trazado_9430" data-name="Trazado 9430" d="M-36.9,0V-9.242H-34.1a2.965,2.965,0,0,1,2.349,1.076A4.094,4.094,0,0,1-30.827-5.4V-3.84a4.082,4.082,0,0,1-.927,2.768A2.969,2.969,0,0,1-34.1,0Zm1.809-7.8v6.36h.882A1.3,1.3,0,0,0-33.04-2.1a3.268,3.268,0,0,0,.409-1.744V-5.412a3.238,3.238,0,0,0-.409-1.735A1.3,1.3,0,0,0-34.2-7.8ZM-26.359,0A3.082,3.082,0,0,1-26.5-.375a3.057,3.057,0,0,1-.092-.413,2.147,2.147,0,0,1-.619.67,1.46,1.46,0,0,1-.847.251,1.756,1.756,0,0,1-1.362-.559,2.124,2.124,0,0,1-.511-1.492,1.955,1.955,0,0,1,.651-1.568,2.9,2.9,0,0,1,1.933-.559h.679V-4.6a1.381,1.381,0,0,0-.181-.771.61.61,0,0,0-.543-.27.523.523,0,0,0-.457.216A1.085,1.085,0,0,0-28-4.8l-1.746-.006-.019-.038A1.883,1.883,0,0,1-29.1-6.367,2.626,2.626,0,0,1-27.266-7a2.451,2.451,0,0,1,1.742.625,2.317,2.317,0,0,1,.67,1.781v2.78a6.017,6.017,0,0,0,.07.946A5.153,5.153,0,0,0-24.569,0Zm-1.174-1.225a.929.929,0,0,0,.5-.146,1.084,1.084,0,0,0,.365-.375V-3.009h-.679a.657.657,0,0,0-.6.286A1.312,1.312,0,0,0-28.123-2a.919.919,0,0,0,.159.559A.507.507,0,0,0-27.533-1.225ZM-21.826,0h-1.8V-6.868h1.8Zm0-8.525h-1.8V-9.9h1.8Zm4.5,3.3-.679-.019a.769.769,0,0,0-.473.14.887.887,0,0,0-.289.394V0h-1.8V-6.868h1.682l.07.92.032.013a1.873,1.873,0,0,1,.46-.778A.965.965,0,0,1-17.637-7a1.6,1.6,0,0,1,.257.022,1.746,1.746,0,0,1,.238.054Zm3.237,2.406.013.07,1-4.12h1.93l-2.317,7.9a3.749,3.749,0,0,1-.7,1.241,1.672,1.672,0,0,1-1.33.5,1.825,1.825,0,0,1-.394-.038q-.171-.038-.457-.114l.209-1.346.156.029a.535.535,0,0,0,.1.01.79.79,0,0,0,.594-.206,1.2,1.2,0,0,0,.289-.543l.159-.508L-16.85-6.868h1.936Zm8.334-.5V0H-7.563V-9.242h3.212a2.914,2.914,0,0,1,2.184.818,2.935,2.935,0,0,1,.8,2.143,2.926,2.926,0,0,1-.8,2.146,2.922,2.922,0,0,1-2.18.815Zm0-1.441h1.4a1.017,1.017,0,0,0,.882-.426,1.814,1.814,0,0,0,.3-1.081,1.884,1.884,0,0,0-.3-1.1A1.008,1.008,0,0,0-4.351-7.8h-1.4Zm8.671-.463-.679-.019a.769.769,0,0,0-.473.14.887.887,0,0,0-.289.394V0h-1.8V-6.868H1.355l.07.92.032.013a1.873,1.873,0,0,1,.46-.778A.965.965,0,0,1,2.606-7a1.6,1.6,0,0,1,.257.022,1.746,1.746,0,0,1,.238.054Zm.571,1.371a3.415,3.415,0,0,1,.733-2.263A2.526,2.526,0,0,1,6.275-7a2.536,2.536,0,0,1,2.057.879,3.4,3.4,0,0,1,.736,2.263V-3A3.387,3.387,0,0,1,8.331-.736a2.541,2.541,0,0,1-2.05.87,2.546,2.546,0,0,1-2.06-.87A3.4,3.4,0,0,1,3.488-3Zm1.8.848a2.867,2.867,0,0,0,.222,1.246.791.791,0,0,0,.774.451.782.782,0,0,0,.759-.455,2.835,2.835,0,0,0,.225-1.243v-.852A2.843,2.843,0,0,0,7.04-5.093a.785.785,0,0,0-.765-.461.785.785,0,0,0-.765.464,2.847,2.847,0,0,0-.225,1.233ZM9.779-3.4A5.013,5.013,0,0,1,10.375-6,1.867,1.867,0,0,1,12.057-7a1.4,1.4,0,0,1,.724.19,1.9,1.9,0,0,1,.578.546V-9.9h1.8V0H13.594l-.121-.749a2.019,2.019,0,0,1-.619.657,1.458,1.458,0,0,1-.8.225A1.882,1.882,0,0,1,10.372-.8a4.531,4.531,0,0,1-.594-2.466Zm1.8.134a3.889,3.889,0,0,0,.213,1.439.737.737,0,0,0,.72.516A.9.9,0,0,0,13-1.438a1.078,1.078,0,0,0,.355-.379V-4.949A1.272,1.272,0,0,0,13-5.4a.766.766,0,0,0-.476-.159.764.764,0,0,0-.724.592A4.553,4.553,0,0,0,11.581-3.4ZM19.821-.793a2.027,2.027,0,0,1-.676.689,1.712,1.712,0,0,1-.9.238,1.691,1.691,0,0,1-1.438-.7,3.621,3.621,0,0,1-.517-2.155V-6.868h1.8V-2.7a2.361,2.361,0,0,0,.178,1.061.567.567,0,0,0,.527.33,1.169,1.169,0,0,0,.524-.111,1.05,1.05,0,0,0,.384-.327V-6.868h1.809V0H19.928Zm5.338-.514a.63.63,0,0,0,.555-.273,1.387,1.387,0,0,0,.187-.787h1.638l.019.038A2.353,2.353,0,0,1,26.9-.559a2.335,2.335,0,0,1-1.736.692,2.5,2.5,0,0,1-2.047-.87A3.426,3.426,0,0,1,22.4-2.983v-.882a3.465,3.465,0,0,1,.711-2.25A2.469,2.469,0,0,1,25.146-7a2.288,2.288,0,0,1,1.774.717,2.69,2.69,0,0,1,.638,1.936l-.013.032H25.9a1.876,1.876,0,0,0-.187-.9.609.609,0,0,0-.568-.341A.743.743,0,0,0,24.4-5.1a3.072,3.072,0,0,0-.2,1.227v.884a3.036,3.036,0,0,0,.2,1.233A.755.755,0,0,0,25.159-1.308Zm5.415-7.268v1.708h.952v1.308h-.952v3.447a1.122,1.122,0,0,0,.121.6.377.377,0,0,0,.33.181,2.076,2.076,0,0,0,.279-.016,2.043,2.043,0,0,0,.254-.054L31.7-.032A3.6,3.6,0,0,1,31.151.1a4.109,4.109,0,0,1-.59.038A1.656,1.656,0,0,1,29.231-.4a2.589,2.589,0,0,1-.46-1.7V-5.561h-.812V-6.868h.813V-8.576ZM35.531-1.8a.667.667,0,0,0-.229-.5,3.847,3.847,0,0,0-.876-.524A4.619,4.619,0,0,1,32.875-3.7a1.667,1.667,0,0,1-.517-1.27A1.854,1.854,0,0,1,33.021-6.4,2.533,2.533,0,0,1,34.776-7a2.626,2.626,0,0,1,1.822.609,1.922,1.922,0,0,1,.654,1.555l-.019.038H35.493a1.176,1.176,0,0,0-.178-.686.621.621,0,0,0-.546-.254.685.685,0,0,0-.5.2.638.638,0,0,0-.2.476.638.638,0,0,0,.2.492,4.091,4.091,0,0,0,.882.511,4.278,4.278,0,0,1,1.6.873,1.76,1.76,0,0,1,.521,1.323,1.756,1.756,0,0,1-.7,1.435,2.849,2.849,0,0,1-1.834.559,2.539,2.539,0,0,1-1.879-.692A2.043,2.043,0,0,1,32.2-2.12l.013-.038h1.65a1.12,1.12,0,0,0,.254.787.9.9,0,0,0,.667.241.781.781,0,0,0,.552-.178A.636.636,0,0,0,35.531-1.8Z" transform="translate(409 172.66)" fill="#fff"/>
    </g>
  </g>
</svg>
