<svg xmlns="http://www.w3.org/2000/svg" xmlns:xlink="http://www.w3.org/1999/xlink" width="160" height="190" viewBox="0 0 160 190">
  <defs>
    <filter id="Trazado_9476" x="-2" y="1.66" width="164" height="191" filterUnits="userSpaceOnUse">
      <feOffset dy="2" input="SourceAlpha"/>
      <feGaussianBlur stdDeviation="6" result="blur"/>
      <feFlood flood-color="#44d62c" flood-opacity="0.651"/>
      <feComposite operator="in" in2="blur"/>
      <feComposite in="SourceGraphic"/>
    </filter>
    <clipPath id="clip-Beverage-crates2">
      <rect width="160" height="190"/>
    </clipPath>
  </defs>
  <g id="Beverage-crates2" clip-path="url(#clip-Beverage-crates2)">
    <g id="Grupo_1683" data-name="Grupo 1683" transform="translate(5349 11825)">
      <g transform="matrix(1, 0, 0, 1, -5349, -11825)" filter="url(#Trazado_9476)">
        <g id="Trazado_9476-2" data-name="Trazado 9476" transform="translate(16 17.66)" fill="#44d62c" opacity="0.93">
          <path d="M 114 154.5 L 14 154.5 C 10.39402008056641 154.5 7.003880023956299 153.0957641601563 4.454060077667236 150.5459442138672 C 1.904240012168884 147.9961395263672 0.5 144.6059875488281 0.5 141 L 0.5 14 C 0.5 10.39402008056641 1.904240012168884 7.003880023956299 4.454060077667236 4.454060077667236 C 7.003880023956299 1.904240012168884 10.39402008056641 0.5 14 0.5 L 114 0.5 C 117.6059799194336 0.5 120.9961166381836 1.904240012168884 123.5459365844727 4.454060077667236 C 126.0957565307617 7.003880023956299 127.5 10.39402008056641 127.5 14 L 127.5 141 C 127.5 144.6059875488281 126.0957565307617 147.9961395263672 123.5459365844727 150.5459442138672 C 120.9961166381836 153.0957641601563 117.6059799194336 154.5 114 154.5 Z" stroke="none"/>
          <path d="M 14 1 C 10.52758026123047 1 7.262977600097656 2.35223388671875 4.8076171875 4.807601928710938 C 2.352241516113281 7.262985229492188 1 10.52757263183594 1 14 L 1 141 C 1 144.472412109375 2.352241516113281 147.7370147705078 4.8076171875 150.1923980712891 C 7.262977600097656 152.6477661132813 10.52758026123047 154 14 154 L 114 154 C 117.4724197387695 154 120.7370223999023 152.6477661132813 123.1923828125 150.1923980712891 C 125.6477584838867 147.7370147705078 127 144.472412109375 127 141 L 127 14 C 127 10.52757263183594 125.6477584838867 7.262985229492188 123.1923828125 4.807601928710938 C 120.7370223999023 2.35223388671875 117.4724197387695 1 114 1 L 14 1 M 14 0 L 114 0 C 121.7319793701172 0 128 6.26800537109375 128 14 L 128 141 C 128 148.7319946289063 121.7319793701172 155 114 155 L 14 155 C 6.268020629882813 155 0 148.7319946289063 0 141 L 0 14 C 0 6.26800537109375 6.268020629882813 0 14 0 Z" stroke="none" fill="#fff"/>
        </g>
      </g>
      <path id="Trazado_9477" data-name="Trazado 9477" d="M-40.866,0V-9.242h2.647a3.573,3.573,0,0,1,2.253.632,2.252,2.252,0,0,1,.806,1.888,2.286,2.286,0,0,1-.3,1.165,1.788,1.788,0,0,1-.873.759,1.711,1.711,0,0,1,1.152.743A2.457,2.457,0,0,1-34.8-2.691a2.541,2.541,0,0,1-.771,2.009,3.214,3.214,0,0,1-2.2.682Zm1.79-4.094v2.7h1.308a1.135,1.135,0,0,0,.882-.327,1.392,1.392,0,0,0,.3-.968,1.668,1.668,0,0,0-.273-1.022,1.043,1.043,0,0,0-.851-.381h-1.365Zm0-1.238h.939a1.22,1.22,0,0,0,.882-.324,1.236,1.236,0,0,0,.3-.9,1.309,1.309,0,0,0-.317-.971,1.31,1.31,0,0,0-.952-.311h-.857ZM-31.1.133a2.542,2.542,0,0,1-2.107-.939,3.76,3.76,0,0,1-.749-2.418v-.26a4.162,4.162,0,0,1,.72-2.533A2.373,2.373,0,0,1-31.211-7a2.217,2.217,0,0,1,1.86.832A3.587,3.587,0,0,1-28.7-3.9v.978H-32.17a2.413,2.413,0,0,0,.346,1.212,1.041,1.041,0,0,0,.93.451A2.763,2.763,0,0,0-30-1.387a3.623,3.623,0,0,0,.771-.39l.463,1.117a2.968,2.968,0,0,1-.993.565A3.881,3.881,0,0,1-31.1.133Zm-.108-5.726a.717.717,0,0,0-.67.4,2.745,2.745,0,0,0-.276,1.089h1.7v-.159a2.226,2.226,0,0,0-.175-.978A.6.6,0,0,0-31.211-5.592Zm5.567,3.053.083.521h.038l.1-.521.838-4.329h1.873L-24.673,0h-1.746L-28.38-6.868H-26.5ZM-19.481.133a2.542,2.542,0,0,1-2.107-.939,3.76,3.76,0,0,1-.749-2.418v-.26a4.162,4.162,0,0,1,.72-2.533A2.373,2.373,0,0,1-19.589-7a2.217,2.217,0,0,1,1.86.832,3.587,3.587,0,0,1,.647,2.26v.978h-3.466A2.413,2.413,0,0,0-20.2-1.714a1.041,1.041,0,0,0,.93.451,2.763,2.763,0,0,0,.892-.124,3.623,3.623,0,0,0,.771-.39l.463,1.117a2.968,2.968,0,0,1-.993.565A3.881,3.881,0,0,1-19.481.133Zm-.108-5.726a.717.717,0,0,0-.67.4,2.745,2.745,0,0,0-.276,1.089h1.7v-.159a2.226,2.226,0,0,0-.175-.978A.6.6,0,0,0-19.589-5.592Zm6.627.273-.609-.019a.776.776,0,0,0-.5.159,1,1,0,0,0-.308.444V0h-1.784V-6.868h1.669l.07.971a2.114,2.114,0,0,1,.5-.809A1,1,0,0,1-13.209-7a1.04,1.04,0,0,1,.222.022q.1.022.209.054ZM-8.69,0a3.022,3.022,0,0,1-.168-.5,4.207,4.207,0,0,1-.1-.546,2.43,2.43,0,0,1-.6.844,1.322,1.322,0,0,1-.911.33,1.863,1.863,0,0,1-1.444-.549,2.143,2.143,0,0,1-.5-1.508,1.921,1.921,0,0,1,.663-1.558,3.03,3.03,0,0,1,1.984-.555h.781v-.571a1.384,1.384,0,0,0-.19-.79.642.642,0,0,0-.565-.276.6.6,0,0,0-.5.222,1.021,1.021,0,0,0-.171.635l-1.727-.006-.013-.038a1.83,1.83,0,0,1,.667-1.511A2.707,2.707,0,0,1-9.629-7a2.487,2.487,0,0,1,1.758.622A2.3,2.3,0,0,1-7.2-4.6v2.818a5.723,5.723,0,0,0,.07.914A5.366,5.366,0,0,0-6.913,0ZM-10-1.193a1,1,0,0,0,.635-.219,1.1,1.1,0,0,0,.381-.53V-3.021h-.781a.748.748,0,0,0-.657.292,1.245,1.245,0,0,0-.206.736.919.919,0,0,0,.171.578A.548.548,0,0,0-10-1.193Zm3.726-2.2A4.971,4.971,0,0,1-5.675-6,1.9,1.9,0,0,1-3.967-7a1.474,1.474,0,0,1,.835.238,2.106,2.106,0,0,1,.625.676l.121-.787H-.832v6.83a2.709,2.709,0,0,1-.784,2.076,3.05,3.05,0,0,1-2.174.736,3.607,3.607,0,0,1-.962-.14A4.494,4.494,0,0,1-5.7,2.253L-5.4.9a3.579,3.579,0,0,0,.762.3,3.248,3.248,0,0,0,.838.1A1.121,1.121,0,0,0-2.917.974,1.51,1.51,0,0,0-2.628-.044V-.552a1.82,1.82,0,0,1-.594.511A1.61,1.61,0,0,1-3.98.133,1.91,1.91,0,0,1-5.675-.8a4.475,4.475,0,0,1-.6-2.466Zm1.79.133A3.881,3.881,0,0,0-4.266-1.8a.771.771,0,0,0,.755.527A1.027,1.027,0,0,0-2.987-1.4a.984.984,0,0,0,.359-.368v-3.25a1.159,1.159,0,0,0-.365-.422A.886.886,0,0,0-3.5-5.586a.791.791,0,0,0-.752.6A4.5,4.5,0,0,0-4.488-3.4ZM2.983.133A2.542,2.542,0,0,1,.876-.806,3.76,3.76,0,0,1,.127-3.225v-.26a4.162,4.162,0,0,1,.72-2.533A2.373,2.373,0,0,1,2.875-7a2.217,2.217,0,0,1,1.86.832A3.587,3.587,0,0,1,5.383-3.9v.978H1.917a2.413,2.413,0,0,0,.346,1.212,1.041,1.041,0,0,0,.93.451,2.763,2.763,0,0,0,.892-.124,3.623,3.623,0,0,0,.771-.39L5.319-.66A2.968,2.968,0,0,1,4.326-.1,3.881,3.881,0,0,1,2.983.133ZM2.875-5.592a.717.717,0,0,0-.67.4A2.745,2.745,0,0,0,1.93-4.107h1.7v-.159a2.226,2.226,0,0,0-.175-.978A.6.6,0,0,0,2.875-5.592ZM15.349-2.869l.013.038A2.848,2.848,0,0,1,14.6-.606a3.137,3.137,0,0,1-2.238.74A3.193,3.193,0,0,1,10-.746a3.386,3.386,0,0,1-.876-2.5V-5.986a3.479,3.479,0,0,1,.847-2.5,3.013,3.013,0,0,1,2.288-.889,3.352,3.352,0,0,1,2.33.736,2.79,2.79,0,0,1,.787,2.228l-.013.038H13.622a1.894,1.894,0,0,0-.314-1.244,1.342,1.342,0,0,0-1.051-.355,1.146,1.146,0,0,0-1.009.486A2.638,2.638,0,0,0,10.912-6v2.755a2.505,2.505,0,0,0,.362,1.495,1.274,1.274,0,0,0,1.092.486,1.178,1.178,0,0,0,.958-.352,2.013,2.013,0,0,0,.292-1.254Zm4.221-2.45-.609-.019a.776.776,0,0,0-.5.159,1,1,0,0,0-.308.444V0H16.371V-6.868H18.04l.07.971a2.114,2.114,0,0,1,.5-.809A1,1,0,0,1,19.322-7a1.04,1.04,0,0,1,.222.022q.1.022.209.054ZM23.842,0a3.021,3.021,0,0,1-.168-.5,4.206,4.206,0,0,1-.1-.546,2.43,2.43,0,0,1-.6.844,1.322,1.322,0,0,1-.911.33A1.863,1.863,0,0,1,20.62-.416a2.143,2.143,0,0,1-.5-1.508,1.921,1.921,0,0,1,.663-1.558,3.03,3.03,0,0,1,1.984-.555h.781v-.571a1.384,1.384,0,0,0-.19-.79.642.642,0,0,0-.565-.276.6.6,0,0,0-.5.222,1.021,1.021,0,0,0-.171.635l-1.727-.006-.013-.038a1.83,1.83,0,0,1,.667-1.511A2.707,2.707,0,0,1,22.9-7a2.487,2.487,0,0,1,1.758.622A2.3,2.3,0,0,1,25.333-4.6v2.818a5.724,5.724,0,0,0,.07.914A5.366,5.366,0,0,0,25.619,0ZM22.528-1.193a1,1,0,0,0,.635-.219,1.1,1.1,0,0,0,.381-.53V-3.021h-.781a.748.748,0,0,0-.657.292,1.245,1.245,0,0,0-.206.736.919.919,0,0,0,.171.578A.548.548,0,0,0,22.528-1.193Zm6.056-7.382v1.708h.933v1.276h-.933v3.5a1.138,1.138,0,0,0,.127.622.4.4,0,0,0,.349.184,1.141,1.141,0,0,0,.209-.016,1.871,1.871,0,0,0,.2-.054l.14,1.32a3.142,3.142,0,0,1-.486.13A3,3,0,0,1,28.6.133,1.688,1.688,0,0,1,27.26-.4a2.516,2.516,0,0,1-.467-1.682v-3.51h-.832V-6.868h.832V-8.576ZM33.147.133A2.542,2.542,0,0,1,31.04-.806a3.76,3.76,0,0,1-.749-2.418v-.26a4.162,4.162,0,0,1,.72-2.533A2.373,2.373,0,0,1,33.04-7a2.217,2.217,0,0,1,1.86.832,3.587,3.587,0,0,1,.647,2.26v.978H32.081a2.413,2.413,0,0,0,.346,1.212,1.041,1.041,0,0,0,.93.451,2.763,2.763,0,0,0,.892-.124,3.623,3.623,0,0,0,.771-.39L35.483-.66A2.968,2.968,0,0,1,34.49-.1,3.881,3.881,0,0,1,33.147.133ZM33.04-5.592a.717.717,0,0,0-.67.4,2.745,2.745,0,0,0-.276,1.089h1.7v-.159a2.226,2.226,0,0,0-.175-.978A.6.6,0,0,0,33.04-5.592Zm6.481,3.8a.682.682,0,0,0-.235-.521,3.858,3.858,0,0,0-.908-.527A4.806,4.806,0,0,1,36.8-3.72a1.637,1.637,0,0,1-.527-1.257,1.837,1.837,0,0,1,.67-1.428A2.585,2.585,0,0,1,38.721-7a2.673,2.673,0,0,1,1.844.613,1.887,1.887,0,0,1,.657,1.546l-.013.038H39.482a1.16,1.16,0,0,0-.19-.7.666.666,0,0,0-.578-.263.729.729,0,0,0-.524.2.659.659,0,0,0-.213.5.628.628,0,0,0,.209.492,4.367,4.367,0,0,0,.914.517,4.442,4.442,0,0,1,1.615.879,1.728,1.728,0,0,1,.53,1.311,1.753,1.753,0,0,1-.7,1.435A2.883,2.883,0,0,1,38.7.133a2.592,2.592,0,0,1-1.9-.686,2.016,2.016,0,0,1-.667-1.555l.019-.038h1.625a1.115,1.115,0,0,0,.267.8.965.965,0,0,0,.7.244.819.819,0,0,0,.581-.187A.658.658,0,0,0,39.521-1.79Z" transform="translate(-5269 -11670)" fill="#fff"/>
      <path id="Trazado_15" data-name="Trazado 15" d="M120.524,82.99V72.584a7.764,7.764,0,0,0-7.755-7.756H73.1a7.765,7.765,0,0,0-7.756,7.756V82.99A7.765,7.765,0,0,0,73.1,90.746h39.666a7.765,7.765,0,0,0,7.755-7.756Zm-15.9,5.574a31.466,31.466,0,0,0,1.884-10.737V76.768h5.128v1.059A31.464,31.464,0,0,0,113.5,88.514a5.651,5.651,0,0,1-.731.049Zm1.427-13.978.074-.688h5.893l.074.688Zm6.064-2.871h-6.086v-.789a.259.259,0,0,1,.259-.259h5.569a.259.259,0,0,1,.258.259ZM67.529,82.99V72.584A5.58,5.58,0,0,1,73.1,67.01h39.666a5.58,5.58,0,0,1,5.573,5.574V82.99a5.574,5.574,0,0,1-2.778,4.819,29.286,29.286,0,0,1-1.749-9.981V76.073a1.987,1.987,0,0,0,.468-1.5l-.16-1.485a1.5,1.5,0,0,0,.172-.7V70.926a2.444,2.444,0,0,0-2.441-2.441h-5.569a2.444,2.444,0,0,0-2.441,2.441v1.463a1.494,1.494,0,0,0,.172.7l-.16,1.485a1.988,1.988,0,0,0,.468,1.5v1.754a29.289,29.289,0,0,1-1.794,10.11l-.23.626H99.706l-.23-.626a29.288,29.288,0,0,1-1.794-10.11V76.073a1.989,1.989,0,0,0,.468-1.5l-.16-1.485a1.5,1.5,0,0,0,.172-.7V70.926a2.444,2.444,0,0,0-2.441-2.441H90.152a2.444,2.444,0,0,0-2.442,2.441v1.463a1.5,1.5,0,0,0,.172.7l-.16,1.485a1.985,1.985,0,0,0,.468,1.5v1.754a29.289,29.289,0,0,1-1.795,10.11l-.229.626H83.572l-.23-.626a29.289,29.289,0,0,1-1.795-10.11V76.073a1.986,1.986,0,0,0,.468-1.5l-.16-1.485a1.5,1.5,0,0,0,.172-.7V70.926a2.444,2.444,0,0,0-2.441-2.441H74.017a2.444,2.444,0,0,0-2.441,2.441v1.463a1.5,1.5,0,0,0,.172.7l-.16,1.485a1.989,1.989,0,0,0,.468,1.5v1.754a29.273,29.273,0,0,1-1.749,9.981,5.576,5.576,0,0,1-2.777-4.819Zm22.386-8.4.074-.688h5.893l.074.688Zm6.064-2.871H89.893v-.789a.259.259,0,0,1,.259-.259H95.72a.259.259,0,0,1,.259.259Zm-5.607,6.112V76.768H95.5v1.059a31.46,31.46,0,0,0,1.883,10.737h-8.9a31.461,31.461,0,0,0,1.883-10.737ZM73.759,71.715v-.789a.259.259,0,0,1,.259-.259h5.568a.259.259,0,0,1,.259.259v.789Zm-1.387,16.8a31.465,31.465,0,0,0,1.866-10.687v-1.3a1.09,1.09,0,0,0-.459-1.925l.077-.71h5.893l.074.688H78.016a1.091,1.091,0,1,0,0,2.182h1.351v1.059A31.466,31.466,0,0,0,81.25,88.564H73.1a5.649,5.649,0,0,1-.731-.049Zm0,0" transform="translate(-5361.866 -11814.422)" fill="#fff"/>
      <path id="Trazado_16" data-name="Trazado 16" d="M72.167,0H2.117A2.121,2.121,0,0,0,0,2.118V6.03A2.121,2.121,0,0,0,2.117,8.148h.227V58.759a3.065,3.065,0,0,0,3.062,3.062H45.949a1.091,1.091,0,0,0,0-2.182H5.406a.88.88,0,0,1-.88-.88V8.148h3.01a1.091,1.091,0,1,0,0-2.182H2.181V2.182H72.1V5.966H12.241a1.091,1.091,0,0,0,0,2.183H69.757V58.759a.88.88,0,0,1-.88.879H50.794a1.091,1.091,0,1,0,0,2.182H68.878a3.065,3.065,0,0,0,3.062-3.062V8.148h.227A2.121,2.121,0,0,0,74.285,6.03V2.118A2.121,2.121,0,0,0,72.167,0Zm0,0" transform="translate(-5306 -11759)" fill="#fff"/>
    </g>
  </g>
</svg>
