<svg xmlns="http://www.w3.org/2000/svg" xmlns:xlink="http://www.w3.org/1999/xlink" width="160" height="190" viewBox="0 0 160 190">
  <defs>
    <clipPath id="clip-Bottles1">
      <rect width="160" height="190"/>
    </clipPath>
  </defs>
  <g id="Bottles1" clip-path="url(#clip-Bottles1)">
    <g id="Grupo_1673" data-name="Grupo 1673" transform="translate(6041 12141)">
      <path id="Trazado_9445" data-name="Trazado 9445" d="M14,0H114a14,14,0,0,1,14,14V141a14,14,0,0,1-14,14H14A14,14,0,0,1,0,141V14A14,14,0,0,1,14,0Z" transform="translate(-6025 -12123.34)" fill="none" opacity="0.93"/>
      <path id="Trazado_9450" data-name="Trazado 9450" d="M-17.548,0V-9.242H-14.9a3.573,3.573,0,0,1,2.253.632,2.252,2.252,0,0,1,.806,1.888,2.286,2.286,0,0,1-.3,1.165,1.788,1.788,0,0,1-.873.759,1.711,1.711,0,0,1,1.152.743,2.457,2.457,0,0,1,.378,1.365,2.541,2.541,0,0,1-.771,2.009A3.214,3.214,0,0,1-14.45,0Zm1.79-4.094v2.7h1.308a1.135,1.135,0,0,0,.882-.327,1.392,1.392,0,0,0,.3-.968,1.668,1.668,0,0,0-.273-1.022,1.043,1.043,0,0,0-.851-.381h-1.365Zm0-1.238h.939a1.22,1.22,0,0,0,.882-.324,1.236,1.236,0,0,0,.3-.9,1.309,1.309,0,0,0-.317-.971,1.31,1.31,0,0,0-.952-.311h-.857ZM-10.635-3.5A4.061,4.061,0,0,1-9.9-6.021,2.459,2.459,0,0,1-7.817-7a2.478,2.478,0,0,1,2.082.974A4.024,4.024,0,0,1-4.986-3.5v.146A4.009,4.009,0,0,1-5.732-.835,2.469,2.469,0,0,1-7.8.133,2.483,2.483,0,0,1-9.893-.832a4.018,4.018,0,0,1-.743-2.52Zm1.784.146a4,4,0,0,0,.238,1.523.826.826,0,0,0,.809.565.816.816,0,0,0,.787-.565,3.955,3.955,0,0,0,.241-1.523V-3.5a3.989,3.989,0,0,0-.241-1.52.824.824,0,0,0-.8-.574.819.819,0,0,0-.8.578A4.042,4.042,0,0,0-8.852-3.5ZM-1.92-8.576v1.708h.933v1.276H-1.92v3.5a1.138,1.138,0,0,0,.127.622.4.4,0,0,0,.349.184A1.141,1.141,0,0,0-1.235-1.3a1.871,1.871,0,0,0,.2-.054l.14,1.32a3.142,3.142,0,0,1-.486.13A3,3,0,0,1-1.9.133,1.688,1.688,0,0,1-3.244-.4,2.516,2.516,0,0,1-3.71-2.082v-3.51h-.832V-6.868h.832V-8.576Zm4.031,0v1.708h.933v1.276H2.111v3.5a1.138,1.138,0,0,0,.127.622.4.4,0,0,0,.349.184A1.141,1.141,0,0,0,2.8-1.3,1.871,1.871,0,0,0,3-1.358l.14,1.32a3.142,3.142,0,0,1-.486.13A3,3,0,0,1,2.13.133,1.688,1.688,0,0,1,.787-.4,2.516,2.516,0,0,1,.321-2.082v-3.51H-.511V-6.868H.321V-8.576ZM5.919,0H4.129V-9.9h1.79Zm3.91.133A2.542,2.542,0,0,1,7.722-.806a3.76,3.76,0,0,1-.749-2.418v-.26a4.162,4.162,0,0,1,.72-2.533A2.373,2.373,0,0,1,9.721-7a2.217,2.217,0,0,1,1.86.832,3.587,3.587,0,0,1,.647,2.26v.978H8.763a2.413,2.413,0,0,0,.346,1.212,1.041,1.041,0,0,0,.93.451,2.763,2.763,0,0,0,.892-.124,3.623,3.623,0,0,0,.771-.39L12.165-.66a2.968,2.968,0,0,1-.993.565A3.881,3.881,0,0,1,9.829.133ZM9.721-5.592a.717.717,0,0,0-.67.4,2.745,2.745,0,0,0-.276,1.089h1.7v-.159a2.226,2.226,0,0,0-.175-.978A.6.6,0,0,0,9.721-5.592ZM16.2-1.79a.682.682,0,0,0-.235-.521,3.858,3.858,0,0,0-.908-.527,4.806,4.806,0,0,1-1.574-.882,1.637,1.637,0,0,1-.527-1.257,1.837,1.837,0,0,1,.67-1.428A2.585,2.585,0,0,1,15.4-7a2.673,2.673,0,0,1,1.844.613A1.887,1.887,0,0,1,17.9-4.837l-.013.038H16.164a1.16,1.16,0,0,0-.19-.7.666.666,0,0,0-.578-.263.729.729,0,0,0-.524.2.659.659,0,0,0-.213.5.628.628,0,0,0,.209.492,4.367,4.367,0,0,0,.914.517,4.442,4.442,0,0,1,1.615.879,1.728,1.728,0,0,1,.53,1.311,1.753,1.753,0,0,1-.7,1.435,2.883,2.883,0,0,1-1.85.559,2.592,2.592,0,0,1-1.9-.686,2.016,2.016,0,0,1-.667-1.555l.019-.038h1.625a1.115,1.115,0,0,0,.267.8.965.965,0,0,0,.7.244A.819.819,0,0,0,16-1.285.658.658,0,0,0,16.2-1.79Z" transform="translate(-5961 -11986)" fill="#5e5b5c"/>
      <path id="Trazado_22" data-name="Trazado 22" d="M179.018,53.073a5.541,5.541,0,0,0-2.138-4.384,5.52,5.52,0,0,0-.243-8.924,6.142,6.142,0,0,0,2.322-4.853V23.241L167.723,8.611h2.469V0H152.814V8.611h2.625l-11.392,14.63V34.913a6.21,6.21,0,0,0,2.4,4.853,5.555,5.555,0,0,0-.182,8.924,5.579,5.579,0,0,0,.179,8.924,6.207,6.207,0,0,0-2.4,4.853v10.02a6.326,6.326,0,0,0,6.262,6.262h6.262v-.1A6.22,6.22,0,0,0,160.329,80h2.5a6.219,6.219,0,0,0,3.757-1.355v.1h6.262a6.192,6.192,0,0,0,6.106-6.262V62.467a6.14,6.14,0,0,0-2.319-4.853A5.572,5.572,0,0,0,179.018,53.073ZM155.163,6.262V2.348h12.681V6.262Zm3.24,2.348h6.358l10.718,13.934H147.684ZM173.48,49.942a3.209,3.209,0,1,1,0,6.419h-3.131v2.348h2.5a3.707,3.707,0,0,1,3.757,3.757v10.02a3.842,3.842,0,0,1-3.757,3.914h-4.4a7.082,7.082,0,0,0,.567-2.661H166.67a3.908,3.908,0,0,1-3.836,3.914h-2.505a3.908,3.908,0,0,1-3.836-3.914h-2.348a7.081,7.081,0,0,0,.568,2.661h-4.4a3.975,3.975,0,0,1-3.914-3.914V62.467a3.842,3.842,0,0,1,3.914-3.757h12.525V56.361H149.683a3.209,3.209,0,0,1,0-6.419h13.151V47.594H149.683a3.209,3.209,0,0,1,0-6.419h13.151V38.827H150.309a3.975,3.975,0,0,1-3.914-3.914V24.893h30.216v10.02a3.842,3.842,0,0,1-3.757,3.914h-2.5v2.348h3.131a3.209,3.209,0,1,1,0,6.419h-3.131v2.348Z" transform="translate(-6122.047 -12094)" fill="#5e5b5c"/>
      <path id="Trazado_9451" data-name="Trazado 9451" d="M0,0H2.5V2.348H0Z" transform="translate(-5969.232 -12076.466)" fill="#5e5b5c"/>
      <path id="Trazado_9452" data-name="Trazado 9452" d="M0,0H2.5V2.348H0Z" transform="translate(-5966.727 -12078.971)" fill="#5e5b5c"/>
      <path id="Trazado_9453" data-name="Trazado 9453" d="M0,0H2.5V2.348H0Z" transform="translate(-5956.708 -12046.406)" fill="#5e5b5c"/>
      <path id="Trazado_9454" data-name="Trazado 9454" d="M0,0H2.5V2.348H0Z" transform="translate(-5956.708 -12055.174)" fill="#5e5b5c"/>
      <path id="Trazado_9455" data-name="Trazado 9455" d="M0,0H2.5V2.348H0Z" transform="translate(-5956.708 -12037.639)" fill="#5e5b5c"/>
    </g>
  </g>
</svg>
