<svg xmlns="http://www.w3.org/2000/svg" xmlns:xlink="http://www.w3.org/1999/xlink" width="160" height="190" viewBox="0 0 160 190">
  <defs>
    <clipPath id="clip-Litho-p1">
      <rect width="160" height="190"/>
    </clipPath>
  </defs>
  <g id="Litho-p1" clip-path="url(#clip-Litho-p1)">
    <g id="Grupo_1681" data-name="Grupo 1681" transform="translate(5522 11820)">
      <path id="Trazado_9475" data-name="Trazado 9475" d="M-29.8-1.4h3.447V0h-5.237V-9.242h1.79ZM-23.524,0h-1.79V-6.868h1.79Zm0-8.538h-1.79V-9.9h1.79Zm3.377-.038v1.708h.933v1.276h-.933v3.5a1.138,1.138,0,0,0,.127.622.4.4,0,0,0,.349.184,1.141,1.141,0,0,0,.209-.016,1.871,1.871,0,0,0,.2-.054l.14,1.32a3.142,3.142,0,0,1-.486.13,3,3,0,0,1-.524.041A1.688,1.688,0,0,1-21.471-.4a2.516,2.516,0,0,1-.467-1.682v-3.51h-.832V-6.868h.832V-8.576Zm3.675,2.539a2.127,2.127,0,0,1,.657-.708A1.518,1.518,0,0,1-14.968-7a1.709,1.709,0,0,1,1.454.724,3.766,3.766,0,0,1,.533,2.228V0h-1.79V-4.056a2.674,2.674,0,0,0-.187-1.19.619.619,0,0,0-.581-.34,1.135,1.135,0,0,0-.543.124,1.107,1.107,0,0,0-.39.352V0h-1.784V-9.9h1.784ZM-12.035-3.5a4.061,4.061,0,0,1,.74-2.523A2.459,2.459,0,0,1-9.217-7a2.478,2.478,0,0,1,2.082.974A4.024,4.024,0,0,1-6.386-3.5v.146A4.009,4.009,0,0,1-7.132-.835,2.469,2.469,0,0,1-9.2.133a2.483,2.483,0,0,1-2.088-.965,4.018,4.018,0,0,1-.743-2.52Zm1.784.146a4,4,0,0,0,.238,1.523.826.826,0,0,0,.809.565.816.816,0,0,0,.787-.565,3.955,3.955,0,0,0,.241-1.523V-3.5a3.989,3.989,0,0,0-.241-1.52.824.824,0,0,0-.8-.574.819.819,0,0,0-.8.578A4.042,4.042,0,0,0-10.251-3.5Zm4.6-.044A4.971,4.971,0,0,1-5.046-6,1.9,1.9,0,0,1-3.339-7a1.474,1.474,0,0,1,.835.238,2.106,2.106,0,0,1,.625.676l.121-.787H-.2v6.83A2.709,2.709,0,0,1-.987,2.038a3.05,3.05,0,0,1-2.174.736,3.607,3.607,0,0,1-.962-.14,4.494,4.494,0,0,1-.949-.381L-4.773.9a3.579,3.579,0,0,0,.762.3,3.248,3.248,0,0,0,.838.1A1.121,1.121,0,0,0-2.288.974,1.51,1.51,0,0,0-2-.044V-.552a1.82,1.82,0,0,1-.594.511,1.61,1.61,0,0,1-.759.175A1.91,1.91,0,0,1-5.046-.8a4.475,4.475,0,0,1-.6-2.466Zm1.79.133A3.881,3.881,0,0,0-3.637-1.8a.771.771,0,0,0,.755.527A1.027,1.027,0,0,0-2.358-1.4.984.984,0,0,0-2-1.765v-3.25a1.159,1.159,0,0,0-.365-.422.886.886,0,0,0-.511-.149.791.791,0,0,0-.752.6A4.5,4.5,0,0,0-3.859-3.4ZM4.183-5.319l-.609-.019a.776.776,0,0,0-.5.159,1,1,0,0,0-.308.444V0H.984V-6.868H2.653l.07.971a2.114,2.114,0,0,1,.5-.809A1,1,0,0,1,3.936-7a1.04,1.04,0,0,1,.222.022q.1.022.209.054ZM8.455,0a3.022,3.022,0,0,1-.168-.5,4.207,4.207,0,0,1-.1-.546,2.43,2.43,0,0,1-.6.844,1.322,1.322,0,0,1-.911.33A1.863,1.863,0,0,1,5.234-.416a2.143,2.143,0,0,1-.5-1.508,1.921,1.921,0,0,1,.663-1.558,3.03,3.03,0,0,1,1.984-.555h.781v-.571a1.384,1.384,0,0,0-.19-.79A.642.642,0,0,0,7.4-5.675a.6.6,0,0,0-.5.222,1.021,1.021,0,0,0-.171.635L5-4.824l-.013-.038a1.83,1.83,0,0,1,.667-1.511A2.707,2.707,0,0,1,7.516-7a2.487,2.487,0,0,1,1.758.622A2.3,2.3,0,0,1,9.947-4.6v2.818a5.723,5.723,0,0,0,.07.914A5.366,5.366,0,0,0,10.232,0ZM7.141-1.193a1,1,0,0,0,.635-.219,1.1,1.1,0,0,0,.381-.53V-3.021H7.376a.748.748,0,0,0-.657.292,1.245,1.245,0,0,0-.206.736.919.919,0,0,0,.171.578A.548.548,0,0,0,7.141-1.193Zm9.407-2.069A4.456,4.456,0,0,1,15.942-.8a1.918,1.918,0,0,1-1.7.93,1.658,1.658,0,0,1-.774-.175,1.691,1.691,0,0,1-.584-.511V2.641H11.1V-6.868H12.74l.076.7a1.909,1.909,0,0,1,.6-.616A1.513,1.513,0,0,1,14.231-7,1.9,1.9,0,0,1,15.942-6,4.95,4.95,0,0,1,16.548-3.4ZM14.758-3.4a4.345,4.345,0,0,0-.241-1.587.8.8,0,0,0-.749-.6.9.9,0,0,0-.527.156A1.089,1.089,0,0,0,12.886-5v3.237a.931.931,0,0,0,.355.368,1.058,1.058,0,0,0,.533.127.78.78,0,0,0,.752-.53,3.761,3.761,0,0,0,.232-1.469ZM19.24-6.037a2.127,2.127,0,0,1,.657-.708A1.518,1.518,0,0,1,20.744-7a1.709,1.709,0,0,1,1.454.724,3.766,3.766,0,0,1,.533,2.228V0h-1.79V-4.056a2.674,2.674,0,0,0-.187-1.19.619.619,0,0,0-.581-.34,1.135,1.135,0,0,0-.543.124,1.107,1.107,0,0,0-.39.352V0H17.456V-9.9H19.24ZM25.771,0h-1.79V-6.868h1.79Zm0-8.538h-1.79V-9.9h1.79ZM29.58-1.263a.659.659,0,0,0,.578-.282,1.407,1.407,0,0,0,.2-.809h1.619l.019.038a2.323,2.323,0,0,1-.67,1.761A2.361,2.361,0,0,1,29.58.133a2.42,2.42,0,0,1-2.066-.968,4.086,4.086,0,0,1-.72-2.5v-.184a4.092,4.092,0,0,1,.72-2.5A2.408,2.408,0,0,1,29.574-7a2.3,2.3,0,0,1,1.777.714,2.661,2.661,0,0,1,.641,1.927l-.013.032H30.354a1.868,1.868,0,0,0-.2-.92.632.632,0,0,0-.584-.349.78.78,0,0,0-.774.568,4.313,4.313,0,0,0-.216,1.5v.184A4.321,4.321,0,0,0,28.8-1.822.783.783,0,0,0,29.58-1.263ZM-24.35,10.655V14h-1.79V4.758h3.091a2.97,2.97,0,0,1,2.2.816,2.9,2.9,0,0,1,.813,2.136,2.881,2.881,0,0,1-.812,2.136,2.983,2.983,0,0,1-2.2.809Zm0-1.4h1.3a1.063,1.063,0,0,0,.917-.432,1.818,1.818,0,0,0,.314-1.1,1.885,1.885,0,0,0-.314-1.12,1.055,1.055,0,0,0-.917-.441h-1.3Zm8.7,4.748a3.022,3.022,0,0,1-.168-.5,4.207,4.207,0,0,1-.1-.546,2.43,2.43,0,0,1-.6.844,1.322,1.322,0,0,1-.911.33,1.863,1.863,0,0,1-1.444-.549,2.143,2.143,0,0,1-.5-1.508,1.921,1.921,0,0,1,.663-1.558,3.03,3.03,0,0,1,1.984-.555h.781V9.392a1.384,1.384,0,0,0-.19-.79.642.642,0,0,0-.565-.276.6.6,0,0,0-.5.222,1.021,1.021,0,0,0-.171.635L-19.1,9.176l-.013-.038a1.83,1.83,0,0,1,.667-1.511A2.707,2.707,0,0,1-16.586,7a2.487,2.487,0,0,1,1.758.622A2.3,2.3,0,0,1-14.155,9.4v2.818a5.723,5.723,0,0,0,.07.914A5.366,5.366,0,0,0-13.87,14Zm-1.314-1.193a1,1,0,0,0,.635-.219,1.1,1.1,0,0,0,.381-.53V10.979h-.781a.748.748,0,0,0-.657.292,1.245,1.245,0,0,0-.206.736.919.919,0,0,0,.171.578A.548.548,0,0,0-16.961,12.807Zm6.487-.07a.659.659,0,0,0,.578-.282,1.407,1.407,0,0,0,.2-.809h1.619l.019.038a2.323,2.323,0,0,1-.67,1.761,2.361,2.361,0,0,1-1.742.689,2.42,2.42,0,0,1-2.066-.968,4.086,4.086,0,0,1-.72-2.5v-.184a4.092,4.092,0,0,1,.72-2.5A2.408,2.408,0,0,1-10.48,7,2.3,2.3,0,0,1-8.7,7.719a2.661,2.661,0,0,1,.641,1.927l-.013.032H-9.7a1.868,1.868,0,0,0-.2-.92.632.632,0,0,0-.584-.349.78.78,0,0,0-.774.568,4.313,4.313,0,0,0-.216,1.5v.184a4.321,4.321,0,0,0,.216,1.517A.783.783,0,0,0-10.474,12.737Zm5.434-1.619h-.324V14h-1.79V4.1h1.79V9.734h.292l1.244-2.6h2.063l-1.866,3.1L-1.485,14h-2.05ZM2.45,14a3.022,3.022,0,0,1-.168-.5,4.207,4.207,0,0,1-.1-.546,2.43,2.43,0,0,1-.6.844,1.322,1.322,0,0,1-.911.33,1.863,1.863,0,0,1-1.444-.549,2.143,2.143,0,0,1-.5-1.508,1.921,1.921,0,0,1,.663-1.558,3.03,3.03,0,0,1,1.984-.555h.781V9.392a1.384,1.384,0,0,0-.19-.79A.642.642,0,0,0,1.4,8.325a.6.6,0,0,0-.5.222,1.021,1.021,0,0,0-.171.635L-1,9.176l-.013-.038A1.83,1.83,0,0,1-.349,7.627,2.707,2.707,0,0,1,1.511,7a2.487,2.487,0,0,1,1.758.622A2.3,2.3,0,0,1,3.942,9.4v2.818a5.723,5.723,0,0,0,.07.914A5.366,5.366,0,0,0,4.228,14ZM1.136,12.807a1,1,0,0,0,.635-.219,1.1,1.1,0,0,0,.381-.53V10.979H1.371a.748.748,0,0,0-.657.292,1.245,1.245,0,0,0-.206.736.919.919,0,0,0,.171.578A.548.548,0,0,0,1.136,12.807Zm3.726-2.2A4.971,4.971,0,0,1,5.465,8,1.9,1.9,0,0,1,7.173,7a1.474,1.474,0,0,1,.835.238,2.106,2.106,0,0,1,.625.676l.121-.787h1.555v6.83a2.709,2.709,0,0,1-.784,2.076,3.05,3.05,0,0,1-2.174.736,3.607,3.607,0,0,1-.962-.14,4.494,4.494,0,0,1-.949-.381l.3-1.358a3.579,3.579,0,0,0,.762.3,3.248,3.248,0,0,0,.838.1,1.121,1.121,0,0,0,.885-.327,1.51,1.51,0,0,0,.289-1.019v-.508a1.82,1.82,0,0,1-.594.511,1.61,1.61,0,0,1-.759.175,1.91,1.91,0,0,1-1.695-.93,4.475,4.475,0,0,1-.6-2.466Zm1.79.133A3.881,3.881,0,0,0,6.875,12.2a.771.771,0,0,0,.755.527,1.027,1.027,0,0,0,.524-.127.984.984,0,0,0,.359-.368V8.985a1.159,1.159,0,0,0-.365-.422.886.886,0,0,0-.511-.149.791.791,0,0,0-.752.6,4.5,4.5,0,0,0-.232,1.59ZM13.368,14h-1.79V7.132h1.79Zm0-8.538h-1.79V4.1h1.79Zm2.92,1.669.076.958a2.334,2.334,0,0,1,.714-.8A1.644,1.644,0,0,1,18.021,7a1.608,1.608,0,0,1,1.374.682,3.665,3.665,0,0,1,.5,2.142V14H18.1V9.83a2.315,2.315,0,0,0-.187-1.095.615.615,0,0,0-.568-.321,1.04,1.04,0,0,0-.536.14,1.211,1.211,0,0,0-.4.394V14h-1.79V7.132ZM20.814,10.6A4.971,4.971,0,0,1,21.417,8,1.9,1.9,0,0,1,23.125,7a1.474,1.474,0,0,1,.835.238,2.106,2.106,0,0,1,.625.676l.121-.787H26.26v6.83a2.709,2.709,0,0,1-.784,2.076,3.05,3.05,0,0,1-2.174.736,3.607,3.607,0,0,1-.962-.14,4.494,4.494,0,0,1-.949-.381l.3-1.358a3.579,3.579,0,0,0,.762.3,3.248,3.248,0,0,0,.838.1,1.121,1.121,0,0,0,.885-.327,1.51,1.51,0,0,0,.289-1.019v-.508a1.82,1.82,0,0,1-.594.511,1.61,1.61,0,0,1-.759.175,1.91,1.91,0,0,1-1.695-.93,4.475,4.475,0,0,1-.6-2.466Zm1.79.133a3.881,3.881,0,0,0,.222,1.466.771.771,0,0,0,.755.527,1.027,1.027,0,0,0,.524-.127.984.984,0,0,0,.359-.368V8.985a1.159,1.159,0,0,0-.365-.422.886.886,0,0,0-.511-.149.791.791,0,0,0-.752.6A4.5,4.5,0,0,0,22.6,10.6Z" transform="translate(-5442 -11679)" fill="#5e5b5c"/>
    </g>
    <g id="Grupo_1680" data-name="Grupo 1680" transform="translate(5522 11813)">
      <path id="Trazado_6022" data-name="Trazado 6022" d="M66.485,9.015H62.19L61.977,5.6V3.381A3.381,3.381,0,0,0,58.6,0H54.089a3.381,3.381,0,0,0-3.381,3.381V5.6L50.5,9.015H39.653L39.44,5.6V3.381A3.381,3.381,0,0,0,36.06,0H31.552a3.381,3.381,0,0,0-3.381,3.381V5.6l-.213,3.416H17.116L16.9,5.6V3.381A3.381,3.381,0,0,0,13.522,0H9.015A3.381,3.381,0,0,0,5.634,3.381V5.6L5.421,9.015H1.127A1.127,1.127,0,0,0,0,10.142V66.485a1.127,1.127,0,0,0,1.127,1.127H66.485a1.127,1.127,0,0,0,1.127-1.127V10.142A1.127,1.127,0,0,0,66.485,9.015ZM52.962,3.381a1.127,1.127,0,0,1,1.127-1.127H58.6a1.127,1.127,0,0,1,1.127,1.127V4.507H52.962ZM51.778,24.02a1.127,1.127,0,0,0,.057-.285L52.894,6.761h6.9L60.85,23.735a1.13,1.13,0,0,0,.055.285l1.011,3.024H50.77ZM50.355,11.269l-.762,12.179-1.2,3.6H41.755l-1.127-3.381h1.066a4.507,4.507,0,0,0,0-9.015H40l-.212-3.381ZM40.428,21.41,40.147,16.9h1.547a2.254,2.254,0,1,1,0,4.507Zm-10-18.03a1.127,1.127,0,0,1,1.127-1.127H36.06a1.127,1.127,0,0,1,1.127,1.127V4.507H30.425ZM29.241,24.02a1.126,1.126,0,0,0,.057-.285L30.356,6.761h6.9l1.058,16.974a1.13,1.13,0,0,0,.055.285l1.011,3.024H28.232ZM27.818,11.269l-.21,3.381h-1.69a4.507,4.507,0,0,0,0,9.015h1.066l-1.127,3.381H19.217l-1.2-3.6-.762-12.179ZM27.465,16.9l-.282,4.507H25.918a2.254,2.254,0,0,1,0-4.507ZM7.888,3.381A1.127,1.127,0,0,1,9.015,2.254h4.507a1.127,1.127,0,0,1,1.127,1.127V4.507H7.888ZM6.7,24.02a1.126,1.126,0,0,0,.057-.285L7.819,6.761h6.9l1.058,16.974a1.13,1.13,0,0,0,.055.285l1.014,3.024H5.7ZM2.254,11.269H5.28L4.519,23.448l-1.2,3.6H2.254Zm63.1,54.089H2.254V29.3h63.1Zm0-38.313H64.292l-1.2-3.6-.762-12.179h3.027Z" transform="translate(-5476 -11765.098)" fill="#5e5b5c"/>
      <path id="Trazado_6023" data-name="Trazado 6023" d="M95.664,240C83.9,240,72,242.7,72,247.888s11.9,7.888,23.664,7.888,23.664-2.7,23.664-7.888S107.424,240,95.664,240Zm0,13.522c-13.265,0-21.41-3.281-21.41-5.634s8.145-5.634,21.41-5.634,21.41,3.281,21.41,5.634S108.929,253.522,95.664,253.522Z" transform="translate(-5537.858 -11971.292)" fill="#5e5b5c"/>
    </g>
  </g>
</svg>
