<svg xmlns="http://www.w3.org/2000/svg" xmlns:xlink="http://www.w3.org/1999/xlink" width="160" height="190" viewBox="0 0 160 190">
  <defs>
    <filter id="Trazado_9447" x="-29" y="-12.34" width="218" height="245" filterUnits="userSpaceOnUse">
      <feOffset dy="15" input="SourceAlpha"/>
      <feGaussianBlur stdDeviation="15" result="blur"/>
      <feFlood flood-color="#010101" flood-opacity="0.129"/>
      <feComposite operator="in" in2="blur"/>
      <feComposite in="SourceGraphic"/>
    </filter>
    <clipPath id="clip-Preforms1">
      <rect width="160" height="190"/>
    </clipPath>
  </defs>
  <g id="Preforms1" clip-path="url(#clip-Preforms1)">
    <g id="Grupo_1672" data-name="Grupo 1672" transform="translate(6212 12141)">
      <g transform="matrix(1, 0, 0, 1, -6212, -12141)" filter="url(#Trazado_9447)">
        <path id="Trazado_9447-2" data-name="Trazado 9447" d="M14,0H114a14,14,0,0,1,14,14V141a14,14,0,0,1-14,14H14A14,14,0,0,1,0,141V14A14,14,0,0,1,14,0Z" transform="translate(16 17.66)" fill="none" opacity="0.93"/>
      </g>
      <path id="Trazado_9461" data-name="Trazado 9461" d="M-21.014-3.345V0H-22.8V-9.242h3.091a2.97,2.97,0,0,1,2.2.816A2.9,2.9,0,0,1-16.7-6.291a2.881,2.881,0,0,1-.812,2.136,2.983,2.983,0,0,1-2.2.809Zm0-1.4h1.3A1.063,1.063,0,0,0-18.8-5.18a1.818,1.818,0,0,0,.314-1.1A1.885,1.885,0,0,0-18.8-7.4a1.055,1.055,0,0,0-.917-.441h-1.3Zm8.544-.571-.609-.019a.776.776,0,0,0-.5.159,1,1,0,0,0-.308.444V0h-1.784V-6.868H-14l.07.971a2.114,2.114,0,0,1,.5-.809A1,1,0,0,1-12.718-7a1.04,1.04,0,0,1,.222.022q.1.022.209.054ZM-9.118.133a2.542,2.542,0,0,1-2.107-.939,3.76,3.76,0,0,1-.749-2.418v-.26a4.162,4.162,0,0,1,.72-2.533A2.373,2.373,0,0,1-9.226-7a2.217,2.217,0,0,1,1.86.832A3.587,3.587,0,0,1-6.719-3.9v.978h-3.466a2.413,2.413,0,0,0,.346,1.212,1.041,1.041,0,0,0,.93.451,2.763,2.763,0,0,0,.892-.124,3.623,3.623,0,0,0,.771-.39L-6.782-.66A2.968,2.968,0,0,1-7.776-.1,3.881,3.881,0,0,1-9.118.133Zm-.108-5.726a.717.717,0,0,0-.67.4,2.745,2.745,0,0,0-.276,1.089h1.7v-.159a2.226,2.226,0,0,0-.175-.978A.6.6,0,0,0-9.226-5.592ZM-5.392,0V-5.592h-.857V-6.868h.857v-.774a2.449,2.449,0,0,1,.6-1.771A2.24,2.24,0,0,1-3.1-10.036,2.544,2.544,0,0,1-2.682-10q.209.035.482.1l-.14,1.346q-.133-.032-.254-.051a1.859,1.859,0,0,0-.286-.019.622.622,0,0,0-.54.257,1.234,1.234,0,0,0-.184.727v.774h1.1v1.276H-3.6V0Zm3.421-3.5a4.061,4.061,0,0,1,.74-2.523A2.459,2.459,0,0,1,.847-7a2.478,2.478,0,0,1,2.082.974A4.024,4.024,0,0,1,3.678-3.5v.146A4.009,4.009,0,0,1,2.933-.835,2.469,2.469,0,0,1,.86.133,2.483,2.483,0,0,1-1.228-.832a4.018,4.018,0,0,1-.743-2.52Zm1.784.146A4,4,0,0,0,.051-1.828a.826.826,0,0,0,.809.565.816.816,0,0,0,.787-.565,3.955,3.955,0,0,0,.241-1.523V-3.5a3.989,3.989,0,0,0-.241-1.52.824.824,0,0,0-.8-.574.819.819,0,0,0-.8.578A4.042,4.042,0,0,0-.187-3.5ZM7.849-5.319,7.24-5.338a.776.776,0,0,0-.5.159,1,1,0,0,0-.308.444V0H4.65V-6.868H6.319l.07.971a2.114,2.114,0,0,1,.5-.809A1,1,0,0,1,7.6-7a1.04,1.04,0,0,1,.222.022q.1.022.209.054Zm2.514-1.549.07.882a2.093,2.093,0,0,1,.7-.746A1.79,1.79,0,0,1,12.1-7a1.558,1.558,0,0,1,.933.282,1.756,1.756,0,0,1,.6.86,2.237,2.237,0,0,1,.7-.841,1.693,1.693,0,0,1,1-.3,1.576,1.576,0,0,1,1.365.724,3.925,3.925,0,0,1,.5,2.215V0h-1.79V-4.056a2.707,2.707,0,0,0-.184-1.2.605.605,0,0,0-.565-.33.8.8,0,0,0-.5.162,1.21,1.21,0,0,0-.355.448q.006.159.016.273t.01.229V0H12.057V-4.056a2.712,2.712,0,0,0-.184-1.193.608.608,0,0,0-.571-.336.856.856,0,0,0-.467.13,1.121,1.121,0,0,0-.352.365V0H8.693V-6.868Zm11.1,5.078a.682.682,0,0,0-.235-.521,3.858,3.858,0,0,0-.908-.527,4.806,4.806,0,0,1-1.574-.882,1.637,1.637,0,0,1-.527-1.257,1.837,1.837,0,0,1,.67-1.428A2.585,2.585,0,0,1,20.658-7a2.673,2.673,0,0,1,1.844.613,1.887,1.887,0,0,1,.657,1.546l-.013.038H21.42a1.16,1.16,0,0,0-.19-.7.666.666,0,0,0-.578-.263.729.729,0,0,0-.524.2.659.659,0,0,0-.213.5.628.628,0,0,0,.209.492,4.367,4.367,0,0,0,.914.517,4.442,4.442,0,0,1,1.615.879,1.728,1.728,0,0,1,.53,1.311,1.753,1.753,0,0,1-.7,1.435,2.883,2.883,0,0,1-1.85.559,2.592,2.592,0,0,1-1.9-.686,2.016,2.016,0,0,1-.667-1.555l.019-.038h1.625a1.115,1.115,0,0,0,.267.8.965.965,0,0,0,.7.244.819.819,0,0,0,.581-.187A.658.658,0,0,0,21.458-1.79Z" transform="translate(-6132 -11986)" fill="#5e5b5c"/>
      <path id="Trazado_6223" data-name="Trazado 6223" d="M2238.418,5839.478v-7.633c0-2.555-3.918-4.483-9.115-4.483s-9.115,1.928-9.115,4.483v7.633a4.226,4.226,0,0,0-2.186,3.41,4.007,4.007,0,0,0,1.769,3.085v50.769a9.531,9.531,0,0,0,19.062,0v-50.769a4.006,4.006,0,0,0,1.769-3.085A4.226,4.226,0,0,0,2238.418,5839.478Zm-14.688-9.532a15.774,15.774,0,0,1,11.147,0c1.236.549,1.975,1.259,1.975,1.9a1.556,1.556,0,0,1-.648,1.1,16.656,16.656,0,0,0-13.8,0,1.556,1.556,0,0,1-.648-1.1C2221.754,5831.2,2222.492,5830.495,2223.729,5829.945Zm10.813,3.94a16.118,16.118,0,1,1-5.24-.875A14.69,14.69,0,0,1,2234.543,5833.885Zm-12.789.542a15.939,15.939,0,0,0,15.1,0v4.056c0,.87-.753,1.761-2.067,2.445a13.515,13.515,0,0,1-10.963,0c-1.314-.684-2.067-1.575-2.067-2.445Zm14.5,7.438c-1.124,1.243-3.73,2-6.95,2s-5.826-.759-6.95-2a14.387,14.387,0,0,0,13.9,0Zm1.015,54.876a7.965,7.965,0,1,1-15.93,0v-49.8a20.514,20.514,0,0,0,15.93,0Zm-.858-51.111a19.275,19.275,0,0,1-14.213,0c-1.67-.776-2.627-1.775-2.627-2.743a2.2,2.2,0,0,1,.751-1.507c.7,2.465,4.209,4.054,8.982,4.054s8.282-1.589,8.983-4.054a2.2,2.2,0,0,1,.751,1.507C2239.037,5843.854,2238.079,5844.854,2236.41,5845.63Z" transform="translate(-8361.003 -17921.361)" fill="#5e5b5c"/>
      <path id="Trazado_6224" data-name="Trazado 6224" d="M2267.7,5901.475a11,11,0,0,0,4.886,0c1.282-.235,2.122-.449,2.122-1.241v-1.064h-1.566v.583a10.653,10.653,0,0,1-6,0v-.583h-1.566v1.064C2265.574,5901.026,2266.414,5901.24,2267.7,5901.475Z" transform="translate(-8401.84 -17983.004)" fill="#5e5b5c"/>
      <path id="Trazado_6225" data-name="Trazado 6225" d="M2247.547,5976.4l-.08-.045v48.174a6.944,6.944,0,0,0,1.764,4.134l.091.1v-51.8l-.047-.005A5.031,5.031,0,0,1,2247.547,5976.4Z" transform="translate(-8386.296 -18049.258)" fill="#5e5b5c"/>
    </g>
  </g>
</svg>
